<?xml version="1.0" encoding="utf-8"?>
<!-- Generator: Adobe Illustrator 26.0.1, SVG Export Plug-In . SVG Version: 6.00 Build 0)  -->
<svg version="1.1" id="Character" xmlns="http://www.w3.org/2000/svg" xmlns:xlink="http://www.w3.org/1999/xlink" x="0px" y="0px"
	 viewBox="0 0 500 500" enable-background="new 0 0 500 500" xml:space="preserve">
<path fill="#FCCAD1" d="M25.4,437.2h457.9c15.9-25.3,17.4-61.2,1.6-86.6c-23.7-38.1-78-54.8-89.4-98.2
	c-9.9-37.7,18.3-74.6,21.7-113.4c4.1-45.8-30.4-90.4-74.5-103.4c-44.2-13-94,3.1-126.8,35.5c-20,19.7-35.8,46-62.2,55.5
	c-21.5,7.8-45.6,2.6-68.1,6.6c-37.5,6.7-67.9,42-69.1,80.1c-1.1,37.1,22.3,73.9,12.6,109.8c-5,18.5-18.4,33.9-23.6,52.3
	C-0.7,397,9.5,421.3,25.4,437.2z"/>
<ellipse fill="#E6E6E6" cx="245.8" cy="435.2" rx="239.1" ry="26.8"/>
<g>
	<path fill="#F47280" d="M25.3,420.7L7.9,440.8c-1.2,1.4,2.1,2.6,7.5,2.6h303.3l-175.5-44.1L25.3,420.7z"/>
	<path fill="#D6809B" d="M375.9,388.9l47.8-11.9l-17.2-19.8c-0.6-0.7-4-1.2-7.7-1.2h-16.5l-91.6,16.6L375.9,388.9z"/>
	<path fill="#6C567B" d="M88.1,355.9c-3.7,0-7.1,0.5-7.7,1.2l-47.1,54.4l316.4-55.6H88.1z"/>
	<path fill="#D6809B" d="M281.7,420.9l-17.7-4.2l103-25.6l-85.7-16.7l4.6-1l-115.4,20.9L371,442.3l-3.8,1.2h104.4
		c5.4,0,8.7-1.2,7.5-2.6L450,407.3l-65.6-12.8L281.7,420.9z"/>
	<polygon fill="#D6809B" points="445.6,402.2 429,383 393.3,392.2 	"/>
	<polygon fill="#FFFFFF" points="170.5,394.4 143.2,399.3 318.7,443.4 367.2,443.4 376,443.4 	"/>
	<polygon fill="#FCC1AC" points="349.7,355.9 33.3,411.6 25.3,420.7 143.2,399.3 170.5,394.4 285.9,373.4 290.4,372.5 290.7,372.6 
		382.4,355.9 	"/>
	<polygon fill="#BE6C82" points="393.3,392.2 429,383 423.8,377 375.9,388.9 290.7,372.6 285.9,373.4 281.3,374.4 367,391.1 
		264,416.7 281.7,420.9 384.4,394.5 450,407.3 445.6,402.2 	"/>
	<polygon fill="#FCC1AC" points="285.9,373.4 290.7,372.6 290.4,372.5 	"/>
</g>
<g>
	<path fill="#827091" d="M155,302.2c-7.9-7.9-11.2-17.6-19.1-9.7L40.4,388c-3.8,3.8-6,8.9-6,14.4c0,5.4,2.1,10.5,6,14.4
		c4,4,9.2,5.9,14.4,5.9c5.2,0,10.4-2,14.4-5.9l95.4-95.4C172.5,313.4,162.9,310.2,155,302.2z"/>
	<path fill="#6C567B" d="M147.6,308.5c-48.5-48.5-48.5-127.3,0-175.7c48.5-48.5,127.3-48.5,175.7,0c48.5,48.5,48.5,127.3,0,175.7
		C274.9,357,196,357,147.6,308.5z M313.5,142.7c-43-43-113-43-156,0c-43,43-43,113,0,156c43,43,113,43,156,0
		C356.5,255.7,356.5,185.7,313.5,142.7z"/>
	<path opacity="0.3" fill="#FFFFFF" d="M310.7,295.9c-14.7,14.7-32.7,24.2-51.6,28.5c-6.7,1.6-13.5,2.4-20.3,2.6
		c-2.3,0.1-4.6,0.1-6.8,0c-13.9-0.4-27.7-3.6-40.6-9.4c-11.3-5.1-21.9-12.3-31.2-21.7c-41.6-41.6-41.6-108.9,0-150.5
		c9.3-9.3,19.9-16.5,31.2-21.7c12.9-5.9,26.7-9,40.6-9.4c2.3-0.1,4.6-0.1,6.8,0c6.8,0.2,13.6,1,20.3,2.6
		c18.9,4.2,36.9,13.8,51.6,28.5C352.2,187,352.2,254.3,310.7,295.9z"/>
	<path opacity="0.3" fill="#FFFFFF" d="M232,114.3V327c-13.9-0.4-27.7-3.6-40.6-9.4V123.8C204.3,117.9,218.2,114.7,232,114.3z"/>
	<path opacity="0.3" fill="#FFFFFF" d="M259.1,116.9v207.5c-6.7,1.6-13.5,2.4-20.3,2.6V114.3C245.6,114.5,252.4,115.4,259.1,116.9z"
		/>
</g>
<g>
	<g>
		<path fill="#E7343F" d="M329.6,169.9c21.5-13.6,47.2-18.2,72.4-13.2c0.4,0.1,0.6,0.4,0.6,0.8c0,0.4-0.3,0.7-0.6,0.8
			c-11.7,2.3-22.6,6.7-32.6,13c-25.9,16.3-39.1,41.1-39.1,73.7c0,60,45.2,108.8,72.1,132.5c0.2,0.2,0.3,0.4,0.3,0.6
			c0,0.2-0.1,0.5-0.3,0.6c-6.3,5.6-11.6,9.8-15,12.3c-1.5,1.1-3.2,1.7-5,1.7c-1.8,0-3.5-0.6-5-1.7c-20.6-15.5-87.6-72-87.6-146
			C289.8,211.8,303.2,186.5,329.6,169.9z"/>
		<path fill="#FF4343" d="M368.5,169.9c10.2-6.4,21.3-10.8,33.2-13.2c0.1,0,0.2,0,0.3,0c11.9,2.4,23,6.8,33.2,13.2
			c26.4,16.6,39.8,41.9,39.8,75.1c0,60.7-45.5,109.8-72.6,133.7c-0.2,0.1-0.3,0.2-0.5,0.2s-0.4-0.1-0.5-0.2
			c-27.1-23.9-72.6-73-72.6-133.7C328.6,211.8,342,186.5,368.5,169.9z"/>
	</g>
	
		<ellipse transform="matrix(0.7071 -0.7071 0.7071 0.7071 -62.2077 342.6963)" fill="#FFFFFF" cx="382.6" cy="246.4" rx="43.7" ry="43.7"/>
</g>
<g>
	<g>
		<g>
			<path fill="#6C567B" d="M435.7,47.6c1.5,0,2.7-1.2,2.7-2.7v-7.2c0-1.5-1.2-2.7-2.7-2.7c-1.5,0-2.7,1.2-2.7,2.7v7.2
				C433,46.4,434.2,47.6,435.7,47.6z"/>
			<path fill="#6C567B" d="M447.9,47h-7.2c-1.5,0-2.7,1.2-2.7,2.7c0,1.5,1.2,2.7,2.7,2.7h7.2c1.5,0,2.7-1.2,2.7-2.7
				C450.7,48.2,449.4,47,447.9,47z"/>
			<path fill="#6C567B" d="M435.9,52c-1.5,0-2.7,1.2-2.7,2.7v7.2c0,1.5,1.2,2.7,2.7,2.7c1.5,0,2.7-1.2,2.7-2.7v-7.2
				C438.6,53.2,437.4,52,435.9,52z"/>
			<path fill="#6C567B" d="M430.9,47.1h-7.2c-1.5,0-2.7,1.2-2.7,2.7c0,1.5,1.2,2.7,2.7,2.7h7.2c1.5,0,2.7-1.2,2.7-2.7
				C433.6,48.4,432.4,47.1,430.9,47.1z"/>
		</g>
	</g>
	<g>
		<g>
			<path fill="#6C567B" d="M34.7,194.6c1.1,1.1,2.8,1.1,3.9,0l5.1-5.1c1.1-1.1,1.1-2.8,0-3.9c-1.1-1.1-2.8-1.1-3.9,0l-5.1,5.1
				C33.7,191.8,33.7,193.5,34.7,194.6z"/>
			<path fill="#6C567B" d="M43.8,202.7l-5.1-5.1c-1.1-1.1-2.8-1.1-3.9,0c-1.1,1.1-1.1,2.8,0,3.9l5.1,5.1c1.1,1.1,2.8,1.1,3.9,0
				C44.9,205.5,44.9,203.8,43.8,202.7z"/>
			<path fill="#6C567B" d="M31.8,197.7c-1.1-1.1-2.8-1.1-3.9,0l-5.1,5.1c-1.1,1.1-1.1,2.8,0,3.9c1.1,1.1,2.8,1.1,3.9,0l5.1-5.1
				C32.9,200.5,32.9,198.8,31.8,197.7z"/>
			<path fill="#6C567B" d="M31.7,190.8l-5.1-5.1c-1.1-1.1-2.8-1.1-3.9,0c-1.1,1.1-1.1,2.8,0,3.9l5.1,5.1c1.1,1.1,2.8,1.1,3.9,0
				C32.7,193.6,32.7,191.9,31.7,190.8z"/>
		</g>
	</g>
	<g>
		<g>
			<path fill="#6C567B" d="M160.3,56.8c1,0,1.9-0.8,1.9-1.9V50c0-1-0.8-1.9-1.9-1.9c-1,0-1.9,0.8-1.9,1.9V55
				C158.4,56,159.3,56.8,160.3,56.8z"/>
			<path fill="#6C567B" d="M168.6,56.4h-4.9c-1,0-1.9,0.8-1.9,1.9c0,1,0.8,1.9,1.9,1.9h4.9c1,0,1.9-0.8,1.9-1.9
				C170.5,57.2,169.7,56.4,168.6,56.4z"/>
			<path fill="#6C567B" d="M160.4,59.8c-1,0-1.9,0.8-1.9,1.9v4.9c0,1,0.8,1.9,1.9,1.9s1.9-0.8,1.9-1.9v-4.9
				C162.3,60.6,161.5,59.8,160.4,59.8z"/>
			<path fill="#6C567B" d="M157,56.5h-4.9c-1,0-1.9,0.8-1.9,1.9s0.8,1.9,1.9,1.9h4.9c1,0,1.9-0.8,1.9-1.9S158.1,56.5,157,56.5z"/>
		</g>
	</g>
	<g>
		<g>
			<path fill="#6C567B" d="M426.2,308.6c0.7-0.7,0.7-1.9,0-2.6l-3.5-3.5c-0.7-0.7-1.9-0.7-2.6,0c-0.7,0.7-0.7,1.9,0,2.6l3.5,3.5
				C424.3,309.3,425.5,309.3,426.2,308.6z"/>
			<path fill="#6C567B" d="M431.8,302.4l-3.5,3.5c-0.7,0.7-0.7,1.9,0,2.6c0.7,0.7,1.9,0.7,2.6,0l3.5-3.5c0.7-0.7,0.7-1.9,0-2.6
				C433.7,301.7,432.5,301.7,431.8,302.4z"/>
			<path fill="#6C567B" d="M428.4,310.6c-0.7,0.7-0.7,1.9,0,2.6l3.5,3.5c0.7,0.7,1.9,0.7,2.6,0c0.7-0.7,0.7-1.9,0-2.6l-3.5-3.5
				C430.3,309.9,429.1,309.9,428.4,310.6z"/>
			<path fill="#6C567B" d="M423.6,310.7l-3.5,3.5c-0.7,0.7-0.7,1.9,0,2.6c0.7,0.7,1.9,0.7,2.6,0l3.5-3.5c0.7-0.7,0.7-1.9,0-2.6
				C425.5,310,424.4,310,423.6,310.7z"/>
		</g>
	</g>
</g>
</svg>
