<?xml version="1.0" encoding="utf-8"?>
<!-- Generator: Adobe Illustrator 26.0.1, SVG Export Plug-In . SVG Version: 6.00 Build 0)  -->
<svg version="1.1" id="Character" xmlns="http://www.w3.org/2000/svg" xmlns:xlink="http://www.w3.org/1999/xlink" x="0px" y="0px"
	 viewBox="0 0 500 500" enable-background="new 0 0 500 500" xml:space="preserve">
<g>
	<g>
		<path fill="#9A444F" d="M109.6,23.2c0,1.1,0.1,2.1-0.2,3.2c-0.6,2.2-2.9,3.4-4.7,4.9c-5.1,4.2,2.1,9.4-1.7,13.4
			c-1.1,1.2-3.1,1.6-3.6,3.2c-0.4,1.3,0.5,4.8,1.3,5.8c0.9,1.1,2.2,1.7,3.6,1.8c0.4,0,0.8,0,1.2,0.3c0.8,0.6,0.5,1.8,0.4,2.8
			c-0.2,2,1.3,3.9,3.1,4.9c2.3,1.3,4.4,0.8,6.8,1.2c3.3,0.5,5.9,1.8,9.3,1.7c3.7-0.1,7.3-1.4,11-0.6c4,0.8,14.7,6.5,16.4-0.7
			c0.2-1,0.1-2,0.4-3c1-2.9,5.2-2.8,7.6-4.7c2.1-1.7,2.5-4.7,2.7-7.4c0.1-1.5,0.2-3.1-0.6-4.4c-0.7-1.1-1.9-1.7-2.5-2.8
			c-1.4-2.5,1.1-5.5,1.3-8.4c0.5-4.7-3-5.7-5.9-7.8c-2.4-1.8-1.7-6-4.4-8.3c-2.3-2-5.6-3-8.5-2.2c-0.7,0.2-1.3,0.5-2,0.5
			c-2.1,0-3.4-2.1-5-3.5c-2.8-2.5-7.5-2.5-10.3-0.1c-1,0.9-1.8,2-2.9,2.8c-1.9,1.4-4.5,1.5-6.8,1.9c-2.4,0.4-4.9,1.5-5.7,3.8
			C109.7,22,109.6,22.6,109.6,23.2z"/>
		<g>
			<g>
				<path fill="#9A444F" d="M260,4.3l-12.1,27.1L218,34.8c-2.7,0-3.8,3.4-1.6,5l25.3,18l-9.2,31.3c-0.8,2.5,2.1,4.7,4.3,3.1
					l25.9-16.6l25.9,16.6c2.2,1.6,5.1-0.5,4.3-3.1l-9.4-28.8l25.4-20.5c2.2-1.6,1.1-5-1.6-5L277.9,33L265.2,4.3
					C264.4,1.8,260.8,1.8,260,4.3z"/>
				<path fill="#9A444F" d="M232.5,0.2l-1.1,2.5L228.7,3c-0.2,0-0.3,0.3-0.1,0.5l2.3,1.7L230,8c-0.1,0.2,0.2,0.4,0.4,0.3l2.4-1.5
					l2.4,1.5c0.2,0.1,0.5-0.1,0.4-0.3l-0.9-2.6l2.3-1.9c0.2-0.1,0.1-0.5-0.1-0.5l-2.7-0.2L233,0.2C232.9-0.1,232.6-0.1,232.5,0.2z"
					/>
				<path fill="#9A444F" d="M292.9,4.3l-1.1,2.5l-2.7,0.3c-0.2,0-0.3,0.3-0.1,0.5l2.3,1.7l-0.8,2.9c-0.1,0.2,0.2,0.4,0.4,0.3
					l2.4-1.5l2.4,1.5c0.2,0.1,0.5-0.1,0.4-0.3l-0.9-2.6l2.3-1.9c0.2-0.1,0.1-0.5-0.1-0.5L294.6,7l-1.2-2.6
					C293.3,4.1,293,4.1,292.9,4.3z"/>
				<path fill="#9A444F" d="M234.9,6.1c0.2-0.3,0.6-0.4,0.9-0.2c2.7,2.5,4.5,5.7,6.4,8.7c2,3.2,4.5,6.2,5.9,9.8
					c0.3,0.8-0.9,1.3-1.2,0.5c-1.4-3.5-3.8-6.4-5.8-9.5c-1.8-2.9-3.6-6.1-6.2-8.5C234.8,6.8,234.7,6.4,234.9,6.1z"/>
				<path fill="#9A444F" d="M233.5,14.3c3.3,3.3,7.2,6.1,9.9,9.9c0.5,0.7-0.5,1.5-1,0.8c-2.8-3.8-6.6-6.6-9.9-9.9
					C231.9,14.6,232.9,13.8,233.5,14.3z"/>
				<path fill="#9A444F" d="M222.3,75c4.1-4.4,8.9-8,13.3-12.2c0.6-0.6,1.4,0.4,0.8,1c-4.3,4.1-9.1,7.8-13.3,12.2
					c-0.2,0.3-0.7,0.2-0.9-0.1C222,75.6,222.1,75.3,222.3,75z"/>
				<path fill="#9A444F" d="M219,69.2c4.1-2.9,8.1-5.9,12.2-8.8c0.7-0.5,1.5,0.5,0.8,1c-4,3-8.1,5.9-12.2,8.8
					C219.2,70.7,218.3,69.7,219,69.2z"/>
				<path fill="#9A444F" d="M291.5,65.7c2.7,3.8,7,6.1,9.9,9.7c0.5,0.6-0.5,1.5-1,0.8c-3-3.6-7.2-5.8-9.9-9.7
					C290,65.9,291,65,291.5,65.7z"/>
				<path fill="#9A444F" d="M299.4,61.8c0.3-0.2,0.7-0.2,0.9,0.1c2.5,2.3,5.3,4.3,8.2,6c0.7,0.4,0,1.5-0.7,1.1
					c-3-1.8-5.9-3.8-8.4-6.2C299.1,62.4,299.2,62,299.4,61.8z"/>
				<path fill="#9A444F" d="M285.9,25.3c4.6-3.4,9.7-6,13.8-9.9c0.6-0.6,1.4,0.4,0.8,1c-4.1,4-9.3,6.6-13.8,9.9
					C286,26.8,285.2,25.8,285.9,25.3z"/>
				<path fill="#9A444F" d="M284.2,22c3.4-3.6,5.8-7.9,8.4-12c0.5-0.7,1.5,0,1.1,0.7c-2.7,4.2-5.2,8.6-8.7,12.3
					c-0.2,0.3-0.7,0.2-0.9-0.1C283.9,22.6,284,22.2,284.2,22z"/>
				<path fill="#FF8963" d="M298.5,11.2l-1,2.2l-2.5,0.3c-0.2,0-0.3,0.3-0.1,0.4l2.1,1.5l-0.8,2.6c-0.1,0.2,0.2,0.4,0.4,0.3l2.1-1.4
					l2.1,1.4c0.2,0.1,0.4,0,0.4-0.3l-0.8-2.4l2.1-1.7c0.2-0.1,0.1-0.4-0.1-0.4l-2.4-0.1l-1-2.4C298.9,11,298.6,11,298.5,11.2z"/>
				<path fill="#FF8963" d="M232,10.2l-1.1,2.5l-2.7,0.3c-0.2,0-0.3,0.3-0.1,0.5l2.3,1.7l-0.8,2.9c-0.1,0.2,0.2,0.4,0.4,0.3l2.4-1.5
					l2.4,1.5c0.2,0.1,0.5-0.1,0.4-0.3l-0.9-2.6l2.3-1.9c0.2-0.1,0.1-0.5-0.1-0.5l-2.7-0.2l-1.2-2.6C232.4,9.9,232.1,9.9,232,10.2z"
					/>
				<path fill="#FF8963" d="M301.3,72.7l-1.1,2.5l-2.7,0.3c-0.2,0-0.3,0.3-0.1,0.5l2.3,1.7l-0.8,2.9c-0.1,0.2,0.2,0.4,0.4,0.3
					l2.4-1.5l2.4,1.5c0.2,0.1,0.5-0.1,0.4-0.3l-0.9-2.6l2.3-1.9c0.2-0.1,0.1-0.5-0.1-0.5l-2.7-0.2l-1.2-2.6
					C301.7,72.4,301.4,72.4,301.3,72.7z"/>
				<path fill="#FBDDC5" d="M218.7,67.3l-1.1,2.5l-2.7,0.3c-0.2,0-0.3,0.3-0.1,0.5l2.3,1.7l-0.8,2.9c-0.1,0.2,0.2,0.4,0.4,0.3
					l2.4-1.5l2.4,1.5c0.2,0.1,0.5-0.1,0.4-0.3l-0.9-2.6l2.3-1.9c0.2-0.1,0.1-0.5-0.1-0.5l-2.7-0.2l-1.2-2.6
					C219.1,67,218.8,67,218.7,67.3z"/>
				<g>
					<g>
						<g>
							<g>
								<path fill="#FBDDC5" d="M70.8,449.1c-3.7,2.2-6.2,6.1-7.8,10.2c-1.8,4.8-3.3,10.5-3.3,15.6c0,5.6,0.7,11.1,2,16.5
									c0.4,1.6,0.8,3.1,1.7,4.5c1.8,2.8,5.6,4.2,8.8,3.3c3.8-1.1,6.2-4.9,8.2-8.4c1.7-3,3.4-6,4.7-9.2c1.4-3.5,2.2-7.2,2.7-10.8
									c0.4-3.2-0.2-6.5-0.4-9.8c-0.2-3.9-0.7-8.1-3.4-10.8c-3.2-3.3-8.6-3.5-12.6-1.3C71.1,448.9,70.9,449,70.8,449.1z"/>
								<path fill="#3A5D43" d="M71.3,449.7c-5.3,3.3-6,8.7-7.2,14.2c-1.3,5.9-2,12.1-1.2,18.1c0.6,4.2,1.8,13.1,7.1,13.7
									c2.2,0.2,4.2-1.3,5.8-2.9c6.8-6.7,10-17.3,11.3-26.4c0.5-3.4,0.7-6.8-0.1-10.1c-0.8-3.3-2.9-6.4-6-7.8
									C77.9,447.2,74.2,447.9,71.3,449.7z"/>
								<path fill="#FBDDC5" d="M139,475.2c-0.2,0-0.4,0.1-0.6,0.2c-4.8,1.3-5.4,3.4-5,8c0.1,0.8,0.1,1.5,0.5,2.2
									c0.9,1.7,3.3,2,5.2,2c4.9-0.2,10-1.2,14.7,0.3c3.5,1.1,6.5,3.3,9.7,4.9c7.6,3.8,16.6,4.6,24.7,2.1c0-5.3,1-6-4-8.3
									c-3.7-1.7-7.5-3.2-11.3-4.6c-7.4-2.7-15.1-4.8-22.8-6.4C146.6,474.9,142.7,474.4,139,475.2z"/>
								<path fill="#3A5D43" d="M136.8,464.9c-2.6,5.2-2.9,10.6-3.6,16.4c5.6-0.7,11.4-1.4,16.8,0.1c7.2,1.9,13,7.3,20,9.6
									c5.4,1.8,12.2,0.6,17.8-0.1c0.1,0,0.3,0,0.4-0.1c0.1-0.1,0.1-0.3,0.1-0.5c0.1-1.5,0.1-2.9,0.2-4.4c-2-1.2-4.1-2.5-6.1-3.7
									c-7.9-4.8-16-10.2-21.9-17.4c-2.9-3.5-5.6-8.1-10.8-8C143.2,456.7,139.2,460.1,136.8,464.9z"/>
								<path fill="#9A444F" d="M91.9,196l-6.7,155c0,0-24.2,113.5-24.3,114.1c-0.2,1.3,6.5,4,7.6,4.4c4.5,1.8,9.7,3.6,14.6,3.8
									c1.4,0,12.2-1.4,12.3-2.5l27.9-113.5l20.8-162.9L91.9,196z"/>
								<path fill="#9A444F" d="M124.5,221.6L139.7,351c0,0-5.3,116.6-5.3,116.7c0,2.5,27.9,2.6,31,1.7c0.6-9.6,1.4-18.3,2.1-27.9
									c1.5-21,3.1-42.4,4.6-63.4c1.5-21.1,1.8-15.7,3.3-36.8c0.7-9.8,2.6-45.8,3.3-55.6l0,0l-11.2-100.3l-40.5,6.1L124.5,221.6z"
									/>
								<path fill="#FBDDC5" d="M162.7,479.8c-4-2.5-8.2-5.1-10.9-9.1c-0.3-0.5-1.1,0.1-0.7,0.6c2.8,4,7,6.7,11.1,9.2
									C162.7,480.8,163.2,480.1,162.7,479.8z"/>
							</g>
							<path fill="#3A5D43" d="M81.7,487.1c-1.7,5.6-8.6,15.8-15.2,10.1c-3.5-3-5.2-7.6-5.9-11.9c-0.8-4.4-0.7-9-0.7-13.5
								c0-0.6-0.9-0.7-0.9-0.1c0,8.6-0.3,18.2,5.7,25c1.2,1.4,2.7,2.6,4.6,2.9c1.6,0.3,3.2-0.1,4.6-0.8c3.2-1.6,5.6-4.9,7.3-8.1
								c0.6-1.1,1.1-2.2,1.4-3.4C82.8,486.9,81.9,486.6,81.7,487.1z"/>
							<path fill="#FBDDC5" d="M180.1,481.1c-2.1,0.9-3.6,2.8-4.7,4.7c-1.2,2-2,4.3-2.3,6.6c-0.1,0.6,0.8,0.7,0.9,0.1
								c0.3-2.1,1.1-4.1,2.1-5.9c1-1.9,2.4-3.8,4.4-4.6C181,481.7,180.7,480.9,180.1,481.1z"/>
							<path fill="#FBDDC5" d="M166.7,474.2c-0.6,0.5-1.4,0.6-2.1,0.9c-0.9,0.3-1.7,0.7-2.5,1.2c-1.7,0.9-3.3,1.9-4.8,3
								c-0.5,0.4,0.1,1.1,0.6,0.7c1.5-1.2,3.2-2.2,4.9-3c0.9-0.4,1.7-0.9,2.7-1.1c0.7-0.2,1.3-0.4,1.9-0.9
								C167.8,474.5,167.2,473.8,166.7,474.2z"/>
							<path fill="#FBDDC5" d="M165.1,471.2c-4,0.9-7.6,2.7-11,4.8c-0.5,0.3-0.1,1.2,0.4,0.8c3.4-2.1,6.9-3.9,10.8-4.8
								C165.8,472,165.7,471.1,165.1,471.2z"/>
							<path fill="#FBDDC5" d="M76.8,478.9c-3,1.5-6.9-0.9-9.4-2.5c-0.5-0.3-1,0.4-0.5,0.8c2.8,1.8,6.9,4.3,10.3,2.6
								C77.7,479.5,77.3,478.6,76.8,478.9z"/>
							<path fill="#FBDDC5" d="M79.9,476.6c-3.7,0.8-7.9-1.1-10.7-3.4c-0.5-0.4-1,0.4-0.5,0.8c3,2.4,7.5,4.3,11.4,3.5
								C80.6,477.4,80.4,476.5,79.9,476.6z"/>
							<path fill="#3A5D43" d="M67.1,493.2c-0.7,1.1-1.4,2.4-1.4,3.8c0,0.6,0.9,0.7,0.9,0.1c0-1.2,0.6-2.3,1.3-3.3
								C68.2,493.2,67.5,492.7,67.1,493.2z"/>
							<path fill="#3A5D43" d="M70.6,494.8c-0.1-0.6-1-0.4-0.9,0.2c0.2,1.3,0.3,2.7,0.4,4.1c0,0.6,0.9,0.7,0.9,0.1
								C70.9,497.7,70.8,496.2,70.6,494.8z"/>
							<path fill="#3A5D43" d="M74.8,497.4c-0.6-1.2-1.2-2.5-2-3.5c-0.4-0.5-1.1,0.1-0.7,0.6c0.8,1,1.4,2.2,1.9,3.3
								C74.2,498.3,75.1,498,74.8,497.4z"/>
							<path fill="#3A5D43" d="M183,494.4C183.2,494.5,183.1,494.4,183,494.4c-0.1-0.3-0.1-0.4-0.1-0.6c-0.1-0.5-0.2-0.9-0.3-1.4
								c-0.1-0.7-0.3-1.4-0.4-2.1c-0.2-0.6-1.1-0.4-0.9,0.2c0.2,0.9,0.4,1.8,0.6,2.7c0.1,0.6,0.2,1.7,0.7,2.1
								C183,495.5,183.5,494.7,183,494.4z"/>
							<path fill="#3A5D43" d="M185.8,494.2c-0.2-1.6-0.7-3.2-1.4-4.7c-0.2-0.5-1.1-0.2-0.8,0.4c0.6,1.4,1.1,2.9,1.3,4.4
								C185,495,185.9,494.8,185.8,494.2z"/>
							<path fill="#3A5D43" d="M187.7,488.8c-0.2-0.6-1-0.2-0.8,0.4c0.3,0.9,1.7,5.3-0.2,5.2c-0.6,0-0.7,0.9-0.1,0.9
								C189.8,495.5,188.3,490.4,187.7,488.8z"/>
							<path fill="#3A5D43" d="M186.5,494.3c-4,1.5-8.4,1.6-12.6,1c-4.2-0.6-8.4-1.9-12.2-3.9c-3.6-1.9-7.1-3.6-11.2-3.8
								c-2.4-0.1-4.8,0.2-7.2,0.1c-2.1-0.1-7.6,0.2-8.7-2c-0.4-0.8-0.3-2-0.3-2.9c0-1.6,0-3.6,0.5-5.1c0.2-0.6-0.7-0.9-0.9-0.3
								c-0.6,1.7-1.6,9.9,1.2,10.1c0.1,0.1,0.2,0.2,0.3,0.2c2.5,0.4,4.9,0.7,7.4,0.9c2.5,0.2,5-0.2,7.5-0.1c4.4,0.2,8,2.3,11.8,4.2
								c7.3,3.6,16.8,5.3,24.7,2.4C187.4,495,187,494.1,186.5,494.3z"/>
							<path fill="#FBDDC5" d="M136.1,471.1c-0.5-0.3-1,0.5-0.5,0.8c3.6,2,6.9,5.9,7.1,10.1c0,0.6,0.9,0.4,0.9-0.2
								C143.3,477.3,139.9,473.2,136.1,471.1z"/>
							<path fill="#040312" d="M71.8,453.6C71.8,453.6,71.7,453.6,71.8,453.6c-0.4,0-0.6-0.3-0.6-0.6c4.8-45.1,22.4-95.5,23.2-97.9
								l3.3-107.2c0-0.3,0.3-0.6,0.6-0.6c0.3,0,0.6,0.3,0.6,0.6l-3.3,107.3v0.1c-0.2,0.5-18.3,51.9-23.2,97.7
								C72.3,453.4,72.1,453.6,71.8,453.6z"/>
							<path fill="#040312" d="M142.5,455.8c-0.3,0-0.6-0.3-0.6-0.6c0-17,7.7-99.8,7.7-100.7c0-0.3,0.3-0.5,0.6-0.5s0.5,0.3,0.5,0.6
								c-0.1,0.8-7.7,83.7-7.7,100.6C143.1,455.5,142.9,455.8,142.5,455.8z"/>
							<path fill="#FFB99F" d="M177.7,137.9c-0.5,0.8-1,1.7-1.4,2.5c-0.2,0.4-0.4,0.8-0.4,1.3c0,0.8,0.7,1.3,1.3,1.7
								c8.7,6.1,28.5,20.2,38.7,12.4c17.2-13.2,33.5-28.1,47.4-44.6c0.8-1,1.6-1.9,2.7-2.7c4.7-3.4,11.7-2.5,16.9-5.4
								c4.8-2.7,10.1-6.1,14.6-9.3c1.4-1,2.9-2.3,2.6-4c-2.2,2.3-5.6,2.7-8.7,3c-4.5,0.5-9.1,0.9-13.6,1.4
								c-7.8,0.8-17.4,1.1-24.1,5.5c-1,0.6-41.2,26.8-41.2,26.8l-17.2-11.7c-1.2-0.1-8.1,9.6-8.9,10.6
								C183.2,129.3,180.3,133.5,177.7,137.9z"/>
							<path fill="#FF8963" d="M162.7,123.6c0.4,1.5,0.9,3.1,1.5,4.6c3.5,8.4,10.5,14.8,17.3,21c3.9-13.7,13.6-22.8,21.9-33.7
								c-6.7-6.4-13.8-12.6-20.4-19.2c-2.7-2.7-5.9-5.6-9.8-5.6c-3.1,0-5.9,2-7.8,4.4c-6.2,7.5-5.2,17.9-3.2,26.8
								C162.4,122.5,162.6,123,162.7,123.6z"/>
							<path fill="#FFEDE7" d="M127.7,88.3l-7.2,0.6C122.9,88.7,125.3,88.5,127.7,88.3 M141.6,87.1L141.6,87.1L141.6,87.1
								c1.2,8.1-4.4,14.7-10.9,14.7c-2.8,0-5.9-1.3-8.6-4.2c-0.3-0.3-1.7-2.8-2.6-5V108l-14.2,4.1l21.5,13.1h14.7l16.3-14.4
								l-13.6-1.9L141.6,87.1"/>
							<path fill="#FFE5DB" d="M120.5,88.9c-0.3,0-0.6,0.1-1,0.1c-1,0.1-0.7,1.7,0,3.5V89L120.5,88.9 M141.5,87.1
								c-4.6,0.4-9.3,0.8-13.9,1.2L141.5,87.1L141.5,87.1"/>
							<path fill="#FFD8C9" d="M141.6,87.1l-13.9,1.2c-2.4,0.2-4.8,0.4-7.2,0.6l-1,0.1v3.5c0.9,2.2,2.3,4.7,2.6,5
								c2.7,3,5.7,4.2,8.6,4.2C137.2,101.8,142.7,95.2,141.6,87.1L141.6,87.1"/>
							<path fill="#FF8963" d="M128.7,236.9l39.3-4.7l7.9-7.1c0.6-11.4,1.1-22.8,1.7-34.1c0.6-12.8,1.7-25.3,1.4-38
								c-0.3-13.8-1.5-27.5-3.7-41.1c-0.3-2-0.7-4-0.4-6c0.6-4,4.8-9.5,2.9-13.7c0-0.1-0.1-0.1-0.1-0.2c-1.9-3.7-8.6-4.5-12.2-5
								c-12.4-1.8-24.9-2.8-37.4-2.9c-10.3,0-25.1-1.5-34.2,4c-11.1,6.6-13.4,21.4-12.4,33c0.7,8.4,1.1,16.7,2.8,24.9
								c2.4,11.2,3.4,22.8,5,34.2c1.9,14.2-3.2,29-3.7,43.5C99.9,228.4,114.4,232.5,128.7,236.9z"/>
							<path fill="#3A5D43" d="M97,218.1c-2.2-0.5-4.3-1.3-6.4-2.7c-0.1-0.1-0.3-0.2-0.5-0.2c-0.3,0-0.4,0.4-0.5,0.6
								c-0.4,1.5-0.8,3.1-1.2,4.6c-0.2,0.6-0.3,1.3-0.1,1.9c0.2,0.7,0.9,1.1,1.5,1.5c2,1.2,3.9,2.4,5.9,3.6c0.3,0.2,0.6,0.4,0.8,0.7
								c0.2,0.3,0.2,0.6,0.2,0.9c1.3,9.3,0.2,19.1,0.2,28.6c0,9.7,0,19.4,0,29c0,20.5,0,41.1,0,61.6c15.2,4.8,30.3,11.2,46.1,12.8
								c3.2,0.3,38.3-2.7,38.2-4.2L176,217.9c0,0.8-5.3,2.3-5.8,2.5c-8.6,2.7-17.9,3.1-26.8,3c-8.1-0.1-16.1-0.8-24.1-1.8
								c-5.1-0.6-10.2-1.4-15.2-2.3C101.9,218.9,99.4,218.7,97,218.1z"/>
							<path fill="#FFB99F" d="M58.7,122c-7,7.1-11.9,15.7-16.2,24.8c-5.1,10.8,5,23.9,10.8,32.5c6.8,10.2,15.7,18.8,23.7,28
								c2.5,2.8,6.5,6.3,6.9,10.2c0.5,4.5-2.1,9.2-1.6,14c0.5,5.8,4.1,10.9,5.6,16.5c1.6,0,2.4-1.8,2.8-3.3
								c2.4-8.1,4.3-16.9,5.8-25.2c1.2-6.8-1.7-13.8-5.5-19.4c-1.7-2.6-2.8-5.4-4.5-8c-2.9-4.5-6-9-8.8-13.6c-2-3.4-3-7.3-5-10.9
								c-1-1.7-4.7-7-2.9-9c6.4-7.2,15.6-13.7,8.9-23.9c-3.3-5.1-6.7-10.3-11.6-14c-1.3-1-2.8-1.9-4.4-1.7c-1.5,0.2-2.7,1.3-3.8,2.4
								C59.1,121.6,58.9,121.8,58.7,122z"/>
							<path fill="#FEB59B" d="M121.6,62.9c-0.1,3.9-0.4,7.7-0.8,11.5c-0.4,3-0.1,8.7-2.8,10.5c-2.1,1.4-4.2,2.8-6.3,4.2
								c5.7,4,15.8,7.7,22.8,7.6c7-0.1,12-2.9,16.6-7.9c0.4-0.5-2.9-2.3-3.3-2.7c-1.2-1.5-1.3-3.6-1.3-5.5
								c-0.2-5.2-0.7-10.3-1.2-15.4c-0.7-6.4-4.2-12.5-10.8-14.4c-4.3-1.2-9.5,0-11.6,3.9c-1.1,2.1-1.1,4.6-1.2,7
								C121.6,62.2,121.6,62.5,121.6,62.9z"/>
							<path fill="#040312" d="M124.8,69.9c-0.8-3.1,2.3-4.8,4.8-6c3-1.4,10.6-3.4,15-1.7c0.3,1,0.4,2,0.5,3c0.5,4.7,1,9.4,1.2,14.1
								c0,0.7-6.5,1-7.3,1C133.1,80.1,126.4,75.7,124.8,69.9z"/>
							<path fill="#FEB59B" d="M150.7,43.8c0,0.5,0,1,0,1.6c0.1,4.2,1.1,8.4,0.8,12.7c-0.3,4.4-1.5,8.9-4.2,12.5
								c-4.1,5.3-11.8,7.9-18.2,6c-8.5-2.4-13.7-11.7-14.4-20.1c-0.1-1.2-0.1-2.4-0.1-3.7c0-4.9-1-9.7-0.9-14.5c0-1.3-0.3-2.6,0-3.8
								c0.1-0.5,1.3-4.9,1.6-4.9c2.4-6.7,10-11.6,17.1-11.6c5,0,10,2.2,13.5,5.7c2.5,2.5,3.8,6,4.6,9.4
								C151.3,36.7,150.8,40.2,150.7,43.8z"/>
							<path fill="#9A444F" d="M110.7,29.6C110.6,29.7,110.6,29.7,110.7,29.6c-1.4,1.5-1.5,3.7-1.6,5.6c0,1.5,0,3,0.7,4.3
								c0.4,0.9,1.1,1.7,1.6,2.5c0.7,1.1,0.5,2.1,0.9,3.2c0.2,0.6,0.5,1.1,0.6,1.7c0.1,0.6-0.1,1.3-0.1,2c-0.1,1.3,0,2.6,0.2,3.9
								c0,0.1,0,0.3,0.1,0.4c0.2,0.3,0.8,0.2,1-0.1s0.2-0.7,0.3-1.1c0.3-1.7,1.5-3.1,2.2-4.7c0.6-1.4,0.7-2.9,0.3-4.3
								c-0.3-1.1-0.9-3.1,0.1-4.1c1.4-1.5,2.8-3,4.3-4.4c1.7-1.6,2.3-0.5,4,0.6c1.5,1,3.2,1.8,5,2.3c0.8,0.2,1.6,0.4,2.3,0
								c0.3-0.2,0.6-0.5,0.9-0.7c1.6-0.9,3,0.9,4,1.8c1.1,1,2.8,2,4.3,1.6c0.1,0,0.3-0.1,0.4-0.2c0.2-0.3,0.1-0.7,0.1-1
								c0-0.8,0.5-1.4,0.8-2.1c0.4-1.1-0.3-1.9-0.3-3c1.6,1.5,3.3,3,4.9,4.5c2.4,2.2,2.4,4.8,3,7.9c0.1,0.4,0.2,0.8,0.6,0.9
								c-0.1,0,1.1-2.6,1.2-2.8c0.7-1.2,0.8-2.8,0.7-4.1c0-1.9-0.2-4,0.8-5.6c0.5-0.8,1.3-1.4,1.7-2.2c0.3-0.6,0.4-1.4,0.5-2.1
								c0.1-1.1,0.1-2.3-0.6-3c-0.6-0.6-1.5-0.7-1.9-1.4c-0.7-1,0.1-2.4-0.1-3.7c-0.2-1-1-1.8-1.9-1.9c-0.3-0.1-0.7,0-1-0.1
								c-0.9-0.3-1.4-1.3-1.8-2.2c-0.8-1.7-2.3-3.4-4.2-3.6c-0.7-0.1-1.3,0-2,0c-1.3,0-2.6-0.2-3.7-0.8c-0.6-0.3-1.2-0.7-1.9-0.9
								c-0.6-0.1-1.2-0.1-1.8,0c-2.7,0.4-5.4,1.6-7.3,3.6c-0.5,0.5-1.1,1.2-1.8,1.5c-0.7,0.3-1.6,0-2.4,0c-2.1-0.1-4.3,0.5-5.9,1.9
								c-1.9,1.7-3,3.6-2.7,6.2c0,0.2,0.1,0.5,0,0.7s-0.2,0.4-0.4,0.5C113.3,28,111.7,28.5,110.7,29.6z"/>
							<path fill="#010010" d="M124.7,47.4c0,1.5-0.7,2.6-1.5,2.6c-2.2,0-1.9-5.3,0-5.3C124,44.7,124.7,45.9,124.7,47.4z"/>
							<path fill="#010010" d="M144.8,48c0,1.5-0.7,2.6-1.5,2.6s-1.5-1.2-1.5-2.6c0-1.5,0.7-2.6,1.5-2.6S144.8,46.5,144.8,48z"/>
							<path fill="#FEB59B" d="M114.5,56.2c1.7-0.9,2.5-4.1,2.7-5.9c0.2-2.3-0.3-4.8-1.5-6.8c-0.4-0.6-0.8-1.1-1.3-1.6
								c-1.6-1.3-4.7-1.4-5.8,0.6c-0.4,0.8-0.6,1.7-0.6,2.6c-0.1,2.1,0.1,4.3,0.6,6.3c0.4,1.4,0.9,2.8,2,3.8
								C111.5,56.4,113.2,56.9,114.5,56.2z"/>
							<path fill="#FEB59B" d="M151.4,43.6c-0.9,2.7-1.1,5.7-0.8,8.5c0.1,1.1,0.5,2.4,1.6,2.7c0.8,0.2,1.6-0.1,2.1-0.7
								c0.5-0.6,0.8-1.4,1-2.2c0.5-2.1,0.7-4.4,0.4-6.5c-0.2-1.1-0.7-2.3-1.8-2.5c-0.6-0.1-1.3,0.2-1.7,0.6
								C151.7,43.8,151.6,43,151.4,43.6z"/>
							<path fill="#010010" d="M126,42.6c0.5-0.3,0.4-1,0.2-1.6c-0.3-0.8-1-1.6-1.8-1.9c-0.9-0.4-1.4-0.1-2.2,0.3
								c-1.3,0.5-3.8,0.8-3.6,2.8c0.1,0.7,0.7,1.1,1.3,1.2c0.6,0.1,1.3,0,1.9-0.2c0.8-0.2,1.7-0.6,2.5-0.6
								C124.8,42.6,125.5,43,126,42.6z"/>
							<path fill="#010010" d="M146.6,43.2c-0.1-0.6-0.4-1.2-0.8-1.8c-0.3-0.4-0.7-0.8-1.2-1s-1.1-0.2-1.7-0.1c-0.3,0-0.7,0.1-1,0.1
								c-0.9,0.1-1.8,0.2-2.3,0.9c-0.4,0.5-0.5,1.3-0.4,2c0,0.1,0.1,0.3,0.1,0.4c0.1,0.2,0.4,0.2,0.6,0.2c1.5,0.1,3.1,0.2,4.6,0.4
								c0.3,0,0.6,0,0.9,0.1c0.1,0,0.3,0.1,0.4,0C146.5,44.1,146.7,43.6,146.6,43.2z"/>
							<path fill="#FE9268" d="M136.7,58.8c0.4-0.2,0.7-0.5,0.9-0.9c0.9-1.9-0.1-3.8-1.4-5.1c-1.3-1.5-2.1-3.8-2.5-5.7
								c-0.2-1.1-0.3-2.2-0.7-3.2c-0.1-0.3-0.4-0.7-0.7-0.5c-0.1,0.1-0.2,0.2-0.2,0.3c-0.8,2.2-1,4.4-1.1,6.7
								c-0.1,1.9,0,3.7,0.1,5.6c0.1,1,0.3,2.1,1.1,2.7c0.4,0.3,0.9,0.4,1.4,0.5C134.5,59.3,135.8,59.3,136.7,58.8z"/>
							<path fill="#010010" d="M127.2,32c-0.5-0.6-0.9-1.2-1.5-1.7c-0.7-0.6-1.6-0.6-2.5-0.6c-2-0.1-3.3-1.3-4.2-3
								c-0.3-0.5-1.1-0.1-0.8,0.4c0.7,1.4,1.6,2.5,3,3.1c0.8,0.3,1.7,0.4,2.5,0.4c1.4,0,1.9,1,2.8,1.9C126.9,33,127.7,32.5,127.2,32
								z"/>
							<path fill="#010010" d="M141.1,30.3c-1.6-3.1-4.9-2.8-7.9-2.1c-0.6,0.1-0.4,1,0.2,0.9c2.5-0.6,5.5-1.1,6.9,1.6
								C140.6,31.2,141.4,30.8,141.1,30.3z"/>
							<path fill="#010010" d="M149.1,39.4c-0.4-1.1-1.1-2-2.1-2.7c-0.6-0.4-1.3-0.7-1.8-1.2c-0.7-0.6-1.2-1.3-1.7-2.1
								c-0.3-0.5-1,0.1-0.7,0.6c0.8,1.1,1.7,2.1,2.9,2.9c1.3,0.8,2.2,1.4,2.7,2.8C148.5,40.4,149.3,40,149.1,39.4z"/>
							<path fill="#010010" d="M152.3,41.6c0-0.6-0.9-0.7-0.9-0.1c0,1.2-0.5,2-1.1,3c-0.5,0.8-0.4,1.6,0.2,2.2
								c0.4,0.4,1.1-0.1,0.7-0.6c-0.8-0.8,0.4-1.8,0.7-2.5S152.3,42.3,152.3,41.6z"/>
							<path fill="#010010" d="M149.6,30.6c-1.5-2.2-3.6-3.6-6-4.7c-0.5-0.2-0.9,0.6-0.3,0.9c2.3,1,4.2,2.3,5.6,4.4
								C149.3,31.6,150,31,149.6,30.6z"/>
							<path fill="#010010" d="M114.1,31c-2.2,1.1-3.2,3-2.5,5.4c0.2,0.6,1.1,0.4,0.9-0.2c-0.6-2,0.1-3.4,2-4.4
								C115,31.5,114.6,30.7,114.1,31z"/>
							<path fill="#010010" d="M117.6,35.2c-1.2,1.1-2,2.3-2.6,3.8c-0.2,0.6,0.6,0.9,0.9,0.3c0.5-1.3,1.3-2.4,2.3-3.4
								C118.6,35.5,118,34.8,117.6,35.2z"/>
							<path fill="#040312" d="M133.8,99.8c-1.6,0-3.3-0.1-5-0.4c-7.7-1.1-15.2-4.5-21.2-9.5c-0.2-0.2-0.3-0.6-0.1-0.8
								c0.2-0.2,0.6-0.3,0.8-0.1c5.8,4.9,13.1,8.2,20.6,9.2c9.9,1.4,19-1.6,24.4-8c0.2-0.2,0.6-0.3,0.8-0.1c0.2,0.2,0.3,0.6,0.1,0.8
								c-3,3.6-6.9,6.1-11.6,7.5C139.8,99.4,136.8,99.8,133.8,99.8z"/>
							<path fill="#FF8963" d="M104.1,116.8c0.6-3.1,0.7-6.3,0.5-9.7c-0.5-6.9-1.3-14-4.8-20.1c-0.2-0.4-0.4-0.7-0.8-1
								c-0.5-0.3-1.2-0.2-1.8-0.1c-2.4,0.5-4.7,1.4-6.8,2.6c-4.4,2.5-8,6.7-11.6,10.2s-7.2,6.9-10.8,10.4c-4.7,4.5-9.4,9-14,13.5
								c0,0,21.7,22.8,23.6,24.8c1,1.1,2.1,2.2,3.1,3.3c1.6-2.2,3.9-3.8,5.7-5.9c4.1-4.7,8.6-9.3,12-14.6
								C101.4,126.2,103.2,121.6,104.1,116.8z"/>
							<path fill="#040312" d="M86.7,143.9c-0.2,0-0.4-0.1-0.5-0.2c-6.8-10-15.1-19-24.5-26.6c-0.2-0.2-0.3-0.6-0.1-0.8
								c0.2-0.2,0.6-0.3,0.8-0.1c9.5,7.7,17.8,16.7,24.7,26.9c0.2,0.3,0.1,0.6-0.1,0.8C86.9,143.9,86.8,143.9,86.7,143.9z"/>
							<path fill="#040312" d="M80.9,150.2c-0.2,0-0.3-0.1-0.4-0.2c-0.2-0.2-0.2-0.6,0-0.8c5.6-5.1,10.7-10.8,15.2-17
								c2.6-3.6,5.5-7.9,7-12.8c1.6-5.1,1.4-10.1-0.6-14c-0.1-0.3,0-0.6,0.3-0.8c0.3-0.1,0.6,0,0.8,0.3c2.1,4.2,2.3,9.5,0.7,14.9
								c-1.6,5.1-4.5,9.5-7.2,13.1c-4.5,6.2-9.7,11.9-15.4,17.1C81.2,150.2,81,150.2,80.9,150.2z"/>
							<path fill="#040312" d="M177.4,217.9L177.4,217.9c-0.3,0-0.6-0.3-0.6-0.6c0.1-2.7,0-5.4,0-8c-0.1-3.3-0.1-6.7,0.1-10.1
								c0.1-2.2,0.3-4.5,0.4-6.7c0.3-4.4,0.6-8.9,0.7-13.4c0.3-10.2,0.3-20.2-0.2-29.9c-0.7-13.2-2.1-27.2-4.6-45.3
								c0-0.3,0.2-0.6,0.5-0.6s0.6,0.2,0.6,0.5c2.5,18.1,4,32.1,4.6,45.4c0.5,9.7,0.6,19.8,0.2,30c-0.1,4.5-0.4,9-0.7,13.4
								c-0.1,2.2-0.3,4.5-0.4,6.7c-0.2,3.4-0.1,6.8-0.1,10c0,2.6,0.1,5.4,0,8.1C178,217.7,177.7,217.9,177.4,217.9z"/>
							<path fill="#040312" d="M179.4,138.2c-0.1,0-0.1,0-0.2,0c-0.3-0.1-0.4-0.5-0.3-0.7c4-9.8,8.8-19.3,14.4-28.3
								c0.2-0.3,0.5-0.4,0.8-0.2c0.3,0.2,0.4,0.5,0.2,0.8c-5.5,9-10.3,18.4-14.3,28.2C179.8,138.1,179.6,138.2,179.4,138.2z"/>
							<path fill="#040312" d="M119.6,155c-0.1,0-0.1,0-0.2,0l-0.5-0.2c-0.2-0.1-0.3-0.2-0.4-0.4c-0.6-2.6,0.6-5.3,1.8-6.9
								c1.1-1.4,2.3-2.2,3.5-2.2c0.4,0,0.8,0.1,1.1,0.3c0.1,0.1,0.4,0.2,0.5,0.5c0.3,0.5,0,1-0.1,1.1c-1.5,2.7-3.2,5.3-5.3,7.6
								C119.9,155,119.7,155,119.6,155z M123.8,146.5c-0.8,0-1.7,0.7-2.6,1.7c-1,1.3-2,3.4-1.7,5.5c1.8-2.2,3.4-4.5,4.8-7
								c0,0,0,0,0-0.1C124.2,146.5,124,146.5,123.8,146.5z"/>
							<path fill="#3A5D43" d="M137.8,155.2c0.1,0.1,0.3-0.1,0.3-0.2c1.2-2.7,2.3-5.4,3.5-8.1c0.3-0.7,0.6-1.4,0.4-2.1
								c-2.2-0.4-4.4-0.6-6.7-0.8C136.1,147.8,136.9,151.5,137.8,155.2z"/>
							<path fill="#040312" d="M144.4,151c-0.8,0-1.3-0.8-1.5-1.1c-1.7-2.6-3.3-5.3-4.9-8c-0.2-0.4-0.6-1-0.4-1.6
								c0.1-0.8,0.8-1.4,1.7-1.5c0.1,0,0.2,0,0.3,0c0.6,0,1.2,0.2,1.6,0.4c1.9,0.9,3.4,2.3,4.3,4.2c0.9,1.8,1.1,4,0.6,5.9
								C145.7,150.4,145.1,151,144.4,151L144.4,151z M139.5,140c-0.1,0-0.1,0-0.2,0c-0.3,0-0.6,0.3-0.7,0.5c0,0.2,0.1,0.6,0.3,0.9
								c1.5,2.7,3.1,5.3,4.8,7.9c0.2,0.4,0.4,0.6,0.6,0.6v0.6v-0.6c0.2,0,0.4-0.3,0.5-0.8c0.4-1.7,0.2-3.6-0.5-5.2
								c-0.8-1.6-2.1-2.9-3.7-3.6C140.2,140.1,139.8,140,139.5,140z"/>
							<path fill="#040312" d="M130,128L130,128L130,128c-1.1,0-2.1-0.6-3-1.1c-2.6-1.6-5-3.4-7.4-5.3c-0.1-0.1-0.2-0.3-0.2-0.5
								c0-0.9,0.6-1.6,1.6-2.2c0.9-0.5,2-0.8,3.1-0.8c0.8,0,1.6,0.2,2.4,0.5c1.7,0.7,3,2.2,3.8,3.2c0.9,1.1,1.8,2.6,1.7,4.4
								c-0.1,0.7-0.4,1.3-0.8,1.7C130.8,127.9,130.4,128,130,128z M120.6,120.9c2.2,1.8,4.6,3.5,7,5c0.8,0.5,1.6,0.9,2.4,1l0,0
								c0.2,0,0.4,0,0.5-0.1c0.2-0.1,0.3-0.4,0.3-0.8c0.1-1.3-0.7-2.6-1.5-3.6c-0.7-0.9-1.8-2.2-3.3-2.8c-0.6-0.2-1.3-0.4-1.9-0.4
								c-0.9,0-1.8,0.2-2.6,0.7C121.3,120,120.8,120.4,120.6,120.9z"/>
							<path fill="#040312" d="M140.6,178.4c-0.5,0-1-0.1-1.4-0.2c-0.3-0.1-0.7-0.2-1.1-0.6c-0.4-0.4-0.8-1.3,0.3-3l6-8.6
								c0.6-0.8,1.3-1.9,2.4-2.4c0.5-0.3,1-0.3,1.5-0.3c0.9,0.2,1.5,0.9,1.8,2.2c0.7,2.8,0.2,5.8-1.3,8.2c-1.6,2.4-4.2,4.1-7,4.5
								C141.4,178.4,141,178.4,140.6,178.4z M148,164.5c-0.2,0-0.4,0.1-0.6,0.2c-0.8,0.4-1.4,1.3-2,2.1l-6,8.6
								c-0.2,0.3-0.8,1.2-0.4,1.6c0.1,0.1,0.3,0.2,0.5,0.2c0.6,0.2,1.4,0.2,2.2,0c2.5-0.4,4.8-1.9,6.2-4s1.8-4.9,1.2-7.3
								C149,165.5,148.7,164.7,148,164.5C148.1,164.5,148,164.5,148,164.5z"/>
							<path fill="#3A5D43" d="M122.2,149.1c-0.2-4.1-1.4-8.1-2.7-12c-0.3-0.9-0.6-1.8-1.2-2.5c-0.2-0.2-0.3-0.4-0.6-0.5
								c-0.8-0.4-1.7,0.1-2.4,0.7c-2,1.7-3.8,3.6-5.5,5.6c3.5,3.3,7.1,6.5,10.9,9.5c0.3,0.2,0.6,0.4,0.9,0.3
								C122.1,150.2,122.2,149.6,122.2,149.1z"/>
							<path fill="#FBDDC5" d="M157.1,174.3c-2-1.1-4.1-2-6.2-2.8c-1.7-0.7-4.3-2.2-6.2-1.4c1.9,4,4.3,7.7,7.2,11
								c0.2,0.2,0.4,0.4,0.7,0.5c0.5,0.1,0.9-0.3,1.2-0.7c0.9-1.2,1.6-2.7,2.7-3.8c0.6-0.6,2.3-1.9,0.9-2.7
								C157.2,174.4,157.2,174.4,157.1,174.3z"/>
							<path fill="#FBDDC5" d="M129.7,112c-1.5,3.5-2.9,7-3.8,10.7c0.8,0.4,1.9,0,2.7-0.4c2.2-1.1,4.4-2.2,6.6-3.4
								c0.9-0.5,1.9-1,2.1-2c0.3-1.1-0.6-2.2-1.3-3c-0.9-1-1.8-2-2.7-3c-0.4-0.4-0.8-0.9-1.4-0.9c-0.5-0.1-1.1,0.2-1.5,0.6
								C130.2,111,129.9,111.5,129.7,112z"/>
							<path fill="#3A5D43" d="M154.1,140.1c0.5-0.3,1-0.6,1.4-1c0.2-0.1,0.3-0.3,0.4-0.5c0.3-0.7-0.4-1.4-0.9-1.9
								c-1.3-1.1-2.7-2.2-4-3.3c-0.9-0.7-1.8-1.5-2.9-1.7c0.4,3.3,0.7,6.7,1.1,10c0,0.3,0.1,0.7,0.5,0.8c0.2,0,0.4-0.1,0.6-0.2
								C151.4,141.7,152.8,140.9,154.1,140.1z"/>
							<path fill="#9A444F" d="M130.1,165.3c-0.2-0.3-0.4-0.6-0.7-0.8c-1.2-0.9-2.7-1.5-4.2-1.6c-0.1,0-0.2,0-0.3,0
								c-0.2,0.1-0.3,0.4-0.3,0.6c-0.4,3.7-0.5,7.3-0.5,11c1.9-2,3.7-4.1,5.3-6.3C129.9,167.5,130.6,166.3,130.1,165.3z"/>
							<path fill="#040312" d="M138.8,236.7c-1.8,0-3.6,0-5.5-0.1c-12.6-0.6-24.7-3.5-36.1-8.4c-0.3-0.1-0.4-0.5-0.3-0.8
								s0.5-0.4,0.8-0.3c22.4,9.8,48.7,11.1,72,3.7c0.3-0.1,0.6,0.1,0.7,0.4c0.1,0.3-0.1,0.6-0.4,0.7
								C160,235.1,149.5,236.7,138.8,236.7z"/>
							<path fill="#040312" d="M106,301.1c-0.7,0-1.3,0-2,0c-0.3,0-0.6-0.3-0.6-0.6c0-0.3,0.3-0.6,0.6-0.6
								c7.3,0.2,14.6-0.7,21.6-2.7c0.9-0.3,1.9-0.6,2.3-1.3c0.4-0.6,0.4-1.4,0.4-2.4l-1.4-41.9c0-0.3,0.2-0.6,0.6-0.6
								c0.3,0,0.6,0.2,0.6,0.6l1.4,41.9c0,0.9,0.1,2.1-0.6,3c-0.7,1-1.9,1.5-3,1.8C119.4,300.1,112.7,301.1,106,301.1z"/>
							<path fill="#040312" d="M177.3,302.7h-0.1l-12-2.2c-0.6-0.1-1.4-0.3-2-0.7c-1.5-1-1.6-3-1.7-4.2l-3.1-46.5
								c0-0.3,0.2-0.6,0.5-0.6s0.6,0.2,0.6,0.5l3.1,46.5c0.1,1.3,0.2,2.7,1.2,3.3c0.4,0.3,1,0.4,1.5,0.5l12,2.2
								c0.3,0.1,0.5,0.4,0.5,0.7S177.6,302.7,177.3,302.7z"/>
							<path fill="#C59399" d="M61.9,445.8l-1.2,19.5c-0.1,1.7,8.2,4.9,9.7,5.7c3.7,2.1,7.9,3.4,12.2,3.6c4.6,0.2,8.9-1.2,13.4-1.8
								l5.3-19.9C101.4,453,87,465,61.9,445.8z"/>
							<path fill="#C59399" d="M132.1,449.3l-0.2,19.3l19.2,2.6l15.7-1.7l1.1-17.3C167.9,452.3,156.5,455.2,132.1,449.3z"/>
							<path fill="#C59399" d="M100.2,356c-1.8-3.5-6.6-3.9-9.9-5.4c-0.4-0.2-0.7,0.5-0.2,0.7c1.6,0.7,3.3,1.2,4.9,1.8
								c1.4,0.5,3,1.2,4,2.4c-2.5-0.8-4.9-2.1-7.6-2.4c-0.4,0-0.5,0.4-0.2,0.7c1.4,1.2,2.9,2.2,4.4,3.3c1.3,1.1,3,2.5,3.2,4.3
								c-3.6-1.8-6.3-4.9-9.4-7.5c-0.4-0.3-0.8,0.3-0.4,0.6c3.3,2.7,6.1,6.1,10.1,7.8c0.2,0.1,0.5-0.1,0.5-0.3
								c0.1-1.9-1.2-3.5-2.6-4.7c-1.3-1.2-2.7-2.2-4.1-3.2c2.4,0.6,4.6,1.8,7,2.4C100,356.6,100.3,356.3,100.2,356z"/>
							<path fill="#C59399" d="M155.8,364.8c-2.3-2.4-6.4-1.5-9.1-3.3c-0.4-0.3-0.8,0.3-0.4,0.6c1.3,0.8,2.7,1.2,4.2,1.5
								c1.3,0.3,2.8,0.4,3.9,1.1c-2.9-0.1-5.8-0.9-8.7-1c-0.4,0-0.5,0.4-0.2,0.7c1.3,1.1,3.1,1.8,4.6,2.6c1.1,0.6,3.3,1.7,3.5,3.2
								c-3.2-0.4-5.9-2.7-8.6-4.2c-0.4-0.2-0.8,0.4-0.4,0.6c2.9,1.7,5.8,4.2,9.3,4.4c0.2,0,0.4-0.1,0.4-0.3c0.3-1.8-1.8-3-3-3.8
								c-1.4-0.8-3-1.5-4.3-2.3c2.8,0.3,5.6,1,8.5,1C155.8,365.4,156.1,365.1,155.8,364.8z"/>
							<path fill="#9A444F" d="M67.2,450.9c-0.5-0.1-1-0.5-1.4-0.8c-0.5-0.4-1-0.8-1.5-1.1c-0.6-0.4-1.2,0.5-0.6,0.9
								c1.1,0.7,2.1,1.9,3.5,2.1C67.8,452.1,67.9,451,67.2,450.9z"/>
							<path fill="#9A444F" d="M74.1,455.1c-1.2-0.3-2.3-1.1-3.4-1.6c-0.6-0.3-1,0.7-0.4,1c1.1,0.5,2.2,1.2,3.4,1.6
								C74.4,456.3,74.8,455.3,74.1,455.1z"/>
							<path fill="#9A444F" d="M82.2,457.5c-1.4,0.1-2.7-0.5-4-0.8c-0.7-0.2-1.1,0.9-0.4,1c1.5,0.4,3,1.1,4.6,0.9
								C83.1,458.5,82.9,457.4,82.2,457.5z"/>
							<path fill="#9A444F" d="M91.4,458.6c-1.5,0-3-0.2-4.5-0.4c-0.7-0.1-0.8,1-0.1,1.1c1.5,0.2,3,0.4,4.5,0.4
								C92,459.7,92.1,458.6,91.4,458.6z"/>
							<path fill="#9A444F" d="M97,457.4c-0.7,0.2-1.5,0.3-2.2,0.5c-0.3,0.1-0.5,0.3-0.4,0.6c0,0.3,0.4,0.5,0.6,0.4
								c0.7-0.2,1.5-0.3,2.2-0.5C97.9,458.3,97.7,457.2,97,457.4z"/>
							<path fill="#9A444F" d="M70.2,457.2c0.1-0.7-1-0.8-1.1-0.1c-0.3,3.8-1.2,7.5-1.1,11.3c0,0.7,1.1,0.8,1.1,0.1
								C68.9,464.7,69.8,461,70.2,457.2z"/>
							<path fill="#9A444F" d="M70.5,458c0,3.4-0.6,6.8-0.9,10.2c-0.1,0.7,1,0.8,1.1,0.1c0.3-3.4,0.8-6.8,0.9-10.2
								C71.6,457.4,70.5,457.3,70.5,458z"/>
							<path fill="#9A444F" d="M136.6,451.7c-1.1-0.1-2-0.4-3.1-0.7c-0.7-0.2-1.1,0.8-0.4,1c1.1,0.3,2.2,0.7,3.3,0.8
								C137.2,452.9,137.3,451.8,136.6,451.7z"/>
							<path fill="#9A444F" d="M142.6,453.3c-0.9-0.3-1.8-0.3-2.7-0.6c-0.7-0.2-1.1,0.8-0.4,1c0.9,0.3,1.8,0.3,2.7,0.6
								C143,454.6,143.3,453.6,142.6,453.3z"/>
							<path fill="#9A444F" d="M150.7,454.7c-1.1,0-2.2-0.3-3.3-0.5c-0.7-0.1-0.8,1-0.1,1.1c1.1,0.2,2.2,0.5,3.3,0.5
								C151.4,455.8,151.5,454.7,150.7,454.7z"/>
							<path fill="#9A444F" d="M158.7,455.5c-1.2,0-2.5-0.1-3.7-0.2c-0.7-0.1-0.8,1-0.1,1.1c1.2,0.2,2.4,0.3,3.7,0.2
								C159.3,456.6,159.4,455.5,158.7,455.5z"/>
							<path fill="#9A444F" d="M165.7,455.2c-1.2,0-2.5,0.2-3.7,0.4c-0.7,0.1-0.5,1.2,0.2,1.1c1.1-0.1,2.3-0.4,3.4-0.4
								C166.3,456.3,166.4,455.2,165.7,455.2z"/>
							<path fill="#9A444F" d="M141.1,456.8c-0.4,3.8-0.7,7.5-0.7,11.3c0,0.7,1.1,0.8,1.1,0.1c0-3.8,0.4-7.5,0.7-11.3
								C142.2,456.2,141.1,456.1,141.1,456.8z"/>
							<path fill="#9A444F" d="M143.8,464.6c0-1.9,0.2-3.8,0.2-5.7c0-0.7-1.1-0.8-1.1-0.1c0,1.8-0.1,3.6-0.2,5.3
								c-0.1,1.6,0.2,3.4-0.2,5c-0.2,0.7,0.8,1.1,1,0.4C143.9,468,143.7,466.3,143.8,464.6z"/>
							<path fill="#FBDDC5" d="M165.3,449.7c-0.1-1.7,0.1-3.5-0.9-5c-0.2-0.3-0.6-0.2-0.8-0.1c-2.7,2.2-3.4,6.2-3.8,9.4
								c-0.2,1.9-0.3,3.8-0.4,5.8c-0.1-0.4-0.1-0.7-0.2-1.1c-0.5-2.9-1-5.8-1.6-8.7c-0.4-2.2-1-4.4-1.5-6.6
								c-0.2-1.2-0.5-3.2-1.8-3.7c-2.1-1-2.1,5.2-2.1,6.1c0,4.1,0.9,8,2.2,11.9c1.2,3.7,2.9,7.2,4.6,10.7c0,0.1,0.1,0.1,0.1,0.1
								c0,0.1,0,0.2,0.1,0.4c0,0.1,0.1,0.1,0.1,0.2c0.2,0.3,0.6,0.2,0.8,0.1c0.3-0.2,0.3-0.4,0.3-0.8c0-0.5,0.3-1.1,0.5-1.5
								c0.5-1.1,0.9-2.3,1.3-3.5c0.8-2.3,1.6-4.6,2.2-6.9C165.1,454.2,165.3,451.9,165.3,449.7z M153.7,442.5
								c0.1-0.6,0.2-1.1,0.4-1.7c0-0.1,0.1-0.1,0.1-0.1c0.2,0.1,0.4,0.6,0.4,0.8c0.6,1.6,0.9,3.5,1.3,5.2c0.7,2.9,1.2,5.8,1.7,8.7
								c0.5,2.8,1.1,5.7,1.4,8.5c0.1,0.8,0.2,1.5,0.3,2.2C155.8,458.8,152.7,450.8,153.7,442.5z M164.2,450.5c0,2.1-0.3,4.1-0.8,6.1
								s-1.2,4-1.9,6c-0.3,0.8-0.5,1.6-0.8,2.3c-0.1-3.4-0.1-6.7,0.2-10.1c0.3-2.9,0.8-6.7,2.9-8.9
								C164.4,447.3,164.2,449.1,164.2,450.5z"/>
							<path fill="#FBDDC5" d="M89.8,444.8c-0.1-1.5-1.4-1.9-2.7-1.3c-1.6,0.8-2.5,2.7-3.3,4.2c-1.5,2.8-2.7,5.7-3.7,8.7
								c0-0.3,0.1-0.6,0.1-0.9c0.2-1.5,0.4-3,0.5-4.6c0.1-1.2,0.3-3-0.6-4c-1.1-1.2-2.2,0.2-2.6,1.2c-0.8,2-1.2,4.2-1.4,6.3
								c-0.5,5,0.2,10.1,0.2,15.1c-0.1,0.5-0.2,1-0.2,1.5c-0.5,0.7-0.2,1.8,0.7,2.1c0.4,0.1,0.9-0.2,0.7-0.6v-0.1
								c0.1-0.2,0.1-0.4-0.1-0.5c-0.1-0.1-0.1-0.2-0.2-0.2c0.1-0.1,0.2-0.2,0.2-0.4c0-0.2,0-0.3,0-0.5c1.6-2.2,3-4.6,4.4-7
								s2.8-4.7,4.1-7.2c1.3-2.4,2.4-5,3.2-7.6C89.3,447.7,89.9,446.3,89.8,444.8z M77,457c0.1-2.4,0.4-4.7,1.1-7
								c0.1-0.5,1-3.4,1.4-1.8c0.3,1.3,0.1,2.7,0,4c-0.2,1.5-0.3,3.1-0.6,4.6c-0.4,2.5-1.1,4.9-1.6,7.4c0,0.2-0.1,0.3-0.1,0.5
								C77,462.1,76.9,459.6,77,457z M88.2,447.6c-0.7,2.3-1.5,4.5-2.5,6.6c-1.2,2.6-2.7,5-4.1,7.5c-1.3,2.2-2.5,4.4-3.9,6.5
								c0-0.1,0-0.2,0-0.3c0.4-1.2,0.8-2.3,1-3.5c0.7-2.7,1.5-5.3,2.4-7.9s2-5.1,3.2-7.6c0.8-1.5,1.7-3.5,3.2-4.4
								C89.4,443.5,88.4,446.9,88.2,447.6z"/>
						</g>
						<path fill="#FF8963" d="M54.9,181.4c-0.2,0-0.3-0.1-0.5-0.2l-0.7-0.9c-5-6.8-11.9-16.1-13.3-24.3c-1.1-6.9,3.1-14.2,7.9-21.1
							c0.2-0.3,0.5-0.3,0.8-0.1s0.3,0.5,0.1,0.8c-4.6,6.7-8.8,13.7-7.7,20.2c1.3,7.9,8.1,17,13,23.8l0.7,0.9
							c0.2,0.3,0.1,0.6-0.1,0.8C55.1,181.3,55,181.4,54.9,181.4z"/>
						<path fill="#FF8963" d="M90.6,199.4c-0.2,0-0.4-0.1-0.5-0.3c-1.8-3.6-4-7.2-6.2-10.7c-2-3.3-4.1-6.7-5.9-10.2
							c-0.5-1-1-2-1.5-3c-3.3-6.5-6.8-13.2-10.7-19.5c-0.2-0.3-0.1-0.6,0.2-0.8c0.3-0.2,0.6-0.1,0.8,0.2c4,6.3,7.4,13.1,10.8,19.6
							c0.5,1,1,2,1.5,3c1.8,3.4,3.9,6.8,5.9,10.1c2.2,3.5,4.4,7.1,6.2,10.8c0.1,0.3,0,0.6-0.3,0.8C90.8,199.4,90.7,199.4,90.6,199.4
							z"/>
						<path fill="#FF8963" d="M209.8,136.8L209.8,136.8c-0.4-0.1-0.6-0.3-0.6-0.7c0.5-3.8,2-7.5,4.1-10.7c0.2-0.3,0.5-0.3,0.8-0.2
							c0.3,0.2,0.3,0.5,0.2,0.8c-2.1,3-3.4,6.6-3.9,10.2C210.3,136.6,210.1,136.8,209.8,136.8z"/>
					</g>
					<polygon fill="#9A444F" points="160.2,125.6 161.9,139.9 182.5,137.6 182.5,122.2 					"/>
					<path fill="#040312" d="M109.4,201.4c-4.3-2.7-8.8-5.3-13.1-8c-0.6-0.4-1.2,0.6-0.6,1c4.3,2.7,8.8,5.3,13.1,8
						C109.4,202.8,110,201.8,109.4,201.4z"/>
					<path fill="#040312" d="M115,195.7c-6.4-1.8-12.7-3.8-18.7-6.5c-0.7-0.3-1.2,0.7-0.6,1c6.1,2.8,12.5,4.8,19,6.6
						C115.4,197,115.7,195.9,115,195.7z"/>
					<path fill="#040312" d="M132.6,21.3c-1.3,0.5-2.7,0.7-4.1,0.8c-0.7,0.1-0.7,1.2,0,1.1c1.5-0.1,3-0.4,4.4-0.9
						C133.6,22.1,133.3,21,132.6,21.3z"/>
					<path fill="#040312" d="M143.2,20.6c-2-1.7-4.7-1.4-7.1-2.1c-0.7-0.2-1,0.9-0.3,1.1c2.1,0.7,4.8,0.3,6.6,1.9
						C142.9,21.8,143.8,21,143.2,20.6z"/>
					<path fill="#FF8963" d="M90.8,223.6c0-0.7-1.1-0.7-1.1,0c0,6.8-2,13.6-0.6,20.4c0.2,0.7,1.3,0.4,1.1-0.3
						C88.8,237,90.8,230.3,90.8,223.6z"/>
				</g>
				<ellipse fill="#040312" cx="262.3" cy="92.3" rx="66.4" ry="3.2"/>
			</g>
			<path fill="#FE9268" d="M153.6,44.7c0.4,0.4,0.4,1,0.2,1.5c-0.4,2-1,4-1.7,5.9c-0.1-0.2-0.2-0.4-0.3-0.7
				c-0.4-1.7-0.5-3.4-0.2-5.1c0.1-0.5,0.2-1.1,0.6-1.5C152.6,44.5,153.2,44.3,153.6,44.7z"/>
			<path fill="#FE9268" d="M109.5,45c0.3-0.6,1.1-0.7,1.8-0.5c1.3,0.4,2.1,1.7,2.5,3c0.6,1.5,0.8,3.2,0.8,4.8
				c-1.1-0.8-1.6-2.3-2.7-3.2c-0.4-0.3-0.8-0.5-1.2-0.9c-0.8-0.6-1.2-1.5-1.3-2.5C109.4,45.5,109.4,45.2,109.5,45z"/>
			<path fill="#010010" d="M115.2,50.7c-0.8-3.1-1.3-6.8-5.1-7.2c-0.6-0.1-0.7,0.9-0.1,0.9c2.6,0.3,3.4,2.6,3.9,4.8
				c-0.6-0.5-1.2-0.9-2-1.2c-0.6-0.2-0.9,0.6-0.3,0.9c1.1,0.4,2,1.1,2.6,2.1c0.1,0.2,0.3,0.2,0.4,0.2
				C114.9,51.2,115.3,51,115.2,50.7z"/>
			<path fill="#010010" d="M131.4,69.3c-0.4-0.2-0.7-0.4-1-0.7c-1.3-1.2-2.4-2.8-2.4-4.6c0-0.5,0.1-1.1,0.5-1.3
				c1.1-0.7,2.8,0.7,3.9,0.8c1.4,0.1,3.2,0.1,4.6-0.3c1-0.3,2-1.5,3.1-1c0.6,0.3,0.9,1.1,0.8,1.7c0,1-0.7,2.2-1.1,3.1
				c-0.3,0.6-0.6,1.1-1,1.6c-0.9,0.9-2.2,1.4-3.5,1.4C134,70,132.5,69.8,131.4,69.3z"/>
			<g>
				<path fill="#FFFFFF" d="M139.5,67.6c-0.2,0.4-0.5,0.7-0.7,1c-0.9,0.9-2.2,1.4-3.5,1.4c-1.2,0-2.7-0.2-3.8-0.7
					c-0.4-0.2-0.7-0.4-1-0.7c-0.5-0.5-1-1-1.4-1.6C132.2,68.8,136,69.2,139.5,67.6z"/>
				<path fill="#FFFFFF" d="M128.5,62.7c1.1-0.7,2.8,0.7,3.9,0.8c1.4,0.1,3.2,0.1,4.6-0.3c1-0.3,2-1.5,3.1-1
					c0.5,0.3,0.8,0.9,0.8,1.5c-1.1,1.7-3.3,2.7-5.6,2.9c-2,0.2-4.1-0.2-5.6-1.1c-0.7-0.4-1.3-1-1.8-1.6
					C128,63.4,128.1,63,128.5,62.7z"/>
			</g>
			<path fill="#9A444F" d="M135.8,59.7c-1.4,0-3.1-0.5-4.3-1l0.3-0.8c2.4,0.9,4.9,1.4,5.3,0.4c0.1-0.2,0-0.5,0-0.7
				c-0.5-2.4-1.6-4.7-2.8-6.9l-0.1-0.1c-1.1-2.3-1.4-4.9-1.7-7.5l0.9-0.1c0.2,2.6,0.5,5.1,1.6,7.2l0.1,0.1c1.1,2.3,2.3,4.6,2.8,7.2
				c0.1,0.4,0.1,0.8,0,1.3C137.7,59.4,136.8,59.7,135.8,59.7z"/>
			
				<rect x="143.4" y="41.1" transform="matrix(0.8428 -0.5382 0.5382 0.8428 -0.1992 84.0807)" fill="#9A444F" width="0.9" height="2.6"/>
			
				<rect x="141.3" y="41.3" transform="matrix(0.806 -0.5919 0.5919 0.806 2.418 92.0986)" fill="#9A444F" width="0.9" height="2.1"/>
			<path fill="#9A444F" d="M124.2,42.3c-0.8-0.7-1.4-1.4-2-2.3l0.7-0.5c0.6,0.8,1.2,1.5,1.9,2.1L124.2,42.3z"/>
			<path fill="#9A444F" d="M122,42.7c-0.7-0.6-1.3-1.3-1.9-2l0.7-0.6c0.6,0.7,1.2,1.3,1.8,1.9L122,42.7z"/>
			<path fill="#FE9268" d="M125.7,56.8c-0.3,0.7-1.2,1-2,1.1c-1.2,0.1-2.5-0.2-3.4-0.9c-1-0.7-1.7-1.8-1.7-3.1c0-0.4,0-0.9,0.3-1.3
				c1.7-2.6,6.5,1.2,6.9,3.2C125.8,56.2,125.8,56.5,125.7,56.8z"/>
			<path fill="#FE9268" d="M149.2,52.6c-0.4,1-1,2-1.7,2.7c-0.6,0.6-1.6,1.1-2.3,0.7c-0.4-0.2-0.7-0.7-0.8-1.2s0-1,0.1-1.4
				c0.1-0.7,0.3-1.3,0.6-1.9c0.4-0.7,1-1.3,1.6-1.8c1.4-1.2,3,0.5,2.8,2C149.4,52,149.4,52.3,149.2,52.6z"/>
		</g>
	</g>
	<g>
		<path fill="#FF8963" d="M408,216.3c0.4,0.2,0.8,0.3,0.9,0.4c3.2,2,6,7.4,8,10.5c4.5,7.1,7.9,14.8,10.4,22.8
			c5,16.4,6.1,33.7,6.7,50.7c0.5,13.3,1,26.6,1.5,39.9c-5,1.4-10,2.9-15,4.3c0.6-19.8,0.6-39.7-0.1-59.5c-0.3-8.7-0.7-17.5-3-25.9
			c-4.1-15-14.2-28.2-15.8-43.7C401.6,214.5,406,215.6,408,216.3z"/>
		<path fill="#010010" d="M367.8,469.7c1.5-1.4,2.9-2.8,4.2-4.3c2.1-2.4,2.4-3.8,5.5-3.5c2.1,0.2,4.5,1.4,6.4,2.3
			c3.8,1.8,8.4,4.5,9.9,8.8c1.9,5.7,0.8,13.3,0.9,19.3l-57.5,3.6c-0.5,0-0.1-4.6,0.1-5.2c0.5-1.9,1.2-3.4,2.8-4.5
			c1.2-0.9,2.7-1.4,4.1-1.9C352.9,481.2,361,476.1,367.8,469.7z"/>
		<path fill="#FBDDC5" d="M369.4,485.8c8.3-0.8,16.7-1.7,25-2.5c0,0.5,0.4,9,0.3,9s-57.5,3.6-57.5,3.6c-0.3,0-0.2-5.9,0.1-6.4
			c1.3-2.4,6.3-1.1,9.2-1.4C354.1,487.3,361.7,486.6,369.4,485.8z"/>
		<path fill="#314D2F" d="M369.8,309.4c0.9-15.3,1.7-30.7,2.6-46c0.3-5.7,0.6-11.5,1-17.2c0.4-6.9-0.8-14.4,0.2-21.1
			c0.5-3.7,2.2-7.4,5.1-9.4c2.7-1.9,6.1-2.1,9.3-2c4.9,0.1,9.8,0.6,14.6,1.5c1,0.2,2,0.4,2.8,1c1.3,0.9,1.8,2.6,2.3,4.2
			c0.1,0.4,0.3,0.8,0.4,1.2c4,12.4,8.1,25.2,7.3,38.4c-1,17.3-1.7,34.7-4.4,51.8c-2.8,17.7-6.7,35.2-7.2,53.2
			c-0.6,20.9,0.6,41.2-1,62.1c-1.3,16.6-2.5,33.2-3.8,49.8c0,0.4-15.4,1.7-16.9,1.8c-2.7,0-5.6-0.1-8.1-1.1
			c-2.9-1.1-5.8-2.9-8.6-4.3c-0.3-0.1-0.6-0.3-0.7-0.5c-0.2-0.3-0.2-0.7-0.3-1.1c-0.5-10.5-0.2-21-0.3-31.6
			c-0.2-10,1.1-20.3,1.5-30.3c0.2-5.2,0.5-10.3,0.5-15.5c0-2.4,0.1-4.8,0.1-7.1c0-2.1-0.5-4.3-0.4-6.4c0.6-10.7,1.2-21.4,1.8-32.1
			C368.3,335.5,369,322.5,369.8,309.4z"/>
		<path fill="#040312" d="M390.2,373.9c0.1,0,0.1,0,0.2,0c3.6-1.3,6.9-3.4,9.7-6c0.2-0.2,0.2-0.5,0.1-0.7s-0.4-0.3-0.7-0.2
			c-1.4,0.6-2.7,1-3.9,1.4c-2.3,0.8-4.4,1.5-6.8,2.9c-0.3,0.2-0.4,0.5-0.2,0.8c0.2,0.3,0.5,0.4,0.8,0.2c2.3-1.4,4.4-2.1,6.6-2.8
			c0.3-0.1,0.6-0.2,0.9-0.3c-2.1,1.6-4.4,2.8-6.8,3.7c-0.3,0.1-0.5,0.4-0.3,0.7C389.7,373.8,390,374,390.2,373.9z"/>
		<path fill="#040312" d="M391.7,472.1c0.3,0,0.5-0.2,0.5-0.5c5.6-30.5,7.6-61.6,6.1-92.6c0-0.3-0.3-0.6-0.6-0.6l0,0
			c-0.3,0-0.6,0.3-0.5,0.6c1.5,30.9-0.6,62-6.1,92.3c-0.1,0.3,0.1,0.6,0.5,0.7C391.6,472.1,391.6,472.1,391.7,472.1z"/>
		<path fill="#FFB99F" d="M437.9,184c-0.8,5.1-3.9,25.6-12.3,22.2c-2-0.8-3.4-2.6-4.6-4.4c-2.9-4.6-4.5-9.8-5.6-15.1
			c-0.9-4.6-2-9.6-2.5-14.2c-0.7-6.6-0.3-13.4-0.3-20c0-5.3-0.5-10.6-0.6-16c-0.1-2.6-1-8.2,0.4-10.4c1.7-2.5,24.4-7.6,25.1-5.1
			c3.9,14.9,3.7,32.2,2.2,47.5C439.3,173.2,438.8,178.6,437.9,184z"/>
		<path fill="#FE9268" d="M412.4,144.2c-0.1-2.6-0.3-5.1-0.3-7.7c-0.1-2.6-1-8.2,0.4-10.4c0.5-0.8,2.9-1.7,6-2.7
			c5-0.6,9.8-2.6,14.8-3c2.4-0.2,4.1-0.1,4.2,0.5c0.9,3.6,1.6,7.3,2.1,11C430,134.5,420.7,138.6,412.4,144.2z"/>
		<path fill="#9A444F" d="M356.4,57.2c-0.2,1.2-1.3,2.2-2.6,2.2c-1.2,0-2.4-0.9-2.8-2c-0.3-1-0.2-2.1-0.6-3
			c-0.6-1.7-2.5-2.4-3.9-3.6c-2.2-2-2.6-5.7-0.9-8.2c3.5-5.2,14.5-5,14.9,2.3c0.1,2.6-1,5.2-2.6,7.3c-0.6,0.8-1.4,1.7-1.5,2.8
			C356.3,55.7,356.5,56.5,356.4,57.2z"/>
		<path fill="#010010" d="M426.6,428.1c0.1,0,0.2,0.1,0.3,0.1c3,1.2,6.2,4,8.5,6.2c3,2.8,5.7,5.8,8,9.2c-2.8,4.1-5.8,8-9,11.7
			c-1.6,1.8-3.4,3.6-4.7,5.7c-1.3,2-2.3,4.4-3.5,6.5c-2.3,4-4.9,7.1-8.3,10.2c-1.5,1.4-3.1,2.8-4.6,4.3c-3.8,3.4-7.6,6.7-12.2,9.1
			c-0.1,0.1-0.2,0.1-0.4,0.1c-0.1,0-0.2-0.1-0.3-0.2c-2.9-3.1-3.1-6.5-1.3-10.1c1.7-3.7,3.6-7.3,5.2-11c1.3-2.9,3.6-6.7,3.4-10
			c0.4-3.1,0.3-6.3,0.6-9.4c0.5-5.2,3.4-10.7,6.4-14.9C417.2,431.7,421.6,426.4,426.6,428.1z"/>
		<path fill="#FFB99F" d="M327.2,192.7c6.3-0.7,10.1-8,11.9-14.6c4.5-15.8,4.4-33.3-1-48.8c-1.5-4.4-5.2-14.4-10.3-15.4
			c-6.6-1.3-10.2,25.3-10.9,30c-1.6,11.3-1.6,22.8-2,34.2C314.6,185.8,318.8,193.6,327.2,192.7z"/>
		<path fill="#FE9268" d="M320,127.5c1.8-7.4,4.5-14.3,7.9-13.6c2.7,0.5,5,3.7,6.9,7.2l0,0c1.3,2.7,2.4,5.4,3.4,8.2l0,0
			c0.1,0.4,0.3,0.8,0.4,1.2c0.1,0.2,0.1,0.4,0.2,0.7c0,0.1,0.1,0.2,0.1,0.3c3,9.7,3.8,19.9,3.2,30.1c-0.1,0.7-0.1,1.4-0.2,2
			C337,150.3,329.3,138.2,320,127.5z"/>
		<path fill="#314D2F" d="M379.7,230.8l-9.3,101.5c-0.2,2.3,5.3,8.9,6.4,10.8c5.2,8.8,10.5,17.6,15.7,26.4
			c12,20.2,25.1,39.7,38.6,59c1.7,2.4,0.2,4.8-0.7,7.3c-1,2.7-2.3,5.3-3.8,7.7c-3,4.9-6.9,9.1-11.5,12.5c-1.7,1.2-3.5,2.3-5.4,3.2
			c-0.3,0.1-0.7,0.3-1.1,0.2c-0.3-0.1-0.5-0.2-0.7-0.4c-2.1-1.6-3.9-3.7-5.6-5.7c-2.7-3.3-5.1-6.9-7.5-10.6
			c-5.1-7.7-10.8-14.9-16.3-22.2c-5.8-7.7-11.4-15.6-17-23.4c-3-4.3-5.6-8.8-8.6-13c-1.6-2.2-3.1-4.3-4.7-6.5
			c-3.1-4.3-6.2-8.7-9.3-13c-2.9-4.1-5.9-8.1-8.8-12.2c-1.7-2.3-3.3-4.6-5-7l-2.1-83.1l20.7-59.8L379.7,230.8z"/>
		<path fill="#FBDDC5" d="M337.4,149l-16.5-35.7c-1-2.2,14.7-12.5,15.9-13.3c22.5-13.7,51.5-15.2,75.7-5.3c1,0.4,2,0.9,3,1.3
			c7.2,3.4,13.9,8.2,19.2,14.5c2.7,3.1,5.1,6.4,6.7,10.3c-7.4,3.8-14.8,7.6-22.1,11.4c-2.1,1.1-4.4,1.8-6.1,3.6
			c-1.5,1.7-1.4,4.3-1.5,6.5c-0.3,5.5-0.5,10.4-4.4,14.7c-0.5,0.6-1.1,1.1-1.3,1.8c-0.2,0.6-0.2,1.4-0.2,2
			c0.6,9.8,1.2,19.6,1.9,29.4c0.3,4.7,0.6,9.3,1.2,14c0.2,1.9,0.5,3.8,0,5.6c-1.2,4.3-7.7,5.2-11.4,6.2c-4.9,1.3-10,2-15.1,2.3
			c-10.3,0.5-20.6-1-30.4-3.9c-5.8-1.7-11.6-4.6-16.1-8.8s-3.6-14.2-3-19.7c0.4-3.7,1.8-7.1,2.3-10.7c1.2-8.1,1.6-16.7,2.1-24.8
			C337.3,150,337.3,149.5,337.4,149z"/>
		<path fill="#9A444F" d="M381,32.6c0.6-3,1.9-5.8,4.3-7.3c3-1.9,7.3-1.6,9.8,1c0.8,0.9,1.4,1.9,2.5,2.3c1.6,0.6,3.2-0.5,4.8-0.8
			c2.1-0.3,4.2,1.1,4.8,3.1c0.5,1.7,0.4,4.1,2.1,4.6c0.7,0.2,1.4,0,2.1-0.1c2.6-0.3,5.1,2,5.2,4.6c0,0.5-0.1,1.1,0.1,1.6
			c0.4,1.3,2.1,1.6,3.4,1.6c1.6,0,2.9,0.5,4,1.8c1.5,1.8-0.5,3.8,0.2,5.9c0.9,2.5,4,2.5,5.1,5.1s0.9,5.9-0.7,8.2
			c-0.9,1.3-2.3,2.8-1.7,4.3c0.2,0.5,0.6,0.9,0.9,1.4c1.1,1.9-0.5,4.7-2.7,4.6c-1.3-0.1-3-0.8-3.6,0.4c-0.3,0.5-0.2,1-0.1,1.6
			c0.1,1.3,0,2.7-0.8,3.8c-0.7,1.1-2.2,1.8-3.4,1.4c-0.8-0.3-1.5-0.9-2.2-1.3c-0.8-0.4-1.8-0.6-2.4,0c-0.3,0.4-0.4,0.9-0.6,1.3
			c-0.6,1.7-2.5,2.8-4.2,2.5s-3.2-1.9-3.3-3.7c-0.1-1.3,0.3-2.9-0.7-3.6c-1.2-0.9-2.7,0.5-4.1,1.1c-2.6,1.1-5.4-2.2-5.5-4.6
			c0-0.5,0.1-1-0.1-1.5c-0.5-1.1-2.1-1-3.3-1.5c-1-0.4-1.7-1.4-2.3-2.4c-0.4-0.7-0.7-1.5-0.8-2.3c-0.1-1.7,1.3-3.2,0.9-4.9
			s-2.4-2.3-3-3.8c-0.8-2,1.2-2.3,1.3-4.1c0-1.2-1.2-1.9-2.1-2.7c-2.7-2.5-3.8-8.7-4-12.2C380.6,36.4,380.7,34.5,381,32.6z"/>
		<path fill="#FF8963" d="M409.2,208.2c0.8,5.2,1.5,10.3,2.3,15.5c-5.3,2.7-7.5,9.4-9.3,15.4c-3.6,12.1-6.1,23.1-6.5,35.7
			c-0.5,14.1-0.9,28.1-1.4,42.2c-0.1,1.8-0.1,28.5-1,28.6c-7.8,1.4-15.6,2.7-23.5,4.1c-11.7,2-26.3-0.4-36.9-6.2
			c-1.8-1-23.2-12.5-23-13.9c2.5-19.7,6.9-39.4,9.7-59.2c1.8-12.7,3.6-25.3,6.2-37.8c1.1-5.2,2.9-10,4.1-15.1
			c1.5-6.4,2-13.2,3.5-19.6c13,8.5,30.9,12,45.9,11.6C389.2,209.3,399.2,209.1,409.2,208.2z"/>
		<path fill="#FFB99F" d="M384.4,66.9l1.1,27.8c0,0,7.2,2.4,7.3,2.4c-0.6-0.2-4.1,5-4.7,5.7c-2.2,2.8-4.4,5.2-7.4,7
			c-4.2,2.5-9.2,3.6-13.9,2.6c-8-1.7-9.5-7.7-13.4-14l5.6-3.9l1.9-28.7L384.4,66.9z"/>
		<path fill="#FE9268" d="M365.5,89.6c-2.2,0-4.3-0.5-6.2-1.6l1.5-22.1l20.7,0.9c0.2,0.4,0.3,0.8,0.5,1.2
			C385.5,78.4,375.9,89.4,365.5,89.6z"/>
		<path fill="#FFB99F" d="M350.6,53.2c-0.2,2.7-0.2,5.4-0.1,8.2c0.4,7.2,1.3,14.3,7.7,18.6c13.5,9.1,26.1-4.7,29.5-17.5
			c2.3-8.6,3.3-19.8-1.6-27.8c-3.5-5.8-9.3-10.5-16.1-10.2c-6.8,0.3-14.3,4.8-16.6,11.6c-0.5,1.3-0.3,2.7-0.5,4.1
			c-0.4,2.3-1.1,4.6-1.5,7C351,49.2,350.7,51.2,350.6,53.2z"/>
		<path fill="#9A444F" d="M382.1,49.3c-1.2-0.9-2.2-2-2-3.8c0.1-0.8,0.5-1.6,0.6-2.5c0.2-1.7-1.1-3.3-2.7-3.6
			c-0.8,2.6-4.2,3.9-6.5,2.4c-1-0.7-2.1-1.9-3.2-1.5c-0.2,3.1-4,5.4-6.7,4c-0.8-0.4-1.6-1.1-2.4-1.4c-3.3-1.2-1.7,3-3.6,4.2
			c-1,0.6-2.2,0.3-3.3,0.4c-1.6,0.3-3,1.8-3,3.5c-2.5-6.5-6.8-11.1-2.7-17.8c0.5-0.9,0.8-1.5,1.7-2c1.1-0.7,3.1-0.6,3.8-1.7
			c0.3-0.6,0.2-1.3,0.2-1.9c0.1-1.5,1.1-2.8,2.5-3.5s2.9-0.7,4.3-0.4c1.7,0.4,3.4,1.2,5,0.6c1.8-0.8,2.4-3.1,3.9-4.4
			c1.6-1.4,4.3-1.1,5.7,0.5c0.3,0.4,0.5,0.8,0.8,1.1c2.5,2.6,7.7-0.8,10.1,1.9c1.7,2,0.3,5.8,2.4,7.4c0.7,0.6,1.7,0.7,2.5,1
			c2.7,1.1,3.7,5.1,1.9,7.4c-0.4,0.5-0.9,0.9-1.2,1.5c-0.8,1.7,0.5,3.5,1.2,5.2c1,2.6,1.9,8.8-1.1,10.5c-2,1.1-4.1-3.6-5-4.8
			C384.3,50.8,383.1,50.1,382.1,49.3z"/>
		<path fill="#FFB99F" d="M383.6,66.6c-1.6-0.6-2.9-2.2-3.5-5.1c-1.2-5.9,0.9-17.4,9.3-12.9C396.2,52.3,392.1,70,383.6,66.6z"/>
		<path fill="#FE9268" d="M363.3,63.2c-1.1,0.6-2.5,0.2-3.7-0.2c-0.3-0.1-0.5-0.2-0.7-0.4c-1.7-1.4,0.7-3.3,1.4-4.3
			c1.4-2.1,1.5-4.7,1.9-7.2c0.1-0.4,0.1-0.7,0.4-1s0.7-0.4,0.9-0.2C364,51.7,365.7,61.9,363.3,63.2z"/>
		<path fill="#FFB99F" d="M328.5,182.1c3-3.9,6.2-7.2,9.8-10.6c1.7-1.6,5.7-5.8,8.4-5.4c0.3,0,0.6,0.2,0.8,0.3
			c2.4,1.2,4.8,2.3,7.2,3.5c3.5,1.7,7.1,3.9,11,4.7c1.3,0.3,2.6,0.3,3.9,0.4c6,0.2,12,0.5,18,0.7c5.4,0.2,10.6,1.4,16.1,1.4
			c3.3,0,6.9-0.8,10.1-0.5c2.8,0.3,5.4,2.5,7.3,4.5c0.2,0.2,0.4,0.4,0.6,0.6c2.2,2.4,4.3,5.1,5.8,8c1.6,2.9,2.7,6.1,3.1,9.4
			c0.3,2.4,1,5.5-0.9,7.2c-1.3,1.3-3.4,1.8-5.2,2c-8.8,1.1-18-3.2-26.1-6.1c-15-5.4-29.3-11.4-44.9-14.4c-4.2-0.8-8.5-0.3-12.7-0.9
			c-2.2-0.3-4.6-0.8-6.5-2C333.6,184.4,329.4,180.9,328.5,182.1z"/>
		<path fill="#FFB99F" d="M362,190.7c-2.9,3.9-6.4,8-11,8.3c-2.9,0.2-5.8-1.3-8.8-1.2c-1.9,0-3.8,0.7-5.8,0.9c-4,0.4-7.9-1.3-11.6-3
			c-2.5-1.1-5-2.3-7-4.2c-4-3.8-3.7-12.1-2.5-17.2c0.6-0.3,1.2-0.8,1.5-1.4c7.4-5.8,14.8,4.8,19.3,9.4c3.2,3.3,7.4,3.2,11.5,3.9
			C349.1,186.5,362.1,190.7,362,190.7z"/>
		<path fill="#314D2F" d="M325,185l35.7,7.2c1.4,0.3,2.7-0.6,2.9-2l0,0c0.2-1.3-0.6-2.6-1.9-2.8l-35.7-7.2c-1.4-0.3-2.7,0.6-2.9,2
			l0,0C322.8,183.5,323.7,184.7,325,185z"/>
		<path fill="#FF8963" d="M368.9,83.5c1.9-0.1,3.7-0.5,5.2-1.4c5.2-3,9.2-8,11.2-14.1c0.1-0.2,0-0.4-0.2-0.5s-0.4,0-0.5,0.2
			c-1.9,5.9-5.8,10.7-10.8,13.7c-4.6,2.7-12.2,0.9-16.3-2.4c-7.7-6.1-6.9-19.9-6.3-28.9c0-0.4,0.1-0.9,0.1-1.3
			c0-0.2-0.1-0.4-0.4-0.4c-0.2,0-0.4,0.2-0.4,0.4c0,0.4,0,0.9-0.1,1.3c-0.5,9.2-1.4,23.2,6.6,29.6C360,82.1,364.7,83.7,368.9,83.5z"
			/>
		<path fill="#9A444F" d="M363.1,63.8c0.2,0,0.3,0,0.5,0s0.4-0.2,0.3-0.4c0-0.2-0.2-0.4-0.4-0.3c-0.9,0.1-1.9,0-2.8-0.4
			c-1-0.4-2-1.3-1.9-2.4c0.1-0.8,0.7-1.4,1.4-2c0.2-0.2,0.5-0.4,0.7-0.7c1.8-2,2-4.8,2.1-7.8c0-0.2-0.2-0.4-0.4-0.4
			c-0.2,0-0.4,0.2-0.4,0.4c-0.1,2.8-0.3,5.5-1.9,7.3c-0.2,0.2-0.4,0.4-0.6,0.6c-0.7,0.7-1.5,1.4-1.6,2.5c-0.2,1.5,1.1,2.7,2.4,3.2
			C361.3,63.7,362.2,63.8,363.1,63.8z"/>
		<path fill="#9A444F" d="M381.6,60.7c0.2,0,0.3-0.1,0.4-0.3c0.7-4.6,2.2-7.1,4.6-7.7c0.6-0.2,1.5-0.1,2,0.5
			c0.1,0.2,0.4,0.2,0.5,0.1c0.2-0.1,0.2-0.4,0-0.5c-0.6-0.7-1.7-1-2.7-0.8c-2.8,0.7-4.5,3.4-5.2,8.3
			C381.2,60.4,381.3,60.6,381.6,60.7L381.6,60.7z"/>
		<path fill="#040312" d="M372.2,116.2c5-0.2,9.8-1.9,13.8-4.8c3.9-2.9,6.8-7,9.6-10.9c0.2-0.3,0.1-0.6-0.1-0.8
			c-0.3-0.2-0.6-0.1-0.8,0.1c-2.7,3.8-5.6,7.8-9.4,10.6c-5.6,4.2-13.5,5.7-20.5,3.8c-6.8-1.8-13-6.8-16.5-13.3
			c-0.2-0.3-0.5-0.4-0.8-0.2c-0.3,0.2-0.4,0.5-0.2,0.8c3.6,6.8,10.1,12,17.2,13.9C367,116,369.6,116.3,372.2,116.2z"/>
		<path fill="#040312" d="M340,156h0.1c0.3-0.1,0.5-0.4,0.4-0.7c-2.7-8.8-3.3-16.3-2.1-22.9l1.5-7.7c0-0.3,0.1-0.5,0.1-0.8
			s-0.1-0.7-0.2-0.9v-0.1c-0.3-1-0.5-2.1-0.6-3.2c0-0.3-0.3-0.6-0.6-0.5c-0.3,0-0.5,0.3-0.5,0.6c0.1,1.2,0.3,2.3,0.7,3.5v0.1
			c0.1,0.2,0.1,0.4,0.1,0.6s0,0.4-0.1,0.6l-1.5,7.7c-1.3,6.7-0.6,14.4,2.1,23.4C339.5,155.9,339.8,156.1,340,156z"/>
		<path fill="#FF8963" d="M422.7,208.9c5.5-0.2,10.3-3.7,12.1-9.4c1.5-4.6,2.4-8.6,2.7-12.5l-1.1-0.1c-0.4,3.8-1.2,7.7-2.7,12.3
			c-2.1,6.4-8.4,9.8-14.9,8.1l-0.3,1.1C419.9,208.8,421.3,209,422.7,208.9z"/>
		<path fill="#FF8963" d="M339.6,182.8c2.2-2.1,4.5-4.3,6.6-6.5l-0.8-0.8c-2.1,2.2-4.3,4.4-6.5,6.5L339.6,182.8z"/>
		<path fill="#FF8963" d="M335.4,181.1c2.8-2.7,5.5-5.5,8.2-8.3l-0.8-0.8c-2.6,2.8-5.4,5.6-8.1,8.3L335.4,181.1z"/>
		<path fill="#FF8963" d="M422.4,183.1l0.8-0.8c-1.8-1.8-3.9-3.4-6.2-4.7l-0.5,1C418.7,179.8,420.6,181.3,422.4,183.1z"/>
		<path fill="#FF8963" d="M349.9,199.4c3.7-0.2,6.8-2,8.9-5.4l-1-0.6c-2.8,4.6-7.6,6-13.1,3.9c-0.7-0.3-1.4-0.5-2.1-0.8
			c-3.3-1.2-6.6-2.4-9.7-4.1l-0.5,1c3.2,1.7,6.6,2.9,9.9,4.1c0.7,0.3,1.4,0.5,2.1,0.8C346.2,199.2,348.1,199.5,349.9,199.4z"/>
		<path fill="#9A444F" d="M334.1,182.1L334.1,182.1c0.7,0,1.2-0.6,1.2-1.3c-0.1-1.2-0.2-2.4-0.4-3.6c-1-7.5-2.2-16.2-2.7-24.8
			c0-0.7-0.6-1.2-1.3-1.2c-0.7,0-1.2,0.6-1.2,1.3c0.5,8.6,1.7,17.5,2.7,25c0.2,1.1,0.3,2.3,0.4,3.4
			C332.9,181.5,333.4,182.1,334.1,182.1z"/>
		<path fill="#FFB99F" d="M342.1,167.4c0.3-0.1,0.6-0.2,1-0.3c0.9-0.3,1.8-0.7,2.7-1c0.2,1.5-1.3,2.5-2.1,3.8
			c-0.4,0.7-0.7,1.5-1.1,2.2c-1.5,2.6-5.9,2.4-8.4,3.2c-1.1,0.3-2.2,0.9-3.1,1.6c-0.5,0.4-1.1,0.9-1.8,0.7c-0.6-0.2-0.9-0.9-0.8-1.6
			c0.1-0.6,0.5-1.2,0.9-1.7c1.7-2.1,3.7-4.1,6.1-5.3C337.7,168.2,340,168.1,342.1,167.4z"/>
		<path fill="#040312" d="M404.5,160.6c0.1,0,0.3-0.1,0.4-0.2c4.6-4.5,7.2-10.8,7.4-17.3c0-0.8,0-1.7,0-2.5c0-1.5-0.1-3,0.1-4.5
			c0.4-2.9,1.7-5.5,3-8.1c0.1-0.3,0-0.6-0.2-0.8c-0.3-0.1-0.6,0-0.8,0.3c-1.3,2.5-2.7,5.4-3.2,8.5c-0.2,1.6-0.2,3.1-0.1,4.7
			c0,0.8,0.1,1.7,0,2.5c-0.1,6.2-2.7,12.2-7,16.5c-0.2,0.2-0.2,0.6,0,0.8C404.2,160.6,404.3,160.7,404.5,160.6z"/>
		<path fill="#040312" d="M373.6,40.3c1.1,0,2.2-0.6,2.8-1.5c0.8-1.1,1-2.5,1.2-3.6c0-0.3-0.2-0.6-0.5-0.7c-0.3,0-0.6,0.2-0.6,0.5
			c-0.1,1-0.3,2.2-0.9,3c-0.5,0.6-1.3,1-2.1,1c-0.8,0-1.6-0.4-2.1-1c-0.2-0.2-0.6-0.3-0.8-0.1c-0.2,0.2-0.3,0.6-0.1,0.8
			c0.7,0.9,1.8,1.4,3,1.4C373.5,40.3,373.6,40.3,373.6,40.3z"/>
		<path fill="#040312" d="M354.8,31.2L354.8,31.2c0.3,0,0.6-0.3,0.5-0.6c-0.1-1.1-0.1-2.3,0.6-2.9c0.6-0.6,1.7-0.6,2.4-0.3
			c0.9,0.4,1.6,1.1,2.4,1.9c0.2,0.2,0.6,0.2,0.8,0c0.2-0.2,0.2-0.6,0-0.8c-0.8-0.8-1.6-1.6-2.7-2.1s-2.6-0.5-3.6,0.5s-1,2.5-0.9,3.8
			C354.2,31,354.5,31.2,354.8,31.2z"/>
		<path fill="#040312" d="M359,39.7c0.3,0,0.7-0.1,1-0.2c0.9-0.3,1.7-1,2-2c0.3-0.8,0.3-1.7,0-2.4c-0.1-0.3-0.5-0.4-0.8-0.3
			c-0.3,0.1-0.4,0.5-0.3,0.8c0.2,0.4,0.2,1,0,1.5c-0.3,0.6-0.8,1.1-1.4,1.3c-1.1,0.4-2.5-0.1-3.4-1.1c-0.2-0.2-0.6-0.3-0.8,0
			c-0.2,0.2-0.2,0.6,0,0.8C356.4,39.2,357.7,39.8,359,39.7z"/>
		<path fill="#040312" d="M351.6,45.2c0.5,0,1-0.2,1.5-0.5c1.1-0.8,1.6-2.5,0.9-3.7c-0.1-0.3-0.5-0.4-0.8-0.3
			c-0.3,0.1-0.4,0.5-0.3,0.8c0.4,0.7,0.1,1.8-0.6,2.2c-0.7,0.5-1.7,0.3-2.3-0.3c-0.2-0.2-0.6-0.3-0.8,0c-0.2,0.2-0.3,0.6,0,0.8
			C349.9,44.9,350.8,45.2,351.6,45.2z"/>
		<path fill="#040312" d="M400.1,73.6c1.1,0,2.3-0.6,3.3-1.6c0.2-0.2,0.2-0.6,0-0.8c-0.2-0.2-0.6-0.2-0.8,0c-0.9,0.9-2,1.3-3,1.2
			c-0.9-0.1-2-0.9-2-1.9c0-0.3-0.3-0.6-0.6-0.6c-0.3,0-0.6,0.3-0.6,0.6c0,1.5,1.3,2.9,3,3.1C399.8,73.6,399.9,73.6,400.1,73.6z"/>
		<path fill="#040312" d="M413.7,54c0.2,0,0.4-0.1,0.5-0.3c1-1.9,0.8-4.3-0.5-5.9c-1.4-1.7-4-2.1-5.7-0.9c-0.3,0.2-0.3,0.5-0.2,0.8
			c0.2,0.3,0.5,0.3,0.8,0.2c1.3-0.8,3.2-0.5,4.2,0.7s1.2,3.1,0.4,4.6c-0.1,0.3,0,0.6,0.2,0.8C413.5,54,413.6,54,413.7,54z"/>
		<path fill="#040312" d="M401.6,43.1c0.2,0,0.4-0.1,0.5-0.4c0.3-0.8,0.2-1.6-0.1-2.4c-0.4-0.9-1.2-1.6-2.1-1.8
			c-1.6-0.5-3.4,0.3-4.5,1.7c-0.2,0.3-0.1,0.6,0.1,0.8c0.3,0.2,0.6,0.1,0.8-0.1c0.8-1.1,2.1-1.6,3.2-1.3c0.6,0.2,1.1,0.6,1.4,1.2
			c0.2,0.5,0.3,1,0.1,1.5c-0.1,0.3,0,0.6,0.3,0.8C401.5,43.1,401.5,43.1,401.6,43.1z"/>
		<path fill="#040312" d="M415.2,70.6c0.5,0,1.1-0.1,1.6-0.3c1.5-0.6,2.7-1.9,2.9-3.4c0.2-1.2-0.2-2.5-0.5-3.5
			c-0.1-0.3-0.4-0.5-0.7-0.4c-0.3,0.1-0.5,0.4-0.4,0.7c0.3,0.9,0.6,2,0.4,2.9c-0.2,1.1-1.1,2.1-2.2,2.5s-2.4,0.3-3.5-0.3
			c-0.3-0.1-0.6,0-0.8,0.3c-0.1,0.3,0,0.6,0.3,0.8C413.2,70.5,414.2,70.7,415.2,70.6z"/>
		<path fill="#040312" d="M406.6,64.6c0.3,0,0.5-0.1,0.8-0.1c0.6-0.2,1.1-0.5,1.6-1c0.9-0.9,1.8-2.3,1.3-3.9
			c-0.1-0.3-0.4-0.5-0.7-0.4c-0.3,0.1-0.5,0.4-0.4,0.7c0.3,1-0.4,2.1-1,2.7c-0.4,0.4-0.8,0.6-1.2,0.7c-1,0.3-2.2-0.2-2.6-1.1
			c-0.2-0.3-0.5-0.4-0.8-0.2s-0.4,0.5-0.2,0.8C404.1,64,405.4,64.7,406.6,64.6z"/>
		<path fill="#040312" d="M419.8,59.5c0.1,0,0.2,0,0.3-0.1c1-0.7,2.1-1.6,2.4-3s-0.4-2.8-1.2-4c-0.2-0.3-0.5-0.3-0.8-0.2
			c-0.3,0.2-0.3,0.5-0.2,0.8c0.6,1,1.3,2.1,1,3.1c-0.2,1-1.1,1.7-2,2.3c-0.3,0.2-0.3,0.5-0.1,0.8C419.4,59.4,419.6,59.5,419.8,59.5z
			"/>
		<path fill="#040312" d="M380.7,40.5c0.1,0,0.3-0.1,0.4-0.2c1.6-1.7,2.3-3.9,2.8-5.9c0.8-2.7,1.4-5.4,1.8-8.2
			c0-0.3-0.2-0.6-0.5-0.7s-0.6,0.2-0.7,0.5c-0.4,2.7-1,5.4-1.8,8c-0.5,1.8-1.2,3.9-2.6,5.4c-0.2,0.2-0.2,0.6,0,0.8
			C380.4,40.4,380.6,40.5,380.7,40.5z"/>
		<path fill="#040312" d="M384.6,24.6c-0.3-0.4-0.6-0.9-0.7-1.3l-1.9-4.2c-0.2-0.5-0.4-0.9-0.6-1.4c-0.2-0.8-0.3-1.7-0.3-2.5
			c0-0.5-0.1-1.3,0.3-1.9c0.3-0.5,0.8-0.9,1.4-0.9c0.3,0,0.6,0.1,0.8,0.2c0,0,0,0,0.1,0.1c1.6,1.5,2.1,3.6,2.3,5.1
			c0.2,1.8,0.1,3.7-0.1,5.4c0,0.3,0,0.5,0,0.5c0,0.1,0,0.2-0.1,0.3c0,0.1,0,0.2-0.1,0.4c0,0.2-0.2,0.4-0.4,0.4h-0.1
			C384.9,24.8,384.7,24.8,384.6,24.6z M382.8,13.6c-0.2,0-0.4,0.1-0.4,0.3c-0.2,0.3-0.2,0.8-0.1,1.3c0,0.7,0.1,1.5,0.3,2.2
			c0.1,0.4,0.3,0.8,0.5,1.3l1.7,3.8c0.1-1.5,0.2-3.1,0.1-4.5C384.6,16.7,384.1,14.9,382.8,13.6L382.8,13.6z"/>
		<path fill="#040312" d="M385.4,25.9c-0.4-0.4-0.6-1.1-0.5-2.1c0.2-3.4,2-7,4.7-9.5c0.9-0.8,1.7-1.1,2.4-0.8
			c0.9,0.3,1.3,1.3,1.3,2.1c0.1,1.8-0.8,3.5-1.8,5c-0.1,0.2-0.2,0.4-0.4,0.5c-0.9,1.4-1.9,2.9-3.1,4.1c-0.6,0.6-1.2,1-1.8,1l0,0
			C386,26.3,385.7,26.2,385.4,25.9z M390.4,15.3c-2.5,2.3-4.1,5.6-4.3,8.7c-0.1,0.9,0.1,1.1,0.2,1.2c0,0,0,0,0.1,0l0,0
			c0.1,0,0.4-0.1,1-0.7c1.1-1.1,2-2.5,2.9-3.9c0.1-0.2,0.2-0.4,0.4-0.5c0.8-1.3,1.7-2.7,1.6-4.3c0-0.5-0.2-1-0.6-1.1
			c-0.1,0-0.1,0-0.2,0C391.2,14.7,390.9,14.8,390.4,15.3z"/>
		<path fill="#040312" d="M387.7,27.4c0.8,0,1.6-0.5,2.4-1.3c0.2-0.2,0.5-0.5,0.7-0.8c0.9-1,1.7-1.9,2.8-2.1c0.8-0.2,1.7,0,2.6,0.2
			c1.2,0.2,2.4,0.5,3.6,0c0.3-0.1,0.4-0.5,0.3-0.8s-0.5-0.4-0.7-0.3c-0.9,0.4-1.9,0.2-2.9,0s-2.1-0.4-3.1-0.1
			c-1.4,0.3-2.4,1.4-3.4,2.5c-0.2,0.3-0.5,0.5-0.7,0.7c-0.6,0.6-1.6,1.2-2.2,0.8c-0.3-0.2-0.5-0.6-0.7-1s-0.4-0.7-0.6-1.1
			c-1-1.1-3.2-1.1-4.3-0.6c-0.3,0.1-0.6,0.3-0.8,0.5c-0.2,0.1-0.4,0.2-0.5,0.3c-0.3,0.1-0.6,0.2-0.9,0.1c-0.1-0.1-0.2-0.2-0.3-0.4
			c-1.2-1.9-1.8-3.8-1.7-5.4c0-0.3,0.1-0.7,0.1-1c0.1-0.5,0.1-1,0.1-1.5c0-1.2-0.5-2.2-1.2-2.7c-0.3-0.2-0.6-0.1-0.8,0.2
			c-0.2,0.3-0.1,0.6,0.2,0.8c0.4,0.3,0.7,1,0.7,1.8c0,0.4-0.1,0.9-0.1,1.4c-0.1,0.4-0.1,0.8-0.1,1.1c-0.1,1.9,0.5,3.9,1.9,6.1
			c0.2,0.3,0.3,0.5,0.6,0.7c0.5,0.4,1.3,0.4,2,0c0.2-0.1,0.4-0.3,0.6-0.4s0.4-0.3,0.6-0.4c0.9-0.4,2.5-0.3,3,0.3
			c0.2,0.2,0.3,0.5,0.5,0.8c0.3,0.5,0.5,1.1,1.1,1.5C386.9,27.4,387.3,27.5,387.7,27.4z"/>
		<path fill="#040312" d="M363.8,73.3c0.2,0,0.3,0,0.5-0.1c0.5-0.1,0.9-0.3,1.4-0.6c1.3-0.8,2.3-2,2.8-3.4c0.1-0.3,0-0.6-0.3-0.8
			c-0.3-0.1-0.6,0-0.8,0.3c-0.5,1.2-1.3,2.2-2.4,2.8c-0.4,0.2-0.7,0.4-1.1,0.5c-0.6,0.1-1.3,0-2-0.5c-0.6-0.4-1.1-0.9-1.6-1.7
			c-0.2-0.3-0.5-0.3-0.8-0.2c-0.3,0.2-0.3,0.5-0.2,0.8c0.6,0.9,1.2,1.6,1.9,2C362.2,73.1,363,73.3,363.8,73.3z"/>
		<path fill="#040312" d="M374.6,51.4c-1.7-0.1-3.3-0.6-5-1.1c-0.6-0.2-1.2-0.3-1.7-0.7c-2.3-1.8,1.1-3.3,2.7-2.6
			c1.2,0.5,5.3,1.7,5.2,3.4C375.9,50.9,375.3,51.2,374.6,51.4C374.2,51.4,375.2,51.2,374.6,51.4z"/>
		<path fill="#040312" d="M351.7,48c0.4-0.7,1.5-1.2,2.6-0.9c1.2,0.3,3.9,0.6,3.6,2.4c0,0.3-0.2,0.6-0.4,0.6c-0.1,0-0.3,0-0.4,0
			c-0.7,0-1.5-0.1-2.2-0.1s-1.5-0.1-2.2-0.4C351.7,49.1,351.4,48.5,351.7,48z"/>
		<path fill="#040312" d="M369.7,52.5c0-0.1,0.1-0.1,0.1-0.2c0.4-0.8,1.6-1.5,2.1-0.3c0.3,0.7,0.4,1.8,0.2,2.5
			c-0.1,0.4-0.2,0.7-0.5,1s-0.7,0.4-1,0.3c-0.3-0.1-0.6-0.4-0.8-0.7C369.4,54.4,369.4,53.3,369.7,52.5z"/>
		<path fill="#040312" d="M355.2,55.2c-0.2,0.1-0.4,0.1-0.6,0c-0.1-0.1-0.2-0.1-0.2-0.2c-0.5-0.7-0.6-1.5-0.6-2.3
			c0-0.5,0.1-1,0.4-1.4c0.5-0.6,1.4-0.1,1.7,0.5c0.3,0.5,0.3,1.3,0.3,1.9C356.1,54.2,355.9,55,355.2,55.2z"/>
		<path fill="#9A444F" d="M387.2,60.1c0.1,0,0.2,0,0.2-0.1c0.2-0.1,0.2-0.4,0.1-0.5c-0.6-0.8-1.3-1.7-1.8-2.5
			c-0.4-0.6-0.9-1.3-1.4-1.9c-0.1-0.2-0.4-0.2-0.5-0.1c-0.2,0.1-0.2,0.4-0.1,0.5c0.5,0.6,0.9,1.3,1.4,1.9c0.6,0.8,1.2,1.7,1.9,2.5
			C387,60,387.1,60.1,387.2,60.1z"/>
		<path fill="#040312" d="M382.5,226.1c7.6-0.3,15-1.1,21.9-1.8c0.3,0,0.5-0.3,0.5-0.6s-0.3-0.5-0.6-0.5c-20.8,2.2-46.7,4.9-66-6.4
			c-0.3-0.2-0.6-0.1-0.8,0.2c-0.2,0.3-0.1,0.6,0.2,0.8C350.9,225.5,367,226.8,382.5,226.1z"/>
		<path fill="#040312" d="M335.4,237.5c0.2,0,0.4-0.1,0.5-0.3l5.2-11.5c0.1-0.3,0-0.6-0.3-0.8c-0.3-0.1-0.6,0-0.8,0.3l-5.2,11.5
			c-0.1,0.3,0,0.6,0.3,0.8C335.2,237.5,335.3,237.5,335.4,237.5z"/>
		<path fill="#040312" d="M330.8,236.2c0.2,0,0.4-0.1,0.5-0.4c1.7-4.4,4.1-8.4,7.1-12c0.2-0.2,0.2-0.6-0.1-0.8
			c-0.2-0.2-0.6-0.2-0.8,0.1c-3.1,3.7-5.6,7.8-7.3,12.3c-0.1,0.3,0,0.6,0.3,0.8C330.7,236.2,330.8,236.2,330.8,236.2z"/>
		<path fill="#040312" d="M384.4,246.8c0.3,0,0.5-0.3,0.5-0.6c0.2-4.2,0.1-8.4-0.2-12.5c0-0.3-0.3-0.6-0.6-0.5
			c-0.3,0-0.5,0.3-0.5,0.6c0.3,4.1,0.4,8.3,0.2,12.4C383.8,246.5,384,246.8,384.4,246.8C384.3,246.8,384.4,246.8,384.4,246.8z"/>
		<path fill="#040312" d="M378.4,247.1c0.3,0,0.5-0.2,0.5-0.5l0.6-12.2c0-0.3-0.2-0.6-0.5-0.6s-0.6,0.2-0.6,0.5l-0.6,12.2
			C377.8,246.8,378.1,247,378.4,247.1L378.4,247.1z"/>
		<path fill="#040312" d="M397.9,361.8c0.3,0,0.5-0.2,0.5-0.5l8.6-53.1c1.6-9.6,3.2-19.6,3.7-29.5c0.7-13.4-0.7-26.7-4-39.6
			c-0.1-0.3-0.4-0.5-0.7-0.4c-0.3,0.1-0.5,0.4-0.4,0.7c3.3,12.8,4.6,26,3.9,39.3c-0.5,9.9-2.1,19.8-3.6,29.4l-8.6,53.1
			c-0.1,0.3,0.2,0.6,0.5,0.7C397.8,361.8,397.8,361.8,397.9,361.8z"/>
		<path fill="#040312" d="M372.7,490.2L372.7,490.2l21.6-2.2c0.3,0,0.5-0.3,0.5-0.6c0-0.3-0.3-0.6-0.6-0.5l-21.6,2.2
			c-0.3,0-0.5,0.3-0.5,0.6C372.1,490,372.4,490.2,372.7,490.2z"/>
		<path fill="#040312" d="M341.5,492.8c3.5-0.1,7-0.5,10.5-1.2c0.3-0.1,0.5-0.4,0.5-0.7c-0.1-0.3-0.4-0.5-0.7-0.5
			c-4.6,0.9-9.4,1.3-14.1,1.2c-0.3,0-0.6,0.3-0.6,0.6s0.2,0.6,0.6,0.6C338.9,492.8,340.2,492.8,341.5,492.8z"/>
		<path fill="#FFE5DB" d="M368.8,480.2c0.1,0,0.2,0,0.3-0.1c0.2-0.2,0.3-0.6,0.1-0.8c-1.6-1.9-3.4-3.6-5.3-5.1
			c-0.3-0.2-0.6-0.1-0.8,0.1c-0.2,0.3-0.1,0.6,0.1,0.8c1.9,1.5,3.6,3.1,5.1,4.9C368.5,480.1,368.6,480.2,368.8,480.2z"/>
		<path fill="#FFE5DB" d="M366.3,482.4c0.1,0,0.3-0.1,0.4-0.2c0.2-0.2,0.2-0.6,0-0.8c-1.5-1.4-2.9-2.9-4.3-4.5
			c-0.2-0.2-0.6-0.3-0.8-0.1c-0.2,0.2-0.3,0.6,0,0.8c1.4,1.6,2.8,3.1,4.4,4.5C366,482.4,366.2,482.4,366.3,482.4z"/>
		<path fill="#FBDDC5" d="M403.7,491.5c-0.9,0.5-1.9,1-2.8,0.4c-1.3-1-2.1-2.8-2.6-4.3c2.7-2,5.6-3.6,8.2-5.9c1.7-1.6,3.4-3.2,5-4.8
			c6.6-6.5,12.7-13.5,18.2-21c1-1.3,11.2-16,10.8-16.3c2.2,1.5,3.8,3.8,5.3,6.1c0.1,0.2,0.3,0.4,0.2,0.7c0,0.1-0.1,0.2-0.1,0.3
			c-1.2,2.4-2.8,4.5-4.6,6.5c-1.9,2.1-3.4,4.3-5.1,6.6c-2.1,2.9-4.6,5.5-6.8,8.3c-2.5,3.1-5.1,6-7.9,8.8c-3,3-6.2,5.9-9.5,8.5
			c-2.5,2-4.9,4.2-7.7,5.8C404,491.3,403.9,491.4,403.7,491.5z"/>
		<path fill="#040312" d="M433.4,458.9c0.2,0,0.3-0.1,0.4-0.2c3.7-5,7.1-10.3,10.4-15.4c0.2-0.3,0.1-0.6-0.2-0.8
			c-0.3-0.2-0.6-0.1-0.8,0.2c-3.3,5.1-6.7,10.4-10.3,15.3c-0.2,0.3-0.1,0.6,0.1,0.8C433.2,458.9,433.3,458.9,433.4,458.9z"/>
		<path fill="#040312" d="M401.9,490.3c0.1,0,0.2,0,0.3-0.1c4.5-3.4,8.8-7.1,12.9-11c0.2-0.2,0.2-0.6,0-0.8c-0.2-0.2-0.6-0.2-0.8,0
			c-4,3.9-8.3,7.6-12.7,10.9c-0.3,0.2-0.3,0.6-0.1,0.8C401.5,490.2,401.7,490.3,401.9,490.3z"/>
		<path fill="#FFE5DB" d="M406.8,468.7L406.8,468.7c2.2-0.3,4.3-0.4,6.4-0.3c0.3,0,0.6-0.2,0.6-0.5s-0.2-0.6-0.5-0.6
			c-2.2-0.1-4.4,0-6.6,0.3c-0.3,0-0.5,0.3-0.5,0.7C406.2,468.5,406.5,468.7,406.8,468.7z"/>
		<path fill="#FFE5DB" d="M407.7,463.1L407.7,463.1c2.5-0.3,5.1-0.4,7.6-0.4c0.3,0,0.6-0.3,0.6-0.6c0-0.3-0.3-0.6-0.6-0.6
			c-2.5,0-5.1,0.2-7.6,0.4c-0.3,0-0.5,0.3-0.5,0.6C407.1,462.9,407.4,463.2,407.7,463.1z"/>
		<path fill="#040312" d="M374.3,356.8c0.2,0,0.3-0.1,0.4-0.2c1.5-2,3-4,4.4-6.1c0.2-0.3,0.1-0.6-0.2-0.8c-0.3-0.2-0.6-0.1-0.8,0.2
			c-1.4,2.1-2.8,4.1-4.3,6.1c-0.2,0.3-0.1,0.6,0.1,0.8C374,356.7,374.1,356.8,374.3,356.8z"/>
		<path fill="#040312" d="M370.5,354.3c0.1,0,0.2,0,0.2-0.1l6.7-3.7c0.3-0.2,0.4-0.5,0.2-0.8c-0.2-0.3-0.5-0.4-0.8-0.2l-6.7,3.7
			c-0.3,0.2-0.4,0.5-0.2,0.8C370.1,354.2,370.3,354.3,370.5,354.3z"/>
		<path fill="#040312" d="M403.2,448.1c0.1,0,0.2,0,0.3-0.1l7.7-5.2c1.5-1,3-2,4.3-3.4c1.1-1.2,2-2.6,2.8-4.1
			c2.3-3.9,4.4-8.1,6.3-12.2c0.1-0.3,0-0.6-0.3-0.8c-0.3-0.1-0.6,0-0.8,0.3c-1.9,4.1-4,8.2-6.3,12.1c-0.8,1.4-1.6,2.7-2.7,3.9
			c-1.2,1.3-2.7,2.3-4.1,3.2l-7.7,5.2c-0.3,0.2-0.3,0.5-0.2,0.8C402.8,448,403,448.1,403.2,448.1z"/>
		<path fill="#040312" d="M388.7,466.1c0.5,0,0.9-0.1,1.4-0.1l8.5-1.2c0.3,0,0.5-0.3,0.5-0.7c0-0.3-0.3-0.5-0.6-0.5l-8.5,1.2
			c-3.4,0.5-7-0.4-10.5-1.3c-1.1-0.3-2.2-0.5-3.2-0.7c-2-0.4-4-1.1-6-1.8c-1.3-0.5-2.6-0.9-4-1.3c-0.3-0.1-0.6,0.1-0.7,0.4
			s0.1,0.6,0.4,0.7c1.3,0.4,2.6,0.9,3.9,1.3c2,0.7,4.1,1.5,6.2,1.9c1,0.2,2.1,0.5,3.2,0.7C382.3,465.4,385.6,466.2,388.7,466.1z"/>
		<path fill="#040312" d="M414.3,405.4c0.1,0,0.2,0,0.3-0.1c0.3-0.2,0.3-0.5,0.1-0.8L379.5,353c-0.2-0.3-0.5-0.3-0.8-0.1
			c-0.3,0.2-0.3,0.5-0.1,0.8l35.3,51.5C413.9,405.3,414.1,405.4,414.3,405.4z"/>
		<path fill="#040312" d="M404.3,452.8c0.1,0,0.2,0,0.3-0.1c0.3-0.2,0.3-0.5,0.1-0.8c-7.4-10.9-15.7-21.4-23.7-31.5
			c-4.9-6.2-10-12.7-14.9-19.1c-6.3-8.5-11.6-17.3-15.9-24.8c-3-5.3-7.3-10-11.5-14.6c-2.7-3-5.5-6.1-7.8-9.3
			c-0.2-0.3-0.5-0.3-0.8-0.1c-0.3,0.2-0.3,0.6-0.1,0.8c2.4,3.2,5.2,6.3,7.9,9.3c4.1,4.6,8.3,9.3,11.3,14.4c4.4,7.5,9.7,16.4,16,24.9
			c4.8,6.5,10,12.9,14.9,19.2c8,10.1,16.3,20.6,23.7,31.4C403.9,452.7,404.1,452.8,404.3,452.8z"/>
		<path fill="#FF8963" d="M406.6,215.6c2.2-1.1,4.7,0.6,6.6,2.2c7.8,6.8,15.6,13.7,21.5,22.2c2.5,3.6,4.8,7.9,4.1,12.3
			c-0.5,3.3-2.5,6.1-4.4,8.7c-1.5,2-3,4.1-4.5,6.1c-5.5-14.1-11-28.2-18.7-41.1C409.2,222.8,407,219.5,406.6,215.6z"/>
		<path fill="#040312" d="M423.9,260.3c0.1,0,0.3-0.1,0.4-0.2c3.9-4.3,7.4-9.1,6.5-14.2c-0.3-1.5-0.9-2.8-1.4-3.9
			c-3.4-6.9-8.5-12.6-14.9-16.7c-0.3-0.2-0.6-0.1-0.8,0.2c-0.2,0.3-0.1,0.6,0.2,0.8c6.2,3.9,11.2,9.6,14.5,16.2
			c0.5,1.1,1.1,2.3,1.3,3.6c0.9,4.9-2.7,9.4-6.2,13.3c-0.2,0.2-0.2,0.6,0,0.8C423.6,260.3,423.8,260.3,423.9,260.3z"/>
		<path fill="#040312" d="M333.8,293.5c0.4,0,0.8-0.1,1.1-0.2c1.4-0.6,1.9-2.1,2.2-3.7l8.1-35.4c0.1-0.3-0.1-0.6-0.4-0.7
			c-0.3-0.1-0.6,0.1-0.7,0.4l-8.1,35.4c-0.3,1.2-0.7,2.5-1.6,2.9c-0.5,0.2-1.2,0.2-1.9,0.1l-14.1-2c-0.3,0-0.6,0.2-0.6,0.5
			s0.2,0.6,0.5,0.7l14.1,2C332.8,293.5,333.3,293.5,333.8,293.5z"/>
		<path fill="#040312" d="M389.6,301.9c0.3,0,0.5-0.2,0.5-0.5s-0.2-0.6-0.5-0.7l-13.6-2.2c-1.2-0.2-2.4-0.4-3-1.3
			c-0.4-0.7-0.4-1.6-0.4-2.6l1.4-35.9c0-0.3-0.2-0.6-0.5-0.6s-0.6,0.2-0.6,0.6l-1.4,35.9c0,1-0.1,2.3,0.6,3.3
			c0.8,1.2,2.4,1.6,3.7,1.8l13.6,2.2C389.6,301.9,389.6,301.9,389.6,301.9z"/>
		<path fill="#040312" d="M384,162.6c0.2,0,0.5-0.2,0.5-0.4c0.1-0.3-0.1-0.6-0.4-0.7c-1-0.3-2.1-0.5-3.2-0.8c-3.8-1-7.7-2-11.7-2
			c-1.9,0-3.8,0.2-5.6,0.4c-3.4,0.3-6.6,0.7-9.9-0.2c-0.3-0.1-0.6,0.1-0.7,0.4c-0.1,0.3,0.1,0.6,0.4,0.7c3.6,0.9,7,0.6,10.3,0.2
			c1.8-0.2,3.6-0.4,5.5-0.4c3.8,0,7.7,1,11.4,2c1,0.3,2.1,0.6,3.2,0.8C383.9,162.6,383.9,162.6,384,162.6z"/>
	</g>
</g>
<g>
	<g>
		<path fill="#6C567B" d="M214.6,207c1.4,0,2.5-1.1,2.5-2.5v-6.6c0-1.4-1.1-2.5-2.5-2.5s-2.5,1.1-2.5,2.5v6.6
			C212.1,205.9,213.2,207,214.6,207z"/>
		<path fill="#6C567B" d="M225.7,206.4h-6.6c-1.4,0-2.5,1.1-2.5,2.5s1.1,2.5,2.5,2.5h6.6c1.4,0,2.5-1.1,2.5-2.5
			C228.1,207.5,227,206.4,225.7,206.4z"/>
		<path fill="#6C567B" d="M214.7,210.9c-1.4,0-2.5,1.1-2.5,2.5v6.6c0,1.4,1.1,2.5,2.5,2.5s2.5-1.1,2.5-2.5v-6.6
			C217.2,212,216.1,210.9,214.7,210.9z"/>
		<path fill="#6C567B" d="M210.2,206.5h-6.6c-1.4,0-2.5,1.1-2.5,2.5s1.1,2.5,2.5,2.5h6.6c1.4,0,2.5-1.1,2.5-2.5
			C212.7,207.7,211.6,206.5,210.2,206.5z"/>
	</g>
</g>
<g>
	<g>
		<path fill="#6C567B" d="M464.3,382.4c1.4,0,2.5-1.1,2.5-2.5v-6.6c0-1.4-1.1-2.5-2.5-2.5s-2.5,1.1-2.5,2.5v6.6
			C461.9,381.3,463,382.4,464.3,382.4z"/>
		<path fill="#6C567B" d="M475.4,381.8h-6.6c-1.4,0-2.5,1.1-2.5,2.5s1.1,2.5,2.5,2.5h6.6c1.4,0,2.5-1.1,2.5-2.5
			C477.9,383,476.8,381.8,475.4,381.8z"/>
		<path fill="#6C567B" d="M464.5,386.4c-1.4,0-2.5,1.1-2.5,2.5v6.6c0,1.4,1.1,2.5,2.5,2.5s2.5-1.1,2.5-2.5v-6.6
			C467,387.5,465.8,386.4,464.5,386.4z"/>
		<path fill="#6C567B" d="M460,382h-6.6c-1.4,0-2.5,1.1-2.5,2.5s1.1,2.5,2.5,2.5h6.6c1.4,0,2.5-1.1,2.5-2.5
			C462.4,383.1,461.3,382,460,382z"/>
	</g>
</g>
<g>
	<g>
		<path fill="#6C567B" d="M44.8,354.2c1,1,2.5,1,3.5,0l4.6-4.6c1-1,1-2.5,0-3.5s-2.5-1-3.5,0l-4.6,4.6
			C43.8,351.7,43.8,353.2,44.8,354.2z"/>
		<path fill="#6C567B" d="M53,361.6l-4.6-4.6c-1-1-2.5-1-3.5,0s-1,2.5,0,3.5l4.6,4.6c1,1,2.5,1,3.5,0C54,364.2,54,362.6,53,361.6z"
			/>
		<path fill="#6C567B" d="M42.1,357.1c-1-1-2.5-1-3.5,0l-4.6,4.6c-1,1-1,2.5,0,3.5s2.5,1,3.5,0l4.6-4.6
			C43.1,359.6,43.1,358,42.1,357.1z"/>
		<path fill="#6C567B" d="M42,350.8l-4.6-4.6c-1-1-2.5-1-3.5,0s-1,2.5,0,3.5l4.6,4.6c1,1,2.5,1,3.5,0S43,351.8,42,350.8z"/>
	</g>
</g>
<g>
	<g>
		<path fill="#6C567B" d="M259.2,159.2c0.9,0,1.7-0.8,1.7-1.7v-4.5c0-0.9-0.8-1.7-1.7-1.7c-0.9,0-1.7,0.8-1.7,1.7v4.5
			C257.5,158.5,258.2,159.2,259.2,159.2z"/>
		<path fill="#6C567B" d="M266.7,158.9h-4.5c-0.9,0-1.7,0.8-1.7,1.7s0.8,1.7,1.7,1.7h4.5c0.9,0,1.7-0.8,1.7-1.7
			C268.4,159.6,267.6,158.9,266.7,158.9z"/>
		<path fill="#6C567B" d="M259.3,161.9c-0.9,0-1.7,0.8-1.7,1.7v4.5c0,0.9,0.8,1.7,1.7,1.7c0.9,0,1.7-0.8,1.7-1.7v-4.5
			C260.9,162.8,260.2,161.9,259.3,161.9z"/>
		<path fill="#6C567B" d="M256.2,159h-4.5c-0.9,0-1.7,0.8-1.7,1.7s0.8,1.7,1.7,1.7h4.5c0.9,0,1.7-0.8,1.7-1.7
			C257.9,159.8,257.1,159,256.2,159z"/>
	</g>
</g>
<g>
	<g>
		<path fill="#6C567B" d="M28.7,439.8c0.9,0,1.7-0.8,1.7-1.7v-4.5c0-0.9-0.8-1.7-1.7-1.7s-1.7,0.8-1.7,1.7v4.5
			C27,439,27.8,439.8,28.7,439.8z"/>
		<path fill="#6C567B" d="M36.2,439.4h-4.5c-0.9,0-1.7,0.8-1.7,1.7c0,0.9,0.8,1.7,1.7,1.7h4.5c0.9,0,1.7-0.8,1.7-1.7
			C37.9,440.1,37.2,439.4,36.2,439.4z"/>
		<path fill="#6C567B" d="M28.8,442.4c-0.9,0-1.7,0.8-1.7,1.7v4.5c0,0.9,0.8,1.7,1.7,1.7s1.7-0.8,1.7-1.7v-4.5
			C30.5,443.2,29.7,442.4,28.8,442.4z"/>
		<path fill="#6C567B" d="M25.7,439.5h-4.5c-0.9,0-1.7,0.8-1.7,1.7c0,0.9,0.8,1.7,1.7,1.7h4.5c0.9,0,1.7-0.8,1.7-1.7
			C27.4,440.2,26.6,439.5,25.7,439.5z"/>
	</g>
</g>
<g>
	<g>
		<path fill="#6C567B" d="M280.8,316c0.7-0.7,0.7-1.7,0-2.4l-3.2-3.2c-0.7-0.7-1.7-0.7-2.4,0c-0.7,0.7-0.7,1.7,0,2.4l3.2,3.2
			C279.1,316.6,280.1,316.6,280.8,316z"/>
		<path fill="#6C567B" d="M285.8,310.4l-3.2,3.2c-0.7,0.7-0.7,1.7,0,2.4c0.7,0.7,1.7,0.7,2.4,0l3.2-3.2c0.7-0.7,0.7-1.7,0-2.4
			C287.6,309.7,286.5,309.7,285.8,310.4z"/>
		<path fill="#6C567B" d="M282.8,317.8c-0.7,0.7-0.7,1.7,0,2.4l3.2,3.2c0.7,0.7,1.7,0.7,2.4,0c0.7-0.7,0.7-1.7,0-2.4l-3.2-3.2
			C284.5,317.1,283.4,317.1,282.8,317.8z"/>
		<path fill="#6C567B" d="M278.5,317.9l-3.2,3.2c-0.7,0.7-0.7,1.7,0,2.4c0.7,0.7,1.7,0.7,2.4,0l3.2-3.2c0.7-0.7,0.7-1.7,0-2.4
			C280.2,317.2,279.1,317.2,278.5,317.9z"/>
	</g>
</g>
</svg>
