<?xml version="1.0" encoding="utf-8"?>
<!-- Generator: Adobe Illustrator 26.0.1, SVG Export Plug-In . SVG Version: 6.00 Build 0)  -->
<svg version="1.1" id="Character" xmlns="http://www.w3.org/2000/svg" xmlns:xlink="http://www.w3.org/1999/xlink" x="0px" y="0px"
	 viewBox="0 0 504 576" enable-background="new 0 0 504 576" xml:space="preserve">
<path opacity="0.25" fill-rule="evenodd" clip-rule="evenodd" fill="#D1D3D4" d="M441.3,536.5c6.9-1.9,10.7-3.9,10.7-6
	c0-10.8-100.3-19.6-224-19.6c-123.7,0-224,8.8-224,19.6c0,5.3,23.9,10.1,62.7,13.6c-6.9,1.9-10.7,3.9-10.7,6
	c0,10.8,100.3,19.6,224,19.6c123.7,0,224-8.8,224-19.6C504,544.8,480.1,540,441.3,536.5z"/>
<g>
	<g>
		<path fill-rule="evenodd" clip-rule="evenodd" fill="#F4B593" d="M193.4,265.2c4.6-20.1-7.9-40.1-28-44.8
			c-20.1-4.6-40.2,7.9-44.8,28c-0.4,1.9-0.7,3.9-0.9,5.8l0,0l-9.3,117.2c-2.4,10.5,4.1,21.1,14.7,23.5c10.6,2.4,21.1-4.1,23.5-14.7
			l43.1-109.5l0,0C192.4,269,193,267.1,193.4,265.2z"/>
		<path fill-rule="evenodd" clip-rule="evenodd" fill="#F4B593" d="M148.6,380.3c2.4-10.5-4.1-21.1-14.7-23.5
			c-10.6-2.4-21.1,4.1-23.5,14.7c-0.3,1.3-0.5,2.6-0.5,3.9L91.5,515.4l18.2,3.2l8.6-10c0,0,10.8-29.3,23.8-68.9
			C152,410,151.6,397.7,148.6,380.3z"/>
		<path fill-rule="evenodd" clip-rule="evenodd" fill="#090914" d="M59.2,525.4v5.2c0,0.6,0.5,1,1,1h59.6c0.6,0,1.1-0.5,1-1.1
			l-2.5-21.9h-3.6c-3.2,0-7.1,0.1-8.7,2.9c-1.6,2.8-4.7,5-6.8,1.4c-1.3-2.2-2.4-5.9-6.6-7.2c-5.1,5.6-11.8,7.4-15.7,9
			C71,517.2,58.5,519.9,59.2,525.4z"/>
		<path fill-rule="evenodd" clip-rule="evenodd" fill="#F4B593" d="M208.3,252.9c-2.2-20.5-20.6-35.4-41.1-33.2
			c-20.5,2.2-35.4,20.5-33.3,41c0.2,2,0.6,3.9,1.1,5.8l0,0l29.4,113.9c1.1,10.8,10.8,18.6,21.6,17.4c10.8-1.1,18.6-10.8,17.5-21.5
			l5-117.5l0,0C208.6,256.8,208.5,254.9,208.3,252.9z"/>
		<path fill-rule="evenodd" clip-rule="evenodd" fill="#F4B593" d="M203.2,373.7c-2.6-10.5-13.3-16.9-23.8-14.3
			c-10.5,2.6-16.9,13.2-14.3,23.7c0.3,1.3,0.8,2.5,1.3,3.7l41.7,116.3l5.6,16.8l17.7-5.4l2.4-14.8c0,0-3-29-9.3-70.2
			C219.8,398.6,213.8,387.9,203.2,373.7z"/>
		<path fill-rule="evenodd" clip-rule="evenodd" fill="#090914" d="M183.3,525.4v5.2c0,0.6,0.5,1,1,1h32c0.1,0,0.3,0,0.4-0.1
			l25.4-10.4c0.5-0.2,0.8-0.8,0.5-1.3l-8.8-20.9l-3.5,0.9c-3.9,1-5.5,3-6.8,5.9c-2.4,5.4-7.5-1.1-14.7,0
			c-4.1,8.9-9.7,10.8-14.4,11.4C188,517.9,182.6,519.9,183.3,525.4z"/>
		
			<line fill-rule="evenodd" clip-rule="evenodd" fill="none" stroke="#FDDDCD" stroke-width="1.8876" stroke-miterlimit="10" x1="183.3" y1="525.4" x2="215.1" y2="525.4"/>
		<path fill-rule="evenodd" clip-rule="evenodd" fill="#703541" d="M191.1,213.9c0,0-23.5,120-32.8,150.5c-0.8,2.7-1.5,4.6-2.1,5.8
			c-1.6,3.2-2.5,6-3.1,8.6c-2,9.2,0.7,16.4-1.1,33.4c-2.2,21.8-25.3,81.8-25.3,81.8c-14.1,4.8-33.9-2.3-33.9-2.3
			s22-225.1,26.4-243.6c4.4-18.5,13.7-34.3,13.7-34.3H191.1z"/>
		<path fill-rule="evenodd" clip-rule="evenodd" fill="#703541" d="M191.1,213.9c0,0,12.6,12.6,18.3,33.9
			c5.8,21.3-5.1,113.3-2.5,123c2.6,9.7,15,26.1,18.8,52.1c3.8,26.1,8.1,59.2,8.1,59.2s-11.2,9.6-32.7,9.6c0,0-35.7-94.7-40.3-114.5
			c-4.6-19.8-27.9-163.3-27.9-163.3H191.1z"/>
		<path fill-rule="evenodd" clip-rule="evenodd" fill="none" stroke="#FFFFFF" stroke-width="0.8362" stroke-miterlimit="10" d="
			M183.4,224c0,0,12.9,16.5,12.9,42.2c0,25.7-3.7,91.9-3.7,100.2s7.3,3.9,7.9,8.5c0.7,4.6-2.6,4-2.6,7.9c0,4,4.6-1.5,8.2,1.8
			c3.5,3.3,10.4,21.4,13.2,42.5c2.9,21.1,5.9,51.5,5.9,51.5"/>
	</g>
	<g>
		<path fill-rule="evenodd" clip-rule="evenodd" fill="#F4B593" d="M312,527.1c-1.6,5.5-3.6,9.8-3.6,15c0,7.4,0,14.2,0,14.2h68.6
			c0,0,2.3-7.4-2.7-10.5c-3-1.9-9.9-2.9-15.8-5.8c-0.7-0.4-1.4-0.7-2.1-1.1c-0.9-0.6-1.8-1.2-2.7-1.9c-0.7-0.5-1.3-1.1-1.8-1.8
			c-0.9-1.1-1.7-2.3-2.3-3.7c-0.2-0.6-0.4-1.6-0.6-2.9c-2-19.3,7.9-111.6,9.5-131.3c0.2-1.2,0.3-2.5,0.3-3.7
			c0-13.5-11-24.5-24.6-24.5c-13.6,0-23.1,11.2-27.2,24.1C297.3,425.5,320.7,496.8,312,527.1z"/>
		<path fill-rule="evenodd" clip-rule="evenodd" fill="#090914" d="M308.4,542.1c0,7.4,0,14.2,0,14.2h68.6c0,0,2.3-7.4-2.7-10.5
			c-3-1.9-9.9-2.9-15.8-5.8c-0.7-0.4-1.4-0.7-2.1-1.1c-0.9-0.6-1.8-1.2-2.7-1.9c-0.7-0.5-1.3-1.1-1.8-1.8c-0.9-1.1-1.7-2.3-2.3-3.7
			c-0.2-0.6-0.4-1.6-0.6-2.9c-3.3,0.1-10,0.8-11,4.5c-1.4,5-11.1,6-14.8,2.9c-3.1-2.7-5.2-8.8-11.4-9
			C310.7,532.7,308.4,537,308.4,542.1z"/>
		<path fill-rule="evenodd" clip-rule="evenodd" fill="#B0E1EE" d="M353.7,544.2l2.5,1c0.4-2.3,1.5-4,2.3-5.1
			c-0.7-0.4-1.4-0.7-2.1-1.1C354.4,541.1,353.7,544.2,353.7,544.2z"/>
		<path fill-rule="evenodd" clip-rule="evenodd" fill="#B0E1EE" d="M347.3,542.2l2.5,1c0.4-2.5,2.5-4.8,3.9-6.2
			c-0.7-0.5-1.3-1.1-1.8-1.8C349.4,537.8,347.3,542.2,347.3,542.2z"/>
		
			<line fill-rule="evenodd" clip-rule="evenodd" fill="none" stroke="#B0E1EE" stroke-width="1.3538" stroke-miterlimit="10" x1="372.5" y1="550.7" x2="308.4" y2="550.7"/>
		
			<ellipse fill-rule="evenodd" clip-rule="evenodd" fill="none" stroke="#F4B593" stroke-width="1.1186" stroke-miterlimit="10" cx="331.9" cy="399.3" rx="26" ry="25.9"/>
		
			<ellipse fill-rule="evenodd" clip-rule="evenodd" fill="none" stroke="#F4B593" stroke-width="1.1188" stroke-miterlimit="10" cx="332.5" cy="399.3" rx="26.6" ry="25.4"/>
		<path fill-rule="evenodd" clip-rule="evenodd" fill="#090914" d="M331.9,256.2c-16.5,0-29.9,13.4-29.9,29.9l1.2,113.3
			c0,15.9,12.9,28.7,28.8,28.7s28.8-12.9,28.8-28.7l1.2-113.3C361.9,269.6,348.5,256.2,331.9,256.2z"/>
		<path fill-rule="evenodd" clip-rule="evenodd" fill="#090914" d="M360.7,399.3c0-15.9-12.9-28.7-28.8-28.7s-28.8,12.9-28.8,28.7
			c0,0.6,0,1.3,0.1,1.9l3.9,104.5h49.7l3.9-104.5C360.7,400.6,360.7,400,360.7,399.3z"/>
		<path fill-rule="evenodd" clip-rule="evenodd" fill="#2A2558" d="M358.1,515.8h-51.2c-2.1,0-3.8-1.7-3.8-3.7v-12.6
			c0-2.1,1.7-3.7,3.8-3.7h51.2c2.1,0,3.8,1.7,3.8,3.7v12.6C361.9,514.1,360.2,515.8,358.1,515.8z"/>
		<path fill-rule="evenodd" clip-rule="evenodd" fill="#F4B593" d="M245,527.1c-0.2,5.7,3.6,9.8,3.6,15c0,7.4,0,14.2,0,14.2H180
			c0,0-2.3-7.4,2.7-10.5c3-1.9,9.9-2.9,15.8-5.8c0.7-0.4,1.4-0.7,2.1-1.1c0.9-0.6,1.8-1.2,2.7-1.9c0.7-0.5,1.3-1.1,1.8-1.8
			c0.9-1.1,1.7-2.3,2.3-3.7c0.2-0.6,0.4-1.6,0.6-2.9c2-19.3,24-133.8,24-135c0-13.5,11-24.5,24.6-24.5c13.6,0,18.3,10.1,22.4,23.1
			C288.9,424.4,246,498.7,245,527.1z"/>
		<path fill-rule="evenodd" clip-rule="evenodd" fill="#090914" d="M248.7,542.1c0,7.4,0,14.2,0,14.2H180c0,0-2.3-7.4,2.7-10.5
			c3-1.9,9.9-2.9,15.8-5.8c0.7-0.4,1.4-0.7,2.1-1.1c0.9-0.6,1.8-1.2,2.7-1.9c0.7-0.5,1.3-1.1,1.8-1.8c0.9-1.1,1.7-2.3,2.3-3.7
			c0.2-0.6,0.4-1.6,0.6-2.9c3.3,0.1,10,0.8,11,4.5c1.4,5,11.1,6,14.8,2.9c3.1-2.7,5.2-8.8,11.4-9C246.3,532.7,248.7,537,248.7,542.1
			z"/>
		<path fill-rule="evenodd" clip-rule="evenodd" fill="#B0E1EE" d="M203.3,544.2l-2.5,1c-0.4-2.3-1.5-4-2.3-5.1
			c0.7-0.4,1.4-0.7,2.1-1.1C202.7,541.1,203.3,544.2,203.3,544.2z"/>
		<path fill-rule="evenodd" clip-rule="evenodd" fill="#B0E1EE" d="M209.8,542.2l-2.5,1c-0.4-2.5-2.5-4.8-3.9-6.2
			c0.7-0.5,1.3-1.1,1.8-1.8C207.7,537.8,209.8,542.2,209.8,542.2z"/>
		
			<line fill-rule="evenodd" clip-rule="evenodd" fill="none" stroke="#B0E1EE" stroke-width="1.3538" stroke-miterlimit="10" x1="184.6" y1="550.7" x2="248.7" y2="550.7"/>
		
			<ellipse fill-rule="evenodd" clip-rule="evenodd" fill="none" stroke="#F4B593" stroke-width="1.1186" stroke-miterlimit="10" cx="258.3" cy="395.9" rx="26" ry="25.9"/>
		<path fill-rule="evenodd" clip-rule="evenodd" fill="none" stroke="#F4B593" stroke-width="1.1188" stroke-miterlimit="10" d="
			M231.9,389.3c-3.4,13.6,5.4,27.5,19.6,31c14.2,3.5,28.5-4.6,31.9-18.2c3.4-13.6-5.4-27.5-19.6-31
			C249.6,367.6,235.3,375.7,231.9,389.3z"/>
		<path fill-rule="evenodd" clip-rule="evenodd" fill="#090914" d="M293,257c16,4,25.8,20.2,21.8,36.2l-28.6,109.6
			c-3.8,15.4-19.5,24.8-34.9,20.9c-15.4-3.8-24.8-19.4-21-34.8l26.3-110.2C260.7,262.7,276.9,253,293,257z"/>
		<path fill-rule="evenodd" clip-rule="evenodd" fill="#090914" d="M230.3,388.9c3.8-15.4,19.5-24.8,34.9-20.9
			c15.4,3.8,24.8,19.4,21,34.8c-0.2,0.6-0.3,1.2-0.5,1.8l-29.1,100.4l-48.2-12l21.6-102.3C230.1,390.2,230.2,389.6,230.3,388.9z"/>
		<path fill-rule="evenodd" clip-rule="evenodd" fill="#2A2558" d="M203.4,507.6l49.7,12.4c2,0.5,4-0.7,4.5-2.7l3.1-12.2
			c0.5-2-0.7-4-2.7-4.5l-49.7-12.4c-2-0.5-4,0.7-4.5,2.7l-3.1,12.2C200.1,505.1,201.4,507.1,203.4,507.6z"/>
		<polygon fill-rule="evenodd" clip-rule="evenodd" fill="#090914" points="361.9,286.1 363.1,249.6 262.4,250.4 255.6,283.4 		"/>
	</g>
	<path fill-rule="evenodd" clip-rule="evenodd" fill="#F6E0D3" d="M89.4,205.9L89.4,205.9c9.5,6.2,22.7,3.6,29.2-5.9L164,135
		c6.6-9.4,4.2-22.2-5.4-28.4l0,0c-9.5-6.2-22.7-3.6-29.2,5.9l-45.3,65.1C77.5,186.9,79.9,199.7,89.4,205.9z"/>
	<path fill-rule="evenodd" clip-rule="evenodd" fill="#F6E0D3" d="M184.4,98.4l23.9,4.1l1.3,49.6c0,0-11.8,35.5-10.5,49.1h-67.4
		c0,0,2.9-12.8-1.1-24.7c-3.9-11.9-4.4-22.2-4.3-32.8c0.1-10.9,10-18.5,17.9-40.2l14.6-5.1H184.4z"/>
	<path fill-rule="evenodd" clip-rule="evenodd" fill="#F6E0D3" d="M251.2,211.8L251.2,211.8c10.4-4.8,14.8-17,9.7-27.2l-35-70.3
		c-5.1-10.2-17.7-14.6-28.2-9.8c-10.4,4.8-14.8,17-9.7,27.2l35,70.3C228.1,212.2,240.8,216.6,251.2,211.8z"/>
	<path fill-rule="evenodd" clip-rule="evenodd" fill="#F4B593" d="M184.4,98.4l-0.2-25l-22.4,3.2l-3.1,21.8
		C158.7,98.4,169.4,107.6,184.4,98.4z"/>
	<path fill-rule="evenodd" clip-rule="evenodd" fill="#DE8450" d="M159.9,89.6c0,0,12.9-0.1,18.3-6.5L161,81.8L159.9,89.6z"/>
	<path fill-rule="evenodd" clip-rule="evenodd" fill="#090914" d="M155.4,99.5c0,0-20.9,48,1.9,48c22.5,0,32.9-48.2,32.9-48.2l8.7,1
		c0,0-16.9,60,5.4,68.9c0,0-3,18.9-5.4,26.6h-66.7c0,0-6.4-36.7-7.7-48.2c-1.3-11.3,19.2-30.3,19.4-44.1L155.4,99.5z"/>
	<path fill-rule="evenodd" clip-rule="evenodd" fill="#F4B593" d="M152.3,70.5c0.2,8.8,7.7,15.8,16.8,15.6
		c9.1-0.2,16.3-7.5,16.1-16.2l-0.4-18.2c-0.2-7.5-6.5-13.4-14.2-13.2c-7.7,0.2-13.8,6.3-13.6,13.8c-0.1,4.6-2.3,9.6-3,11
		c-0.1,0.2-0.2,0.3-0.2,0.4c0,0,0,0,0,0C152.8,65.7,152.2,68,152.3,70.5z"/>
	<path fill-rule="evenodd" clip-rule="evenodd" fill="#DE8450" d="M166.8,59.4c0-0.2,0.2-0.4,0.5-0.4c0.2,0,0.4,0.2,0.4,0.5
		c0,0-0.5,6.3-3.4,8.3c0.4,0.4,1.1,0.9,2.5,0.9c0.2,0,0.4,0.2,0.4,0.4c0,0.2-0.2,0.4-0.4,0.4c-2.4,0-3.4-1.5-3.5-1.7c0,0,0,0,0-0.1
		c-0.1-0.2,0-0.5,0.2-0.6C166.2,65.9,166.8,59.4,166.8,59.4z"/>
	<path fill-rule="evenodd" clip-rule="evenodd" fill="#5E212E" d="M208.1,61.6c-4,12.7-6.4,29.3-0.1,35.2
		c-0.6-0.4-10.5-6.6-10.5-20.4c0,0-1.9,8.5,2.9,15.9c0,0-10.2-4.8-9.5-14.3c0.7-9.5,2.8-19.6,0.3-25.7c-2.5-6.1-5.8-6.4-5.8-6.4
		l-2.2-2.1c0,0,3-3.8,8.2-4.6c1.6-0.3,3.5-0.3,5.6,0.3C205.8,41.7,212.1,48.8,208.1,61.6z"/>
	<path fill-rule="evenodd" clip-rule="evenodd" fill="#2C2933" d="M172.5,60.3c0,1,0.5,1.8,1.1,1.8s1.1-0.8,1-1.8
		c0-1-0.5-1.8-1.1-1.8C172.9,58.5,172.4,59.3,172.5,60.3z"/>
	<path fill-rule="evenodd" clip-rule="evenodd" fill="#703541" d="M156.9,52.4c0,0,2.3-5.3,6-5.4c3.7-0.1,6.4-1.2,7-3.6
		c0,0,0.3,4.7,5,5.6c4.7,0.9,8.2,7.3,8.6,11c0.3,3.7-0.9,9.9-0.9,9.9l6.8,0.4c0,0,10.7-13.7,5.5-24.7c-7.7-16.1-19.2-12.5-24.3-11.3
		c0,0-5.5,0.5-7.6,3.4c-3.3,4.8-6.2,3-8.5,6.4C151.8,48.1,156.9,52.4,156.9,52.4z"/>
	<path fill-rule="evenodd" clip-rule="evenodd" fill="#2C2933" d="M160.7,60.1c0,1,0.5,1.8,1.1,1.8s1.1-0.8,1-1.8
		c0-1-0.5-1.8-1.1-1.8C161.1,58.3,160.6,59.1,160.7,60.1z"/>
	<path fill-rule="evenodd" clip-rule="evenodd" fill="#090914" d="M176.3,57.9c0,0-1.1-1.9-4.6-1.3l-0.1-0.9c4-0.7,5.5,1.7,5.5,1.7
		L176.3,57.9z"/>
	<path fill-rule="evenodd" clip-rule="evenodd" fill="#090914" d="M163.2,55.8c0,0-2.5-0.8-4.2,1.1l-0.6-0.6c2-2.3,5.1-1.3,5.1-1.3
		L163.2,55.8z"/>
	<path fill-rule="evenodd" clip-rule="evenodd" fill="#F4B593" d="M181.8,75.6c1.8,1.8,5.2,1.5,7.5-0.7c2.4-2.2,2.8-5.5,1-7.3
		c-1.8-1.8-5.2-1.5-7.5,0.7C180.5,70.6,180,73.8,181.8,75.6z"/>
	<polygon fill-rule="evenodd" clip-rule="evenodd" fill="#DE8450" points="182.8,72.8 187.9,69.3 188.4,70 183.3,73.5 	"/>
	<path fill-rule="evenodd" clip-rule="evenodd" fill="#E07355" d="M161.3,72.6c0,0,2.2-0.3,3.2-0.3c0.9,0,1.6,0.3,1.9,0.3
		c0.3,0,0.7-0.3,1.5-0.3c0.8,0,3.6,0.3,3.6,0.3s-1,5.2-5.1,5.2C162.3,77.8,161.3,72.6,161.3,72.6z"/>
	<path fill-rule="evenodd" clip-rule="evenodd" fill="#FFFFFF" d="M166.4,73.6c2.4,0,5-0.9,5-0.9c-1.7,2.3-3.5,3.1-5,3.1
		c-1.5,0-3.5-0.8-5-3.1C161.4,72.7,164.1,73.5,166.4,73.6z"/>
	<path fill-rule="evenodd" clip-rule="evenodd" fill="#FFFFFF" d="M186.5,75.3c0,0.6-0.5,1.1-1.1,1.1c-0.6,0-1.1-0.5-1.1-1.1
		c0-0.6,0.5-1.1,1.1-1.1C186,74.2,186.5,74.7,186.5,75.3z"/>
	<path fill-rule="evenodd" clip-rule="evenodd" fill="#703541" d="M208.1,61.6c-4,12.7-6.4,29.3-0.1,35.2
		c-12.5-10.7-1.7-37.5-3.2-46.6c-1.5-9.1-13.3-10.9-13.3-10.9c1.6-0.3,3.5-0.3,5.6,0.3C205.8,41.7,212.1,48.8,208.1,61.6z"/>
	<path fill-rule="evenodd" clip-rule="evenodd" fill="#F4B593" d="M59.8,142.6c-1.3-4.4-6.6-10.1-9.7-9.7c-3.1,0.5-8.8,1.4-12.8,0.9
		c-4-0.6-12.9-7.6-12.8-8.7c0.1-1.1,34.9-1.1,41,0c6,1.1,10.1,7.1,10.1,7.1L59.8,142.6z"/>
	<path fill-rule="evenodd" clip-rule="evenodd" fill="#F6E0D3" d="M55.6,135.9c0,0,3,5.4,3.6,7.5c1.9,6.7,6.3,21.1,13.2,35.6
		c2.3,4.8,4.3,8.7,6,11.9c2,3.8,3.6,6.5,4.7,8.3c2.6,5.4,7.9,9.5,14.5,10.1c9.7,0.8,18-6.4,19.4-16c0.7-4.6,0.4-9.4-2.1-12.9
		c-0.6-1.2-3.4-4.9-7.3-9.7c-10.5-13.1-29.9-37.8-34.5-41.3C67.4,130.7,55.6,135.9,55.6,135.9z"/>
	<path fill-rule="evenodd" clip-rule="evenodd" fill="#697188" d="M1.7,125.9h94.3c0.9,0,1.7-0.8,1.7-1.7c0-0.9-0.8-1.7-1.7-1.7H1.7
		c-0.9,0-1.7,0.8-1.7,1.7C0,125.2,0.8,125.9,1.7,125.9z"/>
	<path fill-rule="evenodd" clip-rule="evenodd" fill="#BFCBDE" d="M92.7,120.3v2.2H4.9v-2.2c0-23.6,18.7-42.8,42.1-43.8
		c0.6,0,1.2,0,1.8,0C73,76.4,92.7,96.1,92.7,120.3z"/>
	<path fill-rule="evenodd" clip-rule="evenodd" fill="#99A7C1" d="M89,120.3v2.2H4.9v-2.2c0-23.6,18.7-42.8,42.1-43.8
		C70.3,77.4,89,96.7,89,120.3z"/>
	<path fill-rule="evenodd" clip-rule="evenodd" fill="#99A7C1" d="M48.9,82.5c-1.4,0-2.5-1.1-2.5-2.5v-7.2c0-1.4,1.1-2.5,2.5-2.5
		c1.4,0,2.5,1.1,2.5,2.5V80C51.4,81.4,50.3,82.5,48.9,82.5z"/>
	<path fill-rule="evenodd" clip-rule="evenodd" fill="#7D8AA3" d="M9.2,122.5c0,0,3.4-36.4,37.2-46.1c0,0-19.5,18-19.5,46.1H9.2z"/>
	<path fill-rule="evenodd" clip-rule="evenodd" fill="#090914" d="M97.3,158.3c-0.2-0.2-0.1-0.5,0.1-0.6c0.2-0.2,0.5-0.1,0.6,0.1
		l8.9,11.2c0.2,0.2,0.1,0.5-0.1,0.6c-0.2,0.2-0.5,0.1-0.6-0.1L97.3,158.3z"/>
	<path fill-rule="evenodd" clip-rule="evenodd" fill="#090914" d="M168.9,106.4h-0.3c-1,0-1.8-0.8-1.8-1.8v-2.3c0-1,0.8-1.8,1.8-1.8
		h0.3c1,0,1.8,0.8,1.8,1.8v2.3C170.7,105.5,169.9,106.4,168.9,106.4z"/>
	<path fill-rule="evenodd" clip-rule="evenodd" fill="#090914" d="M175.1,108.2l-5.2-2.9v-3.8l5.2-2.9c1.2-0.7,2.6,0.2,2.6,1.5v6.6
		C177.7,108,176.3,108.8,175.1,108.2z"/>
	<path fill-rule="evenodd" clip-rule="evenodd" fill="#090914" d="M162.3,108.2l5.2-2.9v-3.8l-5.2-2.9c-1.2-0.7-2.6,0.2-2.6,1.5v6.6
		C159.8,108,161.2,108.8,162.3,108.2z"/>
	<path fill-rule="evenodd" clip-rule="evenodd" fill="#090914" d="M166.8,109.1c0.1-0.2,0.3-0.4,0.6-0.3c0.2,0.1,0.4,0.3,0.3,0.6
		c0,0.1-7.8,23.7-9.8,34.2c0,0.2-0.3,0.4-0.5,0.4c-0.2,0-0.4-0.3-0.4-0.5C158.9,132.8,166.8,109.2,166.8,109.1z"/>
	<path fill-rule="evenodd" clip-rule="evenodd" fill="#FFFFFF" d="M155.8,147.6c0-0.2,0.2-0.4,0.4-0.4c0.2,0,0.4,0.2,0.4,0.4
		l1.2,45.4c0,0.2-0.2,0.4-0.4,0.4c-0.2,0-0.4-0.2-0.4-0.4L155.8,147.6z"/>
	<path fill-rule="evenodd" clip-rule="evenodd" fill="#C6725D" d="M199,195.8l6,11.9h-76c0,0,3-9.8,3.4-11.9H199z"/>
	<path fill-rule="evenodd" clip-rule="evenodd" fill="#090914" d="M128.9,207.7c-22.4,37-31.3,71.1-48.6,142.2h128.2
		c0,0-0.6-95.2-6-142.2H128.9z"/>
	<path fill-rule="evenodd" clip-rule="evenodd" fill="#F4B593" d="M262.5,195.9C262.5,195.9,262.5,196,262.5,195.9
		c-0.6,6.9-4.9,13.2-11.7,16.3c-0.2,0.1-0.4,0.2-0.6,0.3l-0.1,0c-2,0.8-4.1,1.3-6.2,1.4c-1.4-0.1-3.6-0.3-6.5-0.6
		c-12.1-1.4-35.3-4.8-49.9-6.5c-4.6-0.5-8.4-0.8-10.6-0.9c-11.3-0.2-4.6-21-0.9-20.9c3.3,0,7.6,0.1,12.8-0.3c1.5-0.1,3-0.3,4.6-0.5
		c4.7-0.6,28.5-5,44.6-7.9c1.5-0.3,2.9-0.5,4.2-0.8c7.9-0.6,15.5,3.6,18.8,11.1C262.3,189.7,262.8,192.9,262.5,195.9z"/>
	<path fill-rule="evenodd" clip-rule="evenodd" fill="#F4B593" d="M177.2,206h-12.3c-1.4,0-2.5-1.1-2.5-2.5v-0.2
		c0-1.4,1.1-2.5,2.5-2.5h12.3c1.4,0,2.5,1.1,2.5,2.5v0.2C179.7,204.9,178.6,206,177.2,206z"/>
	<path fill-rule="evenodd" clip-rule="evenodd" fill="#F4B593" d="M177.2,200.8h-12.3c-1.4,0-2.5-1.1-2.5-2.5v-0.2
		c0-1.4,1.1-2.5,2.5-2.5h12.3c1.4,0,2.5,1.1,2.5,2.5v0.2C179.7,199.7,178.6,200.8,177.2,200.8z"/>
	<path fill-rule="evenodd" clip-rule="evenodd" fill="#F4B593" d="M177.2,195.6h-12.3c-1.4,0-2.5-1.1-2.5-2.5v-0.2
		c0-1.4,1.1-2.5,2.5-2.5h12.3c1.4,0,2.5,1.1,2.5,2.5v0.2C179.7,194.4,178.6,195.6,177.2,195.6z"/>
	<path fill-rule="evenodd" clip-rule="evenodd" fill="#F4B593" d="M177.2,190.3h-12.3c-1.4,0-2.5-1.1-2.5-2.5v-0.2
		c0-1.4,1.1-2.5,2.5-2.5h12.3c1.4,0,2.5,1.1,2.5,2.5v0.2C179.7,189.2,178.6,190.3,177.2,190.3z"/>
	<path fill-rule="evenodd" clip-rule="evenodd" fill="#F4B593" d="M186.2,185c-1.3-0.2-4.2-2.8-5.1-3.6c-0.2-0.2-0.4-0.3-0.6-0.3
		l-7.4-0.3c-0.1,0-0.3,0-0.4,0.1l-5.2,2.2c-0.5,0.2-0.7,0.8-0.4,1.2c0.5,1,1.6,1.5,2.6,1.3l3.6-0.6l4.9,0.6l3,1.2L186.2,185z"/>
	<path fill-rule="evenodd" clip-rule="evenodd" fill="#DE8450" d="M164.5,190.7c-0.2,0-0.4-0.2-0.4-0.4c0-0.2,0.2-0.4,0.4-0.4h9.3
		c0.2,0,0.4,0.2,0.4,0.4c0,0.2-0.2,0.4-0.4,0.4H164.5z"/>
	<path fill-rule="evenodd" clip-rule="evenodd" fill="#DE8450" d="M164.9,196c-0.2,0-0.4-0.2-0.4-0.4c0-0.2,0.2-0.4,0.4-0.4h9
		c0.2,0,0.4,0.2,0.4,0.4c0,0.2-0.2,0.4-0.4,0.4H164.9z"/>
	<path fill-rule="evenodd" clip-rule="evenodd" fill="#DE8450" d="M164.9,201.2c-0.2,0-0.4-0.2-0.4-0.4c0-0.2,0.2-0.4,0.4-0.4h8.8
		c0.2,0,0.4,0.2,0.4,0.4c0,0.2-0.2,0.4-0.4,0.4H164.9z"/>
	<path fill-rule="evenodd" clip-rule="evenodd" fill="#F6E0D3" d="M262.5,195.9C262.5,195.9,262.5,196,262.5,195.9
		c-0.6,6.9-4.9,13.2-11.7,16.3c-0.2,0.1-0.4,0.2-0.6,0.3l-0.1,0c-2,0.8-4.1,1.3-6.2,1.4c-1.4-0.1-3.6-0.3-6.5-0.6
		c-12.1-1.4-35.3-4.8-49.9-6.5l1.3-22.1c1.5-0.1,3-0.3,4.6-0.5c4.7-0.6,28.5-5,44.6-7.9c1.5-0.3,2.9-0.5,4.2-0.8
		c7.9-0.6,15.5,3.6,18.8,11.1C262.3,189.7,262.8,192.9,262.5,195.9z"/>
	<path fill-rule="evenodd" clip-rule="evenodd" fill="#C6725D" d="M188.8,184.8c0,0,2.6,0.8,2.8,9.5c0.2,8.7,0,76,0,76h47.1
		c0,0,0-52.3,0-66.9c0-14.6-1.6-22.5-5.5-26.2L188.8,184.8z"/>
	<path fill-rule="evenodd" clip-rule="evenodd" fill="#090914" d="M205.4,165.5c0.1,0.2,0,0.5-0.2,0.6c-0.2,0.1-0.5,0-0.6-0.2l-6-12
		c-0.1-0.2,0-0.5,0.2-0.6c0.2-0.1,0.5,0,0.6,0.2L205.4,165.5z"/>
	<polygon fill-rule="evenodd" clip-rule="evenodd" fill="#58A0C3" points="363.5,275.5 364.7,238.8 265.9,238.8 256.5,272.7 	"/>
	<path fill-rule="evenodd" clip-rule="evenodd" fill="#F1F1F1" d="M371,114.5l-45.2-20.1h-10.5h-17.5l-45.2,20.1l0.4,2.8
		c1.9,14.8,9.6,134.1,9.6,134.1s4.8,9.1,50,10.4c45.2,1.3,52.3-12.7,52.3-12.7L371,114.5z"/>
	
		<polyline fill-rule="evenodd" clip-rule="evenodd" fill="none" stroke="#FFFFFF" stroke-width="3.6448" stroke-miterlimit="10" points="
		303.8,329.9 310.2,305.3 321.8,295.6 325.7,278.9 	"/>
	<path fill-rule="evenodd" clip-rule="evenodd" fill="#F4B593" d="M297.7,94.3c0,0,13.5,8,28,0.3l-0.3-5.8l-0.5-4.8l-0.8-7.6l-0.4-4
		l-6.7-0.8c0,0,0,0,0,0l-17.6-2L297.7,94.3z"/>
	<path fill-rule="evenodd" clip-rule="evenodd" fill="#F1F1F1" d="M219.3,221L219.3,221c-11.3-5.3-16.2-18.9-10.9-30.2l30.4-64.4
		c5.3-11.3,19-16.2,30.3-10.9c11.3,5.3,16.2,18.9,10.9,30.2l-30.4,64.4C244.2,221.4,230.6,226.3,219.3,221z"/>
	<path fill-rule="evenodd" clip-rule="evenodd" fill="#F1F1F1" d="M422.2,210.1L422.2,210.1c-9.8,7.8-24.2,6.2-32-3.5l-45.8-57.1
		c-7.8-9.8-6.2-24.1,3.5-31.9l0,0c9.8-7.8,24.2-6.2,32,3.5l45.8,57.1C433.6,187.9,432,202.3,422.2,210.1z"/>
	<path fill-rule="evenodd" clip-rule="evenodd" fill="#C76F38" d="M325.2,86.9l-1.4-14.4L300,74.3C300,74.3,307,92.7,325.2,86.9z"/>
	<path fill-rule="evenodd" clip-rule="evenodd" fill="#F4B593" d="M330.4,72.5c-0.4,9-4.7,12.1-17.4,10.6
		c-8.8-1.1-14.7-7.9-14.2-16.7l1.1-18.3c0.4-7.5,6.8-13.2,14.3-12.8c7.5,0.4,14.6,7,14.1,14.5c-0.1,4.6,0.2,7.5,0.8,11
		C329.9,64.9,330.5,69.8,330.4,72.5z"/>
	<path fill-rule="evenodd" clip-rule="evenodd" fill="#F1F1F1" d="M303.2,222.8c0,0-4.7,1.5-7.2,1.7c-7.8,0.7-25.4,3.1-43.6,1.7
		c-13.2-1-21.3-2.2-25.6-2.9c-3.7-0.3-7.3-1.5-10.4-3.7c-2.5-1.9-4.7-4.3-6.2-7.4c-4.8-9.8-0.6-21.6,8.9-27
		c4.6-2.6,9.8-4.2,14.5-3.1c0.6,0.1,2,0.4,3.8,0.9c13.8,3.8,56.7,18.2,64,20.8C302.2,210.5,303.2,222.8,303.2,222.8z"/>
	<path fill-rule="evenodd" clip-rule="evenodd" fill="#703541" d="M332.5,46.2c0,0,3.1,4,0.7,7c-2.4,2.9-4.7,1.3-4.7,1.3
		s-0.1-1.3-0.3-2.8c0-0.1,0-0.2-0.1-0.3c-0.1-0.4-0.1-0.7-0.2-1c-0.2-0.9-0.5-1.6-0.9-1.8c-4.3-1.9-5.2-6.3-5.2-6.3
		s-6.5,4.1-13.1,1.5c0,0,0.7,5.6-1.1,8.9c-0.6,1.2-1.5,2.2-2.3,3.3c-0.1,0.1-0.1,0.1-0.2,0.2c0,0-0.1,0.1-0.1,0.1
		c-2.8,3.3-6.1,6.6-5.8,12.4c0.3,7.9-0.8,14.8-0.8,14.8s-6.6-2.2-7.8-5.5c-1.1-3.3-0.8-6.3-0.8-6.3s-6.9-2.1-6.6-9.5
		c0.2-6.4,5.5-9.4,6.9-10.1c0.2-0.1,0.4-0.2,0.4-0.2s0,0,0,0c-3.3-2-4.5-3.2-5.2-5.9c-0.6-2.4,0.5-5.3,1.3-6.7
		c4.8-8.2,12.6-6.3,14.3-6.1c0,0,3.5-8.9,12.6-8.5c8.3,0.4,10,4.5,11.7,7.3c0,0,8.2-1.5,10.8,4.2C338.6,42.1,332.5,46.2,332.5,46.2z
		"/>
	<path fill-rule="evenodd" clip-rule="evenodd" fill="#F4B593" d="M300.9,69.8c-1.7,1.8-5,1.6-7.4-0.6c-2.3-2.2-2.8-5.5-1.1-7.3
		c1.7-1.8,5-1.6,7.4,0.6C302.2,64.6,302.7,67.9,300.9,69.8z"/>
	<path fill-rule="evenodd" clip-rule="evenodd" fill="#DE8450" d="M300,67c0.2,0.1,0.2,0.4,0.1,0.5c-0.1,0.2-0.4,0.2-0.5,0.1l-5-3.5
		c-0.2-0.1-0.2-0.4-0.1-0.5c0.1-0.2,0.4-0.2,0.5-0.1L300,67z"/>
	<path fill-rule="evenodd" clip-rule="evenodd" fill="#090914" d="M308.9,55.2c0.2,0.3,1.2-0.1,2.4-0.7c1.2-0.7,2-1.4,1.8-1.7
		c-0.2-0.3-1.2,0.1-2.4,0.7C309.5,54.1,308.7,54.9,308.9,55.2z"/>
	<path fill-rule="evenodd" clip-rule="evenodd" fill="#090914" d="M321.1,51.9c-0.2,0.3,0.5,1,1.6,1.7c1,0.7,2,1,2.2,0.8
		c0.2-0.3-0.5-1-1.6-1.7C322.2,52,321.3,51.6,321.1,51.9z"/>
	<path fill-rule="evenodd" clip-rule="evenodd" fill="#DE8450" d="M317.8,58.4c-0.1-0.2,0.1-0.4,0.3-0.5c0.2-0.1,0.4,0.1,0.5,0.3
		c0,0,1.3,5.3,3.9,7.1c0.2,0.1,0.2,0.3,0.1,0.5c0,0-1.3,2.5-5,2.2c-0.2,0-0.4-0.2-0.3-0.4c0-0.2,0.2-0.4,0.4-0.3
		c2.5,0.2,3.7-1,4.1-1.5C319.1,63.5,317.8,58.4,317.8,58.4z"/>
	<path fill-rule="evenodd" clip-rule="evenodd" fill="#090914" d="M313.5,58.8c0,0.9-0.4,1.7-0.9,1.7c-0.5,0-0.9-0.8-0.9-1.7
		c0-0.9,0.4-1.7,0.9-1.7C313.1,57.1,313.5,57.8,313.5,58.8z"/>
	<path fill-rule="evenodd" clip-rule="evenodd" fill="#090914" d="M289,98.2l25.8,57.7l19.7-57.7l22,9.8c0,0-3.3,55.7,11.4,73.6
		l-3.1,67.5c0,0-8.6,14.3-51,12.7c-42.4-1.6-51.4-10.4-51.4-10.4l-4.4-66.6c0,0,20.9-32.6,11.7-78L289,98.2z"/>
	<path fill-rule="evenodd" clip-rule="evenodd" fill="#090914" d="M323.5,58.8c0,0.9-0.4,1.7-0.9,1.7c-0.5,0-0.9-0.8-0.9-1.7
		c0-0.9,0.4-1.7,0.9-1.7C323.1,57.1,323.5,57.8,323.5,58.8z"/>
	<path fill-rule="evenodd" clip-rule="evenodd" fill="#FFFFFF" d="M321.4,72.2c0,2-1.6,3.6-3.7,3.6c-2,0-3.7-1.6-3.7-3.6
		c0-1,1.8,0.1,3.7,0.1C319.6,72.3,321.4,71.2,321.4,72.2z"/>
	<path fill-rule="evenodd" clip-rule="evenodd" fill="#F4B593" d="M455.7,131.3c0,0-0.3,4.9-1,7.3c-2.2,7.5-6.4,24.7-14.2,41.2
		c-2.6,5.4-4.8,9.8-6.7,13.4c-2.3,4.3-4.1,7.3-5.3,9.4c-2.9,6.2-8.9,10.7-16.4,11.4c-10.9,0.9-20.4-7.3-21.9-18.1
		c-0.7-5.2-0.4-10.7,2.4-14.6c0.7-1.3,3.9-5.5,8.3-11c11.8-14.8,32.4-39.3,36.6-44.1C443.8,127.8,455.7,131.3,455.7,131.3z"/>
	<path fill-rule="evenodd" clip-rule="evenodd" fill="#F4B593" d="M454.6,138.6c1.5-5,7.5-11.5,11-10.9c3.5,0.5,9.9,1.6,14.4,1
		c4.6-0.6,14.5-8.6,14.4-9.8c-0.1-1.3-39.5-1.3-46.3,0c-6.8,1.3-11.4,8-11.4,8L454.6,138.6z"/>
	<path fill-rule="evenodd" clip-rule="evenodd" fill="#58A0C3" d="M502,119.8h-70c-1.1,0-2-0.9-2-1.9c0-1.1,0.9-1.9,2-1.9h70
		c1.1,0,2,0.9,2,1.9C504,118.9,503.1,119.8,502,119.8z"/>
	<path fill-rule="evenodd" clip-rule="evenodd" fill="#59202E" d="M479.4,51.9v62.4c0,0.9-0.7,1.6-1.6,1.6h-25.2
		c-0.9,0-1.6-0.7-1.6-1.6V51.9c0-1.6,0.5-3.1,1.3-4.4l6.2-9.4c1.1-1.7,1.8-3.8,1.8-5.8V17.5c0-0.2,0.2-0.4,0.4-0.4h9
		c0.2,0,0.4,0.2,0.4,0.4v14.8c0,2.1,0.6,4.1,1.8,5.8l6.2,9.4C478.9,48.8,479.4,50.3,479.4,51.9z"/>
	<path fill-rule="evenodd" clip-rule="evenodd" fill="#703541" d="M479.4,51.9v59.4h-13c-5.8,0-10.5-4.7-10.5-10.5V51.9
		c0-1.6,0.5-3.1,1.3-4.4l6.2-9.4c1.1-1.7,1.8-3.8,1.8-5.8V17.5c0-0.2,0.2-0.4,0.4-0.4h4.1c0.2,0,0.4,0.2,0.4,0.4v14.8
		c0,2.1,0.6,4.1,1.8,5.8l6.2,9.4C478.9,48.8,479.4,50.3,479.4,51.9z"/>
	<path fill-rule="evenodd" clip-rule="evenodd" fill="#2E2E38" d="M470.1,17.5v13.3h-9.8V17.5c0-0.2,0.2-0.4,0.4-0.4h9
		C469.9,17.1,470.1,17.3,470.1,17.5z"/>
	<rect x="460.3" y="21.7" fill-rule="evenodd" clip-rule="evenodd" fill="#FFDAAD" width="9.8" height="0.7"/>
	<rect x="460.3" y="24.2" fill-rule="evenodd" clip-rule="evenodd" fill="#FFDAAD" width="9.8" height="0.7"/>
	<rect x="451" y="61.6" fill-rule="evenodd" clip-rule="evenodd" fill="#E1BFAD" width="4.9" height="33.8"/>
	<rect x="455.9" y="61.6" fill-rule="evenodd" clip-rule="evenodd" fill="#EFD5C6" width="23.5" height="33.8"/>
	<path opacity="0.15" fill-rule="evenodd" clip-rule="evenodd" fill="#FFFFFF" d="M475.7,106.8h-2.2c-0.7,0-1.2-0.5-1.2-1.2V53.9
		c0-0.7,0.5-1.2,1.2-1.2h2.2c0.7,0,1.2,0.5,1.2,1.2v51.7C476.9,106.3,476.3,106.8,475.7,106.8z"/>
	<path fill-rule="evenodd" clip-rule="evenodd" fill="#FFFFFF" d="M450.4,99.9c0,2.2-1.8,3.9-3.9,3.9c-1.1,0-2.1-0.4-2.8-1.2
		c0.6,0.3,1.2,0.5,1.9,0.5c2.2,0,3.9-1.8,3.9-3.9c0-1.1-0.4-2.1-1.1-2.8C449.6,97.1,450.4,98.4,450.4,99.9z"/>
	<path fill-rule="evenodd" clip-rule="evenodd" fill="#FFFFFF" d="M490.7,99.9c0,2.2-1.8,3.9-3.9,3.9c-1.1,0-2.1-0.4-2.8-1.2
		c0.6,0.3,1.2,0.5,1.9,0.5c2.2,0,3.9-1.8,3.9-3.9c0-1.1-0.4-2.1-1.1-2.8C489.9,97.1,490.7,98.4,490.7,99.9z"/>
	<path fill-rule="evenodd" clip-rule="evenodd" fill="#E6E7E8" d="M295.1,95.5l2.8-3.4c0,0,5.4,5.6,16.7,5.8l-3.5,8.9
		C311.2,106.8,299.6,100.9,295.1,95.5z"/>
	<path fill-rule="evenodd" clip-rule="evenodd" fill="#E6E7E8" d="M314.6,97.9c0,0,7.8-0.4,11-5.3l3.3,3.1c0,0-4.2,8.9-11.4,10.2
		L314.6,97.9z"/>
	<path fill-rule="evenodd" clip-rule="evenodd" fill="#090914" d="M314.8,104h-0.3c-0.9,0-1.7-0.8-1.7-1.7v-2.2
		c0-0.9,0.8-1.7,1.7-1.7h0.3c0.9,0,1.7,0.8,1.7,1.7v2.2C316.5,103.3,315.7,104,314.8,104z"/>
	<path fill-rule="evenodd" clip-rule="evenodd" fill="#090914" d="M320.7,105.8l-4.9-2.8v-3.6l4.9-2.8c1.1-0.6,2.5,0.2,2.5,1.4v6.2
		C323.1,105.6,321.8,106.4,320.7,105.8z"/>
	<path fill-rule="evenodd" clip-rule="evenodd" fill="#090914" d="M308.6,105.8l4.9-2.8v-3.6l-4.9-2.8c-1.1-0.6-2.5,0.2-2.5,1.4v6.2
		C306.1,105.6,307.5,106.4,308.6,105.8z"/>
	<path fill-rule="evenodd" clip-rule="evenodd" fill="#703541" d="M261.9,243.4L231.2,364c0,0,25.7,5.6,67.6,5.6
		c41.9,0,68-3.1,68-3.1l-1.6-125.1C365.1,241.4,316.3,251,261.9,243.4z"/>
	<path fill-rule="evenodd" clip-rule="evenodd" fill="#C6725D" d="M321.2,312.1h-22.5c-13.6,0-24.6-11-24.6-24.6v-24h71.7v24
		C345.8,301.1,334.8,312.1,321.2,312.1z"/>
	<path fill-rule="evenodd" clip-rule="evenodd" fill="#C6725D" d="M365.1,241.4l0.4-8.2c0,0-51.9,8-104.2,0l0.7,10.2
		C261.9,243.4,313.6,251.7,365.1,241.4z"/>
	<path fill-rule="evenodd" clip-rule="evenodd" fill="#FFFFFF" d="M314.4,156c0-0.2,0.1-0.4,0.3-0.4c0.2,0,0.4,0.1,0.4,0.3
		c0,0.1,3,36.2,1.7,75c0,0.2-0.2,0.4-0.4,0.4c-0.2,0-0.4-0.2-0.4-0.4C317.4,192.2,314.4,156.1,314.4,156z"/>
	<path fill-rule="evenodd" clip-rule="evenodd" fill="#090914" d="M258.4,189c0.2,0.1,0.3,0.3,0.3,0.5c-0.1,0.2-0.3,0.3-0.5,0.3
		l-16-5c-0.2-0.1-0.3-0.3-0.3-0.5c0.1-0.2,0.3-0.3,0.5-0.3L258.4,189z"/>
	<path fill-rule="evenodd" clip-rule="evenodd" fill="#090914" d="M258.4,184.8c0,0.2-0.2,0.4-0.4,0.5c-0.2,0-0.4-0.2-0.5-0.4
		L256,162c0-0.2,0.2-0.4,0.4-0.5c0.2,0,0.4,0.2,0.5,0.4L258.4,184.8z"/>
	
		<path fill-rule="evenodd" clip-rule="evenodd" fill="none" stroke="#FFFFFF" stroke-width="4.0975" stroke-linecap="round" stroke-linejoin="round" stroke-miterlimit="10" d="
		M328.8,170c0,2-1.6,3.6-3.6,3.6c-2,0-3.6-1.6-3.6-3.6c0-2,1.6-3.6,3.6-3.6C327.2,166.5,328.8,168.1,328.8,170z"/>
	
		<path fill-rule="evenodd" clip-rule="evenodd" fill="none" stroke="#FFFFFF" stroke-width="4.0975" stroke-linecap="round" stroke-linejoin="round" stroke-miterlimit="10" d="
		M330.4,197.5c0,2-1.6,3.6-3.6,3.6c-2,0-3.6-1.6-3.6-3.6c0-2,1.6-3.6,3.6-3.6C328.8,194,330.4,195.6,330.4,197.5z"/>
	
		<path fill-rule="evenodd" clip-rule="evenodd" fill="none" stroke="#FFFFFF" stroke-width="4.0975" stroke-linecap="round" stroke-linejoin="round" stroke-miterlimit="10" d="
		M330.4,224c0,2-1.6,3.6-3.6,3.6c-2,0-3.6-1.6-3.6-3.6c0-2,1.6-3.6,3.6-3.6C328.8,220.4,330.4,222,330.4,224z"/>
	<path fill-rule="evenodd" clip-rule="evenodd" fill="#F1F1F1" d="M458.6,132c0,0-3.3,4.3-3.9,6.7c-2.2,7.5-6.4,24.7-14.2,41.2
		c-2.6,5.4-4.8,9.8-6.7,13.4c-2.3,4.3-4.1,7.3-5.3,9.4c-2.9,6.2-8.9,10.7-16.4,11.4c-10.9,0.9-20.4-7.3-21.9-18.1
		c-0.7-5.2-0.4-10.7,2.4-14.6c0.7-1.3,3.9-5.5,8.3-11c11.8-14.8,33.1-41,37.3-45.8C444.5,126.1,458.6,132,458.6,132z"/>
	<path fill-rule="evenodd" clip-rule="evenodd" fill="#090914" d="M409.7,158.3c0.1-0.2,0.4-0.2,0.6-0.1c0.2,0.1,0.2,0.4,0.1,0.6
		l-10.7,13.4c-0.1,0.2-0.4,0.2-0.6,0.1c-0.2-0.1-0.2-0.4-0.1-0.6L409.7,158.3z"/>
	<path fill-rule="evenodd" clip-rule="evenodd" fill="#090914" d="M433,130.2c-0.1-0.2-0.1-0.5,0.1-0.6c0.2-0.1,0.5-0.1,0.6,0.1
		c0,0,5.4,7.1,21.3,7.7c0.2,0,0.4,0.2,0.4,0.4c0,0.2-0.2,0.4-0.4,0.4C438.7,137.6,433,130.3,433,130.2z"/>
</g>
</svg>
