<?xml version="1.0" encoding="utf-8"?>
<!-- Generator: Adobe Illustrator 26.0.1, SVG Export Plug-In . SVG Version: 6.00 Build 0)  -->
<svg version="1.1" id="Character" xmlns="http://www.w3.org/2000/svg" xmlns:xlink="http://www.w3.org/1999/xlink" x="0px" y="0px"
	 viewBox="0 0 500 500" enable-background="new 0 0 500 500" xml:space="preserve">
<path fill="#E6E6E6" d="M465.4,454.8c0,5.1-98.9,9.3-220.9,9.3c-122,0-220.9-4.2-220.9-9.3c0-5.1,98.9-9.3,220.9-9.3
	C366.5,445.6,465.4,449.7,465.4,454.8z"/>
<path fill="#FCCAD1" d="M434.3,456.8c21.6-24,42.2-49.8,53.4-80c11.3-30.2,12-65.9-5.1-93.3c-24.2-39-76-51.4-106.7-85.6
	c-16.6-18.5-26-42.2-34.9-65.5c-8.9-23.2-18-47-34.2-65.9s-41.2-32.2-65.7-27.6c-29.1,5.5-48.2,33.6-59.8,60.9
	c-11.6,27.3-20,57.4-41.3,78c-18.4,17.8-43.8,25.9-67.6,35.4c-23.8,9.5-48.3,22.4-60,45.2c-11,21.4-8.2,47.6,0.6,70
	c8.8,22.4,23.2,42,35.6,62.6C61.2,411.4,72.1,434,72.9,458c0,0.2,2.1,0.5,2.1,0.8L434.3,456.8z"/>
<rect x="95" y="114.7" fill="#F6AF93" width="300.6" height="31.9"/>
<rect x="95" y="110.2" fill="#FCC1AC" width="300.6" height="8.6"/>
<rect x="95" y="142.3" fill="#FCC1AC" width="300.6" height="8.6"/>
<rect x="82.6" y="168.9" fill="#F6AF93" width="325.4" height="285.2"/>
<rect x="82.6" y="165.5" fill="#FCC1AC" width="325.4" height="8.6"/>
<g>
	<polygon fill="#FFFFFF" points="108.9,240.1 78.6,240.1 89.6,179.7 117.9,179.7 	"/>
	<path fill="#F3F3F3" d="M91.1,256.6L91.1,256.6c-8.5,0-14.5-5.2-13.3-11.6l0.9-4.9h30.3l-0.7,4.9
		C107.3,251.4,99.6,256.6,91.1,256.6z"/>
	<polygon fill="#FD8395" points="139.2,240.1 108.9,240.1 117.9,179.7 146.2,179.7 	"/>
	<path fill="#F47280" d="M121.9,256.6L121.9,256.6c-8.5,0-14.6-5.2-13.7-11.6l0.7-4.9h30.3l-0.6,4.9
		C137.9,251.4,130.4,256.6,121.9,256.6z"/>
	<polygon fill="#FFFFFF" points="169.5,240.1 139.2,240.1 146.2,179.7 174.5,179.7 	"/>
	<path fill="#F3F3F3" d="M152.8,256.6L152.8,256.6c-8.5,0-14.8-5.2-14.1-11.6l0.6-4.9h30.3l-0.4,4.9
		C168.6,251.4,161.3,256.6,152.8,256.6z"/>
	<polygon fill="#FD8395" points="199.8,240.1 169.5,240.1 174.5,179.7 202.8,179.7 	"/>
	<path fill="#F47280" d="M183.6,256.6L183.6,256.6c-8.5,0-15-5.2-14.5-11.6l0.4-4.9h30.3l-0.2,4.9
		C199.3,251.4,192.1,256.6,183.6,256.6z"/>
	<polygon fill="#FFFFFF" points="230.1,240.1 199.8,240.1 202.8,179.7 231.1,179.7 	"/>
	<path fill="#F3F3F3" d="M214.4,256.6L214.4,256.6c-8.5,0-15.2-5.2-14.8-11.6l0.2-4.9h30.3l-0.1,4.9
		C230,251.4,223,256.6,214.4,256.6z"/>
	<polygon fill="#FD8395" points="260.4,240.1 230.1,240.1 231.1,179.7 259.4,179.7 	"/>
	<path fill="#F47280" d="M245.3,256.6L245.3,256.6c-8.5,0-15.3-5.2-15.2-11.6l0.1-4.9h30.3l0.1,4.9
		C260.6,251.4,253.8,256.6,245.3,256.6z"/>
	<polygon fill="#FFFFFF" points="290.7,240.1 260.4,240.1 259.4,179.7 287.7,179.7 	"/>
	<path fill="#F3F3F3" d="M276.1,256.6L276.1,256.6c-8.5,0-15.5-5.2-15.6-11.6l-0.1-4.9h30.3l0.2,4.9
		C291.3,251.4,284.7,256.6,276.1,256.6z"/>
	<polygon fill="#FD8395" points="321,240.1 290.7,240.1 287.7,179.7 316,179.7 	"/>
	<path fill="#F47280" d="M307,256.6L307,256.6c-8.5,0-15.7-5.2-16-11.6l-0.2-4.9H321l0.4,4.9C322,251.4,315.5,256.6,307,256.6z"/>
	<polygon fill="#FFFFFF" points="351.3,240.1 321,240.1 316,179.7 344.3,179.7 	"/>
	<path fill="#F3F3F3" d="M337.8,256.6L337.8,256.6c-8.5,0-15.9-5.2-16.4-11.6l-0.4-4.9h30.3l0.6,4.9
		C352.6,251.4,346.3,256.6,337.8,256.6z"/>
	<polygon fill="#FFFFFF" points="411.9,240.1 381.6,240.1 372.6,179.7 400.9,179.7 	"/>
	<path fill="#F3F3F3" d="M399.5,256.6L399.5,256.6c-8.5,0-16.2-5.2-17.1-11.6l-0.7-4.9h30.3l0.9,4.9
		C414,251.4,408,256.6,399.5,256.6z"/>
	<polygon fill="#FD8395" points="381.6,240.1 351.3,240.1 344.3,179.7 372.6,179.7 	"/>
	<path fill="#F47280" d="M368.7,256.6L368.7,256.6c-8.5,0-16-5.2-16.8-11.6l-0.6-4.9h30.3l0.7,4.9
		C383.3,251.4,377.2,256.6,368.7,256.6z"/>
</g>
<path fill="#F6AF93" d="M413,153.2v9.1c0,3.7-3,6.6-6.6,6.6H84.2c-3.7,0-6.6-3-6.6-6.6v-9.1c0-3.7,3-6.6,6.6-6.6h322.1
	C410,146.6,413,149.6,413,153.2z"/>
<path fill="#F6AF93" d="M400.1,98.6v10.3c0,3.3-2.7,6-6,6H96.5c-3.3,0-6-2.7-6-6V98.6c0-3.3,2.7-6,6-6h297.7
	C397.4,92.6,400.1,95.3,400.1,98.6z"/>
<rect x="293.2" y="423.9" fill="#6C567B" width="118.2" height="30.2"/>
<rect x="79.2" y="423.9" fill="#6C567B" width="118.1" height="30.2"/>
<g>
	<g>
		<rect x="316.9" y="378.3" fill="#F6AF93" width="22.9" height="7.8"/>
		<rect x="333.6" y="386.9" fill="#F6AF93" width="22.9" height="7.8"/>
		<rect x="108.9" y="409.3" fill="#F6AF93" width="22.9" height="7.8"/>
		<rect x="97.4" y="400.4" fill="#F6AF93" width="22.9" height="7.8"/>
		<rect x="367.5" y="402.6" fill="#F6AF93" width="22.9" height="7.8"/>
		<rect x="302.5" y="398.5" fill="#F6AF93" width="22.9" height="7.8"/>
		<rect x="317.3" y="407.2" fill="#F6AF93" width="22.9" height="7.8"/>
	</g>
</g>
<g>
	<g>
		<path fill="#F47280" d="M291.3,454.1h-92.1v-183c0-0.7,0.6-1.3,1.3-1.3h89.5c0.7,0,1.3,0.6,1.3,1.3V454.1z"/>
		<path fill="#FD8395" d="M285.6,454.1h-80.7V275.9c0-0.4,0.3-0.7,0.7-0.7h79.3c0.4,0,0.7,0.3,0.7,0.7V454.1z"/>
		<g>
			<path fill="#FD8395" d="M281.2,367h-71.7c-0.4,0-0.7-0.3-0.7-0.7v-86.7c0-0.4,0.3-0.7,0.7-0.7h71.7c0.4,0,0.7,0.3,0.7,0.7v86.7
				C281.9,366.7,281.6,367,281.2,367z"/>
			<path fill="#FD8395" d="M279.6,282.2v81.6c0,0.6-0.5,1.1-1.1,1.1H212c-0.6,0-1.1-0.5-1.1-1.1v-81.6c0-0.6,0.5-1.1,1.1-1.1h66.6
				C279.2,281.1,279.6,281.6,279.6,282.2z"/>
			<g opacity="0.3">
				<path fill="#FFFFFF" d="M279.6,348.6v12.2L210.9,292v-9.8c0-0.6,0.5-1.1,1.1-1.1h0.2L279.6,348.6z"/>
				<polygon fill="#FFFFFF" points="279.6,325.1 279.6,344.2 216.7,281.1 235.8,281.1 				"/>
			</g>
		</g>
		<path fill="#D23737" d="M227.4,374.5h-16.9c-1,0-1.9-0.8-1.9-1.9l0,0c0-1,0.8-1.9,1.9-1.9h16.9c1,0,1.9,0.8,1.9,1.9l0,0
			C229.3,373.7,228.5,374.5,227.4,374.5z"/>
	</g>
	<g>
		<g>
			<path fill="#F47280" d="M193.1,376.1h-98c-0.9,0-1.6-0.7-1.6-1.6v-103c0-0.9,0.7-1.6,1.6-1.6h98c0.9,0,1.6,0.7,1.6,1.6v103
				C194.8,375.4,194,376.1,193.1,376.1z"/>
			<path fill="#F47280" d="M192.5,274.6v96.7c0,1.4-1.1,2.5-2.5,2.5H98.3c-1.4,0-2.5-1.1-2.5-2.5v-96.7c0-1.4,1.1-2.5,2.5-2.5H190
				C191.4,272.1,192.5,273.2,192.5,274.6z"/>
		</g>
		<g opacity="0.2">
			<path fill="#FFFFFF" d="M192.5,367.2v4.1c0,1.4-1.1,2.5-2.5,2.5h-30.6l-63.7-82.1v-17.1c0-1.4,1.1-2.5,2.5-2.5h20.5L192.5,367.2z
				"/>
			<polygon fill="#FFFFFF" points="192.5,324.8 192.5,356.9 126.7,272.1 151.6,272.1 			"/>
			<polygon fill="#FFFFFF" points="151.4,373.8 141.1,373.8 95.7,315.4 95.7,302.1 			"/>
		</g>
	</g>
	<g>
		<g>
			<path fill="#F47280" d="M395.5,376.1h-98c-0.9,0-1.6-0.7-1.6-1.6v-103c0-0.9,0.7-1.6,1.6-1.6h98c0.9,0,1.6,0.7,1.6,1.6v103
				C397.1,375.4,396.4,376.1,395.5,376.1z"/>
			<path fill="#F47280" d="M394.9,274.6v96.7c0,1.4-1.1,2.5-2.5,2.5h-91.7c-1.4,0-2.5-1.1-2.5-2.5v-96.7c0-1.4,1.1-2.5,2.5-2.5h91.7
				C393.7,272.1,394.9,273.2,394.9,274.6z"/>
		</g>
		<g opacity="0.2">
			<path fill="#FFFFFF" d="M394.9,367.2v4.1c0,1.4-1.1,2.5-2.5,2.5h-30.6l-63.7-82.1v-17.1c0-1.4,1.1-2.5,2.5-2.5H321L394.9,367.2z"
				/>
			<polygon fill="#FFFFFF" points="394.9,324.8 394.9,356.9 329,272.1 354,272.1 			"/>
			<polygon fill="#FFFFFF" points="353.7,373.8 343.4,373.8 298.1,315.4 298.1,302.1 			"/>
		</g>
	</g>
</g>
<path fill="#F47280" d="M362.6,68.6H335c-17.3-17.1-50.1-28.7-87.8-28.7c-37.6,0-70.4,11.6-87.8,28.7h-27.6c-7,0-12.7,5.7-12.7,12.7
	v27.1c0,7,5.7,12.7,12.7,12.7h24.6c16.4,18.9,50.9,31.9,90.8,31.9c39.9,0,74.4-13,90.8-31.9h24.6c7,0,12.7-5.7,12.7-12.7V81.4
	C375.4,74.3,369.6,68.6,362.6,68.6z"/>
<path fill="#827091" d="M247.2,144.3c-35.9,0-68.9-11.3-84.1-28.8l-2.6-3h-28.6c-2.2,0-3.9-1.8-3.9-3.9V81.4c0-2.2,1.8-3.9,3.9-3.9
	h31.2l2.6-2.5c16.3-16.1,47.6-26.1,81.6-26.1c34,0,65.3,10,81.6,26.1l2.6,2.5h31.2c2.2,0,3.9,1.8,3.9,3.9v27.1
	c0,2.2-1.8,3.9-3.9,3.9H334l-2.6,3C316.2,133,283.1,144.3,247.2,144.3z"/>
<path fill="#827091" d="M362.6,77.4h-31.2l-2.6-2.5c-16.3-16.1-47.6-26.1-81.6-26.1c-34,0-65.3,10-81.6,26.1l-2.6,2.5h-31.2
	c-2.2,0-3.9,1.8-3.9,3.9v0.4c0.6-0.4,1.3-0.6,2-0.6h31.2l2.6-2.5c16.3-16.1,47.6-26.1,81.6-26.1c34,0,65.3,10,81.6,26.1l2.6,2.5
	h31.2c2.2,0,3.9,1.8,3.9,3.9v26.6c1.1-0.7,1.9-1.9,1.9-3.3V81.4C366.6,79.2,364.8,77.4,362.6,77.4z"/>
<g>
	<g>
		<path fill="#BE6C82" d="M432.1,435.3c1.6-2.5,2.8-5.3,3.1-8.3c0.3-3-0.5-6.2-2.7-8.2c-2.1-2.1-5.7-2.8-8.2-1.2
			c0.5-3.5,0.9-7.1,0.6-10.6c-0.3-3.5-1.4-7.1-3.8-9.8c-2.4-2.6-6.1-4.2-9.6-3.4c-3.7,0.9-6.3,4.2-7.5,7.8c-1.1,3.6-1,7.4-0.9,11.2
			c-1.2-2.3-4-3.6-6.5-3.2c-2.5,0.5-4.7,2.7-5,5.2c-1.4-1.9-3.7-3.1-6-3.2c-2.4,0-4.7,1.1-6.1,3c0.7-5,0.2-10.4-2.5-14.7
			c-2.7-4.3-7.9-7.3-12.9-6.3c-5,1-8.7,5.9-9.5,10.9c-0.9,5.1,0.5,10.3,2.5,15c-1.7-0.4-3.3-0.9-4.9-0.4c-1.7,0.5-3.1,1.7-3.8,3.3
			c-0.7,1.6-0.7,3.5,0,5c-1.1,0-2.3,0.4-3.2,1.1c-0.8,0.8-1.3,1.8-1.5,3c-0.1,1.1,0.2,2.2,0.7,3.3c0.5,1,1.2,1.9,1.8,2.8
			c13.6,1.5,28.1,2,41.8,1.2c7-0.4,13.9-1.1,20.9-1.7C416.3,436.4,424.6,436,432.1,435.3z"/>
		<path fill="#BE6C82" d="M417.1,421.2c0.5-1.9,0.9-4,0.6-6c-0.4-2-1.6-3.9-3.5-4.6c-2.5-0.9-5.5,0.6-6.9,2.9
			c-1.5,2.3-1.9,5-2.3,7.7c-3.2-1.4-7.3,0.2-8.6,3.4c-1.9-2.6-5.3-4.1-8.5-3.7c-3.2,0.4-6.1,2.7-7.3,5.8c0.4-3.5-1.3-7.2-4.2-9.1
			c-2.9-1.9-7.1-1.9-9.9,0.2c-2.8,2.1-3.9,6.3-2.3,9.5c-2.7-0.9-5.5-1.9-8.3-1.6c-2.8,0.4-5.7,2.5-5.8,5.3c-0.2,3,2.6,5.4,5.3,6.7
			c4.2,1.9,8.8,2.5,13.4,2.8c12.5,1,25.1,0.6,37.5-1.2c5.5-0.8,11.5-1.4,16.7-3.3c3.5-1.3,4.8-4.3,5-7.9
			C428.2,422.8,422.1,418.6,417.1,421.2z"/>
	</g>
	<polygon fill="#827091" points="435.2,454.1 345.6,454.1 342.1,430.2 438.6,430.2 	"/>
</g>
<g>
	<g>
		<path fill="#BE6C82" d="M159.6,435.3c1.6-2.5,2.8-5.3,3.1-8.3c0.3-3-0.5-6.2-2.7-8.2c-2.1-2.1-5.7-2.8-8.2-1.2
			c0.5-3.5,0.9-7.1,0.6-10.6c-0.3-3.5-1.4-7.1-3.8-9.8c-2.4-2.6-6.1-4.2-9.6-3.4c-3.7,0.9-6.3,4.2-7.5,7.8c-1.1,3.6-1,7.4-0.9,11.2
			c-1.2-2.3-4-3.6-6.5-3.2c-2.5,0.5-4.7,2.7-5,5.2c-1.4-1.9-3.7-3.1-6-3.2c-2.4,0-4.7,1.1-6.1,3c0.7-5,0.2-10.4-2.5-14.7
			c-2.7-4.3-7.9-7.3-12.9-6.3c-5,1-8.7,5.9-9.5,10.9c-0.9,5.1,0.5,10.3,2.5,15c-1.7-0.4-3.3-0.9-4.9-0.4c-1.7,0.5-3.1,1.7-3.8,3.3
			c-0.7,1.6-0.7,3.5,0,5c-1.1,0-2.3,0.4-3.2,1.1c-0.8,0.8-1.3,1.8-1.5,3c-0.1,1.1,0.2,2.2,0.7,3.3c0.5,1,1.2,1.9,1.8,2.8
			c13.6,1.5,28.1,2,41.8,1.2c7-0.4,13.9-1.1,20.9-1.7C143.8,436.4,152.2,436,159.6,435.3z"/>
		<path fill="#BE6C82" d="M144.6,421.2c0.5-1.9,0.9-4,0.6-6c-0.4-2-1.6-3.9-3.5-4.6c-2.5-0.9-5.5,0.6-6.9,2.9
			c-1.5,2.3-1.9,5-2.3,7.7c-3.2-1.4-7.3,0.2-8.6,3.4c-1.9-2.6-5.3-4.1-8.5-3.7c-3.2,0.4-6.1,2.7-7.3,5.8c0.4-3.5-1.3-7.2-4.2-9.1
			c-2.9-1.9-7.1-1.9-9.9,0.2c-2.8,2.1-3.9,6.3-2.3,9.5c-2.7-0.9-5.5-1.9-8.3-1.6c-2.8,0.4-5.7,2.5-5.8,5.3c-0.2,3,2.6,5.4,5.3,6.7
			c4.2,1.9,8.8,2.5,13.4,2.8c12.5,1,25.1,0.6,37.5-1.2c5.5-0.8,11.5-1.4,16.7-3.3c3.5-1.3,4.8-4.3,5-7.9
			C155.7,422.8,149.6,418.6,144.6,421.2z"/>
	</g>
	<polygon fill="#827091" points="162.8,454.1 73.1,454.1 69.7,430.2 166.2,430.2 	"/>
</g>
<g>
	<g>
		<g>
			<path fill="#6C567B" d="M451.6,41.5c1.4,0,2.5-1.1,2.5-2.5v-6.6c0-1.4-1.1-2.5-2.5-2.5s-2.5,1.1-2.5,2.5V39
				C449.1,40.4,450.2,41.5,451.6,41.5z"/>
			<path fill="#6C567B" d="M462.7,40.9h-6.6c-1.4,0-2.5,1.1-2.5,2.5c0,1.4,1.1,2.5,2.5,2.5h6.6c1.4,0,2.5-1.1,2.5-2.5
				C465.1,42,464,40.9,462.7,40.9z"/>
			<path fill="#6C567B" d="M451.7,45.4c-1.4,0-2.5,1.1-2.5,2.5v6.6c0,1.4,1.1,2.5,2.5,2.5s2.5-1.1,2.5-2.5v-6.6
				C454.2,46.5,453.1,45.4,451.7,45.4z"/>
			<path fill="#6C567B" d="M447.2,41h-6.6c-1.4,0-2.5,1.1-2.5,2.5c0,1.4,1.1,2.5,2.5,2.5h6.6c1.4,0,2.5-1.1,2.5-2.5
				C449.7,42.2,448.6,41,447.2,41z"/>
		</g>
	</g>
	<g>
		<g>
			<path fill="#6C567B" d="M449,281.3c1.4,0,2.5-1.1,2.5-2.5v-6.6c0-1.4-1.1-2.5-2.5-2.5c-1.4,0-2.5,1.1-2.5,2.5v6.6
				C446.6,280.2,447.7,281.3,449,281.3z"/>
			<path fill="#6C567B" d="M460.1,280.7h-6.6c-1.4,0-2.5,1.1-2.5,2.5c0,1.4,1.1,2.5,2.5,2.5h6.6c1.4,0,2.5-1.1,2.5-2.5
				C462.6,281.9,461.5,280.7,460.1,280.7z"/>
			<path fill="#6C567B" d="M449.2,285.3c-1.4,0-2.5,1.1-2.5,2.5v6.6c0,1.4,1.1,2.5,2.5,2.5s2.5-1.1,2.5-2.5v-6.6
				C451.7,286.4,450.5,285.3,449.2,285.3z"/>
			<path fill="#6C567B" d="M444.7,280.9h-6.6c-1.4,0-2.5,1.1-2.5,2.5c0,1.4,1.1,2.5,2.5,2.5h6.6c1.4,0,2.5-1.1,2.5-2.5
				C447.1,282,446,280.9,444.7,280.9z"/>
		</g>
	</g>
	<g>
		<g>
			<path fill="#6C567B" d="M29.5,253.1c1,1,2.5,1,3.5,0l4.6-4.6c1-1,1-2.5,0-3.5c-1-1-2.5-1-3.5,0l-4.6,4.6
				C28.5,250.6,28.5,252.1,29.5,253.1z"/>
			<path fill="#6C567B" d="M37.7,260.5l-4.6-4.6c-1-1-2.5-1-3.5,0c-1,1-1,2.5,0,3.5l4.6,4.6c1,1,2.5,1,3.5,0
				C38.7,263.1,38.7,261.5,37.7,260.5z"/>
			<path fill="#6C567B" d="M26.8,256c-1-1-2.5-1-3.5,0l-4.6,4.6c-1,1-1,2.5,0,3.5c1,1,2.5,1,3.5,0l4.6-4.6
				C27.8,258.5,27.8,256.9,26.8,256z"/>
			<path fill="#6C567B" d="M26.7,249.7l-4.6-4.6c-1-1-2.5-1-3.5,0c-1,1-1,2.5,0,3.5l4.6,4.6c1,1,2.5,1,3.5,0
				C27.7,252.2,27.7,250.7,26.7,249.7z"/>
		</g>
	</g>
	<g>
		<g>
			<path fill="#6C567B" d="M82.6,32.8c0.9,0,1.7-0.8,1.7-1.7v-4.5c0-0.9-0.8-1.7-1.7-1.7s-1.7,0.8-1.7,1.7v4.5
				C80.9,32.1,81.6,32.8,82.6,32.8z"/>
			<path fill="#6C567B" d="M90.1,32.5h-4.5c-0.9,0-1.7,0.8-1.7,1.7c0,0.9,0.8,1.7,1.7,1.7h4.5c0.9,0,1.7-0.8,1.7-1.7
				C91.8,33.2,91,32.5,90.1,32.5z"/>
			<path fill="#6C567B" d="M82.7,35.5c-0.9,0-1.7,0.8-1.7,1.7v4.5c0,0.9,0.8,1.7,1.7,1.7c0.9,0,1.7-0.8,1.7-1.7v-4.5
				C84.3,36.3,83.6,35.5,82.7,35.5z"/>
			<path fill="#6C567B" d="M79.6,32.6h-4.5c-0.9,0-1.7,0.8-1.7,1.7c0,0.9,0.8,1.7,1.7,1.7h4.5c0.9,0,1.7-0.8,1.7-1.7
				C81.3,33.3,80.5,32.6,79.6,32.6z"/>
		</g>
	</g>
	<g>
		<g>
			<path fill="#6C567B" d="M13.4,338.7c0.9,0,1.7-0.8,1.7-1.7v-4.5c0-0.9-0.8-1.7-1.7-1.7c-0.9,0-1.7,0.8-1.7,1.7v4.5
				C11.7,337.9,12.5,338.7,13.4,338.7z"/>
			<path fill="#6C567B" d="M20.9,338.3h-4.5c-0.9,0-1.7,0.8-1.7,1.7c0,0.9,0.8,1.7,1.7,1.7h4.5c0.9,0,1.7-0.8,1.7-1.7
				C22.6,339,21.9,338.3,20.9,338.3z"/>
			<path fill="#6C567B" d="M13.5,341.3c-0.9,0-1.7,0.8-1.7,1.7v4.5c0,0.9,0.8,1.7,1.7,1.7c0.9,0,1.7-0.8,1.7-1.7V343
				C15.2,342.1,14.4,341.3,13.5,341.3z"/>
			<path fill="#6C567B" d="M10.4,338.4H5.9c-0.9,0-1.7,0.8-1.7,1.7c0,0.9,0.8,1.7,1.7,1.7h4.5c0.9,0,1.7-0.8,1.7-1.7
				C12.1,339.1,11.3,338.4,10.4,338.4z"/>
		</g>
	</g>
	<g>
		<g>
			<path fill="#6C567B" d="M450.1,180.3c0.7-0.7,0.7-1.7,0-2.4l-3.2-3.2c-0.7-0.7-1.7-0.7-2.4,0c-0.7,0.7-0.7,1.7,0,2.4l3.2,3.2
				C448.4,180.9,449.4,180.9,450.1,180.3z"/>
			<path fill="#6C567B" d="M455.1,174.7l-3.2,3.2c-0.7,0.7-0.7,1.7,0,2.4c0.7,0.7,1.7,0.7,2.4,0l3.2-3.2c0.7-0.7,0.7-1.7,0-2.4
				C456.9,174,455.8,174,455.1,174.7z"/>
			<path fill="#6C567B" d="M452.1,182.1c-0.7,0.7-0.7,1.7,0,2.4l3.2,3.2c0.7,0.7,1.7,0.7,2.4,0c0.7-0.7,0.7-1.7,0-2.4l-3.2-3.2
				C453.8,181.4,452.7,181.4,452.1,182.1z"/>
			<path fill="#6C567B" d="M447.8,182.2l-3.2,3.2c-0.7,0.7-0.7,1.7,0,2.4c0.7,0.7,1.7,0.7,2.4,0l3.2-3.2c0.7-0.7,0.7-1.7,0-2.4
				C449.5,181.5,448.4,181.5,447.8,182.2z"/>
		</g>
	</g>
</g>
<g>
	<g>
		<path fill="#F8A41A" d="M270.7,129.1h-47c-5.9,0-10.7-4.8-10.7-10.7v0c0-1,0.9-1.9,1.9-1.9h64.6c1,0,1.9,0.9,1.9,1.9v0
			C281.4,124.3,276.6,129.1,270.7,129.1z"/>
		<path fill="#F7971C" d="M281.4,122.8v-5.2c0-0.6-0.5-1.1-1.1-1.1h-3.5c-8.1,6.3-22.4,10.1-35,12.6h33.3
			C278.6,129.1,281.4,126.3,281.4,122.8z"/>
	</g>
	<path fill="#E62728" d="M277.2,102.1h-60c-1.4,0-2.5,1.1-2.5,2.5v0c0,1.4,1.1,2.5,2.5,2.5h60c1.4,0,2.5-1.1,2.5-2.5v0
		C279.7,103.2,278.5,102.1,277.2,102.1z"/>
	<path fill="#8C401F" d="M269.5,116.5h6c2.2,0,4-1.8,4-4V111c0-1.4-0.7-2.7-1.9-3.4C276.4,111.8,272.4,114.8,269.5,116.5z"/>
	<path fill="#B75F28" d="M278.4,102.3h-61.7c-1.2-0.9-1.9-1.6-1.9-2.5v-6.5c0-0.9,0.7-1.6,1.6-1.6h61.7c0.9,0,1.6,0.7,1.6,1.6v6.5
		C279.7,100.7,278.9,101.4,278.4,102.3z"/>
	<path fill="#347237" d="M282.4,95.3c0,0-2.8-5.5-2.8-5.5h-30.5h-3.7h-30.5c0,0-2.8,5.5-2.8,5.5c-1.4,2.8,3.2,3.5,4.7,2.6
		c0.6-0.4,1.1-1,1.7-1.4c1.9-1.3,4.1-0.5,5.7,0.9c0,0,5.4,5.7,10.4,0.5c1.7-1.8,3.7-2.7,5.9-1.5c2,1.1,3.6,3.2,5.7,4
		c1.5,0.6,3.1,0.1,4.4-1c0.8-0.7,1.3-1.8,2.2-2.4c2.4-1.5,5.3-1.2,7.2,0.8c5,5.3,10.4-0.5,10.4-0.5c1.6-1.5,3.8-2.2,5.7-0.9
		c0.6,0.4,1.1,1,1.7,1.4C279.1,98.7,283.8,98.1,282.4,95.3z"/>
	<path fill="#F8A41A" d="M213.6,90.7L213.6,90.7c0-12.6,14.5-26.8,33-26.8h0c18.5,0,34.2,14.2,34.2,26.8v0H213.6z"/>
	<path fill="#F7971C" d="M267,70.4c-4,10.6-13.2,16.8-21.1,20.3h34.8C280.5,82.6,273.9,74.1,267,70.4z"/>
	<g>
		<path fill="#FFFFFF" d="M234.6,73.1c-0.7,0.8-1.5,1.2-1.9,0.9c-0.4-0.3-0.1-1.2,0.6-2c0.7-0.8,1.5-1.2,1.9-0.9
			C235.5,71.5,235.3,72.3,234.6,73.1z"/>
		<path fill="#FFFFFF" d="M258.8,73.3c-0.9,0.5-1.8,0.6-2.1,0.2c-0.2-0.4,0.3-1.2,1.2-1.7c0.9-0.5,1.8-0.6,2.1-0.2
			C260.3,72.1,259.7,72.8,258.8,73.3z"/>
		
			<ellipse transform="matrix(0.2083 -0.9781 0.9781 0.2083 123.4559 298.4574)" fill="#FFFFFF" cx="246.1" cy="73" rx="1.9" ry="0.9"/>
		<path fill="#FFFFFF" d="M241.3,69.3c0.7,0.8,1,1.7,0.6,2c-0.4,0.3-1.2-0.1-1.9-0.9c-0.7-0.8-1-1.7-0.6-2S240.6,68.5,241.3,69.3z"
			/>
		<path fill="#FFFFFF" d="M253.1,69.6c1,0.4,1.6,1.1,1.4,1.5c-0.2,0.4-1.1,0.5-2.1,0.1c-1-0.4-1.6-1.1-1.4-1.5
			C251.2,69.2,252.1,69.2,253.1,69.6z"/>
	</g>
	<path fill="#C92127" d="M226.6,102.5l17,4.8h10.5C254.2,107.4,243.9,102.7,226.6,102.5z"/>
	<path fill="#944C22" d="M275.4,116.5H219c-2.6,0-4.7-2.1-4.7-4.7v0c0-2.6,2.1-4.7,4.7-4.7h56.4c2.6,0,4.7,2.1,4.7,4.7v0
		C280.1,114.4,278,116.5,275.4,116.5z"/>
	<path fill="#8C401F" d="M242.4,107c0,0,16.3,4.7,21.2,8.4l8.8-8.3L242.4,107z"/>
	<path fill="#FCC10E" d="M263.3,112.8l10.1-10.5l-49.2,0C224.2,102.3,246.6,103.8,263.3,112.8z"/>
	<path fill="#FBBA5D" d="M215.5,88.7c0,0,4.1-18,24.2-22C239.7,66.8,224.6,75.3,215.5,88.7z"/>
</g>
</svg>
