<?xml version="1.0" encoding="utf-8"?>
<!-- Generator: Adobe Illustrator 26.0.1, SVG Export Plug-In . SVG Version: 6.00 Build 0)  -->
<svg version="1.1" id="Character" xmlns="http://www.w3.org/2000/svg" xmlns:xlink="http://www.w3.org/1999/xlink" x="0px" y="0px"
	 viewBox="0 0 504 576" enable-background="new 0 0 504 576" xml:space="preserve">
<path opacity="0.25" fill-rule="evenodd" clip-rule="evenodd" fill="#D1D3D4" d="M441.3,536.5c6.9-1.9,10.7-3.9,10.7-6
	c0-10.8-100.3-19.6-224-19.6c-123.7,0-224,8.8-224,19.6c0,5.3,23.9,10.1,62.7,13.6c-6.9,1.9-10.7,3.9-10.7,6
	c0,10.8,100.3,19.6,224,19.6c123.7,0,224-8.8,224-19.6C504,544.8,480.1,540,441.3,536.5z"/>
<path fill-rule="evenodd" clip-rule="evenodd" fill="#A81D21" d="M395.2,80.7H184.1v-9.6c0-8.2,6.7-14.9,14.9-14.9h181.3
	c8.2,0,14.9,6.7,14.9,14.9V80.7L395.2,80.7z M380.3,19.3H199c-28.7,0-52.3,23.5-52.3,52.2v421.1c0,28.7,23.5,52.3,52.3,52.3h181.3
	c28.7,0,52.3-23.5,52.3-52.3V71.5C432.6,42.8,409.1,19.3,380.3,19.3z"/>
<path fill-rule="evenodd" clip-rule="evenodd" fill="#FEF2EF" d="M395.2,80.7H184.1v-9.6c0-8.2,6.7-14.9,14.9-14.9h181.3
	c8.2,0,14.9,6.7,14.9,14.9V80.7L395.2,80.7z M380.3,37.5H199c-18.5,0-33.6,15.1-33.6,33.6v421.1c0,18.5,15.1,33.6,33.6,33.6h181.3
	c18.5,0,33.6-15.1,33.6-33.6V71.1C413.9,52.6,398.9,37.5,380.3,37.5z"/>
<path fill-rule="evenodd" clip-rule="evenodd" fill="#F8D2CB" d="M395.2,71.1v9.6H184.1v-9.6c0-8.2,6.7-14.9,14.9-14.9h181.3
	C388.6,56.2,395.2,62.9,395.2,71.1z"/>
<path fill-rule="evenodd" clip-rule="evenodd" fill="#FFFFFF" d="M395.2,80.7v411.5c0,8.2-6.7,14.9-14.9,14.9H199
	c-8.2,0-14.9-6.7-14.9-14.9V80.7H395.2z"/>
<path fill-rule="evenodd" clip-rule="evenodd" fill="#FFFFFF" d="M210.7,68.5c0,3.4-2.7,6.1-6.1,6.1c-3.4,0-6.1-2.7-6.1-6.1
	c0-3.4,2.7-6.1,6.1-6.1C208,62.4,210.7,65.1,210.7,68.5z"/>
<path fill-rule="evenodd" clip-rule="evenodd" fill="#FFFFFF" d="M227.9,68.5c0,3.4-2.7,6.1-6.1,6.1c-3.4,0-6.1-2.7-6.1-6.1
	c0-3.4,2.7-6.1,6.1-6.1C225.1,62.4,227.9,65.1,227.9,68.5z"/>
<path fill-rule="evenodd" clip-rule="evenodd" fill="#FFFFFF" d="M245,68.5c0,3.4-2.7,6.1-6.1,6.1c-3.4,0-6.1-2.7-6.1-6.1
	c0-3.4,2.7-6.1,6.1-6.1C242.3,62.4,245,65.1,245,68.5z"/>
<rect x="192.3" y="89.5" fill-rule="evenodd" clip-rule="evenodd" fill="#FDE6E1" width="29.1" height="4.3"/>
<rect x="192.3" y="97.1" fill-rule="evenodd" clip-rule="evenodd" fill="#FDE6E1" width="29.1" height="4.3"/>
<rect x="192.3" y="104.7" fill-rule="evenodd" clip-rule="evenodd" fill="#FDE6E1" width="29.1" height="4.3"/>
<rect x="367.6" y="89.5" fill-rule="evenodd" clip-rule="evenodd" fill="#FDE6E1" width="19.5" height="19.5"/>
<line fill-rule="evenodd" clip-rule="evenodd" fill="none" stroke="#F8D2CB" stroke-width="3.0869" stroke-miterlimit="10" x1="184.1" y1="466.3" x2="395.2" y2="466.3"/>
<line fill-rule="evenodd" clip-rule="evenodd" fill="none" stroke="#F8D2CB" stroke-width="3.0869" stroke-miterlimit="10" x1="288.3" y1="466.3" x2="288.3" y2="507.2"/>
<polygon fill-rule="evenodd" clip-rule="evenodd" fill="#EBA79D" points="212.1,124.2 219,124.2 232.3,154.9 232.4,154.9 
	245.7,124.2 252.5,124.2 252.5,163.4 247.8,163.4 247.8,130.5 247.7,130.5 233.7,163.4 230.9,163.4 216.8,130.5 216.7,130.5 
	216.7,163.4 212.1,163.4 "/>
<polygon fill-rule="evenodd" clip-rule="evenodd" fill="#EBA79D" points="262.2,124.2 286.8,124.2 286.8,128.6 266.8,128.6 
	266.8,140.8 285.5,140.8 285.5,145.1 266.8,145.1 266.8,159.1 287.8,159.1 287.8,163.4 262.2,163.4 "/>
<polygon fill-rule="evenodd" clip-rule="evenodd" fill="#EBA79D" points="295,124.2 300.8,124.2 323.5,156.7 323.6,156.7 
	323.6,124.2 328.2,124.2 328.2,163.4 322.4,163.4 299.7,130.9 299.6,130.9 299.6,163.4 295,163.4 "/>
<path fill-rule="evenodd" clip-rule="evenodd" fill="#EBA79D" d="M367.3,148.5c0,2.1-0.3,4.2-0.8,6.1c-0.5,1.9-1.4,3.6-2.5,5.1
	c-1.2,1.5-2.7,2.6-4.6,3.5c-1.9,0.9-4.2,1.3-6.9,1.3c-2.7,0-5-0.4-6.9-1.3c-1.9-0.9-3.4-2-4.6-3.5c-1.2-1.5-2-3.1-2.5-5.1
	c-0.5-1.9-0.8-3.9-0.8-6.1v-24.2h4.6v23.5c0,1.6,0.2,3.1,0.5,4.6c0.3,1.5,0.9,2.8,1.7,3.9c0.8,1.1,1.8,2.1,3.1,2.7
	c1.3,0.7,2.9,1,4.9,1c2,0,3.6-0.3,4.9-1c1.3-0.7,2.3-1.6,3.1-2.7c0.8-1.1,1.3-2.4,1.7-3.9c0.3-1.5,0.5-3,0.5-4.6v-23.5h4.6V148.5z"
	/>
<line fill-rule="evenodd" clip-rule="evenodd" fill="none" stroke="#EBA79D" stroke-width="1.7861" stroke-miterlimit="10" x1="196.9" y1="238.8" x2="256.4" y2="238.8"/>
<line fill-rule="evenodd" clip-rule="evenodd" fill="none" stroke="#EBA79D" stroke-width="1.7861" stroke-miterlimit="10" x1="268.3" y1="238.8" x2="340" y2="238.8"/>
<line fill-rule="evenodd" clip-rule="evenodd" fill="none" stroke="#F8D2CB" stroke-width="1.7861" stroke-miterlimit="10" x1="196.9" y1="250.4" x2="327.8" y2="250.4"/>
<line fill-rule="evenodd" clip-rule="evenodd" fill="none" stroke="#F8D2CB" stroke-width="1.7861" stroke-miterlimit="10" x1="196.9" y1="260" x2="304.1" y2="260"/>
<path fill-rule="evenodd" clip-rule="evenodd" fill="#090914" d="M362.9,250.1c0.3,0,0.5-0.1,0.7-0.2c0.2-0.1,0.4-0.2,0.6-0.4
	c0.2-0.2,0.3-0.3,0.4-0.6c0.1-0.2,0.2-0.5,0.2-0.7c0-0.3-0.1-0.5-0.2-0.7c-0.1-0.2-0.3-0.4-0.4-0.5c-0.2-0.1-0.4-0.3-0.6-0.3
	c-0.2-0.1-0.5-0.2-0.7-0.3V250.1L362.9,250.1z M362,241.2c-0.5,0.1-0.9,0.3-1.2,0.6c-0.3,0.3-0.5,0.7-0.5,1.2c0,0.3,0,0.5,0.1,0.7
	c0.1,0.2,0.2,0.3,0.4,0.5c0.2,0.1,0.3,0.3,0.5,0.3c0.2,0.1,0.4,0.2,0.6,0.2V241.2L362,241.2z M362.9,239.9c0.6,0,1.1,0.1,1.7,0.3
	c0.6,0.2,1,0.5,1.4,0.9l-1.1,1.1c-0.2-0.3-0.5-0.5-0.9-0.7c-0.3-0.2-0.7-0.3-1.1-0.3v3.7l0,0c0.5,0.1,0.9,0.3,1.3,0.4
	c0.4,0.2,0.8,0.3,1.1,0.6c0.3,0.2,0.6,0.5,0.8,0.9c0.2,0.4,0.3,0.8,0.3,1.3c0,0.5-0.1,0.9-0.3,1.3c-0.2,0.4-0.4,0.7-0.7,1
	c-0.3,0.3-0.7,0.5-1.1,0.7c-0.4,0.2-0.8,0.3-1.3,0.3v1.1H362v-1.1c-0.7,0-1.3-0.1-1.9-0.3c-0.6-0.2-1.1-0.6-1.5-1.2l1.2-1.1
	c0.2,0.4,0.6,0.7,1,0.9c0.4,0.2,0.8,0.3,1.3,0.4v-3.9c-0.4-0.1-0.8-0.2-1.2-0.4c-0.4-0.2-0.7-0.4-1-0.6c-0.3-0.3-0.5-0.6-0.7-0.9
	c-0.2-0.4-0.3-0.8-0.3-1.3c0-0.4,0.1-0.9,0.3-1.2c0.2-0.4,0.4-0.7,0.7-0.9c0.3-0.3,0.6-0.5,1-0.6c0.4-0.2,0.8-0.3,1.2-0.3v-1.1h0.8
	V239.9z"/>
<polygon fill-rule="evenodd" clip-rule="evenodd" fill="#090914" points="371.1,241.8 369.1,243.7 368.2,242.6 371.3,240.1 
	372.7,240.1 372.7,251.2 371.1,251.2 "/>
<path fill-rule="evenodd" clip-rule="evenodd" fill="#090914" d="M376.4,249.6l4.5-4.4c0.2-0.1,0.3-0.3,0.5-0.5
	c0.1-0.2,0.3-0.4,0.4-0.5c0.1-0.2,0.2-0.4,0.3-0.6c0.1-0.2,0.1-0.4,0.1-0.7c0-0.3,0-0.5-0.1-0.7c-0.1-0.2-0.2-0.4-0.4-0.6
	c-0.2-0.2-0.4-0.3-0.6-0.4c-0.2-0.1-0.5-0.1-0.7-0.1c-0.5,0-1,0.2-1.4,0.5c-0.4,0.3-0.6,0.7-0.7,1.3l-1.6-0.1
	c0.1-0.5,0.2-0.9,0.4-1.3c0.2-0.4,0.5-0.7,0.8-0.9c0.3-0.2,0.7-0.4,1.1-0.5c0.4-0.1,0.9-0.2,1.3-0.2c0.5,0,0.9,0.1,1.4,0.2
	c0.4,0.1,0.8,0.3,1.1,0.6c0.3,0.3,0.6,0.6,0.8,1c0.2,0.4,0.3,0.8,0.3,1.3c0,0.4-0.1,0.7-0.2,1c-0.1,0.3-0.3,0.6-0.4,0.9
	c-0.2,0.3-0.4,0.6-0.6,0.8c-0.2,0.3-0.5,0.5-0.7,0.7l-3.7,3.5h5.6v1.3h-7.3V249.6z"/>
<line fill-rule="evenodd" clip-rule="evenodd" fill="none" stroke="#EBA79D" stroke-width="1.7861" stroke-miterlimit="10" x1="196.9" y1="287.1" x2="256.4" y2="287.1"/>
<line fill-rule="evenodd" clip-rule="evenodd" fill="none" stroke="#EBA79D" stroke-width="1.7861" stroke-miterlimit="10" x1="268.3" y1="287.1" x2="340" y2="287.1"/>
<line fill-rule="evenodd" clip-rule="evenodd" fill="none" stroke="#F8D2CB" stroke-width="1.7861" stroke-miterlimit="10" x1="196.9" y1="298.8" x2="327.8" y2="298.8"/>
<line fill-rule="evenodd" clip-rule="evenodd" fill="none" stroke="#F8D2CB" stroke-width="1.7861" stroke-miterlimit="10" x1="196.9" y1="308.3" x2="304.1" y2="308.3"/>
<line fill-rule="evenodd" clip-rule="evenodd" fill="none" stroke="#EBA79D" stroke-width="1.7861" stroke-miterlimit="10" x1="196.9" y1="335.5" x2="256.4" y2="335.5"/>
<line fill-rule="evenodd" clip-rule="evenodd" fill="none" stroke="#EBA79D" stroke-width="1.7861" stroke-miterlimit="10" x1="268.3" y1="335.5" x2="340" y2="335.5"/>
<line fill-rule="evenodd" clip-rule="evenodd" fill="none" stroke="#F8D2CB" stroke-width="1.7861" stroke-miterlimit="10" x1="196.9" y1="347.2" x2="327.8" y2="347.2"/>
<line fill-rule="evenodd" clip-rule="evenodd" fill="none" stroke="#F8D2CB" stroke-width="1.7861" stroke-miterlimit="10" x1="196.9" y1="356.7" x2="304.1" y2="356.7"/>
<line fill-rule="evenodd" clip-rule="evenodd" fill="none" stroke="#EBA79D" stroke-width="1.7861" stroke-miterlimit="10" x1="196.9" y1="383.9" x2="256.4" y2="383.9"/>
<line fill-rule="evenodd" clip-rule="evenodd" fill="none" stroke="#EBA79D" stroke-width="1.7861" stroke-miterlimit="10" x1="268.3" y1="383.9" x2="340" y2="383.9"/>
<line fill-rule="evenodd" clip-rule="evenodd" fill="none" stroke="#F8D2CB" stroke-width="1.7861" stroke-miterlimit="10" x1="196.9" y1="395.5" x2="327.8" y2="395.5"/>
<line fill-rule="evenodd" clip-rule="evenodd" fill="none" stroke="#F8D2CB" stroke-width="1.7861" stroke-miterlimit="10" x1="196.9" y1="405.1" x2="304.1" y2="405.1"/>
<line fill-rule="evenodd" clip-rule="evenodd" fill="none" stroke="#EBA79D" stroke-width="1.7861" stroke-miterlimit="10" x1="196.9" y1="432.3" x2="256.4" y2="432.3"/>
<line fill-rule="evenodd" clip-rule="evenodd" fill="none" stroke="#EBA79D" stroke-width="1.7861" stroke-miterlimit="10" x1="268.3" y1="432.3" x2="340" y2="432.3"/>
<line fill-rule="evenodd" clip-rule="evenodd" fill="none" stroke="#F8D2CB" stroke-width="1.7861" stroke-miterlimit="10" x1="196.9" y1="443.9" x2="327.8" y2="443.9"/>
<line fill-rule="evenodd" clip-rule="evenodd" fill="none" stroke="#F8D2CB" stroke-width="1.7861" stroke-miterlimit="10" x1="196.9" y1="453.5" x2="304.1" y2="453.5"/>
<path fill-rule="evenodd" clip-rule="evenodd" fill="#090914" d="M363,298.5c0.3,0,0.5-0.1,0.7-0.2c0.2-0.1,0.4-0.2,0.6-0.4
	c0.2-0.2,0.3-0.3,0.4-0.6c0.1-0.2,0.1-0.5,0.1-0.7c0-0.3-0.1-0.5-0.2-0.7c-0.1-0.2-0.3-0.4-0.4-0.5c-0.2-0.1-0.4-0.3-0.6-0.3
	c-0.2-0.1-0.5-0.2-0.7-0.3V298.5L363,298.5z M362.1,289.6c-0.5,0.1-0.9,0.3-1.2,0.6c-0.3,0.3-0.5,0.7-0.5,1.2c0,0.3,0,0.5,0.1,0.7
	c0.1,0.2,0.2,0.3,0.4,0.5c0.2,0.1,0.3,0.3,0.5,0.3c0.2,0.1,0.4,0.2,0.6,0.2V289.6L362.1,289.6z M363,288.3c0.6,0,1.1,0.1,1.7,0.3
	c0.6,0.2,1,0.5,1.4,0.9l-1.1,1.1c-0.2-0.3-0.5-0.5-0.9-0.7c-0.3-0.2-0.7-0.3-1.1-0.3v3.7l0,0c0.5,0.1,0.9,0.3,1.3,0.4
	c0.4,0.2,0.8,0.3,1.1,0.6c0.3,0.2,0.6,0.5,0.8,0.9c0.2,0.4,0.3,0.8,0.3,1.3c0,0.5-0.1,0.9-0.3,1.3c-0.2,0.4-0.4,0.7-0.7,1
	c-0.3,0.3-0.7,0.5-1.1,0.7c-0.4,0.2-0.8,0.3-1.3,0.3v1.1h-0.8v-1.1c-0.7,0-1.3-0.1-1.9-0.3c-0.6-0.2-1.1-0.6-1.5-1.2l1.2-1.1
	c0.2,0.4,0.6,0.7,1,0.9c0.4,0.2,0.8,0.3,1.3,0.4v-3.9c-0.4-0.1-0.8-0.2-1.2-0.4c-0.4-0.2-0.7-0.4-1-0.6c-0.3-0.3-0.5-0.6-0.7-0.9
	c-0.2-0.4-0.3-0.8-0.3-1.3c0-0.4,0.1-0.9,0.3-1.2c0.2-0.4,0.4-0.7,0.7-0.9c0.3-0.3,0.6-0.5,1-0.6c0.4-0.2,0.8-0.3,1.2-0.3v-1.1h0.8
	V288.3z"/>
<path fill-rule="evenodd" clip-rule="evenodd" fill="#090914" d="M364,346.8c0.3,0,0.5-0.1,0.7-0.2c0.2-0.1,0.4-0.2,0.6-0.4
	c0.2-0.2,0.3-0.3,0.4-0.6c0.1-0.2,0.1-0.5,0.1-0.7c0-0.3-0.1-0.5-0.2-0.7c-0.1-0.2-0.3-0.4-0.4-0.5c-0.2-0.1-0.4-0.3-0.6-0.3
	c-0.2-0.1-0.5-0.2-0.7-0.3V346.8L364,346.8z M363.2,338c-0.5,0.1-0.9,0.3-1.2,0.6c-0.3,0.3-0.5,0.7-0.5,1.2c0,0.3,0,0.5,0.1,0.7
	c0.1,0.2,0.2,0.3,0.4,0.5c0.2,0.1,0.3,0.3,0.5,0.3c0.2,0.1,0.4,0.2,0.6,0.2V338L363.2,338z M364,336.7c0.6,0,1.1,0.1,1.7,0.3
	c0.6,0.2,1,0.5,1.4,0.9L366,339c-0.2-0.3-0.5-0.5-0.9-0.7c-0.3-0.2-0.7-0.3-1.1-0.3v3.7l0,0c0.5,0.1,0.9,0.3,1.3,0.4
	c0.4,0.2,0.8,0.3,1.1,0.6c0.3,0.2,0.6,0.5,0.8,0.9c0.2,0.4,0.3,0.8,0.3,1.3c0,0.5-0.1,0.9-0.3,1.3c-0.2,0.4-0.4,0.7-0.7,1
	c-0.3,0.3-0.7,0.5-1.1,0.7c-0.4,0.2-0.8,0.3-1.3,0.3v1.1h-0.8v-1.1c-0.7,0-1.3-0.1-1.9-0.3c-0.6-0.2-1.1-0.6-1.5-1.2l1.2-1.1
	c0.2,0.4,0.6,0.7,1,0.9c0.4,0.2,0.8,0.3,1.3,0.4V343c-0.4-0.1-0.8-0.2-1.2-0.4c-0.4-0.2-0.7-0.4-1-0.6c-0.3-0.3-0.5-0.6-0.7-0.9
	c-0.2-0.4-0.3-0.8-0.3-1.3c0-0.4,0.1-0.9,0.3-1.2c0.2-0.4,0.4-0.7,0.7-0.9c0.3-0.3,0.6-0.5,1-0.6c0.4-0.2,0.8-0.3,1.2-0.3v-1.1h0.8
	V336.7z"/>
<path fill-rule="evenodd" clip-rule="evenodd" fill="#090914" d="M363.1,395.2c0.3,0,0.5-0.1,0.7-0.2c0.2-0.1,0.4-0.2,0.6-0.4
	c0.2-0.2,0.3-0.3,0.4-0.6c0.1-0.2,0.2-0.5,0.2-0.7c0-0.3-0.1-0.5-0.2-0.7c-0.1-0.2-0.3-0.4-0.4-0.5c-0.2-0.1-0.4-0.3-0.6-0.3
	c-0.2-0.1-0.5-0.2-0.7-0.3V395.2L363.1,395.2z M362.2,386.3c-0.5,0.1-0.9,0.3-1.2,0.6c-0.3,0.3-0.5,0.7-0.5,1.2c0,0.3,0,0.5,0.1,0.7
	c0.1,0.2,0.2,0.3,0.4,0.5c0.2,0.1,0.3,0.3,0.5,0.3c0.2,0.1,0.4,0.2,0.6,0.2V386.3L362.2,386.3z M363.1,385c0.6,0,1.1,0.1,1.7,0.3
	c0.6,0.2,1,0.5,1.4,0.9l-1.1,1.1c-0.2-0.3-0.5-0.5-0.9-0.7c-0.3-0.2-0.7-0.3-1.1-0.3v3.7l0,0c0.5,0.1,0.9,0.3,1.3,0.4
	c0.4,0.2,0.8,0.3,1.1,0.6c0.3,0.2,0.6,0.5,0.8,0.9c0.2,0.4,0.3,0.8,0.3,1.3c0,0.5-0.1,0.9-0.3,1.3c-0.2,0.4-0.4,0.7-0.7,1
	c-0.3,0.3-0.7,0.5-1.1,0.7c-0.4,0.2-0.8,0.3-1.3,0.3v1.1h-0.8v-1.1c-0.7,0-1.3-0.1-1.9-0.3c-0.6-0.2-1.1-0.6-1.5-1.2l1.2-1.1
	c0.2,0.4,0.6,0.7,1,0.9c0.4,0.2,0.8,0.3,1.3,0.4v-3.9c-0.4-0.1-0.8-0.2-1.2-0.4c-0.4-0.2-0.7-0.4-1-0.6c-0.3-0.3-0.5-0.6-0.7-0.9
	c-0.2-0.4-0.3-0.8-0.3-1.3c0-0.4,0.1-0.9,0.3-1.2c0.2-0.4,0.4-0.7,0.7-0.9c0.3-0.3,0.6-0.5,1-0.6c0.4-0.2,0.8-0.3,1.2-0.3v-1.1h0.8
	V385z"/>
<path fill-rule="evenodd" clip-rule="evenodd" fill="#090914" d="M362.9,443.6c0.3,0,0.5-0.1,0.7-0.2c0.2-0.1,0.4-0.2,0.6-0.4
	c0.2-0.2,0.3-0.3,0.4-0.6c0.1-0.2,0.2-0.5,0.2-0.7c0-0.3-0.1-0.5-0.2-0.7c-0.1-0.2-0.3-0.4-0.4-0.5c-0.2-0.1-0.4-0.3-0.6-0.3
	c-0.2-0.1-0.5-0.2-0.7-0.3V443.6L362.9,443.6z M362,434.7c-0.5,0.1-0.9,0.3-1.2,0.6c-0.3,0.3-0.5,0.7-0.5,1.2c0,0.3,0,0.5,0.1,0.7
	c0.1,0.2,0.2,0.3,0.4,0.5c0.2,0.1,0.3,0.3,0.5,0.3c0.2,0.1,0.4,0.2,0.6,0.2V434.7L362,434.7z M362.9,433.4c0.6,0,1.1,0.1,1.7,0.3
	c0.6,0.2,1,0.5,1.4,0.9l-1.1,1.1c-0.2-0.3-0.5-0.5-0.9-0.7c-0.3-0.2-0.7-0.3-1.1-0.3v3.7l0,0c0.5,0.1,0.9,0.3,1.3,0.4
	c0.4,0.2,0.8,0.3,1.1,0.6c0.3,0.2,0.6,0.5,0.8,0.9c0.2,0.4,0.3,0.8,0.3,1.3c0,0.5-0.1,0.9-0.3,1.3c-0.2,0.4-0.4,0.7-0.7,1
	c-0.3,0.3-0.7,0.5-1.1,0.7c-0.4,0.2-0.8,0.3-1.3,0.3v1.1H362v-1.1c-0.7,0-1.3-0.1-1.9-0.3c-0.6-0.2-1.1-0.6-1.5-1.2l1.2-1.1
	c0.2,0.4,0.6,0.7,1,0.9c0.4,0.2,0.8,0.3,1.3,0.4v-3.9c-0.4-0.1-0.8-0.2-1.2-0.4c-0.4-0.2-0.7-0.4-1-0.6c-0.3-0.3-0.5-0.6-0.7-0.9
	c-0.2-0.4-0.3-0.8-0.3-1.3c0-0.4,0.1-0.9,0.3-1.2c0.2-0.4,0.4-0.7,0.7-0.9c0.3-0.3,0.6-0.5,1-0.6c0.4-0.2,0.8-0.3,1.2-0.3v-1.1h0.8
	V433.4z"/>
<path fill-rule="evenodd" clip-rule="evenodd" fill="#F7B693" d="M449.4,522.7c-1.2,4.2-2.8,7.6-2.8,11.5v10.9h52.8
	c0,0,1.7-5.7-2.1-8.1c-2.3-1.4-7.6-2.3-12.1-4.4c-0.6-0.3-1.1-0.6-1.6-0.9c-0.7-0.4-1.4-0.9-2.1-1.4c-0.5-0.4-1-0.9-1.4-1.4
	c-0.7-0.8-1.3-1.8-1.7-2.8c-0.2-0.5-0.3-1.2-0.4-2.2c-1.5-14.8,6.1-85.9,7.3-101.1c0.1-0.9,0.2-1.9,0.2-2.9
	c0-10.4-8.4-18.9-18.9-18.9c-10.4,0-17.8,8.6-20.9,18.6C438.1,444.4,456.1,499.3,449.4,522.7z"/>
<path fill-rule="evenodd" clip-rule="evenodd" fill="#403035" d="M446.6,534.2v10.9h52.8c0,0,1.7-5.7-2.1-8.1
	c-2.3-1.4-7.6-2.3-12.1-4.4c-0.6-0.3-1.1-0.6-1.6-0.9c-0.7-0.4-1.4-0.9-2.1-1.4c-0.5-0.4-1-0.9-1.4-1.4c-0.7-0.8-1.3-1.8-1.7-2.8
	c-0.2-0.5-0.3-1.2-0.4-2.2c-2.6,0.1-7.7,0.6-8.5,3.5c-1.1,3.9-8.5,4.6-11.3,2.2c-2.4-2.1-4-6.8-8.7-6.9
	C448.4,526.9,446.6,530.2,446.6,534.2z"/>
<path fill-rule="evenodd" clip-rule="evenodd" fill="#B2E2F0" d="M481.5,535.8l1.9,0.8c0.3-1.7,1.1-3.1,1.8-3.9
	c-0.6-0.3-1.1-0.6-1.6-0.9C482,533.4,481.5,535.8,481.5,535.8z"/>
<path fill-rule="evenodd" clip-rule="evenodd" fill="#B2E2F0" d="M476.5,534.3l1.9,0.8c0.3-1.9,1.9-3.7,3-4.8
	c-0.5-0.4-1-0.9-1.4-1.4C478.1,530.8,476.5,534.3,476.5,534.3z"/>
<line fill-rule="evenodd" clip-rule="evenodd" fill="none" stroke="#B2E2F0" stroke-width="1.5219" stroke-miterlimit="10" x1="495.9" y1="540.8" x2="446.6" y2="540.8"/>
<path fill-rule="evenodd" clip-rule="evenodd" fill="none" stroke="#F7B693" stroke-width="1.258" stroke-miterlimit="10" d="
	M484.7,424.3c0,11-8.9,20-20,20c-11,0-20-8.9-20-20c0-11,8.9-20,20-20C475.7,404.3,484.7,413.3,484.7,424.3z"/>
<path fill-rule="evenodd" clip-rule="evenodd" fill="none" stroke="#F7B693" stroke-width="1.258" stroke-miterlimit="10" d="
	M485.6,424.3c0,10.8-9.1,19.5-20.4,19.5c-11.3,0-20.4-8.7-20.4-19.5c0-10.8,9.1-19.5,20.4-19.5C476.4,404.7,485.6,413.5,485.6,424.3
	z"/>
<path fill-rule="evenodd" clip-rule="evenodd" fill="#F7B693" d="M356,233.7l-1.8-1.6h-11.2c-1.5,0-2.8-0.8-3.5-2l-5.7-10.1
	c-0.2-0.3,0-0.7,0.4-0.8c1.2-0.3,2.4,0.1,3.1,1.1l5.4,6.5l8.5-2c1.3-0.3,2.7-0.2,4,0.3l0,0c1.7,0.7,2.9,2,3.6,3.7l1.4,3.7L356,233.7
	z"/>
<path fill-rule="evenodd" clip-rule="evenodd" fill="#090914" d="M464.7,314.1c-12.7,0-23,10.3-23,23l0.9,87.2
	c0,12.2,9.9,22.1,22.1,22.1c12.2,0,22.1-9.9,22.1-22.1l0.9-87.2C487.7,324.4,477.4,314.1,464.7,314.1z"/>
<path fill-rule="evenodd" clip-rule="evenodd" fill="#F7B693" d="M364.8,227.6c0,0-3.3-4.3-4.5-5.9c-1.3-1.6-4.9-1.5-7.3-1.2
	c-2,0.2-7,0.3-9.5,0.3c-0.8,0-1.4,0.6-1.4,1.4c0,0.8,0.6,1.4,1.4,1.4l5.8,0l3.3,3.4l5.1,5.9l8.3-3.1L364.8,227.6z"/>
<path fill-rule="evenodd" clip-rule="evenodd" fill="#090914" d="M486.8,424.3c0-12.2-9.9-22.1-22.1-22.1
	c-12.2,0-22.1,9.9-22.1,22.1c0,0.5,0,1,0.1,1.5l3,80.4h38.2l3-80.4C486.8,425.3,486.8,424.8,486.8,424.3z"/>
<path fill-rule="evenodd" clip-rule="evenodd" fill="#2A2558" d="M484.8,513.9h-39.3c-1.6,0-2.9-1.3-2.9-2.9v-9.7
	c0-1.6,1.3-2.9,2.9-2.9h39.3c1.6,0,2.9,1.3,2.9,2.9v9.7C487.7,512.6,486.4,513.9,484.8,513.9z"/>
<path fill-rule="evenodd" clip-rule="evenodd" fill="#F7B693" d="M397.9,522.7c-0.2,4.4,2.8,7.6,2.8,11.5v10.9H348
	c0,0-1.7-5.7,2.1-8.1c2.3-1.4,7.6-2.3,12.1-4.4c0.6-0.3,1.1-0.6,1.6-0.9c0.7-0.4,1.4-0.9,2.1-1.4c0.5-0.4,1-0.9,1.4-1.4
	c0.7-0.8,1.3-1.8,1.7-2.8c0.2-0.5,0.3-1.2,0.4-2.2c1.5-14.8,18.5-103,18.5-103.9c0-10.4,8.4-18.9,18.9-18.9
	c10.4,0,14.1,7.8,17.2,17.7C431.6,443.5,398.7,500.8,397.9,522.7z"/>
<path fill-rule="evenodd" clip-rule="evenodd" fill="#F3EDDD" d="M380.2,289.1c0.6,0.5,1.3,0.9,2,1.3c0.4,0.2,0.7,0.4,1.1,0.5
	c2.2,1.1,4.6,1.6,7,1.6c0.2,0,0.5,0,0.7,0c2.5,0,4.9-0.6,7.2-1.6c0,0,0,0,0.1,0c3.1-1.5,5.9-3.9,7.7-7.2l14.1-25.1l0,0l12.5-22.3
	c4.7-8.3,1.7-19-6.7-23.7c-4-2.2-8.5-2.7-12.7-1.7c-4.5,1.1-8.5,4-11,8.4l-21.6,38.6l-5,8.9C371.2,274.4,373.4,284,380.2,289.1z"/>
<path fill-rule="evenodd" clip-rule="evenodd" fill="#403035" d="M400.7,534.2v10.9H348c0,0-1.7-5.7,2.1-8.1
	c2.3-1.4,7.6-2.3,12.1-4.4c0.6-0.3,1.1-0.6,1.6-0.9c0.7-0.4,1.4-0.9,2.1-1.4c0.5-0.4,1-0.9,1.4-1.4c0.7-0.8,1.3-1.8,1.7-2.8
	c0.2-0.5,0.3-1.2,0.4-2.2c2.6,0.1,7.7,0.6,8.5,3.5c1.1,3.9,8.5,4.6,11.3,2.2c2.4-2.1,4-6.8,8.7-6.9
	C398.9,526.9,400.7,530.2,400.7,534.2z"/>
<path fill-rule="evenodd" clip-rule="evenodd" fill="#F3EDDD" d="M350.6,233.9c1.4,3.3,7.8,17.3,15.1,32.1c1.8,3.7,3.4,6.7,4.8,9.3
	l0,0c1.3,2.4,2.4,4.3,3.3,5.8c0.5,0.9,1,1.6,1.3,2.2c0.7,1.4,1.6,2.7,2.6,3.8c0.2,0.2,0.3,0.3,0.5,0.5c1.7,1.7,3.9,3,6.4,3.7
	c0,0,0.1,0,0.1,0c0.5,0.1,1.1,0.3,1.7,0.4c7,1.1,13.9-2.9,16.7-9.2c0.5-1.2,0.9-2.5,1.2-3.8c0.7-4.2,0.5-8.9-1.9-12.1
	c-0.7-1.2-3.8-5.8-7.9-11.5c-8.4-11.8-20.8-28.5-23.9-31.8L350.6,233.9z"/>
<path fill-rule="evenodd" clip-rule="evenodd" fill="#B2E2F0" d="M365.9,535.8l-1.9,0.8c-0.3-1.7-1.1-3.1-1.8-3.9
	c0.6-0.3,1.1-0.6,1.6-0.9C365.4,533.4,365.9,535.8,365.9,535.8z"/>
<path fill-rule="evenodd" clip-rule="evenodd" fill="#B2E2F0" d="M370.8,534.3l-1.9,0.8c-0.3-1.9-1.9-3.7-3-4.8
	c0.5-0.4,1-0.9,1.4-1.4C369.3,530.8,370.8,534.3,370.8,534.3z"/>
<line fill-rule="evenodd" clip-rule="evenodd" fill="none" stroke="#B2E2F0" stroke-width="1.5219" stroke-miterlimit="10" x1="351.5" y1="540.8" x2="400.7" y2="540.8"/>
<path fill-rule="evenodd" clip-rule="evenodd" fill="#DDD3B9" d="M377.6,286.8c2.6,2.2,3.9,3.7,5.6,4.1c2.2,1.1,4.6,1.6,7,1.6
	c0.2,0,0.5,0,0.7,0c2.4,0.1,4.9-0.5,7.2-1.6c0,0,0,0,0.1,0c3.1-1.5,5.9-3.9,7.7-7.2l14.1-25.1l0,0l-3.6-13.2c0,0,1.1,6.6-1.2,12.5
	c-1.9,4.9-6.7,8-9.6,14.2c-0.5,1.2-1,2.5-1.4,4c-2.1,7.8-14,12.2-22.4,12.5C380.5,288.5,379.2,287.9,377.6,286.8z"/>
<path fill-rule="evenodd" clip-rule="evenodd" fill="none" stroke="#F7B693" stroke-width="1.258" stroke-miterlimit="10" d="
	M388.7,416.8c-2.7,10.7,3.8,21.5,14.5,24.2c10.7,2.7,21.5-3.8,24.2-14.5c2.7-10.7-3.8-21.5-14.5-24.2
	C402.2,399.6,391.4,406.1,388.7,416.8z"/>
<path fill-rule="evenodd" clip-rule="evenodd" fill="none" stroke="#F7B693" stroke-width="1.258" stroke-miterlimit="10" d="
	M387.9,416.6c-2.6,10.5,4.1,21.2,15.1,23.9c10.9,2.7,21.9-3.6,24.5-14c2.6-10.5-4.1-21.2-15.1-23.9
	C401.5,399.8,390.5,406.1,387.9,416.6z"/>
<path fill-rule="evenodd" clip-rule="evenodd" fill="#090914" d="M434.8,314.7c12.3,3.1,19.8,15.6,16.8,27.9l-22,84.4
	c-3,11.9-15,19.1-26.8,16.1c-11.9-3-19.1-15-16.1-26.8l20.2-84.8C409.9,319.1,422.4,311.6,434.8,314.7z"/>
<path fill-rule="evenodd" clip-rule="evenodd" fill="#090914" d="M386.6,416.3c3-11.9,15-19.1,26.8-16.1c11.9,3,19.1,15,16.1,26.8
	c-0.1,0.5-0.3,1-0.4,1.4l-22.3,77.3l-37.1-9.2l16.6-78.8C386.4,417.2,386.5,416.7,386.6,416.3z"/>
<path fill-rule="evenodd" clip-rule="evenodd" fill="#2A2558" d="M365.9,507.6l38.2,9.5c1.5,0.4,3.1-0.6,3.5-2.1l2.3-9.4
	c0.4-1.5-0.6-3.1-2.1-3.5l-38.2-9.5c-1.5-0.4-3.1,0.6-3.5,2.1l-2.3,9.4C363.4,505.7,364.4,507.2,365.9,507.6z"/>
<polygon fill-rule="evenodd" clip-rule="evenodd" fill="#090914" points="487.7,337.1 488.7,309 411.3,309.6 406,335 "/>
<path fill-rule="evenodd" clip-rule="evenodd" fill="#F3EDDD" d="M411.3,309.6c0,0,2.7,5.4,37.2,4.4c18.3-0.5,40.1-5.1,40.1-5.1
	s-1.9-10.9-2.7-23.7c-1.6-27.8,0.3-78.8,0.3-78.8l-24.5-7.9h-21.4L411,211.6L411.3,309.6z"/>
<path fill-rule="evenodd" clip-rule="evenodd" fill="#F7B693" d="M461.7,198.6c0,0-10.3,6.1-21.4,0.2l0.2-4.4l0.4-3.7l0.6-5.8
	l0.3-3.1l5.1-0.6l0,0l13.4-1.5L461.7,198.6z"/>
<path fill-rule="evenodd" clip-rule="evenodd" fill="#C76F39" d="M452.5,189.4c-4.3,4.5-9.9,5-12,5l0.4-3.7l0.6-5.8l2.9-0.9l0,0
	C450.2,184.9,455.1,186.6,452.5,189.4z"/>
<path fill-rule="evenodd" clip-rule="evenodd" fill="#F7B693" d="M436.5,178.7c-1.5,6.6-0.5,11.1,12.6,11.2
	c6.8,0,11.2-3.6,12.3-10.2l2.3-13.8c0.9-5.7-2.9-11-8.6-11.9c-5.6-0.9-12,2.8-13,8.4c-0.7,3.5-1.5,5.4-2.6,7.9
	C438.6,172.4,437,176.7,436.5,178.7z"/>
<path fill-rule="evenodd" clip-rule="evenodd" fill="#703541" d="M461.7,178c0,0-3.7-1.5-2.6-5c1.1-3.5,1.5-11.1-4.1-11.8
	c-5.6-0.7-7.8-3.7-7.8-3.7s-4.1,0.6-5,4.3c-0.9,3.6-5.1,2.3-5.3,0.1c0,0,2.2,0.9,2.7-1c0.6-1.8,0.3-3.7,2.1-4.5c0,0-3,0.7-3.6-2.3
	c0,0,2.1,1.5,5.2-1.6c2.5-2.5,11.4-7.1,17.4,2.7c0,0,7.1-0.4,8.8,4.7C472.4,168.5,461.7,178,461.7,178z"/>
<path fill-rule="evenodd" clip-rule="evenodd" fill="#F7B693" d="M457.9,181.4c1,1.7,3.5,2,5.6,0.8c2.1-1.2,3-3.6,2-5.3
	c-1-1.7-3.5-2-5.6-0.8C457.8,177.4,456.9,179.8,457.9,181.4z"/>
<line fill-rule="evenodd" clip-rule="evenodd" fill="none" stroke="#DE8450" stroke-width="0.8031" stroke-linecap="round" stroke-linejoin="round" stroke-miterlimit="10" x1="459.2" y1="179.8" x2="463.5" y2="178"/>
<path fill-rule="evenodd" clip-rule="evenodd" fill="#090914" d="M454.2,169.1c-0.2,0.2-0.9-0.3-1.7-1c-0.8-0.7-1.2-1.4-1.1-1.6
	c0.2-0.2,0.9,0.3,1.7,1C453.9,168.3,454.3,169,454.2,169.1z"/>
<path fill-rule="evenodd" clip-rule="evenodd" fill="#090914" d="M445.6,164.7c0.1,0.2-0.6,0.7-1.5,1c-0.9,0.3-1.7,0.4-1.8,0.2
	c-0.1-0.2,0.6-0.7,1.5-1C444.8,164.6,445.6,164.5,445.6,164.7z"/>
<path fill-rule="evenodd" clip-rule="evenodd" fill="#FFFFFF" d="M443.4,179.7c0,0,3.1,0.7,5.1-0.5c0,0-0.6,2.6-2.4,2.5
	C444.3,181.7,443.4,179.7,443.4,179.7z"/>
<path fill-rule="evenodd" clip-rule="evenodd" fill="none" stroke="#DE8450" stroke-width="0.8031" stroke-linecap="round" stroke-linejoin="round" stroke-miterlimit="10" d="
	M446.7,169.9c0,0-1.9,3.8-4.2,4.8c0,0,0.5,1.9,3.1,2.3"/>
<path fill-rule="evenodd" clip-rule="evenodd" fill="#090914" d="M462.3,198.1c0,0,7.4,3.2,13.7,5.1c0,0-11,5.1-10.8,24.6
	c0.2,19.6,12.9,25,20.1,18.4c0,0,0.9,42.1,2,54.1l-39.2,17.6l-10.7-13.8c0,0-0.6-48.6,2.8-69.1C440.3,235,460.1,207.4,462.3,198.1z"
	/>
<path fill-rule="evenodd" clip-rule="evenodd" fill="#090914" d="M411,251.5v51l15.2,15.4l11.4-13.8l2.8-69.2
	c-7-19.4-1.2-35.9-1.2-35.9l-19.2,8.5C422.3,231.5,411,251.5,411,251.5z"/>
<path fill-rule="evenodd" clip-rule="evenodd" fill="#2A2558" d="M439.1,199.1c0,0-5.9,18.1,1.2,35.9c0,0-10.2-11-10.5-20.8l3.6-3.8
	l-0.3-8.6L439.1,199.1z"/>
<path fill-rule="evenodd" clip-rule="evenodd" fill="#090914" d="M450.2,171.1c-0.2,0.7,0,1.3,0.4,1.4c0.4,0.1,0.8-0.4,0.9-1.1
	c0.2-0.7,0-1.3-0.4-1.4C450.7,169.9,450.3,170.4,450.2,171.1z"/>
<path fill-rule="evenodd" clip-rule="evenodd" fill="#2A2558" d="M462.3,198.1l8,3.2l-10.1,9.1l2.7,9.5l-23,14.1
	C440,234.1,458.5,207.6,462.3,198.1z"/>
<path fill-rule="evenodd" clip-rule="evenodd" fill="#F7B693" d="M341.5,231.4l-13.3-6.6c-0.4-0.2-0.5-0.6-0.4-1
	c0.4-0.8,1.4-1.3,2.3-1l12.1,3.9L341.5,231.4z"/>
<path fill-rule="evenodd" clip-rule="evenodd" fill="#F7B693" d="M343.7,230.5l-5.2-10.8c-0.2-0.3,0-0.7,0.3-0.8
	c0.7-0.3,1.5-0.1,1.9,0.5l5.8,8.4L343.7,230.5z"/>
<path fill-rule="evenodd" clip-rule="evenodd" fill="#F3EDDD" d="M487.5,295.3L487.5,295.3c9.5-0.5,16.9-8.8,16.4-18.4l-3.1-54.4
	c-0.5-9.5-8.8-16.9-18.4-16.4c-9.5,0.5-16.9,8.8-16.4,18.4l3.1,54.4C469.7,288.5,477.9,295.9,487.5,295.3z"/>
<path fill-rule="evenodd" clip-rule="evenodd" fill="#090914" d="M442.7,169.4c-0.2,0.7,0,1.3,0.4,1.4c0.3,0.1,0.8-0.4,0.9-1.1
	c0.2-0.7,0-1.3-0.4-1.4C443.3,168.2,442.9,168.7,442.7,169.4z"/>
<line fill-rule="evenodd" clip-rule="evenodd" fill="none" stroke="#090914" stroke-width="0.6829" stroke-linecap="round" stroke-linejoin="round" stroke-miterlimit="10" x1="387.5" y1="245.4" x2="396.3" y2="257.5"/>
<path fill-rule="evenodd" clip-rule="evenodd" fill="#F7B693" d="M503.9,280.1C503.9,280.1,503.9,280.1,503.9,280.1
	c-0.5,5.7-4.1,11-9.7,13.5c-0.2,0.1-0.3,0.2-0.5,0.2l-0.1,0c-1.7,0.7-3.4,1.1-5.1,1.2c-1.1,0-3-0.2-5.4-0.5c-10-1.2-29.3-4-41.4-5.4
	c-3.8-0.4-16.5-0.7-18.4-0.7c-9.3-0.1-1.4-17.9,1.6-17.9c2.7,0,13.5,0.6,17.8,0.2c1.2-0.1,2.5-0.2,3.8-0.4c3.9-0.5,23.6-4.1,37-6.6
	c1.2-0.2,2.4-0.4,3.5-0.6c6.5-0.5,12.8,3,15.5,9.2C503.8,274.9,504.2,277.5,503.9,280.1z"/>
<path fill-rule="evenodd" clip-rule="evenodd" fill="#F7B693" d="M423.4,288.5h-10.2c-1.2,0-2.1-0.9-2.1-2.1v-0.2
	c0-1.2,0.9-2.1,2.1-2.1h10.2c1.2,0,2.1,0.9,2.1,2.1v0.2C425.5,287.5,424.6,288.5,423.4,288.5z"/>
<path fill-rule="evenodd" clip-rule="evenodd" fill="#F7B693" d="M423.4,284.1h-10.2c-1.2,0-2.1-0.9-2.1-2.1v-0.2
	c0-1.2,0.9-2.1,2.1-2.1h10.2c1.2,0,2.1,0.9,2.1,2.1v0.2C425.5,283.2,424.6,284.1,423.4,284.1z"/>
<path fill-rule="evenodd" clip-rule="evenodd" fill="#F7B693" d="M423.4,279.8h-10.2c-1.2,0-2.1-0.9-2.1-2.1v-0.2
	c0-1.2,0.9-2.1,2.1-2.1h10.2c1.2,0,2.1,0.9,2.1,2.1v0.2C425.5,278.8,424.6,279.8,423.4,279.8z"/>
<path fill-rule="evenodd" clip-rule="evenodd" fill="#F7B693" d="M423.4,275.4h-10.2c-1.2,0-2.1-0.9-2.1-2.1v-0.2
	c0-1.2,0.9-2.1,2.1-2.1h10.2c1.2,0,2.1,0.9,2.1,2.1v0.2C425.5,274.5,424.6,275.4,423.4,275.4z"/>
<path fill-rule="evenodd" clip-rule="evenodd" fill="#F7B693" d="M430.9,271c-1.1-0.2-3.5-2.3-4.2-3c-0.1-0.1-0.3-0.2-0.5-0.2
	l-6.2-0.2c-0.1,0-0.2,0-0.3,0.1l-4.3,1.9c-0.4,0.2-0.6,0.6-0.4,1c0.4,0.8,1.3,1.2,2.2,1.1l3-0.5l4,0.5l2.5,1L430.9,271z"/>
<line fill-rule="evenodd" clip-rule="evenodd" fill="none" stroke="#DE8450" stroke-width="0.985" stroke-linecap="round" stroke-linejoin="round" stroke-miterlimit="10" x1="413" y1="275.4" x2="420.7" y2="275.4"/>
<line fill-rule="evenodd" clip-rule="evenodd" fill="none" stroke="#DE8450" stroke-width="0.985" stroke-linecap="round" stroke-linejoin="round" stroke-miterlimit="10" x1="413.2" y1="279.8" x2="420.7" y2="279.8"/>
<line fill-rule="evenodd" clip-rule="evenodd" fill="none" stroke="#DE8450" stroke-width="0.985" stroke-linecap="round" stroke-linejoin="round" stroke-miterlimit="10" x1="413.2" y1="284.1" x2="420.5" y2="284.1"/>
<path fill-rule="evenodd" clip-rule="evenodd" fill="#F3EDDD" d="M503.9,280.1C503.9,280.1,503.9,280.1,503.9,280.1
	c-0.5,5.7-4.1,11-9.7,13.5c-0.2,0.1-0.3,0.2-0.5,0.2l-0.1,0c-1.7,0.7-3.4,1.1-5.1,1.2c-1.1,0-3-0.2-5.4-0.5
	c-10-1.2-41.2-4.2-53.3-5.6l1-18.3c1.2-0.1,39.4-4.3,52.7-6.8c1.2-0.2,2.4-0.4,3.5-0.6c6.5-0.5,12.8,3,15.5,9.2
	C503.8,274.9,504.2,277.5,503.9,280.1z"/>
<path fill-rule="evenodd" clip-rule="evenodd" fill="#FFFFFF" d="M433.8,270.3c0,0,1.7,2.3,1.9,9.5c0.2,7.2,0,63.1,0,63.1h39v-55.5
	c0-12.1-1.3-18.4-4.6-21.5L433.8,270.3z"/>
<path fill-rule="evenodd" clip-rule="evenodd" fill="#090914" d="M448.2,204.3H448c-0.8,0-1.5-0.7-1.5-1.5v-1.9
	c0-0.8,0.7-1.5,1.5-1.5h0.3c0.8,0,1.5,0.7,1.5,1.5v1.9C449.7,203.7,449.1,204.3,448.2,204.3z"/>
<path fill-rule="evenodd" clip-rule="evenodd" fill="#090914" d="M453.4,205.8l-4.3-2.4v-3.1l4.3-2.4c1-0.5,2.1,0.2,2.1,1.2v5.4
	C455.5,205.7,454.3,206.4,453.4,205.8z"/>
<path fill-rule="evenodd" clip-rule="evenodd" fill="#090914" d="M442.9,205.8l4.3-2.4v-3.1l-4.3-2.4c-1-0.5-2.1,0.2-2.1,1.2v5.4
	C440.7,205.7,441.9,206.4,442.9,205.8z"/>
<path fill-rule="evenodd" clip-rule="evenodd" fill="none" stroke="#DE8450" stroke-width="0.8031" stroke-linecap="round" stroke-linejoin="round" stroke-miterlimit="10" d="
	M347.8,223.2c2.4-0.4,5.9-1.3,8.8,3"/>
<polygon fill-rule="evenodd" clip-rule="evenodd" fill="#DE8450" points="336.7,224.9 340.1,230.7 338.8,230 "/>
<polygon fill-rule="evenodd" clip-rule="evenodd" fill="#703541" points="88.5,553 93.2,553 104.7,447.2 98.1,447.2 "/>
<polygon fill-rule="evenodd" clip-rule="evenodd" fill="#703541" points="176.8,553 172.1,553 160.6,447.2 167.2,447.2 "/>
<path fill-rule="evenodd" clip-rule="evenodd" fill="#F4B593" d="M143,529.1c-1.3,4.5-3,8-3,12.3c0,6.1,0,11.6,0,11.6h56
	c0,0,1.9-6.1-2.2-8.6c-2.5-1.5-8.1-2.4-12.9-4.7c-0.6-0.3-1.1-0.6-1.7-0.9c-0.8-0.5-1.5-1-2.2-1.5c-0.5-0.4-1-0.9-1.5-1.5
	c-0.8-0.9-1.4-1.9-1.8-3c-0.2-0.5-0.3-1.3-0.5-2.4c-1.6-15.8,6.4-91.2,7.8-107.4c0.2-1,0.3-2,0.3-3.1c0-11.1-9-20-20-20
	s-18.9,9.1-22.2,19.7C130.9,446,150,504.4,143,529.1z"/>
<path fill-rule="evenodd" clip-rule="evenodd" fill="#090914" d="M140,541.4c0,6.1,0,11.6,0,11.6h56c0,0,1.9-6.1-2.2-8.6
	c-2.5-1.5-8.1-2.4-12.9-4.7c-0.6-0.3-1.1-0.6-1.7-0.9c-0.8-0.5-1.5-1-2.2-1.5c-0.5-0.4-1-0.9-1.5-1.5c-0.8-0.9-1.4-1.9-1.8-3
	c-0.2-0.5-0.3-1.3-0.5-2.4c-2.7,0.1-8.1,0.6-9,3.7c-1.1,4.1-9.1,4.9-12.1,2.4c-2.6-2.2-4.3-7.2-9.3-7.4
	C141.9,533.7,140,537.2,140,541.4z"/>
<rect x="90.3" y="445.3" fill-rule="evenodd" clip-rule="evenodd" fill="#703541" width="67.9" height="4"/>
<path fill-rule="evenodd" clip-rule="evenodd" fill="#F89E57" d="M150.7,445.3h-72c-1.4,0-2.6-1.2-2.6-2.6v-6.2
	c0-1.4,1.2-2.6,2.6-2.6h72c1.4,0,2.6,1.2,2.6,2.6v6.2C153.3,444.1,152.1,445.3,150.7,445.3z"/>
<polygon fill-rule="evenodd" clip-rule="evenodd" fill="#F89E57" points="25.3,315.3 84.9,315.3 124.2,431.9 49.6,439.6 "/>
<path fill-rule="evenodd" clip-rule="evenodd" fill="#B0E1EE" d="M177,543.1l2.1,0.8c0.3-1.9,1.2-3.3,1.9-4.2
	c-0.6-0.3-1.1-0.6-1.7-0.9C177.5,540.6,177,543.1,177,543.1z"/>
<path fill-rule="evenodd" clip-rule="evenodd" fill="#B0E1EE" d="M171.8,541.5l2.1,0.8c0.4-2.1,2.1-4,3.2-5c-0.5-0.4-1-0.9-1.5-1.5
	C173.4,537.8,171.8,541.5,171.8,541.5z"/>
<line fill-rule="evenodd" clip-rule="evenodd" fill="none" stroke="#B0E1EE" stroke-width="2.5656" stroke-miterlimit="10" x1="192.3" y1="548.4" x2="140" y2="548.4"/>
<path fill-rule="evenodd" clip-rule="evenodd" fill="#9274B4" d="M81,405c-1.9,13.4,7.3,25.8,20.7,27.7l91.8,12.3
	c12.8,1.9,24.8-7,26.6-19.9c1.9-12.8-7-24.8-19.9-26.6l-91.5-14.2C95.3,382.4,82.9,391.7,81,405z"/>
<path fill-rule="evenodd" clip-rule="evenodd" fill="#9274B4" d="M182.7,424.6c0-13-10.5-23.5-23.5-23.5c-13,0-23.5,10.5-23.5,23.5
	c0,0.5,0,1,0.1,1.6l3.2,85.4h40.6l3.2-85.4C182.7,425.7,182.7,425.2,182.7,424.6z"/>
<path fill-rule="evenodd" clip-rule="evenodd" fill="#7654A3" d="M180.6,519.9h-41.8c-1.7,0-3.1-1.4-3.1-3.1v-10.3
	c0-1.7,1.4-3.1,3.1-3.1h41.8c1.7,0,3.1,1.4,3.1,3.1v10.3C183.6,518.5,182.3,519.9,180.6,519.9z"/>
<path fill-rule="evenodd" clip-rule="evenodd" fill="#F4B593" d="M208.1,529.1c0.2,4.7-3,8-3,12.3c0,6.1,0,11.6,0,11.6h56
	c0,0,1.9-6.1-2.2-8.6c-2.5-1.5-8.1-2.4-12.9-4.7c-0.6-0.3-1.1-0.6-1.7-0.9c-0.8-0.5-1.5-1-2.2-1.5c-0.5-0.4-1-0.9-1.5-1.5
	c-0.8-0.9-1.4-1.9-1.8-3c-0.2-0.5-0.3-1.3-0.5-2.4c-1.6-15.8-19.6-109.4-19.6-110.4c0-11.1-9-20-20-20c-11.1,0-14.9,8.3-18.2,18.9
	C172.3,445.1,207.3,505.9,208.1,529.1z"/>
<path fill-rule="evenodd" clip-rule="evenodd" fill="#090914" d="M205.2,541.4c0,6.1,0,11.6,0,11.6h56c0,0,1.9-6.1-2.2-8.6
	c-2.5-1.5-8.1-2.4-12.9-4.7c-0.6-0.3-1.1-0.6-1.7-0.9c-0.8-0.5-1.5-1-2.2-1.5c-0.5-0.4-1-0.9-1.5-1.5c-0.8-0.9-1.4-1.9-1.8-3
	c-0.2-0.5-0.3-1.3-0.5-2.4c-2.7,0.1-8.1,0.6-9,3.7c-1.1,4.1-9.1,4.9-12.1,2.4c-2.6-2.2-4.3-7.2-9.3-7.4
	C207.1,533.7,205.2,537.2,205.2,541.4z"/>
<path fill-rule="evenodd" clip-rule="evenodd" fill="#B0E1EE" d="M242.2,543.1l2.1,0.8c0.3-1.9,1.2-3.3,1.9-4.2
	c-0.6-0.3-1.1-0.6-1.7-0.9C242.7,540.6,242.2,543.1,242.2,543.1z"/>
<path fill-rule="evenodd" clip-rule="evenodd" fill="#B0E1EE" d="M236.9,541.5l2.1,0.8c0.4-2.1,2.1-4,3.2-5c-0.5-0.4-1-0.9-1.5-1.5
	C238.6,537.8,236.9,541.5,236.9,541.5z"/>
<path fill-rule="evenodd" clip-rule="evenodd" fill="#FEC782" d="M116.7,445.3h-72c-1.4,0-2.6-1.2-2.6-2.6v-6.2
	c0-1.4,1.2-2.6,2.6-2.6h72c1.4,0,2.6,1.2,2.6,2.6v6.2C119.3,444.1,118.2,445.3,116.7,445.3z"/>
<line fill-rule="evenodd" clip-rule="evenodd" fill="none" stroke="#B0E1EE" stroke-width="2.5656" stroke-miterlimit="10" x1="257.5" y1="548.4" x2="205.2" y2="548.4"/>
<path fill-rule="evenodd" clip-rule="evenodd" fill="#FEC782" d="M29.4,318l23.8,122.2c0.4,1.9-0.9,3.7-2.7,4l-4.4,0.9
	c-1.9,0.4-3.7-0.9-4-2.7L18.2,320.2c-0.4-1.9,0.9-3.7,2.7-4l4.4-0.9C27.2,314.9,29,316.1,29.4,318z"/>
<path fill-rule="evenodd" clip-rule="evenodd" fill="#9274B4" d="M63.7,436.4l92,10.7c6.4,0.8,12.5-1,17.3-4.7
	c4.8-3.7,8.1-9.2,9-15.7c1.6-12.9-7.5-24.6-20.4-26.3l-31.5-4.3l-9-1.2l-32.4-4.4l-13.7-1.9l-5.2-0.7c-3.6-0.5-7.1-0.1-10.3,0.9
	c-6.9,2.2-12.7,7.3-15.4,14.2c-0.4,0.9-0.7,1.8-0.9,2.7v0c-0.3,1.1-0.5,2.2-0.7,3.4C40.9,422.4,50.3,434.7,63.7,436.4z"/>
<path fill-rule="evenodd" clip-rule="evenodd" fill="#9274B4" d="M220.1,416.1c-3.1-12.6-15.9-20.3-28.5-17.1
	c-12.6,3.1-20.3,15.9-17.1,28.5c0.1,0.5,0.3,1,0.4,1.5l23.7,82.1l39.4-9.8l-17.6-83.7C220.4,417.1,220.3,416.6,220.1,416.1z"/>
<path fill-rule="evenodd" clip-rule="evenodd" fill="#7654A3" d="M242.1,513.2l-40.6,10.1c-1.6,0.4-3.3-0.6-3.7-2.2l-2.5-10
	c-0.4-1.6,0.6-3.3,2.2-3.7l40.6-10.1c1.6-0.4,3.3,0.6,3.7,2.2l2.5,10C244.8,511.1,243.8,512.8,242.1,513.2z"/>
<polygon fill-rule="evenodd" clip-rule="evenodd" fill="#9274B4" points="42.9,407.6 52.9,407.8 71,408.3 80.7,408.6 129.6,409.8 
	130.1,396.1 130.3,389.7 130.4,387.9 130.4,387.7 130.6,380 50.5,380 48,388.9 44.1,403 43.3,406.1 "/>
<path fill-rule="evenodd" clip-rule="evenodd" fill="#7654A3" d="M43.2,405.7L43.2,405.7l0.1,0.4c0,0,3.4,1,9.6,1.8
	c4.6,0.5,10.7,0.9,18.1,0.5c3-0.2,6.3-0.5,9.8-1c2.5-0.3,5-0.8,7.6-1.3c13.8-2.7,25-7.3,32.8-11.2c4-2,7.1-3.9,9.2-5.2
	c1.2-0.8,2-1.3,2.5-1.6c0.2-0.2,0.3-0.2,0.3-0.2l-1.8,0l-1,0l-39,0.5l-16.3,0.2l-15.5,0.2L48,388.9L44.1,403
	C43.8,403.9,43.5,404.7,43.2,405.7z"/>
<path fill-rule="evenodd" clip-rule="evenodd" fill="#703541" d="M98.4,229.3c0,0,0.3-17-6.2-14.3C85.7,217.7,98.4,229.3,98.4,229.3
	z"/>
<path fill-rule="evenodd" clip-rule="evenodd" fill="#F05656" d="M131.9,346.4c0.2,7.9,2.7,16.4,2.3,24.3
	c-0.4,7.9-1.1,17.2-1.1,17.2s-10.8,7-30.5,10.9c-19.2,3.8-31.3,7.5-44.6,5.6c-1.9-0.3-3.6-0.6-5-0.8h0c-10.1-1.9-10.6-3.5-10.6-3.5
	s1.2-28,3.6-40c0-0.2,0.1-0.4,0.1-0.6c0.9-4.3,0.3-16.7-1-30.5c-1.7-19-4.4-40.8-5.3-47.7l-0.3-2.3l13.5-6l8.3-3.7l14.9-6.6H99
	l16.3,7.3l9,4l11.4,5.1C135.7,279,131.7,338.5,131.9,346.4z"/>
<path fill-rule="evenodd" clip-rule="evenodd" fill="#F4B593" d="M76.3,262.6c0,0,11,6.5,22.7,0.3l-0.3-4.7l-0.4-3.9l-0.6-6.1
	l-0.3-3.3l-5.4-0.6c0,0,0,0,0,0l-14.3-1.6L76.3,262.6z"/>
<path fill-rule="evenodd" clip-rule="evenodd" fill="#C76F38" d="M86,252.9c4.6,4.8,10.5,5.3,12.7,5.3l-0.4-3.9l-0.6-6.1l-3.1-1
	c0,0,0,0,0,0C88.5,248.2,83.2,249.9,86,252.9z"/>
<path fill-rule="evenodd" clip-rule="evenodd" fill="#F4B593" d="M103,241.5c1.6,7,0.6,11.8-13.4,11.8c-7.2,0-11.9-3.8-13.1-10.9
	l-2.4-14.7c-1-6,3.1-11.7,9.1-12.7c6-1,12.8,3,13.8,9c0.8,3.7,1.5,5.7,2.8,8.4C100.8,234.9,102.5,239.4,103,241.5z"/>
<path fill-rule="evenodd" clip-rule="evenodd" fill="#703541" d="M76.6,240.8c0,0,2.9-2.9,2.9-5.9c0-3-1.2-8.5-0.6-10.6
	c0,0,18-1.6,16.8-10c-1.1-8.4-14.6-3.2-19.5,1.9c0,0-7.6-1.2-7.1,4.9C69.6,227.2,76.6,240.8,76.6,240.8z"/>
<path fill-rule="evenodd" clip-rule="evenodd" fill="#F4B593" d="M80.3,244.4c-1,1.8-3.7,2.1-5.9,0.8c-2.2-1.3-3.2-3.8-2.1-5.6
	c1-1.8,3.7-2.1,5.9-0.8C80.4,240.1,81.4,242.7,80.3,244.4z"/>
<path fill-rule="evenodd" clip-rule="evenodd" fill="#DE8450" d="M79,242.4c0.2,0.1,0.2,0.2,0.2,0.4c-0.1,0.2-0.2,0.2-0.4,0.2
	l-4.6-1.9c-0.2-0.1-0.2-0.2-0.2-0.4c0.1-0.2,0.2-0.2,0.4-0.2L79,242.4z"/>
<path fill-rule="evenodd" clip-rule="evenodd" fill="#090914" d="M84.2,231.4c0.2,0.2,1-0.3,1.8-1c0.8-0.7,1.3-1.5,1.1-1.7
	c-0.2-0.2-1,0.3-1.8,1C84.6,230.5,84.1,231.2,84.2,231.4z"/>
<path fill-rule="evenodd" clip-rule="evenodd" fill="#090914" d="M93.3,226.6c-0.1,0.2,0.6,0.7,1.5,1.1c0.9,0.4,1.8,0.5,1.9,0.2
	c0.1-0.2-0.6-0.7-1.5-1.1C94.2,226.5,93.4,226.4,93.3,226.6z"/>
<path fill-rule="evenodd" clip-rule="evenodd" fill="#FFFFFF" d="M95.7,242.7c0,0-3.2,0.8-5.4-0.5c0,0,0.7,2.7,2.6,2.6
	S95.7,242.7,95.7,242.7z"/>
<path fill-rule="evenodd" clip-rule="evenodd" fill="#DE8450" d="M91.9,232.4c-0.1-0.2,0-0.3,0.1-0.4c0.2-0.1,0.3,0,0.4,0.1
	c0,0,2,3.9,4.3,5c0.1,0.1,0.2,0.2,0.2,0.4c0,0.2-0.7,2.2-3.6,2.6c-0.2,0-0.3-0.1-0.3-0.3c0-0.2,0.1-0.3,0.3-0.3c2-0.3,2.7-1.4,3-1.9
	C93.8,236.2,91.9,232.4,91.9,232.4z"/>
<path fill-rule="evenodd" clip-rule="evenodd" fill="#F4B593" d="M191.6,295.1c0,0,7.3-11.3,8.6-17.1c1.4-6.6,9.3-10.6,12.2-14.6
	c3.6-5,5.8-10.3,8.4-8.9c2.7,1.4-6,14.9-6,14.9s5-5.3,6.8-2.8c1.8,2.5-1.9,5.5-1.9,5.5s2.2,1.3,1.2,4.3c0,0,1.8,0.9,1.1,2.7
	c0,0,2,1.4,1.4,3.6c-0.7,2.1-2.1,3.7-2.7,5.9c-0.6,2.2-2.4,4.5-3.2,1.3c0,0-0.3,3.7-1.7,5.6c-1.4,2-10.9,9.9-10.9,9.9L191.6,295.1z"
	/>
<path fill-rule="evenodd" clip-rule="evenodd" fill="#DE8450" d="M217.7,289.8c0,0.2-0.1,0.3-0.3,0.4c-0.2,0-0.3-0.1-0.4-0.3
	c0,0-0.4-2,1-4.4c1.2-2.1,2.7-5.1,2.7-5.1c0.1-0.2,0.3-0.2,0.4-0.1c0.2,0.1,0.2,0.3,0.1,0.4c0,0-1.6,3-2.7,5.1
	C217.4,288,217.7,289.8,217.7,289.8z"/>
<path fill-rule="evenodd" clip-rule="evenodd" fill="#F4B593" d="M210.3,273.7c0,0,0.2-0.1,2.5-2.5c2.4-2.4,6-5.6,7.9-4.2
	c1.9,1.4,1.1,3.4-1.3,5.2c-2.3,1.8-4.7,4.4-4.7,4.4L210.3,273.7z"/>
<path fill-rule="evenodd" clip-rule="evenodd" fill="#DE8450" d="M217.2,288.2c0.1-0.1,0.3-0.1,0.4,0c0.1,0.1,0.1,0.3,0,0.4
	c0,0-1.2,1.4-2.1-0.3c-0.5-1.1-0.2-3.2,0.5-5.3c0.8-2.1,2.1-4.3,3.5-5.8c0.1-0.1,0.3-0.1,0.4,0c0.1,0.1,0.1,0.3,0,0.4
	c-1.4,1.4-2.6,3.6-3.4,5.6c-0.7,2-1,3.9-0.6,4.8C216.6,288.9,217.2,288.2,217.2,288.2z"/>
<path fill-rule="evenodd" clip-rule="evenodd" fill="#DE8450" d="M206.6,288.6c-0.2,0.1-0.3,0-0.4-0.1c-0.1-0.2,0-0.3,0.1-0.4
	c0,0,5.3-2.9,6.5-8c1.3-5.3,6.7-8.3,6.8-8.4c0.1-0.1,0.3,0,0.4,0.1c0.1,0.1,0,0.3-0.1,0.4c0,0-5.3,2.9-6.5,8
	C212.1,285.6,206.7,288.6,206.6,288.6z"/>
<path fill-rule="evenodd" clip-rule="evenodd" fill="#DE8450" d="M215.6,285.6c0.2-0.1,0.3,0,0.4,0.1c0.1,0.2,0,0.3-0.1,0.4
	c0,0-2.1,1.1-2.8-1.4c-0.3-1.1,0-2.9,0.7-4.8c0.7-2,1.8-4,2.9-5.3c0.1-0.1,0.3-0.1,0.4,0s0.1,0.3,0,0.4c-1,1.2-2.1,3.2-2.7,5.1
	c-0.6,1.7-0.9,3.4-0.7,4.4C214.2,286.3,215.6,285.6,215.6,285.6z"/>
<path fill-rule="evenodd" clip-rule="evenodd" fill="#E34B4B" d="M42.3,400c0,0,0.5,1.7,10.6,3.5h0c-0.8-5.4-3.6-28.4-0.9-38.1
	c2.3-8.1,1.2-22.6-0.8-30.1c-2-7.4-7.3-16.3-7.1-16.9l1,10.6c1.2,13.8,1.9,26.1,1,30.5c0,0.2-0.1,0.4-0.1,0.6
	C43.6,372,42.3,400,42.3,400z"/>
<path fill-rule="evenodd" clip-rule="evenodd" fill="#F05656" d="M181.5,349.2c-0.5,0.7-1.1,1.3-1.7,1.9c-0.3,0.3-0.6,0.6-1,0.8
	c-2,1.7-4.3,2.8-6.8,3.5c-0.2,0.1-0.5,0.1-0.7,0.2c-2.6,0.6-5.2,0.6-7.8,0.1c0,0-0.1,0-0.1,0c-3.6-0.7-7.1-2.5-9.8-5.4l-21-22.3
	c0,0,0,0,0,0l-18.6-19.8c-7-7.4-6.6-19.1,0.8-26.1c3.5-3.3,8.1-5,12.6-5c4.9,0,9.8,1.9,13.5,5.8l32.2,34.2l7.4,7.9
	C187,331.8,187.2,342.2,181.5,349.2z"/>
<path fill-rule="evenodd" clip-rule="evenodd" fill="#E34B4B" d="M73.6,263.8c0,0-0.2-2.7,2.7-2.7c0,0,11.8,5.8,22.5,0
	c0,0,2.4,0,2.4,2.5c0,0-4.5,3.7-13.6,3.6C78.5,267.1,73.6,263.8,73.6,263.8z"/>
<path fill-rule="evenodd" clip-rule="evenodd" fill="#F05656" d="M214.1,299.7c-1.9,3.3-10.5,17.2-20.1,31.9
	c-2.4,3.6-4.5,6.7-6.3,9.1l0,0c-1.7,2.3-3.1,4.2-4.2,5.7c-0.6,0.8-1.2,1.6-1.7,2.1c-0.9,1.4-2,2.6-3.3,3.6c-0.2,0.2-0.4,0.3-0.6,0.4
	c-2.1,1.6-4.5,2.7-7.2,3.1c0,0-0.1,0-0.1,0c-0.6,0.1-1.2,0.1-1.8,0.2c-7.5,0.3-14.2-4.9-16.4-11.8c-0.4-1.3-0.7-2.7-0.7-4.2
	c-0.2-4.6,0.6-9.5,3.5-12.5c0.9-1.2,4.8-5.6,9.9-11.1c10.4-11.3,25.7-27.3,29.3-30.5L214.1,299.7z"/>
<polygon fill-rule="evenodd" clip-rule="evenodd" fill="#C76F38" points="147.3,353.9 156.5,357 157.8,358.3 164.1,358.3 
	158.8,353.3 149.9,352.3 "/>
<path fill-rule="evenodd" clip-rule="evenodd" fill="#090914" d="M88.5,233.4c0.2,0.7,0,1.4-0.4,1.5c-0.4,0.1-0.8-0.5-1-1.2
	c-0.2-0.7,0-1.4,0.4-1.5S88.3,232.7,88.5,233.4z"/>
<path fill-rule="evenodd" clip-rule="evenodd" fill="#F05656" d="M95.3,354.8L95.3,354.8c-7.8,6.5-19.5,5.4-26-2.4l-37-44.5
	c-6.5-7.8-5.4-19.5,2.4-26l0,0c7.8-6.5,19.5-5.4,26,2.4l37,44.5C104.2,336.6,103.1,348.3,95.3,354.8z"/>
<path fill-rule="evenodd" clip-rule="evenodd" fill="#090914" d="M96.4,231.7c0.2,0.7,0,1.4-0.4,1.5c-0.4,0.1-0.8-0.5-1-1.2
	c-0.2-0.7,0-1.4,0.4-1.5C95.8,230.4,96.3,230.9,96.4,231.7z"/>
<path fill-rule="evenodd" clip-rule="evenodd" fill="#E34B4B" d="M183.6,346.2c-2.1,2.9-3.1,4.8-4.7,5.7c-2,1.7-4.3,2.8-6.8,3.5
	c-0.2,0.1-0.5,0.1-0.7,0.2c-2.5,0.7-5.2,0.8-7.8,0.1c0,0-0.1,0-0.1,0c-3.6-0.7-7.1-2.5-9.8-5.4l-21-22.3c0,0,0,0,0,0l0.3-14.6
	c0,0,0.6,7.1,4.5,12.5c3.3,4.6,9,6.5,13.5,12.1c0.9,1.1,1.7,2.3,2.5,3.7c4.1,7.5,17.6,8.9,26.3,7.1
	C181.1,348.7,182.2,347.7,183.6,346.2z"/>
<path fill-rule="evenodd" clip-rule="evenodd" fill="#F4B593" d="M139.3,345.3l11.4,0.9c0.5,0,0.9,0.2,1.3,0.4l9.3,4.7
	c0.7,0.3,1.2,0.8,1.7,1.4l3.5,4.5c0.4,0.5,0,1.1-0.5,1.1h-1.9c-0.7,0-1.4-0.3-1.9-0.8l-1.5-1.4c-0.6-0.6-1.4-1.1-2.3-1.3l-3.5-0.9
	c-1.1-0.3-2.2-0.1-3.2,0.5l-4.5,2.9c-1,0.6-2.1,0.9-3.2,0.9l-7.3,0L139.3,345.3z"/>
<rect x="71.3" y="358.3" fill-rule="evenodd" clip-rule="evenodd" fill="#C6725D" width="235.9" height="7.7"/>
<rect x="81.9" y="366" fill-rule="evenodd" clip-rule="evenodd" fill="#703541" width="214.8" height="7.7"/>
<path fill-rule="evenodd" clip-rule="evenodd" fill="#7654A3" d="M181.7,452.2c0,0,4.8-34.3-3.1-42.4c-8.7-8.8-55.8-15.8-55.8-15.8
	s47.7,5.1,59.4,12.2c11.7,7.1,1.9,54.5,1.9,54.5L181.7,452.2z"/>
<path fill-rule="evenodd" clip-rule="evenodd" fill="#F05656" d="M85.1,325.3c-4.2-0.7-8.7,1.4-12.3,4.2c-7.2,5.4-8.8,16-3.5,23.2
	c3.3,4.4,8.3,6.6,13.3,6.5c3.5,0.3,10.2-0.1,20.9-0.3c17.5-0.3,33.9-0.4,37.7-0.7l0.3-24.1C134.6,332.3,89.6,325.4,85.1,325.3z"/>
<path fill-rule="evenodd" clip-rule="evenodd" fill="none" stroke="#FFFFFF" stroke-width="0.7815" stroke-linecap="round" stroke-miterlimit="10" d="
	M74.2,356.7c-0.4-0.3-0.8-0.5-1.1-0.8c-11-8.8-25.2-29.6-25.2-29.6"/>
<polyline fill-rule="evenodd" clip-rule="evenodd" fill="none" stroke="#FFFFFF" stroke-width="0.7815" stroke-linecap="round" stroke-miterlimit="10" points="
	133,332.4 95.9,326.6 74.8,301.3 "/>
<rect x="46.8" y="445.3" fill-rule="evenodd" clip-rule="evenodd" fill="#C6725D" width="67.9" height="4"/>
<polygon fill-rule="evenodd" clip-rule="evenodd" fill="#C6725D" points="37.2,553 41.8,553 53.4,447.2 46.8,447.2 "/>
<polygon fill-rule="evenodd" clip-rule="evenodd" fill="#C6725D" points="124.2,553 119.6,553 108.1,447.2 114.7,447.2 "/>
<rect x="184.5" y="369.8" fill-rule="evenodd" clip-rule="evenodd" fill="#703541" width="9.5" height="183.2"/>
<path fill-rule="evenodd" clip-rule="evenodd" fill="#FFFFFF" d="M124.3,273.9c-5.9,5.8-16.2,12.8-32.3,14.2
	c-18,1.6-31.5-8-38.9-15.2l8.3-3.7c6,4.8,15.2,10,27.3,10.4c12.6,0.4,21.3-4.9,26.6-9.8L124.3,273.9z"/>
</svg>
