<?xml version="1.0" encoding="utf-8"?>
<!-- Generator: Adobe Illustrator 26.0.1, SVG Export Plug-In . SVG Version: 6.00 Build 0)  -->
<svg version="1.1" id="Character" xmlns="http://www.w3.org/2000/svg" xmlns:xlink="http://www.w3.org/1999/xlink" x="0px" y="0px"
	 viewBox="0 0 500 500" enable-background="new 0 0 500 500" xml:space="preserve">
<path fill="#FFB99F" d="M173.7,440.1c-2-0.1-4,0.2-5.8,1.1c-4.2,2.1-6.3,7.2-6.2,12c0,1.8,0.3,3.5,0.4,5.3c0.1,2.6-0.3,5.2-0.7,7.8
	c-0.5,2.8-1.1,5.5-1.7,8.3c3.5,0.6,6.8,1.9,10.1,2.9c3.4,1,7,1.6,10.4,0.7c0.6-0.2,1.1-0.4,1.6-0.8c0.7-0.6,0.8-1.6,0.9-2.6
	c0.3-2.2,0.6-4.4,0.9-6.5c1-7.5,1.9-15.5-1.3-22.2c-0.9-1.8-2-3.5-3.6-4.5C177.1,440.6,175.4,440.2,173.7,440.1z"/>
<path fill="#FBDDC5" d="M179.8,477.5c0.2,0.2,0.4,0.3,0.5,0.5c0.3,0.4,0.5,1,0.6,1.5c0.6,2.4,1.9,6.4,1.2,8.8
	c-4.7,0.7-9.7,0.4-14.4,0.6c-4.8,0.2-9.6,0.4-14.4,0.6c-8.9,0.4-17.8,0.7-26.8,1.1c0.7-2.1,1.4-4.3,2.1-6.4c0.4-1.1,0.6-2.9,1.3-3.9
	c1-1.5,2.9-1,4.8-1.1c11.8-0.7,23.6-1.9,35.3-3.5c1.7-0.2,3.6-0.7,5.3-0.5c1.8,0.1,2.6,0.9,4.1,2
	C179.6,477.4,179.7,477.4,179.8,477.5z"/>
<path fill="#040312" d="M183.6,471.3c-0.6,3-1.7,10.7-1.9,11.7l-53.2,1.8l1.9-5.3c10.1-3.9,21.5-6.8,30.6-12.7
	c0.4-0.2,0.8-0.5,1.2-0.5c0.4,0,0.7,0.1,1.1,0.2c0.6,0.2,1.2,0.4,1.8,0.6c0.9,0.3,1.9,0.7,2.5,1.5c0.8,1,0.7,2.4,0.7,3.7
	c5.2-0.7,10.4-1.5,15.5-2.2C183.8,470.1,183.7,470.6,183.6,471.3z"/>
<path fill="#FFE5DB" d="M144.3,486.3c-0.4-3.5-1.9-6.8-4.1-9.5l0.8-0.7c2.4,2.8,3.9,6.4,4.3,10L144.3,486.3z"/>
<path fill="#FFE5DB" d="M171.7,485l-0.9-0.4c2.3-5.3,6.9-9.6,12.2-11.5l0.3,1C178.3,475.9,173.9,480,171.7,485z"/>
<path fill="#FFE5DB" d="M154.4,479.2c-1.4-2.3-3-4.5-4.8-6.4l0.7-0.7c1.8,2,3.5,4.2,4.9,6.6L154.4,479.2z"/>
<path fill="#FFE5DB" d="M159.2,477.1c-1.5-2.1-3.2-4.1-4.9-6l0.7-0.7c1.7,1.9,3.4,4,5,6.1L159.2,477.1z"/>
<path fill="#FFB99F" d="M218.8,441.7c-2-0.1-4,0.2-5.8,1.1c-4.2,2.1-6.3,7.2-6.2,12c0,1.8,0.3,3.5,0.4,5.3c0.1,2.6-0.3,5.2-0.7,7.8
	c-0.5,2.8-1.1,5.5-1.7,8.3c3.5,0.6,6.8,1.9,10.1,2.9c3.4,1,7,1.6,10.4,0.7c0.6-0.2,1.1-0.4,1.6-0.8c0.7-0.6,0.8-1.6,0.9-2.6
	c0.3-2.2,0.6-4.4,0.9-6.5c1-7.5,1.9-15.5-1.3-22.2c-0.9-1.8-2-3.5-3.6-4.5C222.1,442.2,220.5,441.8,218.8,441.7z"/>
<path fill="#FFB99F" d="M82.6,164.9c2,5.3,4.1,10.5,6.5,15.7c3.7,8,9.7,17.6,19.7,17.7c3.4,0,6.6-1.9,9.5-3.9
	c7.6-5.1,14.7-10.9,21.8-16.7c1.8-1.5,3.6-3,5.4-4.5c1-0.9,2.1-1.7,2.9-2.8c2.5-3.3,2.4-8,0.8-11.9c-1.6-3.8-4.3-7-7.1-10
	c-0.9-1-1.8-2-3.1-2.1c-1.5-0.2-2.8,0.8-4,1.8c-4.3,3.7-8.2,8.6-13.1,11.5c-2.8,1.7-8.6,9.5-11.9,7.5c-0.4-0.2-0.7-0.6-1-0.9
	c-4.8-5.5-9.2-11-13.7-16.7c-3.3-4.2-6.2-7.7-8.5-12.7c-1.3-2.9-5-20.8-7.5-21.6c-3.2-1-6.8-1.4-10-0.8c1.1,1.9,2,4,2.6,6.1
	c0,0,0,0,0,0c-4-2-8.1-6.1-12.4-6.6c-4.1-0.5-8.2-0.7-12.1-1.7c-1.8-0.5-8.5-1.9-5.2,1.8c2.5,2.9,5,5.7,7.5,8.6
	c1.1,1.3,2.3,2.6,3.7,3.6c2.7,1.9,6.1,2.6,9,4.1c6.3,3.2,10.6,10.1,13.2,16.5C78.2,152.9,80.3,158.9,82.6,164.9z"/>
<path fill="#AD4557" d="M230.8,110.4c0.1-1.1,0.5-2.1,0.8-3.1c0-0.1,0.1-0.2,0.1-0.3c0.6-2.6,0-5.4-1.6-7.4c-1.6-1.9-4-3.1-5-5.5
	c-1.4-3.2,0.5-7.4-1.1-10.5c-1.5-3-5.5-3.9-6.9-6.9c-1.2-2.7,0.1-5.8-0.2-8.7c-0.3-3-2.5-5.7-5.3-6.5c-1.6-0.4-3.3-0.3-4.8-1
	c-1.7-0.7-2.9-2.2-4.3-3.4c-3.4-2.8-8.2-3.4-12.1-1.6c-1.1,0.5-2.2,1.3-3.5,1.5c-1,0.2-2,0.1-3,0c-9.2-0.3-15.1,8.3-17.8,16.4
	c-0.4,1.2-0.4,2.5-0.8,3.7c-0.5,1.7-1.4,3.1-1.4,4.9c0,2,1,3.9,0.5,5.9c-0.6,2.6-3.7,4.5-3.3,7.2c0.3,2.2,2.9,3.5,3.3,5.7
	c0.5,2.6-2.1,5.2-1.1,7.6c0.2,0.5,0.6,0.9,0.8,1.3c0.5,1.1,0.2,2.5-0.1,3.7c-0.7,2.8-1.6,5.3-0.8,8.2c0.7,2.5,2.1,4.7,4,6.5
	c3,2.8,6.9,4.3,10.8,4.8c2,0.3,4.1,0.3,6,1c2.1,0.8,3.8,2.4,5.8,3.3c4.2,1.9,9.2,0.8,13.6-0.6c3.3-1,6.6-1.6,9.9-2.5
	c3.8-1,7.7-1.4,11.2-3.4c5.2-3,8.2-9.8,7-15.9C231.1,113.3,230.6,111.9,230.8,110.4z"/>
<path fill="#FE9268" d="M68.2,123.3c-1.3-0.8-2.7-1.3-4.2-1.8c-0.7-0.2-1.4-0.4-2-0.7c-1.9-0.7-3.2-1.9-4.5-3.1
	c-0.4-0.3-0.7-0.7-1.1-1c-0.4-0.4-0.9-0.7-1.4-1c-1.2-0.9-2.5-1.8-3.2-3.5c-0.6-0.2-1-0.3-1.7-0.3c0.4,0.9,2.4,3.4,2.8,3.7
	c1.4,1,2.8,2,4.3,3c1.3,0.9,2.7,1.8,4,2.8l-0.6,0.8c-1.3-1-2.6-1.9-4-2.7c-1.4-1-2.9-1.9-4.3-3c-0.3-0.2-1.2-1.2-1.9-2.2
	c-1.6-2.1-1.4-2.6-1.4-2.8c0.1-0.3,0.3-0.5,0.7-0.5c1-0.1,1.6,0.1,2.6,0.5l0.2,0.1l0.1,0.2c0.5,1.5,1.7,2.3,2.9,3.2
	c0.5,0.3,1,0.7,1.4,1.1c0.4,0.4,0.8,0.7,1.2,1.1c1.3,1.2,2.4,2.2,4.1,2.9c0.6,0.2,1.3,0.5,2,0.7c1.5,0.5,3,1,4.4,1.9L68.2,123.3z"/>
<path fill="#FFFFFF" d="M149.3,129.1l0.5,85.5c0,0,7.4,17.3,7.4,17.3c9.6-1.6,19.2-3.3,28.7-4.9c5.9-1,11.8-1.8,17.7-2.7
	c3.9-0.6,7.2-1.3,10.8,0.8c0.2,0.1,0.5,0.3,0.7,0.3c0.3,0,0.6-0.2,0.9-0.4c3-2.5,6-5.1,8.5-8.2c1-1.3,2.5-3.1,3.1-4.7
	c0.7-1.9,0.2-4.9,0.2-6.9c0.3-9.7,1-19.4,2.1-29c0.4-3.8,0.9-7.5,1.4-11.3c0.7-5.4,1.6-10.3,2.9-15.6c0.2-0.8,2.9-9.3,2.3-9.7
	c-9.9-4.9-19-10.2-29.5-13.3c-2.6-0.8-5.2-1.7-7.8-2.4C183.4,120.2,165.1,126.4,149.3,129.1z"/>
<path fill="#FFB99F" d="M182.3,102.3c-2,7.1-1.6,15.7-2.2,22.4c-0.2,2.3-10.4,3.4-10.1,4.4c2,7.7,8.4,15.8,15.9,18
	c5.6,1.7,11.8,0.3,16.7-2.9c4.6-3,9.2-8.3,10.9-13.7c0-0.1-6.6-2.7-7.2-3.1c-2.1-1.4-1.9-2.2-2.1-4.6c-0.4-6.2-1.2-12.5-2-18.7
	c-0.5-4.3,0.1-13-5.1-14.5c-1.2-0.4-2.5-0.2-3.7,0.2C187,91.9,183.9,96.6,182.3,102.3z"/>
<path fill="#FE9268" d="M195.3,109c1.8-3.8,2.8-9.7-2.7-10.6c-1.8-0.3-3.7,0.3-5.4,1.1c-1.5,0.7-3.4,2.1-5.1,3.7
	c-1,4-1.3,8.5-1.5,12.8c3.1,2.2,7.4,1.4,10.3-1C192.8,113.4,194.2,111.3,195.3,109z"/>
<path fill="#FFB99F" d="M197.1,68.5c-3.3-5.4-9.4-9.1-15.4-8c-14.2,2.7-14.1,23.1-12.6,34.4c0.8,5.9,2.7,12.1,7.4,15.4
	c4.6,3.2,11.1,2.5,15.8-0.2c5.7-3.3,8.2-12,9.1-18.3C202.6,84.1,201.2,75,197.1,68.5z"/>
<path fill="#FF8963" d="M157.2,233.2l2.5,20.8c0,0-17.6,88.6-17.7,89.2c-0.9,4.3,0.5,8,1.6,12c1.4,4.9,1.6,10.3,2.3,15.4
	c1.4,10.8,2.8,21.6,4.2,32.4c2.9,21.6,5.9,43.2,9,64.7c8.7,1.1,17.6,0.4,26-2c1-0.3,0.2-17.2,0.1-18.6c-0.4-4.9-0.9-9.9-1.2-14.8
	c-0.8-16.5-1.6-33-2.5-49.6c-0.6-12.9-1.3-25.8-1.9-38.7l18.8-74.1l-4.2-44.6L157.2,233.2z"/>
<path fill="#FF8963" d="M180.1,228l13.4,113.7c2.3,26.2,4.6,52.4,6.9,78.6c1.4,15.5,2.4,30.8,3.4,46.3c0,0.1,26.6-0.2,28.9-0.6
	c0.7-3.6-0.9-57.9-1-72.3c-0.2-28.6-0.3-57.1-0.5-85.7c0-5-0.1-10-0.1-15.1v-34.2L215,231.5l-0.1-9.5L180.1,228z"/>
<path fill="#FFFFFF" d="M149.4,129.2c-1,0.5-2,1.3-2.9,2c-4.1,3.3-7.5,7.2-11.2,10.8c-5.7,5.7-11.3,11.4-17,17.1
	c10.3,7.7,18,19,21.7,31.6c-0.1-0.4,8.4-7.3,9.2-8.1c3.2-3.2,6.1-6.6,8.9-10.1c1.8-2.3,4.9-4.2,5.9-7c1.4-3.9,0.2-9.1-0.8-12.9
	c-1.1-4.1-3.2-7.9-4.2-11.9c-1-3.9-2.3-7.5-4.6-10.8c-0.3-0.4-0.5-0.7-0.9-1c-0.4-0.3-0.9-0.4-1.5-0.4
	C151,128.5,150.2,128.8,149.4,129.2z"/>
<path fill="#FBDDC5" d="M224.9,479.1c0.2,0.2,0.4,0.3,0.5,0.5c0.3,0.4,0.5,1,0.6,1.5c0.6,2.4,1.9,6.4,1.2,8.8
	c-4.7,0.7-9.7,0.4-14.4,0.6c-4.8,0.2-9.6,0.4-14.4,0.6c-8.9,0.4-17.8,0.7-26.8,1.1c0.7-2.1,1.4-4.3,2.1-6.4c0.4-1.1,0.6-2.9,1.3-3.9
	c1-1.5,2.9-1,4.8-1.1c11.8-0.7,23.6-1.9,35.3-3.5c1.7-0.2,3.6-0.7,5.3-0.5c1.8,0.1,2.6,0.9,4.1,2C224.7,479,224.8,479,224.9,479.1z"
	/>
<path fill="#040312" d="M228.6,472.9c-0.6,3-1.7,10.7-1.9,11.7l-53.2,1.8l1.9-5.3c10.1-3.9,21.5-6.8,30.6-12.7
	c0.4-0.2,0.8-0.5,1.2-0.5c0.4,0,0.7,0.1,1.1,0.2c0.6,0.2,1.2,0.4,1.8,0.6c0.9,0.3,1.9,0.7,2.5,1.5c0.8,1,0.7,2.4,0.7,3.7
	c5.2-0.7,10.4-1.5,15.5-2.2C228.8,471.7,228.7,472.2,228.6,472.9z"/>
<path fill="#396342" d="M157.3,231.3c-1,6.1-21.1,57.3-24.7,65.4c-2,4.4-1.7,8.5-2,13.3c-0.3,5.3-5.3,37.2-8.5,47.4
	c2.3,0.4,4.1,1.4,6.3,2.3c3.4,1.3,7.2,1.7,10.7,2.4c29,5.9,59.6,2,86.7-10.2c-1.9,0.9-18.6-69.9-19.8-77.5c-0.5-3.1-2.7-8.8-2-12
	c0-0.1,7.6-37.2,7.6-37.2l-13.2-54.8l-48.8-1c2.9,15.9,4.3,32.2,6.5,48.2c0.5,3.5,1.6,7.5,1.5,11
	C157.5,229.5,157.4,230.4,157.3,231.3z"/>
<path fill="#AD4557" d="M209.3,85.8c0.5-5.1,1.8-13.7-2.7-17.3c-0.7-0.6-1.6-0.8-2.3-1.3c-0.7-0.6-1.4-1.4-2.1-2
	c-3.3-2.7-7.1-4.2-11-5.6c-4.4-1.5-8.8-2-13.3-0.1c-6.5,2.8-10.2,9.2-10.3,16.5c0,0.5,0,1-0.2,1.4c-0.2,0.4-0.6,0.7-0.8,1.1
	c-0.5,1,0.3,2.4,1.4,2.6c1.1,0.2,2.2-0.3,3.1-1.1c0.5-0.5,1-1,1.6-1.4c0.6-0.4,1.4-0.5,2-0.1c0.3,0.2,0.5,0.6,0.8,0.9
	c1,1.3,3.1,1.8,4.3,0.7c0.4-0.4,0.6-0.9,1-1.4c0.4-0.4,0.9-0.8,1.4-0.6c0.3,0.1,0.5,0.3,0.8,0.5c2,1.7,4.8,2.2,7.2,1.4
	c0.5-0.2,1-0.4,1.3-0.9c0.6-0.9,0.3-2.1,0.2-3.2c-0.2-1.1,0-2.5,1-2.8c0.5,1.2,1,2.4,1.7,3.4c0.8,1,1.8,1.9,3,2.1
	c0.3,0.1,0.6,0.1,0.8,0.2c0.3,0.2,0.6,0.5,0.8,0.8c0.8,1.1,1.9,2,3,2.9C204.2,84.2,206.6,86,209.3,85.8z"/>
<path fill="#FFB99F" d="M205.1,92.5c1.3-2.5,2-5.5,1.5-8.4c-0.2-1-0.5-2-1.3-2.7c-1-0.8-2.4-0.7-3.4-0.1c-1.9,1.1-3.5,3-4.1,5.2
	c-0.4,1.3-0.4,2.6-0.4,4c0,1.2,0.1,2.5,0.6,3.6c0.5,1.1,1.6,2,2.7,2c0.5,0,0.9-0.2,1.3-0.4C203.3,95.1,204.5,93.8,205.1,92.5z"/>
<path fill="#FE9268" d="M180.9,86c-0.2-0.4-0.5-0.9-1-0.8c-1.1,0.2-1.3,3.9-1.4,4.7c-0.3,1.9-0.6,3.9-1.4,5.7
	c-0.2,0.5-0.5,1-0.3,1.5c0.2,0.4,0.7,0.7,1.1,0.8c1.1,0.3,2.3,0.2,3.3-0.2c2.3-1,2.1-2.4,1.8-4.6C182.8,90.6,182,88.2,180.9,86z"/>
<path fill="#FE9268" d="M203.2,82.7c-0.7,0.2-1.3,0.6-1.9,1.2c-0.8,0.9-1.2,2-1.3,3.2c0,0.3-0.1,0.7,0.1,0.9c0.3,0.4,1,0.2,1.4,0.6
	c0.2,0.2,0.2,0.6,0.2,0.9c0,0.7-0.1,1.6,0.5,2c0.4,0.3,1,0.1,1.4-0.2c0.9-0.6,1.5-1.6,1.8-2.7c0.3-1.1,0.4-2.2,0.5-3.3
	C206,83,204.7,82.3,203.2,82.7z"/>
<path fill="#040312" d="M175.9,80.1c-1.4-1-3.2-1.5-4.9-1.3c-0.4,0-0.8,0.1-1,0.4c-0.2,0.2-0.3,0.6-0.4,0.9c0,0.1-0.1,0.3-0.1,0.4
	c-0.2,0.7-0.3,1.6,0.2,2c0.3,0.2,0.7,0.3,1,0.3c1.7,0.2,3.3,0.2,5,0.1c0.3,0,0.7,0,1-0.2c0.4-0.3,0.5-1,0.3-1.5
	C176.7,80.8,176.3,80.4,175.9,80.1z"/>
<path fill="#040312" d="M192.4,82.4c0.3-0.2,0.4-0.6,0.4-1c0-0.7-0.4-1.4-0.9-1.8c-0.5-0.4-1.2-0.7-1.9-0.8c-1.7-0.3-3.5,0-4.9,1
	c-0.1,0.6-0.3,1.3-0.4,1.9c0,0.2-0.1,0.5,0,0.6c0.1,0.2,0.4,0.3,0.6,0.3c2.1,0.3,4.3,0.5,6.3,0C191.9,82.6,192.2,82.6,192.4,82.4z"
	/>
<path fill="#040312" d="M175.5,88.7c0.2-0.9,0.4-2,0.2-2.5c-0.5-1.6-2.3-1-2.4,0.5c0,0.8-0.2,3.9,1.3,3.5c0.3-0.1,0.6-0.4,0.7-0.7
	C175.3,89.3,175.4,89,175.5,88.7z"/>
<path fill="#040312" d="M189.3,90.1c0.3-0.1,0.6-0.4,0.7-0.7c0.1-0.3,0.2-0.7,0.2-1.1c0.1-0.9,0.4-2.1-0.5-2.8
	c-0.4-0.3-0.9-0.4-1.4-0.3c-0.8,0.9-0.7,2.9-0.3,4C188.2,89.8,188.7,90.3,189.3,90.1z"/>
<path fill="#9A444F" d="M182.1,96.2c-1,0.9-2.1,1.1-3.4,0.8c-0.3-0.1-1.3-0.2-1.3-0.7c0-0.4,0.4-1,0.5-1.4c0.8-2.8,1.7-5.5,1.7-8.4
	c0-0.6-0.8-0.6-0.8-0.1c0,2-0.4,3.9-0.9,5.8c-0.3,0.9-0.5,1.8-0.8,2.7c-0.1,0.5-0.4,0.9-0.4,1.5c0,1.1,1.3,1.3,2.1,1.5
	c1.5,0.3,2.8,0,4-1C183,96.5,182.5,95.8,182.1,96.2z"/>
<path fill="#9A444F" d="M203.8,82.7c-1,0.1-1.9,0.4-2.6,1.2c-0.8,0.9-1.5,2.4-1.5,3.6c0,0.6,0.8,0.6,0.8,0.1c0-1,0.6-2.1,1.1-2.9
	c0.5-0.7,1.4-0.9,2.3-1C204.5,83.5,204.4,82.6,203.8,82.7z"/>
<path fill="#9A444F" d="M186.3,100.1c-0.7,0.3-1.4,0.8-2.1,1.1c-0.8,0.4-1.6,0.6-2.5,0.7c-1.8,0.3-3.6,0-5.1-1
	c-0.4-0.3-0.9,0.3-0.6,0.6c0,0,0,0.1,0,0.1c0.4,2.3,1.8,4.6,3.8,5.6c2.3,1.2,4.5,0.3,6-1.7c0.8-1.2,1.6-2.7,1.8-4.1
	C187.8,100.6,187.3,99.7,186.3,100.1z M186.7,102.1c-0.2,0.7-0.5,1.4-0.9,2c-1.1,2.1-2.9,3.5-5.2,2.6c-1.8-0.8-3.1-2.7-3.5-4.6
	c1.9,0.9,3.9,1,5.9,0.4c1.2-0.3,2.3-0.8,3.3-1.4C187.1,100.5,186.9,101.6,186.7,102.1z"/>
<path fill="#FF8963" d="M186.7,102.1c-0.2,0.7-0.5,1.4-0.9,2c-1.1,2.1-2.9,3.5-5.2,2.6c-1.8-0.8-3.1-2.7-3.5-4.6
	c1.9,0.9,3.9,1,5.9,0.4c1.2-0.3,2.3-0.8,3.3-1.4C187.1,100.5,186.9,101.6,186.7,102.1z"/>
<path fill="#FFFFFF" d="M186.7,102.1c-0.1,0.3-0.2,0.5-0.3,0.6c-0.6,0.8-1.9,1.3-2.7,1.5c-1.2,0.4-2.4,0.5-3.6,0.4
	c-0.7-0.1-1.7-0.3-2.2-0.8c-0.4-0.3-0.6-1.6-0.8-1.7c1.9,0.9,3.9,1,5.9,0.4c1.2-0.3,2.3-0.8,3.3-1.4
	C187,100.6,186.9,101.4,186.7,102.1z"/>
<path fill="#FFB99F" d="M185,105.3C185,105.3,185,105.3,185,105.3c-1.6-1-4.8-1.2-6,0.3c0.4,0.4,1,0.8,1.5,1
	C182.4,107.4,183.9,106.7,185,105.3z"/>
<path fill="#040312" d="M184.5,61c-2.3,1.5-5,4.9-3.2,7.7c0.3,0.5,0.9-0.1,0.6-0.6c-1.5-2.4,1.2-5.3,3-6.5
	C185.4,61.4,184.9,60.7,184.5,61z"/>
<path fill="#040312" d="M194.3,71.5c-1-0.6-1.9-1.3-2.4-2.3c-0.6-1-0.5-2.3-0.4-3.4c0.1-0.6-0.8-0.6-0.8-0.1
	c-0.2,1.3-0.1,2.6,0.4,3.8c0.6,1.2,1.6,2,2.7,2.7C194.2,72.5,194.7,71.8,194.3,71.5z"/>
<path fill="#040312" d="M208.8,82.4c-0.7-1.9-1-4-2.5-5.5c-0.8-0.8-1.9-1.2-2.9-1.6c-1.2-0.4-2.3-1.2-3.5-1.7
	c-0.5-0.2-0.8,0.6-0.3,0.8c0.9,0.4,1.8,1,2.7,1.4c1.1,0.5,2.3,0.7,3.3,1.5c1.6,1.2,1.8,3.6,2.5,5.4C208.2,83.2,209,82.9,208.8,82.4z
	"/>
<path fill="#040312" d="M208.6,94c-0.2-0.5-0.9-0.2-0.8,0.4c0.4,1,0.5,2.1,0.3,3.2c-0.2,0.9-0.7,1.8-1.1,2.6c-0.8,1.5-1.7,3.3-1.2,5
	c0.2,0.5,1,0.4,0.8-0.2c-0.6-2.1,1-4.2,1.8-5.9C209.2,97.4,209.2,95.8,208.6,94z"/>
<path fill="#040312" d="M214,92.5c-0.4-0.4-1,0.2-0.6,0.6c2.7,2.9,4.3,6.7,3.4,10.7c-0.1,0.5,0.7,0.8,0.8,0.3
	C218.6,99.8,217,95.7,214,92.5z"/>
<path fill="#040312" d="M214.6,75.9c-0.5-0.2-0.8,0.6-0.3,0.8c3.1,1,6.1,3.3,6,7c0,0.6,0.8,0.6,0.8,0.1
	C221.3,79.7,218.1,77.1,214.6,75.9z"/>
<path fill="#040312" d="M228.9,105.6c-0.3-2.1-0.6-4.3-1.5-6.3c-0.9-2-2.6-3.2-4.6-3.8c-0.5-0.2-0.8,0.7-0.3,0.8
	c2,0.6,3.4,1.8,4.2,3.7c0.8,1.8,0.9,3.8,1.2,5.7C228.2,106.3,229,106.2,228.9,105.6z"/>
<path fill="#040312" d="M217.9,113.1c-0.2-0.5-1-0.4-0.8,0.1c1.1,3.9-0.9,7.5-3.6,10.1c-0.4,0.4,0.1,1,0.5,0.7
	C216.9,121.3,219.1,117.3,217.9,113.1z"/>
<path fill="#040312" d="M225.4,116c-0.1-0.5-0.9-0.4-0.8,0.2c0.6,3.3-0.4,6.2-2.5,8.8c-0.3,0.4,0.3,0.9,0.7,0.5
	C225,122.7,226,119.5,225.4,116z"/>
<path fill="#040312" d="M164.9,89.4c0.3-0.5-0.4-1-0.7-0.5c-0.9,1.5-1.7,3-1.8,4.8c-0.1,1.7,0.6,3.3,1.5,4.6c0.3,0.4,1-0.1,0.6-0.6
	c-0.9-1.3-1.5-2.6-1.3-4.2C163.4,92,164.2,90.6,164.9,89.4z"/>
<path fill="#040312" d="M167.6,110.6c-1-0.8-2-1.5-2.4-2.8c-0.5-1.8,0.5-3.4,1.5-4.8c0.3-0.4-0.4-0.9-0.7-0.5
	c-1.1,1.5-2,3.2-1.7,5.2c0.3,1.7,1.6,2.6,2.8,3.6C167.5,111.7,168,111,167.6,110.6z"/>
<path fill="#040312" d="M174,117.5c-1.7-0.5-2.3-2-2.9-3.6c-0.2-0.5-0.9-0.2-0.8,0.4c0.6,1.8,1.5,3.5,3.3,4
	C174.3,118.5,174.5,117.6,174,117.5z"/>
<path fill="#040312" d="M176.8,58.1c-1.1,0.7-2.2,1.4-3.1,2.3c-0.9,0.9-1.5,2.1-1.9,3.3c-0.2,0.5,0.6,0.8,0.8,0.3
	c0.4-1.2,1-2.3,1.9-3.2c0.9-0.8,1.9-1.4,2.9-2.1C177.8,58.5,177.3,57.8,176.8,58.1z"/>
<path fill="#040312" d="M170.5,68.2c-1.5,1.6-1.8,3.3-0.8,5.2c0.3,0.5,1,0.1,0.8-0.4c-0.4-0.7-0.6-1.3-0.6-2.1
	c0-0.9,0.6-1.6,1.2-2.1C171.4,68.4,170.9,67.8,170.5,68.2z"/>
<path fill="#040312" d="M205,81.6c-0.7-1.5-1.7-2.7-3.2-3.3c-1.4-0.6-3.1-0.5-4.6-0.4c-0.5,0.1-0.4,0.9,0.1,0.9
	c1.4-0.1,2.7-0.2,4.1,0.3c1.4,0.5,2.3,1.7,2.9,2.9C204.5,82.4,205.3,82,205,81.6z"/>
<path fill="#FE9268" d="M213.4,130c-1.3-1.2-3.1-1.6-4.7-2.2c-0.9-0.3-1.7-0.9-2.2-1.7c-0.3-0.6-0.5-1.3-0.6-2
	c-0.9-4.3-1-8.7-1.7-13c-0.8-4.7-1.9-9.3-1.9-14.1c0-0.6-0.8-0.6-0.8-0.1c0.1,9.1,2.5,18.1,3,27.2c0.1,1.3,0.3,2.5,1.3,3.2
	c0.9,0.6,2.1,0.8,3.1,1.2c1.4,0.5,3,1.1,4.2,2.2C213.3,131.1,213.8,130.3,213.4,130z"/>
<path fill="#9A444F" d="M187.8,81.9c-0.3-0.7-0.7-1.3-1-2c-0.3-0.5-1-0.1-0.8,0.4c0.3,0.7,0.7,1.3,1,2
	C187.2,82.8,188,82.4,187.8,81.9z"/>
<path fill="#9A444F" d="M189.8,81.9c-0.6-0.7-1.1-1.4-1.5-2.2c-0.3-0.5-1-0.1-0.8,0.4c0.5,0.9,1,1.7,1.6,2.4
	C189.5,82.9,190.2,82.3,189.8,81.9z"/>
<path fill="#9A444F" d="M191.4,82c-0.3-0.7-0.7-1.4-1.1-2.1c-0.3-0.5-1-0.1-0.8,0.4c0.4,0.7,0.8,1.3,1.1,2.1
	C190.9,82.9,191.6,82.5,191.4,82z"/>
<path fill="#9A444F" d="M171.1,82c-0.4-0.6-0.6-1.3-0.9-1.9c-0.3-0.5-1-0.1-0.8,0.4c0.4,0.7,0.6,1.4,1.1,2.1
	C170.8,83.1,171.4,82.5,171.1,82z"/>
<path fill="#9A444F" d="M172.8,81.9c-0.4-0.7-0.9-1.3-1.2-2.1c-0.2-0.5-1-0.1-0.8,0.4c0.3,0.7,0.8,1.4,1.2,2.1
	C172.4,82.7,173.1,82.4,172.8,81.9z"/>
<path fill="#9A444F" d="M174.6,81.8c-0.6-0.6-1-1.3-1.5-2c-0.3-0.4-1,0.1-0.6,0.6c0.5,0.7,1,1.4,1.5,2
	C174.4,82.7,175,82.2,174.6,81.8z"/>
<path fill="#FF816B" d="M187.3,92c-0.4,0-0.5,0.7-0.1,0.7C187.6,92.7,187.7,92,187.3,92z"/>
<path fill="#FF816B" d="M188.1,93.2c-0.4,0-0.5,0.7-0.1,0.7C188.5,93.9,188.5,93.2,188.1,93.2z"/>
<path fill="#FF816B" d="M188.8,91.9c-0.4,0-0.5,0.7-0.1,0.7C189.1,92.6,189.2,91.9,188.8,91.9z"/>
<path fill="#FF816B" d="M191.7,91.9c-0.4,0-0.5,0.7-0.1,0.7C192,92.6,192.1,91.9,191.7,91.9z"/>
<path fill="#FF816B" d="M189.8,93.3c-0.4,0-0.5,0.7-0.1,0.7C190.1,94,190.2,93.3,189.8,93.3z"/>
<path fill="#FF816B" d="M171.6,91.7c-0.4,0-0.5,0.7-0.1,0.7C172,92.4,172,91.7,171.6,91.7z"/>
<path fill="#FF816B" d="M172.2,93.2c-0.4,0-0.5,0.7-0.1,0.7C172.5,93.9,172.6,93.2,172.2,93.2z"/>
<path fill="#FF816B" d="M173.7,91.9c-0.4,0-0.5,0.7-0.1,0.7C174,92.6,174.1,91.9,173.7,91.9z"/>
<path fill="#FF816B" d="M175.2,91.5c-0.4,0-0.5,0.7-0.1,0.7C175.5,92.2,175.6,91.5,175.2,91.5z"/>
<path fill="#FF816B" d="M174.2,93.4c-0.4,0-0.5,0.7-0.1,0.7C174.6,94.1,174.7,93.4,174.2,93.4z"/>
<path fill="#FF816B" d="M190.3,91.8c-0.5,0-0.6,0.9-0.1,0.9C190.7,92.6,190.8,91.8,190.3,91.8z"/>
<path fill="#FF816B" d="M191.8,93.7c-0.5,0-0.6,0.9-0.1,0.9C192.2,94.5,192.3,93.7,191.8,93.7z"/>
<path fill="#FF816B" d="M186.4,93.3c-0.5,0-0.6,0.9-0.1,0.9C186.9,94.2,187,93.3,186.4,93.3z"/>
<path fill="#FF816B" d="M172.6,90.5c-0.5,0-0.6,0.9-0.1,0.9C173.1,91.3,173.1,90.5,172.6,90.5z"/>
<path fill="#FF816B" d="M173,92.7c-0.5,0-0.6,0.9-0.1,0.9C173.5,93.6,173.5,92.7,173,92.7z"/>
<path fill="#FF816B" d="M185.9,91.5c-0.5,0-0.6,0.9-0.1,0.9C186.3,92.4,186.4,91.5,185.9,91.5z"/>
<path fill="#FF816B" d="M191.1,90.5c-0.5,0-0.6,0.9-0.1,0.9C191.6,91.4,191.6,90.5,191.1,90.5z"/>
<path fill="#396342" d="M164.6,139.7c-3.1,6.1-5.8,12.4-6.7,19.2c-0.9,6.8,0.1,14.1,3.9,19.6c-3.1,0.5-6.2,0.7-9.3,0.6
	c-3.4-10.2-2-21.7,2.3-31.5c4.3-9.8,11.5-18,19.6-24.7C170.8,128.3,167.5,133.9,164.6,139.7z"/>
<path fill="#396342" d="M204.9,231.8c-0.2,0.8-0.5,1.7-0.6,2.6c4.2-0.5,8.3-0.8,12.5-1c-0.1-3.7,0-7.4,0.2-11.1
	c-4.6,0.3-9.3-1.4-12.6-4.7C206.1,222.2,206.3,227.2,204.9,231.8z"/>
<path fill="#9A444F" d="M226.9,465.8c-0.1-7.5-0.2-15-0.3-22.4c-0.2-17.9-0.4-36.4-1.1-54.6c-0.3-7.3-0.5-14.6-0.8-21.8
	c-0.5-14.6-1-29.8-2-44.7c-0.2-2.9-0.4-5.9-0.6-8.8c-1.6-24.5-3.1-47.7-13.2-69.9l0.9-0.5c4.6,10.1,7.8,21.4,9.9,34.6
	c1.9,11.8,2.7,24,3.4,35.8c0.2,2.9,0.4,5.9,0.6,8.8c1.1,14.9,1.5,30.1,2,44.7c0.2,7.1,0.5,14.5,0.8,21.8c0.7,18.3,0.9,36.8,1.1,54.7
	c0.1,7.3,0.2,14.9,0.3,22.4L226.9,465.8z"/>
<path fill="#FFB99F" d="M226.9,184.7c0.1,0.1,0.2,0.2,0.2,0.3c2,2.1,3.1,4.9,4.1,7.7c2,5.3,4.4,11.5,3.3,17.3
	c-0.5,2.5-2,4.4-2.7,6.8c-0.8,2.8-1.5,5.6-2.3,8.3c-3.1,11-7,21.8-11.2,32.5c-0.9,2.3-1.8,4.6-3.3,6.5c-1.9,2.5-4.8,3.2-6.6,5.9
	c-2.5,3.8-4.5,8.1-6.8,12.1c-0.2,0.4-0.5,0.9-0.4,1.4c0.1,0.7,0.9,1.1,1.6,1c0.7-0.1,1.3-0.6,1.8-1.1c1.9-1.6,3.6-3.4,5.2-5.4
	c0.6-0.7,1.3-1.5,2.2-1.4c1.4,0.2-8.9,22-9.7,23.4c-0.2,0.4-0.4,0.8-0.4,1.2c0,0.9,1,1.4,1.8,1.7c2.2,0.8,4.4,1.6,6.6,2.5
	c0.6,0.2,1.1,0.4,1.7,0.4c1.2,0,2.2-0.9,3-1.8c2.8-3,4.1-7,6.2-10.5c2.1-3.7,4.4-7.7,4.8-12c0.7-6.9,2.4-11.8,5.9-17.9
	c3.9-6.9,7.5-13.9,11.1-20.9c2.6-5.1,5.2-10.2,7.8-15.3c5.7-11.2,9-24.5,6.5-37.1c-1.7-8.6-5.4-16.6-9.4-24.3
	c-0.9-1.6-2.1-3.5-3.9-3.4c-0.9,0-1.7,0.6-2.5,1.2c-5.7,4.4-10.6,9.8-14.8,15.7c-0.8,1.1-1.5,2.5-1,3.7
	C226.2,183.9,226.6,184.3,226.9,184.7z"/>
<path fill="#FFFFFF" d="M220.8,132c-0.2-0.1-0.3-0.1-0.5-0.2c-0.5-0.2-1-0.3-1.4-0.2c-0.5,0.2-0.7,0.7-1,1.1c-3,5.9-6.9,11-7.2,17.7
	c-0.5,10.1,2.1,19.9,7.6,28.4c3.9,6.1,8.5,11.6,11.6,18.2c11.5-5.6,20-16.2,27.3-27c-5.1-8.1-10.2-16.1-15.3-24.2
	c-1.2-1.9-2.4-3.8-4-5.3c-1.6-1.5-3.6-2.6-5.6-3.6C228.5,135.2,224.7,133.5,220.8,132z"/>
<path fill="#396342" d="M217.2,128.7c2.3,1.4,4.9,3.4,4.7,6.1c-0.1,0.8-0.4,1.5-0.7,2.2c-5.6,12.2-18,20.5-21.1,33.6
	c-1.1,4.7-0.9,9.5-0.7,14.3c-2-1.2-4-2.3-6-3.5c-0.5-0.3-1.1-0.6-1.3-1.2c-0.2-0.5-0.2-1-0.1-1.6c0.7-7.1,3.7-13.8,7.5-19.8
	c3.8-6,8.4-11.3,12.7-16.9C215.1,138.2,218.1,133.5,217.2,128.7z"/>
<path fill="#040312" d="M155.1,308c0,0,0.1-0.1,0.1-0.1c0.1-0.1,0.2-0.3,0.3-0.5c0.1-0.5-0.5-0.8-0.9-1c-3.7-1.6-7.4-3.1-11.1-4.7
	c-1.2-0.5-3.1-1.9-3.4-0.2c-0.5,3.2,0.1,7,0.5,10.1c0.4,2.6,1,5.2,1.7,7.8c0.1,0.4,0.3,0.9,0.6,1.1c0.8,0.7,2-0.1,2.8-1
	C149,315.8,152.1,312,155.1,308z"/>
<path fill="#040312" d="M181,273.7c0.2-0.1,0.4-0.3,0.6-0.5c1.5-1.6,2.9-3.3,4.3-5c1.3-1.6,2.2-3.4,3.4-5.1c0.3-0.4,0.6-0.9,0.8-1.4
	c0.1-0.5,0-1.1-0.4-1.5c-0.2-0.1-0.4-0.2-0.7-0.3c-2.8-0.8-5.6-1.5-8.4-2.3c-1.3-0.4-2.6-0.7-4-0.7c-0.2,0-0.4,0-0.6,0.2
	c-0.2,0.2-0.2,0.5-0.1,0.7c0.6,5.1,1.8,9.7,3.5,14.6c0.2,0.6,0.5,1.2,1.1,1.3C180.6,273.9,180.8,273.8,181,273.7z"/>
<path fill="#FF8963" d="M170.9,214.1c0.9,0.5,1.8-0.7,2.3-1.7c1.8-4.2,3.7-8.5,5.4-12.7c-4.6,0-9.1,0.5-13.6,1.6
	c1.3,4.1,3.1,8.1,5.2,11.9C170.4,213.6,170.5,213.9,170.9,214.1z"/>
<path fill="#FF8963" d="M174.5,337.9c1.3,0,2.9-2.1,3.6-3.2c1.2-1.9,2.2-3.8,3.2-5.8c0.9-1.9,2.4-3.7,3.5-5.5
	c0.3-0.4,0.5-0.9,0.3-1.3c-0.2-0.4-0.7-0.6-1.2-0.6c-4.2-0.7-8.5-1.1-12.8-1.2c-0.3,0-0.6,0-0.9,0.2c-0.5,0.4-0.5,1.2-0.4,1.8
	c0.8,4.1,1.6,8.2,2.6,12.3c0.2,0.8,0.4,1.7,0.8,2.4c0.2,0.4,0.5,0.8,0.9,0.9C174.3,337.9,174.4,337.9,174.5,337.9z"/>
<path fill="#AD4557" d="M155.2,294.5c2.8-2.9,5.5-5.8,8.3-8.6c0.6-0.6,1-1.4,1.5-2.1c0.4-0.5,1.1-0.8,1.5-1.5c0.3-0.5,0.4-1.2,0-1.7
	c-0.3-0.3-0.7-0.4-1.1-0.5c-2.1-0.6-4.2-1.3-6.2-2.1c-1.9-0.8-3.8-1.7-5.8-1.4c-0.4,0.1-0.8,0.2-1,0.5c-0.2,0.4-0.2,0.8-0.1,1.2
	c0.5,2.9,1,5.8,1.5,8.7C154.2,289.5,154.2,292.2,155.2,294.5z"/>
<path fill="#FBDDC5" d="M180.8,309.5C180.8,309.5,180.8,309.5,180.8,309.5l-0.3,0l-0.1-0.3c-0.2-1.2-0.5-2.4-0.7-3.6
	c-0.6-3.1-1.2-6-1.3-9.2c0-0.6,0-1.2,0.4-1.7c0.4-0.4,1-0.5,1.4-0.5c0.1,0,0.2,0,0.3,0c3.6,0.2,7.2,0.8,10.6,1.9
	c0.8,0.2,1.3,0.7,1.4,1.2c0.2,0.7-0.1,1.4-0.9,2.3c-1.9,2.1-3.8,4.1-5.9,6c-0.2,0.2-1.4,1.1-2.4,2
	C181.1,309.5,180.9,309.5,180.8,309.5z M180.2,295c-0.5,0-0.7,0.1-0.9,0.3c-0.2,0.3-0.2,0.7-0.2,1.1c0.1,3.2,0.7,6,1.3,9.1
	c0.2,1,0.4,2.1,0.6,3.1c1.1-0.7,4-3.2,4.3-3.4c2-1.9,4-3.9,5.8-6c0.5-0.6,0.8-1.2,0.7-1.6c-0.1-0.3-0.4-0.6-1-0.7
	c-3.4-1.1-6.9-1.7-10.4-1.8C180.4,295,180.3,295,180.2,295z"/>
<path fill="#FBDDC5" d="M166.6,268.5l-0.1,0c-0.7,0-1.3-0.7-1.5-1.9c-0.4-2.9-0.8-5.9-1.2-8.8l-0.1-0.6l9.9,4.5l-0.3,0.4
	C171.4,264.4,169.2,266.6,166.6,268.5L166.6,268.5z M164.7,258.4c0.3,2.7,0.7,5.4,1.1,8.1c0,0.3,0.2,1.2,0.7,1.3
	c2.3-1.7,4.3-3.7,6.2-5.9L164.7,258.4z"/>
<path fill="#FBDDC5" d="M186.9,230.5L186.9,230.5c-0.4,0-0.8-0.4-1-1l-4-13.3l14.6,0.4l-0.1,0.4c-0.6,2.3-2.1,4.2-3.4,5.9l-5.4,7.1
	c-0.1,0.2-0.3,0.4-0.7,0.5C187,230.5,187,230.5,186.9,230.5z M182.9,216.9l3.7,12.3c0.1,0.4,0.3,0.5,0.3,0.5c0,0,0,0,0,0
	c0.1,0,0.2-0.2,0.2-0.2l5.4-7.1c1.2-1.5,2.5-3.3,3.1-5.2L182.9,216.9z"/>
<path fill="#FBDDC5" d="M153.8,345.8C153.8,345.8,153.8,345.8,153.8,345.8L153.8,345.8c-0.9,0-1.7-1.2-2.3-3.6
	c-0.3-1.2-0.5-2.4-0.6-3.2c0-0.2-0.1-0.4-0.1-0.6c-0.6-3-0.8-6.2-0.8-9.2c0-0.4,0-1.2,0.6-1.6c0.2-0.1,0.5-0.2,0.8-0.2
	c0.1,0,0.3,0,0.4,0c3.3,0.4,6.5,1.2,9.7,2.3c0.9,0.3,1.4,0.8,1.6,1.4c0.4,1.2-0.5,2.6-1.4,3.9c-0.3,0.4-0.5,0.8-0.7,1.2
	c-1.6,3.1-3.8,5.9-5.8,8.6L155,345C154.8,345.3,154.4,345.8,153.8,345.8z M151.5,328c-0.2,0-0.3,0-0.4,0.1c-0.3,0.2-0.3,0.7-0.3,1.1
	c-0.1,3,0.2,6.1,0.7,9.1c0,0.1,0.1,0.3,0.1,0.6c0.1,0.7,0.3,2,0.6,3.1c0.7,2.8,1.4,3.1,1.6,3.1l0,0.4l0-0.4c0.2,0,0.4-0.2,0.6-0.5
	l0.2-0.3c2.1-2.7,4.2-5.4,5.8-8.5c0.2-0.4,0.5-0.8,0.8-1.2c0.7-1.1,1.5-2.4,1.3-3.2c-0.1-0.4-0.5-0.7-1.2-1
	c-3.1-1.1-6.3-1.9-9.5-2.3C151.7,328,151.6,328,151.5,328z"/>
<path fill="#9A444F" d="M180.6,463.7c-0.7-9.4-1.8-18.8-2.9-28c-1.2-10.1-2.4-20.5-3.1-30.8c-0.8-12.9-2.2-24.4-4-35.2l1-0.2
	c1.9,10.9,3.2,22.5,4,35.4c0.7,10.3,1.9,20.7,3.1,30.8c1.1,9.2,2.2,18.6,2.9,28L180.6,463.7z"/>
<path fill="#9A444F" d="M203.1,453.4l0-1.1l14-0.5c5.4-0.2,10.4-0.4,15.4-0.6l0,1.1c-5,0.2-10,0.4-15.4,0.6L203.1,453.4z"/>
<path fill="#9A444F" d="M159.8,455.6l0-1.1c8-0.4,16.2-0.5,24.3-0.3l0,1.1C176,455.2,167.8,455.3,159.8,455.6z"/>
<polygon fill="#9A444F" points="158.1,375.5 146.8,368.7 147.4,367.8 158.6,374.6 "/>
<path fill="#9A444F" d="M161.7,373.3c-4.4-1.4-8.5-3.4-12.3-6l0.6-0.9c3.7,2.5,7.8,4.5,12.1,5.8L161.7,373.3z"/>
<path fill="#9A444F" d="M207.1,375.7l-0.5-0.9c4.7-2.9,9.2-6.3,13.3-10.2l0.7,0.8C216.5,369.2,211.9,372.7,207.1,375.7z"/>
<polygon fill="#9A444F" points="212,378 211.2,377.3 219.9,367.8 220.6,368.5 "/>
<path fill="#FE9268" d="M205.8,304.2l-0.9-0.5c1.5-2.9,3.4-5.6,5.2-8.2c1.9-2.8,3.9-5.7,5.5-8.8l0.9,0.5c-1.6,3.2-3.6,6.1-5.6,8.9
	C209.1,298.6,207.2,301.3,205.8,304.2z"/>
<polygon fill="#FE9268" points="210.3,305.1 209.5,304.5 219.7,288.2 220.6,288.8 "/>
<path fill="#9A444F" d="M232.6,216.4c0,0,0-0.1,0-0.2c0-0.1,0-0.3,0.1-0.5c0-0.2,0.1-0.5,0.2-0.8c0-0.1,0.1-0.3,0.1-0.5
	c0-0.2,0.1-0.3,0.1-0.5c0.1-0.4,0.2-0.7,0.4-1.1c0-0.1,0.1-0.2,0.1-0.3c0-0.1,0.1-0.2,0.1-0.3c0.1-0.2,0.2-0.4,0.3-0.6
	c0.2-0.4,0.4-0.9,0.6-1.3c0.2-0.4,0.5-0.9,0.7-1.3c0.3-0.4,0.5-0.8,0.8-1.2c0.3-0.4,0.6-0.8,0.8-1.1c0.1-0.2,0.3-0.4,0.4-0.5
	c0.1-0.1,0.1-0.2,0.2-0.2c0.1-0.1,0.1-0.2,0.2-0.2c0.3-0.3,0.6-0.6,0.8-0.8c0.1-0.1,0.3-0.3,0.4-0.4c0.1-0.1,0.2-0.2,0.4-0.3
	c0.2-0.2,0.4-0.3,0.6-0.5c0.2-0.1,0.3-0.2,0.4-0.3c0.1-0.1,0.1-0.1,0.1-0.1s0,0.1-0.1,0.1c-0.1,0.1-0.2,0.2-0.3,0.4
	c-0.1,0.2-0.3,0.4-0.5,0.6c-0.1,0.1-0.2,0.2-0.3,0.4c-0.1,0.1-0.2,0.3-0.3,0.4c-0.2,0.3-0.4,0.6-0.7,0.9c-0.1,0.1-0.1,0.2-0.2,0.2
	c-0.1,0.1-0.1,0.2-0.2,0.3c-0.1,0.2-0.2,0.4-0.4,0.5c-0.1,0.2-0.3,0.4-0.4,0.6c-0.1,0.2-0.2,0.4-0.4,0.6c-0.2,0.4-0.5,0.8-0.8,1.2
	c-0.2,0.4-0.5,0.8-0.7,1.2c-0.1,0.2-0.2,0.4-0.3,0.6c-0.1,0.2-0.2,0.4-0.3,0.6c-0.1,0.2-0.2,0.4-0.3,0.6c-0.1,0.1-0.1,0.2-0.2,0.3
	c0,0.1-0.1,0.2-0.1,0.3c-0.2,0.4-0.4,0.7-0.5,1c-0.1,0.2-0.2,0.3-0.2,0.5c-0.1,0.2-0.1,0.3-0.2,0.4c-0.1,0.3-0.2,0.5-0.3,0.7
	c-0.1,0.2-0.2,0.3-0.2,0.4C232.6,216.4,232.6,216.4,232.6,216.4z"/>
<path fill="#9A444F" d="M106.1,162.9c0,0,0,0,0.1,0.1c0.1,0.1,0.2,0.1,0.4,0.2c0.2,0.1,0.3,0.2,0.6,0.4c0.1,0.1,0.2,0.2,0.3,0.3
	c0.1,0.1,0.2,0.2,0.4,0.3c0.1,0.1,0.3,0.2,0.4,0.3c0.1,0.1,0.3,0.3,0.4,0.4c0.1,0.1,0.3,0.3,0.4,0.4c0.1,0.1,0.3,0.3,0.4,0.5
	c0.3,0.3,0.5,0.7,0.8,1c0.3,0.4,0.5,0.7,0.7,1.1c0.2,0.4,0.5,0.8,0.6,1.2c0.2,0.4,0.4,0.8,0.5,1.2c0.1,0.2,0.2,0.4,0.2,0.6
	c0.1,0.2,0.1,0.4,0.2,0.6c0.1,0.2,0.1,0.4,0.2,0.5c0.1,0.2,0.1,0.3,0.1,0.5c0,0.2,0.1,0.3,0.1,0.5c0,0.2,0.1,0.3,0.1,0.4
	c0.1,0.3,0.1,0.5,0.1,0.7c0,0.2,0,0.4,0,0.5c0,0.1,0,0.2,0,0.2s0-0.1-0.1-0.1c0-0.1-0.1-0.2-0.2-0.4c-0.1-0.2-0.2-0.4-0.3-0.6
	c-0.1-0.2-0.2-0.5-0.4-0.8c-0.1-0.3-0.3-0.6-0.5-1c-0.1-0.2-0.2-0.3-0.3-0.5c-0.1-0.2-0.2-0.4-0.3-0.5c-0.2-0.4-0.4-0.7-0.6-1.1
	c-0.2-0.4-0.4-0.7-0.6-1.1c-0.2-0.4-0.4-0.7-0.7-1.1c-0.2-0.4-0.5-0.7-0.7-1c-0.1-0.2-0.2-0.3-0.3-0.5c-0.1-0.2-0.2-0.3-0.3-0.5
	c-0.2-0.3-0.4-0.6-0.6-0.8c-0.2-0.3-0.4-0.5-0.5-0.7c-0.2-0.2-0.3-0.4-0.4-0.5c-0.1-0.1-0.2-0.3-0.3-0.4
	C106.1,162.9,106.1,162.9,106.1,162.9z"/>
<path fill="#FFE5DB" d="M189.4,487.9c-0.4-3.5-1.9-6.8-4.1-9.5l0.8-0.7c2.4,2.8,3.9,6.4,4.3,10L189.4,487.9z"/>
<path fill="#FFE5DB" d="M216.7,486.6l-0.9-0.4c2.3-5.3,6.9-9.6,12.2-11.5l0.3,1C223.3,477.5,219,481.6,216.7,486.6z"/>
<path fill="#FFE5DB" d="M199.5,480.8c-1.4-2.3-3-4.5-4.8-6.4l0.7-0.7c1.8,2,3.5,4.2,4.9,6.6L199.5,480.8z"/>
<path fill="#FFE5DB" d="M204.3,478.7c-1.5-2.1-3.2-4.1-4.9-6l0.7-0.7c1.7,1.9,3.4,4,5,6.1L204.3,478.7z"/>
<path fill="#FBDDC5" d="M163,294.8c1.7-1.1,3.2-2.5,4.5-4.2c0.3-0.4,0.6-0.8,0.4-1.3c-0.1-0.2-0.2-0.4-0.4-0.6
	c-1.7-1.6-4-2.6-6.3-2.7c-0.2,0-0.3,0-0.4,0.1c-0.1,0.1,0,0.2,0,0.3c0.2,2.3,0.4,4.7,0.5,7c0,0.3,0.1,0.7,0.2,1
	c0.1,0.3,0.4,0.6,0.7,0.6C162.5,295.1,162.8,295,163,294.8z"/>
<path fill="#FF8963" d="M142.7,302.1c0.1,0.1,0.3,0.2,0.4,0.2c1.6,0.3,3-1.1,4.4-1.9c0.8-0.5,1.8-0.8,2.7-1.2c0.9-0.4,1.7-1.1,2.1-2
	c-3.5-2.3-7-4.7-10.5-7c-0.1,3.9-0.2,7.8,0.7,11.5C142.6,301.9,142.6,302,142.7,302.1z"/>
<path fill="#FF8963" d="M156.7,271.2c0.4,0.2,0.9-0.1,1.3-0.4c1.2-1,2.4-2.2,3.4-3.4c0.3-0.4,0.7-0.8,0.6-1.3
	c-1.8-1.2-3.8-2.1-5.9-2.6c-0.3,2.2-0.2,4.5,0.1,6.7C156.3,270.6,156.4,271,156.7,271.2z"/>
<path fill="#040312" d="M162.3,236.6c-0.4,0-0.8,0-1.1,0l0-1.1c18,0,36.3-0.9,54.2-2.8l0.1,1.1C197.9,235.6,180,236.6,162.3,236.6z"
	/>
<path fill="#040312" d="M162.9,226.2l-0.1-1.1c16.6-1.4,34.1-2.5,53.4-3.3l0,1.1C197,223.8,179.5,224.8,162.9,226.2z"/>
<path fill="#040312" d="M171.3,238.1c0,0,0,0.1,0,0.2c0,0.1,0,0.2-0.1,0.4c-0.1,0.4-0.2,0.9-0.3,1.5c-0.1,0.3-0.1,0.6-0.2,1
	c-0.1,0.3-0.2,0.7-0.3,1.1c-0.1,0.4-0.2,0.8-0.3,1.2c-0.1,0.4-0.2,0.8-0.3,1.2c-0.1,0.4-0.2,0.8-0.3,1.2c-0.1,0.4-0.2,0.8-0.3,1.2
	c0,0.2-0.1,0.4-0.1,0.6c0,0.1,0,0.2-0.1,0.3c0,0.1,0,0.2-0.1,0.3c-0.1,0.3-0.2,0.7-0.2,1c-0.1,0.3-0.2,0.6-0.2,0.8
	c-0.1,0.2-0.1,0.5-0.2,0.6c0,0.2-0.1,0.3-0.1,0.4c0,0.1,0,0.1,0,0.1s0-0.1,0-0.2c0-0.1,0-0.2,0-0.4c0-0.2,0-0.4,0-0.7
	c0-0.1,0-0.3,0-0.4c0-0.1,0-0.3,0-0.5c0-0.3,0-0.7,0.1-1c0-0.2,0-0.4,0.1-0.6c0-0.2,0.1-0.4,0.1-0.6c0.1-0.4,0.1-0.8,0.2-1.2
	c0.1-0.4,0.2-0.8,0.3-1.2c0.1-0.4,0.2-0.8,0.4-1.2c0.1-0.4,0.3-0.8,0.4-1.2c0.1-0.4,0.3-0.7,0.4-1.1c0.1-0.3,0.3-0.6,0.4-0.9
	c0.1-0.3,0.2-0.5,0.4-0.8c0.1-0.2,0.2-0.4,0.3-0.6c0.1-0.2,0.2-0.3,0.2-0.4C171.2,238.1,171.3,238.1,171.3,238.1z"/>
<path fill="#040312" d="M186.5,238.6c0.9,4.2-0.2,8.6-1.3,12.8L186.5,238.6z"/>
<path fill="#9A444F" d="M201.4,96.1c-0.2,0.1-0.3,0.2-0.4,0.3c-0.7,0.7-0.7,1.9-1,2.8c-0.5,1.3-1,2.6-1.6,3.9c0.2-0.5,1-1,1.4-1.3
	c0.5-0.5,1-1,1.4-1.6c0.6-0.8,2.1-2.2,1.8-3.4C202.8,96,202,95.8,201.4,96.1z"/>
<polygon fill="#040312" points="203,193.9 197.3,171.1 151.5,171 151.5,169.9 198.1,170 204,193.7 "/>
<ellipse fill="#040312" cx="62.6" cy="113.7" rx="62.6" ry="3"/>
<path fill="#040312" d="M190.1,152.5c-1.9,0-3.8-0.3-5.8-0.9c-3.5-1-6.8-2.9-9.6-5.4c-2.8-2.5-5-5.6-6.4-8.9l0.9-0.4
	c2.7,6.5,8.5,11.8,15.3,13.7c2,0.6,3.9,0.9,5.7,0.8c6.8-0.1,13-4.3,18-7.7l0.6,0.8c-5.1,3.5-11.4,7.8-18.5,7.8
	C190.2,152.5,190.1,152.5,190.1,152.5z"/>
<path fill="#040312" d="M228.7,196.8c-4.5-6.6-8.8-13.4-12.6-20.4l0.9-0.5c3.8,7,8,13.8,12.6,20.3L228.7,196.8z"/>
<path fill="#040312" d="M221,190.7c-2.6-2.3-5.4-4.5-8.3-6.5l0.6-0.8c2.9,2,5.8,4.2,8.4,6.6L221,190.7z"/>
<path fill="#040312" d="M149.8,212.1c-0.9-17.1-2.1-34.5-3.5-51.6l1-0.1c1.4,17.1,2.6,34.5,3.5,51.6L149.8,212.1z"/>
<path fill="#040312" d="M215.8,154.6l-0.9-0.4c2-4.4,4.6-8.5,7.8-12.1l0.8,0.7C220.3,146.4,217.7,150.3,215.8,154.6z"/>
<path fill="#FFB99F" d="M79.5,125.4c1.6-1.2,2.2-4.2,1.3-6.7c-1.8-4.8-4.7-8.1-8.1-11.8c-1.6-1.7-3-3.8-3.3-6.1
	c-1.4,0.1-2.4,1.5-2.7,2.9c-0.6,3.3,1.8,5.2,2.7,8.1c1,3,1.7,6,3,9c0.6,1.4,1.2,2.8,2.2,3.8C76.7,126.3,78.4,126.3,79.5,125.4z"/>
<rect x="171.6" y="490.7" transform="matrix(0.9992 -4.116085e-02 4.116085e-02 0.9992 -20.0462 8.6239)" fill="#040312" width="55.7" height="0.8"/>
<rect x="126.5" y="489.4" transform="matrix(0.9992 -3.961169e-02 3.961169e-02 0.9992 -19.2844 6.2826)" fill="#040312" width="44.7" height="0.8"/>
<g>
	<path fill="#FE9268" d="M444.1,88.4c2.1,0.2,3.6,2.4,3.6,4.5c0.1,2.1-0.9,4.2-1.9,6.2c-4.3,8.3-10.4,16.3-18.8,20.2
		c-0.7,0.3-1.7,0.6-2.2,0.1c-0.4-0.4-0.4-1-0.4-1.6c0.1-11.1,6.4-22.2,15.9-28.1C441.4,89,442.7,88.3,444.1,88.4z"/>
	<g>
		<ellipse fill="#9A444F" cx="435.8" cy="93.5" rx="63.9" ry="12.1"/>
		<path fill="#FBDDC5" d="M385.9,83.8c0,6.7,22,12.1,49.2,12.1s49.2-5.4,49.2-12.1c0-6.7-23-38.8-50.2-38.8
			C407,45,385.9,77.2,385.9,83.8z"/>
		<path fill="#E0C4B1" d="M431.3,53.9c-0.3-3.6-0.1-7.2,0.5-10.7c0.2-1.1,0.4-2.4,1.1-3.5c0.8-1.3,2-2,3.2-2.1
			c2-0.1,3.5,1.7,4.1,3.3c0.4,1.1,0.5,2.3,0.6,3.5c0,0.5,0.1,1,0.1,1.5l-1.1,0.1c-0.1-0.5-0.1-1-0.1-1.6c-0.1-1.1-0.2-2.2-0.5-3.2
			c-0.5-1.3-1.6-2.6-3-2.6c-0.9,0-1.8,0.6-2.4,1.6c-0.6,0.9-0.8,2.1-1,3.1c-0.6,3.5-0.8,7-0.5,10.5L431.3,53.9z"/>
		<path fill="#E0C4B1" d="M422.8,92c-5.2,0-10.4-0.8-15.5-2.2c-0.2-0.1-0.4-0.1-0.6-0.2c-6.1-1.7-12.3-3.8-12.2-6.7
			c0-1.6,1.3-3.7,2.3-5.4c0.3-0.4,0.5-0.9,0.7-1.2c1.2-2.2,2.5-4.3,4-6.3c2.7-3.7,6.1-6.9,8.7-9.2c2.9-2.6,5.8-4.3,9.2-6.2l0.5,0.9
			c-3.4,1.9-6.2,3.6-9,6.1c-2.6,2.3-5.8,5.4-8.5,9.1c-1.4,2-2.7,4-3.9,6.2c-0.2,0.4-0.5,0.8-0.7,1.3c-0.9,1.5-2.1,3.5-2.1,4.8
			c0,0.5,0.5,1.7,4.3,3.3c2.5,1.1,5.5,1.9,7.1,2.3c0.2,0.1,0.5,0.2,0.6,0.2c5,1.4,10.1,2.2,15.2,2.2c0,0,0.1,0,0.1,0L422.8,92
			C422.9,92,422.8,92,422.8,92z"/>
		<path fill="#FFFFFF" d="M454.7,63.2c-1-2.3-2.2-4.5-4-6.3c7.2,4.5,12.9,11.4,16.1,19.2c-2.8-0.1-5.7,0.1-8.5,0.6
			C458.2,72.1,456.7,67.5,454.7,63.2z"/>
		<path fill="#040312" d="M427.5,104.6c-6.9,0-14.3-0.5-20.6-1l-1.8-0.1c-9-0.6-19.1-1.4-27.1-6c-0.8-0.5-1.7-1.1-2.3-2
			c-0.6-0.9-0.8-1.9-0.3-2.9c0.9-2.1,3.8-3.6,5.6-3.9c0.3,0,0.5-0.1,0.8-0.1c0.7-0.1,1.4-0.1,1.8-0.6c0.2-0.2,0.5-0.2,0.8,0
			c0.2,0.2,0.2,0.5,0,0.8c-0.7,0.7-1.6,0.8-2.5,0.9c-0.3,0-0.5,0-0.7,0.1c-1.5,0.2-4,1.6-4.7,3.2c-0.3,0.7-0.2,1.3,0.2,1.9
			c0.5,0.7,1.3,1.2,2,1.7c7.8,4.6,17.8,5.3,26.6,5.9l1.8,0.1c9,0.7,20.3,1.5,29.1,0.6c0.3,0,0.6,0.2,0.6,0.5c0,0.3-0.2,0.6-0.5,0.6
			C433.4,104.5,430.5,104.6,427.5,104.6z"/>
	</g>
	<path fill="#FFB99F" d="M321,463.5c-0.9-4.7-4.6-46.6-3.9-46.6c7.8-0.1,15.7,0.3,23.5,1.3c1.1,6,0.3,12.2,0.4,18.3
		c0.1,9.3,2.1,18.6,5.7,27.1c0.7,1.6,12.7,21.8,9.8,22.5c-2.7,0.6-5.8,0.2-8.4-0.5c-8.3-2.1-15-8.3-21.4-14.3
		c-2.2-2.1-4.7-4.1-5.5-7.1C321.1,464.1,321,463.8,321,463.5z"/>
	<path fill="#040312" d="M319.2,463c0.4-2.1,1.5-5.9,1.5-5.7c1.6,3.8,5.2,6.2,8.6,8.4c1.8,1.2,8.1,6.9,10,3.5
		c0.4-0.7,0.5-1.6,0.7-2.3c0.6-1.9,2.6-3.2,4.5-3.3c2-0.1,3.9,0.9,5.1,2.5c0.8,1,1.3,2.1,1.8,3.2c1.8,4,4,7.9,6.3,11.7
		c1.4,2.3,6.2,7.1,6.2,9.8c-0.4,1.4-1.9,2.1-3.3,2.4c-8.5,2-16-0.3-22.5-6.1c-2.6-2.4-4.9-5.2-7.5-7.7c-3.2-3.1-8.2-4.6-10.5-8.7
		c-1.2-2.1-1.2-4.3-1.3-6.7C319,464,319.1,463.5,319.2,463z"/>
	<path fill="#FFB99F" d="M307.7,424.1c0.2,0.4,0.4,0.9,0.3,1.3c-0.1,0.7-0.5,1.3-0.8,1.8c-2.3,3.4-4.4,7-6.2,10.8
		c-0.8,1.8-4.1,7-4,9c0,0,1.8,27.1,1.8,27.1s1.4,13.5-4.9,4.1c-9.6-14.1-24.4-30.3-14.8-48.5c2.6-5,7.6-16.9,13-19.2
		c5.8-2.5,11.7,8.6,14.8,12.4C307.2,423.3,307.5,423.7,307.7,424.1z"/>
	<path fill="#040312" d="M367.9,87.1C367.9,87.1,367.8,87.1,367.9,87.1c-2.9,2.1-6.8,2.5-10,1.2c-0.6-0.2-1.2-0.5-1.8-0.7
		c-1.6-0.3-3,0.6-4.4,1.2c-1.4,0.5-2.9,1-4.3,1.4c-4.9,1.4-10-2.7-15-1.5c-1,0.2-2,0.7-3.1,0.4c-1-0.3-1.9-0.5-2.9-0.6
		c-1.4-0.1-2.7-0.6-4-0.9c-1.7-0.4-3.2-0.3-4.6-1.3c-0.8-0.5-1.4-1.2-2.3-1.4c-0.8-0.2-1.6,0.1-2.4,0.3c-2.9,0.5-6.1-0.8-7.8-3.2
		c-0.9-1.3-1.4-2.8-2.7-3.6c-1.5-0.9-3.4-0.3-5.1-0.7c-1.5-0.4-2.8-1.5-3.7-2.8c-0.8-1.2-1.5-2.6-1.1-4c0.2-0.8,0.8-1.5,1.5-1.9
		c0.5-0.4,1.8-0.6,2.2-1c0.4-0.5,0.2-1.5,0.5-2.2c0.3-0.8,0.9-1.5,1.4-2c1.1-1.1,2.4-2.1,3.1-3.5c0.7-1.4,0.6-3.1,1-4.6
		c0.4-1.5,1.3-2.8,2.5-3.8c0.8-0.6,1.7-1.1,2.4-1.8c1.1-1,1.7-2.5,2.3-3.9c1.8-4.2,4-8.2,7.1-11.5c4.7-4.9,11.2-6.7,17.8-7.1
		c3.8-0.2,7.6,0.6,11.1,2.3c2.7,1.3,5.1,4.5,8.2,4.6c6.5,0.3,11.1,5.5,13.7,11c0.5,1.1,1,2.3,1.3,3.5c0.4,1.5,0.4,3.1,0.3,4.6
		c0,1.7-0.1,3.3-0.3,5c-0.1,1.4-0.2,2.8,0,4.2c0.3,2.2,1.5,4.4,0.9,6.6c-0.3,0.9-0.9,1.6-1,2.5c-0.3,1.6,0.6,3.6,0.8,5.3
		c0.1,1,0,1,0.8,1.8c0.8,0.7,1.7,1.2,2.5,2c1.2,1.1,2.1,2.8,1.4,4.3c-0.5,1.2-1.9,1.8-3.1,1.6c-0.5-0.1-1-0.3-1.5-0.2
		C368.8,86.4,368.3,86.8,367.9,87.1z"/>
	<path fill="#FE9268" d="M370.5,190.3c-0.3-0.2-0.5-0.5-0.7-0.8c-4.2-4.8-4.7-11-6-17c-2.4-11.5-3.4-23.3-2.8-35
		c0.2-3.5,0.5-7,2.1-10.1c1.6-3,4.7-5.5,8-5.2c10.3,0.8,13.1,15.9,15.1,24.1c2.6,10.6,3.5,21.6,2.6,32.5c-0.1,1.5-0.3,3-0.6,4.5
		c-0.6,2.2-1.6,4.3-2.9,6.1c-0.9,1.2-1.9,2.3-3.1,3C378.4,194.7,373.6,193.3,370.5,190.3z"/>
	<path fill="#9A444F" d="M302.7,438.1c-2.2,2.6-21.8-17.8-21.8-18.2c0-0.3,0.4-1,0.4-1c16-27.3,30.8-55.2,46.9-82.5
		c0.8-1.3,1.5-2.6,2.3-3.9l-13.9-98.3c0,0,1.5-12.8,1.5-12.8c8.3-1,17-2.8,25.3-2.9c7.2-0.1,12.8-2.3,19.6-4.8
		c0.9-0.3,1.9-0.7,2.9-0.4c1.6,0.4,2.3,2.3,2.7,3.9c9.1,35.6,7.5,73.5,6.4,109.9c-0.1,2-0.1,3.9-0.4,5.9c-0.6,3.7-2.2,7.2-3.8,10.7
		c-10.5,22.1-25.6,40.5-40.5,59.7C321.3,415,312.1,426.7,302.7,438.1z"/>
	<path fill="#9A444F" d="M292.7,206.8c-4.6,14.2-5.7,29.5-4.8,44.5c1.1,17.1,4.7,33.8,8.5,50.5c2.5,11.1,6.6,22,8.6,33.1
		c3.2,17.4,1.9,34.9,3.9,52.2c1.4,11.8,2.8,23.6,4.2,35.4c0.6,4.6,0.8,9.2,2,13.6c0.4,1.5,3.2,6.7,1.5,8c3.8-2.9,8.2-4,12.8-4.8
		c2.6-0.4,5.2-0.3,7.8-0.4c3.1-0.2,6.1-0.9,9.1,0.4c-0.2-2.2-0.4-4.4-0.5-6.6c-0.1-4.7-0.3-9.3-0.4-14c-0.4-13.7-0.8-27.3-1.3-41
		c-0.7-22.3-1.4-44.6-2.1-66.9c-0.7-5.6-1.4-11.3-2.2-16.9c-1.4-10.8-2.9-21.5-4.3-32.3c-1.3-9.5,2.8-20.2,4.7-29.7
		c1.7-8.4,4.1-17.2,4.8-25.7c0.6-7-9.2-9-14.2-11.3c-10-4.6-25.2-14.8-32.5-1.7c-1.4,2.5-2.6,5.1-3.7,7.8
		C294,202.9,293.3,204.9,292.7,206.8z"/>
	<path fill="#3A5D43" d="M371.7,222.2c0.1,0.9,0.1,1.7,0.2,2.6c-7.6,2-15.9,1.9-23.6,2.5c-8.3,0.6-16.2,2.1-24.5,1.7
		c-2.4-0.1-28.6-4-28.2-5.3c1.1-4,3.1-8.5,3.4-12.6c0.2-2.8-1.1-8,0.6-10.4c-4.5,6.6-8.1,14-10.5,21.7c-4-2.2-8-4.4-12-6.6
		c5.6-7.7,11.2-15.5,14.9-24.4c4.3-10.2,4.6-19.4,2.7-30.1c-0.4-2.5-0.9-5-1.9-7.4c-0.9-2.1-2.2-3.9-3.5-5.7
		c-6.1-8.2-12.9-15.8-20.2-22.8c-0.4-0.4-0.9-0.9-0.9-1.5c0-0.5,0.3-0.9,0.6-1.2c4.3-5.2,8.7-10.5,14.2-14.3
		c5.4-3.8,10.6-4.8,17-5.2c4.3-0.3,8.6-1.4,13-1.7c9-0.6,18-0.6,27,0.3c5.1,0.5,10.3,1.3,15.3,2.4c6.4,1.4,11.9,2.6,17.2,6.7
		c5,3.9,8.5,9.5,11.8,14.9c0.4,0.7,0.9,1.5,0.8,2.3c-0.1,0.6-0.4,1.1-0.7,1.5c-1.2,1.7-2.7,3.3-4.3,4.7c-0.9,0.8-1.9,1.6-2.6,2.6
		c-2.2,3.3-0.5,7.8-1,11.8c-0.4,3.5-2.5,6.5-3.9,9.7c-3.8,8.9-2.7,20.4-2.5,29.8C370.1,199.6,370.9,211,371.7,222.2z"/>
	<path fill="#040312" d="M302.4,257.4c5-3.1,9.9-6.4,13.6-11.1c3.2-4,5.2-8.8,6.8-13.6c0.2-0.6,1-0.2,0.9,0.4c-1.7,5-3.7,9.7-7,13.8
		c-3.8,4.7-8.7,8.1-13.8,11.2C302.4,258.5,301.9,257.7,302.4,257.4z"/>
	<path fill="#FBDDC5" d="M370.8,206.9c0.1,0.8-15.5,3.4-17.1,3.6c-5.4,0.7-10.9,1-16.3,0.7c-7.1-0.4-14.2-1.3-21-3.2
		c-3-0.8-5.7-1.5-8.8-1.8c-1.8-0.2-3.6-0.3-5.4-0.1c-0.5,0-4.8,1-4.9,0.8c1.2,1.5,2.9,2.4,4.3,3.8c1.2,1.3,2,2.8,2.8,4.4
		c2.8,5.6,5.4,10.7,7.2,16.8c2.5,8.3,3.9,16.2,5.2,24.7c4.5,29.1,6.5,58.7,5.9,88.1c28,3.5,56.4,3.2,84.3-0.9
		C395.1,298.6,377.8,253.1,370.8,206.9z"/>
	<path fill="#FFB99F" d="M266.2,127.9c0.1-0.1,0.2-0.2,0.3-0.3c1.9-2,5.5-8.6,8.8-7.5c1.7,0.6,3.2,3.1,4.4,4.5
		c1.7,1.9,3.3,3.9,4.7,6c2.9,4.2,5.2,8.9,6.9,13.8c0.1,0.3,0.2,0.5,0.1,0.8c-0.1,0.2-0.3,0.4-0.5,0.5c-5.7,3.7-11.4,7.3-16.7,11.5
		c-1.4,1.2-2.8,2.5-3.6,4.2c-2.4,5.4,4.8,14.8,7.2,19.3c2.6,3.4,4.4,8,6.6,11.8c2.1,3.6,4,7.4,6.2,11c0.1,0.2,0.3,0.5,0.5,0.6
		c0.2,0.1,0.5,0.2,0.8,0.2c3.4,0.1,7,0.1,10.3,0.5c3.5,0.4,6.6,2.6,9.9,3.7c2.3,0.8,4.7,1.2,7.2,1.2c3.8,0.1,2.3,3.3-0.3,4.3
		c-0.9,0.3-1.8,0.2-2.8,0c-1.6-0.2-3.5-0.8-5.2-0.8c-1.3,0.1-2.6,0.4-3.9,0.7c2.2,2.8,5.6,4.1,7.5,7.3c2.1,3.6,3.3,8,4.8,11.8
		c0.6,1.5,1.2,3.3,0.4,4.7c-0.6,1-1.7,1.6-2.8,2c-1.3,0.4-2.6,0.7-3.9,0.9c-1,0.1-2.1,0.1-3.1-0.3c-1.3-0.6-2.3-1.9-3.1-3.1
		c-2-2.9-3.5-6.1-6.2-8.3c-2.4-2-5.3-3.5-7.8-5.3c-1.5-1.1-3.1-2.1-4.5-3.4c-4-3.7-8.7-6.5-12.6-10.3c-5.3-5.2-9.2-11.5-13.6-17.3
		c-3.6-4.7-7.2-9.4-10.9-14.1c-6.3-8.2-9.9-17.5-4.6-27.3c2.3-4.2,5.5-7.8,8.8-11.3C259.1,135.8,262.7,131.8,266.2,127.9z"/>
	<path fill="#FFB99F" d="M348.1,74.6c0,4.4,0,8.7,0,13.1c0,3.8-1.6,9.5,0.4,13c2.5,4.4,9.2,4.6,13.1,6.8c-1.2,2-3.7,3.5-5.3,5.2
		c-2.1,2.2-4.5,4.1-7.1,5.6c-5.2,3-11.2,4.6-17.2,4c-10.2-1-19.8-8.8-22.3-19.2c0.5,2.2,9.1-2.2,10-2.9c3.8-2.9,3.5-6.5,4-10.9
		c0.6-5.5,1.3-11,1.9-16.5L348.1,74.6z"/>
	<path fill="#FE9268" d="M335.6,94c-0.5-0.1-1-0.2-1.5-0.3c-8.1-2.5-12.4-17-2.5-20.1c1.5-0.5,3.2-0.7,4.8-0.5
		c9.6,1,15.7,10.4,7.7,18.2C341.8,93.4,338.6,94.4,335.6,94z"/>
	<path fill="#FFB99F" d="M322.1,62c-1.3,9.4,2.3,22.3,11.9,25.7c5.8,2,11.9,0.2,16.2-4.2c9.2-9.4,16.7-32.9,3.7-42.4
		c-2.6-2-5.9-2.8-9.1-3.3C331.1,35.7,323.8,49.3,322.1,62z"/>
	<path fill="#FFB99F" d="M354.7,75c-0.3-1.8,0.1-3.7,0.7-5.4c0.6-1.8,1.5-4.3,3.1-5.5c2-1.5,4.7-0.4,4.8,2.2
		c0.1,1.4-0.5,2.8-1.1,4.1c-0.1,0.3-0.2,0.5-0.3,0.8c-0.5,1.2-1.1,2.4-1.9,3.4c-0.8,1-2,1.8-3.2,1.9c-0.6,0.1-1.4-0.1-1.7-0.6
		C354.9,75.7,354.8,75.4,354.7,75z"/>
	<path fill="#FFB99F" d="M320.5,66.3c-0.7,0-1.4-0.3-2.1-1.1c-0.7-0.8-1-1.9-1.2-2.9c-0.5-2.7,0-5.6,1.2-8c0.3-0.6,0.7-1.2,1.2-1.7
		c2.4-2.4,6.3-1.1,6.3,2.3c0,1.2-0.1,2.4-0.4,3.6C325,60.5,323.1,66.2,320.5,66.3z"/>
	<path fill="#040312" d="M324.5,41.8c-1.6,2.4-3,4.8-4.6,7.3c-0.2,0.3-0.4,0.7-0.4,1c0.1,0.5,0.6,0.8,1,0.9c0.5,0.1,1,0.1,1.4,0.3
		c0.7,0.3,1.2,1,1.4,1.7c0.2,0.7,0.2,1.5,0.1,2.3c0,1-0.1,2-0.1,3c0.9-1.9,1.8-3.8,3.2-5.4c1.4-1.6,3.3-2.4,5.4-2.4
		c2.1,0.1,4.1,1.2,6.2,1.3c2,0.2,4,0.1,6-0.2c2-0.3,4.2-1,5.2-2.8c0.5-0.8,0.7-1.8,0.9-2.7c0.7,2,0.5,4.4-0.4,6.3
		c1.4-0.6,2.6-1.7,3.4-2.9c0.4-0.6,0.6-1.3,0.9-2c0.9-1.8,1.9,4,1.8,4.7c-0.1,2.8,2.5,4.9,2.3,7.6c-0.3,2.9-1.1,5.8-0.9,8.7
		c0.3-0.8,0.6-1.7,0.9-2.5c0.8-2.5,3.4-3.7,5.9-2.4c-0.4-2.2-0.4-4.4-0.3-6.7c0-1.9,1-3.5,1.3-5.4c0.5-3.2-0.5-7.4-2.8-10.2
		c-1.1-1.4-2.5-2.4-4.2-2.7c-2.5-0.5-4.9-1.1-7.2-2.3c-4.2-2-7.3-5.2-12.2-5.2c-3.4,0-6.8,1.5-9.3,3.9c-1,1-2,2.1-2.9,3.2
		C325.7,39.3,325.3,40.6,324.5,41.8z"/>
	<path fill="#9A444F" d="M351.9,58.8c-0.8-0.4-1.6-0.8-2.1-1.6c-0.2-0.2-0.3-0.5-0.3-0.7c0-0.3,0.2-0.6,0.4-0.8
		c0.5-0.5,1.1-0.6,1.8-0.6c0.6,0,1.2,0.3,1.8,0.5c1.1,0.5,6,2.4,3.6,4.3c-0.2,0.2-0.5,0.3-0.8,0.3c-0.9,0.2-1.9-0.2-2.7-0.6
		C353.1,59.3,352.5,59.1,351.9,58.8z"/>
	<path fill="#9A444F" d="M340.3,51.3c0,0.6,0,1.2-0.1,1.7c-0.2,0.5-0.5,1.1-1,1.3c-0.4,0.2-0.9,0.1-1.4,0.1c-2-0.3-4-0.6-5.8-1.5
		c-0.7-0.3-1.4-0.9-1.3-1.6c0-0.5,0.4-0.9,0.8-1.1c0.4-0.2,0.9-0.2,1.4-0.3c1.5-0.1,3-0.1,4.4,0c0.7,0,1.5,0.1,2,0.6L340.3,51.3z"/>
	<path fill="#9A444F" d="M331.9,74.6c0,1.2,0,2.5,0.4,3.7c0.7,2.1,2.1,3.7,4,4.6c1.9,0.9,3.7,0.9,5.4-0.3c1.5-1.1,3.1-2.5,3.8-4.3
		c0.4-1.2,0-1.5-1.1-1.2c-1.1,0.3-2.2,0.3-3.3,0.1c-1.2-0.3-2.4-0.6-3.5-1.1c-1.1-0.5-2.1-1.3-3-2.1c-0.7-0.7-1.1-1.5-1.7-2.2
		c-0.2-0.3-0.6-0.3-0.8,0.1C331.8,72.6,331.9,73.6,331.9,74.6z M332.8,73c0.1,0.2,0.3,0.4,0.4,0.6c0.4,0.4,0.8,0.8,1.2,1.2
		c1,0.9,2.1,1.7,3.3,2.2c1.2,0.5,2.5,0.8,3.7,1.1c1.2,0.3,2.2,0.1,3.4-0.1c-0.9,1.3-1.9,2.6-3.2,3.5c-1.6,1.2-3.2,1.5-5,0.5
		c-1.6-0.8-3-2.2-3.5-4.1c-0.3-1.1-0.3-2.1-0.4-3.3C332.8,74.2,332.8,73.6,332.8,73z"/>
	<path fill="#FFFFFF" d="M332.8,74.7c0,1.1,0.1,2.2,0.4,3.3c0.5,1.9,1.9,3.3,3.5,4.1c1.8,0.9,3.4,0.6,5-0.5c1.3-1,2.2-2.3,3.2-3.5
		c-1.2,0.2-2.2,0.4-3.4,0.1c-1.3-0.3-2.5-0.6-3.7-1.1c-1.2-0.5-2.3-1.3-3.3-2.2c-0.4-0.4-0.8-0.7-1.2-1.2c-0.2-0.2-0.3-0.4-0.4-0.6
		C332.8,73.6,332.8,74.2,332.8,74.7z"/>
	<path fill="#040312" d="M349.3,62.6c0-0.1,0.1-0.3,0.1-0.4c0.3-0.6,0.8-1.2,1.5-1.3c2.9-0.6,1.1,3.9-0.3,4.6
		C348.9,66.4,349,63.8,349.3,62.6z"/>
	<path fill="#040312" d="M333.7,59.6c-0.9-1-0.6-4.2,0.8-4.4c0.8-0.1,1.8-0.2,1.9,1c0,0.7-0.3,1.4-0.5,2.1c-0.1,0.4-0.3,0.9-0.6,1.2
		c-0.3,0.3-0.8,0.5-1.2,0.4C334,59.8,333.8,59.8,333.7,59.6z"/>
	<path fill="#FE9268" d="M358.7,72.5c0.8-0.4,1.4-1.1,1.9-1.9c0.4-0.6,0.8-1.2,1.2-1.9c0.4-0.8,0.7-1.9,0.2-2.7
		c-0.4-0.6-1.3-0.8-2-0.5c-0.9,0.4-1.3,1.5-1.5,2.5c-0.4,1.5-0.9,3-1.3,4.6c0,0,0,0.1,0,0.1c0,0.1,0.2,0.1,0.3,0.1
		C357.8,72.7,358.3,72.7,358.7,72.5z"/>
	<path fill="#FE9268" d="M322.7,57.1c0.1,0.6,0.4,1.1,0.4,1.6c0,0.5-0.3,0.9-0.5,1.3c-0.2,0.5-0.2,1-0.3,1.6
		c-0.4-0.1-0.7-0.5-0.9-0.9c-0.6-1.2-0.9-2.5-0.8-3.9c0.1-1.3,0.7-2.6,1.8-3.4c0.2,0.9,0.2,1.8,0.2,2.8
		C322.7,56.5,322.6,56.8,322.7,57.1z"/>
	<path fill="#040312" d="M354,59.3c0.7-0.5,1.3-1,2-1.5c0.5-0.3,1,0.4,0.5,0.8c-0.7,0.5-1.3,1-2,1.5C354.1,60.4,353.6,59.6,354,59.3
		z"/>
	<path fill="#040312" d="M352,58.5c0.7-0.5,1.4-1,2.1-1.5c0.5-0.3,1,0.4,0.5,0.8c-0.7,0.5-1.4,1-2.1,1.5
		C352.1,59.6,351.5,58.8,352,58.5z"/>
	<path fill="#040312" d="M337.1,53.3c0.8-0.5,1.2-1.4,1.8-2.1c0.4-0.4,1.1,0.2,0.7,0.6c-0.7,0.7-1.1,1.7-1.9,2.2
		C337.2,54.4,336.7,53.6,337.1,53.3z"/>
	<path fill="#040312" d="M335.2,53.2c0.8-0.7,1.2-1.7,2-2.5c0.4-0.4,1.1,0.2,0.7,0.6c-0.7,0.8-1.2,1.7-2,2.5
		C335.5,54.2,334.8,53.6,335.2,53.2z"/>
	<path fill="#FFFFFF" d="M326.5,47.1c1.4-1.7,3-3,5-3.8c0.5-0.2,0.8,0.7,0.3,0.9c-1.8,0.7-3.3,2-4.6,3.6
		C326.8,48.1,326.1,47.5,326.5,47.1z"/>
	<path fill="#FFFFFF" d="M323.3,45.1c0.4-0.6,0.8-1.3,1.3-1.8c0.5-0.5,1.1-0.9,1.6-1.3c1.3-0.9,2.7-1.5,4.1-2
		c0.5-0.2,0.9,0.7,0.3,0.9c-1.3,0.4-2.5,0.9-3.7,1.7c-0.5,0.4-1.1,0.8-1.6,1.2c-0.6,0.5-1,1.3-1.4,1.9
		C323.7,46.2,323,45.6,323.3,45.1z"/>
	<path fill="#FFFFFF" d="M320.4,43c1.3-3.1,4.6-4.7,7.6-5.5c0.6-0.1,0.9,0.7,0.3,0.9c-2.8,0.7-5.9,2.1-7.1,5
		C321,43.9,320.2,43.5,320.4,43z"/>
	<path fill="#FFFFFF" d="M312.4,78.4c2.4-1.7,3.6-4.7,4.7-7.4c0.2-0.6,1-0.2,0.8,0.4c-1.1,2.9-2.4,6-5,7.8
		C312.4,79.5,311.9,78.7,312.4,78.4z"/>
	<path fill="#FFFFFF" d="M310.2,77.5c2.3-1.6,3.9-4.4,4.8-7.1c0.2-0.6,1-0.4,0.9,0.2c-0.9,3-2.6,6-5.1,7.7
		C310.2,78.6,309.7,77.8,310.2,77.5z"/>
	<path fill="#FE9268" d="M310.2,103.5c0.7,0.3,1.8-0.3,2.4-0.5c1.2-0.4,2.4-0.8,3.6-1.3c2.1-0.9,4.3-2.2,5.5-4.3
		c1.4-2.5,1.6-5.4,1.8-8.2c0.2-2.8,0.4-5.6,0.7-8.4c-0.1-0.1-0.1-0.2-0.1-0.4c0.2-1.2-0.2-2.3-0.6-3.4c-0.4-1.1-0.7-2.3-1-3.5
		c-0.5-2.3-1-4.7-1-7c0-0.6,0.9-0.7,0.9-0.1c0,2.5,0.5,5,1.1,7.5c0.5,1.9,1.5,3.8,1.5,5.8c0.1,0.1,0.2,0.2,0.1,0.4
		c-0.4,3.3-0.6,6.6-0.8,10c-0.2,3-0.7,6-2.4,8.6c-1.4,2.1-3.9,3.3-6.1,4.2c-1.2,0.5-2.4,0.9-3.6,1.2c-0.8,0.2-1.8,0.6-2.5,0.3
		C309.2,104.1,309.6,103.3,310.2,103.5z"/>
	<path fill="#FE9268" d="M343,88.1c1.8-0.5,3.6-1.9,5.1-3.2c1.6-1.4,3.3-2.7,4.5-4.5c2.4-3.3,4-7.2,4.5-11.3c0.1-0.6,1-0.4,0.9,0.2
		c-0.5,4.2-2.3,8.3-4.7,11.7c-1.2,1.8-2.9,3.1-4.5,4.5c-1.5,1.4-3.5,2.9-5.5,3.5C342.7,89.1,342.4,88.2,343,88.1z"/>
	<path fill="#9A444F" d="M273.3,173.9c0,0,0-0.1-0.1-0.2c-0.1-0.1-0.2-0.3-0.3-0.5c-0.1-0.2-0.3-0.5-0.4-0.8
		c-0.1-0.2-0.2-0.3-0.3-0.5c-0.1-0.2-0.2-0.4-0.3-0.5c-0.2-0.4-0.4-0.8-0.7-1.2c-0.1-0.1-0.1-0.2-0.2-0.3c-0.1-0.1-0.1-0.2-0.2-0.3
		c-0.1-0.2-0.3-0.5-0.4-0.7c-0.3-0.5-0.5-1-0.9-1.4c-0.3-0.5-0.6-1-0.9-1.5c-0.3-0.5-0.7-1-1-1.4c-0.1-0.1-0.2-0.2-0.2-0.4
		c-0.1-0.1-0.2-0.2-0.2-0.3c-0.2-0.2-0.3-0.5-0.5-0.7c-0.2-0.2-0.3-0.4-0.5-0.7c-0.1-0.1-0.2-0.2-0.2-0.3c-0.1-0.1-0.2-0.2-0.2-0.3
		c-0.3-0.4-0.6-0.8-0.9-1.1c-0.1-0.2-0.3-0.3-0.4-0.5c-0.1-0.2-0.2-0.3-0.4-0.4c-0.2-0.3-0.4-0.5-0.6-0.7c-0.2-0.2-0.3-0.4-0.4-0.5
		c-0.1-0.1-0.1-0.2-0.1-0.2s0.1,0,0.2,0.1c0.1,0.1,0.3,0.2,0.5,0.4c0.2,0.2,0.4,0.4,0.7,0.6c0.1,0.1,0.3,0.2,0.4,0.4
		c0.1,0.1,0.3,0.3,0.5,0.4c0.3,0.3,0.7,0.7,1,1c0.2,0.2,0.4,0.4,0.5,0.6c0.2,0.2,0.4,0.4,0.5,0.6c0.4,0.4,0.7,0.9,1.1,1.4
		c0.3,0.5,0.7,1,1,1.5c0.3,0.5,0.6,1,0.9,1.5c0.3,0.5,0.6,1,0.8,1.5c0.1,0.3,0.2,0.5,0.4,0.7c0.1,0.1,0.1,0.2,0.2,0.4
		c0.1,0.1,0.1,0.2,0.1,0.4c0.2,0.5,0.4,0.9,0.5,1.3c0.1,0.2,0.2,0.4,0.2,0.6c0.1,0.2,0.1,0.4,0.2,0.5c0.1,0.3,0.2,0.6,0.3,0.9
		c0.1,0.2,0.1,0.4,0.2,0.6C273.3,173.8,273.3,173.9,273.3,173.9z"/>
	<path fill="#FE9268" d="M316.9,237.7l-3.1-7.5c-0.3-0.8-0.7-1.6-1-2.3c-1.2-2.3-2.8-4.3-4.8-5.8l0.7-0.9c2.1,1.6,3.9,3.8,5.1,6.2
		c0.4,0.8,0.7,1.6,1.1,2.4l3.1,7.5L316.9,237.7z"/>
	<path fill="#FE9268" d="M313.3,238.6c-0.6-1.1-1.1-2.2-1.7-3.3c-1-2-2-4.1-3.1-5.9c-0.9-1.4-2.2-2.5-3.6-3.7c-1-0.9-2-1.7-2.9-2.7
		l0.8-0.7c0.8,0.9,1.8,1.8,2.8,2.6c1.4,1.2,2.8,2.4,3.8,3.9c1.2,1.9,2.2,4,3.2,6c0.5,1.1,1.1,2.2,1.6,3.3L313.3,238.6z"/>
	<path fill="#FFB99F" d="M412.9,160.2c-4,7-8.1,13.8-12.6,20.5c-1.9,2.8-4,6.5-7,8.2c-3,1.7-6.2,3.4-9.3,5c-0.8,0.4-1.7,0.9-2.6,1
		c-1,0.1-2-0.1-3-0.4c-1.7-0.5-3.5-1.2-4.9-2.3c-2.5-2.1-3.6-5.4-3.7-8.7c-0.1-4.8,1.6-8.6,3.1-12.9c1.7-4.8,4-9.4,6.9-13.6
		c4.9-6.9,12-12.5,18.4-17.9c7.8-6.6,18.6-12.7,23.8-21.8c1.7-2.9,3.6-5.8,6.4-7.9c2.1-1.5,4.5-2.5,7-2.8c2.5-0.3,5.2-0.4,7.4-2
		c0.8-0.6,1.4-1.4,2.1-2.1c2.1-2.3,4.5-4.4,7.1-6.2c0.8-0.5,2.3-1.6,3.3-1.1c1.5,0.7,0.2,1.5-0.4,2.5c-1.8,2.9-3.7,5.8-5.5,8.8
		c-1.6,2.7-3.6,3.9-6.1,5.8c-4.4,3.3-7.5,8.2-10.4,12.9C425.9,136.6,419.6,148.5,412.9,160.2z"/>
	<path fill="#FFFFFF" d="M362.2,41.8c1.9,1.6,2.7,3.4,3.5,5.7c0.2,0.6-0.6,0.9-0.8,0.3c-0.7-2.1-1.5-3.9-3.3-5.3
		C361.2,42.1,361.8,41.4,362.2,41.8z"/>
	<path fill="#FFFFFF" d="M359.2,43.8c2,1.9,3.3,4.5,3.4,7.3c0,0.6-0.9,0.7-0.9,0.1c-0.1-2.6-1.2-4.9-3.1-6.7
		C358.2,44.1,358.7,43.4,359.2,43.8z"/>
	<path fill="#040312" d="M334.4,128.5c-0.6,0-1.2,0-1.8-0.1c-10.9-0.8-20.7-8.4-29-22.8l0.9-0.5c8.2,14,17.6,21.5,28.1,22.2
		c9.3,0.7,17.7-4.1,23.1-8.2c5.9-4.5,9.7-9.2,9.7-9.3l0.8,0.7c0,0-3.9,4.9-9.9,9.4C351.3,124,343.3,128.5,334.4,128.5z"/>
	<path fill="#040312" d="M291.8,147.7c-3.6-11.6-8.3-18.7-11.6-22.7c-3.6-4.3-6.3-5.8-6.3-5.8l0.5-0.9c0.1,0.1,2.9,1.6,6.6,6
		c3.4,4,8.2,11.3,11.9,23.1L291.8,147.7z"/>
	<path fill="#040312" d="M322,202.2c-4.3-3.1-8.9-6.2-14.6-7.6c-1.2-0.3-2.4-0.5-3.6-0.7c-2.1-0.4-4.3-0.8-6.3-1.6l0.4-1
		c1.9,0.8,4.1,1.2,6.1,1.5c1.2,0.2,2.5,0.4,3.7,0.7c5.8,1.5,10.8,4.8,14.9,7.8L322,202.2z"/>
	<path fill="#040312" d="M319.8,193.1c-4.1-2.9-9.9-3.9-17.5-3l-0.1-1.1c7.9-0.8,13.8,0.2,18.2,3.2L319.8,193.1z"/>
	<path fill="#FBDDC5" d="M356.5,150.2c-1.3,6,0,12.2,0.1,18.4c0,1,0,2.1-0.5,3s-1.7,1.4-2.6,0.9c-0.4-0.3-0.7-0.7-0.9-1.2
		c-2.7-4.8-5.4-9.7-5.8-15.2c0.7-0.2,1.3,0.5,1.7,1.2c1.7,2.8,3.2,5.7,4.4,8.8c0.5-2.3-0.2-4.8-0.4-7.2c-0.2-2.2,0.1-4.5,1-6.6
		c0.3-0.7,0.6-1.3,1.1-1.8C355.1,150.1,355.9,149.9,356.5,150.2z"/>
	<path fill="#FBDDC5" d="M301.2,132.9c-0.1,0.1-0.2,0.1-0.3,0.1c-0.4,0-0.6-0.6-0.5-1c0.5-5.1,4.3-9.1,8-12.5
		c0.4,3.6,0.7,7.2,1.1,10.9c0.3,2.9,0.6,5.9-0.5,8.6c-0.7,0.3-1.2-0.7-1.4-1.5c-0.4-2.8-0.6-5.5-0.5-8.3c0-1.8,0.2-3.7-0.7-5.3
		C305.3,127.3,304.1,131,301.2,132.9z"/>
	<path fill="#FBDDC5" d="M351.4,209.9c1,2.1,1.8,4.6,1.1,6.8c-2.5,0.6-4.9-0.9-7-2.4c-2.6-1.8-5.3-3.7-7.2-6.3
		c-0.2-0.3-0.4-0.7-0.2-1c0.2-0.3,0.7-0.2,1.1,0c3.3,1.7,6.3,3.9,9,6.3c0.1-1.4-0.8-2.6-1.4-3.8c-0.9-1.8-1.5-3.8-1.5-5.8
		c0-0.5,0-0.9,0.3-1.3c0.2-0.4,0.8-0.6,1.1-0.3C348.6,204.6,350.1,207.2,351.4,209.9z"/>
	<path fill="#FBDDC5" d="M308.4,178.2c2.9-3.5,5.2-7.5,7.4-11.4c1.4-2.5,2.8-5.2,2.8-8.1c0-0.2,0-0.5-0.1-0.7
		c-0.1-0.2-0.4-0.3-0.6-0.4c-2.5-0.8-5.2,0.6-7.5,2c-2.1,1.3-4.3,2.7-5.3,4.9c3.1-0.9,6.2-1.7,9.3-2.6
		C314.4,166.8,308.1,173.4,308.4,178.2z"/>
	<path fill="#FBDDC5" d="M353.9,125.8c0.2-0.8,0.8-1.8,1.5-1.6c0.6,0.2,0.8,0.9,0.8,1.6c0.2,2.2,0.1,4.5-0.2,6.7
		c0.6,0.2,1.1-0.4,1.4-0.9c0.9-1.6,1.2-3.4,2-5.1c0.7-1.7,2.1-3.3,3.9-3.2c-0.8,4.6-2.7,9-5.4,12.7c-0.9,1.2-2.4,2.5-3.7,1.8
		C353.1,134,353,129.7,353.9,125.8z"/>
	<path fill="#FBDDC5" d="M291.3,126.1c-0.6,0-1.2-0.6-1.4-1.2c-0.2-0.6-0.1-1.3-0.1-2c0.2-2.8,0.1-5.7-0.4-8.5
		c-1.5,1.8-3.7,3.1-6,3.4c-0.3-2.2,1.7-4,3.6-5c1.3-0.7,2.7-1.2,4.1-1.6c0.7,2.5,1.4,5,1.6,7.5C292.9,121.2,292.6,123.9,291.3,126.1
		z"/>
	<path fill="#FBDDC5" d="M327.3,186.4c-0.7-0.2-1.1-0.9-1.2-1.5c-0.1-0.7,0-1.4,0.2-2.1c0.7-3.2,1.3-6.4,2-9.5
		c0.3-1.2,0.6-2.6,1.7-3.2c1.5,3.5,0.1,7.5-1.3,11c2-0.2,3.3-2.1,4.5-3.7c1.3-1.6,3.1-3.2,5-2.6c-2.4,3.8-5.3,7.4-8.5,10.5
		C328.9,186,328.1,186.7,327.3,186.4z"/>
	<path fill="#FBDDC5" d="M357.5,199.9c-1.3-0.7-2.6-1.4-3.8-2.1c-1.7-1-3.6-2.5-3.3-4.5c1.6-0.6,3.4,0.3,4.8,1.3
		c1.4,1.1,2.7,2.4,4.4,2.8c-1.2-2.8-1.6-6-1.1-9c2.9,3.7,4.8,8.3,5.4,13.1C361.7,201.9,359.5,200.9,357.5,199.9z"/>
	<path fill="#FF816B" d="M329.1,65.3c-0.5-0.5-1.1-1.1-1.3-1.8c-0.3-0.7-0.2-1.6,0.3-2.1c0.5-0.6,1.4-0.7,2.1-0.5
		c1.7,0.5,4.6,2.8,3.8,5C333.1,68.2,330.2,66.2,329.1,65.3z"/>
	<path fill="#FF816B" d="M348.9,69c0.6-0.5,1.3-1,2.1-1.3c0.3-0.1,0.7-0.3,1-0.3c1.9-0.2,2,1.1,1.6,2.5c-0.3,1.2-1.2,1.3-2.2,1.6
		c-0.9,0.3-2.1,0.2-2.8-0.5c-0.2-0.2-0.4-0.4-0.4-0.7C348.1,69.8,348.5,69.4,348.9,69z"/>
	<path fill="#040312" d="M344.2,11.8c-0.2,0.3-0.5,0.5-0.8,0.7c-1.9,1.3-4.6-1-6.7-0.2c-0.7,0.3-1.2,0.8-1.6,1.4
		c-1.1,1.6-1.3,3.8-0.5,5.6c0.4,0.9,1,1.8,1.4,2.8c0.6,1.8,0.3,3.7,0.7,5.5c1.1,4.3,5.7,8.5,10,9.1c2.4,0.4,6.1-0.1,7.9-2
		c0.7-0.8,1.1-1.7,1.9-2.4c1.1-1.1,2.1-2.2,3-3.5c0.6-0.9,1.2-2,1.2-3.1c0-1.3-0.7-2.5-0.7-3.8c0-1,0.4-2,0.7-3
		c0.4-1.6,0.2-3.3-0.5-4.8c-0.3-0.7-0.8-1.3-1.4-1.8c-1.6-1.2-4-0.5-5.6,0.7c-0.2,0.2-0.4,0.3-0.7,0.4c-0.8,0.3-1.6-0.2-2.2-0.9
		c-0.5-0.6-0.9-1.4-1.5-1.9c-1-0.8-2.5-0.8-3.5,0C344.8,11.1,344.5,11.5,344.2,11.8z"/>
	<path fill="#FFFFFF" d="M351.8,29.8c2-1.2,3.7-2.8,4.8-5c1-2.2,1-4.7,0.7-7.1c-0.1-0.6,0.8-0.7,0.9-0.1c0.3,2.5,0.3,5-0.7,7.4
		c-1,2.4-3,4.2-5.1,5.5C351.8,30.9,351.3,30.1,351.8,29.8z"/>
	<path fill="#FFFFFF" d="M349.9,26.2c1.3-1,2.4-2.2,3-3.8c0.6-1.6,0.6-3.5,0.5-5.2c0-0.6,0.9-0.7,0.9-0.1c0.1,1.9,0,3.8-0.6,5.6
		c-0.6,1.8-1.9,3.1-3.3,4.2C349.9,27.3,349.4,26.5,349.9,26.2z"/>
	<path fill="#FFFFFF" d="M336.8,29.1c1.7,2,3.8,3.4,6.3,4.1c2.3,0.7,4.8,0.7,7.2,0.7c0.6,0,0.6,0.9,0.1,0.9c-2.6,0-5.3-0.1-7.9-0.9
		c-2.5-0.8-4.7-2.3-6.4-4.3C335.7,29.2,336.5,28.6,336.8,29.1z"/>
	<path fill="#FE9268" d="M320.7,107.5c3.2-0.2,6.2,2.4,7.6,5.2c0.3,0.5-0.5,1.1-0.7,0.5c-1.3-2.5-4-5-6.8-4.8
		C320.1,108.5,320.1,107.5,320.7,107.5z"/>
	<path fill="#FE9268" d="M416.5,124.5c2-1.5,4.4-1.7,6.6-2.7c0.5-0.2,0.9,0.6,0.4,0.8c-2.1,0.9-4.6,1.1-6.4,2.5
		C416.6,125.5,416,124.8,416.5,124.5z"/>
	<path fill="#040312" d="M317,444.7l-0.6-0.9c7.2-4.3,14.9-5.6,20.1-5.9c4.3-0.3,7.6,0.1,9,0.2l-2.7-59.3
		c-0.4-7.9-1.1-15.9-1.9-23.7c-0.2-1.6-0.3-3.2-0.5-4.8l1.1-0.1c0.2,1.6,0.3,3.2,0.5,4.8c0.8,7.8,1.5,15.8,1.9,23.8l2.8,60.6
		l-0.7-0.1C345.8,439.3,330.4,436.7,317,444.7z"/>
	<path fill="#040312" d="M317.6,436.2c-2.4-17.2-5-36.6-6.1-55.8c-0.3-6.3-0.3-12.8-0.2-19.1c0.1-10,0.2-20.2-1.3-30.3
		c-1.7-11.1-4.3-22.2-6.8-32.9c-1.8-7.8-3.7-15.8-5.3-23.8c-1.7-8.7-2.7-16.4-3.2-23.4c-0.5-8.3,0.1-16.5,0.7-23.4l1.1,0.1
		c-0.7,6.8-1.3,14.9-0.7,23.2c0.5,7,1.5,14.6,3.1,23.3c1.5,8,3.4,16,5.3,23.8c2.5,10.8,5.2,21.9,6.9,33c1.5,10.2,1.4,20.5,1.3,30.5
		c-0.1,6.3-0.2,12.7,0.2,19c1,19.1,3.7,38.6,6,55.7L317.6,436.2z"/>
	<path fill="#040312" d="M303.8,484.1c-0.7,0.9-2.1,1.3-3.3,1.5c-12.8,1.6-21.7-11.1-23.9-22.6c-0.9-4.7-1.2-9.5-2.3-14.2
		c-0.9-3.8-4.8-6.5-4.3-10.7c0.3-2.6,2.2-4.6,4-6.4c1.2-1.2,2.5-2.4,3.8-3.5c0.4-0.3,0.9-0.7,1.3-0.5c0.2,9.4,3.4,18.5,6.7,27.1
		c0.2,0.4,0.4,0.8,0.8,1c0.5,0.2,1-0.2,1.3-0.6c2.3-2.4,2.8-4,5.8-2.7c6.1,2.6,5.6,12.7,6.6,18.3c0.2,1.1,0.4,2.2,0.7,3.2
		c0.8,2.4,2.4,4.5,3,6.9c0.2,0.7,0.3,1.6,0.1,2.3C304.2,483.6,304,483.8,303.8,484.1z"/>
	<path fill="#FE9268" d="M433.3,124.2c-4.7,7.1-8.8,14.6-13.1,21.9c-0.3,0.5-1,0-0.7-0.5c4.3-7.4,8.4-14.8,13.1-21.9
		C432.9,123.1,433.6,123.7,433.3,124.2z"/>
	<path fill="#040312" d="M310.5,336.2c2.2,1.1,4.4,2,6.5,3.3c1.9,1.1,4.1,2.8,4.1,5.2c0,0.3-0.2,0.5-0.4,0.5c-1.8,0.2-3.6,0-5.4-0.6
		c1.4,1.5,2.6,3.3,2.7,5.5c0,0.2-0.2,0.5-0.4,0.5c-3.2,0.1-5.2-3.2-6.9-5.5c-0.4-0.5,0.4-1,0.8-0.5c1.3,1.8,3,4.8,5.5,5.1
		c-0.4-2.7-2.6-4.8-4.7-6.6c-0.5-0.4-1-0.8-1.4-1.2c-0.4-0.4,0.1-1.1,0.6-0.7c0.4,0.4,0.9,0.7,1.3,1.1c2.1,1.5,4.8,2.3,7.3,2.1
		c-0.3-2-2.5-3.4-4.1-4.3c-1.9-1.1-4-1.9-5.9-2.9C309.6,336.8,309.9,335.9,310.5,336.2z"/>
	<path fill="#040312" d="M284.6,419.8l-0.9-0.5c7.6-13.1,15.7-26.2,24.1-38.9l0.9,0.6C300.3,393.6,292.2,406.7,284.6,419.8z"/>
	<path fill="#FFE5DB" d="M351,490.8c-0.3,0-0.7,0-1,0c-5.5-0.2-10.5-2.8-14.2-7.3c-2.3-2.8-5.2-5.1-7.9-7.2c-2-1.5-4-3.1-5.8-4.9
		c-1.8-1.8-2.8-3.8-2.7-5.8l1.1,0c-0.1,2.2,1.5,4.1,2.4,5c1.8,1.8,3.8,3.3,5.7,4.9c2.8,2.2,5.7,4.5,8.1,7.4
		c3.5,4.3,8.2,6.7,13.4,6.9c3.7,0.1,7.4-0.6,11-1.2l0.2,1.1C357.9,490.1,354.5,490.8,351,490.8z"/>
	<path fill="#FFE5DB" d="M299.5,482.8c-6.2,0-12.5-3.4-15.6-8.8c-3.5-6.1-5.2-12.9-6.8-19.6l-0.1-0.3c-0.1-0.5-0.2-0.9-0.3-1.4
		c-0.6-2.7-1.2-5.3-2.3-7.8c-1.5-3.5-2.5-6.7-3.1-9.8l1.1-0.2c0.6,3.1,1.6,6.2,3.1,9.6c1.1,2.6,1.7,5.2,2.4,8
		c0.1,0.5,0.2,0.9,0.3,1.4l0.1,0.3c1.6,6.6,3.2,13.3,6.7,19.3c3.6,6.2,11.6,9.6,18.5,7.8l0.3,1C302.3,482.7,300.9,482.8,299.5,482.8
		z"/>
	<path fill="#FFE5DB" d="M286.5,469.6c-1-4.1-1.4-8.2-1.2-12.4l1.1,0.1c-0.2,4.1,0.2,8.1,1.1,12.1L286.5,469.6z"/>
	<path fill="#FFE5DB" d="M345.5,479.2c-1-0.5-1.7-1.4-2.4-2.3c-1.6-2.1-3.1-4.3-4.4-6.5l0.9-0.5c1.3,2.2,2.8,4.4,4.3,6.4
		c0.6,0.8,1.2,1.5,2.1,2L345.5,479.2z"/>
	<g>
		<path fill="#3A5D43" d="M342.6,250.8c-1.3,0.4-2.1,1.6-3.3,2.2c-0.5,0.2-1,0.3-1.4,0.5c-0.7,0.2-1.3,0.6-1.9,1
			c1.6,1.9,3.2,3.7,4.8,5.6c0.7,0.9,1.6,1.8,2.7,1.8c0.2-3.3,0.3-6.6,0.2-9.9c0-0.5-0.1-1-0.6-1.1
			C342.9,250.7,342.7,250.8,342.6,250.8z"/>
		<path fill="#FF816B" d="M345.3,253c0-0.8,0.1-1.6,0.1-2.4c0-0.5-0.1-1-0.4-1.4c-0.7-1.1-2-0.4-2.8,0.1c-0.5,0.4-1.2,0.5-1.8,0.8
			c-0.8,0.3-1.5,0.7-2.2,1c-0.7,0.4-1.4,0.7-2.1,1c-0.6,0.2-1-0.1-1.6-0.2c-1-0.2-1.8,0.7-1.7,1.7c0.1,0.7,0.7,1.3,1.4,1.7
			c0,0.1,0,0.2,0.1,0.3c0.5,0.5,1,0.9,1.5,1.4c0.6,0.5,0.9,1.1,1.2,1.8c0.6,1.2,1.8,1.7,2.9,2.4c1.2,0.8,1.8,2.1,3.1,2.7
			c0.3,0.2,0.7,0.3,1.1,0.1c0.5-0.3,0.5-0.9,0.5-1.4c0.1-0.8,0.3-1.5,0.6-2.2c0.3-0.8,0.4-1.6,0.5-2.5
			C345.7,256.4,345.3,254.7,345.3,253z M345.1,258.2c0,0.9-0.3,1.8-0.6,2.7c-0.2,0.6-0.4,1.3-0.5,2c0,0.2,0,0.8-0.4,0.8
			c-0.3,0-0.7-0.3-0.9-0.4c-0.6-0.4-1-1-1.5-1.5c-0.5-0.6-1.1-1-1.8-1.4c-0.5-0.3-1-0.6-1.5-1c-0.4-0.4-0.6-0.9-0.8-1.4
			c-0.4-0.9-1.1-1.5-1.9-2.1c0.1-0.1,0.1-0.3-0.1-0.4c-0.5-0.4-0.9-0.7-1.3-1.2c-0.2-0.2-0.4-0.5-0.5-0.8c-0.1-0.5,0.2-1,0.7-1.1
			c0.5-0.1,1,0.3,1.6,0.3c0.7,0,1.4-0.5,2-0.8c0.8-0.4,1.5-0.8,2.3-1.1c0.7-0.3,1.5-0.5,2.2-0.8c0.6-0.3,1-0.9,1.7-0.9
			c0.8,0,1,0.9,1,1.5c0,0.8-0.1,1.6-0.1,2.5c0,0.8,0.1,1.7,0.2,2.5C345,256.5,345.1,257.4,345.1,258.2z"/>
	</g>
	<g>
		<path fill="#3A5D43" d="M368.8,232.3c0-0.1-0.1-0.2-0.2-0.3c-1.3-1.3-2.9-2.2-4.5-3.1c-1.5-0.9-3-1.7-4.8-1.8
			c1.1,3.5,2.4,7,4.1,10.2c0.2,0.4,0.4,0.8,0.8,0.7c0.3,0,0.5-0.3,0.7-0.5c1.2-1.6,2.4-3.2,3.7-4.8
			C368.8,232.6,368.8,232.5,368.8,232.3z"/>
		<path fill="#FF816B" d="M369.1,230.1c-0.5-0.3-1-0.6-1.4-0.9c-0.6-0.4-1-0.9-1.5-1.4c-0.9-0.9-2.2-1.4-3.3-1.9
			c-0.5-0.2-1-0.3-1.5-0.5c-0.4-0.2-0.9-0.5-1.3-0.7c-0.5-0.3-1.2-0.5-1.8-0.3c-0.1-0.1-0.3-0.2-0.4,0c-1.1,1.1-1.2,2.2-0.5,3.6
			c0.7,1.5,2,2.6,2.2,4.3c0.4,3,1.1,5.9,3.7,7.7c0.9,0.6,1.9,0.9,2.4-0.3c0.3-0.7,0.4-1.4,0.9-2c0.5-0.6,1.2-1.1,1.7-1.6
			c0.9-0.9,2.1-1.7,2.5-3C371.1,231.8,370.1,230.8,369.1,230.1z M368.4,235.2c-0.5,0.5-1,0.9-1.5,1.4c-0.5,0.5-1,0.9-1.4,1.6
			c-0.3,0.6-0.3,1.3-0.7,1.8c-0.3,0.5-1.8-0.7-2-1c-1.2-1.1-1.8-2.6-2.2-4.1c-0.4-1.5-0.3-3.1-1-4.4c-0.5-0.8-1.1-1.6-1.5-2.4
			c-0.5-1-0.7-1.8-0.1-2.6c0.1,0,0.2,0,0.3-0.1c0.8-0.8,2.4,0.5,3.2,0.9c0.7,0.3,1.4,0.5,2.1,0.8c0.9,0.5,1.7,0.8,2.4,1.5
			c0.5,0.5,1,1,1.7,1.4c0.7,0.4,1.5,0.8,2.1,1.4C371,232.7,369.4,234.2,368.4,235.2z"/>
	</g>
	<g>
		<path fill="#3A5D43" d="M367.2,265.4c-0.1,0-0.2,0.1-0.3,0.2c-1.3,1.3-2.2,2.9-3,4.5c-0.8,1.5-1.7,3.1-1.7,4.8
			c3.5-1.1,6.9-2.6,10.2-4.3c0.3-0.2,0.7-0.5,0.7-0.9c0-0.3-0.3-0.5-0.5-0.7c-1.6-1.2-3.2-2.4-4.9-3.6
			C367.5,265.5,367.3,265.4,367.2,265.4z"/>
		<path fill="#FF816B" d="M365,265.2c-0.3,0.5-0.5,1-0.8,1.4c-0.4,0.6-0.9,1-1.3,1.5c-0.9,0.9-1.3,2.2-1.8,3.3
			c-0.2,0.5-0.3,1-0.5,1.5c-0.2,0.4-0.4,0.9-0.6,1.3c-0.2,0.5-0.4,1.2-0.2,1.8c-0.1,0.1-0.2,0.3,0,0.4c1.1,1,2.3,1.1,3.6,0.4
			c1.4-0.8,2.6-2,4.2-2.3c2.9-0.4,5.9-1.2,7.6-3.8c0.6-0.9,0.9-1.9-0.4-2.4c-0.7-0.3-1.4-0.4-2-0.8c-0.6-0.5-1.1-1.1-1.7-1.7
			c-0.9-0.9-1.8-2.1-3-2.4C366.7,263.1,365.6,264.1,365,265.2z M370,265.8c0.5,0.5,0.9,1,1.4,1.5c0.5,0.5,0.9,1,1.6,1.3
			c0.6,0.3,1.3,0.3,1.8,0.7c0.6,0.3-0.7,1.8-1,2c-1.1,1.2-2.5,1.8-4,2.2c-1.5,0.4-3.1,0.3-4.4,1.1c-0.8,0.5-1.6,1.1-2.4,1.6
			c-0.9,0.5-1.8,0.7-2.6,0.2c0-0.1,0-0.2-0.1-0.3c-0.8-0.8,0.5-2.4,0.8-3.2c0.3-0.7,0.5-1.4,0.8-2.1c0.4-0.9,0.8-1.7,1.5-2.4
			c0.5-0.5,1-1,1.4-1.7c0.4-0.7,0.8-1.5,1.4-2.1C367.6,263.3,369.1,264.8,370,265.8z"/>
	</g>
	<g>
		<path fill="#3A5D43" d="M383,329c0-0.1,0-0.3-0.1-0.4c-0.9-1.6-2.3-2.8-3.6-4.1c-1.2-1.2-2.5-2.4-4.2-2.9
			c0.2,3.7,0.7,7.3,1.5,10.9c0.1,0.4,0.2,0.8,0.6,0.9c0.3,0.1,0.6-0.1,0.8-0.3c1.6-1.3,3.1-2.5,4.7-3.8
			C382.8,329.2,382.9,329.1,383,329z"/>
		<path fill="#FF816B" d="M383.7,326.9c-0.4-0.4-0.8-0.8-1.2-1.2c-0.5-0.5-0.8-1.1-1.1-1.7c-0.7-1.1-1.8-1.8-2.7-2.6
			c-0.4-0.3-0.9-0.5-1.3-0.9c-0.4-0.3-0.7-0.6-1.1-1c-0.5-0.4-1-0.7-1.6-0.7c-0.1-0.2-0.2-0.3-0.4-0.1c-1.3,0.8-1.7,1.9-1.4,3.4
			c0.4,1.6,1.3,3,1.1,4.7c-0.3,3-0.4,6,1.7,8.4c0.7,0.8,1.6,1.3,2.4,0.3c0.4-0.6,0.7-1.2,1.3-1.7c0.6-0.5,1.4-0.8,2.1-1.2
			c1.1-0.6,2.4-1.2,3.2-2.3C385.3,329,384.6,327.8,383.7,326.9z M381.8,331.6c-0.6,0.3-1.2,0.7-1.8,1c-0.6,0.3-1.2,0.6-1.7,1.2
			c-0.4,0.5-0.6,1.2-1.1,1.6c-0.5,0.4-1.5-1.1-1.7-1.5c-0.9-1.3-1.1-2.9-1.1-4.5c0-1.5,0.5-3,0.1-4.5c-0.2-0.9-0.6-1.8-0.9-2.7
			c-0.3-1.1-0.2-1.9,0.5-2.5c0.1,0,0.2,0,0.3,0c1-0.6,2.2,1.1,2.9,1.6c0.6,0.4,1.2,0.8,1.8,1.3c0.7,0.7,1.4,1.2,1.9,2
			c0.4,0.6,0.8,1.2,1.3,1.8c0.6,0.6,1.2,1.1,1.7,1.9C384.9,329.8,383,330.9,381.8,331.6z"/>
	</g>
	<g>
		<path fill="#3A5D43" d="M375.9,299.2c1.4-1.2,2.6-2.7,4.1-3.8c1.1-0.8,2.5-1.7,2.5-3.1c0-1.4-1.4-2.3-2.6-3c-1-0.5-2-1.1-3-1.6
			c-0.4-0.2-0.9-0.4-1.2-0.2c-0.4,0.2-0.4,0.8-0.4,1.2c0,3.7-1.8,7.3-1.4,11C374.6,300.1,375.3,299.7,375.9,299.2z"/>
		<path fill="#FF816B" d="M382.8,288.9c-0.7-0.2-1.4-0.2-2-0.5c-0.6-0.2-0.9-1-1.2-1.4c-0.5-0.7-1.3-1-2.1-1.4
			c-1.1-0.4-3.5-1-3.7,0.5c-0.1,0-0.2,0.1-0.2,0.3c-0.1,1,0,2-0.1,2.9c0,1.2-0.4,2.1-0.7,3.1c-0.7,1.9-0.4,4-0.5,5.9
			c-0.1,1.3-0.7,3,0.2,4.2c0.8,1,2,0.8,2.8,0c0.5-0.5,0.9-1.1,1.3-1.6c0.5-0.7,1.1-1.2,1.8-1.7c1.4-1.1,3.2-1.7,4.2-3.2
			c0.4-0.6,0.6-1.3,0.9-1.9c0.3-0.7,0.9-1.4,1.2-2.1C385.3,290.7,384,289.3,382.8,288.9z M383.1,293.2c-0.4,0.7-0.6,1.4-1,2.1
			c-0.5,0.9-1.2,1.4-2,1.9c-1.4,0.8-2.9,1.7-3.9,3.1c-0.6,0.7-2.2,3.5-3.2,1.8c-0.3-0.6-0.3-1.3-0.2-1.9c0.2-1.1,0.2-2.2,0.3-3.3
			c0-0.9,0-1.8,0.1-2.7c0.1-1,0.4-1.8,0.8-2.6c0.5-1.4,0.3-3.1,0.3-4.6c0.2,0,0.4-0.2,0.3-0.4c-0.3-1.2,1.3-0.7,1.9-0.6
			c0.8,0.2,1.9,0.6,2.4,1.3c0.4,0.5,0.6,1,1.1,1.4c0.6,0.5,1.3,0.6,2,0.7c0.9,0.2,1.6,0.5,2.1,1.4
			C384.4,291.7,383.5,292.5,383.1,293.2z"/>
	</g>
	<g>
		<path fill="#3A5D43" d="M345.1,304.5c-0.9,1.6-1.4,3.4-2.4,5.1c-0.7,1.2-1.7,2.5-1.2,3.8c0.5,1.3,2.2,1.6,3.6,1.8
			c1.1,0.1,2.3,0.2,3.4,0.3c0.4,0,1,0,1.2-0.3c0.3-0.4,0.1-0.9-0.1-1.3c-1.4-3.4-1.1-7.5-2.9-10.7
			C346,303.1,345.5,303.8,345.1,304.5z"/>
		<path fill="#FF816B" d="M342.7,316.6c0.7,0,1.4-0.3,2.1-0.3c0.6,0,1.2,0.6,1.7,0.9c0.7,0.5,1.6,0.5,2.5,0.5c1.1,0,3.7-0.4,3.2-1.9
			c0.1-0.1,0.2-0.2,0.1-0.4c-0.3-0.9-0.7-1.8-1.1-2.7c-0.4-1.1-0.4-2-0.5-3.2c-0.1-2-1.2-3.8-1.8-5.6c-0.4-1.2-0.5-3.1-1.8-3.8
			c-1.1-0.7-2.1,0-2.6,1c-0.3,0.6-0.4,1.3-0.6,2c-0.2,0.8-0.6,1.5-1,2.3c-0.9,1.5-2.3,2.8-2.7,4.6c-0.1,0.7-0.1,1.4-0.1,2.2
			c0,0.8-0.3,1.6-0.3,2.4C339.7,315.9,341.5,316.7,342.7,316.6z M340.8,312.8c0.1-0.8,0-1.6,0.1-2.3c0.1-1,0.5-1.8,1.1-2.6
			c1-1.3,2.1-2.7,2.5-4.3c0.2-0.9,0.7-4,2.3-2.8c0.5,0.4,0.7,1.1,0.9,1.7c0.3,1.1,0.6,2.1,1,3.2c0.3,0.8,0.7,1.6,0.9,2.5
			c0.3,0.9,0.3,1.8,0.3,2.7c0,1.5,0.9,3,1.4,4.4c-0.2,0.1-0.3,0.3-0.1,0.5c0.7,1-0.9,1.2-1.6,1.2c-0.8,0.1-1.9,0.2-2.7-0.2
			c-0.5-0.3-1-0.7-1.5-0.9c-0.7-0.2-1.4-0.1-2.1,0.1c-0.9,0.2-1.7,0.1-2.4-0.5C340.1,314.6,340.7,313.5,340.8,312.8z"/>
	</g>
	<g>
		<path fill="#3A5D43" d="M336.7,329.7c-0.9,1.6-1.4,3.4-2.4,5.1c-0.7,1.2-1.7,2.5-1.2,3.8c0.5,1.3,2.2,1.6,3.6,1.8
			c1.1,0.1,2.3,0.2,3.4,0.3c0.4,0,1,0,1.2-0.3c0.3-0.4,0.1-0.9-0.1-1.3c-1.4-3.4-1.1-7.5-2.9-10.7C337.6,328.3,337,329,336.7,329.7z
			"/>
		<path fill="#FF816B" d="M334.2,341.8c0.7,0,1.4-0.3,2.1-0.3c0.6,0,1.2,0.6,1.7,0.9c0.7,0.5,1.6,0.5,2.5,0.5c1.1,0,3.7-0.4,3.2-1.9
			c0.1-0.1,0.2-0.2,0.1-0.4c-0.3-0.9-0.7-1.8-1.1-2.7c-0.4-1.1-0.4-2-0.5-3.2c-0.1-2-1.2-3.8-1.8-5.6c-0.4-1.2-0.5-3.1-1.8-3.8
			c-1.1-0.7-2.1,0-2.6,1c-0.3,0.6-0.4,1.3-0.6,2c-0.2,0.8-0.6,1.5-1,2.3c-0.9,1.5-2.3,2.8-2.7,4.6c-0.1,0.7-0.1,1.4-0.1,2.2
			c0,0.8-0.3,1.6-0.3,2.4C331.3,341.1,333,341.9,334.2,341.8z M332.3,338c0.1-0.8,0-1.6,0.1-2.3c0.1-1,0.5-1.8,1.1-2.6
			c1-1.3,2.1-2.7,2.5-4.3c0.2-0.9,0.7-4,2.3-2.8c0.5,0.4,0.7,1.1,0.9,1.7c0.3,1.1,0.6,2.1,1,3.2c0.3,0.8,0.7,1.6,0.9,2.5
			c0.3,0.9,0.3,1.8,0.3,2.7c0,1.5,0.9,3,1.4,4.4c-0.2,0.1-0.3,0.3-0.1,0.5c0.7,1-0.9,1.2-1.6,1.2c-0.8,0.1-1.9,0.2-2.7-0.2
			c-0.5-0.3-1-0.7-1.5-0.9c-0.7-0.2-1.4-0.1-2.1,0.1c-0.9,0.2-1.7,0.1-2.4-0.5C331.7,339.8,332.2,338.7,332.3,338z"/>
	</g>
	<path fill="#040312" d="M337,225.3c-7.6,0-14.6-1.4-20.7-4.1l0.4-0.8c7.1,3.1,15.4,4.4,24.6,3.9c7.2-0.5,15.1-2.1,24.6-5.1l0.3,0.9
		c-9.6,3.1-17.5,4.7-24.8,5.2C339.8,225.3,338.4,225.3,337,225.3z"/>
	<path fill="#040312" d="M337.4,247.9c-1.9-1.5-3.4-3.5-4.7-5.4c-0.5-0.6-0.9-1.3-1.4-1.9c-2.6-3.3-5.7-6.1-9.3-8.4l0.6-0.9
		c3.7,2.3,6.9,5.2,9.5,8.6c0.5,0.6,1,1.3,1.5,1.9c1.3,1.8,2.7,3.7,4.5,5.1L337.4,247.9z"/>
	<path fill="#040312" d="M354,242.1c-11.1,0-22.1-4.2-30.4-11.6l0.7-0.8c8.1,7.2,18.9,11.3,29.7,11.3c0.1,0,0.2,0,0.2,0l0,1.1
		C354.2,242.1,354.1,242.1,354,242.1z"/>
	<path fill="#FE9268" d="M340,67.9c0,0.3,0,0.5,0.1,0.7c0.1,0.2,0.3,0.2,0.5,0.3c1.1,0.4,2.2,0.6,3.3,0.6c0.4,0,0.7,0,1-0.3
		c0.3-0.3,0.3-0.8,0.3-1.2c-0.2-4-0.1-7.9,0.1-11.9c-0.3,0-0.5,0-0.8,0C342.5,59.9,340.4,63.7,340,67.9z"/>
	<path fill="#9A444F" d="M345.7,56.6c-0.4,1.3-0.1,2.6-0.3,3.8c-0.2,1.6-0.4,3.2-0.5,4.8c0,0.8,0,1.6,0,2.4c0,0.5,0.1,1.3-0.3,1.7
		c-0.3,0.3-1,0-1.4,0c-0.9-0.1-1.7-0.5-2.5-0.8c-0.4-0.1-0.7,0.5-0.2,0.7c1.3,0.4,2.6,1,3.9,0.9c1.1-0.1,1.1-1.3,1.2-2.1
		c0-1.9,0-3.8,0.2-5.7c0.1-0.9,0.3-1.8,0.4-2.7c0.1-0.9-0.1-1.9,0.2-2.8C346.5,56.4,345.8,56.2,345.7,56.6z"/>
	<path fill="#FE9268" d="M349.3,109.4c-1.4,0.2-3,0.3-4.3,0.9c-1.4,0.7-2.1,2-2.7,3.4c-0.2,0.4,0.5,0.7,0.7,0.2
		c0.6-1.3,1.3-2.5,2.7-3.1c1.2-0.5,2.6-0.6,3.8-0.7C349.9,110.1,349.8,109.4,349.3,109.4z"/>
	<path fill="#FE9268" d="M250.6,146.4c0.2-0.4-0.4-0.8-0.6-0.4c-2.3,3.9-4.8,7.7-5.4,12.2c-0.6,4.8,1.5,9.1,2.9,13.5
		c0.1,0.4,0.8,0.1,0.7-0.3c-1.4-4.2-3.3-8.3-2.9-12.9C245.7,154.1,248.3,150.2,250.6,146.4z"/>
	<polygon fill="#9A444F" points="353.1,136.4 351.4,148.3 369,152.3 373,139 	"/>
	<path fill="#3A5D43" d="M380.1,80.6c-0.9,1.6,0.2,3.7,1.3,5.2c-0.7,0.1-1.5,0-2.3-0.2c-0.7-0.1-1.5-0.2-2.1,0
		c-2.2,0.7-2.7,3.5-2,5.4c1,2.5,3.8,4,6.3,4.5c2.9,0.6,5.9,0,8.8-0.5c-0.4,1.1,0.3,2.3,1.2,2.9c1,0.6,2.2,0.7,3.3,0.8
		c5.5,0.2,11.1-0.8,16.1-2.9c1-0.4,2.1-1.3,1.7-2.2c-8.9-2.4-16.3-6.1-23.7-11.6C386.6,80.4,382.2,76.9,380.1,80.6z"/>
	<path fill="#FF816B" d="M396.4,84.5c-2.6,3.2-0.8,8.5,3.5,9.7c1.3,0.4,2.8,0.4,4-0.2c1.7-0.9,2.5-3.1,2.3-5.1
		c-0.4-3.3-3.6-7.6-7.3-6.2C397.9,83.1,397,83.8,396.4,84.5z"/>
	<path fill="#FF816B" d="M421.1,98.3c2.7-4.1-1.1-9.8-5.6-9.9c-0.8,0-1.7,0.2-2.4,0.6c-4,2.1-4.5,7.8-0.6,10.3c1.5,1,3.4,1.3,5.2,1
		C419,100,420.3,99.4,421.1,98.3z"/>
</g>
<g>
	<g>
		<path fill="#FCDCC5" d="M47.4,61.3c1.6-0.3,3.3-0.2,4.9,0c1.7,0.3,3.5,0.7,5,1.5c2.9,1.5,5,4.3,6,7.4c0.7,2.1,0.9,4.4,0.8,6.7
			c-0.3,6.5-3,13.7-4.3,19.4c-1.3,5.4-2.5,10.7-3.8,16.1c0,0-8,6.2-15.9-1c-0.6-5.9-1.2-11.7-1.8-17.6c-0.8-8.4-3-18.3,1.1-26.2
			C41,64.6,43.9,62,47.4,61.3z"/>
	</g>
	<g>
		<path fill="#E89173" d="M45.5,78.3c3.9-0.8,8.2-0.7,11.9,0.9c1.1,0.4,2.1,1,2.9,1.8c0.3,0.3,0.6,0.6,0.8,1
			c2.9,4.3-0.4,10.1-1.4,14.5c-1.3,5.4-2.5,10.7-3.8,16.1c0,0-8,6.2-15.9-1c-0.9-0.8-0.9-6.2-1.1-7.4c-0.4-2.8-0.8-5.6-0.9-8.4
			c-0.2-4.3-1-11.2,2.1-14.6C41.5,79.6,43.5,78.7,45.5,78.3z"/>
	</g>
	<g>
		<path fill="#02020E" d="M38.5,79.4c0.3,0.6,1.2,0.8,1.8,1c0.7,0.2,1.4,0.4,2.1,0.5c2.2,0.4,4.5,0.4,6.7,0.3
			c4.7,0,9.2-1.2,13.4-3.1c0.3-0.1,0.6,0.3,0.3,0.5c-4.5,2-9.2,3.2-14.1,3.2c-2.3,0-4.6,0-6.9-0.5c-0.7-0.2-1.5-0.3-2.2-0.6
			c-0.6-0.2-1.3-0.5-1.6-1.1C37.9,79.4,38.4,79.1,38.5,79.4z"/>
	</g>
	<g>
		<path fill="#02020E" d="M39,75.6c3.7,1.3,7.6,1.8,11.5,1.5c4.1-0.3,8.1-1.8,12-2.9c0.3-0.1,0.5,0.4,0.1,0.5c-4,1.1-8,2.5-12.2,2.9
			c-3.9,0.3-8-0.2-11.7-1.6C38.5,76,38.7,75.5,39,75.6z"/>
	</g>
	<g>
		<path fill="#02020E" d="M46.3,61c0.9,0.1,1.9-0.1,2.8-0.2c0.9-0.1,1.8,0,2.7,0.1c1.8,0.3,3.6,0.6,5.2,1.5c1.5,0.8,2.9,2,4,3.3
			c1,1.3,1.7,2.9,2.5,4.4c0.2,0.3-0.3,0.6-0.5,0.3c-0.7-1.4-1.4-2.9-2.3-4.2c-1-1.4-2.5-2.5-4-3.4c-1.6-0.9-3.4-1.2-5.1-1.5
			c-0.9-0.1-1.8-0.2-2.8-0.1c-0.9,0.1-1.7,0.2-2.6,0.1C45.9,61.5,45.9,61,46.3,61z"/>
	</g>
	<g>
		<path fill="#02020E" d="M63.6,80.6c-1.5,10.9-3.9,21.7-7,32.2c-0.1,0.3-0.6,0.2-0.5-0.2c3.1-10.5,5.5-21.2,7-32.1
			C63.1,80.2,63.7,80.2,63.6,80.6z"/>
	</g>
	<g>
		<path fill="#02020E" d="M40.6,111.3c0.9,0.6,1.8,1.2,2.7,1.7c1.1,0.6,2.3,0.9,3.5,1.1c2.6,0.4,5.2-0.1,7.7-0.9
			c0.3-0.1,0.5,0.4,0.1,0.5c-2.6,0.8-5.1,1.3-7.8,0.9c-1.2-0.2-2.3-0.5-3.3-1c-1.1-0.5-2.1-1.3-3.1-2
			C40,111.6,40.3,111.1,40.6,111.3z"/>
	</g>
	<g>
		<path fill="#02020E" d="M37.4,80.3c-0.2,4.5-0.1,8.9,0.2,13.4c0.1,2.3,0.4,4.5,0.7,6.7c0.3,2.1,0.6,4.3,0.6,6.4
			c0,0.4-0.5,0.3-0.6,0c-0.1-2.3-0.4-4.5-0.7-6.7c-0.3-2.1-0.5-4.3-0.6-6.5c-0.2-4.5-0.3-8.9-0.2-13.4
			C36.9,79.9,37.5,79.9,37.4,80.3z"/>
	</g>
	<g>
		<path fill="#02020E" d="M43.3,63.4c-2.9,2.2-4.4,5.5-5.5,8.8c-0.1,0.3-0.6,0.2-0.5-0.2c1.1-3.4,2.7-6.8,5.7-9.1
			C43.2,62.8,43.6,63.2,43.3,63.4z"/>
	</g>
	<g>
		<path fill="#D94815" d="M52.7,100.4c0.8,0.4,1.8,0.4,2-0.6c0.2-0.8,0-1.7-0.2-2.4c-0.1-0.2-0.3-0.2-0.5-0.1
			C52.3,96.6,50.9,99.6,52.7,100.4z M52.5,98.5c0.3-0.6,0.9-1,1.6-0.7c0.2,0.9,0.5,2.6-0.7,2.3C52.6,99.9,52.2,99.3,52.5,98.5z"/>
	</g>
	<g>
		<path fill="#D94815" d="M42.2,89c0.4,1.1,1.5,1.7,2.5,1c0.9-0.6,0.8-1.5,0.6-2.4c0.1-0.1,0.2-0.2,0.1-0.3
			C44.4,85.4,41.6,87.2,42.2,89z M44.7,87.1C44.7,87.2,44.7,87.2,44.7,87.1c0.2,0.7,0.7,1.7,0,2.2c-0.3,0.2-0.9,0.5-1.3,0.3
			c-0.3-0.2-0.6-0.5-0.6-0.9C42.5,87.7,43.9,86.5,44.7,87.1z"/>
	</g>
	<g>
		<path fill="#D94815" d="M43.7,105.4c0.9,0.4,2.1,0.1,2.2-1c0.1-0.8-0.2-1.7-0.5-2.4c0-0.1,0-0.2-0.1-0.3c0,0,0,0-0.1,0
			c-0.1-0.1-0.1-0.1-0.2-0.1C43.2,100.9,41.8,104.5,43.7,105.4z M44.8,102c0.5,0.9,1.2,3.3-0.5,2.9C42.5,104.6,43.7,101.7,44.8,102z
			"/>
	</g>
	<g>
		<path fill="#D94815" d="M51.7,87.1c-0.2,1.1,0.6,2.3,1.8,2c1.2-0.3,1.7-1.2,1.7-2.3c0.1,0,0.3-0.2,0.2-0.3
			C55.1,84.2,52,85.4,51.7,87.1z M52.4,86.8c0.4-0.8,1.7-1.4,2.3-0.8c0,0.1-0.1,0.1,0,0.2c0.2,1.1-0.1,2.2-1.4,2.3
			C52.3,88.7,52,87.5,52.4,86.8z"/>
	</g>
	<g>
		<path fill="#D94815" d="M33.9,40.4c1.3,0.7,2.6,1.4,3.8,2.2c0.8,0.5,1.6,1,2.4,1.6c2.3,2.1,3.3,5.2,4.1,8.3
			c1.6,5.8,3.1,11.5,4.7,17.3c-0.5,0.5-1.1,1.1-1.9,1.1c-1-0.1-1.5-1.2-1.8-2.1c-2.3-6.8-3.9-13.8-6.8-20.4c-0.2-0.3-0.3-0.7-0.5-1
			c-0.3-0.4-0.7-0.6-1.1-0.9c-1.5-1-2.9-1.9-4.4-2.9c-0.6-0.4-1.2-0.8-1.6-1.4c-0.4-0.6-0.4-1.4,0-2C31.6,39.3,33,39.8,33.9,40.4z"
			/>
	</g>
	<g>
		<path fill="#02020E" d="M32.9,39.5c1.2,0.9,2.5,1.7,3.8,2.5c1.3,0.8,2.6,1.5,3.9,2.3c2.1,1.2,2.5,3.9,3.2,6
			c1.8,6.2,3.6,12.3,5.6,18.4c0.1,0.3-0.4,0.5-0.5,0.1C46.9,63,45.1,57,43.4,51.1c-0.7-2.2-1-5-3.2-6.4c-1.2-0.7-2.5-1.4-3.7-2.2
			c-1.3-0.8-2.5-1.7-3.8-2.5C32.3,39.8,32.6,39.3,32.9,39.5z"/>
	</g>
	<g>
		<g>
			<path fill="#C53934" d="M44.2,84.6c0.7,0.3,1.3,0.7,1.8,1.2c1.2,0.1,2.2,1,2.4,2.1c0.2,0.9-0.2,1.8-0.6,2.6
				c-1.1,2.2-3.1,4-5.4,4.8c-0.2,0.1-0.4,0.1-0.5,0.1c-0.2,0-0.3-0.2-0.4-0.3c-0.6-0.8-0.9-1.9-1.1-3c-0.3-1.8-0.5-3.7,0-5.5
				c0.3-0.9,0.8-1.8,1.7-2.1C42.7,84.2,43.5,84.3,44.2,84.6z"/>
		</g>
		<g>
			<path fill="#C8725B" d="M44.6,86.3c0.3,0.2,0.6,0.5,0.9,0.6c0.5,0.3,1.3,0.4,1.6,0.9c0.3,0.4,0.2,0.9,0,1.4
				c-0.2,0.4-0.6,0.8-0.9,1.1c-1.1,1-2.2,1.9-3.4,2.8c-0.1,0.1-0.2,0.2-0.4,0.1c-0.1,0-0.2-0.1-0.2-0.2c-0.3-0.4-0.4-0.8-0.5-1.3
				c-0.2-1.2-0.2-2.5-0.1-3.7c0.1-0.6,0.2-1.2,0.6-1.6C42.9,85.9,43.9,85.9,44.6,86.3z"/>
		</g>
		<g>
			<path fill="#304E30" d="M44.4,82.4c0.5,0.7,1,1.5,1.3,2.3c0.1-0.8,0.3-1.5,0.6-2.2c0-0.1,0.1-0.2,0.2-0.2c0.1,0,0.3,0,0.3,0.2
				c0.1,0.1,0,0.3,0,0.4c-0.1,1.1-0.5,2.1-1,3c0.7-0.4,1.2-1,1.9-1.3c0.6-0.3,1.3-0.3,2-0.3c0,0,0.1,0,0.1,0c0,0,0,0.1,0,0.1
				c0,0.2-0.2,0.4-0.4,0.5c-1.2,0.8-2.6,1.3-4,1.4c-1-1.3-1.7-2.8-2-4.4C43.8,81.8,44.1,82.1,44.4,82.4z"/>
		</g>
		<g>
			<path fill="#02020E" d="M44,84.4c0.4,0.1,0.2,0.6-0.2,0.5c-1.2-0.3-2.4-0.1-3.1,1c-0.5,0.8-0.6,1.8-0.6,2.8
				c0,1.1,0.3,2.2,0.5,3.3c0.2,0.9,0.2,2.2,0.9,2.8c0.6,0.6,1.8-0.1,2.3-0.4c0.8-0.5,1.5-1.1,2.2-1.8c0.7-0.7,1.3-1.5,1.7-2.3
				c0.7-1.1,0.6-2.3-0.2-3.3c-0.2-0.3,0.2-0.7,0.4-0.4c0.8,1,1.1,2.1,0.6,3.4c-0.4,1.1-1.3,2.1-2.1,2.9c-0.8,0.8-1.6,1.5-2.6,2.1
				c-0.8,0.4-1.8,0.8-2.6,0.3c-0.9-0.6-0.9-2.1-1.1-3c-0.3-1.3-0.6-2.7-0.6-4.1c0-1,0.2-2.2,0.9-3C41.4,84.2,42.7,84.1,44,84.4z"/>
		</g>
		<g>
			<path fill="#02020E" d="M44.8,89.9c0.3,0.5,0.7,0.9,1,1.4c0.2,0.3-0.3,0.6-0.5,0.3c-0.2-0.5-0.6-0.9-1-1.4
				C44.1,89.9,44.6,89.6,44.8,89.9z"/>
		</g>
		<g>
			<path fill="#02020E" d="M44,90.7c0.1,0.8,0.6,1.7,0.3,2.5c-0.1,0.3-0.7,0.2-0.5-0.2c0.3-0.7-0.2-1.5-0.3-2.2
				C43.4,90.5,43.9,90.3,44,90.7z"/>
		</g>
		<g>
			<path fill="#02020E" d="M42.3,89.7c0.3-0.2,0.6,0.3,0.3,0.5c-0.4,0.2-0.8,0.4-1.2,0.7c-0.3,0.2-0.7-0.2-0.4-0.4
				C41.4,90.2,41.9,90,42.3,89.7z"/>
		</g>
		<g>
			<path fill="#02020E" d="M41.5,87.8c0.5,0.3,1.1,0.2,1.6,0.3c0.4,0,0.3,0.6,0,0.6c-0.6-0.1-1.3,0-1.9-0.4
				C40.9,88.1,41.2,87.6,41.5,87.8z"/>
		</g>
		<g>
			<path fill="#02020E" d="M42.5,86.2c0.4,0.3,0.8,0.5,1.2,0.8c0.3,0.2,0,0.7-0.3,0.5c-0.4-0.3-0.8-0.5-1.2-0.8
				C41.9,86.5,42.2,86,42.5,86.2z"/>
		</g>
	</g>
	<g>
		<g>
			<path fill="#C53934" d="M47.7,102c0.7-0.2,1.5-0.2,2.2-0.1c1-0.6,2.4-0.5,3.2,0.3c0.7,0.6,0.9,1.5,1.1,2.4c0.4,2.5-0.2,5-1.5,7.1
				c-0.1,0.2-0.2,0.3-0.4,0.4c-0.2,0.1-0.4,0-0.6,0c-1-0.3-1.9-1-2.6-1.7c-1.3-1.3-2.6-2.7-3.2-4.4c-0.3-0.9-0.4-1.9,0.1-2.7
				C46.3,102.6,47,102.2,47.7,102z"/>
		</g>
		<g>
			<path fill="#C8725B" d="M49,103.1c0.4,0,0.7,0,1.1,0c0.6-0.1,1.2-0.4,1.8-0.2c0.5,0.1,0.8,0.6,0.8,1.1c0.1,0.5,0,1-0.1,1.4
				c-0.3,1.4-0.6,2.8-1.1,4.2c0,0.1-0.1,0.3-0.2,0.3c-0.1,0-0.2,0-0.3,0c-0.5-0.1-0.8-0.4-1.2-0.8c-0.9-0.9-1.7-1.8-2.2-2.9
				c-0.3-0.5-0.5-1.1-0.4-1.7C47.4,103.8,48.2,103.2,49,103.1z"/>
		</g>
		<g>
			<path fill="#304E30" d="M46.5,100.2c0.8,0.2,1.7,0.6,2.4,1.1c-0.4-0.7-0.7-1.4-0.8-2.2c0-0.1,0-0.2,0-0.3
				c0.1-0.1,0.2-0.1,0.4-0.1c0.1,0.1,0.2,0.2,0.2,0.3c0.5,0.9,0.9,1.9,1,3c0.3-0.7,0.4-1.5,0.7-2.2c0.3-0.6,0.9-1,1.4-1.4
				c0,0,0.1-0.1,0.1,0c0,0,0.1,0,0.1,0.1c0.1,0.2,0.1,0.4,0,0.7c-0.5,1.3-1.3,2.6-2.3,3.5c-1.6-0.5-3-1.3-4.2-2.4
				C45.7,100,46.2,100.1,46.5,100.2z"/>
		</g>
		<g>
			<path fill="#02020E" d="M47.6,102.5c-1.1,0.5-1.9,1.3-1.8,2.7c0.1,0.9,0.6,1.8,1.2,2.5c0.7,0.9,1.6,1.6,2.4,2.4
				c0.7,0.6,1.4,1.6,2.4,1.8c0.8,0.1,1.4-1.1,1.7-1.7c0.4-0.9,0.6-1.8,0.7-2.7c0.1-0.9,0.2-1.9,0.1-2.9c-0.1-1.3-0.9-2.2-2.2-2.5
				c-0.3-0.1-0.3-0.6,0.1-0.5c1.3,0.3,2.1,1.1,2.5,2.3c0.3,1.1,0.2,2.4,0.1,3.6c-0.1,1.1-0.4,2.2-0.9,3.2c-0.4,0.8-1,1.7-1.9,1.8
				c-1.1,0.1-2-1.1-2.7-1.7c-1-0.9-2.1-1.8-2.9-2.9c-0.6-0.8-1.1-1.9-1.1-2.9c0.1-1.4,1-2.2,2.2-2.8
				C47.7,101.8,47.9,102.4,47.6,102.5z"/>
		</g>
		<g>
			<path fill="#02020E" d="M51.3,105.9c0.5,0.2,1.1,0.3,1.6,0.5c0.3,0.2,0.1,0.7-0.2,0.5c-0.5-0.3-1-0.3-1.6-0.5
				C50.8,106.3,51,105.8,51.3,105.9z"/>
		</g>
		<g>
			<path fill="#02020E" d="M51.2,107c0.6,0.6,1.5,1,1.7,1.8c0.1,0.3-0.4,0.5-0.5,0.2c-0.2-0.7-1-1.1-1.5-1.6
				C50.5,107.2,50.9,106.8,51.2,107z"/>
		</g>
		<g>
			<path fill="#02020E" d="M49.8,107.5c-0.2,0.4-0.5,0.8-0.6,1.2c-0.1,0.3-0.6,0.3-0.5-0.1c0.1-0.5,0.4-0.9,0.6-1.4
				C49.4,106.9,49.9,107.2,49.8,107.5z"/>
		</g>
		<g>
			<path fill="#02020E" d="M47.4,106.2c0.6-0.1,1-0.5,1.5-0.7c0.3-0.2,0.6,0.3,0.3,0.5c-0.6,0.3-1.1,0.8-1.8,0.8
				C47.1,106.8,47.1,106.2,47.4,106.2z"/>
		</g>
		<g>
			<path fill="#02020E" d="M47.3,104.3c0.5,0,0.9-0.1,1.4-0.1c0.4,0,0.4,0.6,0.1,0.6c-0.5,0-0.9,0-1.4,0.1
				C47,104.9,47,104.3,47.3,104.3z"/>
		</g>
	</g>
	<g>
		<path fill="#02020E" d="M41.5,45.8c0.3-0.1,0.5,0.4,0.1,0.5c-0.9,0.3-1.9,0.7-2.3,1.6c-0.1,0.3-0.7,0.2-0.5-0.2
			C39.2,46.6,40.4,46.1,41.5,45.8z"/>
	</g>
	<g>
		<path fill="#02020E" d="M40.9,44.9c0.3-0.1,0.5,0.4,0.1,0.5c-1,0.3-2.2,0.7-2.4,1.8c-0.1,0.4-0.6,0.2-0.5-0.2
			C38.4,45.7,39.8,45.2,40.9,44.9z"/>
	</g>
	<g>
		<path fill="#02020E" d="M40,44.1c0.3-0.1,0.5,0.4,0.1,0.5c-0.9,0.3-1.8,0.8-2,1.8c-0.1,0.4-0.6,0.2-0.5-0.2
			C37.8,45.1,38.9,44.5,40,44.1z"/>
	</g>
	<g>
		<path fill="#02020E" d="M32.3,39.3c0.4-0.1,0.5,0.5,0.1,0.5c-1,0.2-2,0.8-1.8,2c0.1,0.3-0.5,0.5-0.5,0.1
			C29.8,40.5,31,39.6,32.3,39.3z"/>
	</g>
</g>
<g>
	<g>
		<g>
			<path fill="#6C567B" d="M476.7,141.3c1.4,0,2.5-1.1,2.5-2.5v-6.6c0-1.4-1.1-2.5-2.5-2.5s-2.5,1.1-2.5,2.5v6.6
				C474.2,140.2,475.3,141.3,476.7,141.3z"/>
			<path fill="#6C567B" d="M487.8,140.7h-6.6c-1.4,0-2.5,1.1-2.5,2.5c0,1.4,1.1,2.5,2.5,2.5h6.6c1.4,0,2.5-1.1,2.5-2.5
				C490.2,141.8,489.1,140.7,487.8,140.7z"/>
			<path fill="#6C567B" d="M476.8,145.2c-1.4,0-2.5,1.1-2.5,2.5v6.6c0,1.4,1.1,2.5,2.5,2.5s2.5-1.1,2.5-2.5v-6.6
				C479.3,146.3,478.2,145.2,476.8,145.2z"/>
			<path fill="#6C567B" d="M472.3,140.8h-6.6c-1.4,0-2.5,1.1-2.5,2.5c0,1.4,1.1,2.5,2.5,2.5h6.6c1.4,0,2.5-1.1,2.5-2.5
				C474.8,142,473.7,140.8,472.3,140.8z"/>
		</g>
	</g>
	<g>
		<g>
			<path fill="#6C567B" d="M474.1,381.1c1.4,0,2.5-1.1,2.5-2.5V372c0-1.4-1.1-2.5-2.5-2.5s-2.5,1.1-2.5,2.5v6.6
				C471.7,380,472.8,381.1,474.1,381.1z"/>
			<path fill="#6C567B" d="M485.2,380.5h-6.6c-1.4,0-2.5,1.1-2.5,2.5s1.1,2.5,2.5,2.5h6.6c1.4,0,2.5-1.1,2.5-2.5
				C487.7,381.7,486.6,380.5,485.2,380.5z"/>
			<path fill="#6C567B" d="M474.3,385.1c-1.4,0-2.5,1.1-2.5,2.5v6.6c0,1.4,1.1,2.5,2.5,2.5s2.5-1.1,2.5-2.5v-6.6
				C476.8,386.2,475.6,385.1,474.3,385.1z"/>
			<path fill="#6C567B" d="M469.8,380.7h-6.6c-1.4,0-2.5,1.1-2.5,2.5s1.1,2.5,2.5,2.5h6.6c1.4,0,2.5-1.1,2.5-2.5
				C472.2,381.8,471.1,380.7,469.8,380.7z"/>
		</g>
	</g>
	<g>
		<g>
			<path fill="#6C567B" d="M54.6,352.9c1,1,2.5,1,3.5,0l4.6-4.6c1-1,1-2.5,0-3.5s-2.5-1-3.5,0l-4.6,4.6
				C53.6,350.4,53.6,351.9,54.6,352.9z"/>
			<path fill="#6C567B" d="M62.8,360.3l-4.6-4.6c-1-1-2.5-1-3.5,0s-1,2.5,0,3.5l4.6,4.6c1,1,2.5,1,3.5,0
				C63.8,362.9,63.8,361.3,62.8,360.3z"/>
			<path fill="#6C567B" d="M51.9,355.8c-1-1-2.5-1-3.5,0l-4.6,4.6c-1,1-1,2.5,0,3.5s2.5,1,3.5,0l4.6-4.6
				C52.9,358.3,52.9,356.7,51.9,355.8z"/>
			<path fill="#6C567B" d="M51.8,349.5l-4.6-4.6c-1-1-2.5-1-3.5,0s-1,2.5,0,3.5l4.6,4.6c1,1,2.5,1,3.5,0S52.8,350.5,51.8,349.5z"/>
		</g>
	</g>
	<g>
		<g>
			<path fill="#6C567B" d="M107.7,132.6c0.9,0,1.7-0.8,1.7-1.7v-4.5c0-0.9-0.8-1.7-1.7-1.7s-1.7,0.8-1.7,1.7v4.5
				C106,131.9,106.7,132.6,107.7,132.6z"/>
			<path fill="#6C567B" d="M115.2,132.3h-4.5c-0.9,0-1.7,0.8-1.7,1.7c0,0.9,0.8,1.7,1.7,1.7h4.5c0.9,0,1.7-0.8,1.7-1.7
				C116.9,133,116.1,132.3,115.2,132.3z"/>
			<path fill="#6C567B" d="M107.8,135.3c-0.9,0-1.7,0.8-1.7,1.7v4.5c0,0.9,0.8,1.7,1.7,1.7c0.9,0,1.7-0.8,1.7-1.7V137
				C109.4,136.1,108.7,135.3,107.8,135.3z"/>
			<path fill="#6C567B" d="M104.7,132.4h-4.5c-0.9,0-1.7,0.8-1.7,1.7c0,0.9,0.8,1.7,1.7,1.7h4.5c0.9,0,1.7-0.8,1.7-1.7
				C106.4,133.1,105.6,132.4,104.7,132.4z"/>
		</g>
	</g>
	<g>
		<g>
			<path fill="#6C567B" d="M38.5,438.5c0.9,0,1.7-0.8,1.7-1.7v-4.5c0-0.9-0.8-1.7-1.7-1.7c-0.9,0-1.7,0.8-1.7,1.7v4.5
				C36.8,437.7,37.6,438.5,38.5,438.5z"/>
			<path fill="#6C567B" d="M46,438.1h-4.5c-0.9,0-1.7,0.8-1.7,1.7c0,0.9,0.8,1.7,1.7,1.7H46c0.9,0,1.7-0.8,1.7-1.7
				C47.7,438.8,47,438.1,46,438.1z"/>
			<path fill="#6C567B" d="M38.6,441.1c-0.9,0-1.7,0.8-1.7,1.7v4.5c0,0.9,0.8,1.7,1.7,1.7c0.9,0,1.7-0.8,1.7-1.7v-4.5
				C40.3,441.9,39.5,441.1,38.6,441.1z"/>
			<path fill="#6C567B" d="M35.5,438.2H31c-0.9,0-1.7,0.8-1.7,1.7c0,0.9,0.8,1.7,1.7,1.7h4.5c0.9,0,1.7-0.8,1.7-1.7
				C37.2,438.9,36.4,438.2,35.5,438.2z"/>
		</g>
	</g>
	<g>
		<g>
			<path fill="#6C567B" d="M475.2,280.1c0.7-0.7,0.7-1.7,0-2.4l-3.2-3.2c-0.7-0.7-1.7-0.7-2.4,0c-0.7,0.7-0.7,1.7,0,2.4l3.2,3.2
				C473.5,280.7,474.5,280.7,475.2,280.1z"/>
			<path fill="#6C567B" d="M480.2,274.5l-3.2,3.2c-0.7,0.7-0.7,1.7,0,2.4c0.7,0.7,1.7,0.7,2.4,0l3.2-3.2c0.7-0.7,0.7-1.7,0-2.4
				C482,273.8,480.9,273.8,480.2,274.5z"/>
			<path fill="#6C567B" d="M477.2,281.9c-0.7,0.7-0.7,1.7,0,2.4l3.2,3.2c0.7,0.7,1.7,0.7,2.4,0c0.7-0.7,0.7-1.7,0-2.4l-3.2-3.2
				C478.9,281.2,477.8,281.2,477.2,281.9z"/>
			<path fill="#6C567B" d="M472.9,282l-3.2,3.2c-0.7,0.7-0.7,1.7,0,2.4c0.7,0.7,1.7,0.7,2.4,0l3.2-3.2c0.7-0.7,0.7-1.7,0-2.4
				C474.6,281.3,473.5,281.3,472.9,282z"/>
		</g>
	</g>
</g>
</svg>
