<?xml version="1.0" encoding="utf-8"?>
<!-- Generator: Adobe Illustrator 26.0.1, SVG Export Plug-In . SVG Version: 6.00 Build 0)  -->
<svg version="1.1" id="Character" xmlns="http://www.w3.org/2000/svg" xmlns:xlink="http://www.w3.org/1999/xlink" x="0px" y="0px"
	 viewBox="0 0 500 500" enable-background="new 0 0 500 500" xml:space="preserve">
<path fill="#FCCAD1" d="M152.9,482.9c6.8,0,13.6,0,20.4,0c42.3,0,84.5,0,126.8,0c16.4,0,32.8,0.2,49.2,0
	c13.8-0.2,23.1-8.6,35.1-14.4c14.6-7.1,28.2-16.7,37.9-29.8c13.7-18.8,17.4-46.5,3.4-65.1c-5.3-7.1-12.6-12.4-18.7-18.8
	c-6.1-6.4-11.2-14.7-10.4-23.6c1-10,9.4-17.6,18.3-22.2c8.9-4.6,18.8-7.1,27.3-12.3c15-9.2,24.2-25.9,28.1-43.1
	c7-30.9,6-73.8-21.2-95.3c-24.9-19.7-60.4-13.8-91.9-17.9c-27.4-3.5-53.6-15.5-74.2-33.9c-12.2-10.9-22.3-23.8-33.7-35.5
	c-11.4-11.6-24.7-22.2-40.4-26.6c-15.7-4.4-34.3-1.5-45.3,10.5c-17.6,19.3-9.4,51.3-22.6,73.9c-8,13.8-22.8,22-37.6,28
	c-14.7,6-30.3,10.6-43.3,19.8c-13.5,9.6-24.7,26.2-19.6,43.1c5.8,19.4,8.9,39,16.1,58.1c8.5,22.5,16.4,48.8,4.3,69.6
	c-7.4,12.8-21.6,21.4-26.3,35.5c-6,18,6.5,37.7,22.6,47.7c16.1,10,35.4,13.4,53.3,19.8C128.5,456.9,147.1,464.8,152.9,482.9z"/>
<path fill="#E6E6E6" d="M442.3,484.4c0,3.8-87.9,6.9-196.2,6.9c-108.4,0-196.2-3.1-196.2-6.9s87.9-6.9,196.2-6.9
	C354.5,477.4,442.3,480.5,442.3,484.4z"/>
<g>
	<g>
		<g>
			<path fill="#6C567B" d="M368.6,65.4c1.4,0,2.5-1.1,2.5-2.5v-6.5c0-1.4-1.1-2.5-2.5-2.5c-1.4,0-2.5,1.1-2.5,2.5v6.5
				C366.1,64.3,367.2,65.4,368.6,65.4z"/>
			<path fill="#6C567B" d="M379.6,64.8h-6.5c-1.4,0-2.5,1.1-2.5,2.5c0,1.4,1.1,2.5,2.5,2.5h6.5c1.4,0,2.5-1.1,2.5-2.5
				C382,65.9,380.9,64.8,379.6,64.8z"/>
			<path fill="#6C567B" d="M368.7,69.3c-1.4,0-2.5,1.1-2.5,2.5v6.5c0,1.4,1.1,2.5,2.5,2.5c1.4,0,2.5-1.1,2.5-2.5v-6.5
				C371.2,70.4,370.1,69.3,368.7,69.3z"/>
			<path fill="#6C567B" d="M364.2,64.9h-6.5c-1.4,0-2.5,1.1-2.5,2.5c0,1.4,1.1,2.5,2.5,2.5h6.5c1.4,0,2.5-1.1,2.5-2.5
				C366.7,66,365.6,64.9,364.2,64.9z"/>
		</g>
	</g>
	<g>
		<g>
			<path fill="#6C567B" d="M442.2,343.4c1.4,0,2.5-1.1,2.5-2.5v-6.5c0-1.4-1.1-2.5-2.5-2.5c-1.4,0-2.5,1.1-2.5,2.5v6.5
				C439.8,342.3,440.9,343.4,442.2,343.4z"/>
			<path fill="#6C567B" d="M453.2,342.8h-6.5c-1.4,0-2.5,1.1-2.5,2.5c0,1.4,1.1,2.5,2.5,2.5h6.5c1.4,0,2.5-1.1,2.5-2.5
				C455.7,343.9,454.6,342.8,453.2,342.8z"/>
			<path fill="#6C567B" d="M442.4,347.3c-1.4,0-2.5,1.1-2.5,2.5v6.5c0,1.4,1.1,2.5,2.5,2.5c1.4,0,2.5-1.1,2.5-2.5v-6.5
				C444.8,348.4,443.7,347.3,442.4,347.3z"/>
			<path fill="#6C567B" d="M437.9,343h-6.5c-1.4,0-2.5,1.1-2.5,2.5s1.1,2.5,2.5,2.5h6.5c1.4,0,2.5-1.1,2.5-2.5S439.3,343,437.9,343z
				"/>
		</g>
	</g>
	<g>
		<g>
			<path fill="#6C567B" d="M113.9,278.6c1,1,2.5,1,3.5,0l4.6-4.6c1-1,1-2.5,0-3.5c-1-1-2.5-1-3.5,0l-4.6,4.6
				C113,276.1,113,277.7,113.9,278.6z"/>
			<path fill="#6C567B" d="M122.1,286l-4.6-4.6c-1-1-2.5-1-3.5,0c-1,1-1,2.5,0,3.5l4.6,4.6c1,1,2.5,1,3.5,0
				C123.1,288.5,123.1,286.9,122.1,286z"/>
			<path fill="#6C567B" d="M111.3,281.5c-1-1-2.5-1-3.5,0l-4.6,4.6c-1,1-1,2.5,0,3.5c1,1,2.5,1,3.5,0l4.6-4.6
				C112.2,284,112.2,282.4,111.3,281.5z"/>
			<path fill="#6C567B" d="M111.2,275.2l-4.6-4.6c-1-1-2.5-1-3.5,0c-1,1-1,2.5,0,3.5l4.6,4.6c1,1,2.5,1,3.5,0
				C112.1,277.8,112.1,276.2,111.2,275.2z"/>
		</g>
	</g>
	<g>
		<g>
			<path fill="#6C567B" d="M103.4,10.5c0.9,0,1.7-0.8,1.7-1.7V4.4c0-0.9-0.8-1.7-1.7-1.7c-0.9,0-1.7,0.8-1.7,1.7v4.4
				C101.7,9.7,102.5,10.5,103.4,10.5z"/>
			<path fill="#6C567B" d="M110.9,10.1h-4.4c-0.9,0-1.7,0.8-1.7,1.7s0.8,1.7,1.7,1.7h4.4c0.9,0,1.7-0.8,1.7-1.7
				S111.8,10.1,110.9,10.1z"/>
			<path fill="#6C567B" d="M103.5,13.1c-0.9,0-1.7,0.8-1.7,1.7v4.4c0,0.9,0.8,1.7,1.7,1.7c0.9,0,1.7-0.8,1.7-1.7v-4.4
				C105.2,13.9,104.4,13.1,103.5,13.1z"/>
			<path fill="#6C567B" d="M100.5,10.2H96c-0.9,0-1.7,0.8-1.7,1.7s0.8,1.7,1.7,1.7h4.4c0.9,0,1.7-0.8,1.7-1.7S101.4,10.2,100.5,10.2
				z"/>
		</g>
	</g>
	<g>
		<g>
			<path fill="#6C567B" d="M24,360.3c0.9,0,1.7-0.7,1.7-1.7v-4.4c0-0.9-0.8-1.7-1.7-1.7c-0.9,0-1.7,0.8-1.7,1.7v4.4
				C22.3,359.6,23.1,360.3,24,360.3z"/>
			<path fill="#6C567B" d="M31.5,359.9h-4.4c-0.9,0-1.7,0.8-1.7,1.7c0,0.9,0.8,1.7,1.7,1.7h4.4c0.9,0,1.7-0.7,1.7-1.7
				C33.2,360.7,32.4,359.9,31.5,359.9z"/>
			<path fill="#6C567B" d="M24.1,363c-0.9,0-1.7,0.7-1.7,1.7v4.4c0,0.9,0.8,1.7,1.7,1.7c0.9,0,1.7-0.8,1.7-1.7v-4.4
				C25.8,363.7,25,363,24.1,363z"/>
			<path fill="#6C567B" d="M21.1,360h-4.4c-0.9,0-1.7,0.7-1.7,1.7s0.8,1.7,1.7,1.7h4.4c0.9,0,1.7-0.8,1.7-1.7S22,360,21.1,360z"/>
		</g>
	</g>
	<g>
		<g>
			<path fill="#6C567B" d="M477.1,175.4c0.7-0.7,0.7-1.7,0-2.4l-3.1-3.1c-0.7-0.7-1.7-0.7-2.4,0c-0.7,0.7-0.7,1.7,0,2.4l3.1,3.1
				C475.4,176,476.4,176,477.1,175.4z"/>
			<path fill="#6C567B" d="M482.1,169.8l-3.1,3.1c-0.7,0.7-0.7,1.7,0,2.4c0.7,0.7,1.7,0.7,2.4,0l3.1-3.1c0.7-0.7,0.7-1.7,0-2.4
				C483.8,169.1,482.8,169.1,482.1,169.8z"/>
			<path fill="#6C567B" d="M479.1,177.2c-0.7,0.7-0.7,1.7,0,2.4l3.1,3.1c0.7,0.7,1.7,0.7,2.4,0c0.7-0.7,0.7-1.7,0-2.4l-3.1-3.1
				C480.8,176.5,479.7,176.5,479.1,177.2z"/>
			<path fill="#6C567B" d="M474.8,177.2l-3.1,3.1c-0.7,0.7-0.7,1.7,0,2.4c0.7,0.7,1.7,0.7,2.4,0l3.1-3.1c0.7-0.7,0.7-1.7,0-2.4
				S475.5,176.6,474.8,177.2z"/>
		</g>
	</g>
</g>
<g>
	<g>
		<g>
			<g>
				<g>
					<g>
						<path fill="#375A64" d="M332.6,479H187.7c-14,0-25.3-11.3-25.3-25.3V117.1c0-14,11.3-25.3,25.3-25.3h144.9
							c14,0,25.3,11.3,25.3,25.3v336.6C357.9,467.7,346.6,479,332.6,479z"/>
					</g>
				</g>
			</g>
		</g>
		<g>
			<g>
				<g>
					<g>
						<path fill="#1A2E35" d="M165.5,453.7V117.1c0-12.3,10-22.2,22.2-22.2h144.9c12.3,0,22.2,10,22.2,22.2v336.6
							c0,12.3-10,22.2-22.2,22.2H187.7C175.4,476,165.5,466,165.5,453.7z"/>
					</g>
				</g>
			</g>
		</g>
		<g>
			<g>
				<g>
					<g>
						<g>
							<g>
								<path fill="#375A64" d="M246.1,107.1c-1.2,0-2.2-1-2.2-2.2c0-1.2,1-2.2,2.2-2.2h28c1.2,0,2.2,1,2.2,2.2c0,1.2-1,2.2-2.2,2.2
									H246.1z"/>
							</g>
						</g>
					</g>
				</g>
			</g>
			<g>
				<g>
					<g>
						<g>
							<g>
								<g>
									<path fill="#375A64" d="M231.1,107.1c-1.2,0-2.2-1-2.2-2.2c0-1.2,1-2.2,2.2-2.2c1.2,0,2.2,1,2.2,2.2
										C233.3,106.1,232.3,107.1,231.1,107.1z"/>
								</g>
							</g>
						</g>
					</g>
				</g>
				<g>
					<g>
						<g>
							<g>
								<g>
									<path fill="#375A64" d="M239.1,107.1c-1.2,0-2.2-1-2.2-2.2c0-1.2,1-2.2,2.2-2.2c1.2,0,2.2,1,2.2,2.2
										C241.3,106.1,240.3,107.1,239.1,107.1z"/>
								</g>
							</g>
						</g>
					</g>
				</g>
				<g>
					<g>
						<g>
							<g>
								<g>
									<path fill="#375A64" d="M289.2,107.1c-1.2,0-2.2-1-2.2-2.2c0-1.2,1-2.2,2.2-2.2c1.2,0,2.2,1,2.2,2.2
										C291.4,106.1,290.4,107.1,289.2,107.1z"/>
								</g>
							</g>
						</g>
					</g>
				</g>
				<g>
					<g>
						<g>
							<g>
								<g>
									<path fill="#375A64" d="M281.2,107.1c-1.2,0-2.2-1-2.2-2.2c0-1.2,1-2.2,2.2-2.2c1.2,0,2.2,1,2.2,2.2
										C283.4,106.1,282.4,107.1,281.2,107.1z"/>
								</g>
							</g>
						</g>
					</g>
				</g>
			</g>
		</g>
		<g>
			<g>
				<g>
					<g>
						<path fill="#FFFFFF" d="M333.7,97.1h-27.5c-4.3,0-8.2,2.9-9.4,7l-0.5,1.6c-1.3,4.5-5.4,7.5-10,7.5H234c-4.7,0-8.7-3.1-10-7.5
							l-0.5-1.6c-1.2-4.2-5-7-9.4-7h-24.9c-10.7,0-19.3,8.7-19.3,19.3v335.8c0,10.1,8.1,18.2,18.2,18.2H334
							c9.1,0,16.5-7.4,16.5-16.5V113.9C350.5,104.6,342.9,97.1,333.7,97.1z"/>
					</g>
				</g>
			</g>
		</g>
		<g>
			<g>
				<g>
					<g>
						<path fill="#375A64" d="M357.9,176h0.2c0.6,0,1.1,0.5,1.1,1.1v42.4c0,0.6-0.5,1.1-1.1,1.1h-0.2V176z"/>
					</g>
				</g>
			</g>
		</g>
		<g>
			<g>
				<g>
					<g>
						<path fill="#375A64" d="M162.4,203.4h-0.3c-0.6,0-1.1,0.5-1.1,1.1v26c0,0.6,0.5,1.1,1.1,1.1h0.3V203.4z"/>
					</g>
				</g>
			</g>
		</g>
		<g>
			<g>
				<g>
					<g>
						<path fill="#375A64" d="M162.4,166.6h-0.3c-0.6,0-1.1,0.5-1.1,1.1v26c0,0.6,0.5,1.1,1.1,1.1h0.3V166.6z"/>
					</g>
				</g>
			</g>
		</g>
		<g>
			<g>
				<g>
					<g>
						<path fill="#375A64" d="M162.4,138.9h-0.2c-0.5,0-0.9,0.4-0.9,0.9v11.2c0,0.5,0.4,0.9,0.9,0.9h0.2V138.9z"/>
					</g>
				</g>
			</g>
		</g>
		<g>
			<g>
				<g>
					<g>
						<g>
							<g>
								<rect x="306.6" y="110.1" fill="#1A2E35" width="1.3" height="1.9"/>
							</g>
						</g>
					</g>
				</g>
				<g>
					<g>
						<g>
							<g>
								<rect x="308.8" y="109.2" fill="#1A2E35" width="1.3" height="2.7"/>
							</g>
						</g>
					</g>
				</g>
				<g>
					<g>
						<g>
							<g>
								<rect x="311" y="108.6" fill="#1A2E35" width="1.3" height="3.4"/>
							</g>
						</g>
					</g>
				</g>
				<g>
					<g>
						<g>
							<g>
								<rect x="313.2" y="107.4" fill="#1A2E35" width="1.3" height="4.6"/>
							</g>
						</g>
					</g>
				</g>
			</g>
			<g>
				<g>
					<g>
						<g>
							<g>
								<path fill="#1A2E35" d="M334.4,112.1h-6.7c-0.3,0-0.5-0.2-0.5-0.5v-3.4c0-0.3,0.2-0.5,0.5-0.5l6.7,0c0,0,0.1,0,0.1,0
									c0,0,0,0.1,0,0.1v1.1h0.7c0.1,0,0.1,0.1,0.1,0.1v1.6c0,0.1-0.1,0.1-0.1,0.1h-0.7v1.1C334.5,112,334.4,112.1,334.4,112.1z
									 M334.2,108l-6.6,0c-0.1,0-0.2,0.1-0.2,0.2v3.4c0,0.1,0.1,0.2,0.2,0.2h6.6v-1.1c0-0.1,0.1-0.1,0.1-0.1h0.7v-1.4h-0.7
									c-0.1,0-0.1-0.1-0.1-0.1V108z"/>
							</g>
						</g>
					</g>
				</g>
				<g>
					<g>
						<g>
							<g>
								<polygon fill="#1A2E35" points="327.9,111.3 327.9,108.5 333.7,108.5 333.7,109.8 333.7,110 333.7,111.3 								"/>
							</g>
						</g>
					</g>
				</g>
			</g>
			<g>
				<g>
					<g>
						<g>
							<g>
								<path fill="#1A2E35" d="M321,111.8c0-0.3-0.2-0.5-0.5-0.5s-0.5,0.2-0.5,0.5c0,0.3,0.2,0.5,0.5,0.5S321,112.1,321,111.8z"/>
							</g>
						</g>
					</g>
				</g>
				<g>
					<g>
						<g>
							<g>
								<g>
									<path fill="#1A2E35" d="M318.8,110.6l0.6,0.6c0.3-0.3,0.6-0.4,1.1-0.4c0.4,0,0.8,0.2,1.1,0.4l0.6-0.6
										c-0.4-0.4-1-0.7-1.7-0.7C319.8,109.9,319.2,110.2,318.8,110.6z"/>
								</g>
							</g>
						</g>
					</g>
					<g>
						<g>
							<g>
								<g>
									<path fill="#1A2E35" d="M320.5,108.5c-1,0-2,0.4-2.7,1.1l0.6,0.6c0.5-0.5,1.2-0.8,2-0.8c0.8,0,1.5,0.3,2,0.8l0.6-0.6
										C322.4,108.9,321.5,108.5,320.5,108.5z"/>
								</g>
							</g>
						</g>
					</g>
					<g>
						<g>
							<g>
								<g>
									<path fill="#1A2E35" d="M316.8,108.6l0.6,0.6c0.8-0.8,1.9-1.3,3.1-1.3s2.3,0.5,3.1,1.3l0.6-0.6c-0.9-0.9-2.3-1.5-3.7-1.5
										C319,107.1,317.7,107.7,316.8,108.6z"/>
								</g>
							</g>
						</g>
					</g>
				</g>
			</g>
		</g>
	</g>
	<g>
		<g>
			<rect x="178.7" y="351.6" fill="#E1E1E1" width="161.5" height="41.7"/>
		</g>
	</g>
	<g>
		<g>
			<g>
				<path fill="#1A2E35" d="M341,153.5c0,0.1-37.1,0.3-82.9,0.3c-45.8,0-82.9-0.1-82.9-0.3c0-0.1,37.1-0.3,82.9-0.3
					C303.9,153.3,341,153.4,341,153.5z"/>
			</g>
		</g>
	</g>
	<g>
		<g>
			<path fill="#FF735D" d="M307.2,446.5H213c-10.9,0-19.7-8.8-19.7-19.7l0,0c0-10.9,8.8-19.7,19.7-19.7h94.1
				c10.9,0,19.7,8.8,19.7,19.7l0,0C326.8,437.7,318,446.5,307.2,446.5z"/>
		</g>
	</g>
	<g>
		<g>
			<rect x="177.7" y="160.5" fill="#ECECEC" width="56.1" height="54.9"/>
		</g>
	</g>
	<g>
		<g>
			<g>
				<path fill="#1A2E35" d="M177.7,160.5c0,0,0.3,0,0.8,0c0.5,0,1.3,0,2.3,0c2.1,0,5.1,0,9.1,0c8,0,19.6,0,34.1-0.1
					c29.1,0,70.1-0.1,117.2-0.1l0.3,0v0.3c0,17.3,0,35.8,0,54.9v0v0.3l-0.3,0c-65.5,0-124.2-0.1-163.5-0.1l-0.2,0l0-0.2
					c0-17.2,0.1-31,0.1-40.4c0-4.7,0-8.3,0-10.8c0-1.2,0-2.1,0-2.8C177.7,160.8,177.7,160.5,177.7,160.5s0,0.3,0,1
					c0,0.6,0,1.6,0,2.8c0,2.5,0,6.1,0,10.8c0,9.4,0.1,23.1,0.1,40.3l-0.2-0.2c39.4,0,98.1-0.1,163.5-0.1l-0.3,0.3v0
					c0-19.1,0-37.6,0-54.9l0.3,0.3c-47.1,0-87.9-0.1-117-0.1c-14.6,0-26.2-0.1-34.2-0.1c-4,0-7.1,0-9.2,0c-1,0-1.8,0-2.4,0
					C178,160.5,177.7,160.5,177.7,160.5z"/>
			</g>
		</g>
	</g>
	<g>
		<g>
			<rect x="244.6" y="170.3" fill="#FF735D" width="32.4" height="4.4"/>
		</g>
	</g>
	<g>
		<g>
			<rect x="244.6" y="181.2" fill="#E1E1E1" width="85.6" height="2.8"/>
		</g>
	</g>
	<g>
		<g>
			<rect x="244.6" y="186.9" fill="#E1E1E1" width="85.6" height="2.8"/>
		</g>
	</g>
	<g>
		<g>
			<path fill="#E1E1E1" d="M251.1,205.7c-0.5,0.5-1.2,0.7-2.1,0.9v1.3h-1.2v-1.3c-0.6,0-1.1-0.1-1.7-0.3c-0.5-0.2-1-0.4-1.3-0.6
				l0.7-1.4c0.3,0.2,0.7,0.4,1.1,0.6c0.4,0.2,0.8,0.2,1.2,0.3v-2c-0.6-0.1-1-0.3-1.4-0.5c-0.4-0.2-0.7-0.4-1-0.7
				c-0.3-0.3-0.4-0.7-0.4-1.3c0-0.7,0.2-1.2,0.7-1.7c0.5-0.5,1.2-0.8,2.1-0.9v-1.3h1.2v1.3c1,0.1,1.8,0.3,2.4,0.7l-0.6,1.5
				c-0.6-0.3-1.2-0.5-1.8-0.6v2c0.6,0.1,1,0.3,1.4,0.4c0.4,0.2,0.7,0.4,1,0.7c0.3,0.3,0.4,0.7,0.4,1.3
				C251.9,204.7,251.6,205.2,251.1,205.7z M247.3,201c0.2,0.1,0.4,0.2,0.7,0.3v-1.7c-0.3,0.1-0.5,0.2-0.7,0.3
				c-0.1,0.2-0.2,0.3-0.2,0.5C247,200.7,247.1,200.9,247.3,201z M249.7,204.7c0.1-0.1,0.2-0.3,0.2-0.5c0-0.2-0.1-0.4-0.2-0.5
				c-0.1-0.1-0.4-0.2-0.6-0.3v1.6C249.4,204.9,249.6,204.8,249.7,204.7z"/>
		</g>
	</g>
	<g>
		<g>
			<path fill="#E1E1E1" d="M260.1,205.7c-0.5,0.5-1.2,0.7-2.1,0.9v1.3h-1.2v-1.3c-0.6,0-1.1-0.1-1.7-0.3c-0.5-0.2-1-0.4-1.3-0.6
				l0.7-1.4c0.3,0.2,0.7,0.4,1.1,0.6c0.4,0.2,0.8,0.2,1.2,0.3v-2c-0.6-0.1-1-0.3-1.4-0.5c-0.4-0.2-0.7-0.4-1-0.7
				c-0.3-0.3-0.4-0.7-0.4-1.3c0-0.7,0.2-1.2,0.7-1.7c0.5-0.5,1.2-0.8,2.1-0.9v-1.3h1.2v1.3c1,0.1,1.8,0.3,2.4,0.7l-0.6,1.5
				c-0.6-0.3-1.2-0.5-1.8-0.6v2c0.6,0.1,1,0.3,1.4,0.4c0.4,0.2,0.7,0.4,1,0.7c0.3,0.3,0.4,0.7,0.4,1.3
				C260.8,204.7,260.6,205.2,260.1,205.7z M256.2,201c0.2,0.1,0.4,0.2,0.7,0.3v-1.7c-0.3,0.1-0.5,0.2-0.7,0.3
				c-0.1,0.2-0.2,0.3-0.2,0.5C256,200.7,256.1,200.9,256.2,201z M258.7,204.7c0.1-0.1,0.2-0.3,0.2-0.5c0-0.2-0.1-0.4-0.2-0.5
				c-0.1-0.1-0.4-0.2-0.6-0.3v1.6C258.4,204.9,258.6,204.8,258.7,204.7z"/>
		</g>
	</g>
	<g>
		<g>
			<g>
				<path fill="#1A2E35" d="M233.8,215.9c-0.1,0-0.3-12.3-0.3-27.5c0-15.2,0.1-27.5,0.3-27.5c0.1,0,0.3,12.3,0.3,27.5
					C234.1,203.6,234,215.9,233.8,215.9z"/>
			</g>
		</g>
	</g>
	<g>
		<g>
			<rect x="177.7" y="221.1" fill="#ECECEC" width="56.1" height="54.9"/>
		</g>
	</g>
	<g>
		<g>
			<g>
				<path fill="#1A2E35" d="M177.7,221.1c0,0,0.3,0,0.8,0c0.5,0,1.3,0,2.3,0c2.1,0,5.1,0,9.1,0c8,0,19.6,0,34.1-0.1
					c29.1,0,70.1-0.1,117.2-0.1l0.3,0v0.3c0,17.3,0,35.8,0,54.9v0v0.3l-0.3,0c-65.5,0-124.2-0.1-163.5-0.1l-0.2,0l0-0.2
					c0-17.2,0.1-31,0.1-40.4c0-4.7,0-8.3,0-10.8c0-1.2,0-2.1,0-2.8C177.7,221.4,177.7,221.1,177.7,221.1s0,0.3,0,1
					c0,0.6,0,1.6,0,2.8c0,2.5,0,6.1,0,10.8c0,9.4,0.1,23.1,0.1,40.3l-0.2-0.2c39.4,0,98.1-0.1,163.5-0.1L341,276v0
					c0-19.1,0-37.6,0-54.9l0.3,0.3c-47.1,0-87.9-0.1-117-0.1c-14.6,0-26.2-0.1-34.2-0.1c-4,0-7.1,0-9.2,0c-1,0-1.8,0-2.4,0
					C178,221.1,177.7,221.1,177.7,221.1z"/>
			</g>
		</g>
	</g>
	<g>
		<g>
			<rect x="244.6" y="230.9" fill="#FF735D" width="32.4" height="4.4"/>
		</g>
	</g>
	<g>
		<g>
			<rect x="244.6" y="241.8" fill="#E1E1E1" width="85.6" height="2.8"/>
		</g>
	</g>
	<g>
		<g>
			<rect x="244.6" y="247.5" fill="#E1E1E1" width="85.6" height="2.8"/>
		</g>
	</g>
	<g>
		<g>
			<path fill="#E1E1E1" d="M251.1,266.3c-0.5,0.5-1.2,0.7-2.1,0.9v1.3h-1.2v-1.3c-0.6,0-1.1-0.1-1.7-0.3c-0.5-0.2-1-0.4-1.3-0.6
				l0.7-1.4c0.3,0.2,0.7,0.4,1.1,0.6c0.4,0.2,0.8,0.2,1.2,0.3v-2c-0.6-0.1-1-0.3-1.4-0.5c-0.4-0.2-0.7-0.4-1-0.7
				c-0.3-0.3-0.4-0.7-0.4-1.3c0-0.7,0.2-1.2,0.7-1.7c0.5-0.5,1.2-0.8,2.1-0.9v-1.3h1.2v1.3c1,0.1,1.8,0.3,2.4,0.7l-0.6,1.5
				c-0.6-0.3-1.2-0.5-1.8-0.6v2c0.6,0.1,1,0.3,1.4,0.4c0.4,0.2,0.7,0.4,1,0.7c0.3,0.3,0.4,0.7,0.4,1.3
				C251.9,265.3,251.6,265.8,251.1,266.3z M247.3,261.6c0.2,0.1,0.4,0.2,0.7,0.3v-1.7c-0.3,0.1-0.5,0.2-0.7,0.3
				c-0.1,0.2-0.2,0.3-0.2,0.5C247,261.3,247.1,261.4,247.3,261.6z M249.7,265.3c0.1-0.1,0.2-0.3,0.2-0.5c0-0.2-0.1-0.4-0.2-0.5
				c-0.1-0.1-0.4-0.2-0.6-0.3v1.6C249.4,265.5,249.6,265.4,249.7,265.3z"/>
		</g>
	</g>
	<g>
		<g>
			<g>
				<path fill="#1A2E35" d="M233.8,276.5c-0.1,0-0.3-12.3-0.3-27.5c0-15.2,0.1-27.5,0.3-27.5c0.1,0,0.3,12.3,0.3,27.5
					C234.1,264.1,234,276.5,233.8,276.5z"/>
			</g>
		</g>
	</g>
	<g>
		<g>
			<rect x="177.7" y="281.5" fill="#ECECEC" width="56.1" height="54.9"/>
		</g>
	</g>
	<g>
		<g>
			<g>
				<path fill="#1A2E35" d="M177.7,281.5c0,0,0.3,0,0.8,0c0.5,0,1.3,0,2.3,0c2.1,0,5.1,0,9.1,0c8,0,19.6,0,34.1-0.1
					c29.1,0,70.1-0.1,117.2-0.1l0.3,0v0.3c0,17.3,0,35.8,0,54.9v0v0.3l-0.3,0c-65.5,0-124.2-0.1-163.5-0.1l-0.2,0l0-0.2
					c0-17.2,0.1-31,0.1-40.4c0-4.7,0-8.3,0-10.8c0-1.2,0-2.1,0-2.8C177.7,281.8,177.7,281.5,177.7,281.5s0,0.3,0,1
					c0,0.6,0,1.6,0,2.8c0,2.5,0,6.1,0,10.8c0,9.4,0.1,23.1,0.1,40.3l-0.2-0.2c39.4,0,98.1-0.1,163.5-0.1l-0.3,0.3v0
					c0-19.1,0-37.6,0-54.9l0.3,0.3c-47.1,0-87.9-0.1-117-0.1c-14.6,0-26.2-0.1-34.2-0.1c-4,0-7.1,0-9.2,0c-1,0-1.8,0-2.4,0
					C178,281.5,177.7,281.5,177.7,281.5z"/>
			</g>
		</g>
	</g>
	<g>
		<g>
			<rect x="244.6" y="291.3" fill="#FF735D" width="32.4" height="4.4"/>
		</g>
	</g>
	<g>
		<g>
			<rect x="244.6" y="302.3" fill="#E1E1E1" width="85.6" height="2.8"/>
		</g>
	</g>
	<g>
		<g>
			<rect x="244.6" y="307.9" fill="#E1E1E1" width="85.6" height="2.8"/>
		</g>
	</g>
	<g>
		<g>
			<path fill="#E1E1E1" d="M251.1,326.7c-0.5,0.5-1.2,0.7-2.1,0.9v1.3h-1.2v-1.3c-0.6,0-1.1-0.1-1.7-0.3c-0.5-0.2-1-0.4-1.3-0.6
				l0.7-1.4c0.3,0.2,0.7,0.4,1.1,0.6c0.4,0.2,0.8,0.2,1.2,0.3v-2c-0.6-0.1-1-0.3-1.4-0.5c-0.4-0.2-0.7-0.4-1-0.7
				c-0.3-0.3-0.4-0.7-0.4-1.3c0-0.7,0.2-1.2,0.7-1.7c0.5-0.5,1.2-0.8,2.1-0.9v-1.3h1.2v1.3c1,0.1,1.8,0.3,2.4,0.7l-0.6,1.5
				c-0.6-0.3-1.2-0.5-1.8-0.6v2c0.6,0.1,1,0.3,1.4,0.4c0.4,0.2,0.7,0.4,1,0.7c0.3,0.3,0.4,0.7,0.4,1.3
				C251.9,325.7,251.6,326.2,251.1,326.7z M247.3,322c0.2,0.1,0.4,0.2,0.7,0.3v-1.7c-0.3,0.1-0.5,0.2-0.7,0.3
				c-0.1,0.2-0.2,0.3-0.2,0.5C247,321.7,247.1,321.9,247.3,322z M249.7,325.7c0.1-0.1,0.2-0.3,0.2-0.5c0-0.2-0.1-0.4-0.2-0.5
				c-0.1-0.1-0.4-0.2-0.6-0.3v1.6C249.4,325.9,249.6,325.8,249.7,325.7z"/>
		</g>
	</g>
	<g>
		<g>
			<path fill="#E1E1E1" d="M259.3,326.7c-0.5,0.5-1.2,0.7-2.1,0.9v1.3h-1.2v-1.3c-0.6,0-1.1-0.1-1.7-0.3c-0.5-0.2-1-0.4-1.3-0.6
				l0.7-1.4c0.3,0.2,0.7,0.4,1.1,0.6c0.4,0.2,0.8,0.2,1.2,0.3v-2c-0.6-0.1-1-0.3-1.4-0.5c-0.4-0.2-0.7-0.4-1-0.7
				c-0.3-0.3-0.4-0.7-0.4-1.3c0-0.7,0.2-1.2,0.7-1.7s1.2-0.8,2.1-0.9v-1.3h1.2v1.3c1,0.1,1.8,0.3,2.4,0.7l-0.6,1.5
				c-0.6-0.3-1.2-0.5-1.8-0.6v2c0.6,0.1,1,0.3,1.4,0.4c0.4,0.2,0.7,0.4,1,0.7c0.3,0.3,0.4,0.7,0.4,1.3
				C260,325.7,259.8,326.2,259.3,326.7z M255.4,322c0.2,0.1,0.4,0.2,0.7,0.3v-1.7c-0.3,0.1-0.5,0.2-0.7,0.3
				c-0.1,0.2-0.2,0.3-0.2,0.5C255.2,321.7,255.3,321.9,255.4,322z M257.9,325.7c0.1-0.1,0.2-0.3,0.2-0.5c0-0.2-0.1-0.4-0.2-0.5
				c-0.1-0.1-0.4-0.2-0.6-0.3v1.6C257.5,325.9,257.7,325.8,257.9,325.7z"/>
		</g>
	</g>
	<g>
		<g>
			<g>
				<path fill="#1A2E35" d="M233.8,336.9c-0.1,0-0.3-12.3-0.3-27.5c0-15.2,0.1-27.5,0.3-27.5c0.1,0,0.3,12.3,0.3,27.5
					C234.1,324.6,234,336.9,233.8,336.9z"/>
			</g>
		</g>
	</g>
</g>
<g opacity="0.3">
	<polygon fill="#FFFFFF" points="333.6,469.9 310,469.9 147.6,177.9 147.6,135.5 	"/>
	<polygon fill="#FFFFFF" points="357.7,386.9 357.7,408.1 183.6,95.2 195.4,95.2 	"/>
	<path fill="#FFFFFF" d="M357.7,420.5v36.7c0,7-5.7,12.8-12.8,12.8h-1.7L147.6,118.2v-10.2c0-7,5.7-12.8,12.8-12.8h16.4L357.7,420.5
		z"/>
</g>
<path fill="#FFFFFF" d="M437.9,274.8c33.4-33.4,33.4-87.5,0-120.9c-33.4-33.4-87.5-33.4-120.9,0c-29.6,29.6-33,75.6-10,109
	l-6.9,28.9l28.9-6.9C362.3,307.7,408.3,304.4,437.9,274.8z"/>
<g>
	<g>
		<path fill="#F8A41A" d="M414.4,260.6h-70.9c-8.9,0-16.1-7.2-16.1-16.1l0,0c0-1.5,1.4-2.9,2.9-2.9h97.5c1.5,0,2.9,1.4,2.9,2.9l0,0
			C430.6,253.4,423.3,260.6,414.4,260.6z"/>
		<path fill="#F7971C" d="M430.6,251.1v-7.8c0-0.9-0.8-1.7-1.7-1.7h-5.3c-12.2,9.5-33.8,15.2-52.8,19h50.2
			C426.4,260.6,430.6,256.4,430.6,251.1z"/>
	</g>
	<path fill="#E62728" d="M424.2,219.9h-90.5c-2.1,0-3.8,1.7-3.8,3.8l0,0c0,2.1,1.7,3.8,3.8,3.8h90.5c2.1,0,3.8-1.7,3.8-3.8l0,0
		C428,221.5,426.2,219.9,424.2,219.9z"/>
	<path fill="#8C401F" d="M412.6,241.6h9.1c3.3,0,6-2.7,6-6v-2.3c0-2.1-1.1-4.1-2.9-5.1C423,234.5,417,239,412.6,241.6z"/>
	<path fill="#B75F28" d="M426.1,220.2H333c-1.8-1.4-2.9-2.4-2.9-3.8v-9.8c0-1.4,1.1-2.4,2.4-2.4h93.1c1.4,0,2.4,1.1,2.4,2.4v9.8
		C428,217.8,426.8,218.8,426.1,220.2z"/>
	<path fill="#347237" d="M432.1,209.6l-4.2-8.3h-46h-5.6h-46l-4.2,8.3c-2.1,4.2,4.8,5.3,7.1,3.9c0.9-0.6,1.7-1.5,2.6-2.1
		c2.9-2,6.2-0.8,8.6,1.4c0,0,8.1,8.6,15.7,0.8c2.6-2.7,5.6-4.1,8.9-2.3c3,1.7,5.4,4.8,8.6,6c2.3,0.9,4.7,0.2,6.6-1.5
		c1.2-1.1,2-2.7,3.3-3.6c3.6-2.3,8-1.8,10.9,1.2c7.5,8,15.7-0.8,15.7-0.8c2.4-2.3,5.7-3.3,8.6-1.4c0.9,0.6,1.7,1.5,2.6,2.1
		C427.1,214.7,434.2,213.8,432.1,209.6z"/>
	<path fill="#F8A41A" d="M328.3,202.7L328.3,202.7c0-19,21.9-40.4,49.8-40.4l0,0c27.9,0,51.6,21.4,51.6,40.4l0,0H328.3z"/>
	<path fill="#F7971C" d="M408.9,172c-6,16-19.9,25.3-31.8,30.6h52.5C429.2,190.4,419.3,177.6,408.9,172z"/>
	<g>
		<path fill="#FFFFFF" d="M360,176.1c-1.1,1.2-2.3,1.8-2.9,1.4c-0.6-0.5-0.2-1.8,0.9-3c1.1-1.2,2.3-1.8,2.9-1.4
			C361.3,173.7,361,174.9,360,176.1z"/>
		<path fill="#FFFFFF" d="M396.5,176.4c-1.4,0.8-2.7,0.9-3.2,0.3c-0.3-0.6,0.5-1.8,1.8-2.6c1.4-0.8,2.7-0.9,3.2-0.3
			C398.7,174.6,397.8,175.7,396.5,176.4z"/>
		
			<ellipse transform="matrix(0.2083 -0.9781 0.9781 0.2083 126.7187 508.3304)" fill="#FFFFFF" cx="377.4" cy="175.9" rx="2.9" ry="1.4"/>
		<path fill="#FFFFFF" d="M370.1,170.4c1.1,1.2,1.5,2.6,0.9,3s-1.8-0.2-2.9-1.4s-1.5-2.6-0.9-3C367.8,168.6,369,169.2,370.1,170.4z"
			/>
		<path fill="#FFFFFF" d="M387.9,170.8c1.5,0.6,2.4,1.7,2.1,2.3c-0.3,0.6-1.7,0.8-3.2,0.2c-1.5-0.6-2.4-1.7-2.1-2.3
			C385,170.2,386.4,170.2,387.9,170.8z"/>
	</g>
	<path fill="#C92127" d="M347.9,220.5l25.7,7.2h15.8C389.5,227.9,374,220.8,347.9,220.5z"/>
	<path fill="#944C22" d="M421.5,241.6h-85.1c-3.9,0-7.1-3.2-7.1-7.1l0,0c0-3.9,3.2-7.1,7.1-7.1h85.1c3.9,0,7.1,3.2,7.1,7.1l0,0
		C428.6,238.4,425.5,241.6,421.5,241.6z"/>
	<path fill="#8C401F" d="M371.7,227.3c0,0,24.6,7.1,32,12.7l13.3-12.5L371.7,227.3z"/>
	<path fill="#FCC10E" d="M403.3,236l15.2-15.8h-74.2C344.3,220.2,378.1,222.4,403.3,236z"/>
	<path fill="#FBBA5D" d="M331.2,199.7c0,0,6.2-27.2,36.5-33.2C367.7,166.6,344.9,179.4,331.2,199.7z"/>
</g>
<path fill="#FFFFFF" d="M184.6,65.4c-33.4-33.4-87.5-33.4-120.9,0c-33.4,33.4-33.4,87.5,0,120.9c29.6,29.6,75.6,33,109,10l28.9,6.9
	l-6.9-28.9C217.5,141.1,214.2,95.1,184.6,65.4z"/>
<g>
	<g>
		<g>
			<polygon fill="#E09B00" points="86,101.2 93.7,153.1 101.3,151.9 94.2,100.6 			"/>
		</g>
		<g>
			<polygon fill="#E09B00" points="111.8,92 111.5,144.5 119.2,144.4 120,92.6 			"/>
		</g>
		<g>
			<polygon fill="#E09B00" points="129.3,92.6 129,145.1 136.7,145 137.5,93.2 			"/>
		</g>
		<g>
			<polygon fill="#FFC550" points="76,97.5 93.8,146.8 99.2,144.2 84,95.2 			"/>
		</g>
		<g>
			<polygon fill="#F8B300" points="89.3,90.6 97,142.5 104.7,141.2 97.5,89.9 			"/>
		</g>
		<g>
			<polygon fill="#F8B300" points="100.8,80.7 108.3,145.6 116,144.6 109.1,80.3 			"/>
		</g>
		<g>
			<polygon fill="#F8B300" points="120.2,76.4 118.2,141.7 125.9,141.8 128.4,77.2 			"/>
		</g>
		<g>
			<polygon fill="#FFC550" points="98.7,84.9 100.7,137.4 108.4,136.9 107,85.2 			"/>
		</g>
		<g>
			<polygon fill="#FFC550" points="126.6,87.2 119.2,139.2 126.8,140.1 134.6,88.9 			"/>
		</g>
		<g>
			<polygon fill="#E09B00" points="158.7,93.6 149.3,145.2 141.7,143.7 150.5,92.7 			"/>
		</g>
		<g>
			<polygon fill="#F8B300" points="169.4,79.8 154.2,143.3 146.8,141.4 161.3,78.4 			"/>
		</g>
		<g>
			<polygon fill="#FFC550" points="154,80.8 143.9,145.4 136.3,144 145.8,80 			"/>
		</g>
		<g>
			<polygon fill="#F8B300" points="143.4,81.8 141,134.2 133.3,133.7 135.1,82 			"/>
		</g>
	</g>
	<g>
		<g>
			<path fill="#F71D04" d="M133.1,123.4v51.2H92l-7.1-45.4l-0.9-5.8h16.2c0.6,5.7,5.4,10.1,11.2,10.1c5.8,0,10.6-4.4,11.2-10.1
				H133.1z"/>
		</g>
		<g>
			<path fill="#BF0400" d="M161.1,119.4c0,0,0,0,0,0.1l-0.1,0.4c0,0,0,0.1,0,0.1l0,0.3c0,0.1,0,0.2-0.1,0.3l-7.8,53.9h-19.9v-51.2
				L161.1,119.4z"/>
		</g>
		<g>
			<polygon fill="#FF4440" points="93,174.6 92,174.6 84,123.4 88.6,123.4 			"/>
		</g>
		<g>
			<ellipse fill="#EFE9C7" cx="110.8" cy="154" rx="16.1" ry="8.4"/>
		</g>
		<g opacity="0.5">
			<g>
				<path fill="#BF0400" d="M133.1,124.5v50.1H92C126.6,174.6,132.4,131.9,133.1,124.5z"/>
			</g>
		</g>
	</g>
</g>
</svg>
