<?xml version="1.0" encoding="utf-8"?>
<!-- Generator: Adobe Illustrator 26.0.1, SVG Export Plug-In . SVG Version: 6.00 Build 0)  -->
<svg version="1.1" id="Character" xmlns="http://www.w3.org/2000/svg" xmlns:xlink="http://www.w3.org/1999/xlink" x="0px" y="0px"
	 viewBox="0 0 504 576" enable-background="new 0 0 504 576" xml:space="preserve">
<path opacity="0.25" fill-rule="evenodd" clip-rule="evenodd" fill="#D1D3D4" d="M441.3,536.5c6.9-1.9,10.7-3.9,10.7-6
	c0-10.8-100.3-19.6-224-19.6c-123.7,0-224,8.8-224,19.6c0,5.3,23.9,10.1,62.7,13.6c-6.9,1.9-10.7,3.9-10.7,6
	c0,10.8,100.3,19.6,224,19.6c123.7,0,224-8.8,224-19.6C504,544.8,480.1,540,441.3,536.5z"/>
<g>
	<path fill-rule="evenodd" clip-rule="evenodd" fill="#F4B593" d="M279.5,279.5c4.7-20.2-7.9-40.3-28.1-45
		c-20.2-4.7-40.3,7.9-45,28.1c-0.5,1.9-0.7,3.9-0.9,5.8l0,0l-9.4,117.7c-2.4,10.6,4.2,21.1,14.8,23.6c10.6,2.4,21.2-4.2,23.6-14.7
		l43.2-109.9l0,0C278.4,283.3,279,281.5,279.5,279.5z"/>
	<path fill-rule="evenodd" clip-rule="evenodd" fill="#F4B593" d="M234.5,395.1c2.4-10.6-4.2-21.1-14.8-23.6
		c-10.6-2.4-21.2,4.2-23.6,14.7c-0.3,1.3-0.5,2.6-0.5,3.9l-18.4,140.7l18.3,3.3l8.7-10c0,0,10.8-29.4,23.9-69.2
		C237.9,424.9,237.5,412.5,234.5,395.1z"/>
	<path fill-rule="evenodd" clip-rule="evenodd" fill="#090914" d="M144.8,540.8v5.3c0,0.6,0.5,1,1,1h59.9c0.6,0,1.1-0.5,1-1.1
		l-2.5-22h-3.6c-3.2,0-7.2,0.1-8.7,2.9c-1.6,2.8-4.7,5-6.8,1.4c-1.3-2.3-2.4-6-6.6-7.2c-5.1,5.6-11.8,7.5-15.8,9.1
		C156.6,532.6,144.1,535.3,144.8,540.8z"/>
	<path fill-rule="evenodd" clip-rule="evenodd" fill="#F4B593" d="M294.4,267.2c-2.2-20.6-20.6-35.5-41.2-33.4
		c-20.6,2.2-35.6,20.6-33.4,41.2c0.2,2,0.6,3.9,1.1,5.8l0,0l29.5,114.4c1.1,10.8,10.8,18.6,21.6,17.5c10.8-1.1,18.7-10.8,17.5-21.6
		l5.1-118l0,0C294.7,271.1,294.7,269.1,294.4,267.2z"/>
	<path fill-rule="evenodd" clip-rule="evenodd" fill="#F4B593" d="M289.3,388.5c-2.6-10.5-13.3-17-23.9-14.3
		c-10.6,2.6-17,13.3-14.3,23.8c0.3,1.3,0.8,2.5,1.3,3.7l41.9,116.8l5.6,16.8l17.8-5.4l2.4-14.9c0,0-3-29.1-9.3-70.5
		C305.9,413.5,300,402.7,289.3,388.5z"/>
	<path fill-rule="evenodd" clip-rule="evenodd" fill="#090914" d="M269.3,540.8v5.3c0,0.6,0.5,1,1,1h32.1c0.1,0,0.3,0,0.4-0.1
		l25.5-10.4c0.5-0.2,0.8-0.8,0.5-1.3l-8.9-21l-3.6,0.9c-3.9,1-5.5,3-6.8,6c-2.4,5.4-7.5-1.1-14.8,0c-4.1,8.9-9.7,10.9-14.4,11.5
		C274.1,533.3,268.7,535.3,269.3,540.8z"/>
	<rect x="269.3" y="540" fill-rule="evenodd" clip-rule="evenodd" fill="#FDDDCD" width="32" height="1.7"/>
	<path fill-rule="evenodd" clip-rule="evenodd" fill="#090914" d="M277.2,228c0,0-23.6,120.5-32.9,151.2c-0.8,2.7-1.5,4.7-2.1,5.8
		c-1.6,3.2-2.5,6-3.1,8.7c-2,9.3,0.7,16.5-1.1,33.5c-2.2,21.9-25.4,82.2-25.4,82.2c-14.2,4.8-34-2.3-34-2.3s22.1-226.1,26.5-244.6
		c4.4-18.6,13.7-34.4,13.7-34.4H277.2z"/>
	<path fill-rule="evenodd" clip-rule="evenodd" fill="#F3EDDD" d="M217.9,225.5l5.9-14.4l0.9-2.2l0.9-2.2l18.6-45.4
		c3.8-9.3-0.7-20-10-23.8c-5.3-2.2-11.1-1.6-15.8,0.9c-3.5,1.9-6.4,5.1-8.1,9l-17.5,42.6l-2,4.9l-2,4.9l-4.8,11.7
		c-3.8,9.3,0.7,20,10,23.8C203.3,239.3,214.1,234.8,217.9,225.5z"/>
	<path fill-rule="evenodd" clip-rule="evenodd" fill="#090914" d="M277.2,228c0,0,12.6,12.6,18.4,34c5.8,21.4-5.1,113.8-2.5,123.6
		c2.7,9.8,15.1,26.2,18.9,52.3c3.8,26.2,8.1,59.5,8.1,59.5s-11.2,9.6-32.8,9.6c0,0-35.8-95.1-40.5-115c-4.6-19.9-28-164.1-28-164.1
		H277.2z"/>
	<path fill-rule="evenodd" clip-rule="evenodd" fill="#FFFFFF" d="M269.8,237.9c0,0,13.1,16.7,13.1,42.6c0,16.5-1.5,49.6-2.6,73.5
		c-0.6,13.5-1.1,24.1-1.1,27.1c0,4.5,2.3,5,4.3,5.5c1.7,0.4,3.3,0.8,3.6,3c0.4,2.7-0.5,3.7-1.3,4.7c-0.7,0.8-1.3,1.6-1.3,3.3
		c0,0.9,0.2,1.1,0.7,1.1c0.4,0,0.9-0.2,1.5-0.3c1.7-0.5,3.9-1.2,5.9,0.7c2,1.9,4.9,8.2,7.7,17c2.3,7.3,4.4,16.3,5.7,25.9
		c2.9,21.2,6,51.7,6,51.8l-0.8,0.1c0-0.1-3.1-30.6-6-51.7c-1.3-9.6-3.4-18.5-5.7-25.8c-2.7-8.7-5.6-14.9-7.5-16.7
		c-1.6-1.5-3.6-1-5.2-0.5c-0.7,0.2-1.2,0.4-1.7,0.4c-0.9,0-1.4-0.4-1.4-1.9c0-2,0.7-2.9,1.5-3.8c0.8-0.9,1.5-1.8,1.2-4.1
		c-0.2-1.7-1.6-2-3.1-2.4c-2.3-0.5-4.9-1.1-4.9-6.2c0-3,0.5-13.6,1.1-27.2c1.1-23.9,2.6-57,2.6-73.4c0-25.7-12.9-42.1-12.9-42.2
		L269.8,237.9z"/>
	<path fill-rule="evenodd" clip-rule="evenodd" fill="#F3EDDD" d="M264.5,136.1l19.1,2.1l2.7,52.8c0,0-4,30.5,5.9,61.2
		c0,0-23.1-0.5-44.3-0.4c-20.4,0.1-40.4,1.7-40.4,1.7s9.2-35.3,7.8-48.6c-1.1-11.1-6.6-22.8-6.5-32.2c0.1-9.8,13.9-17.1,20.7-36.5
		h14.7H264.5z"/>
	<path fill-rule="evenodd" clip-rule="evenodd" fill="#F4B593" d="M264.5,136.1l-0.2-22.4l-19.4,2.9l-2.7,19.5
		C242.3,136.1,251.6,144.4,264.5,136.1z"/>
	<path fill-rule="evenodd" clip-rule="evenodd" fill="#DE8450" d="M243.3,128.8c0,0,9,0.9,13.9-5.1c4.9-5.9-12.8-2.7-12.8-2.7
		L243.3,128.8z"/>
	<path fill-rule="evenodd" clip-rule="evenodd" fill="#703541" d="M262.7,109c-0.5,5.9,3,11.1,7.8,11.5c4.8,0.4,9.1-4.1,9.6-10
		c0.5-5.9-3-11.1-7.8-11.5C267.5,98.6,263.2,103,262.7,109z"/>
	<path fill-rule="evenodd" clip-rule="evenodd" fill="#F4B593" d="M236.8,111.2c0.2,7.9,6.7,14.1,14.5,13.9
		c7.9-0.2,14.1-6.7,13.9-14.5l-0.3-16.3c-0.1-6.7-5.7-11.9-12.3-11.8c-6.7,0.1-11.9,5.7-11.8,12.3c-0.1,4.1-2,8.6-2.6,9.9
		c-0.1,0.2-0.1,0.3-0.2,0.3c0,0,0,0,0,0C237.2,106.9,236.7,109,236.8,111.2z"/>
	<path fill-rule="evenodd" clip-rule="evenodd" fill="#DE8450" d="M249.3,102.4c0-0.2,0.2-0.4,0.4-0.3c0.2,0,0.4,0.2,0.3,0.4
		c0,0-0.4,5.7-2.9,7.4c0.3,0.3,1,0.8,2.1,0.8c0.2,0,0.4,0.2,0.4,0.4c0,0.2-0.2,0.4-0.4,0.4c-2,0-2.9-1.2-3-1.5l0-0.1
		c-0.1-0.2,0-0.4,0.2-0.5C248.8,108.2,249.3,102.4,249.3,102.4z"/>
	<path fill-rule="evenodd" clip-rule="evenodd" fill="#090914" d="M253.8,103.6c0,0.9,0.5,1.6,1,1.6c0.5,0,0.9-0.7,0.9-1.6
		c0-0.9-0.5-1.6-1-1.6C254.2,102,253.8,102.7,253.8,103.6z"/>
	<path fill-rule="evenodd" clip-rule="evenodd" fill="#703541" d="M264.9,108.8c0,0-3.5-2.6-3.4-6.4c0.1-3.8,0.3-9.1-2.8-9.6
		c-3.2-0.5-6.4,0.9-9.2-2.2c-2.2-2.5-5.2,0.7-7.9-0.3c0,0-1.2-2.7,1.7-5.9c2.9-3.2,12.2-4.9,19.3-2.2c7.1,2.7,10.3,8.1,8.6,17
		c-0.9,4.5-3.4,10.3-3.4,10.3L264.9,108.8z"/>
	<path fill-rule="evenodd" clip-rule="evenodd" fill="#090914" d="M243.6,103.4c0,0.9,0.5,1.6,1,1.6c0.5,0,0.9-0.7,0.9-1.6
		c0-0.9-0.5-1.6-1-1.6C244,101.8,243.6,102.5,243.6,103.4z"/>
	<path fill-rule="evenodd" clip-rule="evenodd" fill="#703541" d="M257.2,101.4c0,0-1-1.7-4-1.2l-0.1-0.8c3.5-0.6,4.7,1.5,4.7,1.6
		L257.2,101.4z"/>
	<path fill-rule="evenodd" clip-rule="evenodd" fill="#703541" d="M245.8,99.6c0,0-2.2-0.7-3.6,1l-0.6-0.5c1.8-2,4.4-1.2,4.4-1.2
		L245.8,99.6z"/>
	<path fill-rule="evenodd" clip-rule="evenodd" fill="#F4B593" d="M262.3,115.8c1.6,1.6,4.5,1.3,6.5-0.6c2.1-2,2.4-4.9,0.9-6.5
		c-1.6-1.6-4.5-1.3-6.5,0.6C261.2,111.3,260.8,114.2,262.3,115.8z"/>
	<path fill-rule="evenodd" clip-rule="evenodd" fill="#F7F1F0" d="M263.3,118.8c0,1,0.5,1.9,1.1,2.6c0.7,0.7,1.6,1.1,2.7,1l0,0
		c1,0,1.9-0.5,2.6-1.1c0.7-0.7,1.1-1.6,1-2.7l0,0c0-1-0.5-1.9-1.1-2.6c-0.7-0.7-1.6-1.1-2.7-1l0,0c-1,0-1.9,0.5-2.6,1.1
		C263.7,116.8,263.3,117.8,263.3,118.8L263.3,118.8L263.3,118.8z M262.6,118.8c0-1.2,0.5-2.4,1.2-3.2c0.8-0.8,1.9-1.4,3.1-1.4l0,0
		c1.2,0,2.4,0.5,3.2,1.2c0.8,0.8,1.4,1.9,1.4,3.1l0,0c0,1.2-0.5,2.4-1.2,3.2c-0.8,0.8-1.9,1.4-3.1,1.4l0,0c-1.2,0-2.4-0.5-3.2-1.2
		C263.1,121.1,262.6,120,262.6,118.8L262.6,118.8z"/>
	
		<rect x="262.9" y="111.6" transform="matrix(0.8147 -0.5799 0.5799 0.8147 -15.7495 174.7747)" fill-rule="evenodd" clip-rule="evenodd" fill="#DE8450" width="5.4" height="0.8"/>
	<path fill-rule="evenodd" clip-rule="evenodd" fill="#DC4C43" d="M254,114.8c0,0-1.2,1.1-2.3-0.2c-0.7-0.8-1.4-1-1.9-0.5
		c-0.3,0.3-0.6,0.3-0.9-0.1c-0.3-0.4-1-0.5-1.4,0.4c-0.7,1.5-1.7,1-2.5,0.6c0,0,2.5,3,4.7,2.9C251.9,117.7,254,114.8,254,114.8z"/>
	<path fill-rule="evenodd" clip-rule="evenodd" fill="#F3EDDD" d="M332.9,207.5l-7.7-13.5L324,192l-1.2-2.1l-24.4-42.5
		c-5-8.7-16.2-11.8-24.9-6.8c-5,2.8-8.1,7.7-9,13c-0.6,4,0,8.2,2.2,11.9l22.9,40l2.7,4.6l2.7,4.6l6.3,10.9c5,8.7,16.2,11.8,24.9,6.8
		C334.9,227.5,337.9,216.3,332.9,207.5z"/>
	<path fill-rule="evenodd" clip-rule="evenodd" fill="#FEC782" d="M389.6,154.1c0,5.7,6.7,10.3,14.9,10.3c8.2,0,14.9-4.6,14.9-10.3
		c0-5.7-6.7-10.3-14.9-10.3C396.3,143.8,389.6,148.4,389.6,154.1z"/>
	<path fill-rule="evenodd" clip-rule="evenodd" fill="#FEC782" d="M339.7,152.2c0,5.7,6.7,10.3,14.9,10.3c8.2,0,14.9-4.6,14.9-10.3
		c0-5.7-6.7-10.3-14.9-10.3C346.4,141.9,339.7,146.5,339.7,152.2z"/>
	<path fill-rule="evenodd" clip-rule="evenodd" fill="#FEC782" d="M363.6,149.4c0,7.9,7.6,14.3,17,14.3c9.4,0,17-6.4,17-14.3
		c0-7.9-7.6-14.3-17-14.3C371.2,135.1,363.6,141.5,363.6,149.4z"/>
	<path fill-rule="evenodd" clip-rule="evenodd" fill="#F4B593" d="M302.1,227.2C302.2,227.2,302.2,227.2,302.1,227.2
		c4.1,5.3,10.9,8.3,17.9,7.1c0.2,0,0.4,0,0.6-0.1l0.1,0c2.1-0.4,4-1.2,5.7-2.2c1-0.8,2.7-2.2,4.9-4c9.2-7.9,23.4-26.9,34.2-36
		c3-2.5,7.9-4.9,9.9-5.5c14.5-4.5,16.1-6.8,18.2-9.7c2-2.9,12.6-15.9,10.8-17c-1.8-1-6.2,6.8-18.2,9.2c-5.7,1.1-13.3,3.2-13.9,2.3
		c-0.6-0.9,1.8-3.7,4.7-5.5c2.9-1.8,5-3.1,4.5-3.8c-0.5-0.7-3.2-0.4-6.5,0.7c-3.3,1.1-8.3,4.4-10.8,7c-2,2.1-5,5.7-9.4,8.7
		c-1,0.7-2.1,1.3-3.2,1.9c-4.1,2-25.4,11.3-39.8,17.5c-1.3,0.6-2.6,1.1-3.8,1.6c-6.6,3.8-10.5,11.3-9.2,19.3
		C299.1,221.9,300.3,224.8,302.1,227.2z"/>
	<path fill-rule="evenodd" clip-rule="evenodd" fill="#D1D3D4" d="M334.8,154.6H422c0.7,0,1.2-0.5,1.2-1.2c0-0.7-0.5-1.2-1.2-1.2
		h-87.3c-0.7,0-1.2,0.5-1.2,1.2C333.5,154.1,334.1,154.6,334.8,154.6z"/>
	<path fill-rule="evenodd" clip-rule="evenodd" fill="#E6E7E8" d="M353,174.2h50.8c3.8,0,7.3-2,9.2-5.4l8.1-14.3h-85.4l8.1,14.3
		C345.7,172.2,349.2,174.2,353,174.2z"/>
	<path fill-rule="evenodd" clip-rule="evenodd" fill="#F4B593" d="M375.8,177.8c0,0,4.7-1.9,6.9-4.9c2.2-3,3.8-4.5,4.7-4.1
		c0.9,0.5-3,10.1-7,13L375.8,177.8z"/>
	<path fill-rule="evenodd" clip-rule="evenodd" fill="#F4B593" d="M385.3,175.2c0,0,3.5-1.6,4.8-4.5c1.3-2.9,2.2-3.8,3-3.6
		c0.8,0.2,1.4,2.1-0.2,5.8c-1.5,3.6-5.7,7.4-8.3,8.7L385.3,175.2z"/>
	<path fill-rule="evenodd" clip-rule="evenodd" fill="#F4B593" d="M389.2,174.9c0,0,6.3-4.2,8.3-7.1c2.1-3.1,3.7-2,2.8,0.8
		c-1,3.1-5.8,9.3-9.5,10.9L389.2,174.9z"/>
	<path fill-rule="evenodd" clip-rule="evenodd" fill="#DE8450" d="M376,178.1c-0.2,0.1-0.4,0-0.5-0.2c-0.1-0.2,0-0.4,0.2-0.5
		c0,0,4.6-1.9,6.7-4.8c1.1-1.5,2.1-2.7,2.9-3.4c0.9-0.8,1.7-1.1,2.3-0.8c0.1,0,0.1,0.1,0.2,0.2c0,0,0,0,0,0.1c0.2,0.4,0,1.4-0.4,2.7
		c-0.4,1.3-1.1,2.9-2,4.5c-1.3,2.5-3,4.9-4.8,6.2c-0.2,0.1-0.4,0.1-0.5-0.1c-0.1-0.2-0.1-0.4,0.1-0.5c1.6-1.2,3.3-3.6,4.6-5.9
		c0.8-1.6,1.5-3.1,1.9-4.4c0.4-1.1,0.6-1.8,0.5-2c-0.3-0.1-0.7,0.2-1.4,0.7c-0.8,0.7-1.7,1.8-2.8,3.3
		C380.7,176.1,376,178.1,376,178.1z"/>
	<path fill-rule="evenodd" clip-rule="evenodd" fill="#DE8450" d="M385.5,175.5c-0.2,0.1-0.4,0-0.5-0.2c-0.1-0.2,0-0.4,0.2-0.5
		c0,0,3.4-1.5,4.7-4.3c0.7-1.5,1.2-2.5,1.7-3.1c0.6-0.7,1.1-0.9,1.7-0.8c0.1,0,0.1,0,0.2,0.1c0.4,0.2,0.7,0.6,0.9,1.3
		c0.1,0.6,0.1,1.5-0.1,2.5c-0.2,0.7-0.4,1.5-0.8,2.4c-0.7,1.7-2,3.4-3.4,4.9c-1.7,1.8-3.6,3.2-5,3.9c-0.2,0.1-0.4,0-0.5-0.2
		c-0.1-0.2,0-0.4,0.2-0.5c1.4-0.7,3.2-2.1,4.8-3.8c1.4-1.4,2.6-3.1,3.3-4.7c0.4-0.8,0.6-1.6,0.7-2.2c0.2-1,0.2-1.7,0.1-2.2
		c-0.1-0.4-0.2-0.7-0.4-0.8l0,0c-0.3-0.1-0.5,0.1-0.9,0.5c-0.5,0.5-1,1.5-1.6,2.9C389.1,173.9,385.5,175.5,385.5,175.5z"/>
	<path fill-rule="evenodd" clip-rule="evenodd" fill="#DE8450" d="M393.5,172.4c-0.2,0.1-0.4,0-0.5-0.1c-0.1-0.2,0-0.4,0.1-0.5
		c0,0,2.2-1.3,4.1-4.1c0.8-1.2,1.5-1.8,2.1-2c0.3-0.1,0.6-0.1,0.9,0c0.3,0.1,0.5,0.3,0.6,0.7c0.2,0.5,0.2,1.4-0.1,2.4
		c-0.6,1.7-2.2,4.3-4.2,6.6c-1.7,2-3.7,3.7-5.5,4.5c-0.2,0.1-0.4,0-0.5-0.2c-0.1-0.2,0-0.4,0.2-0.5c1.7-0.7,3.6-2.4,5.2-4.3
		c1.9-2.2,3.5-4.7,4.1-6.4c0.3-0.8,0.3-1.5,0.2-1.9c0-0.1-0.1-0.2-0.2-0.2c-0.1,0-0.2,0-0.3,0c-0.5,0.1-1.1,0.7-1.7,1.7
		C395.8,171,393.5,172.4,393.5,172.4z"/>
	<path fill-rule="evenodd" clip-rule="evenodd" fill="#F4B593" d="M163.7,175.9c-1.2-4-6-9.3-8.8-8.8c-2.8,0.4-8,1.3-11.7,0.8
		c-3.7-0.5-11.7-6.9-11.6-8c0.1-1,31.9-1,37.4,0c5.5,1,9.2,6.5,9.2,6.5L163.7,175.9z"/>
	<path fill-rule="evenodd" clip-rule="evenodd" fill="#F3EDDD" d="M159.8,169.8c0,0,2.7,4.9,3.3,6.8c1.8,6.1,5.7,19.3,12.1,32.6
		c2.1,4.4,3.5,8.4,5,11.3c1.8,3.5,5.8,16.4,18,16.3c8.8,0,16.4-5.9,17.7-14.6c0.6-4.2,0.3-8.6-1.9-11.8c-0.6-1.1-3.1-4.5-6.7-8.9
		c-9.6-12-27.3-34.6-31.5-37.8C170.6,165.1,159.8,169.8,159.8,169.8z"/>
	<path fill-rule="evenodd" clip-rule="evenodd" fill="#697188" d="M110.7,160.7h86.1c0.9,0,1.6-0.7,1.6-1.6c0-0.9-0.7-1.6-1.6-1.6
		h-86.1c-0.9,0-1.6,0.7-1.6,1.6C109.1,160,109.8,160.7,110.7,160.7z"/>
	<path fill-rule="evenodd" clip-rule="evenodd" fill="#BFCBDE" d="M193.7,155.5v2h-80.2v-2c0-21.6,17.1-39.1,38.4-40
		c0.6,0,1.1,0,1.7,0C175.7,115.4,193.7,133.4,193.7,155.5z"/>
	<path fill-rule="evenodd" clip-rule="evenodd" fill="#99A7C1" d="M190.4,155.5v2h-76.8v-2c0-21.6,17.1-39.1,38.4-40
		C173.3,116.3,190.4,133.9,190.4,155.5z"/>
	<path fill-rule="evenodd" clip-rule="evenodd" fill="#99A7C1" d="M153.7,121c-1.2,0-2.3-1-2.3-2.3v-6.6c0-1.2,1-2.3,2.3-2.3
		c1.2,0,2.3,1,2.3,2.3v6.6C156,120,155,121,153.7,121z"/>
	<path fill-rule="evenodd" clip-rule="evenodd" fill="#7D8AA3" d="M117.5,157.5c0,0,3.1-33.2,34-42.1c0,0-17.8,16.4-17.8,42.1H117.5
		z"/>
	<path fill-rule="evenodd" clip-rule="evenodd" fill="#090914" d="M268.5,136.5c0,0-21.2,36.2-33.2,34.5c-12-1.7,5.4-35,5.4-35h-7.1
		c0,0-15,20.8-19.5,25.3c-4.5,4.5-5.6,8.8-5.1,12.9c0.5,4.1,5.8,19.9,6.4,30.6c0.6,10.6-7.8,48.6-7.8,48.6h85.2
		c0,0-7.8-26.1-7.2-50.2c0,0-16.7-4.5-19.5-21c-2.8-16.6,3.7-38.6,8.8-44.9L268.5,136.5z"/>
	<polygon fill-rule="evenodd" clip-rule="evenodd" fill="#090914" points="195,185.4 205.4,198.5 204.8,198.9 194.4,185.8 	"/>
	<path fill-rule="evenodd" clip-rule="evenodd" fill="#F3EDDD" d="M302.1,227.2C302.2,227.2,302.2,227.2,302.1,227.2
		c4.1,5.3,10.9,8.3,17.9,7.1c0.2,0,0.4,0,0.6-0.1l0.1,0c2.1-0.4,4-1.2,5.7-2.2c1-0.8,2.7-2.2,4.9-4c9.2-7.9,26.7-24,37.5-33
		l-14.2-16.5l0,0c-1,0.7-2.1,1.3-3.2,1.9c-4.1,2-25.4,11.3-39.8,17.5c-1.3,0.6-2.6,1.1-3.8,1.6c-6.6,3.8-10.5,11.3-9.2,19.3
		C299.1,221.9,300.3,224.8,302.1,227.2z"/>
	<path fill-rule="evenodd" clip-rule="evenodd" fill="#090914" d="M249,142.7h0.3c1,0,1.8-0.8,1.8-1.8v-2.3c0-1-0.8-1.8-1.8-1.8H249
		c-1,0-1.8,0.8-1.8,1.8v2.3C247.2,141.9,248,142.7,249,142.7z"/>
	<path fill-rule="evenodd" clip-rule="evenodd" fill="#090914" d="M242.9,144.4l5-2.8V138l-5-2.8c-1.1-0.6-2.5,0.2-2.5,1.5v6.4
		C240.4,144.3,241.8,145.1,242.9,144.4z"/>
	<path fill-rule="evenodd" clip-rule="evenodd" fill="#090914" d="M255.3,144.4l-5-2.8V138l5-2.8c1.1-0.6,2.5,0.2,2.5,1.5v6.4
		C257.8,144.3,256.4,145.1,255.3,144.4z"/>
	<polygon fill-rule="evenodd" clip-rule="evenodd" fill="#C6725D" points="287.5,230.1 212.1,230.1 210.1,241.5 289.8,241.5 	"/>
	<path fill-rule="evenodd" clip-rule="evenodd" fill="#703541" d="M210.1,241.5c0,0-5.5,12.9-10.2,41.6
		c-4.7,28.7-11.9,109.4-11.9,109.4s17.1,6.1,44.1,6.1c32.2,0,60.1-6.1,60.1-6.1s-0.8-109.7-11.8-150.7L210.1,241.5z"/>
	<path fill-rule="evenodd" clip-rule="evenodd" fill="#C6725D" d="M225,288.1h28.7c7.4,0,13.3-6,13.3-13.3v-25.2h-55.4v25.2
		C211.7,282.1,217.7,288.1,225,288.1z"/>
	<path fill-rule="evenodd" clip-rule="evenodd" fill="#FFFFFF" d="M235.6,171.3c0,0-4.1,7.8-3.3,13.2c0.2,1.5,0.9,3.8,1.7,6.6
		c2.1,7.4,5.3,18.3,4.4,28.7l-0.8-0.1c0.9-10.3-2.3-21.2-4.4-28.5c-0.8-2.8-1.5-5.1-1.7-6.7c-0.8-5.6,3.4-13.7,3.4-13.7L235.6,171.3
		z"/>
	
		<rect x="313.1" y="194.1" transform="matrix(0.9028 -0.4301 0.4301 0.9028 -52.6399 156.0394)" fill-rule="evenodd" clip-rule="evenodd" fill="#090914" width="11.5" height="0.8"/>
	<polygon fill-rule="evenodd" clip-rule="evenodd" fill="#703541" points="74.1,547.1 79,547.1 91.1,435.9 84.2,435.9 	"/>
	<polygon fill-rule="evenodd" clip-rule="evenodd" fill="#703541" points="149,547.1 144.1,547.1 131.9,435.9 138.9,435.9 	"/>
	<polygon fill-rule="evenodd" clip-rule="evenodd" fill="#F89E57" points="7.6,297.2 70.2,297.2 111.7,419.8 33.1,427.9 	"/>
	<path fill-rule="evenodd" clip-rule="evenodd" fill="#F89E57" d="M139.5,433.9H63.7c-1.5,0-2.8-1.2-2.8-2.8v-6.5
		c0-1.5,1.2-2.8,2.8-2.8h75.8c1.5,0,2.8,1.2,2.8,2.8v6.5C142.2,432.7,141,433.9,139.5,433.9z"/>
	<rect x="67.4" y="433.9" fill-rule="evenodd" clip-rule="evenodd" fill="#703541" width="71.4" height="4.2"/>
	<path fill-rule="evenodd" clip-rule="evenodd" fill="#FEC782" d="M103.8,433.9H28c-1.5,0-2.8-1.2-2.8-2.8v-6.5
		c0-1.5,1.2-2.8,2.8-2.8h75.8c1.5,0,2.8,1.2,2.8,2.8v6.5C106.5,432.7,105.3,433.9,103.8,433.9z"/>
	<path fill-rule="evenodd" clip-rule="evenodd" fill="#FEC782" d="M11.9,300l25,128.5c0.4,2-0.9,3.9-2.9,4.3l-4.7,0.9
		c-2,0.4-3.9-0.9-4.3-2.9l-25-128.5c-0.4-2,0.9-3.9,2.9-4.3l4.7-0.9C9.6,296.8,11.5,298.1,11.9,300z"/>
	<rect x="30.1" y="433.9" fill-rule="evenodd" clip-rule="evenodd" fill="#C6725D" width="71.4" height="4.2"/>
	<polygon fill-rule="evenodd" clip-rule="evenodd" fill="#C6725D" points="20,547.1 25,547.1 37.1,435.9 30.1,435.9 	"/>
	<polygon fill-rule="evenodd" clip-rule="evenodd" fill="#C6725D" points="111.7,547.1 106.8,547.1 94.6,435.9 101.6,435.9 	"/>
	<polygon fill-rule="evenodd" clip-rule="evenodd" fill="#703541" points="429.9,547.1 425,547.1 412.9,435.9 419.8,435.9 	"/>
	<polygon fill-rule="evenodd" clip-rule="evenodd" fill="#703541" points="337,547.1 341.9,547.1 354,435.9 347.1,435.9 	"/>
	<path fill-rule="evenodd" clip-rule="evenodd" fill="#F4B593" d="M372.6,522c1.3,4.7,3.1,8.5,3.1,12.9c0,6.4,0,12.2,0,12.2h-59
		c0,0-1.9-6.4,2.4-9c2.6-1.6,8.5-2.5,13.5-4.9c0.6-0.3,1.2-0.6,1.8-1c0.8-0.5,1.6-1,2.3-1.6c0.6-0.5,1.1-1,1.6-1.5
		c0.8-0.9,1.5-2,1.9-3.2c0.2-0.5,0.4-1.3,0.5-2.5c1.7-16.6-6.8-95.9-8.2-112.9c-0.2-1-0.3-2.1-0.3-3.2c0-11.6,9.4-21.1,21.1-21.1
		c11.7,0,19.9,9.6,23.3,20.8C385.3,434.6,365.2,496,372.6,522z"/>
	<path fill-rule="evenodd" clip-rule="evenodd" fill="#F4B593" d="M84.3,418.7c-19-3-31.9-20.8-28.9-39.8c3-19,20.8-31.9,39.8-28.9
		c1.8,0.3,3.6,0.7,5.3,1.3v0l104.6,32.9c10,1.6,16.8,10.9,15.2,20.9c-1.6,10-10.9,16.7-20.9,15.2l-109.7-1.1l0,0
		C88,419.1,86.2,418.9,84.3,418.7z"/>
	<path fill-rule="evenodd" clip-rule="evenodd" fill="#F4B593" d="M184.3,406.1c-2.3-9.8,3.9-19.6,13.7-21.9
		c9.8-2.3,19.6,3.9,21.9,13.7c0.3,1.2,0.4,2.4,0.5,3.6L237.4,532l-16.9,3l-8-9.3c0,0-10-27.3-22.2-64.2
		C181.1,433.8,181.5,422.3,184.3,406.1z"/>
	<path fill-rule="evenodd" clip-rule="evenodd" fill="#FEC782" d="M267.5,541.3v4.9c0,0.5-0.4,0.9-0.9,0.9H211c-0.6,0-1-0.5-0.9-1
		l2.3-20.4h3.4c3,0,6.7,0.1,8.1,2.7c1.4,2.6,4.4,4.6,6.3,1.3c1.2-2.1,2.2-5.5,6.1-6.7c4.7,5.2,11,6.9,14.6,8.4
		C256.5,533.6,268.1,536.2,267.5,541.3z"/>
	<path fill-rule="evenodd" clip-rule="evenodd" fill="#DD9771" d="M199.8,398.2l0-1l0,0.1c-0.1-1.8-0.4-3.5-1.2-4.9
		c-3-5.7-16.7-11.5-26.6-15.1c-9.9-3.6-26.3-8.9-26.3-8.9l-0.3,5.1c0,0,42.2,12.3,48.3,18.4c2.8,2.8,0.9,6.6,1.5,9.4l-10,43
		c0.7,10.6,13.4,42.1,13.4,42.1l1.2-87.2C199.8,399,199.8,398.6,199.8,398.2z"/>
	<rect x="218.9" y="540.5" fill-rule="evenodd" clip-rule="evenodd" fill="#FFFFFF" width="48.6" height="1.6"/>
	<path fill-rule="evenodd" clip-rule="evenodd" fill="#F4B593" d="M186.9,281.4l9-0.5c0.9,0,1.7,0.5,1.8,1.2
		c0.1,0.7-0.5,1.5-1.5,1.6l-8.8,1.8c-1.6,0.3-3-0.5-3.2-1.7C184.1,282.6,185.3,281.5,186.9,281.4z"/>
	<path fill-rule="evenodd" clip-rule="evenodd" fill="#F4B593" d="M62.5,420.8c-19-2.9-32-20.7-29.1-39.7c2.9-19,20.7-32,39.7-29.1
		c1.8,0.3,3.6,0.7,5.3,1.3v0l104.8,32.4c10,1.5,16.8,10.8,15.3,20.8c-1.5,10-10.9,16.8-20.8,15.3l-109.7-0.5l0,0
		C66.1,421.2,64.3,421.1,62.5,420.8z"/>
	<path fill-rule="evenodd" clip-rule="evenodd" fill="#F4B593" d="M162.6,400c2.4-9.8,12.4-15.7,22.1-13.3
		c9.8,2.4,15.7,12.3,13.3,22.1c-0.3,1.2-0.7,2.3-1.2,3.4L158,520.6l-5.2,15.6l-16.5-5l-2.2-13.8c0,0,2.8-27,8.7-65.4
		C147.2,423.2,152.8,413.1,162.6,400z"/>
	<path fill-rule="evenodd" clip-rule="evenodd" fill="#FEC782" d="M181.2,541.3v4.9c0,0.5-0.4,0.9-0.9,0.9h-29.8
		c-0.1,0-0.2,0-0.4-0.1l-23.6-9.7c-0.5-0.2-0.7-0.8-0.5-1.2l8.2-19.5l3.3,0.8c3.6,1,5.1,2.8,6.3,5.5c2.2,5,6.9-1,13.7,0
		c3.8,8.3,9,10.1,13.4,10.6C176.8,534.4,181.8,536.2,181.2,541.3z"/>
	<polygon fill-rule="evenodd" clip-rule="evenodd" fill="#FFFFFF" points="181.2,542.1 151.4,542.1 134.8,536.2 135.3,534.7 
		151.7,540.5 181.2,540.5 	"/>
	<path fill-rule="evenodd" clip-rule="evenodd" fill="#F4B593" d="M109.4,330.6l-5.5-13.3l-0.8-2.1l-0.8-2.1l-17.2-42.1
		c-3.5-8.6,0.7-18.6,9.3-22.1c4.9-2,10.3-1.5,14.6,0.9c3.3,1.8,6,4.7,7.5,8.4l16.2,39.6l1.9,4.6l1.9,4.6l4.4,10.8
		c3.5,8.6-0.6,18.6-9.3,22.1C122.9,343.4,112.9,339.2,109.4,330.6z"/>
	<path fill-rule="evenodd" clip-rule="evenodd" fill="#F4B593" d="M184.3,270.4c1.3-1.4-5.6-0.8-6.3-1.7c-1.4-1.7-7.2,0.4-8.8,4.3
		c-1,2.5-2.6,5.4-6,8c-2.8,2.2-9.9,7.4-23.8,15.9c-14.6,9-22.3,13.6-22.6,13.8c0,0,0,0,0,0c-7.3,4.5-9.9,14-5.7,21.6
		c4.3,8,14.2,10.9,22.2,6.6c2-1.1,3.6-2.4,4.9-4.1c0,0,0,0,0,0c5.1-5.5,30.7-35.2,34.3-38.5c4.9-4.5,9.5-7.9,12.7-9.9
		c2.4-1.5,1.7-7,1.7-7s2.6-6.1-1.2-4.4L184.3,270.4z"/>
	<path fill-rule="evenodd" clip-rule="evenodd" fill="#C6725D" d="M78.1,223.9c0,6.6-5.4,12-12,12c-6.6,0-12-5.4-12-12
		c0-6.6,5.4-12,12-12C72.7,211.9,78.1,217.3,78.1,223.9z"/>
	<path fill-rule="evenodd" clip-rule="evenodd" fill="#C6725D" d="M62.5,248.7c0,7.2-5.9,13.1-13.1,13.1c-7.2,0-13.1-5.9-13.1-13.1
		c0-7.2,5.9-13.1,13.1-13.1C56.7,235.6,62.5,241.5,62.5,248.7z"/>
	
		<ellipse transform="matrix(1 -1.104229e-03 1.104229e-03 1 -0.266 6.768472e-02)" fill-rule="evenodd" clip-rule="evenodd" fill="#C6725D" cx="61.2" cy="240.9" rx="13.1" ry="13.1"/>
	<path fill-rule="evenodd" clip-rule="evenodd" fill="#C6725D" d="M100.3,241.5c0,7.2-5.9,13.1-13.1,13.1c-7.2,0-13.1-5.9-13.1-13.1
		c0-7.2,5.9-13.1,13.1-13.1C94.5,228.4,100.3,234.3,100.3,241.5z"/>
	<path fill-rule="evenodd" clip-rule="evenodd" fill="#C6725D" d="M98.2,226.3c0,7.2-5.9,13.1-13.1,13.1c-7.2,0-13.1-5.9-13.1-13.1
		s5.9-13.1,13.1-13.1C92.4,213.2,98.2,219.1,98.2,226.3z"/>
	<path fill-rule="evenodd" clip-rule="evenodd" fill="#C6725D" d="M91.1,209.4c0,0,1.4-10-3.9-9.6C82.8,200,91.1,209.4,91.1,209.4z"
		/>
	<path fill-rule="evenodd" clip-rule="evenodd" fill="#F05656" d="M69.1,247.7l-17.7,1.9l-2.5,49c0,0,3.7,28.3-5.5,56.7
		c0,0,20.6,6.5,40.3,6.6c18.9,0.1,32.1-6,32.1-6s-2.4-32.2-1.1-44.5c1.1-10.3,6.1-21.1,6-29.9c-0.1-9.1-12.9-15.9-19.2-33.9H87.9
		H69.1z"/>
	<path fill-rule="evenodd" clip-rule="evenodd" fill="#F4B593" d="M69.1,247.7l0.2-20.8l18,2.7l2.5,18.1
		C89.7,247.7,81.1,255.4,69.1,247.7z"/>
	<path opacity="0.4" fill-rule="evenodd" clip-rule="evenodd" fill="#58A0C3" d="M174.2,223.8v20.7c0,4.7,2.4,8.8,6,11.2
		c2.1,1.4,3.9,3.4,4.9,5.7c0.5,1.2,0.9,2.5,0.9,3.5v2.4c-1.7,0.6-2.8,2.2-2.8,4.1c0,1.9,1.2,3.5,2.8,4.1v6.4c0,2.3-1.5,4.4-3.6,5.2
		l-2.8,1c-0.5,0.2-0.9,0.7-0.9,1.3h9h9c0-0.6-0.4-1.1-0.9-1.3l-2.8-1c-2.2-0.8-3.6-2.9-3.6-5.2v-6.4c1.7-0.6,2.8-2.2,2.8-4.1
		c0-1.9-1.2-3.5-2.8-4.1V265c0-1,0.4-2.3,0.9-3.5c1-2.4,2.8-4.3,4.9-5.7c3.6-2.4,6-6.5,6-11.2v-20.7H174.2z"/>
	<path fill-rule="evenodd" clip-rule="evenodd" fill="#DD3D3F" d="M199.9,246.4c0.2-1.5-2.7-2.6-5.8-1.9c-3.1,0.7-9.9,0.6-11.6-0.2
		c-1.7-0.8-1.5,7.7-1.5,7.7h13.1L199.9,246.4z"/>
	<path fill-rule="evenodd" clip-rule="evenodd" fill="#FFFFFF" d="M192,271.5c0,2.4-2,4.4-4.4,4.4c-1.2,0-2.3-0.5-3.1-1.3
		c0.6,0.3,1.4,0.5,2.1,0.5c2.4,0,4.4-2,4.4-4.4c0-1.2-0.5-2.3-1.3-3.1C191.1,268.4,192,269.9,192,271.5z"/>
	<path fill-rule="evenodd" clip-rule="evenodd" fill="#F05656" d="M186.9,244.9c-3.9-3-8.9-2.5-11.7-1.8v1.4
		c0,6.9,5.6,12.4,12.5,12.4c6.2,0,11.4-4.6,12.3-10.6C196,247.6,191.8,248.8,186.9,244.9z"/>
	<path fill-rule="evenodd" clip-rule="evenodd" fill="#FFFFFF" d="M199,245.1h0.7c0.1,0,0.2-0.1,0.2-0.2v-16.6
		c0-0.1-0.1-0.2-0.2-0.2H199c-0.1,0-0.2,0.1-0.2,0.2v16.6C198.8,245,198.9,245.1,199,245.1z"/>
	<path fill-rule="evenodd" clip-rule="evenodd" fill="#DE8450" d="M88.8,240.9c0,0-8.4,0.8-12.9-4.7c-4.5-5.5,11.9-2.5,11.9-2.5
		L88.8,240.9z"/>
	<path fill-rule="evenodd" clip-rule="evenodd" fill="#F4B593" d="M94.9,224.6c-0.2,7.3-6.2,13.1-13.5,12.9
		c-7.3-0.2-13.1-6.2-12.9-13.5l0.3-15.1c0.1-6.2,5.2-11.1,11.4-11c6.2,0.1,11.1,5.2,10.9,11.4c0.1,3.8,1.8,8,2.4,9.2
		c0.1,0.1,0.1,0.3,0.1,0.3c0,0,0,0,0,0C94.5,220.6,94.9,222.5,94.9,224.6z"/>
	<path fill-rule="evenodd" clip-rule="evenodd" fill="#DE8450" d="M82.5,216.4c0-0.2,0.1-0.4,0.3-0.4c0.2,0,0.4,0.1,0.4,0.3
		c0,0,0.4,5.4,2.7,6.5c0.2,0.1,0.3,0.3,0.2,0.5l0,0c0,0-0.8,1.4-2.8,1.4c-0.2,0-0.4-0.2-0.3-0.4c0-0.2,0.2-0.4,0.4-0.3
		c1.1,0,1.7-0.4,2-0.8C82.9,221.7,82.5,216.5,82.5,216.4z"/>
	<path fill-rule="evenodd" clip-rule="evenodd" fill="#C6725D" d="M88.8,202.3c0,0-3.2,5-9.9,7.3c-6.7,2.3-7.8,3-7.8,3
		s1,11.1-3,12.8c0,0-2.9-6.7-3.5-16.5c-0.7-9.9,9.2-13.5,15.1-12.5C85.6,197.4,88.7,199.3,88.8,202.3z"/>
	<path fill-rule="evenodd" clip-rule="evenodd" fill="#090914" d="M79,217.6c0,0.8-0.4,1.5-0.9,1.5c-0.5,0-0.9-0.7-0.8-1.5
		c0-0.8,0.4-1.5,0.9-1.5C78.7,216,79,216.7,79,217.6z"/>
	<path fill-rule="evenodd" clip-rule="evenodd" fill="#F4B593" d="M165.5,278.9l7.5-9.2c0.3-0.3,0.6-0.6,0.9-0.9l7.6-5.3
		c0.9-0.7,2.1-0.9,3.3-0.7l6.9,1.1c0.7,0.1,1.2,0.8,1.1,1.5l-0.1,0.8c-0.1,0.5-0.5,1-1.1,1.1l-4.9,0.8c-1.1,0.2-2,0.7-2.7,1.6
		l-2.4,2.9c-0.6,0.7-1,1.7-1,2.6l-0.1,2.2c-0.1,1.3-0.7,2.5-1.7,3.3l-7.7,6.3L165.5,278.9z"/>
	<path fill-rule="evenodd" clip-rule="evenodd" fill="#090914" d="M88.5,217.3c0,0.8-0.4,1.5-0.9,1.5c-0.5,0-0.9-0.7-0.8-1.5
		c0-0.8,0.4-1.5,0.9-1.5C88.2,215.8,88.5,216.5,88.5,217.3z"/>
	<path fill-rule="evenodd" clip-rule="evenodd" fill="#703541" d="M75.3,215.1c0,0,1.2-2,4.4-1.4l-0.1,0.7c-2.8-0.5-3.7,1.1-3.7,1.1
		L75.3,215.1z"/>
	<path fill-rule="evenodd" clip-rule="evenodd" fill="#703541" d="M86.3,213.1c0,0,2.5-0.8,4.1,1.1l-0.5,0.5
		c-1.3-1.5-3.4-0.9-3.4-0.9L86.3,213.1z"/>
	<path fill-rule="evenodd" clip-rule="evenodd" fill="#F4B593" d="M71.1,228.9c-1.4,1.5-4.2,1.2-6.1-0.6c-1.9-1.8-2.3-4.5-0.8-6
		c1.4-1.5,4.2-1.2,6.1,0.6C72.2,224.7,72.6,227.4,71.1,228.9z"/>
	<path fill-rule="evenodd" clip-rule="evenodd" fill="#F7F1F0" d="M70.9,231.6c0,1.1-0.5,2.2-1.3,2.9c-0.8,0.7-1.8,1.2-3,1.2
		c-1.1,0-2.2-0.5-2.9-1.3c-0.7-0.8-1.2-1.8-1.2-3v0c0-1.1,0.5-2.2,1.3-2.9c0.8-0.7,1.8-1.2,3-1.2h0c1.1,0,2.2,0.5,2.9,1.3
		C70.5,229.4,70.9,230.5,70.9,231.6L70.9,231.6z M69.1,234c0.6-0.6,1-1.5,1.1-2.4c0-1-0.3-1.8-1-2.5c-0.6-0.6-1.5-1-2.4-1.1l0,0
		c-1,0-1.8,0.3-2.5,1c-0.6,0.6-1,1.5-1.1,2.4l0,0c0,1,0.3,1.8,1,2.5c0.6,0.6,1.5,1,2.4,1.1C67.6,235,68.5,234.6,69.1,234z"/>
	
		<rect x="67.8" y="222.9" transform="matrix(0.5799 -0.8147 0.8147 0.5799 -154.9769 150.1725)" fill-rule="evenodd" clip-rule="evenodd" fill="#DE8450" width="0.7" height="5"/>
	<path fill-rule="evenodd" clip-rule="evenodd" fill="#DC4C43" d="M78.9,227.9c0,0,1.1,1,2.1-0.2c0.7-0.8,1.3-1,1.7-0.5
		c0.3,0.3,0.6,0.2,0.9-0.1c0.3-0.3,1-0.4,1.3,0.4c0.6,1.4,1.6,1,2.3,0.6c0,0-2.3,2.8-4.4,2.7C80.9,230.7,78.9,227.9,78.9,227.9z"/>
	<path fill-rule="evenodd" clip-rule="evenodd" fill="#F4B593" d="M5.7,314l7.2-12.5l1.1-1.9l1.1-1.9l22.6-39.5
		c4.6-8.1,15.1-10.9,23.1-6.3c4.6,2.6,7.5,7.2,8.3,12.1c0.6,3.7,0,7.6-2,11l-21.3,37.1l-2.5,4.3l-2.5,4.3l-5.8,10.1
		c-4.6,8.1-15.1,10.9-23.1,6.3C3.8,332.5,1,322,5.7,314z"/>
	<path fill-rule="evenodd" clip-rule="evenodd" fill="#F4B593" d="M193.1,273.4l-9,0.4c-0.9,0-1.8-0.6-1.9-1.6
		c-0.1-0.9,0.5-1.8,1.4-2l8.8-2.1c1.5-0.4,3.1,0.7,3.3,2.3C195.8,271.9,194.6,273.3,193.1,273.4z"/>
	<path fill-rule="evenodd" clip-rule="evenodd" fill="#F4B593" d="M192.6,278.6l-9-1.2c-0.9-0.1-1.6-0.9-1.6-1.9
		c0-0.9,0.8-1.7,1.7-1.8l9-0.5c1.6-0.1,2.9,1.2,2.9,2.8C195.6,277.6,194.2,278.8,192.6,278.6z"/>
	<path fill-rule="evenodd" clip-rule="evenodd" fill="#F4B593" d="M191.6,283.8l-8.5-3c-0.9-0.3-1.4-1.2-1.2-2.2
		c0.2-0.9,1.1-1.5,2-1.4l8.9,1.3c1.6,0.2,2.6,1.8,2.2,3.3C194.8,283.4,193.1,284.3,191.6,283.8z"/>
	<path fill-rule="evenodd" clip-rule="evenodd" fill="#DE8450" d="M183.5,269.9c0.1,0,0.3,0,0.3,0.1c0,0.1,0,0.3-0.1,0.3
		c0,0-1.4,0.4-1.2,1.8c0.1,1.3,1.4,1.4,1.4,1.4c0.1,0,0.2,0.1,0.2,0.3c0,0.1-0.1,0.2-0.2,0.2c-0.1,0-1.4,0.4-1.5,1.5
		c-0.1,1.2,1.7,1.5,1.7,1.5c0.1,0,0.2,0.1,0.2,0.3c0,0.1-0.1,0.2-0.2,0.2c0,0-1.6,0-1.9,1.1c-0.1,0.4-0.1,0.7,0.1,1
		c0.2,0.3,0.5,0.6,1,0.8c0.7,0.3,2.9,1.2,2.9,1.2c0.1,0,0.2,0.2,0.1,0.3c0,0.1-0.2,0.2-0.3,0.1c0,0-2.3-0.9-2.9-1.2
		c-0.5-0.3-0.9-0.6-1.2-1c-0.2-0.4-0.3-0.9-0.2-1.4c0.2-0.7,0.8-1.1,1.4-1.3c-0.6-0.3-1.2-0.8-1.2-1.7c0.1-0.9,0.7-1.4,1.2-1.7
		c-0.5-0.2-1-0.7-1.1-1.6C181.7,270.5,183.5,269.9,183.5,269.9z"/>
	<path fill-rule="evenodd" clip-rule="evenodd" fill="#DE8450" d="M183.8,274c-0.1,0-0.2-0.1-0.3-0.2c0-0.1,0.1-0.2,0.2-0.3l9.7-0.5
		c0.1,0,0.2,0.1,0.3,0.2c0,0.1-0.1,0.2-0.2,0.3L183.8,274z"/>
	<path fill-rule="evenodd" clip-rule="evenodd" fill="#DE8450" d="M183.9,277.5c-0.1,0-0.2-0.1-0.2-0.3c0-0.1,0.1-0.2,0.3-0.2
		l8.9,1.3c0.1,0,0.2,0.1,0.2,0.3c0,0.1-0.1,0.2-0.3,0.2L183.9,277.5z"/>
	<polygon fill-rule="evenodd" clip-rule="evenodd" fill="#F4B593" points="69.1,247.7 89.7,271.8 89.7,247.7 	"/>
	<path fill-rule="evenodd" clip-rule="evenodd" fill="#F05656" d="M47.1,344.1C37.2,362,25.2,381.5,33,401.7
		c7.7,20.2,27.5,33.8,25.4,57.6c0,0,18.6,8.5,39.2,3.6c20.6-4.9,24.7-13,34.4-36.1c9.7-23.1,6.6-34,8.1-41.9
		c1.6-7.9,7.4-5.8,10.4-9.3c3-3.5,0.7-6.1,3.7-7.5l-29.5-9.5c-3.7-1.2-6.6-4.1-7.8-7.7l-1.7-5L47.1,344.1z"/>
	<path fill-rule="evenodd" clip-rule="evenodd" fill="#F05656" d="M51.4,249.6c-11.6,0.7-12.2,3.5-22.7,18.4c0,0,6.1-1,6.8,3.8
		c0.7,4.8-2.3,7.7,1.9,10c4.2,2.3,8.7,1,9.3,5.2c0.6,4.2-0.8,8.3,3.2,8.7c4,0.3,5.1,5.9,5.1,5.9s17.7-24.4,17.3-32.8
		C71.9,260.5,66.7,248.7,51.4,249.6z"/>
	<polygon fill-rule="evenodd" clip-rule="evenodd" fill="#090914" points="54.6,301.4 65.8,285.2 66.4,285.6 55.3,301.8 	"/>
	<path fill-rule="evenodd" clip-rule="evenodd" fill="#F05656" d="M101.5,247.7c6-0.9,13.5,3,15.7,10.4c0,0-1.7,2.8-1.6,5.7
		c0,2.9,2.5,4.2,1.6,8c-0.9,3.8-4.3,8.1-4.3,8.1L101.5,247.7z"/>
	<path fill-rule="evenodd" clip-rule="evenodd" fill="#090914" d="M116.7,272.9c-1.5-1.3-3.1-3.2-4.4-5.1c-1.7-2.5-3-5.1-3.3-6.2
		l0.7-0.2c0.2,1.1,1.5,3.5,3.2,6c1.3,1.9,2.8,3.8,4.3,5L116.7,272.9z"/>
	<path fill-rule="evenodd" clip-rule="evenodd" fill="#090914" d="M54.2,410c4.5,3.2,10.2,11.8,14.4,21.1c3.8,8.5,6.5,17.7,5.9,23.9
		l-0.8-0.1c0.5-6.1-2.1-15.1-5.9-23.5c-4.1-9.2-9.7-17.7-14.1-20.8L54.2,410z"/>
	<polygon fill-rule="evenodd" clip-rule="evenodd" fill="#090914" points="148.4,373.6 120.6,364 120.8,363.3 148.6,372.9 	"/>
	<path fill-rule="evenodd" clip-rule="evenodd" fill="#DDD3B9" d="M375.8,534.9c0,6.4,0,12.2,0,12.2h-59c0,0-1.9-6.4,2.4-9
		c2.6-1.6,8.5-2.5,13.5-4.9c0.6-0.3,1.2-0.6,1.8-1c0.8-0.5,1.6-1,2.3-1.6c0.6-0.5,1.1-1,1.6-1.5c0.8-0.9,1.5-2,1.9-3.2
		c0.2-0.5,0.4-1.3,0.5-2.5c2.9,0.1,8.6,0.7,9.5,3.9c1.2,4.3,9.5,5.2,12.7,2.5c2.7-2.3,4.5-7.6,9.8-7.8
		C373.8,526.8,375.8,530.5,375.8,534.9z"/>
	<rect x="356.6" y="433.9" fill-rule="evenodd" clip-rule="evenodd" fill="#703541" width="71.4" height="4.2"/>
	<path fill-rule="evenodd" clip-rule="evenodd" fill="#F89E57" d="M364.5,433.9h75.8c1.5,0,2.8-1.2,2.8-2.8v-6.5
		c0-1.5-1.2-2.8-2.8-2.8h-75.8c-1.5,0-2.8,1.2-2.8,2.8v6.5C361.8,432.7,363,433.9,364.5,433.9z"/>
	<polygon fill-rule="evenodd" clip-rule="evenodd" fill="#F89E57" points="496.4,297.2 433.7,297.2 392.3,419.8 470.9,427.9 	"/>
	<path fill-rule="evenodd" clip-rule="evenodd" fill="#F3EDDD" d="M336.8,536.7l-2.2,0.9c-0.3-1.9-1.2-3.5-2-4.4
		c0.6-0.3,1.2-0.6,1.8-1C336.3,534.1,336.8,536.7,336.8,536.7z"/>
	<path fill-rule="evenodd" clip-rule="evenodd" fill="#F3EDDD" d="M342.3,535l-2.2,0.9c-0.4-2.2-2.2-4.2-3.4-5.3
		c0.6-0.5,1.1-1,1.6-1.5C340.6,531.2,342.3,535,342.3,535z"/>
	<rect x="320.7" y="541.6" fill-rule="evenodd" clip-rule="evenodd" fill="#F3EDDD" width="55.1" height="1.2"/>
	<path fill-rule="evenodd" clip-rule="evenodd" fill="#9274B4" d="M437.9,391.6c2,14-7.7,27.1-21.8,29.1l-96.6,13
		c-13.5,2-26.1-7.4-28-20.9c-2-13.5,7.4-26,20.9-28l96.3-14.9C422.8,367.8,435.8,377.5,437.9,391.6z"/>
	<path fill-rule="evenodd" clip-rule="evenodd" fill="#9274B4" d="M330.8,412.2c0-13.6,11.1-24.7,24.7-24.7
		c13.7,0,24.7,11.1,24.7,24.7c0,0.6,0,1.1-0.1,1.6l-3.3,89.8h-42.7l-3.3-89.8C330.9,413.3,330.8,412.7,330.8,412.2z"/>
	<path fill-rule="evenodd" clip-rule="evenodd" fill="#7654A3" d="M333.1,512.3h44c1.8,0,3.2-1.4,3.2-3.2v-10.8
		c0-1.8-1.4-3.2-3.2-3.2h-44c-1.8,0-3.2,1.4-3.2,3.2v10.8C329.8,510.9,331.3,512.3,333.1,512.3z"/>
	<path fill-rule="evenodd" clip-rule="evenodd" fill="#F4B593" d="M304.1,522c-0.2,4.9,3.1,8.5,3.1,12.9c0,6.4,0,12.2,0,12.2h-59
		c0,0-1.9-6.4,2.4-9c2.6-1.6,8.5-2.5,13.5-4.9c0.6-0.3,1.2-0.6,1.8-1c0.8-0.5,1.6-1,2.3-1.6c0.6-0.5,1.1-1,1.6-1.5
		c0.8-0.9,1.5-2,1.9-3.2c0.2-0.5,0.4-1.3,0.5-2.5c1.7-16.6,20.6-115,20.6-116.1c0-11.6,9.4-21.1,21.1-21.1
		c11.7,0,15.7,8.7,19.2,19.8C341.7,433.7,304.9,497.6,304.1,522z"/>
	<path fill-rule="evenodd" clip-rule="evenodd" fill="#DDD3B9" d="M307.2,534.9c0,6.4,0,12.2,0,12.2h-59c0,0-1.9-6.4,2.4-9
		c2.6-1.6,8.5-2.5,13.5-4.9c0.6-0.3,1.2-0.6,1.8-1c0.8-0.5,1.6-1,2.3-1.6c0.6-0.5,1.1-1,1.6-1.5c0.8-0.9,1.5-2,1.9-3.2
		c0.2-0.5,0.4-1.3,0.5-2.5c2.9,0.1,8.6,0.7,9.5,3.9c1.2,4.3,9.5,5.2,12.7,2.5c2.7-2.3,4.5-7.6,9.8-7.8
		C305.2,526.8,307.2,530.5,307.2,534.9z"/>
	<path fill-rule="evenodd" clip-rule="evenodd" fill="#F3EDDD" d="M268.2,536.7l-2.2,0.9c-0.3-1.9-1.2-3.5-2-4.4
		c0.6-0.3,1.2-0.6,1.8-1C267.7,534.1,268.2,536.7,268.2,536.7z"/>
	<path fill-rule="evenodd" clip-rule="evenodd" fill="#F3EDDD" d="M273.7,535l-2.2,0.9c-0.4-2.2-2.2-4.2-3.4-5.3
		c0.6-0.5,1.1-1,1.6-1.5C272,531.2,273.7,535,273.7,535z"/>
	<path fill-rule="evenodd" clip-rule="evenodd" fill="#FEC782" d="M400.2,433.9H476c1.5,0,2.8-1.2,2.8-2.8v-6.5
		c0-1.5-1.2-2.8-2.8-2.8h-75.8c-1.5,0-2.8,1.2-2.8,2.8v6.5C397.5,432.7,398.7,433.9,400.2,433.9z"/>
	<rect x="252.1" y="541.6" fill-rule="evenodd" clip-rule="evenodd" fill="#F3EDDD" width="55.1" height="1.2"/>
	<path fill-rule="evenodd" clip-rule="evenodd" fill="#FEC782" d="M492.1,300l-25,128.5c-0.4,2,0.9,3.9,2.9,4.3l4.7,0.9
		c2,0.4,3.9-0.9,4.3-2.9l25-128.5c0.4-2-0.9-3.9-2.9-4.3l-4.7-0.9C494.4,296.8,492.5,298.1,492.1,300z"/>
	<path fill-rule="evenodd" clip-rule="evenodd" fill="#9274B4" d="M456,424.5l-96.8,11.2c-6.8,0.9-13.2-1.1-18.2-4.9
		c-5-3.9-8.6-9.7-9.4-16.5c-1.7-13.5,7.9-25.9,21.4-27.6l33.2-4.5l9.4-1.3l34.1-4.7l14.4-2l5.5-0.7c3.8-0.5,7.4-0.1,10.8,1
		c7.3,2.3,13.4,7.7,16.2,15c0.4,0.9,0.7,1.8,1,2.8v0c0.3,1.2,0.6,2.3,0.7,3.5C480.1,409.8,470.1,422.7,456,424.5z"/>
	<path fill-rule="evenodd" clip-rule="evenodd" fill="#9274B4" d="M291.4,403.2c3.3-13.2,16.7-21.3,30-18
		c13.3,3.3,21.3,16.7,18,29.9c-0.1,0.5-0.3,1.1-0.5,1.6l-25,86.4l-41.4-10.3l18.5-88C291.2,404.3,291.3,403.8,291.4,403.2z"/>
	<path fill-rule="evenodd" clip-rule="evenodd" fill="#7654A3" d="M268.3,505.3l42.7,10.6c1.7,0.4,3.5-0.6,3.9-2.3l2.6-10.5
		c0.4-1.7-0.6-3.5-2.3-3.9l-42.7-10.6c-1.7-0.4-3.5,0.6-3.9,2.3l-2.6,10.5C265.5,503.1,266.5,504.8,268.3,505.3z"/>
	<polygon fill-rule="evenodd" clip-rule="evenodd" fill="#9274B4" points="478,394.2 467.4,394.5 448.4,395 438.1,395.3 
		386.7,396.6 386.2,382.1 385.9,375.4 385.9,373.5 385.9,373.3 385.6,365.2 470,365.2 472.6,374.6 476.6,389.4 477.5,392.6 	"/>
	<path fill-rule="evenodd" clip-rule="evenodd" fill="#7654A3" d="M477.6,392.2L477.6,392.2l-0.1,0.4c0,0-3.6,1.1-10.1,1.9
		c-4.8,0.6-11.3,0.9-19,0.5c-3.2-0.2-6.6-0.5-10.3-1c-2.6-0.4-5.3-0.8-8-1.3c-14.5-2.9-26.3-7.7-34.5-11.8c-4.3-2.1-7.5-4.1-9.7-5.4
		c-1.3-0.8-2.1-1.4-2.6-1.7c-0.2-0.2-0.4-0.3-0.4-0.3l1.9,0l1,0l41,0.5l17.1,0.2l16.3,0.2l12.2,0.1l4.1,14.8
		C477,390.3,477.3,391.2,477.6,392.2z"/>
	<path fill-rule="evenodd" clip-rule="evenodd" fill="#79C5A5" d="M475.6,311.6c-1.3,14.5-2,27.5-1,32.1c0,0.2,0.1,0.4,0.1,0.6
		c2.5,12.6,3.8,42,3.8,42s-0.5,1.7-11.2,3.7h0c-1.5,0.3-3.3,0.6-5.3,0.9c-13.9,2-26.7-1.9-46.9-5.9c-20.7-4.1-32.1-11.5-32.1-11.5
		s-0.7-9.8-1.1-18.1c-0.4-8.3,2.2-17.2,2.4-25.5c0.2-8.3-4-70.9-4-70.9l38.6-17.2h23.9l38.6,17.2l-0.3,2.4
		C480.2,268.7,477.3,291.6,475.6,311.6z"/>
	<path fill-rule="evenodd" clip-rule="evenodd" fill="#F4B593" d="M442.8,241.8c0,0-11.5,6.8-23.9,0.3l0.3-4.9l0.4-4.1l0.6-6.5
		l0.3-3.4l5.7-0.6c0,0,0,0,0,0l15-1.7L442.8,241.8z"/>
	<path fill-rule="evenodd" clip-rule="evenodd" fill="#C76F38" d="M432.5,231.6c-4.8,5-11.1,5.6-13.4,5.6l0.4-4.1l0.6-6.5l3.3-1
		c0,0,0,0,0,0C429.9,226.6,435.5,228.5,432.5,231.6z"/>
	<path fill-rule="evenodd" clip-rule="evenodd" fill="#F4B593" d="M414.7,219.6c-1.7,7.4-0.6,12.4,14.1,12.5
		c7.5,0.1,12.6-4,13.8-11.4l2.5-15.5c1-6.3-3.2-12.3-9.6-13.3c-6.3-1-13.4,3.1-14.5,9.4c-0.8,3.9-1.6,6-2.9,8.8
		C417,212.6,415.2,217.4,414.7,219.6z"/>
	<path fill-rule="evenodd" clip-rule="evenodd" fill="#703541" d="M438.5,199.9c0,0-3,3-3,6.3c0.1,3.2,6.5,6.7,4.8,13.2
		c-1.7,6.5,1.9,15.1,1.9,15.1s3.4-0.1,4.9-2.7c1.6-2.5,1.8-5.1,1.8-5.1s6.1-0.5,7.3-6.7c1.2-6.2-2.9-9.4-2.9-9.4s4.1-1.9,4.7-7
		c0.6-5.1-5.9-10.5-11-11.1c0,0-3.8-8.9-11.8-10.6c-8-1.7-8.1,3.8-8.1,3.8s-6.7-1.5-9.9,2.8c-3.2,4.3-0.1,8.4-0.1,8.4
		s-2.2,3.3-0.7,6.2c1.5,2.9,3.7,2,3.7,2s0.9-4.7,1.9-4.9c3.9-0.8,5.9-4,5.9-4S432.6,200.8,438.5,199.9z"/>
	<path fill-rule="evenodd" clip-rule="evenodd" fill="#F4B593" d="M438.6,222.7c1.1,1.9,3.9,2.2,6.2,0.8s3.4-4,2.3-5.9
		c-1.1-1.9-3.9-2.2-6.2-0.8C438.5,218.2,437.5,220.8,438.6,222.7z"/>
	<path fill-rule="evenodd" clip-rule="evenodd" fill="#DE8450" d="M440.1,221.1c-0.2,0.1-0.4,0-0.4-0.2c-0.1-0.2,0-0.4,0.2-0.4
		l4.8-2c0.2-0.1,0.4,0,0.4,0.2c0.1,0.2,0,0.4-0.2,0.4L440.1,221.1z"/>
	<path fill-rule="evenodd" clip-rule="evenodd" fill="#090914" d="M434.4,209c-0.2,0.2-1-0.3-1.8-1.1c-0.8-0.8-1.4-1.6-1.2-1.8
		c0.2-0.2,1,0.3,1.8,1.1C434.1,208,434.6,208.8,434.4,209z"/>
	<path fill-rule="evenodd" clip-rule="evenodd" fill="#090914" d="M424.9,204c0.1,0.2-0.6,0.8-1.6,1.1c-1,0.4-1.9,0.5-2,0.3
		c-0.1-0.2,0.6-0.8,1.6-1.1C423.9,203.9,424.8,203.7,424.9,204z"/>
	<path fill-rule="evenodd" clip-rule="evenodd" fill="#FFFFFF" d="M422.4,220.8c0,0,3.4,0.8,5.7-0.5c0,0-0.7,2.9-2.7,2.8
		C423.4,223,422.4,220.8,422.4,220.8z"/>
	<path fill-rule="evenodd" clip-rule="evenodd" fill="#DE8450" d="M425.8,209.7c0.1-0.2,0.3-0.2,0.4-0.1c0.2,0.1,0.2,0.3,0.1,0.4
		c0,0-2,4.1-4.6,5.4c0.2,0.5,1,1.8,3.1,2c0.2,0,0.3,0.2,0.3,0.4c0,0.2-0.2,0.3-0.4,0.3c-3-0.4-3.7-2.6-3.8-2.8
		c-0.1-0.2,0-0.3,0.2-0.4C423.7,213.9,425.8,209.7,425.8,209.7z"/>
	<path fill-rule="evenodd" clip-rule="evenodd" fill="#F4B593" d="M321.5,276c0,0-7.7-11.9-9.1-18c-1.5-6.9-9.7-11.1-12.8-15.4
		c-3.8-5.3-6.1-10.8-8.9-9.4c-2.9,1.5,6.4,15.6,6.4,15.6s-5.3-5.6-7.2-2.9c-1.9,2.7,2,5.8,2,5.8s-2.3,1.4-1.3,4.6
		c0,0-1.9,0.9-1.2,2.9c0,0-2.1,1.5-1.5,3.7c0.7,2.2,2.2,3.9,2.8,6.2c0.6,2.3,2.5,4.7,3.4,1.3c0,0,0.3,3.8,1.8,5.9
		c1.4,2.1,11.5,10.4,11.5,10.4L321.5,276z"/>
	<path fill-rule="evenodd" clip-rule="evenodd" fill="#DE8450" d="M294.6,270.5c0,0.2-0.2,0.3-0.4,0.3c-0.2,0-0.3-0.2-0.3-0.4
		c0,0,0.4-1.9-1-4.2c-1.2-2.2-2.9-5.3-2.9-5.4c-0.1-0.2,0-0.4,0.1-0.4c0.2-0.1,0.4,0,0.4,0.1c0,0,1.6,3.2,2.9,5.3
		C295,268.4,294.6,270.5,294.6,270.5z"/>
	<path fill-rule="evenodd" clip-rule="evenodd" fill="#DE8450" d="M294,269.2c-0.1-0.1-0.1-0.3,0-0.5c0.1-0.1,0.3-0.1,0.5,0
		c0,0,0.6,0.7,1.1-0.2c0.5-1,0.2-3-0.6-5.1c-0.8-2.1-2.1-4.4-3.5-5.9c-0.1-0.1-0.1-0.3,0-0.5c0.1-0.1,0.3-0.1,0.5,0
		c1.5,1.6,2.9,3.9,3.7,6.1c0.8,2.2,1.1,4.4,0.6,5.6C295.3,270.7,294,269.2,294,269.2z"/>
	<path fill-rule="evenodd" clip-rule="evenodd" fill="#DE8450" d="M296.8,249.1c-0.1-0.1-0.1-0.3,0-0.5c0.1-0.1,0.3-0.1,0.5,0
		c0,0,2.4,2.7,3.8,4c0.1,0.1,0.2,0.3,0,0.5s-0.3,0.2-0.5,0C299.2,251.8,296.8,249.1,296.8,249.1z"/>
	<path fill-rule="evenodd" clip-rule="evenodd" fill="#DE8450" d="M305.9,268.6c0.2,0.1,0.2,0.3,0.1,0.4c-0.1,0.2-0.3,0.2-0.4,0.1
		c0,0-5.8-3.2-7.1-8.8c-1.3-5.3-6.8-8.4-6.8-8.4c-0.2-0.1-0.2-0.3-0.1-0.4c0.1-0.2,0.3-0.2,0.4-0.1c0,0,5.8,3.2,7.1,8.8
		C300.4,265.5,305.9,268.6,305.9,268.6z"/>
	<path fill-rule="evenodd" clip-rule="evenodd" fill="#DE8450" d="M295.9,266.5c-0.2-0.1-0.2-0.3-0.1-0.4c0.1-0.2,0.3-0.2,0.4-0.1
		c0,0,1.5,0.8,2-1c0.3-1,0-2.8-0.7-4.6c-0.7-2-1.8-4.1-2.9-5.3c-0.1-0.1-0.1-0.3,0-0.5c0.1-0.1,0.3-0.1,0.5,0c1.1,1.3,2.3,3.5,3,5.5
		c0.7,2,1,3.9,0.7,5C298.1,267.7,295.9,266.6,295.9,266.5z"/>
	<path fill-rule="evenodd" clip-rule="evenodd" fill="#37918C" d="M478.5,386.3c0,0-0.5,1.7-11.2,3.7h0c0.9-5.6,3.8-29.9,0.9-40.1
		c-2.4-8.5-1.3-23.7,0.8-31.7c2.1-7.8,7.7-17.1,7.5-17.7l-1.1,11.1c-1.3,14.5-2,27.5-1,32.1c0,0.2,0.1,0.4,0.1,0.6
		C477.2,356.8,478.5,386.3,478.5,386.3z"/>
	<path fill-rule="evenodd" clip-rule="evenodd" fill="#79C5A5" d="M332,332.9c0.5,0.7,1.1,1.3,1.8,1.9c0.3,0.3,0.7,0.6,1,0.9
		c2.1,1.8,4.6,3,7.1,3.7c0.2,0.1,0.5,0.1,0.7,0.2c2.7,0.6,5.5,0.7,8.2,0.1c0,0,0.1,0,0.1,0c3.8-0.8,7.4-2.7,10.3-5.7l22.1-23.4
		c0,0,0,0,0,0l19.6-20.8c7.3-7.8,6.9-20.1-0.8-27.4c-3.7-3.5-8.5-5.2-13.3-5.2c-5.2,0-10.4,2-14.2,6.1l-33.9,36l-7.8,8.3
		C326.3,314.5,326,325.5,332,332.9z"/>
	<path fill-rule="evenodd" clip-rule="evenodd" fill="#37918C" d="M445.6,243.1c0,0,0.2-2.8-2.9-2.8c0,0-12.4,6.1-23.7,0
		c0,0-2.5,0-2.5,2.7c0,0,4.8,3.9,14.3,3.8C440.4,246.5,445.6,243.1,445.6,243.1z"/>
	<path fill-rule="evenodd" clip-rule="evenodd" fill="#79C5A5" d="M297.8,280.8c2,3.5,11,18.1,21.2,33.5c2.5,3.8,4.7,7,6.6,9.6l0,0
		c1.8,2.5,3.2,4.4,4.5,6c0.7,0.9,1.3,1.6,1.8,2.2c0.9,1.4,2.1,2.7,3.4,3.8c0.2,0.2,0.4,0.3,0.6,0.5c2.2,1.6,4.7,2.8,7.6,3.2
		c0,0,0.1,0,0.1,0c0.6,0.1,1.3,0.1,1.9,0.2c7.9,0.3,15-5.1,17.3-12.4c0.4-1.4,0.7-2.9,0.8-4.4c0.2-4.8-0.7-9.9-3.7-13.2
		c-0.9-1.3-5-5.9-10.4-11.7c-11-11.9-27-28.7-30.8-32L297.8,280.8z"/>
	<path fill-rule="evenodd" clip-rule="evenodd" fill="#090914" d="M429.9,211.1c-0.2,0.8,0,1.5,0.4,1.6c0.4,0.1,0.9-0.5,1-1.3
		c0.2-0.8,0-1.5-0.4-1.6C430.6,209.8,430.1,210.4,429.9,211.1z"/>
	<path fill-rule="evenodd" clip-rule="evenodd" fill="#F4B593" d="M355.7,319.5c-5.1-0.3-8.4-0.1-8.7,1.7c-0.3,2.3,9.1,2.6,9.1,2.6
		L355.7,319.5z"/>
	<path fill-rule="evenodd" clip-rule="evenodd" fill="#79C5A5" d="M422.8,338.8c8.2,6.8,20.5,5.7,27.4-2.5l38.9-46.8
		c6.8-8.2,5.7-20.5-2.5-27.3h0c-8.2-6.8-20.5-5.7-27.4,2.5l-38.9,46.8C413.4,319.6,414.6,331.9,422.8,338.8z"/>
	<path fill-rule="evenodd" clip-rule="evenodd" fill="#090914" d="M421.6,209.3c-0.2,0.8,0,1.5,0.4,1.6c0.4,0.1,0.9-0.5,1-1.3
		c0.2-0.8,0-1.5-0.4-1.6C422.2,207.9,421.8,208.5,421.6,209.3z"/>
	<path fill-rule="evenodd" clip-rule="evenodd" fill="#37918C" d="M329.9,329.7c2.2,3,3.3,5,5,6c2.1,1.8,4.6,3,7.1,3.7
		c0.2,0.1,0.5,0.1,0.7,0.2c2.6,0.7,5.4,0.8,8.2,0.1c0,0,0.1,0,0.1,0c3.8-0.8,7.4-2.7,10.3-5.7l22.1-23.4c0,0,0,0,0,0l-0.3-15.3
		c0,0-0.6,7.4-4.7,13.2c-3.4,4.8-9.4,6.9-14.2,12.8c-0.9,1.1-1.8,2.4-2.6,3.9c-4.4,7.9-18.5,9.4-27.7,7.5
		C332.6,332.3,331.3,331.3,329.9,329.7z"/>
	<rect x="30.3" y="334.3" fill-rule="evenodd" clip-rule="evenodd" fill="#C6725D" width="348.6" height="8.1"/>
	<rect x="45.9" y="342.3" fill-rule="evenodd" clip-rule="evenodd" fill="#703541" width="317.4" height="8.1"/>
	<path opacity="0.4" fill-rule="evenodd" clip-rule="evenodd" fill="#58A0C3" d="M339.8,277.6v21.7c0,4.9,2.5,9.2,6.3,11.7
		c2.2,1.5,4.1,3.5,5.1,6c0.6,1.3,1,2.6,1,3.7v2.6c-1.7,0.7-3,2.4-3,4.3c0,2,1.2,3.7,3,4.3v6.8c0,2.4-1.5,4.6-3.8,5.4l-3,1.1
		c-0.6,0.2-0.9,0.7-0.9,1.3h9.4h9.4c0-0.6-0.4-1.1-0.9-1.3l-3-1.1c-2.3-0.8-3.8-3-3.8-5.4v-6.8c1.7-0.7,3-2.4,3-4.3
		c0-2-1.2-3.7-3-4.3v-2.6c0-1.1,0.4-2.4,1-3.7c1.1-2.5,2.9-4.5,5.1-6c3.8-2.5,6.3-6.8,6.3-11.7v-21.7H339.8z"/>
	<path fill-rule="evenodd" clip-rule="evenodd" fill="#DD3D3F" d="M366.8,301.3c0.2-1.6-2.8-2.8-6.1-2c-3.3,0.7-10.3,0.6-12.1-0.2
		c-1.8-0.8-1.6,8-1.6,8h13.7L366.8,301.3z"/>
	<path fill-rule="evenodd" clip-rule="evenodd" fill="#FFFFFF" d="M358.5,327.6c0,2.6-2.1,4.6-4.6,4.6c-1.3,0-2.5-0.5-3.3-1.4
		c0.7,0.4,1.4,0.6,2.2,0.6c2.6,0,4.6-2.1,4.6-4.6c0-1.3-0.5-2.4-1.3-3.3C357.6,324.3,358.5,325.8,358.5,327.6z"/>
	<path fill-rule="evenodd" clip-rule="evenodd" fill="#F05656" d="M353.1,299.7c-4-3.2-9.3-2.7-12.3-1.9v1.4c0,7.2,5.9,13,13,13
		c6.5,0,11.9-4.8,12.9-11.1C362.7,302.6,358.2,303.8,353.1,299.7z"/>
	<path fill-rule="evenodd" clip-rule="evenodd" fill="#FFFFFF" d="M365.9,299.9h0.7c0.1,0,0.2-0.1,0.2-0.2v-17.3
		c0-0.1-0.1-0.2-0.2-0.2h-0.7c-0.1,0-0.2,0.1-0.2,0.2v17.3C365.6,299.8,365.7,299.9,365.9,299.9z"/>
	<path fill-rule="evenodd" clip-rule="evenodd" fill="#7654A3" d="M331.9,441.2c0,0-5-36.1,3.3-44.6c9.1-9.3,58.7-16.6,58.7-16.6
		s-50.2,5.3-62.5,12.8c-12.3,7.5-2,57.3-2,57.3L331.9,441.2z"/>
	<path fill-rule="evenodd" clip-rule="evenodd" fill="#F4B593" d="M379.6,344c0,0-11.1,3.3-18.5,1.9c-7.4-1.4-13.5-4.3-14.8-5.4
		c-1.3-1.1-1.4-2.3-1.4-2.3s-0.7-1-0.5-1.9c0.3-1.9,1.1-1.9,1.1-1.9s-1.1-1.3-0.7-2.7c0.3-1.3,1.1-2.2,1.1-2.2s-0.9-1.9,0.4-3.4
		c1.5-1.7,3.4-0.2,7.9-0.1c4.5,0.1,3.9-0.3,3.9-0.3l-2.6-2.4l0.1-3.7c0,0,14.6,2.8,19.3,6.1C379.7,328.9,379.6,344,379.6,344z"/>
	<path fill-rule="evenodd" clip-rule="evenodd" fill="#79C5A5" d="M432.4,308c4.3-1,9.2,0.9,13.2,3.5c7.9,5.1,10.4,16.1,5.4,24
		c-3.1,4.8-8.2,7.5-13.5,7.8c-3.7,0.6-10.7,1.4-21.9,2c-18.4,0.9-35.6,1.3-39.6,1.3l-2.1-25.3C380.8,318.9,427.6,308.4,432.4,308z"
		/>
	<path fill-rule="evenodd" clip-rule="evenodd" fill="#703541" d="M382.3,346.5c-0.1,0-0.2-0.1-0.2-0.2c0-0.1,0.1-0.2,0.2-0.2
		c0.1,0,52.1,2.8,63.7-6.4c11.6-9.2,26.5-31,26.5-31.1c0.1-0.1,0.2-0.1,0.3,0c0.1,0.1,0.1,0.2,0,0.3c0,0.1-15,21.9-26.6,31.2
		C434.6,349.3,382.5,346.5,382.3,346.5z"/>
	<path fill-rule="evenodd" clip-rule="evenodd" fill="#703541" d="M384,318.8c-0.1,0-0.2,0-0.2-0.1c0-0.1,0-0.2,0.1-0.2l37.4-8.5
		l23-27.6c0.1-0.1,0.2-0.1,0.3,0c0.1,0.1,0.1,0.2,0,0.3l-23,27.7L384,318.8z"/>
	<rect x="402.4" y="433.9" fill-rule="evenodd" clip-rule="evenodd" fill="#C6725D" width="71.4" height="4.2"/>
	<polygon fill-rule="evenodd" clip-rule="evenodd" fill="#C6725D" points="484,547.1 479,547.1 466.9,435.9 473.9,435.9 	"/>
	<polygon fill-rule="evenodd" clip-rule="evenodd" fill="#C6725D" points="392.3,547.1 397.2,547.1 409.4,435.9 402.4,435.9 	"/>
	<path fill-rule="evenodd" clip-rule="evenodd" fill="#DE8450" d="M345.8,329.8c-0.2-0.1-0.2-0.3-0.2-0.4c0.1-0.2,0.3-0.2,0.4-0.2
		c0,0,1.7,0.7,4.4,1c0.2,0,0.3,0.2,0.3,0.4c0,0.2-0.2,0.3-0.4,0.3C347.6,330.6,345.8,329.8,345.8,329.8z"/>
	<path fill-rule="evenodd" clip-rule="evenodd" fill="#DE8450" d="M345.4,334.7c-0.2-0.1-0.2-0.3-0.1-0.4c0.1-0.2,0.3-0.2,0.4-0.1
		c0,0,1.5,0.8,4.1,1c0.2,0,0.3,0.2,0.3,0.3c0,0.2-0.2,0.3-0.3,0.3C347,335.6,345.4,334.7,345.4,334.7z"/>
	<path fill-rule="evenodd" clip-rule="evenodd" fill="#DE8450" d="M344.8,338.6c-0.2-0.1-0.3-0.3-0.2-0.4c0.1-0.2,0.3-0.3,0.4-0.2
		c0,0,2.8,1.1,4.1,1.3c0.2,0,0.3,0.2,0.3,0.4c0,0.2-0.2,0.3-0.4,0.3C347.7,339.7,344.8,338.6,344.8,338.6z"/>
	<rect x="199.6" y="346.7" fill-rule="evenodd" clip-rule="evenodd" fill="#703541" width="10" height="200.5"/>
	<path fill-rule="evenodd" clip-rule="evenodd" fill="#F4B593" d="M115.1,303.8c-0.3-2.1-20.1,0.4-20.1,0.4
		c1.8-0.6,17.5-3.8,17.2-5.6c-0.2-1.2-3.5-0.8-9-0.3c-6.8,0.7-12.6,2.6-12.9,1.5c-0.4-2.1,7.8-6.9,7.4-8c-0.8-1.8-4.5,0.1-6.3,1.2
		c-1.6,0.9-7.4,3.8-10.5,6.5c-2,1.7-4.7,3.5-8.8,4.2c-3.4,0.6-11.9,1.8-27.7,2.9c-16.7,1.1-25.3,1.5-25.7,1.6c0,0,0,0,0,0
		c-8.3,0.6-14.9,7.5-14.8,16c0.1,8.8,7.2,15.9,16,15.8c2.2,0,4.2-0.5,6.1-1.3c0,0,0,0,0,0c6.9-2.4,42.5-16.3,47.1-17.5
		c6.2-1.6,11.8-2.5,15.5-2.8c2.7-0.2,18.4-2.7,18.9-3.9c0.7-1.6-14.3-1.4-14.3-1.4s19.9-3.1,19.8-3.6c-0.1-2.3-14.8-0.5-18.9-0.7
		C94.1,309,115.3,305.6,115.1,303.8z"/>
</g>
</svg>
