<?xml version="1.0" encoding="utf-8"?>
<!-- Generator: Adobe Illustrator 26.0.1, SVG Export Plug-In . SVG Version: 6.00 Build 0)  -->
<svg version="1.1" id="Capa_1" xmlns="http://www.w3.org/2000/svg" xmlns:xlink="http://www.w3.org/1999/xlink" x="0px" y="0px"
	 viewBox="0 0 144 30.7" enable-background="new 0 0 144 30.7" xml:space="preserve">
<path fill-rule="evenodd" clip-rule="evenodd" fill="#DE1F26" d="M49.6,11.7c0-5.6-4.5-10.1-10-10.1s-10,4.5-10,10.1v10.1
	c0,1.2,1,2.2,2.2,2.2c1.2,0,2.2-1,2.2-2.2v-4.5h11.1v4.5c0,1.2,1,2.2,2.2,2.2c1.2,0,2.2-1,2.2-2.2V11.7L49.6,11.7z M34.1,11.7
	c0-3.1,2.5-5.6,5.5-5.6c3,0,5.5,2.5,5.5,5.6v1.1H34.1V11.7L34.1,11.7z M52.1,8.4c0,1,0.6,1.9,1.5,2.3c-0.8,1.3-1.2,2.8-1.2,4.4v13.4
	c0,1.2,1,2.2,2.2,2.2c1.2,0,2.2-1,2.2-2.2v-5.7c1.3,0.8,2.8,1.2,4.4,1.2c4.9,0,8.9-4,8.9-8.9c0-4.9-4-8.9-8.9-8.9
	c-1.6,0-3.1,0.5-4.4,1.2c-0.4-0.9-1.2-1.5-2.2-1.5C53.2,5.9,52.1,7,52.1,8.4L52.1,8.4L52.1,8.4z M56.8,15.1c0-2.5,2-4.5,4.4-4.5
	c2.5,0,4.4,2,4.4,4.5s-2,4.5-4.4,4.5C58.8,19.6,56.8,17.6,56.8,15.1L56.8,15.1L56.8,15.1z M71.7,8.4c0,1,0.6,1.9,1.5,2.3
	C72.4,12,72,13.5,72,15.1v13.4c0,1.2,1,2.2,2.2,2.2c1.2,0,2.2-1,2.2-2.2v-5.7c1.3,0.8,2.8,1.2,4.4,1.2c4.9,0,8.9-4,8.9-8.9
	c0-4.9-4-8.9-8.9-8.9c-1.6,0-3.1,0.5-4.4,1.2c-0.4-0.9-1.2-1.5-2.2-1.5C72.8,5.9,71.7,7,71.7,8.4L71.7,8.4L71.7,8.4z M76.4,15.1
	c0-2.5,2-4.5,4.4-4.5c2.5,0,4.4,2,4.4,4.5s-2,4.5-4.4,4.5C78.4,19.6,76.4,17.6,76.4,15.1L76.4,15.1L76.4,15.1z M101.9,24
	c1.2,0,2.2-1,2.2-2.2c0-1.2-1-2.2-2.2-2.2h-2.2c-1.7,0-3.1-0.9-3.8-2.2h10.5c1.2,0,2.2-1,2.2-2.2c0-4.9-4-8.9-8.9-8.9
	c-4.9,0-8.9,4-8.9,8.9c0,4.9,4,8.9,8.9,8.9H101.9L101.9,24z M99.7,10.6c1.6,0,3.1,0.9,3.8,2.2h-7.7C96.6,11.5,98,10.6,99.7,10.6
	L99.7,10.6z M110.8,6.1h1.7V3.9c0-1.2,1-2.2,2.2-2.2c1.2,0,2.2,1,2.2,2.2v2.2h3.3c1.2,0,2.2,1,2.2,2.2c0,1.2-1,2.2-2.2,2.2h-3.3v6.7
	c0,1.2,1,2.2,2.2,2.2h1.1c1.2,0,2.2,1,2.2,2.2c0,1.2-1,2.2-2.2,2.2h-1.1c-3.7,0-6.6-3-6.6-6.7v-6.7h-1.7c-1.2,0-2.2-1-2.2-2.2
	C108.6,7.2,109.6,6.1,110.8,6.1L110.8,6.1z M128.5,8.4c0-1.2-1-2.2-2.2-2.2c-1.2,0-2.2,1-2.2,2.2v13.4c0,1.2,1,2.2,2.2,2.2
	c1.2,0,2.2-1,2.2-2.2V8.4L128.5,8.4z M123.8,2.5c0,1.4,1.1,2.5,2.5,2.5c1.4,0,2.5-1.1,2.5-2.5c0-1.4-1.1-2.5-2.5-2.5
	C124.9,0,123.8,1.1,123.8,2.5L123.8,2.5z M132.4,6.1c-1.2,0-2.2,1-2.2,2.2c0,1.2,1,2.2,2.2,2.2h1.7v6.7c0,3.7,3,6.7,6.6,6.7h1.1
	c1.2,0,2.2-1,2.2-2.2c0-1.2-1-2.2-2.2-2.2h-1.1c-1.2,0-2.2-1-2.2-2.2v-6.7h3.3c1.2,0,2.2-1,2.2-2.2c0-1.2-1-2.2-2.2-2.2h-3.3V3.9
	c0-1.2-1-2.2-2.2-2.2c-1.2,0-2.2,1-2.2,2.2v2.2H132.4z"/>
<g>
	<g>
		<g>
			<path fill-rule="evenodd" clip-rule="evenodd" fill="#DE1F26" d="M0,11c0,10.3,11.1,19.7,11.1,19.7c0,0,1.2-1,2.8-2.8
				c0.5-0.6,1.1-1.2,1.7-2c3.1-3.7,6.6-9.3,6.6-15c0-5.7-4.3-10.4-9.9-11l-0.1,5.2c0,1,0.3,2,1,2.8l2.1,2.4c0.6,0.7,0.9,1.6,0.8,2.5
				c0,0,0,0.1,0,0.1l-0.9,7.7c0,0.3-0.3,0.5-0.5,0.5c-0.2,0-0.3-0.1-0.4-0.2C14.1,21,14,20.8,14,20.6l0-6.8l0-0.1
				c0-0.3-0.2-0.5-0.5-0.5c-0.3,0-0.5,0.2-0.5,0.5v8.9c0,0.2-0.1,0.4-0.2,0.5c-0.1,0.1-0.3,0.2-0.5,0.2c-0.4,0-0.7-0.3-0.7-0.7v-8.9
				c0-0.3-0.2-0.5-0.5-0.5c-0.3,0-0.5,0.2-0.5,0.5v8.9c0,0.4-0.3,0.7-0.7,0.7c-0.2,0-0.4-0.1-0.5-0.2C9.1,23.1,9,22.9,9,22.7v-8.9
				c0-0.3-0.2-0.5-0.5-0.5c-0.3,0-0.5,0.2-0.5,0.4c0,0,0,0.1,0,0.1v6.9c0,0.3-0.3,0.6-0.6,0.6c-0.1,0-0.2,0-0.3-0.1l-0.3-0.3l0,0
				c0-0.1-0.1-0.1-0.1-0.2L5.8,13c0-0.2,0-0.4,0-0.5c0-0.8,0.3-1.5,0.8-2.1L8.7,8c0.7-0.8,1-1.8,1-2.8L9.6,0C4.2,0.8,0,5.4,0,11z"/>
		</g>
	</g>
</g>
</svg>
