<?xml version="1.0" encoding="utf-8"?>
<!-- Generator: Adobe Illustrator 24.1.0, SVG Export Plug-In . SVG Version: 6.00 Build 0)  -->
<svg version="1.1" id="Capa_1" xmlns="http://www.w3.org/2000/svg" xmlns:xlink="http://www.w3.org/1999/xlink" x="0px" y="0px"
	 viewBox="0 0 90 194.88" enable-background="new 0 0 90 194.88" xml:space="preserve">
<g>
	<path fill-rule="evenodd" clip-rule="evenodd" fill="#FEEEEB" d="M3.81,42.12C2.77,41.08,1.13,41,0,41.88v8.14l3.81-3.81
		C4.93,45.08,4.93,43.25,3.81,42.12z"/>
	<path fill-rule="evenodd" clip-rule="evenodd" fill="#FEEEEB" d="M16.96,61.42l2.62-2.63c1.13-1.13,1.13-2.96,0-4.09
		c-1.13-1.13-2.96-1.13-4.08,0l-2.62,2.63c-1.13,1.13-1.13,2.96,0,4.09C14,62.55,15.83,62.55,16.96,61.42z"/>
	<path fill-rule="evenodd" clip-rule="evenodd" fill="#FEEEEB" d="M0.38,26.23c1.13-1.13,1.13-2.96,0-4.09
		C0.26,22.02,0.13,21.92,0,21.82v4.77c0.08-0.06,0.15-0.13,0.22-0.2L0.38,26.23z"/>
	<path fill-rule="evenodd" clip-rule="evenodd" fill="#FEF2F1" d="M58.27,52.21c1.13,1.13,2.96,1.13,4.08,0L90,24.53v-8.18
		L58.27,48.12C57.15,49.25,57.15,51.08,58.27,52.21z"/>
	<path fill-rule="evenodd" clip-rule="evenodd" fill="#FEEEEB" d="M56.15,58.42l0.16-0.16c1.13-1.13,1.13-2.96,0-4.09
		s-2.96-1.13-4.08,0l-0.16,0.16c-1.13,1.13-1.13,2.96,0,4.09C53.19,59.55,55.02,59.55,56.15,58.42z"/>
	<path fill-rule="evenodd" clip-rule="evenodd" fill="#FEF2F1" d="M36.87,60.48l2.88-2.89c2.62-2.62,2.62-6.88,0-9.5
		c-2.62-2.62-6.87-2.62-9.49,0l-2.88,2.89c-2.62,2.62-2.62,6.88,0,9.5C30.01,63.11,34.25,63.11,36.87,60.48z"/>
	<path fill-rule="evenodd" clip-rule="evenodd" fill="#FEF2F1" d="M0,12.52L11.41,1.1c1.18-1.18,3.1-1.18,4.28,0
		c1.18,1.18,1.18,3.1,0,4.28L3.74,17.34c-2.74,2.75-2.74,7.2,0,9.95c2.75,2.75,7.2,2.75,9.94,0l-0.35,0.35
		c1.18-1.18,3.1-1.18,4.28,0c1.18,1.18,1.18,3.1,0,4.28L8.64,40.9c-2.74,2.75-2.74,7.2,0,9.95c2.74,2.75,7.2,2.75,9.94,0
		l19.86-19.88c1.18-1.18,3.1-1.18,4.28,0c1.18,1.18,1.18,3.1,0,4.28l-1.24,1.24c-2.74,2.75-2.74,7.2,0,9.95
		c2.74,2.75,7.2,2.75,9.94,0L90,7.82V0H0V12.52z"/>
</g>
<path fill-rule="evenodd" clip-rule="evenodd" fill="#FEEEEB" d="M86.19,152.76c1.04,1.04,2.68,1.12,3.81,0.25v-8.14l-3.81,3.81
	C85.06,149.8,85.06,151.63,86.19,152.76z"/>
<path fill-rule="evenodd" clip-rule="evenodd" fill="#FEEEEB" d="M73.02,133.46l-2.63,2.63c-1.13,1.13-1.13,2.96,0,4.09
	c1.13,1.13,2.96,1.13,4.09,0l2.63-2.63c1.13-1.13,1.13-2.96,0-4.09C75.98,132.33,74.15,132.33,73.02,133.46z"/>
<path fill-rule="evenodd" clip-rule="evenodd" fill="#FEEEEB" d="M89.62,168.65c-1.13,1.13-1.13,2.96,0,4.09
	c0.12,0.12,0.25,0.23,0.38,0.32v-4.77c-0.08,0.06-0.15,0.13-0.22,0.2L89.62,168.65z"/>
<path fill-rule="evenodd" clip-rule="evenodd" fill="#FEF2F1" d="M31.65,142.67c-1.13-1.13-2.96-1.13-4.09,0l-27.68,27.68v8.18
	l31.77-31.77C32.78,145.63,32.78,143.8,31.65,142.67z"/>
<path fill-rule="evenodd" clip-rule="evenodd" fill="#FEEEEB" d="M33.77,136.46l-0.16,0.16c-1.13,1.13-1.13,2.96,0,4.09
	c1.13,1.13,2.96,1.13,4.09,0l0.16-0.16c1.13-1.13,1.13-2.96,0-4.09C36.73,135.33,34.9,135.33,33.77,136.46z"/>
<path fill-rule="evenodd" clip-rule="evenodd" fill="#FEF2F1" d="M53.08,134.4l-2.89,2.89c-2.62,2.62-2.62,6.88,0,9.5
	c2.62,2.62,6.88,2.62,9.5,0l2.89-2.89c2.62-2.62,2.62-6.88,0-9.5C59.95,131.77,55.7,131.77,53.08,134.4z"/>
<path fill-rule="evenodd" clip-rule="evenodd" fill="#FEF2F1" d="M90,182.36l-11.42,11.42c-1.18,1.18-3.1,1.18-4.28,0
	c-1.18-1.18-1.18-3.1,0-4.28l11.97-11.97c2.75-2.75,2.75-7.2,0-9.95c-2.75-2.75-7.2-2.75-9.95,0l0.35-0.35
	c-1.18,1.18-3.1,1.18-4.28,0c-1.18-1.18-1.18-3.1,0-4.28l8.97-8.97c2.75-2.75,2.75-7.2,0-9.95c-2.75-2.75-7.2-2.75-9.95,0
	l-19.89,19.88c-1.18,1.18-3.1,1.18-4.28,0c-1.18-1.18-1.18-3.1,0-4.28l1.24-1.24c2.75-2.75,2.75-7.2,0-9.95
	c-2.75-2.75-7.2-2.75-9.95,0l-38.63,38.62v7.82H90V182.36z"/>
</svg>
