<?xml version="1.0" encoding="utf-8"?>
<!-- Generator: Adobe Illustrator 26.0.1, SVG Export Plug-In . SVG Version: 6.00 Build 0)  -->
<svg version="1.1" id="Capa_1" xmlns="http://www.w3.org/2000/svg" xmlns:xlink="http://www.w3.org/1999/xlink" x="0px" y="0px"
	 viewBox="0 0 90 194.9" enable-background="new 0 0 90 194.9" xml:space="preserve">
<g>
	<path fill-rule="evenodd" clip-rule="evenodd" fill="#1D1F26" d="M3.8,42.1c-1-1-2.7-1.1-3.8-0.2V50l3.8-3.8
		C4.9,45.1,4.9,43.2,3.8,42.1z"/>
	<path fill-rule="evenodd" clip-rule="evenodd" fill="#1D1F26" d="M17,61.4l2.6-2.6c1.1-1.1,1.1-3,0-4.1s-3-1.1-4.1,0l-2.6,2.6
		c-1.1,1.1-1.1,3,0,4.1C14,62.5,15.8,62.5,17,61.4z"/>
	<path fill-rule="evenodd" clip-rule="evenodd" fill="#1D1F26" d="M0.4,26.2c1.1-1.1,1.1-3,0-4.1C0.3,22,0.1,21.9,0,21.8v4.8
		c0.1-0.1,0.2-0.1,0.2-0.2L0.4,26.2z"/>
	<path fill-rule="evenodd" clip-rule="evenodd" fill="#1D1F26" d="M58.3,52.2c1.1,1.1,3,1.1,4.1,0L90,24.5v-8.2L58.3,48.1
		C57.2,49.2,57.2,51.1,58.3,52.2z"/>
	<path fill-rule="evenodd" clip-rule="evenodd" fill="#1D1F26" d="M56.2,58.4l0.2-0.2c1.1-1.1,1.1-3,0-4.1s-3-1.1-4.1,0l-0.2,0.2
		c-1.1,1.1-1.1,3,0,4.1C53.2,59.5,55,59.5,56.2,58.4z"/>
	<path fill-rule="evenodd" clip-rule="evenodd" fill="#1D1F26" d="M36.9,60.5l2.9-2.9c2.6-2.6,2.6-6.9,0-9.5s-6.9-2.6-9.5,0L27.4,51
		c-2.6,2.6-2.6,6.9,0,9.5C30,63.1,34.2,63.1,36.9,60.5z"/>
	<path fill-rule="evenodd" clip-rule="evenodd" fill="#1D1F26" d="M0,12.5L11.4,1.1c1.2-1.2,3.1-1.2,4.3,0s1.2,3.1,0,4.3l-12,12
		c-2.7,2.8-2.7,7.2,0,10c2.7,2.8,7.2,2.8,9.9,0l-0.4,0.4c1.2-1.2,3.1-1.2,4.3,0s1.2,3.1,0,4.3l-9,9c-2.7,2.8-2.7,7.2,0,10
		s7.2,2.8,9.9,0L38.4,31c1.2-1.2,3.1-1.2,4.3,0c1.2,1.2,1.2,3.1,0,4.3l-1.2,1.2c-2.7,2.8-2.7,7.2,0,10s7.2,2.8,9.9,0L90,7.8V0H0
		V12.5z"/>
</g>
<g>
	<path fill-rule="evenodd" clip-rule="evenodd" fill="#1D1F26" d="M86.2,152.8c1,1,2.7,1.1,3.8,0.2v-8.1l-3.8,3.8
		C85.1,149.8,85.1,151.6,86.2,152.8z"/>
	<path fill-rule="evenodd" clip-rule="evenodd" fill="#1D1F26" d="M73,133.5l-2.6,2.6c-1.1,1.1-1.1,3,0,4.1c1.1,1.1,3,1.1,4.1,0
		l2.6-2.6c1.1-1.1,1.1-3,0-4.1C76,132.3,74.2,132.3,73,133.5z"/>
	<path fill-rule="evenodd" clip-rule="evenodd" fill="#1D1F26" d="M89.6,168.6c-1.1,1.1-1.1,3,0,4.1c0.1,0.1,0.2,0.2,0.4,0.3v-4.8
		c-0.1,0.1-0.2,0.1-0.2,0.2L89.6,168.6z"/>
	<path fill-rule="evenodd" clip-rule="evenodd" fill="#1D1F26" d="M31.6,142.7c-1.1-1.1-3-1.1-4.1,0l-27.7,27.7v8.2l31.8-31.8
		C32.8,145.6,32.8,143.8,31.6,142.7z"/>
	<path fill-rule="evenodd" clip-rule="evenodd" fill="#1D1F26" d="M33.8,136.5l-0.2,0.2c-1.1,1.1-1.1,3,0,4.1c1.1,1.1,3,1.1,4.1,0
		l0.2-0.2c1.1-1.1,1.1-3,0-4.1C36.7,135.3,34.9,135.3,33.8,136.5z"/>
	<path fill-rule="evenodd" clip-rule="evenodd" fill="#1D1F26" d="M53.1,134.4l-2.9,2.9c-2.6,2.6-2.6,6.9,0,9.5s6.9,2.6,9.5,0
		l2.9-2.9c2.6-2.6,2.6-6.9,0-9.5C60,131.8,55.7,131.8,53.1,134.4z"/>
	<path fill-rule="evenodd" clip-rule="evenodd" fill="#1D1F26" d="M90,182.4l-11.4,11.4c-1.2,1.2-3.1,1.2-4.3,0s-1.2-3.1,0-4.3
		l12-12c2.8-2.8,2.8-7.2,0-9.9s-7.2-2.8-9.9,0l0.3-0.4c-1.2,1.2-3.1,1.2-4.3,0s-1.2-3.1,0-4.3l9-9c2.8-2.8,2.8-7.2,0-9.9
		s-7.2-2.8-9.9,0l-19.9,19.9c-1.2,1.2-3.1,1.2-4.3,0s-1.2-3.1,0-4.3l1.2-1.2c2.8-2.8,2.8-7.2,0-9.9s-7.2-2.8-10,0l-38.6,38.6v7.8H90
		V182.4z"/>
</g>
</svg>
