<?xml version="1.0" encoding="utf-8"?>
<!-- Generator: Adobe Illustrator 26.0.1, SVG Export Plug-In . SVG Version: 6.00 Build 0)  -->
<svg version="1.1" id="Capa_1" xmlns="http://www.w3.org/2000/svg" xmlns:xlink="http://www.w3.org/1999/xlink" x="0px" y="0px"
	 viewBox="0 0 172.8 96" enable-background="new 0 0 172.8 96" xml:space="preserve">
<g>
	<g>
		<g>
			<path fill-rule="evenodd" clip-rule="evenodd" fill="#184276" d="M140.8,78.3c-0.1,0-0.1,0-0.2-0.1c-0.7-0.4-4.3-1.1-6.5-1.4
				l-3.3-0.5l3.3-0.3c4-0.4,4.5-1.3,4.5-1.6c0.1-0.4-0.3-0.8-0.5-0.9c0,0,0,0,0,0c-0.3,0-2,1-3.6,2.2c-0.2,0.1-0.5,0.1-0.6-0.1
				c-0.2-0.2-0.1-0.5,0.1-0.6c2.4-1.8,4-2.6,4.6-2.3c0.4,0.2,1.2,1,1,1.9c-0.2,0.8-1.1,1.5-2.8,1.9c1.7,0.3,3.6,0.7,4.3,1.1
				c0.2,0.1,0.3,0.4,0.2,0.6C141.1,78.2,140.9,78.3,140.8,78.3z"/>
		</g>
		<g>
			<path fill-rule="evenodd" clip-rule="evenodd" fill="#E58A7B" d="M102.7,74.9c-1.3,0.8-2.9,1.3-4.5,1.3c-2,0-3.9-0.8-5.3-2.3
				c-0.5-0.5-0.9-1.1-1.3-1.7C95.2,70.9,99.6,72.5,102.7,74.9z"/>
		</g>
		<g>
			<path fill-rule="evenodd" clip-rule="evenodd" fill="#E58A7B" d="M88.1,48.9l8.9-0.2c0.3,6,1.2,12,2,15.3
				c2.2-2.9,4.9-7.7,6.4-14.1l9.6,1c-0.1,0.2-1.4,5.8-3.7,11.6c-1.8,4.5-4.5,10.1-8.6,12.5c-3.1-2.4-7.5-4.1-11.1-2.8
				C88,66.2,87.7,54.2,88.1,48.9z"/>
		</g>
		<g>
			<path fill-rule="evenodd" clip-rule="evenodd" fill="#2B183B" d="M132.2,33.4c2.7-0.1,4.1,3.4,1.6,5.6c-2.5,2.2-6.8,1.2-7.2-0.5
				c-0.4-1.6,1.9-4.2,1.9-4.2L132.2,33.4z"/>
		</g>
		<g>
			<path fill-rule="evenodd" clip-rule="evenodd" fill="#2B183B" d="M133.2,30.6c0.5-1.7,0.3-6-1.4-7.6c-1.8-1.5-3.4-1.2-3.4-1.2
				c-2-2.2-5.7-1.1-9.8,1.2c-4,2.4-2,7.4-2,7.4l13.3,4c0.6-0.4,1.3-0.8,1.9-1C132.3,33,132.7,32,133.2,30.6z"/>
		</g>
		<g>
			<path fill-rule="evenodd" clip-rule="evenodd" fill="#7BA7D8" d="M111.4,76.8c0,0-3.1,6.5-4.1,11.1c-1.1,4.6-1.2,7.9-1.2,7.9
				h39.8c0,0,0.7-12-11.4-19.9L111.4,76.8z"/>
		</g>
		<g>
			<path fill-rule="evenodd" clip-rule="evenodd" fill="#29130A" d="M104.2,54.3l-1.2,2.9c0,0,0.8,0.3,5.3,0.5l-0.3-1.6l-1.4-1.4
				L104.2,54.3z"/>
		</g>
		<g>
			<path fill-rule="evenodd" clip-rule="evenodd" fill="#F5DCC0" d="M116.3,43.7c-3.7-0.7-6.4,0.7-8.6,3.4c-2.2,2.7-6.3,6.5-6.3,6.5
				l6.4,4.8c0,0-3.3,4.3,1,7.9c0,0,0.7,7.3,2.6,10.5c0,0,7.6,4.5,23.1-0.9c0,0,3.6-16.2,4.6-17.8c1-1.6-0.2-11.8-0.2-11.8
				s-3.3-2.2-7.7-2.1c-4.4,0.1-7.1,1.6-7.1,1.6L116.3,43.7z"/>
		</g>
		<g>
			<path fill-rule="evenodd" clip-rule="evenodd" fill="#E36C5F" d="M118.7,31.5c0,0-1.7-1.7-3.1-1.2c-1.4,0.5-1.7,3.5-0.1,4.1
				c1.5,0.6,3.4-0.6,3.4-0.6L118.7,31.5z"/>
		</g>
		<g>
			<polygon fill-rule="evenodd" clip-rule="evenodd" fill="#E58A7B" points="117.3,43.8 121.9,54.4 129.2,44.4 123,44.6 			"/>
		</g>
		<g>
			<path fill-rule="evenodd" clip-rule="evenodd" fill="#29130A" d="M115.9,33.7C115.9,33.7,115.9,33.7,115.9,33.7
				c0,0-1-0.5-0.7-1.6c0.1-0.5,0.3-0.7,0.6-0.9c0.4-0.2,0.8-0.1,1.6,0.1c0,0,0.1,0,0,0.1c0,0,0,0-0.1,0c-0.8-0.2-1.2-0.3-1.5-0.1
				c-0.2,0.1-0.4,0.4-0.5,0.8c-0.3,1,0.6,1.4,0.6,1.4C116,33.6,116,33.6,115.9,33.7C116,33.7,115.9,33.7,115.9,33.7z"/>
		</g>
		<g>
			<path fill-rule="evenodd" clip-rule="evenodd" fill="#E58A7B" d="M127.6,37.7c0,0-0.6,4.2,0.2,5.1c0.7,0.8,2.2,1.2,2.2,1.2
				s-1.5,3.4-7.7,2.8c-5.6-0.6-4.6-3-4.6-3s2.2-0.8,2.7-1.3c0.5-0.5,0.5-3.7,0.5-3.7L127.6,37.7z"/>
		</g>
		<g>
			<path fill-rule="evenodd" clip-rule="evenodd" fill="#29130A" d="M127.1,37.9l-2.7,0.2l-3.6,0.5c0,0,0,1.6-0.1,2.7
				C121.8,41.4,124.9,41.2,127.1,37.9z"/>
		</g>
		<g>
			<path fill-rule="evenodd" clip-rule="evenodd" fill="#E58A7B" d="M117.4,26.1c-0.5,1.1,0,2.9-0.4,5.2c-0.4,2.4-0.6,7.1,2.8,8
				c2.4,0.6,4.8,0.3,6.5-0.5c1.6-0.8,2.7-2.2,3.2-3.8l1.6-5.3c1-3.4-1.1-7.1-4.6-8c-0.1,0-0.2,0-0.3-0.1
				C119.1,20.4,117.4,26.1,117.4,26.1z"/>
		</g>
		<g>
			<path fill-rule="evenodd" clip-rule="evenodd" fill="#29130A" d="M124.6,31.9c0-0.4-0.1-0.7-0.2-0.7c-0.2,0-0.3,0.3-0.4,0.7
				c0,0.4,0.1,0.7,0.2,0.7C124.4,32.6,124.6,32.3,124.6,31.9z"/>
		</g>
		<g>
			<path fill-rule="evenodd" clip-rule="evenodd" fill="#29130A" d="M119.3,31.3c0-0.4-0.1-0.7-0.2-0.7c-0.2,0-0.3,0.3-0.4,0.7
				c0,0.4,0.1,0.7,0.2,0.7C119.1,32,119.2,31.7,119.3,31.3z"/>
		</g>
		<g>
			<path fill-rule="evenodd" clip-rule="evenodd" fill="#29130A" d="M120.9,34.6C120.9,34.6,120.9,34.6,120.9,34.6
				c0.1-0.1,0.1-0.1,0.1-0.1c0,0-0.5-0.5-0.6-1.2c0-0.3,0.2-0.5,0.4-0.7c0.3-0.2,0.6-0.4,0.6-0.9c0,0,0-0.1-0.1-0.1
				c0,0-0.1,0-0.1,0.1c-0.1,0.4-0.3,0.6-0.6,0.8c-0.3,0.2-0.5,0.4-0.5,0.8C120.3,34.1,120.8,34.6,120.9,34.6
				C120.8,34.6,120.8,34.7,120.9,34.6z"/>
		</g>
		<g>
			<path fill-rule="evenodd" clip-rule="evenodd" fill="#29130A" d="M125.3,30.8c-0.1,0-0.1,0-0.2-0.1c0,0-0.5-0.5-1.5-0.3
				c-0.1,0-0.3-0.1-0.3-0.2c0-0.1,0.1-0.3,0.2-0.3c1.2-0.2,1.9,0.5,1.9,0.5c0.1,0.1,0.1,0.2,0,0.3C125.5,30.8,125.4,30.9,125.3,30.8
				z"/>
		</g>
		<g>
			<path fill-rule="evenodd" clip-rule="evenodd" fill="#29130A" d="M120,30.1c-0.1,0-0.1,0-0.2,0c0,0-0.7-0.3-1.5,0.1
				c-0.1,0.1-0.3,0-0.3-0.1c-0.1-0.1,0-0.3,0.1-0.3c1.1-0.5,1.9-0.2,2-0.2c0.1,0.1,0.2,0.2,0.1,0.3C120.1,30,120.1,30.1,120,30.1z"
				/>
		</g>
		<g>
			<path fill-rule="evenodd" clip-rule="evenodd" fill="#2B183B" d="M129,32.7c0,0-2.5-3.1-3.6-7.1c0,0-1.9,0.8-3.9,1.2
				c-2,0.3-3-0.1-4.1,1.5c-1.1,1.6-0.6-0.8-0.6-0.8s1.1-8.1,10.5-5.5c9.3,2.7,2.8,11.8,2.8,11.8L129,32.7z"/>
		</g>
		<g>
			<path fill-rule="evenodd" clip-rule="evenodd" fill="#DE5051" d="M125.4,33.2c0.3,0.2,0.6,0.5,0.3,0.9c-0.1,0.1-0.2,0.1-0.4,0.2
				c-0.6,0.1-1.4,0.1-2-0.1c-0.2-0.1-0.6-0.2-0.5-0.5c0.1-0.1,0.2-0.2,0.3-0.3c0.5-0.3,1.2-0.4,1.8-0.3
				C125.1,33,125.2,33.1,125.4,33.2z"/>
		</g>
		<g>
			<path fill-rule="evenodd" clip-rule="evenodd" fill="#DE5051" d="M119.2,32.8c0.3,0.2,0.6,0.5,0.3,0.8c-0.1,0.1-0.2,0.1-0.3,0.2
				c-0.6,0.1-1.2,0.1-1.8-0.1c-0.2-0.1-0.5-0.2-0.4-0.5c0.1-0.1,0.2-0.2,0.3-0.3c0.5-0.2,1-0.3,1.6-0.2
				C118.9,32.6,119.1,32.7,119.2,32.8z"/>
		</g>
		<g>
			<path fill-rule="evenodd" clip-rule="evenodd" fill="#FFFFFF" d="M125.4,25.5C125.4,25.5,125.4,25.5,125.4,25.5
				c1.4-0.9,2.5-3,2.5-3.1c0,0,0-0.1,0-0.1c0,0-0.1,0-0.1,0c0,0-1.1,2.2-2.4,3.1C125.3,25.4,125.3,25.4,125.4,25.5
				C125.4,25.5,125.4,25.5,125.4,25.5z"/>
		</g>
		<g>
			<path fill-rule="evenodd" clip-rule="evenodd" fill="#FFFFFF" d="M121.1,35.5c-0.3,0.1-0.7,0.1-1,0.1c-0.4,0.1-0.6,0.3-0.5,0.6
				c0.4,1.5,2.5,1.3,3.6,0.9c0.3-0.1,0.5-0.2,0.7-0.5c0.3-0.4,0.4-1.2-0.1-1.5c-0.4-0.3-1-0.1-1.4,0c-0.4,0.1-0.8,0.2-1.1,0.3
				C121.2,35.5,121.1,35.5,121.1,35.5z"/>
		</g>
		<g>
			<path fill-rule="evenodd" clip-rule="evenodd" fill="#29130A" d="M129.5,67.2c1-0.1,2.1-0.3,3.4-0.9c0.1,0,0.1-0.1,0.1-0.2
				c0-0.1-0.1-0.1-0.2-0.1c-6.4,2.8-9.5-2.1-9.6-2.1c0-0.1-0.1-0.1-0.2-0.1c-0.1,0-0.1,0.1-0.1,0.2C123,64.1,125.1,67.5,129.5,67.2z
				"/>
		</g>
		<g>
			<path fill-rule="evenodd" clip-rule="evenodd" fill="#29130A" d="M119.8,80.3c8,0,16.7-2.7,16.9-2.7c0,0,0.1-0.1,0.1-0.1
				c0,0-0.1-0.1-0.1-0.1c-0.2,0.1-17.8,5.5-25.8,0.9c0,0-0.1,0-0.1,0c0,0,0,0.1,0,0.1C113.2,79.8,116.4,80.3,119.8,80.3z"/>
		</g>
		<g>
			<path fill-rule="evenodd" clip-rule="evenodd" fill="#29130A" d="M143.4,95.9C143.4,95.9,143.5,95.9,143.4,95.9
				c0.5-8.4-8.3-17.8-8.4-17.9c0,0-0.1,0-0.1,0c0,0,0,0.1,0,0.1C134.9,78.2,143.7,87.5,143.4,95.9C143.3,95.9,143.3,95.9,143.4,95.9
				C143.4,95.9,143.4,95.9,143.4,95.9z"/>
		</g>
		<g>
			<path fill-rule="evenodd" clip-rule="evenodd" fill="#2B183B" d="M117,29.4C117.1,29.4,117.1,29.4,117,29.4
				c0.3-1.1,1.9-1.9,3.5-2c1.7-0.1,3.9-0.8,4.7-1.9c0,0,0-0.1,0-0.1c0,0-0.1,0-0.1,0c-0.7,1-2.8,1.7-4.5,1.8
				C118.9,27.4,117.1,28.1,117,29.4C116.9,29.4,117,29.4,117,29.4C117,29.4,117,29.4,117,29.4z"/>
		</g>
		<g>
			<path fill-rule="evenodd" clip-rule="evenodd" fill="#FFFFFF" d="M130.5,31.9C130.6,31.9,130.6,31.9,130.5,31.9
				c0.1-0.1,0.1-0.2,0-0.2c-1.7-0.1-2.7-2.9-3.3-4.7c-0.3-0.8-0.5-1.4-0.7-1.6c0,0-0.1,0-0.1,0c0,0,0,0.1,0,0.1
				c0.2,0.3,0.4,0.9,0.7,1.6C127.8,29,128.7,31.8,130.5,31.9C130.5,31.9,130.5,31.9,130.5,31.9z"/>
		</g>
		<g>
			<path fill-rule="evenodd" clip-rule="evenodd" fill="#E58A7B" d="M128.4,32.6c0,0,1.7-1.7,3.1-1.2c1.4,0.5,1.7,3.5,0.1,4.1
				c-1.5,0.6-3.4-0.6-3.4-0.6L128.4,32.6z"/>
		</g>
		<g>
			<path fill-rule="evenodd" clip-rule="evenodd" fill="#29130A" d="M131.2,34.8C131.2,34.8,131.2,34.8,131.2,34.8
				c0,0,1-0.5,0.7-1.6c-0.1-0.5-0.3-0.7-0.6-0.9c-0.3-0.2-0.8-0.1-1.6,0.1c0,0-0.1,0,0,0.1c0,0,0,0,0.1,0c0.8-0.2,1.2-0.3,1.5-0.1
				c0.2,0.1,0.4,0.4,0.5,0.8c0.3,1-0.6,1.4-0.6,1.4C131.1,34.7,131.1,34.7,131.2,34.8C131.2,34.8,131.2,34.8,131.2,34.8z"/>
		</g>
		<g>
			<path fill-rule="evenodd" clip-rule="evenodd" fill="#DE5051" d="M151,69.1c1.5,4.8,2,8.7,2.3,11.6
				C150.3,77.6,149.1,72.7,151,69.1z"/>
		</g>
		<g>
			<path fill-rule="evenodd" clip-rule="evenodd" fill="#E58A7B" d="M144,81.9c-0.4-5.2-1.7-12.7-8.2-24.7l8.3-4.2
				c3.4,6.3,5.6,11.7,6.9,16.1c-1.9,3.6-0.7,8.5,2.3,11.6c0,0.2,0,0.4,0,0.6c0.5,6.8-0.5,14.4-0.5,14.7l-9.3-0.5
				C143.6,95.5,144.5,87.8,144,81.9z"/>
		</g>
		<g>
			<path fill-rule="evenodd" clip-rule="evenodd" fill="#29130A" d="M138.1,62l1.3,2.6c0,0,5.5-1.5,6.7-4.9
				C147.4,56.3,138.1,62,138.1,62z"/>
		</g>
		<g>
			<path fill-rule="evenodd" clip-rule="evenodd" fill="#F5DCC0" d="M134.9,44.5c3.6,0.7,6.8,1.9,10.3,6.1c3.5,4.2,4.6,5.9,4.6,5.9
				s-4.4,7.4-12.6,6.4c0,0-5-6.2-5-6.5C132.2,56,134.9,44.5,134.9,44.5z"/>
		</g>
		<g>
			<path fill-rule="evenodd" clip-rule="evenodd" fill="#29130A" d="M137.2,63C137.2,63,137.2,63,137.2,63c0.1,0,0.1-0.1,0.1-0.1
				c-0.1-0.1-1.6-3.3-2.1-3.9c0,0-0.1,0-0.1,0c0,0,0,0.1,0,0.1C135.5,59.7,137.1,62.9,137.2,63C137.1,63,137.2,63,137.2,63z"/>
		</g>
		<g>
			<path fill-rule="evenodd" clip-rule="evenodd" fill="#29130A" d="M136,60.8C136,60.8,136.1,60.8,136,60.8c0.1-0.1,0.1-0.1,0-0.2
				l-1.3-0.9c0,0-0.1,0-0.1,0c0,0,0,0.1,0,0.1L136,60.8C136,60.8,136,60.8,136,60.8z"/>
		</g>
		<g>
			<path fill-rule="evenodd" clip-rule="evenodd" fill="#29130A" d="M143,50.8C143,50.8,143,50.7,143,50.8c0.1-0.1,0.1-0.1,0-0.2
				c-1-0.3-5-1.2-5.2-1.3c0,0-0.1,0-0.1,0.1c0,0,0,0.1,0.1,0.1C137.8,49.5,142,50.4,143,50.8C143,50.8,143,50.8,143,50.8z"/>
		</g>
		<g>
			<path fill-rule="evenodd" clip-rule="evenodd" fill="#29130A" d="M145,53C145.1,53,145.1,52.9,145,53c0.1-0.1,0.1-0.1,0-0.2
				l-4.6-1.8c0,0-0.1,0-0.1,0c0,0,0,0.1,0,0.1L145,53C145,53,145,53,145,53z"/>
		</g>
		<g>
			<path fill-rule="evenodd" clip-rule="evenodd" fill="#29130A" d="M107.8,58.4C107.8,58.4,107.7,58.4,107.8,58.4
				c-0.1,0-0.1-0.1-0.1-0.1l2-2.7c0,0,0.1-0.1,0.1,0c0,0,0.1,0.1,0,0.1L107.8,58.4C107.8,58.4,107.8,58.4,107.8,58.4z"/>
		</g>
		<g>
			<path fill-rule="evenodd" clip-rule="evenodd" fill="#29130A" d="M108.7,57.1C108.7,57.1,108.7,57.1,108.7,57.1
				c-0.1,0-0.1-0.1-0.1-0.1l0.3-1.9c0-0.1,0.1-0.1,0.1-0.1c0.1,0,0.1,0.1,0.1,0.1L108.7,57.1C108.8,57.1,108.8,57.1,108.7,57.1z"/>
		</g>
		<g>
			<path fill-rule="evenodd" clip-rule="evenodd" fill="#FFFFFF" d="M120.9,57.2c0-0.3,0.2-0.5,0.5-0.5c0.3,0,0.5,0.2,0.5,0.5
				s-0.2,0.5-0.5,0.5C121.1,57.8,120.9,57.5,120.9,57.2z"/>
		</g>
		<g>
			<path fill-rule="evenodd" clip-rule="evenodd" fill="#FFFFFF" d="M119.7,61.1c0-0.3,0.2-0.5,0.5-0.5c0.3,0,0.5,0.2,0.5,0.5
				c0,0.3-0.2,0.5-0.5,0.5C120,61.6,119.7,61.3,119.7,61.1z"/>
		</g>
		<g>
			<path fill-rule="evenodd" clip-rule="evenodd" fill="#FFFFFF" d="M119.4,64.8c0-0.3,0.2-0.5,0.5-0.5s0.5,0.2,0.5,0.5
				s-0.2,0.5-0.5,0.5S119.4,65.1,119.4,64.8z"/>
		</g>
		<g>
			<path fill-rule="evenodd" clip-rule="evenodd" fill="#FFFFFF" d="M119.5,68.4c0-0.3,0.2-0.5,0.5-0.5c0.3,0,0.5,0.2,0.5,0.5
				s-0.2,0.5-0.5,0.5C119.7,68.9,119.5,68.7,119.5,68.4z"/>
		</g>
		<g>
			<path fill-rule="evenodd" clip-rule="evenodd" fill="#FFFFFF" d="M119.6,71.6c0-0.3,0.2-0.5,0.5-0.5c0.3,0,0.5,0.2,0.5,0.5
				s-0.2,0.5-0.5,0.5C119.9,72.1,119.6,71.9,119.6,71.6z"/>
		</g>
		<g>
			<path fill-rule="evenodd" clip-rule="evenodd" fill="#FFFFFF" d="M120,75.2c0-0.3,0.2-0.5,0.5-0.5c0.3,0,0.5,0.2,0.5,0.5
				c0,0.3-0.2,0.5-0.5,0.5C120.2,75.7,120,75.5,120,75.2z"/>
		</g>
		<g>
			<path fill-rule="evenodd" clip-rule="evenodd" fill="#184276" d="M137.6,95.6c-0.6-6-6.4-18-6.5-18.7c-0.1-0.7-1.8-13.7-0.3-20.6
				L110.7,56c0,0-2.7,9.2,0.7,20.8c0,0-3.2,7.5-3.4,8.5c-0.2,1-1.5,6.7-1.9,10.5L137.6,95.6z"/>
		</g>
		<g>
			<g>
				<path fill-rule="evenodd" clip-rule="evenodd" fill="#FFFFFF" d="M115.9,61.5c0-1.7,0-3.5,0-5.3c0-0.1,0-0.1,0-0.2l-0.3,0
					c0,0.1,0,0.2,0,0.2c0,1.8,0,3.6,0,5.3c0.2,11.4,0.8,22.8,1.9,34.2l0.3,0C116.7,84.4,116.1,72.9,115.9,61.5z"/>
			</g>
			<g>
				<path fill-rule="evenodd" clip-rule="evenodd" fill="#FFFFFF" d="M111.6,95.7l0.3,0c0.9-4.3,1.5-8.8,1.6-13.2
					c0-1.5,0-3.4-0.2-5.4c-0.1-0.5-0.2-1.1-0.3-1.6c-0.1-0.6-0.2-1.2-0.3-1.8c-0.2-1.6-0.2-3.3-0.2-5l0.1-12.5c0-0.1,0-0.2,0-0.4
					l-0.3,0c0,0.1,0,0.2,0,0.4l-0.1,12.5c0,1.6,0,3.4,0.2,5c0.1,0.6,0.2,1.2,0.3,1.8c0.1,0.5,0.2,1,0.3,1.6c0.3,1.9,0.3,3.8,0.2,5.3
					C113,87,112.5,91.4,111.6,95.7z"/>
			</g>
			<g>
				<path fill-rule="evenodd" clip-rule="evenodd" fill="#FFFFFF" d="M123.7,75.6c-0.7-6.4-0.9-12.9-0.6-19.4l-0.3,0
					c-0.4,6.5-0.2,13,0.6,19.4c0.8,6.7,2.2,13.5,3.6,20l0.3,0C125.9,89.1,124.5,82.4,123.7,75.6z"/>
			</g>
			<g>
				<path fill-rule="evenodd" clip-rule="evenodd" fill="#FFFFFF" d="M122.2,91.7c0.1-1,0.1-2.1,0-3.2c-0.1-1.4-0.4-2.8-0.7-4.2
					c-0.1-0.6-0.2-1.1-0.4-1.7c-0.7-3.6-0.8-7.4-0.9-11c-0.1-2.8-0.1-5.8-0.5-8.6c-0.1-0.6-0.2-1.2-0.3-1.8
					c-0.2-1.7-0.5-3.4-0.5-5.1l-0.3,0c0,1.7,0.2,3.4,0.5,5.1c0.1,0.6,0.2,1.2,0.2,1.8c0.4,2.8,0.4,5.8,0.5,8.6
					c0.1,3.6,0.2,7.4,0.9,11c0.1,0.6,0.2,1.1,0.4,1.7c0.3,1.4,0.6,2.8,0.7,4.2c0.1,1,0,2.1,0,3.1c-0.1,1.3-0.1,2.7,0,4l0.3,0
					C122,94.4,122.1,93,122.2,91.7z"/>
			</g>
			<g>
				<path fill-rule="evenodd" clip-rule="evenodd" fill="#FFFFFF" d="M131.7,95.6c0-2.5,0-5-0.6-7.4c-0.4-1.5-1-3-1.5-4.4
					c-0.5-1.1-0.9-2.3-1.3-3.5c-0.9-3-1.1-6.1-1.2-9.1c-0.1-5,0.1-10,0.6-15l-0.3,0c-0.6,5-0.8,10-0.6,15c0.1,3,0.3,6.1,1.2,9.1
					c0.4,1.2,0.8,2.4,1.3,3.5c0.6,1.4,1.2,2.9,1.5,4.4c0.6,2.4,0.6,4.9,0.6,7.3L131.7,95.6z"/>
			</g>
		</g>
		<g>
			<path fill-rule="evenodd" clip-rule="evenodd" fill="#184276" d="M129.5,57.4C129.5,57.4,129.5,57.4,129.5,57.4
				c-0.3,0-0.5-0.2-0.4-0.5c0.5-3.7,2.8-11.4,4.4-13.1c0.2-0.2,0.5-0.2,0.6,0c0.2,0.2,0.2,0.4,0,0.6c-1.4,1.5-3.7,8.8-4.2,12.6
				C129.9,57.3,129.7,57.4,129.5,57.4z"/>
		</g>
		<g>
			<path fill-rule="evenodd" clip-rule="evenodd" fill="#184276" d="M111.2,56.9C111.2,56.9,111.2,56.9,111.2,56.9
				c-0.3,0-0.5-0.2-0.4-0.5c0.2-2.8,2.2-10.6,4-13.2c0.1-0.2,0.4-0.2,0.6-0.1c0.2,0.1,0.3,0.4,0.1,0.6c-1.7,2.5-3.6,10.1-3.8,12.8
				C111.6,56.7,111.4,56.9,111.2,56.9z"/>
		</g>
		<g>
			<path fill-rule="evenodd" clip-rule="evenodd" fill="#184276" d="M130.7,77.4c-0.2,0-0.4-0.2-0.4-0.4c0-0.2,0.1-0.5,0.4-0.5
				c0,0,2-0.2,3.6-1.1c0.2-0.1,0.5,0,0.6,0.2c0.1,0.2,0,0.5-0.2,0.6C132.9,77.2,130.8,77.4,130.7,77.4
				C130.7,77.4,130.7,77.4,130.7,77.4z"/>
		</g>
		<g>
			<g>
				<path fill-rule="evenodd" clip-rule="evenodd" fill="#E58A7B" d="M96.7,49.4c0,0,2.2-2.9,1-6.1c-0.7-1.9-3.2-4.1-3.2-4.1
					s-8.3,1.3-8.4,3c-0.1,1.8,2,8,2,8L96.7,49.4z"/>
			</g>
			<g>
				<path fill-rule="evenodd" clip-rule="evenodd" fill="#E58A7B" d="M96.6,47.1c0.5-0.1,0.8-0.5,0.9-0.9c0.6-2.9,1.4-6.4,1.9-7
					c0.4-0.5,0.2-1.3-0.3-1.6c-0.6-0.4-1.3-0.2-1.7,0.3c-0.9,1.3-1.9,6.3-2.2,7.9c-0.1,0.6,0.3,1.3,1,1.4
					C96.2,47.1,96.4,47.1,96.6,47.1z"/>
			</g>
			<g>
				<path fill-rule="evenodd" clip-rule="evenodd" fill="#E58A7B" d="M94.4,43.2c0.1,0,0.2,0,0.3-0.1c0.6-0.2,1-0.9,0.8-1.5
					c0,0-1.4-4.6-1.9-6.8l-0.5-2.3c-0.1-0.6-0.8-1.1-1.4-0.9c-0.7,0.1-1.1,0.8-0.9,1.4l0.5,2.3c0.5,2.3,1.9,6.9,2,7.1
					C93.4,42.8,93.9,43.2,94.4,43.2z"/>
			</g>
			<g>
				<path fill-rule="evenodd" clip-rule="evenodd" fill="#29130A" d="M92.8,48.6C92.8,48.6,92.8,48.6,92.8,48.6
					c0.1,0,0.1-0.1,0.1-0.1c-1.5-3.6,1.8-5.3,1.9-5.3c0,0,0.1-0.1,0-0.1c0,0-0.1-0.1-0.1,0c0,0-3.5,1.8-2,5.6
					C92.7,48.6,92.8,48.6,92.8,48.6z"/>
			</g>
			<g>
				<path fill-rule="evenodd" clip-rule="evenodd" fill="#29130A" d="M87.6,42.7C87.6,42.7,87.6,42.7,87.6,42.7
					c0.1,0,4.6-1.7,6.3-2.1c0.1,0,0.1-0.1,0.1-0.1c0-0.1-0.1-0.1-0.1-0.1c-1.7,0.5-6.2,2.1-6.2,2.1c-0.1,0-0.1,0.1-0.1,0.1
					C87.5,42.7,87.6,42.7,87.6,42.7z"/>
			</g>
			<g>
				<g>
					<path fill-rule="evenodd" clip-rule="evenodd" fill="#DF6868" d="M90.5,38.1c-0.5,0.2-0.9,0.5-1,1c-0.3-0.3-0.8-0.3-1.3-0.2
						c-0.5,0.2-0.9,0.6-1,1.1c0,0.1,0,0.1,0,0.2c-0.3-0.3-0.8-0.4-1.2-0.2c-0.5,0.2-0.8,0.5-0.9,0.9c0,0.1,0,0.3,0,0.4l1,3.1
						c0.2,0.6,0.8,0.8,1.5,0.6c0.5-0.1,0.8-0.5,0.9-0.9c0.3,0.4,0.9,0.6,1.5,0.4c0.5-0.2,0.9-0.5,1-1c0.3,0.3,0.8,0.3,1.3,0.2
						c0.5-0.2,0.9-0.6,1-1.1c-0.2-1.6-0.6-2.7-1.3-4.6C91.7,38,90.8,38,90.5,38.1z"/>
				</g>
				<g>
					<path fill-rule="evenodd" clip-rule="evenodd" fill="#29130A" d="M93.2,42.6C93.3,42.6,93.3,42.6,93.2,42.6
						C93.3,42.6,93.3,42.6,93.2,42.6l-1.2-4.1c0,0,0,0-0.1,0c0,0,0,0,0,0.1L93.2,42.6C93.2,42.6,93.2,42.6,93.2,42.6z"/>
				</g>
				<g>
					<path fill-rule="evenodd" clip-rule="evenodd" fill="#29130A" d="M91,43.7C91,43.7,91,43.7,91,43.7C91,43.7,91.1,43.7,91,43.7
						l-0.6-2.6c0,0,0,0-0.1,0c0,0,0,0,0,0.1L91,43.7C90.9,43.7,91,43.7,91,43.7z"/>
				</g>
				<g>
					<path fill-rule="evenodd" clip-rule="evenodd" fill="#29130A" d="M88.1,43.2C88.1,43.2,88.2,43.2,88.1,43.2
						C88.2,43.2,88.2,43.2,88.1,43.2l-0.6-2.9c0,0,0,0-0.1,0c0,0,0,0,0,0.1L88.1,43.2C88.1,43.2,88.1,43.2,88.1,43.2z"/>
				</g>
				<g>
					<path fill-rule="evenodd" clip-rule="evenodd" fill="#29130A" d="M88.5,44.2C88.5,44.2,88.5,44.2,88.5,44.2
						C88.5,44.2,88.6,44.2,88.5,44.2l0-0.5c0,0,0,0-0.1,0c0,0,0,0,0,0.1L88.5,44.2C88.5,44.2,88.5,44.2,88.5,44.2z"/>
				</g>
				<g>
					<path fill-rule="evenodd" clip-rule="evenodd" fill="#29130A" d="M91.1,42.5C91.1,42.5,91.1,42.5,91.1,42.5l0.2,0.9
						c0,0,0,0,0,0c0,0,0.6,0.2,1.2-0.1c0,0,0,0,0-0.1c0,0,0,0-0.1,0c-0.5,0.2-1,0.1-1.1,0.1l-0.2-0.9c0.5-0.6,1.3-0.6,1.4-0.6
						l0.2,0.8c0,0,0,0,0.1,0c0,0,0,0,0-0.1l-0.2-0.8c0,0,0,0,0,0C92.7,41.8,91.7,41.7,91.1,42.5C91.1,42.5,91.1,42.5,91.1,42.5z"/>
				</g>
				<g>
					<path fill-rule="evenodd" clip-rule="evenodd" fill="#29130A" d="M88.7,43.2C88.7,43.2,88.7,43.2,88.7,43.2l0.2,0.9
						c0,0,0,0,0,0c0,0,0.6,0.2,1.2-0.1c0,0,0,0,0-0.1c0,0,0,0-0.1,0c-0.5,0.2-1,0.1-1.1,0.1l-0.2-0.9c0.5-0.6,1.3-0.6,1.4-0.6
						l0.2,0.8c0,0,0,0,0.1,0c0,0,0,0,0-0.1l-0.2-0.8c0,0,0,0,0,0C90.3,42.5,89.3,42.4,88.7,43.2C88.7,43.2,88.7,43.2,88.7,43.2z"/>
				</g>
				<g>
					<path fill-rule="evenodd" clip-rule="evenodd" fill="#29130A" d="M86.2,43.7C86.2,43.7,86.2,43.7,86.2,43.7l0.2,0.9
						c0,0,0,0,0,0c0,0,0.5,0.2,1.1-0.1c0,0,0,0,0-0.1c0,0,0,0-0.1,0c-0.5,0.2-0.9,0.1-1,0.1l-0.2-0.8c0.4-0.6,1.2-0.5,1.4-0.5
						l0.2,0.7c0,0,0,0,0.1,0c0,0,0,0,0-0.1l-0.2-0.8c0,0,0,0,0,0C87.8,43.1,86.8,42.9,86.2,43.7C86.2,43.6,86.2,43.7,86.2,43.7z"/>
				</g>
			</g>
		</g>
		<g>
			<path fill-rule="evenodd" clip-rule="evenodd" fill="#F5DCC0" d="M132.1,44.2c-2.6-0.7-4-0.8-4.5-3c0,0-3.1,1.9-6.9,0.5l-0.8,1
				l-3.7,1.3l4.5,11l3.8-0.4L132.1,44.2z"/>
		</g>
		<g>
			<g>
				<path fill-rule="evenodd" clip-rule="evenodd" fill="#F5DCC0" d="M130.6,15.3c6.1,1.6,5.4,7.1,5.4,7.1s5,1.6,4,4.3
					c-1,2.7-7.8,2.6-11.7-1.8c0,0-7.8,0.5-11.1-2.8c-3.3-3.3-1.6-6,1.9-7.5c1.8-0.8,6.1,0.9,6.1,0.9S126.4,14.2,130.6,15.3z"/>
			</g>
			<g>
				<path fill-rule="evenodd" clip-rule="evenodd" fill="#F7E8D9" d="M133.3,30.1c0,0-9.2-4.9-17.4-3.2c0,0,1.2-4.2,1.4-4.9
					c0.1-0.2,1.3-0.4,2.9-0.6c4.5-0.4,9.1,0.9,12.6,3.6l1.4,1.1L133.3,30.1z"/>
			</g>
			<g>
				<path fill-rule="evenodd" clip-rule="evenodd" fill="#29130A" d="M128.8,22.1c-0.2,0-0.3,0-0.4-0.1c-0.1-0.1-0.1-0.1-0.1-0.2
					c0-0.2,0.3-0.3,0.7-0.5c0.5-0.3,1.1-0.6,1.2-1c0,0,0-0.1,0.1,0c0,0,0.1,0,0.1,0.1c-0.1,0.5-0.7,0.8-1.2,1.1
					c-0.3,0.2-0.6,0.3-0.6,0.4c0,0,0,0,0.1,0.1c0.5,0.3,3.3-0.6,4-1.4c0,0,0.1,0,0.1,0c0,0,0,0.1,0,0.1
					C132,21.2,129.8,22.1,128.8,22.1z"/>
			</g>
			<g>
				<path fill-rule="evenodd" clip-rule="evenodd" fill="#29130A" d="M119.9,21.1C119.9,21.1,119.9,21.1,119.9,21.1
					c-0.9-0.6-1.4-2.5-1.4-2.6c0,0,0-0.1,0.1-0.1c0,0,0.1,0,0.1,0c0,0,0.5,1.9,1.3,2.5C120,21,120,21,119.9,21.1
					C120,21.1,120,21.1,119.9,21.1z"/>
			</g>
			<g>
				<path fill-rule="evenodd" clip-rule="evenodd" fill="#29130A" d="M119.2,21C119.2,21,119.2,21,119.2,21
					c-0.6-0.2-1.7-1.6-1.7-1.6c0,0,0-0.1,0-0.1c0,0,0.1,0,0.1,0c0,0,1.1,1.4,1.7,1.6C119.2,20.9,119.2,20.9,119.2,21
					C119.2,21,119.2,21,119.2,21z"/>
			</g>
			<g>
				<path fill-rule="evenodd" clip-rule="evenodd" fill="#29130A" d="M130.6,23C130.5,23,130.5,23,130.6,23c-0.1-0.1,0-0.1,0-0.1
					c0.8,0,1.5-0.5,1.5-0.5c0,0,0.1,0,0.1,0c0,0,0,0.1,0,0.1C132.1,22.5,131.4,23,130.6,23L130.6,23z"/>
			</g>
		</g>
	</g>
	<g>
		<g>
			<path fill-rule="evenodd" clip-rule="evenodd" fill="#FFFFFF" d="M75.5,37.7c0-2.7,7.4-4.9,16.6-5c9.2-0.1,16.7,2,16.7,4.6
				c0,2.7-7.4,4.9-16.6,5C83,42.4,75.5,40.3,75.5,37.7z"/>
		</g>
		<g>
			<path fill-rule="evenodd" clip-rule="evenodd" fill="#FFFFFF" d="M80.8,42.1c2,1.6,5.5,1.7,7.9,1.9c3.1,0.3,6.2,0.2,9.3-0.1
				c1.9-0.2,4.3-0.5,5.6-2c0.2-0.3,0.4-0.7,0.5-1c0.5-1.2,1.2-2.3,2.1-3.2C99.1,38,91.9,38.1,84.8,38c-1.9,0-4-0.1-5.6,1
				C79.5,40.1,79.9,41.3,80.8,42.1z"/>
		</g>
		<g>
			<path fill-rule="evenodd" clip-rule="evenodd" fill="#EFC495" d="M98.5,29.2c-2.7-1.3-5.8-1.8-8.7-1.1c-1.4,0.3-2.9,0.9-3.5,2.2
				c-0.3,0.6-0.4,1.3-0.9,1.7c-0.9,1-2.6,0.5-3.8,1.1c-1.1,0.5-1.7,1.7-2.6,2.5c-0.4,0.3-0.9,0.6-1.1,1.1c-0.2,0.5,0.1,1,0.6,1.4
				c0.4,0.3,1,0.4,1.5,0.5c5.1,1,10.3,1,15.5,1c1.8,0,3.7,0,5.5-0.3c1.5-0.2,2.9-0.7,4.2-1.3c0.6-0.8,0.1-2.1-0.6-2.8
				c-0.8-0.7-1.8-1.2-2.4-2.1c-0.3-0.5-0.5-1-0.8-1.5C100.7,30.5,99.6,29.7,98.5,29.2z"/>
		</g>
		<g>
			<g>
				<path fill-rule="evenodd" clip-rule="evenodd" fill="#F2D086" d="M93.7,29.5c-0.3,0.5-0.5,1.1-0.6,1.7c-0.1,0.4-0.1,0.7-0.3,1.1
					c-0.3,1-1.1,1.9-2.1,2.4c-1,0.5-2.3,0.4-3.2-0.1c-0.7-0.4-1.2-1.1-1.7-1.7c-0.1-0.1-0.2-0.3-0.3-0.4c-0.1-0.1-0.2-0.2-0.3-0.4
					c0,0,0.1-0.1,0.1-0.1c0,0,0.1-0.1,0.1-0.1c0.1,0.1,0.2,0.3,0.3,0.4c0.1,0.1,0.2,0.3,0.3,0.5c0.5,0.6,0.9,1.2,1.6,1.6
					c0.8,0.5,2,0.5,2.9,0.1c0.9-0.4,1.6-1.2,1.9-2.2c0.1-0.3,0.2-0.7,0.2-1.1c0.1-0.6,0.2-1.3,0.6-1.8c0.4-0.6,1.1-1,1.8-1.3
					c0.2,0,0.4,0.1,0.6,0.1C94.9,28.4,94.2,28.8,93.7,29.5z"/>
			</g>
			<g>
				<path fill-rule="evenodd" clip-rule="evenodd" fill="#F2D086" d="M91,28c-0.4,0.5-0.5,1.1-0.5,1.7c0,0.2,0,0.4-0.1,0.5
					c-0.1,0.9-0.7,1.9-1.6,1.9c-0.7,0-1.2-0.6-1.3-1.1c-0.2-0.6-0.1-1.2,0.1-1.7c0-0.1,0.1-0.2,0.1-0.3c0.1-0.1,0.3-0.2,0.4-0.2
					c-0.1,0.2-0.1,0.4-0.2,0.6c-0.1,0.4-0.2,1-0.1,1.6c0.1,0.4,0.5,0.9,1.1,0.9c0.7,0,1.2-0.8,1.3-1.6c0-0.2,0-0.4,0.1-0.5
					c0.1-0.6,0.1-1.2,0.5-1.7C90.8,27.9,91,27.9,91,28C91.1,27.9,91.1,27.9,91,28z"/>
			</g>
			<g>
				<path fill-rule="evenodd" clip-rule="evenodd" fill="#F2D086" d="M89.9,37.3c1-0.3,2.2-0.7,3.2-1.3c0.6-0.4,1.2-0.8,1.8-1.3
					c0.5-0.4,0.9-0.7,1.4-1.1c1.5-1,3.3-1.6,5.2-1.8c0,0.1,0.1,0.2,0.1,0.3c-1.8,0.1-3.7,0.7-5.2,1.7c-0.5,0.3-0.9,0.7-1.4,1.1
					c-0.6,0.5-1.2,0.9-1.8,1.3c-1.1,0.6-2.2,1-3.3,1.3c-1.6,0.5-3.9,1-6.3,0.9c-2.2-0.1-4.3-0.9-5.7-2.1c0.1-0.1,0.1-0.1,0.2-0.2
					c1.4,1.2,3.3,1.9,5.5,2C86.1,38.3,88.4,37.7,89.9,37.3z"/>
			</g>
			<g>
				<path fill-rule="evenodd" clip-rule="evenodd" fill="#F2D086" d="M96.3,39.2c0.8-0.4,1.5-0.9,2.2-1.3c0.9-0.6,1.8-1.1,2.8-1.6
					c0.8-0.4,2.1-0.8,3.5-0.9c0.1,0.1,0.1,0.2,0.2,0.3c-1.4,0-2.7,0.5-3.6,0.8c-1,0.4-1.9,1-2.8,1.6c-0.7,0.5-1.5,0.9-2.2,1.3
					c0,0-0.1,0.1-0.2,0.1c-0.2,0-0.5,0-0.7,0C95.9,39.4,96.1,39.3,96.3,39.2z"/>
			</g>
			<g>
				<path fill-rule="evenodd" clip-rule="evenodd" fill="#F2D086" d="M90.1,38.6c3.8-1.3,7.6-2.6,11.2-4.6l0.1-0.1
					c0.4-0.2,0.8-0.4,1.2-0.6c0.1,0.1,0.2,0.2,0.2,0.2c-0.4,0.2-0.8,0.4-1.3,0.6l-0.1,0.1c-3.5,2-7.4,3.3-11.2,4.6
					c-0.5,0.2-1.1,0.4-1.6,0.5c-0.3,0-0.6,0-0.9,0C88.5,39.2,89.3,38.9,90.1,38.6z"/>
			</g>
			<g>
				<path fill-rule="evenodd" clip-rule="evenodd" fill="#F2D086" d="M99,29.5c-0.2,0.1-0.3,0.1-0.5,0.2c-1.1,0.5-2,1.4-2.7,2.6
					c-0.2,0.2-0.3,0.5-0.4,0.7c-0.3,0.5-0.5,0.9-0.9,1.4c-1.1,1.4-2.9,2.2-5.2,2.4c-1.2,0.1-4.2,0.1-6-1.9c-0.4-0.5-0.8-1.1-1.1-1.7
					c0-0.1-0.1-0.1-0.1-0.2c0.1,0,0.2,0,0.3-0.1c0,0,0,0.1,0,0.1c0.3,0.6,0.6,1.2,1,1.7c1.6,1.9,4.5,1.9,5.7,1.8
					c1.3-0.1,3.7-0.6,5-2.3c0.3-0.4,0.6-0.9,0.8-1.3c0.1-0.3,0.3-0.5,0.4-0.8c0.8-1.2,1.7-2.1,2.9-2.7c0.1,0,0.2-0.1,0.3-0.1
					C98.8,29.3,98.9,29.4,99,29.5z"/>
			</g>
			<g>
				<path fill-rule="evenodd" clip-rule="evenodd" fill="#F2D086" d="M103.6,34.3c0.1,0.1,0.2,0.2,0.3,0.2c-2.2,0.4-4.2,1.8-5.8,2.8
					c-1.2,0.8-2.4,1.6-3.6,2.1c-0.2,0-0.5,0-0.7,0c1.4-0.5,2.7-1.4,4.2-2.4C99.5,36.1,101.5,34.8,103.6,34.3z"/>
			</g>
		</g>
		<g>
			<path fill-rule="evenodd" clip-rule="evenodd" fill="#EDB92A" d="M92.6,39.5c-0.7,0-1.2-0.1-1.6-0.3c-0.4-0.2-0.7-0.4-1-0.7
				c-0.1-0.1-0.2-0.1-0.3-0.2c-0.6-0.4-1.1-0.7-1.6-0.8c-0.9-0.2-1.8,0-2.6,0.1c-0.8,0.2-1.8,0.4-2.7,0.1c-0.9-0.2-1.7-1-1.7-1.9
				c0-0.3,0.2-0.7,0.6-0.9c0.2-0.1,0.5-0.1,0.7-0.1l2.4,0c0.7,0,1.5,0,2.2-0.1c-0.1-0.1-0.2-0.2-0.3-0.3c-0.2-0.3-0.4-0.6-0.6-1
				c-0.3-0.5-0.6-1-1-1.4c-0.6-0.6-1.6-1.2-2.5-1c-0.6,0.2-1.1,0.6-1.4,1c-0.9,1-1.5,2.3-1.8,3.6c0,0.1-0.1,0.1-0.1,0.1
				c-0.1,0-0.1-0.1-0.1-0.1c0.3-1.3,0.9-2.6,1.8-3.7c0.3-0.4,0.8-0.9,1.5-1.1c1.1-0.3,2.1,0.4,2.7,1c0.4,0.5,0.7,1,1,1.5
				c0.2,0.3,0.4,0.6,0.6,0.9c0.1,0.1,0.2,0.3,0.3,0.4c0.3-0.1,0.6-0.2,0.9-0.3c0.6-0.3,1.2-0.9,1.3-1.6c-0.2-0.4-0.2-0.7-0.2-1.1
				c-0.2-0.4-0.5-0.7-0.9-1c-0.1-0.1-0.1-0.1-0.2-0.2c-0.4,0.2-0.8,0.5-1.2,0.7c0,0-0.1,0-0.1,0c0,0,0-0.1,0-0.1
				c0.4-0.2,0.8-0.4,1.1-0.6c-0.1-0.1-0.2-0.2-0.4-0.4c-0.2-0.3-0.5-0.7-0.4-1.1c0.2-0.6,0.9-0.9,1.6-0.9c0.3,0,0.7,0,1,0.2
				c0.1,0.1,0.2,0.2,0.3,0.3c0.1-0.2,0.2-0.3,0.3-0.5c0-0.1,0.1-0.2,0.1-0.2c0.1-0.2,0.2-0.5,0.4-0.7c0.3-0.3,0.7-0.5,1.3-0.6
				c1-0.2,2.2,0.3,2.5,1.2c0,0.1,0,0.2,0,0.3c-0.1,0.2-0.3,0.3-0.4,0.3l-2.3,1c-0.5,0.2-1,0.4-1.4,0.7c0,0,0,0.1,0,0.1
				c0.1,0.4,0.1,0.9,0.3,1.2c0.5,0.8,1.5,1,2.2,0.8c0.8-0.2,1.5-0.6,2.1-1.4c0.1-0.1,0.2-0.2,0.3-0.4c0.3-0.4,0.7-0.8,1.1-1.1
				c1-0.6,2.3-0.4,3.3,0c0.8,0.3,2.3,1,2.5,2.3c0,0,0,0.1-0.1,0.1c0,0-0.1,0-0.1,0c-0.4-0.5-1-0.7-1.7-0.7c0,0,0,0,0,0
				c0.9,0.3,1.7,0.7,2.4,1.3c0.4,0.4,0.7,0.8,1.1,1.4c0.3,0.5,0.7,1.1,0.6,1.8c0,0.4-0.2,0.8-0.6,1c-0.3,0.2-0.5,0.2-0.8,0.2
				c-0.4-0.1-0.7-0.4-0.9-1c-0.1-0.2-0.1-0.3-0.1-0.5c-0.1-0.3-0.1-0.5-0.3-0.7c-0.5-1-1.9-1.2-2.9-0.8c-0.3,0.1-0.9,0.4-1.1,1
				c-0.1,0.2-0.1,0.5-0.2,0.8c0,0.1,0,0.2,0,0.3c-0.2,1.1-0.9,2.2-2,2.9c-0.9,0.6-2.1,0.9-3.3,0.9C92.7,39.5,92.6,39.5,92.6,39.5
				L92.6,39.5z M102.4,34.3L102.4,34.3c0.1,0.2,0.2,0.5,0.3,0.8c0,0.2,0.1,0.3,0.1,0.5c0.1,0.2,0.3,0.7,0.8,0.8
				c0.3,0.1,0.5,0,0.6-0.1c0.3-0.2,0.5-0.5,0.5-0.9c0-0.6-0.3-1.2-0.6-1.7c-0.3-0.5-0.6-1-1-1.3c-0.7-0.6-1.6-1-2.6-1.3
				c0,0-0.1,0-0.1-0.1c-0.3,0-0.5,0.1-0.7,0.2c-1,0.5-1.7,1.4-2.3,2.3c-0.1,0.1-0.2,0.3-0.3,0.4c-0.5,0.8-1,1.6-1.8,2.2
				c-1.2,1-3,1.4-4.6,1c-1.3-0.3-2.6-1.1-3.5-2.2c-0.8,0.2-1.6,0.2-2.4,0.2l-2.4,0c-0.2,0-0.4,0-0.6,0.1c-0.2,0.1-0.4,0.4-0.4,0.7
				c-0.1,0.8,0.7,1.5,1.5,1.7c0.9,0.2,1.8,0,2.6-0.1c0.8-0.2,1.8-0.4,2.7-0.1c0.5,0.1,1,0.4,1.6,0.9c0.1,0.1,0.2,0.1,0.3,0.2
				c0.3,0.2,0.6,0.5,0.9,0.6c0.4,0.2,0.9,0.3,1.5,0.3c1.3,0,2.4-0.3,3.4-0.9c1-0.7,1.7-1.7,1.9-2.8c0-0.1,0-0.2,0-0.3
				c0-0.3,0.1-0.6,0.2-0.8c0.2-0.5,0.6-0.9,1.2-1.1c0.3-0.1,0.7-0.2,1.1-0.2C101.2,33.2,102,33.5,102.4,34.3L102.4,34.3z M99.5,30.7
				L99.5,30.7c-0.5,0-1,0.3-1.4,0.6c-0.4,0.3-0.8,0.6-1.1,0.9c-0.6,0.5-1.2,1-1.9,1.4c-1.3,0.8-2.6,1-3.7,0.8
				c-0.7-0.2-1.4-0.7-1.8-1.3c-0.2,0.7-0.8,1.2-1.4,1.5c-0.3,0.1-0.5,0.2-0.8,0.3c0.9,1,2.1,1.7,3.3,2c1.6,0.4,3.3,0,4.5-1
				c0.7-0.6,1.2-1.4,1.8-2.2c0.1-0.1,0.2-0.3,0.3-0.4c0.6-0.9,1.3-1.9,2.4-2.4c0.1-0.1,0.3-0.1,0.5-0.2
				C99.9,30.8,99.7,30.7,99.5,30.7L99.5,30.7z M100.4,30.7L100.4,30.7c0.7-0.1,1.5,0,2,0.5c-0.4-1-1.6-1.5-2.3-1.8
				c-0.9-0.3-2.1-0.6-3.1,0c-0.4,0.3-0.8,0.7-1.1,1.1c-0.1,0.1-0.2,0.2-0.3,0.4c-0.7,0.8-1.5,1.3-2.3,1.5c-1,0.2-2-0.2-2.5-0.9
				c-0.2-0.4-0.3-0.9-0.4-1.3c0,0,0,0,0-0.1c-0.6,0.4-1,0.9-1.2,1.5c0,0,0,0,0,0c0,0,0,0.1,0.1,0.1c0.1,0.3,0.2,0.7,0.1,1
				c0.3,0.7,1,1.2,1.8,1.4c1,0.3,2.3,0,3.5-0.7c0.7-0.4,1.3-0.9,1.9-1.3c0.4-0.3,0.7-0.6,1.1-0.9c0.5-0.3,1-0.6,1.5-0.7
				c0,0,0,0,0.1,0C99.9,30.5,100.2,30.6,100.4,30.7L100.4,30.7z M90.6,29.7L90.6,29.7c-0.1-0.4-0.2-0.7-0.3-0.9
				c-0.5,0.6-1.2,1.1-1.9,1.6c0,0,0.1,0.1,0.1,0.1c0.3,0.3,0.6,0.5,0.8,0.8C89.6,30.7,90,30.2,90.6,29.7
				C90.6,29.8,90.6,29.8,90.6,29.7L90.6,29.7z M89.9,28.4L89.9,28.4c-0.3-0.2-0.6-0.2-0.9-0.2c-0.6,0-1.3,0.2-1.4,0.7
				c-0.1,0.3,0.1,0.7,0.3,0.9c0.1,0.1,0.2,0.3,0.4,0.4c0.7-0.4,1.4-0.9,1.9-1.6C90.1,28.5,90,28.5,89.9,28.4L89.9,28.4z M92.6,26.6
				L92.6,26.6c-0.5,0.1-0.9,0.3-1.2,0.5c-0.2,0.2-0.3,0.4-0.4,0.6c0,0.1-0.1,0.2-0.1,0.2c-0.1,0.2-0.2,0.4-0.4,0.6
				c0.2,0.3,0.3,0.6,0.4,1.1c0.4-0.2,0.9-0.5,1.4-0.6l2.3-1c0.1,0,0.2-0.1,0.3-0.2c0,0,0-0.1,0-0.2c-0.2-0.7-1-1.1-1.8-1.1
				C92.8,26.6,92.7,26.6,92.6,26.6z"/>
		</g>
		<g>
			<path fill-rule="evenodd" clip-rule="evenodd" fill="#EDB92A" d="M102.4,38.8c0.2,0,0.4,0,0.6-0.2c0.5-0.3,0.7-0.8,0.9-1.4
				c0.1-0.5,0.3-1.1,0-1.6c-0.4-0.9-1.6-1.2-2.5-0.9c-0.5,0.1-1,0.3-1.4,0.5c-0.4,0.2-0.8,0.4-1.2,0.5c-1.3,0.4-2.6,0.1-3.8-0.1
				c-0.5-0.1-1.1-0.3-1.6-0.6c-0.5-0.3-0.8-0.8-0.9-1.3l0-0.1c0-0.1,0-0.3-0.1-0.4c-0.1-0.1-0.1-0.1-0.2-0.2
				c-0.7-0.4-1.5-0.5-2.2-0.3c-0.5,0.1-1,0.4-1.5,0.7c-0.4,0.2-0.9,0.5-1.3,0.6c-0.7,0.2-1.4,0.1-2.1-0.2c-0.3-0.2-0.6-0.4-0.7-0.6
				c-0.2-0.5,0-1.1,0.4-1.4c0.4-0.3,1-0.5,1.6-0.4c0.6,0,1.1,0.2,1.6,0.4l0.1,0c1.2,0.4,2.4,0.7,3.6,0.5c0.6-0.1,1.1-0.4,1.7-0.7
				c0.2-0.1,0.5-0.3,0.8-0.4c0.6-0.2,1.6-0.6,2.5-0.1c0.2,0.1,0.4,0.3,0.6,0.4c0.2,0.1,0.3,0.3,0.5,0.4c0.4,0.3,1.1,0.3,1.4-0.1
				c0.2-0.3,0.3-0.7,0-1.1c-0.6-1.2-2-1.6-3-1.6c-0.9,0-1.8,0.2-2.6,0.4c-0.3,0.1-0.6,0.1-0.9,0.2c-1.5,0.3-2.5,0.2-3.4-0.2
				c-0.1-0.1-0.2-0.1-0.4-0.2c-0.2-0.1-0.4-0.3-0.7-0.3c-0.3-0.1-0.9-0.2-1.2,0.2c0,0,0,0.1,0,0.1c0,0,0.1,0,0.1,0
				c0.3-0.3,0.7-0.2,1-0.1c0.2,0.1,0.4,0.2,0.6,0.3c0.1,0.1,0.2,0.1,0.4,0.2c0.9,0.5,2,0.5,3.5,0.2c0.3-0.1,0.6-0.1,0.9-0.2
				c0.8-0.2,1.7-0.4,2.6-0.4c1,0,2.3,0.4,2.8,1.5c0.1,0.3,0.2,0.7,0,0.9c-0.3,0.3-0.8,0.2-1.1,0c-0.2-0.1-0.3-0.2-0.5-0.4
				c-0.2-0.2-0.4-0.3-0.6-0.5c-0.9-0.5-1.9-0.2-2.6,0.1c-0.3,0.1-0.5,0.3-0.8,0.4c-0.5,0.3-1,0.5-1.6,0.7c-1.1,0.3-2.3-0.1-3.5-0.4
				l-0.1,0c-0.5-0.2-1.1-0.4-1.7-0.4c-0.7-0.1-1.3,0.1-1.7,0.5c-0.5,0.4-0.7,1.1-0.5,1.7c0.1,0.3,0.4,0.5,0.8,0.7
				c0.7,0.3,1.5,0.4,2.2,0.2c0.5-0.1,1-0.4,1.4-0.6c0.4-0.3,0.9-0.5,1.4-0.6c0.7-0.2,1.5-0.1,2.1,0.3c0.1,0,0.1,0.1,0.2,0.1
				c0.1,0.1,0.1,0.2,0.1,0.3c0,0,0,0.1,0,0.1c0,0.5,0.4,1.1,1,1.4c0.5,0.3,1.1,0.5,1.6,0.6c1.1,0.3,2.6,0.5,3.9,0.1
				c0.4-0.1,0.8-0.3,1.2-0.5c0.4-0.2,0.9-0.4,1.4-0.5c0.9-0.2,2,0,2.3,0.8c0.2,0.4,0.1,1-0.1,1.5c-0.1,0.5-0.3,1-0.8,1.3
				c-0.7,0.4-1.5-0.1-2.2-0.5l-0.1,0c-1-0.6-1.8-0.7-2.6-0.6c-0.3,0.1-0.6,0.2-0.9,0.4c-0.1,0.1-0.2,0.1-0.4,0.2
				c-1.4,0.6-3,0.6-4.5-0.1c-0.3-0.2-0.6-0.3-0.9-0.5c-0.4-0.2-0.8-0.5-1.2-0.6c-0.9-0.4-1.8-0.4-2.4,0c-0.3,0.2-0.6,0.5-0.8,0.8
				c-0.2,0.3-0.4,0.5-0.7,0.7c-0.4,0.3-1,0.4-1.5,0.3c-0.6-0.1-1-0.4-1.2-0.9c-0.1-0.2-0.1-0.3-0.2-0.5c-0.1-0.2-0.1-0.4-0.2-0.5
				c-0.4-0.7-1.2-1.1-2-1c-0.8,0.1-1.5,0.7-1.7,1.4c0,0.1,0,0.1,0.1,0.1c0.1,0,0.1,0,0.1-0.1c0.2-0.7,0.8-1.2,1.5-1.3
				c0.7-0.1,1.4,0.3,1.8,0.9c0.1,0.2,0.1,0.3,0.2,0.5c0.1,0.2,0.1,0.3,0.2,0.5c0.3,0.5,0.8,0.9,1.4,1c0.6,0.1,1.2,0,1.7-0.3
				c0.3-0.2,0.5-0.5,0.7-0.7c0.2-0.3,0.5-0.6,0.8-0.8c0.8-0.5,1.8-0.2,2.2,0c0.4,0.2,0.8,0.4,1.2,0.6c0.3,0.2,0.6,0.4,1,0.5
				c1.5,0.7,3.2,0.8,4.7,0.1c0.1-0.1,0.2-0.1,0.4-0.2c0.3-0.1,0.6-0.3,0.9-0.4c0.7-0.2,1.5,0,2.4,0.5l0.1,0
				C101.2,38.4,101.8,38.8,102.4,38.8z"/>
		</g>
		<g>
			<path fill-rule="evenodd" clip-rule="evenodd" fill="#DE5051" d="M85.3,31.9c0.1,0.2,0,0.4-0.1,0.6c-0.2,0.1-0.4,0.2-0.6,0.2
				c-0.9,0.1-1.8,0-2.6,0.2c-0.9,0.2-1.7,0.8-1.7,1.7c0.3,0.2,0.7,0.1,1,0c1.9-0.6,3.8-1.8,5.8-1.4c0.5,0.1,1.1,0.3,1.6,0.3
				c0.5,0,1.2-0.2,1.3-0.7c0.1-0.4,0-0.9,0.2-1.3c0.1-0.2,0.3-0.2,0.5-0.3c1-0.3,2.2,0.3,2.4,1.3c0.1,0.4,0.1,0.9,0.2,1.4
				c0.3,1.1,1.3,1.8,2.2,2.4c0.4,0.2,0.8,0.5,1.2,0.3c0.4-0.2,0.5-0.7,0.4-1.2c-0.1-0.4-0.4-0.8-0.5-1.2c-0.1-0.4,0-1,0.4-1.2
				c0.4-0.2,0.8,0,1.2,0.2c0.4,0.2,0.9,0.3,1.1-0.1c0.6-0.6-0.9-1.7-0.3-2.3c0.3-0.3,0.8-0.1,1.1,0.2c0.4,0.4,0.6,1,0.9,1.4
				c0.3,0.5,0.9,0.9,1.5,0.7c-0.5-0.8-0.9-1.6-1.4-2.4c-0.3-0.6-0.7-1.1-1.3-1.4c-0.8-0.3-1.9,0.1-2.6-0.5c-0.4-0.4-0.6-1.2-1.2-1.2
				c-0.2,0-0.4,0.1-0.6,0.2c-0.7,0.2-1.4-0.3-2.1-0.5c-1.3-0.3-2.5,0.6-3.8,0.6c-0.4,0-0.9-0.1-1.3,0c-1,0.1-1.7,1.1-2.1,2.1
				c-0.2,0.5-0.5,1-0.9,1.2c-0.4,0.2-0.8,0.1-1.2,0.2c-0.4,0.1-0.7,0.6-0.4,0.9C84,32.5,84.9,31.4,85.3,31.9z"/>
		</g>
		<g>
			<g>
				<path fill-rule="evenodd" clip-rule="evenodd" fill="#924C2A" d="M89.6,34.3c0-0.1,0-0.3,0-0.4c-0.1-0.6-0.8-1.1-1.4-1
					c-0.2,0-0.5,0.2-0.7,0.1c-0.5,0-1-0.5-1.5-0.3c-0.1,0-0.2,0.1-0.3,0.2c-0.2,0.2-0.4,0.3-0.6,0.5c-0.1,0.1-0.2,0.2-0.2,0.4
					c0,0.1,0.1,0.1,0.1,0.2c0,0.2-0.1,0.3-0.1,0.5c-0.2,0.5,0.2,1,0.6,1.4c0.3,0.3,0.5,0.6,0.9,0.7c0.4,0.1,0.8-0.1,1.2-0.1
					c0.5,0,1,0.1,1.4-0.2c0.4-0.3,0.5-0.8,0.6-1.3C89.6,34.9,89.6,34.6,89.6,34.3z"/>
			</g>
			<g>
				<path fill-rule="evenodd" clip-rule="evenodd" fill="#924C2A" d="M84.9,34.6c0.1-0.2,0.2-0.3,0.1-0.5c0-0.1-0.1-0.1-0.1-0.2
					c0-0.2,0.1-0.3,0.2-0.4c0,0,0,0,0,0c0.1,0.1,0.1,0.2,0.2,0.3c0.1,0.2,0.1,0.5,0.1,0.7c0,0.2-0.1,0.4,0,0.6
					c0.1,0.1,0.2,0.1,0.2,0.2c0.2,0.1,0.4,0.3,0.6,0.4c0.2,0.1,0.4,0.3,0.7,0.3c0.2,0.1,0.5,0,0.7-0.1c0.3-0.3,0.2-0.9,0.6-1.2
					c0.2-0.1,0.5-0.1,0.7-0.3c0.3-0.2,0.3-0.6,0.5-0.8c0.1,0.1,0.1,0.3,0.1,0.4c0,0.1,0,0.3,0,0.4c0,0.3-0.1,0.6-0.1,0.8
					c-0.1,0.5-0.1,1-0.6,1.3c-0.4,0.3-1,0.1-1.4,0.2c-0.4,0-0.8,0.2-1.2,0.1c-0.4-0.1-0.7-0.4-0.9-0.7
					C85.1,35.6,84.7,35.1,84.9,34.6z"/>
			</g>
		</g>
		<g>
			<g>
				<path fill-rule="evenodd" clip-rule="evenodd" fill="#924C2A" d="M96.1,27.4c0-0.1,0-0.3,0-0.4c-0.1-0.6-0.8-1.1-1.4-1
					c-0.2,0-0.5,0.2-0.7,0.1c-0.5,0-1-0.5-1.5-0.3c-0.1,0-0.2,0.1-0.3,0.2c-0.2,0.2-0.4,0.3-0.6,0.5c-0.1,0.1-0.2,0.2-0.2,0.4
					c0,0.1,0.1,0.1,0.1,0.2c0,0.2-0.1,0.3-0.1,0.5c-0.2,0.5,0.2,1,0.6,1.4c0.3,0.3,0.5,0.6,0.9,0.7c0.4,0.1,0.8-0.1,1.2-0.1
					c0.5,0,1,0.1,1.4-0.2c0.4-0.3,0.5-0.8,0.6-1.3C96.1,28,96.1,27.7,96.1,27.4z"/>
			</g>
			<g>
				<path fill-rule="evenodd" clip-rule="evenodd" fill="#924C2A" d="M91.4,27.7c0.1-0.2,0.2-0.3,0.1-0.5c0-0.1-0.1-0.1-0.1-0.2
					c0-0.2,0.1-0.3,0.2-0.4c0,0,0,0,0,0c0.1,0.1,0.1,0.2,0.2,0.3C92,27,92,27.3,92,27.5c0,0.2-0.1,0.4,0,0.6
					c0.1,0.1,0.2,0.1,0.2,0.2c0.2,0.1,0.4,0.3,0.6,0.4c0.2,0.1,0.4,0.3,0.7,0.3c0.2,0.1,0.5,0,0.7-0.1c0.3-0.3,0.2-0.9,0.6-1.2
					c0.2-0.1,0.5-0.1,0.7-0.3c0.3-0.2,0.3-0.6,0.5-0.8c0.1,0.1,0.1,0.3,0.1,0.4c0,0.1,0,0.3,0,0.4c0,0.3-0.1,0.6-0.1,0.8
					c-0.1,0.5-0.1,1-0.6,1.3c-0.4,0.3-1,0.1-1.4,0.2c-0.4,0-0.8,0.2-1.2,0.1c-0.4-0.1-0.7-0.4-0.9-0.7
					C91.6,28.7,91.3,28.2,91.4,27.7z"/>
			</g>
		</g>
		<g>
			<g>
				<path fill-rule="evenodd" clip-rule="evenodd" fill="#924C2A" d="M101.7,34.1c-0.1-0.1-0.1-0.3-0.2-0.4
					c-0.4-0.5-1.2-0.6-1.7-0.2c-0.2,0.2-0.3,0.4-0.6,0.5c-0.5,0.2-1.1,0-1.4,0.4c-0.1,0.1-0.1,0.2-0.1,0.3c-0.1,0.2-0.2,0.5-0.2,0.7
					c0,0.2-0.1,0.3,0,0.5c0.1,0.1,0.1,0.1,0.2,0.2c0.1,0.1,0.1,0.3,0.1,0.5c0.1,0.5,0.7,0.8,1.2,1c0.4,0.1,0.8,0.3,1.1,0.2
					c0.4-0.1,0.6-0.4,1-0.6c0.4-0.3,1-0.4,1.2-0.8c0.2-0.4,0-0.9-0.1-1.4C101.9,34.6,101.8,34.3,101.7,34.1z"/>
			</g>
			<g>
				<path fill-rule="evenodd" clip-rule="evenodd" fill="#924C2A" d="M97.7,36.5c0-0.2,0-0.4-0.1-0.5c-0.1-0.1-0.1-0.1-0.2-0.2
					c-0.1-0.1-0.1-0.3,0-0.5c0,0,0,0,0-0.1c0.1,0,0.2,0.1,0.3,0.2c0.2,0.2,0.3,0.4,0.4,0.6c0.1,0.2,0.1,0.4,0.3,0.5
					c0.1,0.1,0.2,0.1,0.3,0.1c0.2,0,0.5,0,0.7,0c0.3,0,0.5,0,0.8,0c0.2-0.1,0.5-0.2,0.6-0.5c0.1-0.4-0.3-0.9-0.1-1.3
					c0.1-0.2,0.3-0.3,0.4-0.6c0.1-0.3,0-0.7,0.1-0.9c0.1,0.1,0.2,0.2,0.3,0.3c0.1,0.1,0.1,0.3,0.2,0.4c0.1,0.3,0.2,0.5,0.3,0.8
					c0.2,0.4,0.4,1,0.1,1.4c-0.2,0.4-0.8,0.5-1.2,0.8c-0.3,0.2-0.6,0.5-1,0.6c-0.4,0.1-0.8,0-1.1-0.2C98.4,37.3,97.8,37,97.7,36.5z"
					/>
			</g>
		</g>
		<g>
			<path fill-rule="evenodd" clip-rule="evenodd" fill="#959737" d="M83.5,35.5c0.2,0,0.3,0.2,0.4,0.3c0.1,0.1,0.3,0.2,0.3,0.4
				c0,0.1,0,0.1-0.1,0.1c-0.2,0-0.3-0.2-0.4-0.3C83.6,35.8,83.5,35.7,83.5,35.5C83.5,35.5,83.5,35.5,83.5,35.5z"/>
		</g>
		<g>
			<g>
				<path fill-rule="evenodd" clip-rule="evenodd" fill="#577E40" d="M88.7,37.4c0.1,0,0.1-0.1,0-0.1C88.6,37.3,88.6,37.4,88.7,37.4
					z"/>
			</g>
		</g>
		<g>
			<path fill-rule="evenodd" clip-rule="evenodd" fill="#959737" d="M87.6,30.1c0,0.2-0.1,0.4-0.2,0.5c-0.1,0.2-0.2,0.3-0.4,0.4
				c-0.1,0-0.1,0-0.1-0.1c0-0.2,0.1-0.3,0.2-0.4c0.1-0.1,0.1-0.3,0.2-0.5C87.4,29.9,87.6,29.9,87.6,30.1z"/>
		</g>
		<g>
			<g>
				<path fill-rule="evenodd" clip-rule="evenodd" fill="#577E40" d="M89.2,32c0.1,0,0.1-0.1,0-0.1C89.1,31.9,89.1,32,89.2,32z"/>
			</g>
		</g>
		<g>
			<path fill-rule="evenodd" clip-rule="evenodd" fill="#959737" d="M89.8,32.3C89.7,32.3,89.7,32.3,89.8,32.3
				c-0.2-0.2-0.1-0.3,0-0.3c0.2,0.1,0.3,0.2,0.4,0.3c0.1,0.1,0.2,0.2,0.2,0.4c0,0.1-0.1,0.1-0.1,0.1c-0.1-0.1-0.2-0.2-0.3-0.3
				C89.9,32.4,89.8,32.3,89.8,32.3c0-0.1,0-0.2,0.1-0.2c0,0,0,0.1,0.1,0.1C90,32.3,89.9,32.4,89.8,32.3z"/>
		</g>
		<g>
			<path fill-rule="evenodd" clip-rule="evenodd" fill="#959737" d="M91.1,28.5c-0.2,0.2-0.8,0.4-0.9,0c0-0.1,0-0.1,0.1-0.1
				c0.2,0,0.5,0.1,0.6-0.1C91,28.1,91.2,28.3,91.1,28.5z"/>
		</g>
		<g>
			<g>
				<path fill-rule="evenodd" clip-rule="evenodd" fill="#577E40" d="M93.6,31.6c0.1,0,0.1-0.1,0-0.1C93.6,31.4,93.6,31.6,93.6,31.6
					z"/>
			</g>
		</g>
		<g>
			<path fill-rule="evenodd" clip-rule="evenodd" fill="#959737" d="M93.9,30.6c0.2,0.2,0.5,0.6,0.4,0.9c0,0.1-0.1,0.1-0.2,0
				c-0.2-0.3-0.3-0.6-0.5-0.8C93.6,30.7,93.8,30.5,93.9,30.6z"/>
		</g>
		<g>
			<path fill-rule="evenodd" clip-rule="evenodd" fill="#959737" d="M94.3,35c0,0-0.1,0.1-0.1,0.1c0,0,0,0,0,0
				C94.2,35.1,94.3,35.1,94.3,35C94.3,35,94.3,35,94.3,35z"/>
		</g>
		<g>
			<path fill-rule="evenodd" clip-rule="evenodd" fill="#959737" d="M94.9,34.4c-0.1,0.2-0.2,0.3-0.3,0.4c-0.1,0.1-0.2,0.3-0.4,0.3
				c-0.1,0-0.1-0.1-0.1-0.1c0-0.1,0.2-0.2,0.3-0.3c0.1-0.1,0.2-0.2,0.3-0.4C94.7,34.2,94.9,34.3,94.9,34.4z"/>
		</g>
		<g>
			<g>
				<path fill-rule="evenodd" clip-rule="evenodd" fill="#577E40" d="M92.6,36.6c0.1,0,0.1-0.1,0-0.1C92.5,36.5,92.5,36.6,92.6,36.6
					z"/>
			</g>
		</g>
		<g>
			<g>
				<path fill-rule="evenodd" clip-rule="evenodd" fill="#577E40" d="M91.6,36.4c0.1,0,0.1-0.1,0-0.1C91.5,36.3,91.5,36.4,91.6,36.4
					z"/>
			</g>
		</g>
		<g>
			<path fill-rule="evenodd" clip-rule="evenodd" fill="#959737" d="M91.2,35.4c0.2,0.1,0.3,0.2,0.5,0.4c0.1,0.1,0.3,0.3,0.3,0.5
				c0,0.1-0.1,0.1-0.1,0.1c-0.2-0.1-0.3-0.2-0.4-0.3c-0.1-0.1-0.3-0.3-0.4-0.4C90.9,35.5,91.1,35.3,91.2,35.4z"/>
		</g>
		<g>
			<g>
				<path fill-rule="evenodd" clip-rule="evenodd" fill="#577E40" d="M95.9,37.6c0.1,0,0.1-0.1,0-0.1C95.9,37.5,95.9,37.6,95.9,37.6
					z"/>
			</g>
		</g>
		<g>
			<path fill-rule="evenodd" clip-rule="evenodd" fill="#959737" d="M98,29.9c-0.2,0.1-0.4,0.3-0.7,0.3c-0.1,0-0.1-0.1-0.1-0.1
				c0.1-0.2,0.4-0.3,0.5-0.4C98,29.4,98.2,29.7,98,29.9z"/>
		</g>
		<g>
			<path fill-rule="evenodd" clip-rule="evenodd" fill="#959737" d="M98.4,31.8c0.3,0.1,0.8,0.1,0.9,0.4c0,0.1,0,0.1-0.1,0.1
				c-0.2,0-0.3,0-0.4-0.1c-0.2-0.1-0.3-0.1-0.5-0.1C98.1,32.1,98.2,31.7,98.4,31.8z"/>
		</g>
		<g>
			<path fill-rule="evenodd" clip-rule="evenodd" fill="#959737" d="M103.7,36c0.1,0,0.2,0,0.2-0.1c0-0.2,0.3-0.1,0.3,0
				c-0.1,0.3-0.3,0.7-0.6,0.8c-0.1,0.1-0.4-0.1-0.2-0.2c0.1-0.1,0.2-0.2,0.3-0.3c0.1-0.1,0.2-0.3,0.3-0.4c0,0.1,0,0.1,0,0.2
				C103.9,36,103.8,36.1,103.7,36C103.7,36.1,103.7,36,103.7,36z"/>
		</g>
		<g>
			<path fill-rule="evenodd" clip-rule="evenodd" fill="#959737" d="M81.3,35.9c-0.1-0.2-0.2-0.5-0.2-0.7c0-0.2-0.1-0.5,0-0.7
				c0-0.1,0.2-0.1,0.2,0c0.1,0.2,0.1,0.4,0.1,0.6c0,0.2,0.1,0.5,0.1,0.7C81.5,36,81.3,36,81.3,35.9z"/>
		</g>
		<g>
			<path fill-rule="evenodd" clip-rule="evenodd" fill="#959737" d="M89.1,30.5c0.2-0.1,0.4-0.2,0.6-0.3c0.2-0.1,0.4-0.2,0.6-0.1
				c0.1,0,0.1,0.1,0,0.2c-0.1,0.1-0.4,0.1-0.5,0.2c-0.2,0.1-0.4,0.1-0.6,0.2C89.1,30.7,89,30.6,89.1,30.5z"/>
		</g>
		<g>
			<path fill-rule="evenodd" clip-rule="evenodd" fill="#959737" d="M97.6,38.1c-0.1,0-0.2,0.1-0.3,0.1c-0.1,0-0.2,0-0.3-0.1
				c0,0,0-0.1,0-0.1c0.1-0.2,0.4-0.1,0.6-0.1C97.7,37.9,97.7,38.1,97.6,38.1z"/>
		</g>
		<g>
			<path fill-rule="evenodd" clip-rule="evenodd" fill="#959737" d="M99.4,34.8c0,0-0.1,0.1-0.1,0.1c0,0,0,0,0,0
				C99.3,34.9,99.4,34.8,99.4,34.8C99.4,34.8,99.4,34.8,99.4,34.8z"/>
		</g>
		<g>
			<path fill-rule="evenodd" clip-rule="evenodd" fill="#959737" d="M93.1,26.8c0.1,0.1,0.1,0.2,0.2,0.3c0.1,0.1,0.1,0.2,0.1,0.3
				c0,0.1-0.1,0.1-0.1,0.1c-0.1,0-0.2-0.1-0.2-0.2C93,27.1,93,27,92.9,26.9C92.8,26.7,93,26.6,93.1,26.8z"/>
		</g>
		<g>
			<path fill-rule="evenodd" clip-rule="evenodd" fill="#959737" d="M99.7,34.6c0,0.2-0.2,0.4-0.3,0.5c-0.1,0.1-0.3,0.3-0.5,0.3
				c-0.1,0-0.1-0.1-0.1-0.1c0-0.2,0.2-0.3,0.3-0.4c0.1-0.1,0.2-0.3,0.4-0.4C99.5,34.5,99.7,34.5,99.7,34.6z"/>
		</g>
		<g>
			<path fill-rule="evenodd" clip-rule="evenodd" fill="#959737" d="M87.5,36.8c0.2,0,0.4,0.1,0.6,0.2c0.2,0.1,0.4,0.2,0.5,0.3
				c0,0.1,0,0.1-0.1,0.1c-0.2,0-0.3-0.1-0.5-0.2c-0.2-0.1-0.4-0.2-0.6-0.2C87.2,37,87.3,36.8,87.5,36.8z"/>
		</g>
	</g>
</g>
<g>
	<g>
		<polygon fill-rule="evenodd" clip-rule="evenodd" fill="#6F8CC7" points="64.4,86.6 64.2,95.7 34,95.7 33.2,83.9 		"/>
	</g>
	<g>
		<g>
			<path fill-rule="evenodd" clip-rule="evenodd" fill="#0D102D" d="M47,19.9c0,0-3.9-1.2-5.5,5.9c-1.6,7.1-3.3,7.8-6,8.3
				c-2.6,0.4-4.8,3.7-3.3,5.8c1.5,2.2,2,2.5,0.9,3.8c-1.1,1.2-2.6,3.1-1.2,3.9c1.4,0.8,20.1-4.3,20.1-4.3s8.7-0.2,9.8-1.8
				c1-1.6,2.5-4.2,0.4-5.5c-2-1.3-3.1-2.3-2.7-3.5c0.3-1.2,0.5-3.2-0.8-5.1C57.3,25.4,55.3,15.8,47,19.9z"/>
		</g>
		<g>
			<path fill-rule="evenodd" clip-rule="evenodd" fill="#E58A7B" d="M32.5,49.2c-1.6,6.3-2.9,22-2.9,22l8.3-0.3l1.7-16.3l-1.7-5.4
				L32.5,49.2z"/>
		</g>
		<g>
			<path fill-rule="evenodd" clip-rule="evenodd" fill="#29130A" d="M31.9,54.5c0,0,1.9,2.6,6.3,3.3l-1.3-4.6l-2.7-0.9L31.9,54.5z"
				/>
		</g>
		<g>
			<path fill-rule="evenodd" clip-rule="evenodd" fill="#E58A7B" d="M67.7,49.2c1.6,6.3,2.6,16.7,2.6,16.7l-8.5,0.1l-1.2-11.5
				l1.7-5.4L67.7,49.2z"/>
		</g>
		<g>
			<path fill-rule="evenodd" clip-rule="evenodd" fill="#29130A" d="M68.3,54.5c0,0-1.9,2.6-6.3,3.3l1.3-4.6l2.7-0.9L68.3,54.5z"/>
		</g>
		<g>
			<path fill-rule="evenodd" clip-rule="evenodd" fill="#E48FA7" d="M44.7,40.1c-5.6-1.1-7.9-1.1-10,2.2c-2.1,3.2-6.7,9.1-6.7,9.1
				s3.2,3.4,5.1,3.8c1.9,0.4,2.7,0.6,2.7,0.6s-0.4,2.4,1.5,4.1l-0.1,10.5l24.7,0.3l-0.5-10.8c0,0,1.6-1.5,1.2-4c0,0,2,0.5,3.9-0.3
				c1.9-0.8,3-2.4,4.7-2.4c0,0-3-6-3.9-8.5c-0.9-2.5-3.3-5.5-5.8-5.5c-2.5,0.1-5.8,1-7.3,1.3C52.7,40.6,44.7,40.1,44.7,40.1z"/>
		</g>
		<g>
			<path fill-rule="evenodd" clip-rule="evenodd" fill="#DC3760" d="M54.7,29.2c0,0,1.6-1.5,2.9-1c1.3,0.5,1.3,3.3-0.1,3.8
				c-1.4,0.5-3-0.7-3-0.7L54.7,29.2z"/>
		</g>
		<g>
			<path fill-rule="evenodd" clip-rule="evenodd" fill="#29130A" d="M57.1,31.4C57.1,31.4,57.1,31.4,57.1,31.4c0,0,0.9-0.4,0.7-1.4
				c-0.1-0.4-0.2-0.7-0.5-0.9c-0.3-0.2-0.7-0.2-1.5,0c0,0,0,0,0,0.1c0,0,0,0,0.1,0c0.7-0.2,1.1-0.2,1.4,0c0.2,0.1,0.3,0.4,0.4,0.8
				c0.2,1-0.6,1.3-0.6,1.3C57.1,31.3,57.1,31.3,57.1,31.4C57.1,31.4,57.1,31.4,57.1,31.4z"/>
		</g>
		<g>
			<path fill-rule="evenodd" clip-rule="evenodd" fill="#EDBF8B" d="M57,31.6c0-0.4,2,2.5-0.5,2.4c-2.5-0.2-0.6-1.9-0.6-1.9l0.3,0.1
				c0,0-0.4,1.1,0.4,1.2c0.7,0,0.3-1.7,0.3-1.7L57,31.6z"/>
		</g>
		<g>
			<path fill-rule="evenodd" clip-rule="evenodd" fill="#E58A7B" d="M46.8,34.3c0,0,0.5,3.9-0.1,4.7c-0.6,0.8-2,1.1-2,1.1
				s1.9,1.6,5.5,1.6c4.3,0,5.7-1.7,5.7-1.7s-2-0.2-2.4-0.7c-0.5-0.4-0.5-4.1-0.5-4.1L46.8,34.3z"/>
		</g>
		<g>
			<path fill-rule="evenodd" clip-rule="evenodd" fill="#29130A" d="M47.3,34.6l2.4,0.2l3.3,0.5c0,0,0,1.6,0.1,2.5
				C52,37.8,49.3,37.6,47.3,34.6z"/>
		</g>
		<g>
			<path fill-rule="evenodd" clip-rule="evenodd" fill="#E58A7B" d="M55.7,24.2c0.3,1.1-0.1,2.3,0.3,5.1c0.3,2.2-0.6,5.9-2.8,6.7
				c-2.4,0.9-4.2,0.4-5.6-0.4c-1.4-0.8-2.3-2.2-2.7-3.7l-1.1-5c-0.7-3.2,1.4-6.5,4.6-7.1c0.1,0,0.2,0,0.2,0
				C55,18.8,55.7,24.2,55.7,24.2z"/>
		</g>
		<g>
			<path fill-rule="evenodd" clip-rule="evenodd" fill="#29130A" d="M53.3,29c0-0.4,0.1-0.7,0.3-0.7c0.1,0,0.3,0.3,0.3,0.6
				c0,0.4-0.1,0.7-0.3,0.7C53.4,29.6,53.3,29.3,53.3,29z"/>
		</g>
		<g>
			<path fill-rule="evenodd" clip-rule="evenodd" fill="#29130A" d="M48.9,29.2c0-0.4,0.1-0.7,0.3-0.7c0.1,0,0.3,0.3,0.3,0.6
				c0,0.4-0.1,0.7-0.3,0.7C49,29.8,48.9,29.5,48.9,29.2z"/>
		</g>
		<g>
			<path fill-rule="evenodd" clip-rule="evenodd" fill="#29130A" d="M51.7,31.9C51.7,31.9,51.7,31.9,51.7,31.9
				c-0.1-0.1-0.1-0.1,0-0.1c0,0,0.5-0.4,0.6-1c0.1-0.3-0.1-0.5-0.3-0.7c-0.2-0.2-0.5-0.4-0.5-0.8c0,0,0-0.1,0.1-0.1
				c0,0,0.1,0,0.1,0.1c0,0.3,0.3,0.6,0.5,0.8c0.2,0.2,0.5,0.4,0.4,0.8C52.2,31.4,51.8,31.9,51.7,31.9C51.7,31.9,51.7,31.9,51.7,31.9
				z"/>
		</g>
		<g>
			<path fill-rule="evenodd" clip-rule="evenodd" fill="#29130A" d="M48.1,28.1c0.1,0,0.1,0,0.2-0.1c0,0,0.5-0.4,1.3-0.2
				c0.1,0,0.2-0.1,0.3-0.2c0-0.1-0.1-0.2-0.2-0.3c-1.1-0.2-1.7,0.3-1.7,0.3c-0.1,0.1-0.1,0.2,0,0.3C48,28,48,28.1,48.1,28.1z"/>
		</g>
		<g>
			<path fill-rule="evenodd" clip-rule="evenodd" fill="#29130A" d="M52.7,27.4c0.1,0,0.1,0,0.2,0c0,0,0.6-0.2,1.3,0.2
				c0.1,0.1,0.2,0,0.3-0.1c0.1-0.1,0-0.2-0.1-0.3c-0.9-0.6-1.7-0.3-1.7-0.3c-0.1,0-0.2,0.2-0.1,0.3C52.6,27.4,52.6,27.4,52.7,27.4z"
				/>
		</g>
		<g>
			<path fill-rule="evenodd" clip-rule="evenodd" fill="#0D102D" d="M44.6,29.3c0,0,4.2-2,5.4-5.6c0,0,4.4,1.8,5.9,4.7
				c0,0.1,0.3-2.9,0.3-2.9s-0.4-7.4-8.4-5.6C41,21.4,44,29.8,44,29.8L44.6,29.3z"/>
		</g>
		<g>
			<path fill-rule="evenodd" clip-rule="evenodd" fill="#FFFFFF" d="M49.1,23.2C49.1,23.2,49.1,23.2,49.1,23.2c-1.2-0.9-2-3-2.1-3.1
				c0,0,0-0.1,0-0.1c0,0,0.1,0,0.1,0c0,0,0.8,2.1,2,3C49.2,23.1,49.2,23.2,49.1,23.2C49.2,23.2,49.2,23.2,49.1,23.2z"/>
		</g>
		<g>
			<path fill-rule="evenodd" clip-rule="evenodd" fill="#FFFFFF" d="M44.2,28.9C44.1,28.9,44.1,28.8,44.2,28.9c-0.1-0.1,0-0.2,0-0.2
				c1.5,0,2.5-2.5,3.2-4.2c0.3-0.7,0.5-1.2,0.7-1.5c0,0,0.1,0,0.1,0c0,0,0,0.1,0,0.1c-0.2,0.2-0.4,0.8-0.7,1.4
				C46.8,26.4,45.8,28.8,44.2,28.9C44.2,28.9,44.2,28.9,44.2,28.9z"/>
		</g>
		<g>
			<path fill-rule="evenodd" clip-rule="evenodd" fill="#E58A7B" d="M46.1,29.6c0,0-1.4-1.7-2.7-1.3c-1.3,0.4-1.7,3.1-0.4,3.8
				c1.3,0.6,3.1-0.3,3.1-0.3L46.1,29.6z"/>
		</g>
		<g>
			<path fill-rule="evenodd" clip-rule="evenodd" fill="#29130A" d="M43.4,31.5C43.4,31.5,43.4,31.5,43.4,31.5c0,0-0.9-0.5-0.5-1.5
				c0.1-0.4,0.3-0.7,0.6-0.8c0.3-0.1,0.7-0.1,1.4,0.2c0,0,0,0,0,0.1c0,0,0,0-0.1,0c-0.7-0.3-1.1-0.3-1.4-0.2
				c-0.2,0.1-0.4,0.3-0.5,0.7c-0.3,0.9,0.4,1.3,0.5,1.3C43.5,31.4,43.5,31.4,43.4,31.5C43.5,31.5,43.4,31.5,43.4,31.5z"/>
		</g>
		<g>
			<path fill-rule="evenodd" clip-rule="evenodd" fill="#EDBF8B" d="M44,31.6c0-0.4,2,2.5-0.5,2.4c-2.5-0.2-0.6-1.9-0.6-1.9l0.3,0.1
				c0,0-0.4,1.1,0.4,1.2c0.7,0,0.3-1.7,0.3-1.7L44,31.6z"/>
		</g>
		<g>
			<path fill-rule="evenodd" clip-rule="evenodd" fill="#29130A" d="M50.7,42.4c2.4-0.1,4-0.8,4-0.8c0,0,0-0.1,0-0.1
				c0,0-0.1,0-0.1,0c0,0-4,1.9-8.9-0.1c0,0-0.1,0-0.1,0c0,0,0,0.1,0,0.1C47.5,42.3,49.3,42.5,50.7,42.4z"/>
		</g>
		<g>
			<path fill-rule="evenodd" clip-rule="evenodd" fill="#29130A" d="M35.9,55.9C35.9,55.9,35.9,55.9,35.9,55.9
				c0.4-2.5,1.7-5.5,1.7-5.6c0,0,0-0.1,0-0.1c0,0-0.1,0-0.1,0C37.4,50.3,36.2,53.4,35.9,55.9C35.8,55.9,35.8,55.9,35.9,55.9
				C35.9,55.9,35.9,55.9,35.9,55.9z"/>
		</g>
		<g>
			<path fill-rule="evenodd" clip-rule="evenodd" fill="#29130A" d="M36.9,52.2C36.9,52.2,36.9,52.2,36.9,52.2
				c0.1-0.1,0.1-0.1,0-0.1c-0.2-0.2-0.3-1.3-0.3-2c0,0,0-0.1-0.1-0.1h0c0,0-0.1,0-0.1,0.1C36.5,50.3,36.5,51.9,36.9,52.2
				C36.8,52.2,36.8,52.2,36.9,52.2z"/>
		</g>
		<g>
			<path fill-rule="evenodd" clip-rule="evenodd" fill="#29130A" d="M41.1,60.3c1,0,2.2-0.3,3.5-0.9c0,0,0-0.1,0-0.1
				c0,0-0.1,0-0.1,0c-3.4,1.7-6,0.5-6.1,0.4c0,0-0.1,0-0.1,0c0,0,0,0.1,0,0.1C38.4,59.9,39.5,60.4,41.1,60.3z"/>
		</g>
		<g>
			<path fill-rule="evenodd" clip-rule="evenodd" fill="#29130A" d="M57.5,59.7c1.7,0,3.2-0.4,3.2-0.5c0,0,0.1,0,0-0.1
				c0,0,0-0.1-0.1,0c0,0-4.5,1.2-6.9-0.4c0,0-0.1,0-0.1,0c0,0,0,0.1,0,0.1C54.7,59.6,56.2,59.7,57.5,59.7z"/>
		</g>
		<g>
			<g>
				<path fill-rule="evenodd" clip-rule="evenodd" fill="#FFFFFF" d="M43.7,47.6c0.1,0,0.1,0,0.2,0c0.3-0.1,0.4-0.4,0.3-0.7
					c-0.4-1-1-2-1.8-2.7c-0.2-0.2-0.6-0.2-0.8,0c-0.2,0.2-0.2,0.6,0,0.8c0.7,0.7,1.2,1.5,1.6,2.3C43.3,47.5,43.5,47.6,43.7,47.6z"/>
			</g>
			<g>
				<path fill-rule="evenodd" clip-rule="evenodd" fill="#FFFFFF" d="M44.1,53c0.1,0,0.2,0,0.2-0.1c0.7-0.3,1.4-0.5,2.1-0.5
					c0.8,0,1-0.4,1.1-0.6c0.1-0.3-0.1-0.6-0.4-0.7c-0.2-0.1-0.5,0-0.6,0.2c0,0-0.1,0-0.1,0c-0.9,0-1.8,0.2-2.6,0.6
					c-0.3,0.1-0.4,0.5-0.2,0.8C43.7,52.9,43.9,53,44.1,53z"/>
			</g>
			<g>
				<path fill-rule="evenodd" clip-rule="evenodd" fill="#FFFFFF" d="M38.3,47.9c0,0,0.1,0,0.1,0c0.3-0.1,0.5-0.4,0.4-0.7
					c-0.2-0.7-0.3-1.4-0.3-2.1c0-0.3-0.3-0.5-0.6-0.5c-0.3,0-0.5,0.3-0.5,0.6c0.1,0.8,0.2,1.6,0.4,2.3C37.8,47.7,38,47.9,38.3,47.9z
					"/>
			</g>
			<g>
				<path fill-rule="evenodd" clip-rule="evenodd" fill="#FFFFFF" d="M65,44.6c0,0,0-0.1,0.1-0.1c0.1-0.3,0-0.6-0.3-0.7
					c-0.7-0.3-1.3-0.6-1.9-1c-0.3-0.2-0.6-0.1-0.8,0.2c-0.2,0.3-0.1,0.6,0.2,0.8c0.7,0.4,1.4,0.8,2.1,1.1
					C64.5,44.9,64.8,44.8,65,44.6z"/>
			</g>
			<g>
				<path fill-rule="evenodd" clip-rule="evenodd" fill="#FFFFFF" d="M32.1,51c0.1,0,0.3-0.1,0.4-0.2c0.5-0.6,1.3-0.9,2.1-0.9
					c0.3,0,0.6-0.3,0.6-0.6c0-0.3-0.3-0.6-0.6-0.6c-1.1,0-2.1,0.5-2.9,1.3c-0.2,0.2-0.2,0.6,0,0.8C31.8,50.9,31.9,51,32.1,51z"/>
			</g>
			<g>
				<path fill-rule="evenodd" clip-rule="evenodd" fill="#FFFFFF" d="M40.6,56.2c0.2,0,0.4-0.1,0.5-0.4c0.1-0.3,0-0.6-0.3-0.7
					c-0.5-0.2-0.9-0.4-1.3-0.7c-0.2-0.2-0.6-0.1-0.8,0.1c-0.2,0.2-0.1,0.6,0.1,0.8c0.5,0.4,1,0.7,1.6,0.9
					C40.5,56.2,40.6,56.2,40.6,56.2z"/>
			</g>
			<g>
				<path fill-rule="evenodd" clip-rule="evenodd" fill="#FFFFFF" d="M46.3,58.6c0,0,0.1,0,0.1,0c0.3-0.1,0.5-0.4,0.4-0.7
					c-0.2-0.8-0.6-1.6-1.2-2.2c-0.2-0.2-0.6-0.2-0.8,0c-0.2,0.2-0.2,0.6,0,0.8c0.4,0.5,0.7,1.1,0.9,1.7C45.8,58.4,46,58.6,46.3,58.6
					z"/>
			</g>
			<g>
				<path fill-rule="evenodd" clip-rule="evenodd" fill="#FFFFFF" d="M42.7,64.3C42.7,64.3,42.8,64.2,42.7,64.3c1-0.1,2-0.5,2.8-1.1
					c0.3-0.2,0.3-0.5,0.1-0.8c-0.2-0.3-0.5-0.3-0.8-0.1c-0.7,0.5-1.4,0.8-2.2,0.9c-0.3,0-0.5,0.3-0.5,0.6
					C42.2,64,42.4,64.3,42.7,64.3z"/>
			</g>
			<g>
				<path fill-rule="evenodd" clip-rule="evenodd" fill="#FFFFFF" d="M51.6,56.1c0.3,0,0.5-0.2,0.5-0.4c0.1-0.6,0.4-1.2,0.8-1.7
					c0.2-0.2,0.1-0.6-0.1-0.8C52.5,53,52.2,53,52,53.3c-0.5,0.6-0.8,1.4-1,2.2c-0.1,0.3,0.1,0.6,0.4,0.7
					C51.5,56.1,51.5,56.1,51.6,56.1z"/>
			</g>
			<g>
				<path fill-rule="evenodd" clip-rule="evenodd" fill="#FFFFFF" d="M48.9,47.4c0.2,0,0.4-0.1,0.5-0.3c0.1-0.3,0-0.6-0.3-0.7
					c-0.7-0.3-1.3-0.8-1.8-1.3c-0.2-0.2-0.6-0.3-0.8,0c-0.2,0.2-0.3,0.6,0,0.8c0.6,0.7,1.4,1.2,2.2,1.6
					C48.7,47.4,48.8,47.4,48.9,47.4z"/>
			</g>
			<g>
				<path fill-rule="evenodd" clip-rule="evenodd" fill="#FFFFFF" d="M67.9,52.9c0.2,0,0.4-0.1,0.5-0.3c0.1-0.3,0-0.6-0.3-0.7
					c-0.7-0.3-1.3-0.8-1.8-1.3c-0.2-0.2-0.6-0.3-0.8,0c-0.2,0.2-0.3,0.6,0,0.8c0.6,0.7,1.4,1.2,2.2,1.6
					C67.7,52.9,67.8,52.9,67.9,52.9z"/>
			</g>
			<g>
				<path fill-rule="evenodd" clip-rule="evenodd" fill="#FFFFFF" d="M51.7,49.5c0.2,0,0.5-0.2,0.5-0.4c0.1-0.3,0.4-0.6,0.9-0.8
					c0.4-0.3,0.8-0.5,1.1-1c0.2-0.3,0.1-0.6-0.1-0.8c-0.3-0.2-0.6-0.1-0.8,0.1c-0.2,0.3-0.5,0.5-0.8,0.7c-0.5,0.3-1.1,0.7-1.3,1.5
					c-0.1,0.3,0.1,0.6,0.4,0.7C51.6,49.5,51.6,49.5,51.7,49.5z"/>
			</g>
			<g>
				<path fill-rule="evenodd" clip-rule="evenodd" fill="#FFFFFF" d="M41.4,41.7c0.2,0,0.5-0.2,0.5-0.4c0.1-0.3-0.1-0.6-0.4-0.7
					c-0.9-0.3-1.9-0.3-2.9-0.2c-0.3,0-0.5,0.3-0.5,0.6c0,0.3,0.3,0.5,0.6,0.5c0.8-0.1,1.7,0,2.4,0.2C41.3,41.7,41.4,41.7,41.4,41.7z
					"/>
			</g>
			<g>
				<path fill-rule="evenodd" clip-rule="evenodd" fill="#FFFFFF" d="M54.4,44c0.2,0,0.4-0.1,0.5-0.3c0.1-0.3,0.3-0.5,0.6-0.7
					c0.2-0.2,0.2-0.6,0-0.8c-0.2-0.2-0.6-0.2-0.8,0c-0.3,0.3-0.6,0.7-0.8,1.1c-0.1,0.3,0,0.6,0.3,0.8C54.2,43.9,54.3,44,54.4,44z"/>
			</g>
			<g>
				<path fill-rule="evenodd" clip-rule="evenodd" fill="#FFFFFF" d="M58.5,44.8c0.3,0,0.5-0.2,0.5-0.5c0-0.9-0.2-1.9-0.7-2.7
					c-0.2-0.3-0.5-0.3-0.8-0.2c-0.3,0.2-0.3,0.5-0.2,0.8c0.4,0.6,0.6,1.3,0.5,2.1C58,44.5,58.2,44.8,58.5,44.8
					C58.5,44.8,58.5,44.8,58.5,44.8z"/>
			</g>
			<g>
				<path fill-rule="evenodd" clip-rule="evenodd" fill="#FFFFFF" d="M58.5,52c0,0,0.1,0,0.1,0c0.3-0.1,0.5-0.4,0.4-0.7
					c-0.1-0.3-0.2-0.8-0.5-1.1c-0.2-0.2-0.5-0.3-0.6-0.4l-0.1-0.1c-0.2-0.1-0.5-0.3-0.6-0.5c-0.2-0.2-0.6-0.3-0.8-0.1
					C56,49.4,56,49.8,56.2,50c0.3,0.3,0.6,0.6,1,0.8c0.1,0,0.1,0.1,0.2,0.1c0.1,0.1,0.2,0.1,0.3,0.2c0.1,0.1,0.2,0.3,0.2,0.5
					C58,51.8,58.2,52,58.5,52z"/>
			</g>
			<g>
				<path fill-rule="evenodd" clip-rule="evenodd" fill="#FFFFFF" d="M64.3,49.3c0,0,0-0.1,0-0.1c0.1-0.3-0.1-0.6-0.4-0.7
					c-0.3-0.1-0.7-0.2-1.2-0.1c-0.3,0.1-0.5,0.2-0.7,0.4l-0.1,0.1c-0.2,0.2-0.5,0.3-0.7,0.3c-0.3,0-0.5,0.3-0.5,0.6
					c0,0.3,0.3,0.5,0.6,0.5c0.4-0.1,0.9-0.2,1.2-0.5c0.1,0,0.1-0.1,0.2-0.1c0.1-0.1,0.2-0.2,0.3-0.2c0.1,0,0.4,0,0.5,0.1
					C63.9,49.6,64.2,49.5,64.3,49.3z"/>
			</g>
			<g>
				<path fill-rule="evenodd" clip-rule="evenodd" fill="#FFFFFF" d="M55.7,56.6C55.8,56.6,55.8,56.6,55.7,56.6
					c0.4-0.1,0.6-0.3,0.5-0.7c-0.1-0.4,0-0.9,0.2-1.2c0.2-0.3,0.1-0.6-0.2-0.8c-0.3-0.2-0.6-0.1-0.8,0.2c-0.4,0.6-0.5,1.3-0.4,2
					C55.2,56.4,55.5,56.6,55.7,56.6z"/>
			</g>
			<g>
				<path fill-rule="evenodd" clip-rule="evenodd" fill="#FFFFFF" d="M59.9,58.6c0.3,0,0.5-0.2,0.5-0.5c0.1-0.9-0.3-1.8-1-2.3
					c-0.3-0.2-0.6-0.1-0.8,0.2c-0.2,0.3-0.1,0.6,0.2,0.8c0.4,0.3,0.6,0.8,0.5,1.2C59.3,58.3,59.6,58.6,59.9,58.6
					C59.9,58.6,59.9,58.6,59.9,58.6z"/>
			</g>
			<g>
				<path fill-rule="evenodd" clip-rule="evenodd" fill="#FFFFFF" d="M57.9,64c0.1,0,0.1,0,0.2,0c0.3-0.1,0.4-0.4,0.3-0.7
					c-0.1-0.2,0-0.4,0.2-0.6c0.2-0.2,0.6-0.4,0.9-0.6c0.3-0.1,0.4-0.5,0.3-0.7c-0.1-0.3-0.5-0.4-0.7-0.3c-0.4,0.2-0.9,0.4-1.3,0.8
					c-0.5,0.5-0.7,1.2-0.4,1.8C57.4,63.8,57.6,64,57.9,64z"/>
			</g>
			<g>
				<path fill-rule="evenodd" clip-rule="evenodd" fill="#FFFFFF" d="M51.3,63.2C51.3,63.2,51.3,63.2,51.3,63.2
					c0.4,0,0.6-0.3,0.5-0.6c-0.1-1.1-0.6-2.1-1.2-2.9c-0.2-0.2-0.5-0.3-0.8-0.1c-0.2,0.2-0.3,0.6-0.1,0.8c0.5,0.7,0.9,1.5,1,2.3
					C50.7,63,51,63.2,51.3,63.2z"/>
			</g>
			<g>
				<path fill-rule="evenodd" clip-rule="evenodd" fill="#FFFFFF" d="M52.4,65.8c0.1,0,0.2,0,0.3-0.1l1.2-0.9
					c0.3-0.2,0.3-0.5,0.1-0.8c-0.2-0.3-0.5-0.3-0.8-0.1l-1.2,0.9c-0.3,0.2-0.3,0.5-0.1,0.8C52.1,65.7,52.3,65.8,52.4,65.8z"/>
			</g>
			<g>
				<path fill-rule="evenodd" clip-rule="evenodd" fill="#FFFFFF" d="M40.1,62.8c0.2,0,0.4-0.1,0.5-0.3c0.1-0.3,0-0.6-0.2-0.8
					c-0.4-0.2-0.7-0.4-1.1-0.6c-0.3-0.2-0.6-0.1-0.8,0.2c-0.2,0.3-0.1,0.6,0.2,0.8c0.4,0.2,0.8,0.5,1.1,0.7
					C40,62.8,40.1,62.8,40.1,62.8z"/>
			</g>
		</g>
		<g>
			<path fill-rule="evenodd" clip-rule="evenodd" fill="#6F8CC7" d="M50.6,49.1c2.6-0.1,5.1-8.6,5.2-9c0-0.1,0-0.2-0.1-0.2
				c-0.1,0-0.2,0-0.2,0.1c-0.7,2.5-3.1,9.1-5.1,8.8c-2.5-0.4-5.6-8.6-5.6-8.7c0-0.1-0.1-0.1-0.2-0.1c-0.1,0-0.1,0.1-0.1,0.2
				c0.1,0.3,3.2,8.5,5.9,8.9C50.5,49.1,50.6,49.1,50.6,49.1z"/>
		</g>
		<g>
			<g>
				<path fill-rule="evenodd" clip-rule="evenodd" fill="#6F8CC7" d="M49.8,49.7c0-0.4,0.3-0.8,0.8-0.8c0.4,0,0.8,0.3,0.8,0.8
					c0,0.4-0.3,0.8-0.8,0.8C50.2,50.5,49.8,50.2,49.8,49.7L49.8,49.7z M50.1,49.7L50.1,49.7c0,0.3,0.2,0.5,0.5,0.5
					c0.3,0,0.5-0.2,0.5-0.5c0-0.3-0.2-0.5-0.5-0.5C50.3,49.2,50.1,49.4,50.1,49.7z"/>
			</g>
		</g>
		<g>
			<path fill-rule="evenodd" clip-rule="evenodd" fill="#FFFFFF" d="M48.4,32.3c-0.5,0.9,0.3,1.9,1.2,2.2c0.9,0.3,2.8,0.3,2.7-1
				c0-0.4-0.2-0.6-0.6-0.7c-0.5-0.1-0.9,0-1.3-0.4c-0.2-0.1-0.3-0.3-0.5-0.5C49.5,31.5,48.7,31.7,48.4,32.3z"/>
		</g>
		<g>
			<path fill-rule="evenodd" clip-rule="evenodd" fill="#DC3760" d="M52.9,30.6c0,0,0,0.1,0,0.2c0,0.1,0.1,0.2,0.1,0.3
				c0.2,0.2,0.4,0.3,0.6,0.3c0.4,0.1,1,0,1.2-0.3c0.1-0.2,0.1-0.5,0-0.6c-0.1-0.2-0.4-0.3-0.6-0.3c-0.2,0-0.4,0.1-0.6,0.1
				C53.5,30.4,53.1,30.4,52.9,30.6z"/>
		</g>
		<g>
			<path fill-rule="evenodd" clip-rule="evenodd" fill="#DC3760" d="M50.1,30.6c0,0,0,0.1,0,0.2c0,0.1-0.1,0.2-0.1,0.3
				c-0.2,0.2-0.4,0.3-0.6,0.3c-0.4,0.1-1,0-1.2-0.3c-0.1-0.2-0.1-0.5,0-0.6c0.1-0.2,0.4-0.3,0.6-0.3c0.2,0,0.4,0.1,0.6,0.1
				C49.5,30.4,49.9,30.4,50.1,30.6z"/>
		</g>
	</g>
	<g>
		<g>
			<rect x="48.9" y="67.2" fill-rule="evenodd" clip-rule="evenodd" fill="#0D102D" width="2.7" height="28.8"/>
		</g>
		<g>
			<g>
				<path fill-rule="evenodd" clip-rule="evenodd" fill="#F5DCC0" d="M82.5,68.9v16.3c0,0,0.3,3.6-9.6,4.7c-9.9,1.1-6.4-2.5-18-1.1
					c-11.6,1.4-6,3.4-17.5,2.3c-11.5-1.1-9.4-3.5-13.1-3.4c-3.7,0.1-2.2,1.2-6.7-1.7v-17H82.5z"/>
			</g>
			<g>
				<path fill-rule="evenodd" clip-rule="evenodd" fill="#FFFFFF" d="M82.5,68.9c0,3.1-14.4,5.6-32.3,5.6c-17.8,0-32.3-2.5-32.3-5.6
					c0-3.1,14.4-5.6,32.3-5.6C68,63.3,82.5,65.8,82.5,68.9z"/>
			</g>
			<g>
				<g>
					<path opacity="0.53" fill-rule="evenodd" clip-rule="evenodd" fill="#EDBF8B" d="M61.8,85.7c-0.5-1.1-0.9-2.5-2.1-3
						c-0.6-0.3-1.3-0.3-1.9-0.6c-0.9-0.6-1.1-2-1.9-2.7c-1-0.9-2.5-0.6-3.5,0.2c-1,0.8-1.5,2.1-2,3.3c-1.1,2.7-2.1,5.5-4.3,7.4
						c-0.4,0.3-0.7,0.6-1.1,0.9c2.1-0.5,2.7-1.5,9.8-2.4c5.4-0.7,7.5-0.2,9.2,0.3C63.1,88.1,62.3,86.9,61.8,85.7z"/>
				</g>
				<g>
					<path opacity="0.53" fill-rule="evenodd" clip-rule="evenodd" fill="#EDBF8B" d="M26.2,78.4c-1.2,2.7-2.4,5.5-3.6,8.2
						c-0.2,0.4-0.4,0.9-0.7,1.2c0.5-0.1,1.1-0.2,2.4-0.2c1,0,1.5,0.1,2,0.4c-0.3-0.7-0.3-1.6-0.2-2.4C26.1,83.2,26.2,80.8,26.2,78.4
						z"/>
				</g>
			</g>
		</g>
	</g>
</g>
</svg>
