<?xml version="1.0" encoding="utf-8"?>
<!-- Generator: Adobe Illustrator 26.0.1, SVG Export Plug-In . SVG Version: 6.00 Build 0)  -->
<svg version="1.1" id="Capa_1" xmlns="http://www.w3.org/2000/svg" xmlns:xlink="http://www.w3.org/1999/xlink" x="0px" y="0px"
	 viewBox="0 0 172.8 96" enable-background="new 0 0 172.8 96" xml:space="preserve">
<g>
	<path opacity="0.4" fill-rule="evenodd" clip-rule="evenodd" fill="#FFFFFF" d="M19.1,60.6C8,68.6,7.4,84.7,13.9,96
		c7,0.3,136.3,1,136.9,0c12.5-22.7,13.8-63.7-7-82.3c-6.9-6.2-15.6-10.1-24.6-12.2c-12.2-2.8-25.5-2-36.4,4.2
		C70,13.1,64.2,27.2,55.6,38.6C51.4,44.2,46.5,49.2,40,52c-6.9,3-14.6,4-20.8,8.5C19.2,60.5,19.1,60.5,19.1,60.6z"/>
</g>
<g>
	<g>
		<g>
			<path fill-rule="evenodd" clip-rule="evenodd" fill="#184276" d="M154.6,77.8c-0.1,0-0.1,0-0.2-0.1c-0.7-0.4-4.4-1.1-6.7-1.5
				l-3.4-0.6l3.4-0.3c4.1-0.4,4.6-1.3,4.7-1.6c0.1-0.4-0.3-0.9-0.5-1c0,0,0,0,0,0c-0.4,0-2.1,1-3.7,2.3c-0.2,0.2-0.5,0.1-0.6-0.1
				c-0.2-0.2-0.1-0.5,0.1-0.6c2.5-1.9,4.1-2.7,4.7-2.3c0.4,0.2,1.2,1,1,1.9c-0.2,0.9-1.1,1.5-2.8,1.9c1.7,0.3,3.7,0.8,4.4,1.1
				c0.2,0.1,0.3,0.4,0.2,0.6C155,77.7,154.8,77.8,154.6,77.8z"/>
		</g>
		<g>
			<path fill-rule="evenodd" clip-rule="evenodd" fill="#E58A7B" d="M115.5,74.3c-1.4,0.8-2.9,1.3-4.7,1.3c-2.1,0-4-0.9-5.5-2.4
				c-0.5-0.5-0.9-1.1-1.3-1.8C107.7,70.2,112.3,71.8,115.5,74.3z"/>
		</g>
		<g>
			<path fill-rule="evenodd" clip-rule="evenodd" fill="#E58A7B" d="M100.5,47.6l9.2-0.3c0.3,6.2,1.3,12.3,2.1,15.7
				c2.3-3,5.1-7.9,6.5-14.5l9.9,1c-0.1,0.2-1.5,6-3.8,11.9c-1.8,4.6-4.6,10.3-8.8,12.9c-3.2-2.5-7.8-4.2-11.5-2.8
				C100.4,65.3,100,53,100.5,47.6z"/>
		</g>
		<g>
			<path fill-rule="evenodd" clip-rule="evenodd" fill="#2B183B" d="M145.9,31.6c2.8-0.1,4.2,3.5,1.6,5.8c-2.6,2.2-7,1.2-7.4-0.5
				c-0.4-1.7,1.9-4.3,1.9-4.3L145.9,31.6z"/>
		</g>
		<g>
			<path fill-rule="evenodd" clip-rule="evenodd" fill="#2B183B" d="M146.8,28.8c0.5-1.8,0.3-6.2-1.5-7.8c-1.8-1.6-3.5-1.2-3.5-1.2
				c-2.1-2.3-5.9-1.2-10,1.3c-4.2,2.5-2.1,7.7-2.1,7.7l13.7,4.1c0.6-0.4,1.3-0.8,2-1C145.9,31.2,146.4,30.2,146.8,28.8z"/>
		</g>
		<g>
			<path fill-rule="evenodd" clip-rule="evenodd" fill="#7BA7D8" d="M124.4,76.2c0,0-3.2,6.7-4.2,11.4c-1.1,4.7-1.3,8.2-1.3,8.2h41
				c0,0,0.7-12.4-11.7-20.5L124.4,76.2z"/>
		</g>
		<g>
			<path fill-rule="evenodd" clip-rule="evenodd" fill="#29130A" d="M117,53.1l-1.2,3c0,0,0.9,0.4,5.5,0.5l-0.3-1.6l-1.5-1.4
				L117,53.1z"/>
		</g>
		<g>
			<path fill-rule="evenodd" clip-rule="evenodd" fill="#F5DCC0" d="M129.4,42.2c-3.9-0.7-6.6,0.7-8.8,3.5c-2.3,2.8-6.5,6.7-6.5,6.7
				l6.6,4.9c0,0-3.4,4.4,1,8.2c0,0,0.7,7.5,2.7,10.8c0,0,7.9,4.6,23.7-1c0,0,3.7-16.7,4.7-18.3c1-1.7-0.2-12.2-0.2-12.2
				s-3.4-2.2-7.9-2.1c-4.5,0.1-7.3,1.6-7.3,1.6L129.4,42.2z"/>
		</g>
		<g>
			<path fill-rule="evenodd" clip-rule="evenodd" fill="#E36C5F" d="M132,29.6c0,0-1.7-1.8-3.2-1.3c-1.5,0.5-1.7,3.6-0.1,4.2
				c1.6,0.6,3.5-0.6,3.5-0.6L132,29.6z"/>
		</g>
		<g>
			<polygon fill-rule="evenodd" clip-rule="evenodd" fill="#E58A7B" points="130.5,42.3 135.2,53.2 142.7,43 136.4,43.1 			"/>
		</g>
		<g>
			<path fill-rule="evenodd" clip-rule="evenodd" fill="#29130A" d="M129.1,31.9C129.1,31.9,129.1,31.9,129.1,31.9
				c0,0-1.1-0.5-0.7-1.6c0.1-0.5,0.3-0.8,0.6-0.9c0.4-0.2,0.8-0.2,1.7,0.1c0,0,0.1,0,0,0.1c0,0,0,0-0.1,0c-0.8-0.3-1.3-0.3-1.6-0.1
				c-0.3,0.1-0.4,0.4-0.5,0.8c-0.3,1,0.6,1.4,0.6,1.5C129.1,31.8,129.1,31.8,129.1,31.9C129.1,31.9,129.1,31.9,129.1,31.9z"/>
		</g>
		<g>
			<path fill-rule="evenodd" clip-rule="evenodd" fill="#E58A7B" d="M141.1,36c0,0-0.6,4.4,0.2,5.2c0.7,0.9,2.3,1.2,2.3,1.2
				s-1.5,3.5-7.9,2.8c-5.8-0.6-4.7-3.1-4.7-3.1s2.2-0.8,2.8-1.3c0.5-0.5,0.5-3.9,0.5-3.9L141.1,36z"/>
		</g>
		<g>
			<path fill-rule="evenodd" clip-rule="evenodd" fill="#29130A" d="M140.6,36.2l-2.8,0.2l-3.7,0.5c0,0,0,1.6-0.1,2.8
				C135.1,39.8,138.3,39.6,140.6,36.2z"/>
		</g>
		<g>
			<path fill-rule="evenodd" clip-rule="evenodd" fill="#E58A7B" d="M130.6,24.1c-0.5,1.2,0,2.9-0.5,5.4c-0.4,2.4-0.6,7.3,2.9,8.3
				c2.4,0.7,5,0.3,6.7-0.5c1.6-0.8,2.8-2.2,3.3-3.9l1.6-5.4c1-3.5-1.1-7.3-4.8-8.2c-0.1,0-0.2,0-0.3-0.1
				C132.4,18.2,130.6,24.1,130.6,24.1z"/>
		</g>
		<g>
			<path fill-rule="evenodd" clip-rule="evenodd" fill="#29130A" d="M138,30.1c0-0.4-0.1-0.7-0.2-0.7c-0.2,0-0.3,0.3-0.4,0.7
				c0,0.4,0.1,0.7,0.2,0.7S138,30.5,138,30.1z"/>
		</g>
		<g>
			<path fill-rule="evenodd" clip-rule="evenodd" fill="#29130A" d="M132.5,29.5c0-0.4-0.1-0.7-0.2-0.7c-0.2,0-0.3,0.3-0.4,0.7
				c0,0.4,0.1,0.7,0.2,0.7C132.3,30.2,132.5,29.9,132.5,29.5z"/>
		</g>
		<g>
			<path fill-rule="evenodd" clip-rule="evenodd" fill="#29130A" d="M134.2,32.9C134.2,32.9,134.2,32.9,134.2,32.9
				c0.1-0.1,0.1-0.1,0.1-0.1c0,0-0.5-0.5-0.6-1.2c0-0.3,0.2-0.5,0.4-0.7c0.3-0.2,0.6-0.5,0.7-0.9c0,0,0-0.1-0.1-0.1
				c0,0-0.1,0-0.1,0.1c-0.1,0.4-0.3,0.6-0.6,0.8c-0.3,0.2-0.6,0.5-0.5,0.9C133.6,32.3,134.1,32.8,134.2,32.9
				C134.1,32.9,134.2,32.9,134.2,32.9z"/>
		</g>
		<g>
			<path fill-rule="evenodd" clip-rule="evenodd" fill="#29130A" d="M138.8,29c-0.1,0-0.1,0-0.2-0.1c0,0-0.6-0.5-1.5-0.4
				c-0.1,0-0.3-0.1-0.3-0.2c0-0.1,0.1-0.3,0.2-0.3c1.2-0.2,1.9,0.5,2,0.5c0.1,0.1,0.1,0.3,0,0.4C138.9,29,138.8,29,138.8,29z"/>
		</g>
		<g>
			<path fill-rule="evenodd" clip-rule="evenodd" fill="#29130A" d="M133.3,28.2c-0.1,0-0.1,0-0.2,0c0,0-0.7-0.3-1.6,0.2
				c-0.1,0.1-0.3,0-0.4-0.1c-0.1-0.1,0-0.3,0.1-0.3c1.1-0.6,2-0.2,2-0.2c0.1,0.1,0.2,0.2,0.1,0.3C133.4,28.1,133.4,28.2,133.3,28.2z
				"/>
		</g>
		<g>
			<path fill-rule="evenodd" clip-rule="evenodd" fill="#2B183B" d="M142.6,30.9c0,0-2.6-3.2-3.8-7.3c0,0-2,0.8-4,1.2
				c-2,0.4-3.1-0.1-4.2,1.5c-1.1,1.6-0.6-0.9-0.6-0.9s1.2-8.4,10.8-5.6c9.6,2.8,2.9,12.1,2.9,12.1L142.6,30.9z"/>
		</g>
		<g>
			<path fill-rule="evenodd" clip-rule="evenodd" fill="#DE5051" d="M138.8,31.4c0.4,0.2,0.6,0.5,0.3,0.9c-0.1,0.1-0.2,0.2-0.4,0.2
				c-0.7,0.2-1.5,0.1-2.1-0.1c-0.2-0.1-0.6-0.2-0.5-0.5c0.1-0.2,0.2-0.3,0.4-0.3c0.5-0.3,1.2-0.4,1.8-0.3
				C138.5,31.2,138.7,31.3,138.8,31.4z"/>
		</g>
		<g>
			<path fill-rule="evenodd" clip-rule="evenodd" fill="#DE5051" d="M132.5,31c0.3,0.2,0.6,0.5,0.3,0.8c-0.1,0.1-0.2,0.1-0.3,0.2
				c-0.6,0.1-1.3,0.1-1.9-0.1c-0.2-0.1-0.6-0.2-0.4-0.5c0.1-0.1,0.2-0.2,0.3-0.3c0.5-0.3,1.1-0.3,1.6-0.2
				C132.2,30.8,132.4,30.9,132.5,31z"/>
		</g>
		<g>
			<path fill-rule="evenodd" clip-rule="evenodd" fill="#FFFFFF" d="M138.8,23.5C138.8,23.5,138.9,23.5,138.8,23.5
				c1.4-0.9,2.5-3.1,2.6-3.2c0,0,0-0.1,0-0.1c0,0-0.1,0-0.1,0c0,0-1.1,2.3-2.5,3.2C138.8,23.4,138.7,23.4,138.8,23.5
				C138.8,23.5,138.8,23.5,138.8,23.5z"/>
		</g>
		<g>
			<path fill-rule="evenodd" clip-rule="evenodd" fill="#FFFFFF" d="M134.4,33.8c-0.3,0.1-0.7,0.1-1,0.1c-0.4,0.1-0.6,0.3-0.6,0.7
				c0.4,1.5,2.6,1.4,3.7,0.9c0.3-0.1,0.5-0.2,0.7-0.5c0.4-0.4,0.4-1.2-0.1-1.5c-0.4-0.3-1-0.2-1.5,0c-0.4,0.1-0.8,0.2-1.2,0.3
				C134.5,33.8,134.5,33.8,134.4,33.8z"/>
		</g>
		<g>
			<path fill-rule="evenodd" clip-rule="evenodd" fill="#29130A" d="M143.1,66.3c1-0.1,2.2-0.3,3.5-0.9c0.1,0,0.1-0.1,0.1-0.2
				c0-0.1-0.1-0.1-0.2-0.1c-6.6,2.9-9.8-2.2-9.8-2.2c0-0.1-0.2-0.1-0.2-0.1c-0.1,0-0.1,0.1-0.1,0.2
				C136.3,63.1,138.5,66.7,143.1,66.3z"/>
		</g>
		<g>
			<path fill-rule="evenodd" clip-rule="evenodd" fill="#29130A" d="M133.1,79.9c8.2,0,17.2-2.8,17.3-2.8c0,0,0.1-0.1,0.1-0.1
				c0,0-0.1-0.1-0.1-0.1c-0.2,0.1-18.4,5.7-26.5,0.9c0,0-0.1,0-0.1,0c0,0,0,0.1,0,0.1C126.2,79.4,129.6,79.9,133.1,79.9z"/>
		</g>
		<g>
			<path fill-rule="evenodd" clip-rule="evenodd" fill="#29130A" d="M157.3,95.9C157.4,95.9,157.4,95.9,157.3,95.9
				c0.5-8.7-8.6-18.3-8.7-18.4c0,0-0.1,0-0.1,0c0,0,0,0.1,0,0.1C148.6,77.7,157.7,87.3,157.3,95.9C157.2,95.9,157.3,95.9,157.3,95.9
				C157.3,95.9,157.3,95.9,157.3,95.9z"/>
		</g>
		<g>
			<path fill-rule="evenodd" clip-rule="evenodd" fill="#2B183B" d="M130.2,27.5C130.3,27.5,130.3,27.5,130.2,27.5
				c0.3-1.2,2-1.9,3.6-2c1.8-0.1,4-0.8,4.8-1.9c0,0,0-0.1,0-0.1c0,0-0.1,0-0.1,0c-0.8,1.1-2.9,1.7-4.7,1.9c-1.6,0.1-3.4,0.9-3.6,2.1
				C130.1,27.4,130.2,27.5,130.2,27.5C130.2,27.5,130.2,27.5,130.2,27.5z"/>
		</g>
		<g>
			<path fill-rule="evenodd" clip-rule="evenodd" fill="#FFFFFF" d="M144.1,30.1C144.2,30.1,144.2,30,144.1,30.1
				c0.1-0.1,0.1-0.2,0-0.2c-1.7-0.1-2.7-3-3.4-4.9c-0.3-0.8-0.5-1.4-0.7-1.7c0,0-0.1,0-0.1,0c0,0-0.1,0.1,0,0.1
				c0.2,0.3,0.4,0.9,0.7,1.6C141.3,27.1,142.3,29.9,144.1,30.1C144.1,30.1,144.1,30.1,144.1,30.1z"/>
		</g>
		<g>
			<path fill-rule="evenodd" clip-rule="evenodd" fill="#E58A7B" d="M141.9,30.8c0,0,1.7-1.8,3.2-1.3c1.5,0.5,1.7,3.6,0.1,4.2
				c-1.6,0.6-3.5-0.6-3.5-0.6L141.9,30.8z"/>
		</g>
		<g>
			<path fill-rule="evenodd" clip-rule="evenodd" fill="#29130A" d="M144.8,33C144.8,33,144.8,33,144.8,33c0,0,1.1-0.5,0.7-1.6
				c-0.1-0.5-0.3-0.8-0.6-0.9c-0.4-0.2-0.8-0.2-1.7,0.1c0,0-0.1,0,0,0.1c0,0,0,0,0.1,0c0.8-0.3,1.3-0.3,1.6-0.1
				c0.3,0.1,0.4,0.4,0.5,0.8c0.3,1-0.6,1.4-0.6,1.5C144.7,32.9,144.7,33,144.8,33C144.7,33,144.8,33,144.8,33z"/>
		</g>
		<g>
			<path fill-rule="evenodd" clip-rule="evenodd" fill="#DE5051" d="M165.2,68.3c1.5,5,2.1,8.9,2.3,11.9
				C164.5,77.1,163.2,72.1,165.2,68.3z"/>
		</g>
		<g>
			<path fill-rule="evenodd" clip-rule="evenodd" fill="#E58A7B" d="M158,81.5c-0.4-5.3-1.7-13.1-8.4-25.5l8.5-4.4
				c3.5,6.5,5.7,12,7.1,16.6c-2,3.8-0.7,8.7,2.3,11.9c0,0.2,0,0.4,0.1,0.6c0.5,7-0.5,14.8-0.5,15.1l-9.6-0.5
				C157.5,95.5,158.5,87.6,158,81.5z"/>
		</g>
		<g>
			<path fill-rule="evenodd" clip-rule="evenodd" fill="#29130A" d="M151.9,61l1.3,2.7c0,0,5.7-1.5,6.9-5
				C161.4,55.2,151.9,61,151.9,61z"/>
		</g>
		<g>
			<path fill-rule="evenodd" clip-rule="evenodd" fill="#F5DCC0" d="M148.6,43c3.7,0.8,7,2,10.6,6.3c3.6,4.3,4.7,6.1,4.7,6.1
				S159.4,63,151,62c0,0-5.1-6.4-5.1-6.7C145.8,54.9,148.6,43,148.6,43z"/>
		</g>
		<g>
			<path fill-rule="evenodd" clip-rule="evenodd" fill="#29130A" d="M151,62.1C151,62.1,151,62.1,151,62.1c0.1,0,0.1-0.1,0.1-0.1
				c-0.1-0.1-1.7-3.4-2.2-4c0,0-0.1,0-0.1,0c0,0,0,0.1,0,0.1C149.2,58.6,150.9,62,151,62.1C150.9,62,150.9,62.1,151,62.1z"/>
		</g>
		<g>
			<path fill-rule="evenodd" clip-rule="evenodd" fill="#29130A" d="M149.8,59.8C149.8,59.8,149.8,59.8,149.8,59.8
				c0.1-0.1,0.1-0.1,0.1-0.2l-1.4-0.9c0,0-0.1,0-0.1,0c0,0,0,0.1,0,0.1L149.8,59.8C149.7,59.8,149.7,59.8,149.8,59.8z"/>
		</g>
		<g>
			<path fill-rule="evenodd" clip-rule="evenodd" fill="#29130A" d="M156.9,49.5C156.9,49.5,157,49.4,156.9,49.5
				c0.1-0.1,0.1-0.2,0-0.2c-1-0.3-5.2-1.3-5.3-1.3c0,0-0.1,0-0.1,0.1c0,0,0,0.1,0.1,0.1C151.6,48.2,155.9,49.1,156.9,49.5
				C156.9,49.5,156.9,49.5,156.9,49.5z"/>
		</g>
		<g>
			<path fill-rule="evenodd" clip-rule="evenodd" fill="#29130A" d="M159,51.7C159.1,51.7,159.1,51.7,159,51.7
				c0.1-0.1,0.1-0.2,0-0.2l-4.7-1.9c0,0-0.1,0-0.1,0c0,0,0,0.1,0,0.1L159,51.7C159,51.7,159,51.7,159,51.7z"/>
		</g>
		<g>
			<path fill-rule="evenodd" clip-rule="evenodd" fill="#29130A" d="M120.7,57.4C120.7,57.4,120.7,57.4,120.7,57.4
				c-0.1-0.1-0.1-0.1-0.1-0.2l2.1-2.8c0,0,0.1-0.1,0.1,0c0,0,0.1,0.1,0,0.1L120.7,57.4C120.8,57.4,120.7,57.4,120.7,57.4z"/>
		</g>
		<g>
			<path fill-rule="evenodd" clip-rule="evenodd" fill="#29130A" d="M121.7,56C121.7,56,121.6,56,121.7,56c-0.1,0-0.1-0.1-0.1-0.1
				l0.3-2c0-0.1,0.1-0.1,0.1-0.1c0.1,0,0.1,0.1,0.1,0.1L121.7,56C121.7,56,121.7,56,121.7,56z"/>
		</g>
		<g>
			<path fill-rule="evenodd" clip-rule="evenodd" fill="#FFFFFF" d="M134.2,56.1c0-0.3,0.2-0.5,0.5-0.5c0.3,0,0.5,0.2,0.5,0.5
				c0,0.3-0.2,0.5-0.5,0.5C134.5,56.7,134.2,56.4,134.2,56.1z"/>
		</g>
		<g>
			<path fill-rule="evenodd" clip-rule="evenodd" fill="#FFFFFF" d="M133,60.1c0-0.3,0.2-0.5,0.5-0.5c0.3,0,0.5,0.2,0.5,0.5
				c0,0.3-0.2,0.5-0.5,0.5C133.3,60.6,133,60.4,133,60.1z"/>
		</g>
		<g>
			<path fill-rule="evenodd" clip-rule="evenodd" fill="#FFFFFF" d="M132.6,63.9c0-0.3,0.2-0.5,0.5-0.5c0.3,0,0.5,0.2,0.5,0.5
				c0,0.3-0.2,0.5-0.5,0.5C132.9,64.5,132.6,64.2,132.6,63.9z"/>
		</g>
		<g>
			<path fill-rule="evenodd" clip-rule="evenodd" fill="#FFFFFF" d="M132.7,67.6c0-0.3,0.2-0.5,0.5-0.5c0.3,0,0.5,0.2,0.5,0.5
				c0,0.3-0.2,0.5-0.5,0.5C133,68.2,132.7,67.9,132.7,67.6z"/>
		</g>
		<g>
			<path fill-rule="evenodd" clip-rule="evenodd" fill="#FFFFFF" d="M132.9,70.9c0-0.3,0.2-0.5,0.5-0.5c0.3,0,0.5,0.2,0.5,0.5
				c0,0.3-0.2,0.5-0.5,0.5C133.1,71.5,132.9,71.2,132.9,70.9z"/>
		</g>
		<g>
			<path fill-rule="evenodd" clip-rule="evenodd" fill="#FFFFFF" d="M133.3,74.6c0-0.3,0.2-0.5,0.5-0.5c0.3,0,0.5,0.2,0.5,0.5
				c0,0.3-0.2,0.5-0.5,0.5C133.5,75.2,133.3,74.9,133.3,74.6z"/>
		</g>
		<g>
			<path fill-rule="evenodd" clip-rule="evenodd" fill="#184276" d="M151.4,95.6c-0.6-6.2-6.6-18.5-6.7-19.3
				c-0.1-0.8-1.9-14.1-0.3-21.2l-20.7-0.4c0,0-2.7,9.5,0.7,21.4c0,0-3.3,7.7-3.5,8.7c-0.2,1-1.6,6.9-2,10.8L151.4,95.6z"/>
		</g>
		<g>
			<g>
				<path fill-rule="evenodd" clip-rule="evenodd" fill="#FFFFFF" d="M129,60.5c0-1.7,0-3.6,0-5.4c0-0.1,0-0.1,0-0.2l-0.3,0
					c0,0.1,0,0.2,0,0.2c0,1.8,0,3.7,0,5.4c0.2,11.7,0.9,23.5,2,35.1l0.3,0C129.9,84.1,129.2,72.2,129,60.5z"/>
			</g>
			<g>
				<path fill-rule="evenodd" clip-rule="evenodd" fill="#FFFFFF" d="M124.6,95.7l0.3,0c0.9-4.5,1.5-9,1.6-13.6c0-1.5,0-3.5-0.3-5.5
					c-0.1-0.5-0.2-1.1-0.3-1.6c-0.1-0.6-0.2-1.2-0.3-1.8c-0.2-1.7-0.2-3.4-0.2-5.1l0.1-12.9c0-0.1,0-0.2,0-0.4l-0.3,0
					c0,0.1,0,0.2,0,0.4l-0.1,12.9c0,1.7,0,3.4,0.2,5.2c0.1,0.6,0.2,1.2,0.3,1.8c0.1,0.5,0.2,1.1,0.3,1.6c0.3,2,0.3,4,0.2,5.5
					C126.1,86.7,125.6,91.3,124.6,95.7z"/>
			</g>
			<g>
				<path fill-rule="evenodd" clip-rule="evenodd" fill="#FFFFFF" d="M137.1,75c-0.8-6.6-1-13.3-0.6-20l-0.3,0
					c-0.4,6.7-0.2,13.4,0.6,20c0.8,6.9,2.2,13.9,3.7,20.6l0.3,0C139.4,88.9,137.9,82,137.1,75z"/>
			</g>
			<g>
				<path fill-rule="evenodd" clip-rule="evenodd" fill="#FFFFFF" d="M135.5,91.5c0.1-1.1,0.1-2.2,0-3.3c-0.1-1.5-0.4-2.9-0.7-4.3
					c-0.1-0.6-0.3-1.2-0.4-1.7c-0.7-3.7-0.8-7.6-0.9-11.3c-0.1-2.9-0.1-5.9-0.5-8.9c-0.1-0.6-0.2-1.2-0.3-1.9
					c-0.2-1.7-0.5-3.5-0.5-5.2l-0.3,0c0,1.8,0.2,3.5,0.5,5.2c0.1,0.6,0.2,1.2,0.3,1.8c0.4,2.9,0.4,5.9,0.5,8.8
					c0.1,3.7,0.2,7.6,0.9,11.3c0.1,0.6,0.2,1.2,0.4,1.8c0.3,1.4,0.6,2.9,0.7,4.3c0.1,1.1,0,2.2,0,3.2c-0.1,1.4-0.1,2.8,0,4.2l0.3,0
					C135.4,94.3,135.5,92.9,135.5,91.5z"/>
			</g>
			<g>
				<path fill-rule="evenodd" clip-rule="evenodd" fill="#FFFFFF" d="M145.3,95.6c0-2.5,0-5.1-0.6-7.6c-0.4-1.6-1-3.1-1.6-4.5
					c-0.5-1.2-1-2.4-1.3-3.6c-0.9-3.1-1.1-6.3-1.2-9.3c-0.1-5.1,0.1-10.3,0.7-15.4l-0.3,0c-0.6,5.1-0.8,10.3-0.7,15.4
					c0.1,3,0.3,6.3,1.2,9.4c0.4,1.2,0.9,2.5,1.3,3.6c0.6,1.5,1.2,3,1.6,4.5c0.6,2.5,0.7,5,0.6,7.5L145.3,95.6z"/>
			</g>
		</g>
		<g>
			<path fill-rule="evenodd" clip-rule="evenodd" fill="#184276" d="M143.1,56.3C143,56.3,143,56.3,143.1,56.3
				c-0.3,0-0.5-0.3-0.5-0.5c0.5-3.8,2.9-11.8,4.5-13.5c0.2-0.2,0.5-0.2,0.7,0c0.2,0.2,0.2,0.5,0,0.6c-1.4,1.5-3.8,9-4.3,13
				C143.5,56.1,143.3,56.3,143.1,56.3z"/>
		</g>
		<g>
			<path fill-rule="evenodd" clip-rule="evenodd" fill="#184276" d="M124.2,55.7C124.2,55.7,124.2,55.7,124.2,55.7
				c-0.3,0-0.5-0.2-0.5-0.5c0.2-2.8,2.2-10.9,4.1-13.6c0.1-0.2,0.4-0.3,0.6-0.1c0.2,0.1,0.3,0.4,0.1,0.6c-1.8,2.6-3.7,10.4-3.9,13.1
				C124.7,55.6,124.5,55.7,124.2,55.7z"/>
		</g>
		<g>
			<path fill-rule="evenodd" clip-rule="evenodd" fill="#184276" d="M144.2,76.9c-0.2,0-0.4-0.2-0.5-0.4c0-0.2,0.2-0.5,0.4-0.5
				c0,0,2.1-0.2,3.7-1.2c0.2-0.1,0.5,0,0.6,0.2c0.1,0.2,0,0.5-0.2,0.6C146.5,76.6,144.4,76.9,144.2,76.9
				C144.3,76.9,144.3,76.9,144.2,76.9z"/>
		</g>
		<g>
			<g>
				<path fill-rule="evenodd" clip-rule="evenodd" fill="#E58A7B" d="M109.3,48c0,0,2.3-3,1.1-6.3c-0.7-1.9-3.3-4.2-3.3-4.2
					s-8.6,1.3-8.7,3.1c-0.1,1.8,2,8.3,2,8.3L109.3,48z"/>
			</g>
			<g>
				<path fill-rule="evenodd" clip-rule="evenodd" fill="#E58A7B" d="M109.2,45.7c0.5-0.1,0.9-0.5,1-1c0.6-3,1.5-6.6,1.9-7.2
					c0.4-0.6,0.2-1.3-0.4-1.7c-0.6-0.4-1.4-0.2-1.7,0.3c-0.9,1.3-2,6.5-2.3,8.1c-0.1,0.7,0.3,1.3,1,1.4
					C108.8,45.7,109,45.7,109.2,45.7z"/>
			</g>
			<g>
				<path fill-rule="evenodd" clip-rule="evenodd" fill="#E58A7B" d="M106.9,41.6c0.1,0,0.2,0,0.3-0.1c0.7-0.2,1-0.9,0.8-1.5
					c0,0-1.5-4.7-2-7l-0.5-2.4c-0.1-0.7-0.8-1.1-1.5-0.9c-0.7,0.1-1.1,0.8-1,1.4l0.5,2.4c0.5,2.4,2,7.1,2,7.3
					C105.9,41.3,106.4,41.7,106.9,41.6z"/>
			</g>
			<g>
				<path fill-rule="evenodd" clip-rule="evenodd" fill="#29130A" d="M105.3,47.2C105.3,47.2,105.3,47.2,105.3,47.2
					c0.1,0,0.1-0.1,0.1-0.1c-1.5-3.7,1.8-5.4,1.9-5.5c0.1,0,0.1-0.1,0-0.1c0-0.1-0.1-0.1-0.1,0c0,0-3.6,1.8-2,5.8
					C105.2,47.2,105.3,47.2,105.3,47.2z"/>
			</g>
			<g>
				<path fill-rule="evenodd" clip-rule="evenodd" fill="#29130A" d="M99.9,41.2C100,41.2,100,41.2,99.9,41.2c0.1,0,4.7-1.7,6.4-2.2
					c0.1,0,0.1-0.1,0.1-0.1c0-0.1-0.1-0.1-0.1-0.1c-1.7,0.5-6.4,2.2-6.4,2.2c-0.1,0-0.1,0.1-0.1,0.1C99.9,41.1,99.9,41.2,99.9,41.2z
					"/>
			</g>
			<g>
				<g>
					<path fill-rule="evenodd" clip-rule="evenodd" fill="#DF6868" d="M102.9,36.4c-0.5,0.2-0.9,0.6-1,1c-0.3-0.3-0.8-0.4-1.3-0.2
						c-0.6,0.2-0.9,0.6-1,1.1c0,0.1,0,0.1,0,0.2c-0.3-0.3-0.8-0.4-1.2-0.2c-0.5,0.2-0.8,0.5-0.9,1c0,0.1,0,0.3,0,0.5l1,3.2
						c0.2,0.6,0.9,0.9,1.5,0.7c0.5-0.1,0.8-0.5,0.9-0.9c0.3,0.5,0.9,0.7,1.6,0.5c0.5-0.2,0.9-0.6,1-1c0.3,0.3,0.8,0.4,1.3,0.2
						c0.6-0.2,0.9-0.6,1-1.1c-0.2-1.6-0.7-2.7-1.3-4.8C104.2,36.4,103.3,36.3,102.9,36.4z"/>
				</g>
				<g>
					<path fill-rule="evenodd" clip-rule="evenodd" fill="#29130A" d="M105.8,41.1C105.8,41.1,105.8,41.1,105.8,41.1
						C105.8,41.1,105.9,41,105.8,41.1l-1.2-4.2c0,0,0,0-0.1,0c0,0,0,0,0,0.1L105.8,41.1C105.7,41.1,105.7,41.1,105.8,41.1z"/>
				</g>
				<g>
					<path fill-rule="evenodd" clip-rule="evenodd" fill="#29130A" d="M103.4,42.2C103.4,42.2,103.4,42.2,103.4,42.2
						C103.5,42.2,103.5,42.2,103.4,42.2l-0.6-2.6c0,0,0,0-0.1,0c0,0,0,0,0,0.1L103.4,42.2C103.4,42.2,103.4,42.2,103.4,42.2z"/>
				</g>
				<g>
					<path fill-rule="evenodd" clip-rule="evenodd" fill="#29130A" d="M100.5,41.7C100.5,41.7,100.5,41.7,100.5,41.7
						C100.6,41.7,100.6,41.7,100.5,41.7l-0.6-3c0,0,0,0-0.1,0c0,0,0,0,0,0.1L100.5,41.7C100.5,41.7,100.5,41.7,100.5,41.7z"/>
				</g>
				<g>
					<path fill-rule="evenodd" clip-rule="evenodd" fill="#29130A" d="M100.8,42.7C100.8,42.7,100.9,42.7,100.8,42.7
						C100.9,42.7,100.9,42.7,100.8,42.7l0-0.5c0,0,0,0-0.1,0c0,0,0,0,0,0.1L100.8,42.7C100.8,42.7,100.8,42.7,100.8,42.7z"/>
				</g>
				<g>
					<path fill-rule="evenodd" clip-rule="evenodd" fill="#29130A" d="M103.6,41C103.6,41,103.6,41,103.6,41l0.2,1c0,0,0,0,0,0
						c0,0,0.6,0.2,1.2-0.1c0,0,0,0,0-0.1c0,0,0,0-0.1,0c-0.5,0.2-1,0.1-1.1,0.1l-0.2-0.9c0.5-0.6,1.3-0.6,1.5-0.6l0.2,0.8
						c0,0,0,0,0.1,0c0,0,0,0,0-0.1l-0.2-0.8c0,0,0,0,0,0C105.2,40.3,104.2,40.2,103.6,41C103.6,40.9,103.6,40.9,103.6,41z"/>
				</g>
				<g>
					<path fill-rule="evenodd" clip-rule="evenodd" fill="#29130A" d="M101.1,41.7C101.1,41.7,101.1,41.7,101.1,41.7l0.2,1
						c0,0,0,0,0,0c0,0,0.6,0.2,1.2-0.1c0,0,0,0,0-0.1c0,0,0,0-0.1,0c-0.5,0.2-1,0.1-1.1,0.1l-0.2-0.9c0.5-0.6,1.3-0.6,1.5-0.6
						l0.2,0.8c0,0,0,0,0.1,0c0,0,0,0,0-0.1l-0.2-0.8c0,0,0,0,0,0C102.7,41,101.6,40.9,101.1,41.7C101.1,41.6,101.1,41.6,101.1,41.7z
						"/>
				</g>
				<g>
					<path fill-rule="evenodd" clip-rule="evenodd" fill="#29130A" d="M98.5,42.2C98.5,42.2,98.5,42.2,98.5,42.2l0.2,0.9
						c0,0,0,0,0,0c0,0,0.6,0.2,1.2-0.1c0,0,0,0,0-0.1c0,0,0,0-0.1,0c-0.5,0.2-0.9,0.1-1,0.1l-0.2-0.9c0.5-0.6,1.2-0.6,1.4-0.5
						l0.2,0.8c0,0,0,0,0.1,0c0,0,0,0,0-0.1l-0.2-0.8c0,0,0,0,0,0C100.1,41.5,99.1,41.4,98.5,42.2C98.6,42.1,98.5,42.1,98.5,42.2z"/>
				</g>
			</g>
		</g>
		<g>
			<path fill-rule="evenodd" clip-rule="evenodd" fill="#F5DCC0" d="M145.7,42.7c-2.7-0.7-4.1-0.8-4.7-3c0,0-3.2,1.9-7.1,0.5l-0.9,1
				l-3.8,1.4l4.6,11.4l3.9-0.4L145.7,42.7z"/>
		</g>
		<g>
			<g>
				<path fill-rule="evenodd" clip-rule="evenodd" fill="#F5DCC0" d="M144.2,13c6.2,1.7,5.5,7.3,5.5,7.3s5.1,1.7,4.1,4.4
					c-1,2.8-8,2.7-12-1.9c0,0-8,0.5-11.5-2.9c-3.4-3.4-1.7-6.1,1.9-7.7c1.8-0.8,6.3,1,6.3,1S139.9,11.8,144.2,13z"/>
			</g>
			<g>
				<path fill-rule="evenodd" clip-rule="evenodd" fill="#F7E8D9" d="M147,28.2c0,0-9.5-5.1-17.9-3.3c0,0,1.3-4.3,1.4-5
					c0.1-0.2,1.4-0.4,3-0.6c4.7-0.4,9.3,0.9,13,3.7l1.5,1.1L147,28.2z"/>
			</g>
			<g>
				<path fill-rule="evenodd" clip-rule="evenodd" fill="#29130A" d="M142.3,20c-0.2,0-0.3,0-0.4-0.1c-0.1-0.1-0.1-0.1-0.1-0.2
					c0-0.2,0.3-0.3,0.7-0.5c0.5-0.3,1.1-0.6,1.2-1c0,0,0-0.1,0.1-0.1c0,0,0.1,0,0.1,0.1c-0.1,0.5-0.8,0.9-1.3,1.1
					c-0.3,0.2-0.6,0.3-0.6,0.4c0,0,0,0,0.1,0.1c0.5,0.3,3.4-0.6,4.1-1.5c0,0,0.1,0,0.1,0c0,0,0,0.1,0,0.1
					C145.6,19.1,143.3,20,142.3,20z"/>
			</g>
			<g>
				<path fill-rule="evenodd" clip-rule="evenodd" fill="#29130A" d="M133.2,18.9C133.2,18.9,133.2,18.9,133.2,18.9
					c-0.9-0.6-1.4-2.6-1.4-2.7c0,0,0-0.1,0.1-0.1c0,0,0.1,0,0.1,0.1c0,0,0.5,2,1.3,2.6C133.3,18.8,133.3,18.9,133.2,18.9
					C133.3,18.9,133.2,18.9,133.2,18.9z"/>
			</g>
			<g>
				<path fill-rule="evenodd" clip-rule="evenodd" fill="#29130A" d="M132.4,18.9C132.4,18.9,132.4,18.9,132.4,18.9
					c-0.6-0.2-1.7-1.6-1.8-1.7c0,0,0-0.1,0-0.1c0,0,0.1,0,0.1,0c0,0,1.2,1.5,1.7,1.6C132.5,18.8,132.5,18.8,132.4,18.9
					C132.5,18.9,132.5,18.9,132.4,18.9z"/>
			</g>
			<g>
				<path fill-rule="evenodd" clip-rule="evenodd" fill="#29130A" d="M144.1,20.9C144.1,20.9,144.1,20.9,144.1,20.9
					c-0.1-0.1,0-0.1,0-0.1c0.8,0,1.5-0.5,1.5-0.5c0,0,0.1,0,0.1,0c0,0,0,0.1,0,0.1C145.7,20.4,145,20.9,144.1,20.9L144.1,20.9z"/>
			</g>
		</g>
	</g>
	<g>
		<g>
			<path fill-rule="evenodd" clip-rule="evenodd" fill="#FFFFFF" d="M87.5,36c0-2.7,7.6-5,17.1-5.1c9.5-0.1,17.1,2,17.2,4.8
				c0,2.7-7.6,5-17.1,5.1C95.2,40.9,87.5,38.7,87.5,36z"/>
		</g>
		<g>
			<path fill-rule="evenodd" clip-rule="evenodd" fill="#FFFFFF" d="M93,40.5c2,1.6,5.6,1.7,8.2,1.9c3.2,0.3,6.4,0.2,9.6-0.1
				c1.9-0.2,4.5-0.5,5.8-2.1c0.3-0.3,0.4-0.7,0.5-1c0.5-1.2,1.2-2.3,2.2-3.3c-7.4,0.3-14.7,0.5-22.1,0.3c-2,0-4.1-0.1-5.8,1
				C91.6,38.5,92,39.8,93,40.5z"/>
		</g>
		<g>
			<path fill-rule="evenodd" clip-rule="evenodd" fill="#EFC495" d="M111.2,27.3c-2.7-1.3-5.9-1.8-8.9-1.2c-1.5,0.3-3,1-3.6,2.3
				c-0.3,0.6-0.4,1.3-0.9,1.8c-0.9,1-2.6,0.6-3.9,1.1c-1.1,0.5-1.7,1.8-2.7,2.5c-0.4,0.3-1,0.6-1.1,1.1c-0.2,0.5,0.1,1.1,0.6,1.4
				c0.4,0.3,1,0.4,1.5,0.5c5.2,1,10.6,1,15.9,1c1.9,0,3.8,0,5.7-0.3c1.5-0.3,3-0.7,4.3-1.4c0.7-0.9,0.2-2.1-0.6-2.9
				c-0.8-0.8-1.8-1.3-2.5-2.2c-0.3-0.5-0.6-1-0.9-1.6C113.4,28.6,112.3,27.8,111.2,27.3z"/>
		</g>
		<g>
			<g>
				<path fill-rule="evenodd" clip-rule="evenodd" fill="#F2D086" d="M106.2,27.6c-0.3,0.5-0.5,1.1-0.6,1.8
					c-0.1,0.4-0.1,0.8-0.3,1.1c-0.3,1.1-1.1,2-2.1,2.4c-1.1,0.5-2.3,0.5-3.3-0.1c-0.7-0.4-1.2-1.1-1.7-1.8c-0.1-0.2-0.2-0.3-0.3-0.5
					c-0.1-0.1-0.2-0.2-0.3-0.4c0,0,0.1-0.1,0.1-0.1c0,0,0.1-0.1,0.1-0.1c0.1,0.1,0.2,0.3,0.3,0.4c0.1,0.2,0.2,0.3,0.4,0.5
					c0.5,0.6,1,1.3,1.6,1.7c0.9,0.5,2,0.5,3,0.1c0.9-0.4,1.6-1.3,2-2.3c0.1-0.3,0.2-0.7,0.3-1.1c0.1-0.7,0.2-1.3,0.6-1.9
					c0.4-0.6,1.1-1,1.8-1.3c0.2,0,0.4,0.1,0.6,0.1C107.5,26.5,106.7,26.9,106.2,27.6z"/>
			</g>
			<g>
				<path fill-rule="evenodd" clip-rule="evenodd" fill="#F2D086" d="M103.5,26c-0.4,0.5-0.5,1.1-0.6,1.8c0,0.2,0,0.4-0.1,0.6
					c-0.1,0.9-0.7,1.9-1.7,1.9c-0.7,0-1.2-0.6-1.4-1.1c-0.2-0.6-0.1-1.3,0.1-1.8c0-0.1,0.1-0.2,0.1-0.4c0.1-0.1,0.3-0.2,0.4-0.2
					c-0.1,0.2-0.2,0.4-0.2,0.7c-0.1,0.5-0.2,1.1-0.1,1.6c0.1,0.5,0.6,0.9,1.1,0.9c0.7,0,1.2-0.8,1.4-1.7c0-0.2,0-0.4,0.1-0.5
					c0.1-0.6,0.1-1.3,0.5-1.8C103.3,25.9,103.4,25.9,103.5,26C103.5,25.9,103.5,26,103.5,26z"/>
			</g>
			<g>
				<path fill-rule="evenodd" clip-rule="evenodd" fill="#F2D086" d="M102.3,35.6c1-0.3,2.2-0.7,3.3-1.3c0.6-0.4,1.2-0.9,1.8-1.3
					c0.5-0.4,0.9-0.8,1.5-1.1c1.6-1.1,3.4-1.7,5.3-1.8c0.1,0.1,0.1,0.2,0.1,0.3c-1.9,0.1-3.8,0.7-5.3,1.8c-0.5,0.3-1,0.7-1.4,1.1
					c-0.6,0.5-1.2,1-1.9,1.4c-1.1,0.7-2.3,1.1-3.4,1.4c-1.6,0.5-4,1.1-6.5,0.9c-2.3-0.1-4.4-0.9-5.8-2.2c0.1-0.1,0.1-0.2,0.2-0.2
					c1.4,1.2,3.4,2,5.7,2.1C98.4,36.6,100.8,36,102.3,35.6z"/>
			</g>
			<g>
				<path fill-rule="evenodd" clip-rule="evenodd" fill="#F2D086" d="M108.9,37.5c0.8-0.4,1.5-0.9,2.3-1.3c0.9-0.6,1.9-1.2,2.9-1.6
					c0.8-0.4,2.1-0.9,3.6-0.9c0.1,0.1,0.1,0.2,0.2,0.3c-1.5,0-2.8,0.5-3.7,0.9c-1,0.5-1.9,1.1-2.8,1.6c-0.7,0.5-1.5,0.9-2.3,1.4
					c-0.1,0-0.1,0.1-0.2,0.1c-0.2,0-0.5,0-0.7,0C108.5,37.8,108.7,37.7,108.9,37.5z"/>
			</g>
			<g>
				<path fill-rule="evenodd" clip-rule="evenodd" fill="#F2D086" d="M102.5,37c3.9-1.3,7.9-2.7,11.5-4.7l0.1-0.1
					c0.4-0.2,0.8-0.4,1.2-0.6c0.1,0.1,0.2,0.2,0.2,0.2c-0.4,0.2-0.9,0.4-1.3,0.6l-0.1,0.1c-3.6,2-7.7,3.4-11.5,4.7
					c-0.5,0.2-1.1,0.4-1.6,0.5c-0.3,0-0.6,0-0.9,0C100.8,37.6,101.7,37.3,102.5,37z"/>
			</g>
			<g>
				<path fill-rule="evenodd" clip-rule="evenodd" fill="#F2D086" d="M111.7,27.6c-0.2,0.1-0.3,0.1-0.5,0.2
					c-1.1,0.5-2.1,1.4-2.8,2.6c-0.2,0.2-0.3,0.5-0.4,0.8c-0.3,0.5-0.5,1-0.9,1.4c-1.1,1.4-3,2.3-5.4,2.5c-1.3,0.1-4.3,0.1-6.1-2
					c-0.5-0.5-0.8-1.2-1.1-1.8c0-0.1-0.1-0.1-0.1-0.2c0.1,0,0.2,0,0.3-0.1c0,0,0,0.1,0,0.1c0.3,0.6,0.6,1.2,1.1,1.7
					c1.7,2,4.7,2,5.9,1.8c1.3-0.1,3.8-0.6,5.2-2.4c0.3-0.4,0.6-0.9,0.8-1.3c0.1-0.3,0.3-0.5,0.5-0.8c0.8-1.2,1.8-2.2,2.9-2.7
					c0.1,0,0.2-0.1,0.3-0.1C111.4,27.4,111.6,27.5,111.7,27.6z"/>
			</g>
			<g>
				<path fill-rule="evenodd" clip-rule="evenodd" fill="#F2D086" d="M116.5,32.6c0.1,0.1,0.2,0.2,0.3,0.2c-2.3,0.4-4.4,1.8-6,2.9
					c-1.3,0.9-2.5,1.6-3.7,2.2c-0.3,0-0.5,0-0.8,0c1.4-0.5,2.8-1.4,4.3-2.4C112.2,34.4,114.2,33,116.5,32.6z"/>
			</g>
		</g>
		<g>
			<path fill-rule="evenodd" clip-rule="evenodd" fill="#EDB92A" d="M105.1,37.9c-0.7,0-1.2-0.1-1.6-0.3c-0.4-0.2-0.7-0.4-1-0.7
				c-0.1-0.1-0.2-0.1-0.3-0.2c-0.6-0.4-1.1-0.7-1.6-0.8c-0.9-0.2-1.8,0-2.7,0.1c-0.9,0.2-1.8,0.4-2.8,0.1c-0.9-0.2-1.8-1-1.7-2
				c0-0.3,0.2-0.7,0.6-0.9c0.2-0.1,0.5-0.1,0.7-0.1l2.4,0c0.7,0,1.5,0,2.3-0.1c-0.1-0.1-0.2-0.2-0.3-0.3c-0.2-0.3-0.4-0.7-0.6-1
				c-0.3-0.5-0.6-1-1-1.5c-0.6-0.7-1.6-1.3-2.6-1c-0.6,0.2-1.1,0.7-1.4,1c-0.9,1.1-1.5,2.3-1.8,3.7c0,0.1-0.1,0.1-0.1,0.1
				c-0.1,0-0.1-0.1-0.1-0.1c0.3-1.4,0.9-2.7,1.9-3.8c0.3-0.4,0.9-0.9,1.5-1.1c1.1-0.3,2.2,0.4,2.8,1.1c0.4,0.5,0.7,1,1.1,1.5
				c0.2,0.3,0.4,0.7,0.6,1c0.1,0.1,0.2,0.3,0.3,0.4c0.3-0.1,0.6-0.2,0.9-0.3c0.7-0.3,1.2-1,1.4-1.7c-0.2-0.4-0.2-0.8-0.2-1.2
				c-0.2-0.4-0.6-0.7-0.9-1c-0.1-0.1-0.1-0.1-0.2-0.2c-0.4,0.2-0.8,0.5-1.2,0.7c-0.1,0-0.1,0-0.1,0c0,0,0-0.1,0-0.1
				c0.4-0.2,0.8-0.4,1.2-0.6c-0.1-0.1-0.3-0.2-0.4-0.4c-0.2-0.3-0.5-0.7-0.4-1.1c0.2-0.7,1-0.9,1.6-0.9c0.3,0,0.7,0,1.1,0.2
				c0.1,0.1,0.2,0.2,0.3,0.3c0.1-0.2,0.2-0.3,0.3-0.5c0-0.1,0.1-0.2,0.1-0.2c0.1-0.2,0.2-0.5,0.4-0.7c0.3-0.3,0.8-0.5,1.4-0.6
				c1-0.2,2.3,0.3,2.5,1.2c0,0.1,0,0.2,0,0.3c-0.1,0.2-0.3,0.3-0.4,0.3l-2.4,1c-0.5,0.2-1,0.4-1.4,0.7c0,0.1,0,0.1,0,0.2
				c0.1,0.4,0.1,0.9,0.3,1.3c0.5,0.8,1.5,1,2.3,0.9c0.8-0.2,1.5-0.6,2.2-1.4c0.1-0.1,0.2-0.2,0.3-0.4c0.3-0.4,0.7-0.8,1.2-1.1
				c1.1-0.6,2.4-0.4,3.4,0c0.9,0.3,2.3,1,2.6,2.4c0,0,0,0.1-0.1,0.1c0,0-0.1,0-0.1,0c-0.4-0.5-1.1-0.8-1.8-0.8c0,0,0,0,0,0
				c0.9,0.4,1.8,0.7,2.5,1.3c0.4,0.4,0.7,0.8,1.1,1.4c0.3,0.5,0.7,1.2,0.7,1.9c0,0.4-0.3,0.8-0.6,1c-0.3,0.2-0.6,0.3-0.8,0.2
				c-0.4-0.1-0.8-0.5-1-1c-0.1-0.2-0.1-0.3-0.2-0.5c-0.1-0.3-0.1-0.5-0.3-0.8c-0.5-1-2-1.2-3-0.8c-0.3,0.1-0.9,0.4-1.2,1
				c-0.1,0.2-0.1,0.5-0.2,0.8c0,0.1,0,0.2,0,0.3c-0.2,1.2-0.9,2.3-2,3c-0.9,0.6-2.2,0.9-3.4,0.9C105.2,37.9,105.1,37.9,105.1,37.9
				L105.1,37.9z M115.2,32.5L115.2,32.5c0.1,0.3,0.2,0.5,0.3,0.8c0,0.2,0.1,0.3,0.1,0.5c0.1,0.2,0.3,0.8,0.8,0.9
				c0.3,0.1,0.5,0,0.7-0.2c0.3-0.2,0.5-0.6,0.5-0.9c0-0.6-0.3-1.2-0.6-1.7c-0.4-0.6-0.7-1-1.1-1.4c-0.7-0.6-1.6-1-2.6-1.4
				c0,0-0.1,0-0.1-0.1c-0.3,0-0.5,0.1-0.8,0.2c-1,0.5-1.7,1.4-2.3,2.4c-0.1,0.1-0.2,0.3-0.3,0.4c-0.5,0.8-1.1,1.7-1.8,2.3
				c-1.2,1-3.1,1.4-4.8,1c-1.4-0.3-2.7-1.1-3.6-2.2c-0.8,0.2-1.6,0.2-2.4,0.2l-2.4,0c-0.2,0-0.4,0-0.6,0.1c-0.2,0.1-0.4,0.4-0.4,0.8
				c-0.1,0.8,0.8,1.6,1.6,1.8c0.9,0.2,1.8,0,2.7-0.1c0.9-0.2,1.8-0.4,2.8-0.1c0.5,0.1,1.1,0.4,1.7,0.9c0.1,0.1,0.2,0.1,0.3,0.2
				c0.3,0.2,0.6,0.5,1,0.7c0.4,0.2,0.9,0.3,1.5,0.3c1.3,0,2.5-0.3,3.5-0.9c1-0.7,1.8-1.7,1.9-2.8c0-0.1,0-0.2,0-0.3
				c0-0.3,0.1-0.6,0.2-0.9c0.2-0.5,0.6-0.9,1.3-1.1c0.3-0.1,0.7-0.2,1.1-0.2C113.9,31.4,114.8,31.7,115.2,32.5L115.2,32.5z
				 M112.2,28.9L112.2,28.9c-0.5,0-1,0.3-1.5,0.6c-0.4,0.3-0.8,0.6-1.2,0.9c-0.6,0.5-1.2,1-1.9,1.4c-1.3,0.8-2.7,1.1-3.8,0.8
				c-0.7-0.2-1.4-0.7-1.8-1.4c-0.2,0.7-0.8,1.3-1.4,1.6c-0.3,0.1-0.5,0.2-0.8,0.3c0.9,1,2.2,1.8,3.4,2.1c1.6,0.4,3.4,0,4.6-1
				c0.7-0.6,1.3-1.4,1.8-2.2c0.1-0.1,0.2-0.3,0.3-0.4c0.6-1,1.4-1.9,2.4-2.4c0.1-0.1,0.3-0.1,0.5-0.2
				C112.6,28.9,112.4,28.8,112.2,28.9L112.2,28.9z M113.2,28.8L113.2,28.8c0.7-0.1,1.5,0,2.1,0.5c-0.4-1-1.6-1.6-2.3-1.8
				c-0.9-0.3-2.2-0.6-3.2,0c-0.4,0.3-0.8,0.7-1.1,1.1c-0.1,0.1-0.2,0.3-0.3,0.4c-0.7,0.8-1.5,1.3-2.3,1.5c-1,0.2-2.1-0.2-2.5-1
				c-0.2-0.4-0.3-0.9-0.4-1.3c0,0,0,0,0-0.1c-0.6,0.4-1.1,0.9-1.2,1.6c0,0,0,0,0,0c0,0,0,0.1,0.1,0.1c0.1,0.3,0.2,0.7,0.1,1
				c0.3,0.7,1.1,1.3,1.8,1.5c1.1,0.3,2.4,0,3.6-0.7c0.7-0.4,1.3-0.9,1.9-1.4c0.4-0.3,0.8-0.6,1.2-0.9c0.5-0.3,1-0.7,1.6-0.7
				c0,0,0,0,0.1,0C112.6,28.6,112.9,28.7,113.2,28.8L113.2,28.8z M103.1,27.8L103.1,27.8c-0.1-0.4-0.2-0.7-0.3-1
				c-0.5,0.6-1.2,1.2-2,1.6c0,0,0.1,0.1,0.1,0.1c0.3,0.3,0.6,0.5,0.8,0.9C102,28.8,102.5,28.3,103.1,27.8
				C103.1,27.9,103.1,27.9,103.1,27.8L103.1,27.8z M102.3,26.4L102.3,26.4c-0.3-0.2-0.6-0.2-1-0.2c-0.6,0-1.3,0.2-1.4,0.7
				c-0.1,0.3,0.1,0.7,0.3,0.9c0.1,0.1,0.2,0.3,0.4,0.4c0.7-0.4,1.4-1,2-1.6C102.5,26.6,102.4,26.5,102.3,26.4L102.3,26.4z M105,24.7
				L105,24.7c-0.5,0.1-1,0.3-1.2,0.6c-0.2,0.2-0.3,0.4-0.4,0.6c0,0.1-0.1,0.2-0.1,0.2c-0.1,0.2-0.2,0.4-0.4,0.6
				c0.2,0.3,0.3,0.6,0.4,1.1c0.4-0.3,0.9-0.5,1.4-0.7l2.4-1c0.1,0,0.2-0.1,0.3-0.2c0-0.1,0-0.1,0-0.2c-0.2-0.7-1.1-1.1-1.9-1.1
				C105.3,24.6,105.2,24.6,105,24.7z"/>
		</g>
		<g>
			<path fill-rule="evenodd" clip-rule="evenodd" fill="#EDB92A" d="M115.2,37.1c0.2,0,0.4,0,0.6-0.2c0.5-0.3,0.7-0.9,0.9-1.4
				c0.2-0.5,0.3-1.1,0.1-1.6c-0.4-0.9-1.6-1.2-2.6-1c-0.5,0.1-1,0.3-1.5,0.5c-0.4,0.2-0.8,0.4-1.2,0.5c-1.3,0.4-2.7,0.1-3.9-0.1
				c-0.5-0.1-1.1-0.3-1.6-0.6c-0.5-0.3-0.9-0.8-0.9-1.3l0-0.1c0-0.1,0-0.3-0.1-0.4c-0.1-0.1-0.2-0.2-0.2-0.2
				c-0.7-0.4-1.5-0.5-2.3-0.3c-0.5,0.1-1,0.4-1.5,0.7c-0.4,0.3-0.9,0.5-1.4,0.6c-0.7,0.2-1.5,0.1-2.1-0.2c-0.4-0.2-0.6-0.4-0.7-0.7
				c-0.2-0.5,0-1.1,0.4-1.5c0.4-0.3,1-0.5,1.6-0.4c0.6,0,1.1,0.2,1.7,0.4l0.1,0c1.2,0.4,2.5,0.7,3.7,0.5c0.6-0.1,1.2-0.4,1.7-0.7
				c0.3-0.1,0.5-0.3,0.8-0.4c0.6-0.3,1.7-0.6,2.5-0.1c0.2,0.1,0.4,0.3,0.6,0.4c0.2,0.1,0.3,0.3,0.5,0.4c0.4,0.3,1.1,0.3,1.5-0.1
				c0.2-0.3,0.3-0.7,0-1.2c-0.6-1.2-2-1.7-3.1-1.7c-0.9,0-1.8,0.2-2.7,0.4c-0.3,0.1-0.6,0.1-0.9,0.2c-1.5,0.3-2.6,0.2-3.5-0.2
				c-0.1-0.1-0.2-0.1-0.4-0.2c-0.2-0.1-0.4-0.3-0.7-0.4c-0.4-0.1-0.9-0.2-1.2,0.2c0,0,0,0.1,0,0.1c0,0,0.1,0,0.2,0
				c0.3-0.3,0.7-0.2,1-0.1c0.2,0.1,0.4,0.2,0.6,0.3c0.1,0.1,0.3,0.2,0.4,0.2c0.9,0.5,2.1,0.6,3.6,0.2c0.3-0.1,0.6-0.1,0.9-0.2
				c0.9-0.2,1.7-0.4,2.6-0.4c1,0,2.4,0.4,2.9,1.6c0.1,0.3,0.2,0.7,0,1c-0.3,0.3-0.8,0.2-1.2,0c-0.2-0.1-0.3-0.3-0.5-0.4
				c-0.2-0.2-0.4-0.3-0.6-0.5c-0.9-0.5-2-0.2-2.7,0.1c-0.3,0.1-0.5,0.3-0.8,0.4c-0.5,0.3-1.1,0.6-1.7,0.7c-1.2,0.3-2.4-0.1-3.6-0.5
				l-0.1,0c-0.6-0.2-1.1-0.4-1.7-0.4c-0.7-0.1-1.4,0.1-1.8,0.5c-0.5,0.4-0.7,1.2-0.5,1.7c0.1,0.3,0.4,0.6,0.8,0.8
				c0.7,0.4,1.5,0.4,2.3,0.2c0.5-0.1,1-0.4,1.4-0.7c0.5-0.3,0.9-0.5,1.4-0.7c0.7-0.2,1.5-0.1,2.1,0.3c0.1,0,0.1,0.1,0.2,0.1
				c0.1,0.1,0.1,0.2,0.1,0.3c0,0,0,0.1,0,0.1c0.1,0.6,0.4,1.1,1,1.5c0.5,0.3,1.1,0.5,1.7,0.6c1.1,0.3,2.6,0.5,4,0.1
				c0.4-0.1,0.9-0.3,1.3-0.5c0.5-0.2,0.9-0.4,1.4-0.5c0.9-0.2,2,0,2.4,0.8c0.2,0.5,0.1,1-0.1,1.5c-0.1,0.5-0.3,1-0.8,1.3
				c-0.7,0.4-1.5-0.1-2.2-0.5l-0.1,0c-1-0.6-1.9-0.8-2.6-0.6c-0.3,0.1-0.6,0.2-0.9,0.4c-0.1,0.1-0.2,0.1-0.4,0.2
				c-1.4,0.6-3.1,0.6-4.6-0.1c-0.3-0.2-0.7-0.3-1-0.5c-0.4-0.2-0.8-0.5-1.2-0.6c-0.9-0.4-1.9-0.4-2.5,0c-0.3,0.2-0.6,0.5-0.8,0.8
				c-0.2,0.3-0.4,0.5-0.7,0.7c-0.4,0.3-1,0.4-1.5,0.3c-0.6-0.1-1-0.5-1.3-0.9c-0.1-0.2-0.1-0.3-0.2-0.5c-0.1-0.2-0.1-0.4-0.2-0.5
				c-0.4-0.7-1.2-1.1-2-1.1c-0.8,0.1-1.5,0.7-1.7,1.5c0,0.1,0,0.1,0.1,0.1c0.1,0,0.1,0,0.1-0.1c0.2-0.7,0.8-1.2,1.6-1.3
				c0.7-0.1,1.5,0.3,1.8,0.9c0.1,0.2,0.1,0.3,0.2,0.5c0.1,0.2,0.1,0.4,0.2,0.5c0.3,0.5,0.8,0.9,1.4,1c0.6,0.1,1.3,0,1.7-0.3
				c0.3-0.2,0.5-0.5,0.7-0.8c0.2-0.3,0.5-0.6,0.8-0.8c0.8-0.5,1.9-0.2,2.3,0c0.4,0.2,0.8,0.4,1.2,0.6c0.3,0.2,0.6,0.4,1,0.5
				c1.5,0.7,3.3,0.8,4.8,0.1c0.1-0.1,0.3-0.1,0.4-0.2c0.3-0.1,0.6-0.3,0.9-0.4c0.7-0.2,1.5,0,2.5,0.5l0.1,0
				C113.9,36.8,114.6,37.1,115.2,37.1z"/>
		</g>
		<g>
			<path fill-rule="evenodd" clip-rule="evenodd" fill="#DE5051" d="M97.6,30.1c0.1,0.2,0,0.4-0.1,0.6c-0.2,0.1-0.4,0.2-0.6,0.2
				c-0.9,0.1-1.8,0-2.7,0.2c-0.9,0.2-1.7,0.9-1.8,1.7c0.3,0.2,0.7,0.1,1,0c2-0.7,3.9-1.8,5.9-1.5c0.6,0.1,1.1,0.3,1.7,0.3
				c0.6,0,1.2-0.2,1.4-0.7c0.1-0.4,0-0.9,0.2-1.3c0.1-0.2,0.3-0.2,0.5-0.3c1-0.3,2.2,0.3,2.5,1.3c0.1,0.5,0.1,0.9,0.2,1.4
				c0.3,1.1,1.3,1.8,2.3,2.4c0.4,0.2,0.8,0.5,1.3,0.3c0.4-0.2,0.5-0.8,0.4-1.2c-0.1-0.4-0.4-0.8-0.5-1.3c-0.1-0.4,0-1,0.4-1.2
				c0.4-0.2,0.8,0,1.2,0.2c0.4,0.2,0.9,0.3,1.2-0.1c0.6-0.7-0.9-1.8-0.3-2.4c0.3-0.3,0.9-0.1,1.2,0.2c0.4,0.4,0.6,1,1,1.5
				c0.3,0.5,0.9,0.9,1.5,0.7c-0.5-0.8-0.9-1.7-1.4-2.5c-0.3-0.6-0.7-1.2-1.3-1.4c-0.8-0.3-2,0.1-2.6-0.5c-0.5-0.4-0.7-1.2-1.3-1.2
				c-0.2,0-0.4,0.1-0.6,0.2c-0.7,0.2-1.4-0.3-2.1-0.5c-1.3-0.3-2.6,0.6-3.9,0.6c-0.5,0-0.9-0.1-1.4,0c-1.1,0.2-1.7,1.2-2.2,2.1
				c-0.2,0.5-0.5,1-1,1.2c-0.4,0.2-0.9,0.1-1.3,0.2c-0.4,0.1-0.7,0.7-0.4,0.9C96.3,30.6,97.2,29.6,97.6,30.1z"/>
		</g>
		<g>
			<g>
				<path fill-rule="evenodd" clip-rule="evenodd" fill="#924C2A" d="M102,32.5c0-0.2,0-0.3,0-0.5c-0.1-0.7-0.8-1.1-1.5-1
					c-0.3,0-0.5,0.2-0.7,0.1c-0.5,0-1-0.6-1.5-0.4c-0.1,0-0.2,0.1-0.3,0.2c-0.2,0.2-0.4,0.4-0.6,0.5c-0.1,0.1-0.2,0.3-0.2,0.4
					c0,0.1,0.1,0.2,0.1,0.2c0.1,0.2-0.1,0.4-0.1,0.5c-0.2,0.5,0.2,1,0.6,1.4c0.3,0.3,0.5,0.6,0.9,0.7c0.4,0.1,0.8-0.1,1.2-0.1
					c0.5,0,1.1,0.1,1.5-0.2c0.4-0.3,0.5-0.8,0.6-1.3C102,33.1,102,32.8,102,32.5z"/>
			</g>
			<g>
				<path fill-rule="evenodd" clip-rule="evenodd" fill="#924C2A" d="M97.2,32.8c0.1-0.2,0.2-0.4,0.1-0.5c0-0.1-0.1-0.1-0.1-0.2
					c0-0.2,0.1-0.3,0.2-0.4c0,0,0,0,0,0c0.1,0.1,0.1,0.2,0.2,0.3c0.1,0.2,0.1,0.5,0.1,0.7c0,0.2-0.1,0.4,0,0.6
					c0.1,0.1,0.2,0.2,0.2,0.2c0.2,0.1,0.4,0.3,0.7,0.4c0.2,0.1,0.4,0.3,0.7,0.3c0.3,0.1,0.5,0,0.7-0.2c0.3-0.3,0.2-0.9,0.6-1.2
					c0.2-0.1,0.5-0.1,0.7-0.3c0.3-0.2,0.3-0.6,0.5-0.8c0.1,0.1,0.1,0.3,0.2,0.4c0,0.2,0,0.3,0,0.5c0,0.3-0.1,0.6-0.1,0.9
					c-0.1,0.5-0.1,1-0.6,1.3c-0.4,0.3-1,0.1-1.5,0.2c-0.4,0-0.8,0.2-1.2,0.1c-0.4-0.1-0.7-0.4-0.9-0.7C97.4,33.8,97,33.3,97.2,32.8z
					"/>
			</g>
		</g>
		<g>
			<g>
				<path fill-rule="evenodd" clip-rule="evenodd" fill="#924C2A" d="M108.7,25.4c0-0.2,0-0.3,0-0.5c-0.1-0.7-0.8-1.1-1.5-1
					c-0.3,0-0.5,0.2-0.7,0.1c-0.5,0-1-0.6-1.5-0.4c-0.1,0-0.2,0.1-0.3,0.2c-0.2,0.2-0.4,0.4-0.6,0.5c-0.1,0.1-0.2,0.3-0.2,0.4
					c0,0.1,0.1,0.2,0.1,0.2c0.1,0.2-0.1,0.4-0.1,0.5c-0.2,0.5,0.2,1,0.6,1.4c0.3,0.3,0.5,0.6,0.9,0.7c0.4,0.1,0.8-0.1,1.2-0.1
					c0.5,0,1.1,0.1,1.5-0.2c0.4-0.3,0.5-0.8,0.6-1.3C108.7,26,108.7,25.7,108.7,25.4z"/>
			</g>
			<g>
				<path fill-rule="evenodd" clip-rule="evenodd" fill="#924C2A" d="M103.9,25.7c0.1-0.2,0.2-0.4,0.1-0.5c0-0.1-0.1-0.1-0.1-0.2
					c0-0.2,0.1-0.3,0.2-0.4c0,0,0,0,0,0c0.1,0.1,0.1,0.2,0.2,0.3c0.1,0.2,0.1,0.5,0.1,0.7c0,0.2-0.1,0.4,0,0.6
					c0.1,0.1,0.2,0.2,0.2,0.2c0.2,0.1,0.4,0.3,0.7,0.4c0.2,0.1,0.4,0.3,0.7,0.3c0.3,0.1,0.5,0,0.7-0.2c0.3-0.3,0.2-0.9,0.6-1.2
					c0.2-0.1,0.5-0.1,0.7-0.3c0.3-0.2,0.3-0.6,0.5-0.8c0.1,0.1,0.1,0.3,0.2,0.4c0,0.2,0,0.3,0,0.5c0,0.3-0.1,0.6-0.1,0.9
					c-0.1,0.5-0.1,1-0.6,1.3c-0.4,0.3-1,0.1-1.5,0.2c-0.4,0-0.8,0.2-1.2,0.1c-0.4-0.1-0.7-0.4-0.9-0.7
					C104.1,26.7,103.7,26.2,103.9,25.7z"/>
			</g>
		</g>
		<g>
			<g>
				<path fill-rule="evenodd" clip-rule="evenodd" fill="#924C2A" d="M114.4,32.3c-0.1-0.1-0.1-0.3-0.2-0.4
					c-0.4-0.5-1.3-0.6-1.8-0.2c-0.2,0.2-0.4,0.4-0.6,0.5c-0.5,0.2-1.2,0-1.5,0.4c-0.1,0.1-0.1,0.2-0.2,0.3c-0.1,0.2-0.2,0.5-0.2,0.7
					c0,0.2-0.1,0.3,0,0.5c0.1,0.1,0.1,0.1,0.2,0.2c0.1,0.1,0.1,0.3,0.1,0.5c0.1,0.5,0.7,0.8,1.2,1c0.4,0.1,0.8,0.3,1.2,0.2
					c0.4-0.1,0.7-0.4,1-0.6c0.4-0.3,1-0.4,1.2-0.8c0.2-0.4,0.1-1-0.1-1.4C114.7,32.8,114.6,32.6,114.4,32.3z"/>
			</g>
			<g>
				<path fill-rule="evenodd" clip-rule="evenodd" fill="#924C2A" d="M110.3,34.8c0-0.2,0-0.4-0.1-0.5c-0.1-0.1-0.1-0.1-0.2-0.2
					c-0.1-0.1-0.1-0.3,0-0.5c0,0,0,0,0-0.1c0.1,0,0.2,0.1,0.3,0.2c0.2,0.2,0.3,0.4,0.4,0.6c0.1,0.2,0.1,0.4,0.3,0.5
					c0.1,0.1,0.2,0.1,0.3,0.1c0.3,0,0.5,0,0.8,0c0.3,0,0.5,0,0.8,0c0.3-0.1,0.5-0.2,0.6-0.5c0.1-0.4-0.3-0.9-0.1-1.3
					c0.1-0.2,0.4-0.4,0.5-0.6c0.1-0.3,0-0.7,0.1-1c0.1,0.1,0.2,0.2,0.3,0.3c0.1,0.1,0.2,0.3,0.2,0.4c0.1,0.3,0.2,0.5,0.3,0.8
					c0.2,0.5,0.4,1,0.1,1.4c-0.2,0.4-0.8,0.6-1.2,0.8c-0.3,0.2-0.6,0.5-1,0.6c-0.4,0.1-0.8,0-1.2-0.2
					C111,35.6,110.4,35.3,110.3,34.8z"/>
			</g>
		</g>
		<g>
			<path fill-rule="evenodd" clip-rule="evenodd" fill="#959737" d="M95.8,33.7c0.2,0,0.3,0.2,0.4,0.3c0.1,0.1,0.3,0.2,0.3,0.4
				c0,0.1,0,0.1-0.1,0.1c-0.2,0-0.3-0.2-0.4-0.3C95.9,34.1,95.7,34,95.8,33.7C95.7,33.8,95.7,33.7,95.8,33.7z"/>
		</g>
		<g>
			<g>
				<path fill-rule="evenodd" clip-rule="evenodd" fill="#577E40" d="M101.1,35.8c0.1,0,0.1-0.1,0-0.1C101,35.7,101,35.8,101.1,35.8
					z"/>
			</g>
		</g>
		<g>
			<path fill-rule="evenodd" clip-rule="evenodd" fill="#959737" d="M100,28.2c0,0.2-0.1,0.4-0.2,0.6c-0.1,0.2-0.2,0.3-0.4,0.4
				c-0.1,0-0.1,0-0.1-0.1c0-0.2,0.1-0.3,0.2-0.4c0.1-0.1,0.1-0.3,0.2-0.5C99.7,28,100,28,100,28.2z"/>
		</g>
		<g>
			<g>
				<path fill-rule="evenodd" clip-rule="evenodd" fill="#577E40" d="M101.6,30.1c0.1,0,0.1-0.1,0-0.1
					C101.5,30,101.5,30.1,101.6,30.1z"/>
			</g>
		</g>
		<g>
			<path fill-rule="evenodd" clip-rule="evenodd" fill="#959737" d="M102.2,30.5C102.2,30.5,102.1,30.4,102.2,30.5
				c-0.2-0.2-0.1-0.3,0-0.3c0.2,0.1,0.3,0.2,0.4,0.3c0.1,0.1,0.2,0.2,0.2,0.4c0,0.1-0.1,0.1-0.1,0.1c-0.1-0.1-0.2-0.2-0.3-0.3
				C102.3,30.6,102.2,30.5,102.2,30.5c0-0.1,0-0.2,0.1-0.2c0,0,0,0.1,0.1,0.1C102.4,30.5,102.3,30.6,102.2,30.5z"/>
		</g>
		<g>
			<path fill-rule="evenodd" clip-rule="evenodd" fill="#959737" d="M103.5,26.5c-0.2,0.3-0.8,0.4-1,0c0-0.1,0-0.1,0.1-0.1
				c0.2,0,0.5,0.1,0.6-0.1C103.4,26.2,103.6,26.4,103.5,26.5z"/>
		</g>
		<g>
			<g>
				<path fill-rule="evenodd" clip-rule="evenodd" fill="#577E40" d="M106.2,29.7c0.1,0,0.1-0.1,0-0.1
					C106.1,29.6,106.1,29.7,106.2,29.7z"/>
			</g>
		</g>
		<g>
			<path fill-rule="evenodd" clip-rule="evenodd" fill="#959737" d="M106.4,28.8c0.2,0.3,0.5,0.6,0.5,1c0,0.1-0.1,0.1-0.2,0
				c-0.2-0.3-0.3-0.6-0.5-0.8C106.1,28.8,106.3,28.6,106.4,28.8z"/>
		</g>
		<g>
			<path fill-rule="evenodd" clip-rule="evenodd" fill="#959737" d="M106.9,33.3c-0.1,0-0.1,0.1-0.2,0.1c0,0,0,0,0,0
				C106.8,33.4,106.8,33.3,106.9,33.3C106.9,33.3,106.9,33.3,106.9,33.3z"/>
		</g>
		<g>
			<path fill-rule="evenodd" clip-rule="evenodd" fill="#959737" d="M107.4,32.7c-0.1,0.2-0.2,0.3-0.3,0.5c-0.1,0.1-0.3,0.3-0.4,0.3
				c-0.1,0-0.1-0.1-0.1-0.1c0-0.1,0.2-0.2,0.3-0.3c0.1-0.1,0.2-0.2,0.3-0.4C107.3,32.4,107.5,32.5,107.4,32.7z"/>
		</g>
		<g>
			<g>
				<path fill-rule="evenodd" clip-rule="evenodd" fill="#577E40" d="M105.1,34.9c0.1,0,0.1-0.1,0-0.1C105,34.8,105,34.9,105.1,34.9
					z"/>
			</g>
		</g>
		<g>
			<g>
				<path fill-rule="evenodd" clip-rule="evenodd" fill="#577E40" d="M104.1,34.6c0.1,0,0.1-0.1,0-0.1C104,34.5,104,34.6,104.1,34.6
					z"/>
			</g>
		</g>
		<g>
			<path fill-rule="evenodd" clip-rule="evenodd" fill="#959737" d="M103.7,33.6c0.2,0.1,0.3,0.3,0.5,0.4c0.1,0.1,0.3,0.3,0.3,0.5
				c0,0.1-0.1,0.1-0.1,0.1c-0.2-0.1-0.3-0.2-0.4-0.4c-0.1-0.1-0.3-0.3-0.4-0.4C103.4,33.8,103.5,33.5,103.7,33.6z"/>
		</g>
		<g>
			<g>
				<path fill-rule="evenodd" clip-rule="evenodd" fill="#577E40" d="M108.5,35.9c0.1,0,0.1-0.1,0-0.1
					C108.4,35.8,108.4,35.9,108.5,35.9z"/>
			</g>
		</g>
		<g>
			<path fill-rule="evenodd" clip-rule="evenodd" fill="#959737" d="M110.6,28c-0.2,0.1-0.5,0.3-0.7,0.3c-0.1,0-0.1-0.1-0.1-0.1
				c0.1-0.2,0.4-0.3,0.6-0.4C110.6,27.5,110.8,27.8,110.6,28z"/>
		</g>
		<g>
			<path fill-rule="evenodd" clip-rule="evenodd" fill="#959737" d="M111.1,29.9c0.3,0.1,0.8,0.1,1,0.4c0,0.1,0,0.1-0.1,0.1
				c-0.2,0-0.3,0-0.5-0.1c-0.2-0.1-0.4-0.1-0.5-0.1C110.7,30.2,110.8,29.9,111.1,29.9z"/>
		</g>
		<g>
			<path fill-rule="evenodd" clip-rule="evenodd" fill="#959737" d="M116.5,34.3c0.1,0,0.2,0,0.2-0.1c0-0.2,0.3-0.2,0.3,0
				c-0.1,0.3-0.3,0.7-0.6,0.9c-0.1,0.1-0.4-0.1-0.2-0.2c0.1-0.1,0.2-0.2,0.3-0.3c0.1-0.1,0.2-0.3,0.3-0.4c0,0.1,0,0.1,0,0.2
				C116.7,34.3,116.6,34.3,116.5,34.3C116.5,34.4,116.5,34.3,116.5,34.3z"/>
		</g>
		<g>
			<path fill-rule="evenodd" clip-rule="evenodd" fill="#959737" d="M93.5,34.2c-0.1-0.2-0.2-0.5-0.3-0.7c0-0.2-0.1-0.5,0-0.7
				c0-0.1,0.2-0.1,0.3,0c0.1,0.2,0.1,0.4,0.1,0.6c0,0.3,0.1,0.5,0.1,0.7C93.7,34.2,93.5,34.3,93.5,34.2z"/>
		</g>
		<g>
			<path fill-rule="evenodd" clip-rule="evenodd" fill="#959737" d="M101.5,28.6c0.2-0.1,0.4-0.2,0.7-0.3c0.2-0.1,0.4-0.2,0.6-0.1
				c0.1,0,0.1,0.1,0,0.2c-0.1,0.1-0.4,0.1-0.5,0.2c-0.2,0.1-0.4,0.1-0.7,0.2C101.5,28.9,101.4,28.7,101.5,28.6z"/>
		</g>
		<g>
			<path fill-rule="evenodd" clip-rule="evenodd" fill="#959737" d="M110.3,36.4c-0.1,0-0.2,0.1-0.4,0.1c-0.1,0-0.2,0-0.3-0.1
				c0,0,0-0.1,0-0.1c0.1-0.2,0.5-0.1,0.6-0.1C110.4,36.3,110.4,36.4,110.3,36.4z"/>
		</g>
		<g>
			<path fill-rule="evenodd" clip-rule="evenodd" fill="#959737" d="M112.1,33c0,0-0.1,0.1-0.1,0.1c0,0,0,0,0,0
				C112,33.1,112,33.1,112.1,33C112.1,33,112.1,33,112.1,33z"/>
		</g>
		<g>
			<path fill-rule="evenodd" clip-rule="evenodd" fill="#959737" d="M105.6,24.8c0.1,0.1,0.1,0.2,0.2,0.3c0.1,0.1,0.1,0.2,0.1,0.3
				c0,0.1-0.1,0.1-0.1,0.1c-0.1,0-0.2-0.1-0.2-0.2c-0.1-0.1-0.1-0.2-0.2-0.3C105.3,24.8,105.5,24.6,105.6,24.8z"/>
		</g>
		<g>
			<path fill-rule="evenodd" clip-rule="evenodd" fill="#959737" d="M112.4,32.9c0,0.2-0.2,0.4-0.3,0.5c-0.1,0.1-0.3,0.3-0.5,0.3
				c-0.1,0-0.1-0.1-0.1-0.1c0-0.2,0.2-0.3,0.3-0.4c0.1-0.1,0.2-0.3,0.4-0.4C112.2,32.7,112.4,32.8,112.4,32.9z"/>
		</g>
		<g>
			<path fill-rule="evenodd" clip-rule="evenodd" fill="#959737" d="M99.8,35.1c0.2,0,0.4,0.1,0.7,0.2c0.2,0.1,0.4,0.2,0.5,0.3
				c0,0.1,0,0.1-0.1,0.1c-0.2,0-0.3-0.1-0.5-0.2c-0.2-0.1-0.4-0.2-0.6-0.2C99.6,35.3,99.7,35.1,99.8,35.1z"/>
		</g>
	</g>
</g>
<g>
	<g>
		<polygon fill-rule="evenodd" clip-rule="evenodd" fill="#6F8CC7" points="68.6,85.8 68.4,95.7 35.5,95.7 34.6,82.8 		"/>
	</g>
	<g>
		<g>
			<path fill-rule="evenodd" clip-rule="evenodd" fill="#0D102D" d="M49.6,13c0,0-4.3-1.4-6,6.4c-1.8,7.8-3.6,8.5-6.5,9
				c-2.9,0.5-5.2,4-3.6,6.4c1.6,2.4,2.2,2.8,1,4.1c-1.2,1.4-2.9,3.4-1.3,4.3c1.5,0.9,21.9-4.7,21.9-4.7s9.5-0.2,10.6-1.9
				c1.1-1.7,2.7-4.6,0.5-6c-2.2-1.4-3.3-2.5-3-3.8c0.4-1.3,0.6-3.5-0.9-5.6C60.9,19,58.7,8.6,49.6,13z"/>
		</g>
		<g>
			<path fill-rule="evenodd" clip-rule="evenodd" fill="#E58A7B" d="M33.8,45C32,51.9,30.7,69,30.7,69l9.1-0.3l1.8-17.8L39.7,45
				L33.8,45z"/>
		</g>
		<g>
			<path fill-rule="evenodd" clip-rule="evenodd" fill="#29130A" d="M33.2,50.8c0,0,2.1,2.8,6.8,3.6l-1.5-5l-3-1L33.2,50.8z"/>
		</g>
		<g>
			<path fill-rule="evenodd" clip-rule="evenodd" fill="#E58A7B" d="M72.2,45c1.8,6.9,2.9,18.3,2.9,18.3l-9.3,0.1l-1.3-12.5l1.9-5.9
				L72.2,45z"/>
		</g>
		<g>
			<path fill-rule="evenodd" clip-rule="evenodd" fill="#29130A" d="M72.9,50.8c0,0-2.1,2.8-6.8,3.6l1.5-5l3-1L72.9,50.8z"/>
		</g>
		<g>
			<path fill-rule="evenodd" clip-rule="evenodd" fill="#E48FA7" d="M47.1,35.1c-6.1-1.2-8.6-1.2-11,2.4c-2.3,3.5-7.3,9.9-7.3,9.9
				s3.5,3.7,5.6,4.1c2.1,0.5,3,0.7,3,0.7s-0.5,2.6,1.6,4.5l-0.1,11.5l26.9,0.3l-0.5-11.8c0,0,1.8-1.7,1.3-4.4c0,0,2.1,0.6,4.3-0.3
				c2.1-0.9,3.3-2.6,5.1-2.7c0,0-3.3-6.6-4.3-9.3c-1-2.7-3.6-6-6.3-6c-2.7,0.1-6.3,1.1-8,1.4C55.9,35.6,47.1,35.1,47.1,35.1z"/>
		</g>
		<g>
			<path fill-rule="evenodd" clip-rule="evenodd" fill="#DC3760" d="M58.1,23.1c0,0,1.8-1.6,3.1-1c1.4,0.6,1.4,3.6-0.1,4.1
				c-1.5,0.5-3.3-0.8-3.3-0.8L58.1,23.1z"/>
		</g>
		<g>
			<path fill-rule="evenodd" clip-rule="evenodd" fill="#29130A" d="M60.7,25.5C60.7,25.5,60.7,25.5,60.7,25.5c0,0,1-0.4,0.8-1.5
				c-0.1-0.5-0.3-0.8-0.5-0.9c-0.3-0.2-0.8-0.2-1.6,0c0,0-0.1,0,0,0.1c0,0,0,0.1,0.1,0c0.8-0.2,1.2-0.2,1.5,0
				c0.2,0.1,0.4,0.4,0.5,0.8c0.2,1-0.7,1.4-0.7,1.4C60.6,25.4,60.6,25.5,60.7,25.5C60.6,25.5,60.6,25.5,60.7,25.5z"/>
		</g>
		<g>
			<path fill-rule="evenodd" clip-rule="evenodd" fill="#EDBF8B" d="M60.5,25.8c0-0.4,2.1,2.7-0.6,2.6c-2.7-0.2-0.6-2-0.6-2l0.3,0.1
				c0,0-0.4,1.2,0.4,1.3c0.8,0.1,0.4-1.9,0.4-1.9L60.5,25.8z"/>
		</g>
		<g>
			<path fill-rule="evenodd" clip-rule="evenodd" fill="#E58A7B" d="M49.4,28.8c0,0,0.6,4.3-0.1,5.1c-0.7,0.9-2.2,1.2-2.2,1.2
				s2.1,1.7,6,1.7c4.7,0,6.2-1.8,6.2-1.8s-2.2-0.2-2.7-0.7c-0.5-0.5-0.6-4.5-0.6-4.5L49.4,28.8z"/>
		</g>
		<g>
			<path fill-rule="evenodd" clip-rule="evenodd" fill="#29130A" d="M49.9,29l2.6,0.2l3.5,0.5c0,0,0,1.8,0.1,2.7
				C55.1,32.5,52.1,32.3,49.9,29z"/>
		</g>
		<g>
			<path fill-rule="evenodd" clip-rule="evenodd" fill="#E58A7B" d="M59.2,17.7c0.4,1.2-0.1,2.5,0.3,5.6c0.3,2.4-0.6,6.5-3.1,7.3
				c-2.7,1-4.6,0.4-6.2-0.5c-1.5-0.9-2.5-2.3-2.9-4l-1.2-5.4c-0.8-3.5,1.5-7.1,5-7.7c0.1,0,0.2,0,0.2,0
				C58.4,11.9,59.2,17.7,59.2,17.7z"/>
		</g>
		<g>
			<path fill-rule="evenodd" clip-rule="evenodd" fill="#29130A" d="M56.5,22.9c0-0.4,0.1-0.7,0.3-0.7c0.2,0,0.3,0.3,0.3,0.7
				c0,0.4-0.1,0.7-0.3,0.7C56.7,23.6,56.5,23.3,56.5,22.9z"/>
		</g>
		<g>
			<path fill-rule="evenodd" clip-rule="evenodd" fill="#29130A" d="M51.7,23.1c0-0.4,0.1-0.7,0.3-0.7c0.2,0,0.3,0.3,0.3,0.7
				c0,0.4-0.1,0.7-0.3,0.7C51.8,23.9,51.7,23.5,51.7,23.1z"/>
		</g>
		<g>
			<path fill-rule="evenodd" clip-rule="evenodd" fill="#29130A" d="M54.7,26.1C54.7,26.1,54.7,26.1,54.7,26.1
				c-0.1-0.1-0.1-0.1,0-0.1c0,0,0.5-0.5,0.6-1.1c0.1-0.3-0.1-0.5-0.4-0.7c-0.2-0.2-0.5-0.5-0.6-0.9c0,0,0-0.1,0.1-0.1
				c0,0,0.1,0,0.1,0.1c0.1,0.4,0.3,0.6,0.5,0.8c0.2,0.2,0.5,0.5,0.4,0.9C55.4,25.6,54.8,26.1,54.7,26.1
				C54.8,26.1,54.8,26.1,54.7,26.1z"/>
		</g>
		<g>
			<path fill-rule="evenodd" clip-rule="evenodd" fill="#29130A" d="M50.8,21.9c0.1,0,0.1,0,0.2-0.1c0,0,0.6-0.4,1.5-0.3
				c0.1,0,0.3-0.1,0.3-0.2c0-0.1-0.1-0.3-0.2-0.3c-1.2-0.2-1.9,0.3-1.9,0.4c-0.1,0.1-0.1,0.2,0,0.3C50.7,21.9,50.8,21.9,50.8,21.9z"
				/>
		</g>
		<g>
			<path fill-rule="evenodd" clip-rule="evenodd" fill="#29130A" d="M55.8,21.2c0.1,0,0.1,0,0.2,0c0,0,0.7-0.2,1.5,0.2
				c0.1,0.1,0.3,0,0.3-0.1c0.1-0.1,0-0.3-0.1-0.3c-1-0.6-1.9-0.3-1.9-0.3c-0.1,0.1-0.2,0.2-0.1,0.3C55.7,21.2,55.7,21.2,55.8,21.2z"
				/>
		</g>
		<g>
			<path fill-rule="evenodd" clip-rule="evenodd" fill="#0D102D" d="M47,23.2c0,0,4.5-2.2,5.9-6.2c0,0,4.8,1.9,6.5,5.1
				c0,0.1,0.3-3.1,0.3-3.1S59.2,11,50.5,13c-7.4,1.7-4.1,10.8-4.1,10.8L47,23.2z"/>
		</g>
		<g>
			<path fill-rule="evenodd" clip-rule="evenodd" fill="#FFFFFF" d="M52,16.7C52,16.6,52,16.6,52,16.7c-1.3-1-2.2-3.2-2.2-3.3
				c0,0,0-0.1,0-0.1c0,0,0.1,0,0.1,0c0,0,0.9,2.3,2.2,3.3C52.1,16.6,52.1,16.6,52,16.7C52,16.6,52,16.7,52,16.7z"/>
		</g>
		<g>
			<path fill-rule="evenodd" clip-rule="evenodd" fill="#FFFFFF" d="M46.6,22.8C46.5,22.8,46.5,22.8,46.6,22.8c-0.1-0.1,0-0.2,0-0.2
				c1.7,0,2.8-2.8,3.5-4.6c0.3-0.7,0.5-1.3,0.8-1.6c0,0,0.1,0,0.1,0c0,0,0,0.1,0,0.1c-0.2,0.3-0.5,0.9-0.7,1.6
				C49.4,20.1,48.3,22.8,46.6,22.8C46.6,22.8,46.6,22.8,46.6,22.8z"/>
		</g>
		<g>
			<path fill-rule="evenodd" clip-rule="evenodd" fill="#E58A7B" d="M48.6,23.6c0,0-1.5-1.8-3-1.4c-1.4,0.4-1.9,3.4-0.4,4.1
				c1.5,0.7,3.3-0.3,3.3-0.3L48.6,23.6z"/>
		</g>
		<g>
			<path fill-rule="evenodd" clip-rule="evenodd" fill="#29130A" d="M45.7,25.7C45.7,25.7,45.7,25.7,45.7,25.7c0,0-1-0.5-0.6-1.6
				c0.2-0.5,0.4-0.7,0.6-0.9c0.4-0.2,0.8-0.1,1.6,0.2c0,0,0,0,0,0.1c0,0,0,0-0.1,0c-0.7-0.3-1.2-0.4-1.5-0.2
				c-0.2,0.1-0.4,0.4-0.6,0.8c-0.3,1,0.5,1.5,0.5,1.5C45.8,25.6,45.8,25.6,45.7,25.7C45.8,25.7,45.7,25.7,45.7,25.7z"/>
		</g>
		<g>
			<path fill-rule="evenodd" clip-rule="evenodd" fill="#EDBF8B" d="M46.4,25.8c0-0.4,2.1,2.7-0.6,2.6c-2.7-0.2-0.6-2-0.6-2l0.3,0.1
				c0,0-0.4,1.2,0.4,1.3c0.8,0.1,0.4-1.9,0.4-1.9L46.4,25.8z"/>
		</g>
		<g>
			<path fill-rule="evenodd" clip-rule="evenodd" fill="#29130A" d="M53.7,37.6c2.6-0.1,4.4-0.9,4.4-0.9c0,0,0.1-0.1,0-0.1
				c0,0-0.1-0.1-0.1,0c0,0-4.4,2.1-9.7-0.1c0,0-0.1,0-0.1,0c0,0,0,0.1,0,0.1C50.2,37.4,52.1,37.6,53.7,37.6z"/>
		</g>
		<g>
			<path fill-rule="evenodd" clip-rule="evenodd" fill="#29130A" d="M37.5,52.3C37.5,52.3,37.6,52.3,37.5,52.3
				c0.5-2.7,1.8-6,1.9-6.1c0,0,0-0.1,0-0.1c0,0-0.1,0-0.1,0C39.2,46.2,37.8,49.5,37.5,52.3C37.4,52.2,37.4,52.3,37.5,52.3
				C37.5,52.3,37.5,52.3,37.5,52.3z"/>
		</g>
		<g>
			<path fill-rule="evenodd" clip-rule="evenodd" fill="#29130A" d="M38.6,48.2C38.6,48.2,38.6,48.2,38.6,48.2
				c0.1-0.1,0.1-0.1,0-0.1c-0.2-0.2-0.3-1.4-0.3-2.1c0,0,0-0.1-0.1-0.1h0c0,0-0.1,0-0.1,0.1C38.1,46.1,38.2,47.9,38.6,48.2
				C38.6,48.2,38.6,48.2,38.6,48.2z"/>
		</g>
		<g>
			<path fill-rule="evenodd" clip-rule="evenodd" fill="#29130A" d="M43.2,57.1c1.1,0,2.4-0.3,3.8-1c0,0,0.1-0.1,0-0.1
				c0,0-0.1-0.1-0.1,0c-3.7,1.9-6.6,0.5-6.6,0.5c0,0-0.1,0-0.1,0c0,0,0,0.1,0,0.1C40.3,56.6,41.5,57.2,43.2,57.1z"/>
		</g>
		<g>
			<path fill-rule="evenodd" clip-rule="evenodd" fill="#29130A" d="M61.1,56.4c1.9-0.1,3.5-0.5,3.5-0.5c0,0,0.1-0.1,0.1-0.1
				c0,0-0.1-0.1-0.1-0.1c0,0-4.9,1.3-7.6-0.4c0,0-0.1,0-0.1,0c0,0,0,0.1,0,0.1C58.1,56.3,59.7,56.5,61.1,56.4z"/>
		</g>
		<g>
			<g>
				<path fill-rule="evenodd" clip-rule="evenodd" fill="#FFFFFF" d="M46,43.2c0.1,0,0.1,0,0.2,0c0.3-0.1,0.5-0.5,0.3-0.8
					c-0.4-1.1-1.1-2.2-2-3c-0.2-0.2-0.6-0.2-0.9,0c-0.2,0.2-0.2,0.6,0,0.9c0.7,0.7,1.3,1.6,1.7,2.6C45.6,43.1,45.8,43.2,46,43.2z"/>
			</g>
			<g>
				<path fill-rule="evenodd" clip-rule="evenodd" fill="#FFFFFF" d="M46.5,49.1c0.1,0,0.2,0,0.3-0.1c0.7-0.4,1.5-0.6,2.3-0.5
					c0.9,0,1.1-0.4,1.2-0.7c0.1-0.3-0.1-0.7-0.4-0.8c-0.3-0.1-0.5,0-0.7,0.2c0,0-0.1,0-0.1,0c-1,0-2,0.2-2.9,0.7
					c-0.3,0.2-0.4,0.5-0.3,0.8C46,49,46.3,49.1,46.5,49.1z"/>
			</g>
			<g>
				<path fill-rule="evenodd" clip-rule="evenodd" fill="#FFFFFF" d="M40.1,43.5c0,0,0.1,0,0.1,0c0.3-0.1,0.5-0.4,0.4-0.7
					c-0.2-0.8-0.3-1.5-0.4-2.3c0-0.3-0.3-0.6-0.7-0.6c-0.3,0-0.6,0.3-0.6,0.7c0.1,0.9,0.2,1.7,0.4,2.5
					C39.6,43.4,39.8,43.5,40.1,43.5z"/>
			</g>
			<g>
				<path fill-rule="evenodd" clip-rule="evenodd" fill="#FFFFFF" d="M69.2,39.9c0,0,0-0.1,0.1-0.1c0.1-0.3,0-0.7-0.3-0.8
					c-0.7-0.3-1.4-0.7-2.1-1.1c-0.3-0.2-0.7-0.1-0.8,0.2c-0.2,0.3-0.1,0.7,0.2,0.8c0.7,0.5,1.5,0.9,2.3,1.2
					C68.8,40.3,69.1,40.2,69.2,39.9z"/>
			</g>
			<g>
				<path fill-rule="evenodd" clip-rule="evenodd" fill="#FFFFFF" d="M33.3,46.9c0.2,0,0.3-0.1,0.4-0.2c0.6-0.6,1.4-1,2.2-1
					c0.3,0,0.6-0.3,0.6-0.6c0-0.3-0.3-0.6-0.6-0.6c-1.2,0-2.3,0.5-3.1,1.4c-0.2,0.2-0.2,0.6,0,0.9C33,46.8,33.2,46.9,33.3,46.9z"/>
			</g>
			<g>
				<path fill-rule="evenodd" clip-rule="evenodd" fill="#FFFFFF" d="M42.7,52.6c0.2,0,0.5-0.2,0.6-0.4c0.1-0.3,0-0.7-0.4-0.8
					c-0.5-0.2-1-0.5-1.5-0.8c-0.3-0.2-0.7-0.1-0.9,0.1c-0.2,0.3-0.1,0.7,0.1,0.9c0.5,0.4,1.1,0.7,1.8,1
					C42.5,52.6,42.6,52.6,42.7,52.6z"/>
			</g>
			<g>
				<path fill-rule="evenodd" clip-rule="evenodd" fill="#FFFFFF" d="M48.8,55.2c0,0,0.1,0,0.1,0c0.3-0.1,0.5-0.4,0.4-0.7
					c-0.2-0.9-0.7-1.7-1.3-2.4c-0.2-0.3-0.6-0.3-0.9,0c-0.2,0.2-0.3,0.6,0,0.9c0.5,0.5,0.8,1.2,1,1.8C48.3,55,48.6,55.2,48.8,55.2z"
					/>
			</g>
			<g>
				<path fill-rule="evenodd" clip-rule="evenodd" fill="#FFFFFF" d="M45,61.4C45,61.4,45,61.4,45,61.4c1.1-0.1,2.2-0.5,3-1.2
					c0.3-0.2,0.3-0.6,0.1-0.9c-0.2-0.3-0.6-0.3-0.8-0.1c-0.7,0.5-1.5,0.8-2.4,0.9c-0.3,0-0.6,0.3-0.5,0.7
					C44.4,61.2,44.7,61.4,45,61.4z"/>
			</g>
			<g>
				<path fill-rule="evenodd" clip-rule="evenodd" fill="#FFFFFF" d="M54.6,52.5c0.3,0,0.5-0.2,0.6-0.5c0.1-0.7,0.4-1.3,0.8-1.9
					c0.2-0.3,0.1-0.7-0.1-0.9c-0.3-0.2-0.7-0.1-0.9,0.1c-0.5,0.7-0.9,1.5-1.1,2.4c-0.1,0.3,0.1,0.7,0.5,0.7
					C54.5,52.5,54.6,52.5,54.6,52.5z"/>
			</g>
			<g>
				<path fill-rule="evenodd" clip-rule="evenodd" fill="#FFFFFF" d="M51.7,43c0.2,0,0.4-0.1,0.5-0.4c0.1-0.3,0-0.7-0.3-0.8
					c-0.8-0.3-1.4-0.8-2-1.4c-0.2-0.3-0.6-0.3-0.9-0.1c-0.3,0.2-0.3,0.6-0.1,0.9c0.7,0.8,1.5,1.4,2.4,1.8C51.5,43,51.6,43,51.7,43z"
					/>
			</g>
			<g>
				<path fill-rule="evenodd" clip-rule="evenodd" fill="#FFFFFF" d="M72.4,49c0.2,0,0.4-0.1,0.5-0.4c0.1-0.3,0-0.7-0.3-0.8
					c-0.8-0.3-1.4-0.8-2-1.4c-0.2-0.3-0.6-0.3-0.9-0.1c-0.3,0.2-0.3,0.6-0.1,0.9c0.7,0.8,1.5,1.4,2.4,1.8C72.2,49,72.3,49,72.4,49z"
					/>
			</g>
			<g>
				<path fill-rule="evenodd" clip-rule="evenodd" fill="#FFFFFF" d="M54.8,45.3c0.3,0,0.5-0.2,0.6-0.4c0.1-0.4,0.5-0.6,0.9-0.9
					c0.4-0.3,0.9-0.6,1.2-1.1c0.2-0.3,0.1-0.7-0.2-0.9c-0.3-0.2-0.7-0.1-0.8,0.2c-0.2,0.3-0.5,0.5-0.9,0.7c-0.6,0.4-1.2,0.8-1.4,1.6
					c-0.1,0.3,0.1,0.7,0.4,0.8C54.6,45.3,54.7,45.3,54.8,45.3z"/>
			</g>
			<g>
				<path fill-rule="evenodd" clip-rule="evenodd" fill="#FFFFFF" d="M43.6,36.8c0.3,0,0.5-0.2,0.6-0.4c0.1-0.3-0.1-0.7-0.4-0.8
					c-1-0.3-2.1-0.4-3.1-0.3c-0.3,0-0.6,0.3-0.5,0.7c0,0.3,0.3,0.6,0.7,0.5c0.9-0.1,1.8,0,2.7,0.2C43.4,36.8,43.5,36.8,43.6,36.8z"
					/>
			</g>
			<g>
				<path fill-rule="evenodd" clip-rule="evenodd" fill="#FFFFFF" d="M57.7,39.3c0.2,0,0.4-0.1,0.5-0.3c0.1-0.3,0.4-0.6,0.6-0.8
					c0.2-0.2,0.3-0.6,0-0.9c-0.2-0.3-0.6-0.3-0.9,0c-0.4,0.3-0.7,0.7-0.9,1.2c-0.1,0.3,0,0.7,0.3,0.8C57.5,39.2,57.6,39.3,57.7,39.3
					z"/>
			</g>
			<g>
				<path fill-rule="evenodd" clip-rule="evenodd" fill="#FFFFFF" d="M62.2,40.2c0.3,0,0.6-0.3,0.6-0.6c0-1-0.2-2.1-0.8-2.9
					c-0.2-0.3-0.6-0.4-0.8-0.2c-0.3,0.2-0.4,0.6-0.2,0.8c0.4,0.7,0.6,1.5,0.6,2.3C61.6,39.9,61.9,40.2,62.2,40.2
					C62.2,40.2,62.2,40.2,62.2,40.2z"/>
			</g>
			<g>
				<path fill-rule="evenodd" clip-rule="evenodd" fill="#FFFFFF" d="M62.2,48c0,0,0.1,0,0.1,0c0.3-0.1,0.5-0.4,0.5-0.7
					c-0.1-0.3-0.2-0.8-0.6-1.2c-0.2-0.2-0.5-0.3-0.7-0.4l-0.2-0.1c-0.3-0.1-0.5-0.3-0.7-0.5c-0.2-0.3-0.6-0.3-0.9-0.1
					c-0.3,0.2-0.3,0.6-0.1,0.9c0.3,0.4,0.7,0.7,1.1,0.9c0.1,0,0.1,0.1,0.2,0.1c0.1,0.1,0.3,0.1,0.3,0.2c0.1,0.1,0.2,0.4,0.2,0.6
					C61.6,47.8,61.9,48,62.2,48z"/>
			</g>
			<g>
				<path fill-rule="evenodd" clip-rule="evenodd" fill="#FFFFFF" d="M68.5,45.1c0,0,0-0.1,0.1-0.1c0.1-0.3-0.1-0.7-0.4-0.8
					c-0.3-0.1-0.8-0.3-1.3-0.1c-0.3,0.1-0.5,0.3-0.7,0.4l-0.1,0.1c-0.2,0.2-0.5,0.3-0.8,0.3c-0.3,0.1-0.6,0.4-0.5,0.7
					c0.1,0.3,0.4,0.6,0.7,0.5c0.5-0.1,0.9-0.3,1.3-0.5c0.1,0,0.1-0.1,0.2-0.1c0.1-0.1,0.2-0.2,0.3-0.2c0.1,0,0.4,0,0.6,0.1
					C68.1,45.4,68.4,45.3,68.5,45.1z"/>
			</g>
			<g>
				<path fill-rule="evenodd" clip-rule="evenodd" fill="#FFFFFF" d="M59.2,53C59.2,53,59.2,53,59.2,53c0.4-0.1,0.6-0.4,0.6-0.7
					c-0.1-0.4,0-0.9,0.3-1.3c0.2-0.3,0.1-0.7-0.2-0.8C59.6,50,59.2,50,59,50.3c-0.4,0.6-0.6,1.4-0.4,2.2C58.6,52.8,58.9,53,59.2,53z
					"/>
			</g>
			<g>
				<path fill-rule="evenodd" clip-rule="evenodd" fill="#FFFFFF" d="M63.8,55.2c0.3,0,0.5-0.2,0.6-0.5c0.1-1-0.3-2-1.1-2.5
					c-0.3-0.2-0.7-0.1-0.8,0.2c-0.2,0.3-0.1,0.7,0.2,0.9c0.4,0.3,0.7,0.8,0.6,1.3C63.1,54.9,63.3,55.2,63.8,55.2
					C63.7,55.2,63.7,55.2,63.8,55.2z"/>
			</g>
			<g>
				<path fill-rule="evenodd" clip-rule="evenodd" fill="#FFFFFF" d="M61.5,61.1c0.1,0,0.1,0,0.2,0c0.3-0.1,0.5-0.5,0.3-0.8
					c-0.1-0.2,0-0.5,0.2-0.7c0.3-0.3,0.6-0.4,1-0.6c0.3-0.1,0.4-0.5,0.3-0.8c-0.1-0.3-0.5-0.4-0.8-0.3c-0.5,0.2-1,0.5-1.4,0.9
					c-0.5,0.6-0.7,1.3-0.5,2C61,60.9,61.2,61.1,61.5,61.1z"/>
			</g>
			<g>
				<path fill-rule="evenodd" clip-rule="evenodd" fill="#FFFFFF" d="M54.3,60.3C54.3,60.3,54.3,60.3,54.3,60.3
					c0.4,0,0.6-0.3,0.6-0.7c-0.1-1.2-0.6-2.3-1.3-3.2c-0.2-0.3-0.6-0.3-0.9-0.1c-0.3,0.2-0.3,0.6-0.1,0.9c0.6,0.7,1,1.6,1.1,2.6
					C53.7,60,54,60.3,54.3,60.3z"/>
			</g>
			<g>
				<path fill-rule="evenodd" clip-rule="evenodd" fill="#FFFFFF" d="M55.6,63.1c0.1,0,0.2,0,0.3-0.1l1.3-1c0.3-0.2,0.3-0.6,0.1-0.9
					c-0.2-0.3-0.6-0.3-0.8-0.1l-1.3,1c-0.3,0.2-0.3,0.6-0.1,0.9C55.2,63,55.4,63.1,55.6,63.1z"/>
			</g>
			<g>
				<path fill-rule="evenodd" clip-rule="evenodd" fill="#FFFFFF" d="M42.2,59.8c0.2,0,0.4-0.1,0.5-0.3c0.2-0.3,0.1-0.7-0.2-0.8
					c-0.4-0.2-0.8-0.5-1.2-0.7c-0.3-0.2-0.7-0.1-0.8,0.2c-0.2,0.3-0.1,0.7,0.2,0.8c0.4,0.3,0.8,0.5,1.2,0.7
					C42,59.8,42.1,59.8,42.2,59.8z"/>
			</g>
		</g>
		<g>
			<path fill-rule="evenodd" clip-rule="evenodd" fill="#6F8CC7" d="M53.6,44.8c2.8-0.1,5.5-9.4,5.7-9.8c0-0.1,0-0.2-0.1-0.2
				c-0.1,0-0.2,0-0.2,0.1c-0.8,2.8-3.4,9.9-5.6,9.6c-2.7-0.4-6.1-9.4-6.1-9.5c0-0.1-0.1-0.1-0.2-0.1C47,35,47,35.1,47,35.1
				c0.1,0.4,3.5,9.2,6.4,9.7C53.5,44.8,53.5,44.8,53.6,44.8z"/>
		</g>
		<g>
			<g>
				<path fill-rule="evenodd" clip-rule="evenodd" fill="#6F8CC7" d="M52.7,45.6c0-0.5,0.4-0.9,0.8-0.9c0.5,0,0.9,0.4,0.9,0.8
					c0,0.5-0.4,0.9-0.8,0.9C53.1,46.4,52.7,46,52.7,45.6L52.7,45.6z M53,45.5L53,45.5c0,0.3,0.3,0.6,0.6,0.5c0.3,0,0.6-0.3,0.5-0.6
					c0-0.3-0.3-0.6-0.6-0.5C53.2,45,53,45.2,53,45.5z"/>
			</g>
		</g>
		<g>
			<path fill-rule="evenodd" clip-rule="evenodd" fill="#FFFFFF" d="M51.2,26.5c-0.5,1,0.3,2.1,1.3,2.4c0.9,0.3,3,0.4,2.9-1.1
				c0-0.4-0.2-0.7-0.6-0.7c-0.5-0.1-1-0.1-1.4-0.4c-0.2-0.2-0.3-0.4-0.5-0.5C52.4,25.7,51.5,25.9,51.2,26.5z"/>
		</g>
		<g>
			<path fill-rule="evenodd" clip-rule="evenodd" fill="#DC3760" d="M56.1,24.7c0,0.1-0.1,0.1-0.1,0.2c0,0.1,0.1,0.3,0.2,0.4
				c0.2,0.2,0.4,0.3,0.7,0.3c0.4,0.1,1.1,0,1.3-0.3c0.2-0.2,0.1-0.5,0-0.7c-0.1-0.2-0.4-0.3-0.6-0.3c-0.2,0-0.4,0.1-0.7,0.1
				C56.7,24.5,56.2,24.5,56.1,24.7z"/>
		</g>
		<g>
			<path fill-rule="evenodd" clip-rule="evenodd" fill="#DC3760" d="M53,24.7c0,0.1,0.1,0.1,0.1,0.2c0,0.1-0.1,0.3-0.2,0.4
				c-0.2,0.2-0.4,0.3-0.7,0.3c-0.4,0.1-1.1,0-1.3-0.3c-0.2-0.2-0.1-0.5,0-0.7c0.1-0.2,0.4-0.3,0.6-0.3c0.2,0,0.4,0.1,0.7,0.1
				C52.4,24.5,52.8,24.5,53,24.7z"/>
		</g>
	</g>
	<g>
		<g>
			<rect x="51.7" y="64.6" fill-rule="evenodd" clip-rule="evenodd" fill="#0D102D" width="2.9" height="31.4"/>
		</g>
		<g>
			<g>
				<path fill-rule="evenodd" clip-rule="evenodd" fill="#F5DCC0" d="M88.3,66.4v17.7c0,0,0.3,3.9-10.4,5.1
					c-10.8,1.2-7-2.7-19.6-1.2c-12.6,1.5-6.5,3.7-19,2.5c-12.5-1.2-10.2-3.8-14.2-3.7c-4,0.1-2.4,1.3-7.3-1.9V66.4H88.3z"/>
			</g>
			<g>
				<path fill-rule="evenodd" clip-rule="evenodd" fill="#FFFFFF" d="M88.3,66.4c0,3.4-15.7,6.1-35.2,6.1c-19.4,0-35.2-2.7-35.2-6.1
					c0-3.4,15.7-6.1,35.2-6.1C72.6,60.4,88.3,63.1,88.3,66.4z"/>
			</g>
			<g>
				<g>
					<path opacity="0.53" fill-rule="evenodd" clip-rule="evenodd" fill="#EDBF8B" d="M65.8,84.8c-0.6-1.3-1-2.7-2.2-3.3
						c-0.6-0.3-1.4-0.3-2-0.7c-1-0.7-1.2-2.2-2.1-3c-1-0.9-2.8-0.6-3.9,0.3c-1.1,0.9-1.6,2.3-2.2,3.6c-1.2,2.9-2.3,6-4.7,8.1
						c-0.4,0.4-0.8,0.7-1.2,1c2.3-0.5,3-1.7,10.7-2.6c5.9-0.7,8.2-0.2,10.1,0.3C67.2,87.4,66.4,86.1,65.8,84.8z"/>
				</g>
				<g>
					<path opacity="0.53" fill-rule="evenodd" clip-rule="evenodd" fill="#EDBF8B" d="M27,76.8c-1.3,3-2.6,6-4,9
						c-0.2,0.5-0.4,1-0.7,1.4c0.5-0.1,1.2-0.2,2.6-0.3c1,0,1.7,0.1,2.2,0.4c-0.3-0.8-0.3-1.7-0.3-2.6C26.9,82.1,26.9,79.4,27,76.8z"
						/>
				</g>
			</g>
		</g>
	</g>
</g>
</svg>
